<svg width="1395" height="1111" xmlns="http://www.w3.org/2000/svg" xmlns:xlink="http://www.w3.org/1999/xlink" xml:space="preserve" overflow="hidden"><g transform="translate(-1012 -552)"><path d="M1199 1148.5C1199 864.349 1429.35 634 1713.5 634 1997.65 634 2228 864.349 2228 1148.5 2228 1432.65 1997.65 1663 1713.5 1663 1429.35 1663 1199 1432.65 1199 1148.5Z" fill="#1FC2A7" fill-rule="evenodd" fill-opacity="0.501961"/><path d="M1251 739.5C1251 635.947 1335.17 552 1439 552 1542.83 552 1627 635.947 1627 739.5 1627 843.053 1542.83 927 1439 927 1335.17 927 1251 843.053 1251 739.5Z" fill="#CAF3FC" fill-rule="evenodd"/><path d="M1389.57 728.07C1386.42 725.458 1384.88 723.296 1377.13 729.691 1369.37 736.086 1352.6 752.569 1343.04 766.44 1333.48 780.311 1323.83 801.477 1319.77 812.916 1315.71 824.355 1315.53 828.588 1318.69 835.073 1321.84 841.558 1326.98 844.711 1338.71 851.826 1350.43 858.942 1389.03 877.766 1389.03 877.766 1403.82 885.242 1415.91 894.519 1427.45 896.681 1438.99 898.842 1444.14 896.681 1458.29 890.736 1472.45 884.792 1496.98 869.75 1512.41 861.013 1527.83 852.276 1543.52 845.521 1550.83 838.315 1558.13 831.11 1558.58 826.066 1556.24 817.78 1553.89 809.493 1552 801.567 1543.25 788.597 1534.5 775.627 1514.03 750.137 1503.75 739.959 1493.47 729.781 1487.79 724.197 1481.56 727.53 1475.34 730.862 1473.09 746.174 1466.41 759.955 1459.74 773.735 1447.29 801.027 1441.52 810.214 1435.75 819.401 1436.56 819.401 1431.78 815.078 1427 810.754 1419.33 796.883 1412.84 784.274 1406.35 771.664 1399.4 754.911 1396.07 745.363 1392.73 735.816 1392.73 730.682 1389.57 728.07Z" stroke="#0684A2" stroke-width="4.58333" stroke-miterlimit="8" fill="#0BB5DD" fill-rule="evenodd"/><path d="M1369.5 651C1369.5 614.825 1398.6 585.5 1434.5 585.5 1470.4 585.5 1499.5 614.825 1499.5 651 1499.5 687.174 1470.4 716.5 1434.5 716.5 1398.6 716.5 1369.5 687.174 1369.5 651Z" stroke="#0684A2" stroke-width="4.58333" stroke-miterlimit="8" fill="#0BB5DD" fill-rule="evenodd"/><g><g><g><path d="M124.723 48.1698C121.721 47.0781 108.621 42.9844 98.25 42.9844 89.6531 42.9844 70.0031 47.351 65.5 48.3062 60.9969 47.351 41.3469 42.9844 32.75 42.9844 22.5156 42.9844 9.41562 47.0781 6.27708 48.1698 5.86771 48.3062 5.45833 48.7156 5.45833 49.2614L5.45833 54.8562C5.45833 55.8114 5.73125 56.9031 6.55 57.4489L8.1875 58.8135C8.32396 64.2719 9.00625 72.4594 11.4625 76.4166 14.601 81.875 24.2896 88.0156 34.1146 88.0156 51.4448 88.0156 59.6323 74.9156 62.6344 62.9073 62.9073 61.6792 64.1354 60.7239 65.5 60.7239 66.8646 60.7239 67.9562 61.6792 68.3656 62.9073 71.5042 74.9156 79.6917 88.0156 96.8854 88.0156 106.71 88.0156 116.399 81.875 119.537 76.4166 121.857 72.3229 122.54 64.2719 122.812 58.8135L124.45 57.5854C125.269 57.0396 125.542 55.8114 125.542 54.9927L125.542 49.3979C125.405 48.7156 125.132 48.3062 124.723 48.1698ZM54.4469 61.8156C52.1271 70.0031 48.7156 81.1927 34.1146 81.1927 27.8375 81.1927 21.0146 78.1906 18.149 73.8239 16.2385 70.8219 16.375 63.5896 16.375 57.3125 16.375 55.4021 17.6031 53.7646 19.5135 53.2187 23.6073 52.1271 28.5198 51.1719 32.75 51.1719 36.025 51.1719 42.575 52.1271 48.9885 53.3552 52.9458 54.0375 55.5385 57.9948 54.4469 61.8156ZM112.851 73.8239C109.985 78.1906 103.162 81.1927 96.8854 81.1927 82.4208 81.1927 78.8729 70.0031 76.5531 61.8156 75.4614 57.9948 78.0541 54.0375 81.875 53.3552 88.2885 52.1271 94.8385 51.1719 98.1135 51.1719 102.48 51.1719 107.256 52.1271 111.35 53.2187 113.26 53.7646 114.489 55.4021 114.489 57.3125 114.625 63.5896 114.761 70.8219 112.851 73.8239Z" stroke="#0888A6" stroke-width="1.36458" fill="#FFFFFF" transform="matrix(1.0687 0 0 1 1364 587)"/></g></g></g><path d="M1442.3 740.927 1446.96 725.927 1418.96 725.927 1423.63 740.927Z" stroke="#0684A2" stroke-width="4.58333" stroke-miterlimit="8" fill="#0BB5DD" fill-rule="evenodd"/><path d="M1446.5 809.472 1442 746.5 1424 746.5 1419.5 809.472 1433 822.5 1446.5 809.472Z" stroke="#0684A2" stroke-width="4.58333" stroke-miterlimit="8" fill="#0BB5DD" fill-rule="evenodd"/><path d="M1488 784 1488 816.981" stroke="#0888A6" stroke-width="13.75" stroke-linecap="round" stroke-miterlimit="8" fill="none" fill-rule="evenodd"/><path d="M1498 788 1498 820.98" stroke="#0888A6" stroke-width="13.75" stroke-linecap="round" stroke-miterlimit="8" fill="none" fill-rule="evenodd"/><path d="M1499.29 829.5 1492.71 829.5C1483.2 829.5 1475.5 821.578 1475.5 811.807L1475.5 797.5 1516.5 797.5 1516.5 811.807C1516.5 821.578 1508.8 829.5 1499.29 829.5Z" stroke="#0684A2" stroke-width="4.58333" stroke-miterlimit="8" fill="#0BB5DD" fill-rule="evenodd"/><path d="M1293.5 1266.14C1293.5 1229.34 1323.34 1199.5 1360.14 1199.5L2337.86 1199.5C2374.66 1199.5 2404.5 1229.34 2404.5 1266.14L2404.5 1332.86C2404.5 1369.66 2374.66 1399.5 2337.86 1399.5L1360.14 1399.5C1323.34 1399.5 1293.5 1369.66 1293.5 1332.86Z" stroke="#0684A2" stroke-width="4.58333" stroke-miterlimit="8" fill="#0BB5DD" fill-rule="evenodd"/><path d="M1379.5 1301C1379.5 1268.69 1405.69 1242.5 1438 1242.5 1470.31 1242.5 1496.5 1268.69 1496.5 1301 1496.5 1333.31 1470.31 1359.5 1438 1359.5 1405.69 1359.5 1379.5 1333.31 1379.5 1301Z" stroke="#0684A2" stroke-width="4.58333" stroke-miterlimit="8" fill="#FFFFFF" fill-rule="evenodd"/><path d="M1586.5 1301C1586.5 1268.69 1612.47 1242.5 1644.5 1242.5 1676.53 1242.5 1702.5 1268.69 1702.5 1301 1702.5 1333.31 1676.53 1359.5 1644.5 1359.5 1612.47 1359.5 1586.5 1333.31 1586.5 1301Z" stroke="#0684A2" stroke-width="4.58333" stroke-miterlimit="8" fill="#FFFFFF" fill-rule="evenodd"/><path d="M1792.5 1301C1792.5 1268.69 1818.69 1242.5 1851 1242.5 1883.31 1242.5 1909.5 1268.69 1909.5 1301 1909.5 1333.31 1883.31 1359.5 1851 1359.5 1818.69 1359.5 1792.5 1333.31 1792.5 1301Z" stroke="#0684A2" stroke-width="4.58333" stroke-miterlimit="8" fill="#FFFFFF" fill-rule="evenodd"/><path d="M1999.5 1301C1999.5 1268.69 2025.47 1242.5 2057.5 1242.5 2089.53 1242.5 2115.5 1268.69 2115.5 1301 2115.5 1333.31 2089.53 1359.5 2057.5 1359.5 2025.47 1359.5 1999.5 1333.31 1999.5 1301Z" stroke="#0684A2" stroke-width="4.58333" stroke-miterlimit="8" fill="#FFFFFF" fill-rule="evenodd"/><rect x="1403.5" y="1399.5" width="68.0001" height="140" stroke="#0684A2" stroke-width="4.58333" stroke-miterlimit="8" fill="#0BB5DD"/><path d="M2208.5 1301C2208.5 1268.69 2234.69 1242.5 2267 1242.5 2299.31 1242.5 2325.5 1268.69 2325.5 1301 2325.5 1333.31 2299.31 1359.5 2267 1359.5 2234.69 1359.5 2208.5 1333.31 2208.5 1301Z" stroke="#0684A2" stroke-width="4.58333" stroke-miterlimit="8" fill="#FFFFFF" fill-rule="evenodd"/><rect x="2208.5" y="1399.5" width="68.9998" height="140" stroke="#0684A2" stroke-width="4.58333" stroke-miterlimit="8" fill="#0BB5DD"/><rect x="2148.5" y="1089.5" width="33" height="68.0001" stroke="#0684A2" stroke-width="6.875" stroke-miterlimit="8" fill="#0BB5DD"/><rect x="2187.5" y="1071.5" width="33" height="85.9999" stroke="#0684A2" stroke-width="6.875" stroke-miterlimit="8" fill="#0BB5DD"/><rect x="2227.5" y="1053.5" width="33" height="104" stroke="#0684A2" stroke-width="6.875" stroke-miterlimit="8" fill="#0BB5DD"/><path d="M2133.34 1121.64C2078.94 1122.59 2034.07 1079.25 2033.12 1024.85 2032.18 970.447 2075.51 925.579 2129.92 924.634 2184.32 923.689 2229.19 967.024 2230.13 1021.43 2230.17 1023.9 2230.12 1026.37 2229.98 1028.83" stroke="#0BB5DD" stroke-width="6.875" stroke-linecap="round" stroke-miterlimit="8" fill="none" fill-rule="evenodd"/><path d="M0 0 19.6668 21.7347" stroke="#0BB5DD" stroke-width="6.875" stroke-linecap="round" stroke-miterlimit="8" fill="none" fill-rule="evenodd" transform="matrix(1 0 0 -1 2228.5 1034.23)"/><path d="M0 0 19.6668 21.7347" stroke="#0BB5DD" stroke-width="6.875" stroke-linecap="round" stroke-miterlimit="8" fill="none" fill-rule="evenodd" transform="matrix(-1.83697e-16 -1 -1 1.83697e-16 2229.23 1034.17)"/><path d="M2090.79 1045.95C2086.38 1038.26 2086.34 1021.18 2091.06 1010.97 2095.78 1000.75 2104.55 986.388 2128.95 986.034 2137.42 985.912 2149.85 983.943 2157.83 982.021 2165.8 980.098 2173.28 974.379 2176.81 974.502 2180.34 974.625 2179.58 977.907 2179.01 982.757 2178.44 987.606 2175.86 997.398 2173.38 1003.6 2170.91 1009.8 2164.12 1027.85 2158.98 1036.09 2153.85 1044.33 2149.49 1049.53 2142.58 1053.04 2135.66 1056.55 2126.14 1058.32 2117.51 1057.13 2108.88 1055.95 2095.19 1053.65 2090.79 1045.95Z" stroke="#2D3E50" stroke-width="6.875" stroke-linecap="round" stroke-miterlimit="8" fill="none" fill-rule="evenodd"/><path d="M2081.5 1070.5C2085.67 1052.44 2089.83 1034.38 2126.5 1022.5" stroke="#2D3E50" stroke-width="6.875" stroke-linecap="round" stroke-miterlimit="8" fill="none" fill-rule="evenodd"/><rect x="1975.5" y="910.5" width="46.0001" height="19.9999" stroke="#0684A2" stroke-width="6.875" stroke-miterlimit="8" fill="#0BB5DD"/><path d="M2021.5 920.5 2057.78 920.5" stroke="#0BB5DD" stroke-width="6.875" stroke-miterlimit="8" fill="none" fill-rule="evenodd"/><path d="M2057.5 920.5 2072.83 982.831" stroke="#0BB5DD" stroke-width="6.875" stroke-miterlimit="8" fill="none" fill-rule="evenodd"/><rect x="2008.5" y="1119.5" width="46" height="19.9999" stroke="#0684A2" stroke-width="6.875" stroke-miterlimit="8" fill="#0BB5DD"/><path d="M2054.5 1129.5 2087.14 1129.5" stroke="#0BB5DD" stroke-width="6.875" stroke-miterlimit="8" fill="none" fill-rule="evenodd"/><path d="M0 0 15.3293 62.3304" stroke="#0BB5DD" stroke-width="6.875" stroke-miterlimit="8" fill="none" fill-rule="evenodd" transform="matrix(1 0 0 -1 2087.5 1129.83)"/><rect x="2253.5" y="950.5" width="45" height="19.9999" stroke="#0684A2" stroke-width="6.875" stroke-miterlimit="8" fill="#0BB5DD"/><path d="M2228.5 960.5 2252.34 960.5" stroke="#0BB5DD" stroke-width="6.875" stroke-miterlimit="8" fill="none" fill-rule="evenodd"/><path d="M0 0 67.2036 35.7908" stroke="#0BB5DD" stroke-width="6.875" stroke-miterlimit="8" fill="none" fill-rule="evenodd" transform="matrix(1 0 0 -1 2161.5 996.291)"/><path d="M2246.1 839.339C2250.62 839.35 2255.19 840.615 2259.22 843.22 2264.66 847.022 2268.03 852.555 2269.08 858.497 2270.14 864.439 2268.88 870.791 2265.08 876.232L2231.13 924.814C2226.51 931.421 2219.27 934.748 2211.77 934.715L2206.72 941.938 2204.29 939.729C2201.05 937.053 2197.68 934.529 2194.18 932.17L2185.04 926.614 2190.01 919.505C2187.4 912.477 2188.03 904.532 2192.65 897.926L2226.6 849.344C2231.18 842.785 2238.57 839.32 2246.1 839.339Z" stroke="#0BB5DD" stroke-width="6.875" stroke-linecap="round" stroke-miterlimit="8" fill="none" fill-rule="evenodd"/><path d="M1024.82 1047.81C1020.37 1040.02 1020.33 1022.74 1025.1 1012.41 1029.87 1002.07 1038.74 987.531 1063.4 987.173 1071.97 987.049 1084.53 985.056 1092.59 983.111 1100.65 981.166 1108.21 975.378 1111.78 975.502 1115.35 975.626 1114.58 978.948 1114.01 983.856 1113.43 988.764 1110.82 998.674 1108.32 1004.95 1105.82 1011.23 1098.95 1029.49 1093.76 1037.83 1088.57 1046.17 1084.16 1051.44 1077.18 1054.99 1070.19 1058.53 1060.56 1060.33 1051.84 1059.13 1043.11 1057.94 1029.28 1055.6 1024.82 1047.81Z" stroke="#2D3E50" stroke-width="6.875" stroke-linecap="round" stroke-miterlimit="8" fill="none" fill-rule="evenodd"/><path d="M1015.5 1072.5C1019.67 1054.44 1023.83 1036.38 1060.5 1024.5" stroke="#2D3E50" stroke-width="6.875" stroke-linecap="round" stroke-miterlimit="8" fill="none" fill-rule="evenodd"/><rect x="1587.5" y="1087.5" width="33" height="67.9998" stroke="#0684A2" stroke-width="6.875" stroke-miterlimit="8" fill="#0BB5DD"/><rect x="1627.5" y="1069.5" width="33" height="85.9999" stroke="#0684A2" stroke-width="6.875" stroke-miterlimit="8" fill="#0BB5DD"/><rect x="1666.5" y="1051.5" width="33" height="104" stroke="#0684A2" stroke-width="6.875" stroke-miterlimit="8" fill="#0BB5DD"/><path d="M1529.82 1043.95C1525.37 1036.26 1525.33 1019.18 1530.1 1008.97 1534.87 998.753 1543.74 984.388 1568.4 984.034 1576.97 983.911 1589.53 981.943 1597.59 980.02 1605.65 978.098 1613.21 972.379 1616.78 972.502 1620.35 972.625 1619.58 975.907 1619.01 980.757 1618.43 985.606 1615.82 995.398 1613.32 1001.6 1610.82 1007.8 1603.95 1025.85 1598.76 1034.09 1593.57 1042.33 1589.16 1047.53 1582.18 1051.04 1575.19 1054.55 1565.56 1056.32 1556.84 1055.14 1548.11 1053.95 1534.28 1051.65 1529.82 1043.95Z" stroke="#2D3E50" stroke-width="6.875" stroke-linecap="round" stroke-miterlimit="8" fill="none" fill-rule="evenodd"/><path d="M1520.5 1068.5C1524.67 1050.44 1528.83 1032.38 1565.5 1020.5" stroke="#2D3E50" stroke-width="6.875" stroke-linecap="round" stroke-miterlimit="8" fill="none" fill-rule="evenodd"/><rect x="1448.5" y="1117.5" width="45" height="21" stroke="#0684A2" stroke-width="6.875" stroke-miterlimit="8" fill="#0BB5DD"/><path d="M1493.5 1127.5 1526.14 1127.5" stroke="#0BB5DD" stroke-width="6.875" stroke-miterlimit="8" fill="none" fill-rule="evenodd"/><path d="M0 0 15.3293 62.3304" stroke="#0BB5DD" stroke-width="6.875" stroke-miterlimit="8" fill="none" fill-rule="evenodd" transform="matrix(1 0 0 -1 1526.5 1127.83)"/><path d="M1273.5 1015.5 1325.5 1015.5 1325.5 1003.5 1349.5 1027.5 1325.5 1051.5 1325.5 1039.5 1273.5 1039.5Z" stroke="#0684A2" stroke-width="4.58333" stroke-miterlimit="8" fill="#0BB5DD" fill-rule="evenodd"/><path d="M1807.5 1023.5 1860.5 1023.5 1860.5 1011.5 1884.5 1035.5 1860.5 1059.5 1860.5 1047.5 1807.5 1047.5Z" stroke="#0684A2" stroke-width="4.58333" stroke-miterlimit="8" fill="#0BB5DD" fill-rule="evenodd"/></g></svg>