<?xml version="1.0" encoding="UTF-8" standalone="no"?>
<svg
   xmlns:dc="http://purl.org/dc/elements/1.1/"
   xmlns:cc="http://creativecommons.org/ns#"
   xmlns:rdf="http://www.w3.org/1999/02/22-rdf-syntax-ns#"
   xmlns:svg="http://www.w3.org/2000/svg"
   xmlns="http://www.w3.org/2000/svg"
   xmlns:sodipodi="http://sodipodi.sourceforge.net/DTD/sodipodi-0.dtd"
   xmlns:inkscape="http://www.inkscape.org/namespaces/inkscape"
   width="229.42209mm"
   height="146.5623mm"
   viewBox="0 0 229.42209 146.5623"
   version="1.1"
   id="svg8"
   inkscape:version="1.0.1 (3bc2e813f5, 2020-09-07)"
   sodipodi:docname="Service.svg">
  <defs
     id="defs2">
    <filter
       id="fx0"
       x="-21"
       y="-29.700001"
       width="252.00002"
       height="356.40002"
       filterUnits="userSpaceOnUse"
       primitiveUnits="userSpaceOnUse">
      <feComponentTransfer
         color-interpolation-filters="sRGB"
         id="feComponentTransfer18">
        <feFuncR
           type="discrete"
           tableValues="0 0"
           id="feFuncR10" />
        <feFuncG
           type="discrete"
           tableValues="0 0"
           id="feFuncG12" />
        <feFuncB
           type="discrete"
           tableValues="0 0"
           id="feFuncB14" />
        <feFuncA
           type="linear"
           slope="0.4"
           intercept="0"
           id="feFuncA16" />
      </feComponentTransfer>
      <feGaussianBlur
         stdDeviation="1.77778 1.77778"
         id="feGaussianBlur20" />
    </filter>
    <filter
       id="fx1"
       x="-21"
       y="-29.700001"
       width="252.00002"
       height="356.40002"
       filterUnits="userSpaceOnUse"
       primitiveUnits="userSpaceOnUse">
      <feComponentTransfer
         color-interpolation-filters="sRGB"
         id="feComponentTransfer31">
        <feFuncR
           type="discrete"
           tableValues="0 0"
           id="feFuncR23" />
        <feFuncG
           type="discrete"
           tableValues="0 0"
           id="feFuncG25" />
        <feFuncB
           type="discrete"
           tableValues="0 0"
           id="feFuncB27" />
        <feFuncA
           type="linear"
           slope="0.4"
           intercept="0"
           id="feFuncA29" />
      </feComponentTransfer>
      <feGaussianBlur
         stdDeviation="1.77778 1.77778"
         id="feGaussianBlur33" />
    </filter>
    <filter
       id="fx2"
       x="-21"
       y="-29.700001"
       width="252.00002"
       height="356.40002"
       filterUnits="userSpaceOnUse"
       primitiveUnits="userSpaceOnUse">
      <feComponentTransfer
         color-interpolation-filters="sRGB"
         id="feComponentTransfer44">
        <feFuncR
           type="discrete"
           tableValues="0 0"
           id="feFuncR36" />
        <feFuncG
           type="discrete"
           tableValues="0 0"
           id="feFuncG38" />
        <feFuncB
           type="discrete"
           tableValues="0 0"
           id="feFuncB40" />
        <feFuncA
           type="linear"
           slope="0.4"
           intercept="0"
           id="feFuncA42" />
      </feComponentTransfer>
      <feGaussianBlur
         stdDeviation="1.77778 1.77778"
         id="feGaussianBlur46" />
    </filter>
    <clipPath
       id="clip3">
      <rect
         x="171"
         y="78"
         width="912"
         height="559"
         id="rect49" />
    </clipPath>
    <clipPath
       id="clip4">
      <rect
         x="171"
         y="78"
         width="161"
         height="109"
         id="rect52" />
    </clipPath>
    <clipPath
       id="clip5">
      <rect
         x="171"
         y="78"
         width="161"
         height="109"
         id="rect55" />
    </clipPath>
    <clipPath
       id="clip6">
      <rect
         x="171"
         y="78"
         width="161"
         height="164"
         id="rect58" />
    </clipPath>
    <clipPath
       id="clip7">
      <rect
         x="171"
         y="185"
         width="161"
         height="57"
         id="rect61" />
    </clipPath>
    <clipPath
       id="clip8">
      <rect
         x="171"
         y="185"
         width="161"
         height="57"
         id="rect64" />
    </clipPath>
    <clipPath
       id="clip9">
      <rect
         x="171"
         y="79"
         width="161"
         height="163"
         id="rect67" />
    </clipPath>
    <clipPath
       id="clip10">
      <rect
         x="277"
         y="140"
         width="161"
         height="109"
         id="rect70" />
    </clipPath>
    <clipPath
       id="clip11">
      <rect
         x="277"
         y="140"
         width="161"
         height="109"
         id="rect73" />
    </clipPath>
    <clipPath
       id="clip12">
      <rect
         x="277"
         y="140"
         width="161"
         height="164"
         id="rect76" />
    </clipPath>
    <clipPath
       id="clip13">
      <rect
         x="277"
         y="247"
         width="161"
         height="57"
         id="rect79" />
    </clipPath>
    <clipPath
       id="clip14">
      <rect
         x="277"
         y="247"
         width="161"
         height="57"
         id="rect82" />
    </clipPath>
    <clipPath
       id="clip15">
      <rect
         x="277"
         y="141"
         width="161"
         height="163"
         id="rect85" />
    </clipPath>
    <clipPath
       id="clip16">
      <rect
         x="922"
         y="145"
         width="139"
         height="124"
         id="rect88" />
    </clipPath>
    <clipPath
       id="clip17">
      <rect
         x="922"
         y="145"
         width="139"
         height="124"
         id="rect91" />
    </clipPath>
    <clipPath
       id="clip18">
      <rect
         x="922"
         y="145"
         width="139"
         height="124"
         id="rect94" />
    </clipPath>
    <clipPath
       id="clip19">
      <rect
         x="945"
         y="113"
         width="138"
         height="137"
         id="rect97" />
    </clipPath>
    <clipPath
       id="clip20">
      <rect
         x="945"
         y="113"
         width="138"
         height="137"
         id="rect100" />
    </clipPath>
    <clipPath
       id="clip21">
      <rect
         x="945"
         y="113"
         width="138"
         height="137"
         id="rect103" />
    </clipPath>
    <clipPath
       id="clip22">
      <rect
         x="-2"
         y="-2"
         width="164"
         height="114"
         id="rect106" />
    </clipPath>
    <clipPath
       id="clip23">
      <rect
         x="0"
         y="0"
         width="159"
         height="111"
         id="rect109" />
    </clipPath>
    <clipPath
       id="clip24">
      <rect
         x="-2"
         y="-2"
         width="161"
         height="114"
         id="rect112" />
    </clipPath>
    <clipPath
       id="clip25">
      <rect
         x="0"
         y="0"
         width="158"
         height="111"
         id="rect115" />
    </clipPath>
    <clipPath
       id="clip26">
      <rect
         x="-2"
         y="-2"
         width="164"
         height="116"
         id="rect118" />
    </clipPath>
    <clipPath
       id="clip27">
      <rect
         x="0"
         y="0"
         width="159"
         height="112"
         id="rect121" />
    </clipPath>
  </defs>
  <sodipodi:namedview
     id="base"
     pagecolor="#ffffff"
     bordercolor="#666666"
     borderopacity="1.0"
     inkscape:pageopacity="0.0"
     inkscape:pageshadow="2"
     inkscape:zoom="0.35"
     inkscape:cx="433.55354"
     inkscape:cy="276.96812"
     inkscape:document-units="mm"
     inkscape:current-layer="layer1"
     inkscape:document-rotation="0"
     showgrid="false"
     inkscape:window-width="1254"
     inkscape:window-height="967"
     inkscape:window-x="234"
     inkscape:window-y="34"
     inkscape:window-maximized="0" />
  <metadata
     id="metadata5">
    <rdf:RDF>
      <cc:Work
         rdf:about="">
        <dc:format>image/svg+xml</dc:format>
        <dc:type
           rdf:resource="http://purl.org/dc/dcmitype/StillImage" />
        <dc:title></dc:title>
      </cc:Work>
    </rdf:RDF>
  </metadata>
  <g
     inkscape:label="Ebene 1"
     inkscape:groupmode="layer"
     id="layer1"
     transform="translate(8.877708,-74.885519)">
    <g
       clip-path="url(#clip3)"
       transform="matrix(0.26458333,0,0,0.26458333,-62.195985,52.908233)"
       id="g372">
      <rect
         x="676.5"
         y="593.5"
         width="21"
         height="43"
         stroke="#243240"
         stroke-width="1.33333"
         stroke-miterlimit="8"
         fill="#4bceb8"
         id="rect126" />
      <rect
         x="701.5"
         y="582.5"
         width="21"
         height="54"
         stroke="#243240"
         stroke-width="1.33333"
         stroke-miterlimit="8"
         fill="#4bceb8"
         id="rect128" />
      <rect
         x="726.5"
         y="571.5"
         width="20"
         height="65"
         stroke="#243240"
         stroke-width="1.33333"
         stroke-miterlimit="8"
         fill="#4bceb8"
         id="rect130" />
      <path
         d="m 667.595,614.046 c -33.894,0.589 -61.848,-26.41 -62.437,-60.305 -0.589,-33.894 26.41,-61.848 60.304,-62.437 33.894,-0.589 61.848,26.41 62.437,60.305 0.027,1.538 -0.004,3.078 -0.093,4.614"
         stroke="#243240"
         stroke-width="4"
         stroke-linecap="round"
         stroke-miterlimit="8"
         fill="none"
         fill-rule="evenodd"
         id="path132" />
      <path
         d="M 0,0 12.2531,13.5414"
         stroke="#243240"
         stroke-width="4"
         stroke-linecap="round"
         stroke-miterlimit="8"
         fill="none"
         fill-rule="evenodd"
         transform="matrix(1,0,0,-1,727,559.541)"
         id="path134" />
      <path
         d="M 0,0 12.2531,13.5414"
         stroke="#243240"
         stroke-width="4"
         stroke-linecap="round"
         stroke-miterlimit="8"
         fill="none"
         fill-rule="evenodd"
         transform="matrix(0,-1,-1,0,726.541,559.253)"
         id="path136" />
      <path
         d="m 641.036,566.765 c -2.731,-4.821 -2.754,-15.52 0.171,-21.918 2.924,-6.399 8.357,-15.399 23.473,-15.621 5.251,-0.077 12.951,-1.31 17.893,-2.514 4.941,-1.205 9.571,-4.788 11.758,-4.711 2.188,0.077 1.721,2.133 1.367,5.172 -0.353,3.038 -1.956,9.173 -3.488,13.059 -1.533,3.886 -5.741,15.193 -8.922,20.355 -3.181,5.162 -5.882,8.421 -10.165,10.618 -4.282,2.198 -10.181,3.306 -15.529,2.566 -5.348,-0.74 -13.827,-2.186 -16.558,-7.006 z"
         stroke="#243240"
         stroke-width="4"
         stroke-linecap="round"
         stroke-miterlimit="8"
         fill="none"
         fill-rule="evenodd"
         id="path138" />
      <path
         d="m 635,582 c 2.593,-11.286 5.185,-22.573 28,-30"
         stroke="#243240"
         stroke-width="4"
         stroke-linecap="round"
         stroke-miterlimit="8"
         fill="none"
         fill-rule="evenodd"
         id="path140" />
      <rect
         x="569.5"
         y="482.5"
         width="28"
         height="13"
         stroke="#243240"
         stroke-width="1.33333"
         stroke-miterlimit="8"
         fill="#ffffff"
         id="rect142" />
      <path
         d="m 597.5,488.5 h 22.605"
         stroke="#243240"
         stroke-width="1.33333"
         stroke-miterlimit="8"
         fill="none"
         fill-rule="evenodd"
         id="path144" />
      <path
         d="m 620.5,488.5 9.551,38.834"
         stroke="#243240"
         stroke-width="1.33333"
         stroke-miterlimit="8"
         fill="none"
         fill-rule="evenodd"
         id="path146" />
      <rect
         x="590.5"
         y="612.5"
         width="28"
         height="13"
         stroke="#243240"
         stroke-width="1.33333"
         stroke-miterlimit="8"
         fill="#ffffff"
         id="rect148" />
      <path
         d="m 618.5,619.5 h 20.333"
         stroke="#243240"
         stroke-width="1.33333"
         stroke-miterlimit="8"
         fill="none"
         fill-rule="evenodd"
         id="path150" />
      <path
         d="M 0,0 9.55055,38.8337"
         stroke="#243240"
         stroke-width="1.33333"
         stroke-miterlimit="8"
         fill="none"
         fill-rule="evenodd"
         transform="matrix(1,0,0,-1,639.5,619.334)"
         id="path152" />
      <rect
         x="742.5"
         y="507.5"
         width="28"
         height="13"
         stroke="#243240"
         stroke-width="1.33333"
         stroke-miterlimit="8"
         fill="#ffffff"
         id="rect154" />
      <path
         d="m 727.5,513.5 h 14.851"
         stroke="#243240"
         stroke-width="1.33333"
         stroke-miterlimit="8"
         fill="none"
         fill-rule="evenodd"
         id="path156" />
      <path
         d="M 0,0 41.87,22.2986"
         stroke="#243240"
         stroke-width="1.33333"
         stroke-miterlimit="8"
         fill="none"
         fill-rule="evenodd"
         transform="matrix(1,0,0,-1,685.5,535.799)"
         id="path158" />
      <path
         d="m 737.85,438.163 c 2.815,0.007 5.659,0.795 8.175,2.418 3.39,2.369 5.485,5.816 6.142,9.518 0.656,3.702 -0.127,7.66 -2.496,11.05 l -21.152,30.268 c -2.877,4.116 -7.388,6.189 -12.059,6.168 l -3.145,4.5 -1.515,-1.376 c -2.02,-1.667 -4.121,-3.239 -6.297,-4.71 l -5.698,-3.461 3.095,-4.429 c -1.625,-4.379 -1.23,-9.329 1.647,-13.445 l 21.152,-30.268 c 2.855,-4.086 7.461,-6.245 12.151,-6.233 z"
         stroke="#243240"
         stroke-width="4"
         stroke-linecap="round"
         stroke-miterlimit="8"
         fill="#243240"
         fill-rule="evenodd"
         id="path160" />
      <g
         clip-path="url(#clip4)"
         id="g168">
        <g
           clip-path="url(#clip5)"
           id="g166">
          <g
             clip-path="url(#clip6)"
             id="g164">
            <path
               d="m 101.427,126.435 c -3.4169,-0.944 -6.7266,-2.24 -9.8767,-3.865 l -0.0235,-0.017 c -0.0084,0 -0.0184,0 -0.0285,-0.014 -4.2257,-2.407 -7.544,-6.136 -9.4453,-10.612 V 98.3609 c -0.0032,-1.8902 -0.1062,-3.7791 -0.3086,-5.6584 1.4634,-1.3954 3.1881,-2.4878 5.0749,-3.215 4.7778,7.488 14.5877,9.9141 22.3047,5.5159 v 0 c 12.803,-7.0555 14.393,-20.125 14.393,-34.7793 0,0 -12.972,3.5889 -21.77,3.5889 -0.3,0 -0.595,0 -0.886,-0.0117 -9.2176,0.0047 -16.6868,7.4806 -16.6832,16.6987 0,0.0302 0,0.3841 0,0.8704 0.0073,1.77 0.3819,3.5192 1.1002,5.1369 -1.4195,0.6254 -2.7804,1.3757 -4.0669,2.2423 -0.3589,-2.1802 -0.7933,-4.3135 -1.2427,-6.4937 -1.6603,-8.05 -3.3777,-16.3616 -1.288,-29.5921 0.4077,-2.498 0.9883,-4.9649 1.7374,-7.3826 2.122,-1.3426 4.5557,-2.1129 7.0639,-2.2355 -0.0168,0.2214 -0.0604,0.4394 -0.0604,0.6624 v 0.6709 c 0.371,3.846 3.3458,6.9278 7.1763,7.4345 v 0 c 0.6663,0.0996 1.3388,0.1506 2.0125,0.1526 6.0959,0 10.2299,-4.3604 14.2439,-9.6281 -3.563,-1.4187 -6.95,-3.2449 -10.093,-5.4422 -1.4354,-1.0981 -3.1923,-1.6933 -4.9995,-1.6938 -2.3491,8e-4 -4.5897,0.9885 -6.1751,2.7219 -0.4575,0.5427 -0.8472,1.1391 -1.1605,1.776 -2.2018,-0.0568 -4.394,0.3135 -6.4551,1.0901 2.3781,-6.0502 5.4103,-11.8224 9.0428,-17.2136 0.5199,0.2266 1.0558,0.4144 1.6033,0.5619 0.6559,0.1829 1.3318,0.2842 2.0125,0.3018 0.2174,10e-4 0.4344,-0.0152 0.6491,-0.0486 3.9921,-0.6821 6.9785,-4.0393 7.1915,-8.0835 0.156,-3.8326 0.756,-7.63424 1.788,-11.32874 -7.3293,0 -13.8615,0.79494 -17.3901,7.19634 v 0 c -0.7195,1.2583 -1.097,2.683 -1.0951,4.1324 -0.1433,2.13 0.6832,4.2106 2.2489,5.6618 -2.1228,3.1792 -4.0521,6.4834 -5.7775,9.8948 -0.8855,-1.0079 -1.8472,-1.9464 -2.8762,-2.8075 0.2683,-0.6299 0.4576,-1.2906 0.5635,-1.9672 0.0429,-0.2775 0.0671,-0.5578 0.0721,-0.8385 0,-4.6098 -3.7371,-8.3469 -8.3469,-8.3469 -0.1459,0 -0.2934,0 -0.4444,0 -3.6817,-0.2101 -7.3304,-0.8122 -10.8843,-1.7961 0,7.3288 0.795,13.8628 7.1964,17.3897 v 0 c 1.2577,0.7193 2.6818,1.0968 4.1307,1.0951 2.2567,0.0102 4.4008,-0.985 5.8496,-2.7152 1.1673,0.9871 2.2183,2.1039 3.1328,3.329 -1.2618,2.7818 -2.3523,5.6382 -3.2653,8.5531 0,0.0285 -0.0201,0.0537 -0.0251,0.0822 -0.861,2.7174 -1.5241,5.4935 -1.984,8.3066 -1.1617,6.8485 -1.3194,13.8297 -0.4679,20.7237 -2.1967,-0.5105 -4.3614,-1.1488 -6.4836,-1.9118 0.0251,-0.0671 0.0587,-0.1292 0.0838,-0.1963 l 0.53,-1.4356 C 69.555,67.9484 69.839,66.4856 69.8639,65.0071 69.8713,55.7875 62.4033,48.3074 53.1837,48.3 c -0.0034,0 -0.0067,0 -0.0101,0 -0.2901,0.0101 -0.587,0.0134 -0.8872,0.0134 -8.798,0 -21.7685,-3.5889 -21.7685,-3.5889 0,14.656 1.5899,27.7221 14.3927,34.7793 v 0 c 4.3871,2.5019 9.6716,2.8811 14.3709,1.0314 3.1808,-1.3007 5.8557,-3.595 7.6257,-6.5406 2.7686,1.025 5.6141,1.8292 8.5096,2.4049 0.3807,2.249 0.8234,4.399 1.2628,6.5289 1.2191,5.0566 1.8938,10.229 2.0125,15.4292 v 6.8764 c -3.2468,12.507 -8.4558,14.617 -15.6522,17.52 -3.1875,1.2 -6.2648,2.674 -9.1971,4.406 h -0.0252 c -0.0151,0 -0.0218,0.022 -0.0369,0.03 -4.7678,2.987 -8.9298,6.847 -12.2679,11.376 -0.5621,0.736 -0.4211,1.789 0.3153,2.351 0.7364,0.562 1.7891,0.421 2.3513,-0.315 2.7072,-3.659 5.9833,-6.861 9.7036,-9.483 1.019,3.265 0.9991,6.766 -0.057,10.019 -0.2553,0.891 0.2594,1.819 1.1498,2.075 3e-4,0 5e-4,0 7e-4,0 0.1506,0.043 0.3062,0.065 0.4628,0.065 0.7484,0 1.4059,-0.496 1.6117,-1.216 1.3415,-4.161 1.2481,-8.653 -0.265,-12.756 2.4234,-1.315 4.9318,-2.467 7.5083,-3.449 0.5401,-0.218 1.0746,-0.436 1.6033,-0.654 -0.3215,2.316 0.0767,4.675 1.1405,6.757 0.3983,0.836 1.3991,1.191 2.2355,0.793 0.8364,-0.398 1.1916,-1.399 0.7933,-2.236 -2.0327,-4.263 -0.1258,-6.923 -0.0202,-7.064 0.0436,-0.073 0.0819,-0.15 0.1141,-0.229 3.6517,-1.901 6.6302,-4.879 8.5313,-8.53 v 20.46 c -5.0447,2.625 -10.8826,9.258 -11.1459,9.56 -0.6564,0.653 -0.6586,1.715 -0.005,2.372 0.6534,0.656 1.7153,0.658 2.3717,0.005 0.0533,-0.054 0.1032,-0.11 0.1489,-0.17 2.5774,-2.922 5.4688,-5.551 8.6219,-7.839 v 14.301 c 0,0.926 0.7509,1.677 1.6771,1.677 0.9263,0 1.6771,-0.751 1.6771,-1.677 v -11.217 c 2.7997,1.587 5.4394,3.44 7.8823,5.535 0.7176,0.585 1.774,0.478 2.3596,-0.239 0.5719,-0.701 0.4851,-1.729 -0.1962,-2.324 -1.1538,-0.974 -6.4115,-5.309 -10.039,-6.619 v -19.976 c 2.0051,2.732 4.557,5.016 7.4932,6.708 v 0 c 0.0336,0.024 3.3055,2.489 2.0125,8.797 -0.1633,0.911 0.4433,1.783 1.3549,1.946 0.8808,0.158 1.7304,-0.403 1.9305,-1.276 0.5328,-2.316 0.4983,-4.726 -0.1006,-7.027 1.8766,0.72 3.7818,1.325 5.6719,1.922 1.677,0.529 3.326,1.05 4.942,1.641 -0.94,1.876 -2.143,6.419 2.82,13.319 0.315,0.439 0.823,0.698 1.363,0.698 0.926,-0.002 1.676,-0.754 1.674,-1.68 0,-0.351 -0.111,-0.692 -0.316,-0.977 -4.513,-6.276 -2.79,-9.531 -2.421,-10.094 3.882,1.689 7.297,4.295 9.952,7.594 0.608,0.698 1.668,0.77 2.366,0.162 0.655,-0.572 0.765,-1.549 0.253,-2.252 -5.851,-7.245 -12.848,-9.454 -19.613,-11.589 z M 87.532,80.5 c 0.0082,-7.3455 5.9471,-13.3055 13.293,-13.3395 0.305,0.0084 0.617,0.0117 0.932,0.0117 6.192,-0.2442 12.343,-1.1253 18.354,-2.6296 -0.392,12.89 -2.839,21.6511 -11.667,27.001 l -0.973,0.5551 c -5.973,3.4132 -13.5632,1.6974 -17.4871,-3.9529 L 91.24,87.6427 c 4.1911,-1.4742 8.1689,-3.4957 11.83,-6.0123 0.733,-0.5669 0.868,-1.6208 0.301,-2.3538 -0.567,-0.7331 -1.621,-0.8679 -2.354,-0.3011 -3.423,2.3206 -7.1322,4.1887 -11.0348,5.5579 -0.5551,0.2247 -1.0968,0.4444 -1.6318,0.6708 -0.5343,-1.1996 -0.8135,-2.4972 -0.8201,-3.8103 z m 3.2435,-36.7919 c 0,-0.1425 0.0268,-0.2834 0.0386,-0.4259 0.921,0.1516 1.8322,0.3582 2.7286,0.6188 0.8808,0.2863 1.827,-0.1957 2.1133,-1.0767 0.2863,-0.8808 -0.1959,-1.827 -1.0767,-2.1133 -0.03,-0.0097 -0.0602,-0.0186 -0.0907,-0.0266 -0.8,-0.2365 -1.5782,-0.4277 -2.348,-0.5803 0.9466,-0.9865 2.2537,-1.5453 3.6209,-1.548 1.0609,-0.0018 2.0933,0.3433 2.9399,0.9828 2.1166,1.5855 4.3906,2.948 6.7876,4.0653 -2.833,3.1562 -5.5348,5.0061 -8.8789,5.0061 -0.3512,-0.0012 -0.7022,-0.0202 -1.0516,-0.0571 l -0.5232,-0.0687 c -2.2347,-0.2949 -3.9876,-2.063 -4.2632,-4.3001 z m -1.0063,-29.8688 0.2516,-0.4226 c 2.0125,-3.3106 5.2744,-4.54661 9.9686,-4.9273 -0.564,2.5851 -0.8602,5.2214 -0.8838,7.8672 -0.2503,2.3665 -2.0223,4.289 -4.3605,4.731 -0.039,0.0034 -0.0783,0.0034 -0.1173,0 -0.3977,-0.0174 -0.792,-0.0828 -1.174,-0.1945 -0.1493,-0.0386 -0.3069,-0.1023 -0.4595,-0.1526 0.7714,-1.0532 1.2477,-1.6452 1.2712,-1.6771 0.5853,-0.7178 0.478,-1.7743 -0.2398,-2.3596 -0.7178,-0.5854 -1.7744,-0.4781 -2.3597,0.2398 -0.1107,0.1358 -0.7513,0.9375 -1.6989,2.2372 -0.6049,-0.831 -0.9014,-1.8468 -0.8385,-2.8728 -0.0054,-0.8653 0.2173,-1.7168 0.6457,-2.4687 z M 76.6058,26.6086 c -0.0184,0.1325 -0.057,0.2616 -0.0872,0.3924 -0.6935,-0.4367 -1.4228,-0.8137 -2.1802,-1.127 -0.8637,-0.3347 -1.8351,0.0941 -2.1698,0.9578 -0.3316,0.8555 0.086,1.8188 0.9371,2.1616 0.5823,0.2417 1.1433,0.5318 1.6771,0.8671 -0.6956,0.7161 -1.6048,1.1868 -2.5911,1.3416 -0.1781,0.0203 -0.3574,0.0304 -0.5366,0.0302 -0.8663,0.0034 -1.7179,-0.2224 -2.4687,-0.654 l -0.426,-0.2432 c -3.3072,-2.0125 -4.5432,-5.2728 -4.9239,-9.9652 2.4271,0.5227 4.8973,0.8204 7.3792,0.8888 0.1677,0 0.327,0 0.4846,0 2.7337,0.0312 4.9352,2.2522 4.9424,4.986 -0.0038,0.1217 -0.0144,0.2433 -0.0319,0.3639 z m -10.7333,41.5497 -0.53,1.4356 c -0.0184,0.052 -0.0453,0.099 -0.0637,0.1493 -4.219,-1.7465 -8.243,-3.9309 -12.0062,-6.5172 -0.7628,-0.5256 -1.8073,-0.3334 -2.3329,0.4294 -0.5256,0.7627 -0.3334,1.8072 0.4294,2.3328 3.8762,2.6659 8.0142,4.9294 12.35,6.7553 -1.3784,2.0905 -3.3535,3.7182 -5.6685,4.6723 -3.7532,1.4757 -7.9729,1.1723 -11.4763,-0.8251 l -0.9308,-0.5299 c -8.8617,-5.3399 -11.317,-14.106 -11.7094,-27.0179 6.011,1.5037 12.1609,2.3844 18.3523,2.628 0.3153,0 0.6273,0 0.9342,-0.0134 7.3427,0.0341 13.2806,5.9899 13.2925,13.3328 -0.024,1.0849 -0.238,2.1571 -0.6322,3.168 z"
               fill="#4bceb8"
               transform="matrix(1,0,0,1.01697,171,78)"
               id="path162" />
          </g>
        </g>
      </g>
      <g
         clip-path="url(#clip7)"
         id="g176">
        <g
           clip-path="url(#clip8)"
           id="g174">
          <g
             clip-path="url(#clip9)"
             id="g172">
            <path
               d="m 101.427,126.435 c -3.4169,-0.944 -6.7266,-2.24 -9.8767,-3.865 l -0.0235,-0.017 c -0.0084,0 -0.0184,0 -0.0285,-0.014 -4.2257,-2.407 -7.544,-6.136 -9.4453,-10.612 V 98.3609 c -0.0032,-1.8902 -0.1062,-3.7791 -0.3086,-5.6584 1.4634,-1.3954 3.1881,-2.4878 5.0749,-3.215 4.7778,7.488 14.5877,9.9141 22.3047,5.5159 v 0 c 12.803,-7.0555 14.393,-20.125 14.393,-34.7793 0,0 -12.972,3.5889 -21.77,3.5889 -0.3,0 -0.595,0 -0.886,-0.0117 -9.2176,0.0047 -16.6868,7.4806 -16.6832,16.6987 0,0.0302 0,0.3841 0,0.8704 0.0073,1.77 0.3819,3.5192 1.1002,5.1369 -1.4195,0.6254 -2.7804,1.3757 -4.0669,2.2423 -0.3589,-2.1802 -0.7933,-4.3135 -1.2427,-6.4937 -1.6603,-8.05 -3.3777,-16.3616 -1.288,-29.5921 0.4077,-2.498 0.9883,-4.9649 1.7374,-7.3826 2.122,-1.3426 4.5557,-2.1129 7.0639,-2.2355 -0.0168,0.2214 -0.0604,0.4394 -0.0604,0.6624 v 0.6709 c 0.371,3.846 3.3458,6.9278 7.1763,7.4345 v 0 c 0.6663,0.0996 1.3388,0.1506 2.0125,0.1526 6.0959,0 10.2299,-4.3604 14.2439,-9.6281 -3.563,-1.4187 -6.95,-3.2449 -10.093,-5.4422 -1.4354,-1.0981 -3.1923,-1.6933 -4.9995,-1.6938 -2.3491,8e-4 -4.5897,0.9885 -6.1751,2.7219 -0.4575,0.5427 -0.8472,1.1391 -1.1605,1.776 -2.2018,-0.0568 -4.394,0.3135 -6.4551,1.0901 2.3781,-6.0502 5.4103,-11.8224 9.0428,-17.2136 0.5199,0.2266 1.0558,0.4144 1.6033,0.5619 0.6559,0.1829 1.3318,0.2842 2.0125,0.3018 0.2174,10e-4 0.4344,-0.0152 0.6491,-0.0486 3.9921,-0.6821 6.9785,-4.0393 7.1915,-8.0835 0.156,-3.8326 0.756,-7.63424 1.788,-11.32874 -7.3293,0 -13.8615,0.79494 -17.3901,7.19634 v 0 c -0.7195,1.2583 -1.097,2.683 -1.0951,4.1324 -0.1433,2.13 0.6832,4.2106 2.2489,5.6618 -2.1228,3.1792 -4.0521,6.4834 -5.7775,9.8948 -0.8855,-1.0079 -1.8472,-1.9464 -2.8762,-2.8075 0.2683,-0.6299 0.4576,-1.2906 0.5635,-1.9672 0.0429,-0.2775 0.0671,-0.5578 0.0721,-0.8385 0,-4.6098 -3.7371,-8.3469 -8.3469,-8.3469 -0.1459,0 -0.2934,0 -0.4444,0 -3.6817,-0.2101 -7.3304,-0.8122 -10.8843,-1.7961 0,7.3288 0.795,13.8628 7.1964,17.3897 v 0 c 1.2577,0.7193 2.6818,1.0968 4.1307,1.0951 2.2567,0.0102 4.4008,-0.985 5.8496,-2.7152 1.1673,0.9871 2.2183,2.1039 3.1328,3.329 -1.2618,2.7818 -2.3523,5.6382 -3.2653,8.5531 0,0.0285 -0.0201,0.0537 -0.0251,0.0822 -0.861,2.7174 -1.5241,5.4935 -1.984,8.3066 -1.1617,6.8485 -1.3194,13.8297 -0.4679,20.7237 -2.1967,-0.5105 -4.3614,-1.1488 -6.4836,-1.9118 0.0251,-0.0671 0.0587,-0.1292 0.0838,-0.1963 l 0.53,-1.4356 C 69.555,67.9484 69.839,66.4856 69.8639,65.0071 69.8713,55.7875 62.4033,48.3074 53.1837,48.3 c -0.0034,0 -0.0067,0 -0.0101,0 -0.2901,0.0101 -0.587,0.0134 -0.8872,0.0134 -8.798,0 -21.7685,-3.5889 -21.7685,-3.5889 0,14.656 1.5899,27.7221 14.3927,34.7793 v 0 c 4.3871,2.5019 9.6716,2.8811 14.3709,1.0314 3.1808,-1.3007 5.8557,-3.595 7.6257,-6.5406 2.7686,1.025 5.6141,1.8292 8.5096,2.4049 0.3807,2.249 0.8234,4.399 1.2628,6.5289 1.2191,5.0566 1.8938,10.229 2.0125,15.4292 v 6.8764 c -3.2468,12.507 -8.4558,14.617 -15.6522,17.52 -3.1875,1.2 -6.2648,2.674 -9.1971,4.406 h -0.0252 c -0.0151,0 -0.0218,0.022 -0.0369,0.03 -4.7678,2.987 -8.9298,6.847 -12.2679,11.376 -0.5621,0.736 -0.4211,1.789 0.3153,2.351 0.7364,0.562 1.7891,0.421 2.3513,-0.315 2.7072,-3.659 5.9833,-6.861 9.7036,-9.483 1.019,3.265 0.9991,6.766 -0.057,10.019 -0.2553,0.891 0.2594,1.819 1.1498,2.075 3e-4,0 5e-4,0 7e-4,0 0.1506,0.043 0.3062,0.065 0.4628,0.065 0.7484,0 1.4059,-0.496 1.6117,-1.216 1.3415,-4.161 1.2481,-8.653 -0.265,-12.756 2.4234,-1.315 4.9318,-2.467 7.5083,-3.449 0.5401,-0.218 1.0746,-0.436 1.6033,-0.654 -0.3215,2.316 0.0767,4.675 1.1405,6.757 0.3983,0.836 1.3991,1.191 2.2355,0.793 0.8364,-0.398 1.1916,-1.399 0.7933,-2.236 -2.0327,-4.263 -0.1258,-6.923 -0.0202,-7.064 0.0436,-0.073 0.0819,-0.15 0.1141,-0.229 3.6517,-1.901 6.6302,-4.879 8.5313,-8.53 v 20.46 c -5.0447,2.625 -10.8826,9.258 -11.1459,9.56 -0.6564,0.653 -0.6586,1.715 -0.005,2.372 0.6534,0.656 1.7153,0.658 2.3717,0.005 0.0533,-0.054 0.1032,-0.11 0.1489,-0.17 2.5774,-2.922 5.4688,-5.551 8.6219,-7.839 v 14.301 c 0,0.926 0.7509,1.677 1.6771,1.677 0.9263,0 1.6771,-0.751 1.6771,-1.677 v -11.217 c 2.7997,1.587 5.4394,3.44 7.8823,5.535 0.7176,0.585 1.774,0.478 2.3596,-0.239 0.5719,-0.701 0.4851,-1.729 -0.1962,-2.324 -1.1538,-0.974 -6.4115,-5.309 -10.039,-6.619 v -19.976 c 2.0051,2.732 4.557,5.016 7.4932,6.708 v 0 c 0.0336,0.024 3.3055,2.489 2.0125,8.797 -0.1633,0.911 0.4433,1.783 1.3549,1.946 0.8808,0.158 1.7304,-0.403 1.9305,-1.276 0.5328,-2.316 0.4983,-4.726 -0.1006,-7.027 1.8766,0.72 3.7818,1.325 5.6719,1.922 1.677,0.529 3.326,1.05 4.942,1.641 -0.94,1.876 -2.143,6.419 2.82,13.319 0.315,0.439 0.823,0.698 1.363,0.698 0.926,-0.002 1.676,-0.754 1.674,-1.68 0,-0.351 -0.111,-0.692 -0.316,-0.977 -4.513,-6.276 -2.79,-9.531 -2.421,-10.094 3.882,1.689 7.297,4.295 9.952,7.594 0.608,0.698 1.668,0.77 2.366,0.162 0.655,-0.572 0.765,-1.549 0.253,-2.252 -5.851,-7.245 -12.848,-9.454 -19.613,-11.589 z M 87.532,80.5 c 0.0082,-7.3455 5.9471,-13.3055 13.293,-13.3395 0.305,0.0084 0.617,0.0117 0.932,0.0117 6.192,-0.2442 12.343,-1.1253 18.354,-2.6296 -0.392,12.89 -2.839,21.6511 -11.667,27.001 l -0.973,0.5551 c -5.973,3.4132 -13.5632,1.6974 -17.4871,-3.9529 L 91.24,87.6427 c 4.1911,-1.4742 8.1689,-3.4957 11.83,-6.0123 0.733,-0.5669 0.868,-1.6208 0.301,-2.3538 -0.567,-0.7331 -1.621,-0.8679 -2.354,-0.3011 -3.423,2.3206 -7.1322,4.1887 -11.0348,5.5579 -0.5551,0.2247 -1.0968,0.4444 -1.6318,0.6708 -0.5343,-1.1996 -0.8135,-2.4972 -0.8201,-3.8103 z m 3.2435,-36.7919 c 0,-0.1425 0.0268,-0.2834 0.0386,-0.4259 0.921,0.1516 1.8322,0.3582 2.7286,0.6188 0.8808,0.2863 1.827,-0.1957 2.1133,-1.0767 0.2863,-0.8808 -0.1959,-1.827 -1.0767,-2.1133 -0.03,-0.0097 -0.0602,-0.0186 -0.0907,-0.0266 -0.8,-0.2365 -1.5782,-0.4277 -2.348,-0.5803 0.9466,-0.9865 2.2537,-1.5453 3.6209,-1.548 1.0609,-0.0018 2.0933,0.3433 2.9399,0.9828 2.1166,1.5855 4.3906,2.948 6.7876,4.0653 -2.833,3.1562 -5.5348,5.0061 -8.8789,5.0061 -0.3512,-0.0012 -0.7022,-0.0202 -1.0516,-0.0571 l -0.5232,-0.0687 c -2.2347,-0.2949 -3.9876,-2.063 -4.2632,-4.3001 z m -1.0063,-29.8688 0.2516,-0.4226 c 2.0125,-3.3106 5.2744,-4.54661 9.9686,-4.9273 -0.564,2.5851 -0.8602,5.2214 -0.8838,7.8672 -0.2503,2.3665 -2.0223,4.289 -4.3605,4.731 -0.039,0.0034 -0.0783,0.0034 -0.1173,0 -0.3977,-0.0174 -0.792,-0.0828 -1.174,-0.1945 -0.1493,-0.0386 -0.3069,-0.1023 -0.4595,-0.1526 0.7714,-1.0532 1.2477,-1.6452 1.2712,-1.6771 0.5853,-0.7178 0.478,-1.7743 -0.2398,-2.3596 -0.7178,-0.5854 -1.7744,-0.4781 -2.3597,0.2398 -0.1107,0.1358 -0.7513,0.9375 -1.6989,2.2372 -0.6049,-0.831 -0.9014,-1.8468 -0.8385,-2.8728 -0.0054,-0.8653 0.2173,-1.7168 0.6457,-2.4687 z M 76.6058,26.6086 c -0.0184,0.1325 -0.057,0.2616 -0.0872,0.3924 -0.6935,-0.4367 -1.4228,-0.8137 -2.1802,-1.127 -0.8637,-0.3347 -1.8351,0.0941 -2.1698,0.9578 -0.3316,0.8555 0.086,1.8188 0.9371,2.1616 0.5823,0.2417 1.1433,0.5318 1.6771,0.8671 -0.6956,0.7161 -1.6048,1.1868 -2.5911,1.3416 -0.1781,0.0203 -0.3574,0.0304 -0.5366,0.0302 -0.8663,0.0034 -1.7179,-0.2224 -2.4687,-0.654 l -0.426,-0.2432 c -3.3072,-2.0125 -4.5432,-5.2728 -4.9239,-9.9652 2.4271,0.5227 4.8973,0.8204 7.3792,0.8888 0.1677,0 0.327,0 0.4846,0 2.7337,0.0312 4.9352,2.2522 4.9424,4.986 -0.0038,0.1217 -0.0144,0.2433 -0.0319,0.3639 z m -10.7333,41.5497 -0.53,1.4356 c -0.0184,0.052 -0.0453,0.099 -0.0637,0.1493 -4.219,-1.7465 -8.243,-3.9309 -12.0062,-6.5172 -0.7628,-0.5256 -1.8073,-0.3334 -2.3329,0.4294 -0.5256,0.7627 -0.3334,1.8072 0.4294,2.3328 3.8762,2.6659 8.0142,4.9294 12.35,6.7553 -1.3784,2.0905 -3.3535,3.7182 -5.6685,4.6723 -3.7532,1.4757 -7.9729,1.1723 -11.4763,-0.8251 l -0.9308,-0.5299 c -8.8617,-5.3399 -11.317,-14.106 -11.7094,-27.0179 6.011,1.5037 12.1609,2.3844 18.3523,2.628 0.3153,0 0.6273,0 0.9342,-0.0134 7.3427,0.0341 13.2806,5.9899 13.2925,13.3328 -0.024,1.0849 -0.238,2.1571 -0.6322,3.168 z"
               fill="#243240"
               transform="matrix(1,0,0,1.00949,171,79.4726)"
               id="path170" />
          </g>
        </g>
      </g>
      <g
         clip-path="url(#clip10)"
         id="g184">
        <g
           clip-path="url(#clip11)"
           id="g182">
          <g
             clip-path="url(#clip12)"
             id="g180">
            <path
               d="m 101.427,126.435 c -3.4169,-0.944 -6.7266,-2.24 -9.8767,-3.865 l -0.0235,-0.017 c -0.0084,0 -0.0184,0 -0.0285,-0.014 -4.2257,-2.407 -7.544,-6.136 -9.4453,-10.612 V 98.3609 c -0.0032,-1.8902 -0.1062,-3.7791 -0.3086,-5.6584 1.4634,-1.3954 3.1881,-2.4878 5.0749,-3.215 4.7778,7.488 14.5877,9.9141 22.3047,5.5159 v 0 c 12.803,-7.0555 14.393,-20.125 14.393,-34.7793 0,0 -12.972,3.5889 -21.77,3.5889 -0.3,0 -0.595,0 -0.886,-0.0117 -9.2176,0.0047 -16.6868,7.4806 -16.6832,16.6987 0,0.0302 0,0.3841 0,0.8704 0.0073,1.77 0.3819,3.5192 1.1002,5.1369 -1.4195,0.6254 -2.7804,1.3757 -4.0669,2.2423 -0.3589,-2.1802 -0.7933,-4.3135 -1.2427,-6.4937 -1.6603,-8.05 -3.3777,-16.3616 -1.288,-29.5921 0.4077,-2.498 0.9883,-4.9649 1.7374,-7.3826 2.122,-1.3426 4.5557,-2.1129 7.0639,-2.2355 -0.0168,0.2214 -0.0604,0.4394 -0.0604,0.6624 v 0.6709 c 0.371,3.846 3.3458,6.9278 7.1763,7.4345 v 0 c 0.6663,0.0996 1.3388,0.1506 2.0125,0.1526 6.0959,0 10.2299,-4.3604 14.2439,-9.6281 -3.563,-1.4187 -6.95,-3.2449 -10.093,-5.4422 -1.4354,-1.0981 -3.1923,-1.6933 -4.9995,-1.6938 -2.3491,8e-4 -4.5897,0.9885 -6.1751,2.7219 -0.4575,0.5427 -0.8472,1.1391 -1.1605,1.776 -2.2018,-0.0568 -4.394,0.3135 -6.4551,1.0901 2.3781,-6.0502 5.4103,-11.8224 9.0428,-17.2136 0.5199,0.2266 1.0558,0.4144 1.6033,0.5619 0.6559,0.1829 1.3318,0.2842 2.0125,0.3018 0.2174,10e-4 0.4344,-0.0152 0.6491,-0.0486 3.9921,-0.6821 6.9785,-4.0393 7.1915,-8.0835 0.156,-3.8326 0.756,-7.63424 1.788,-11.32874 -7.3293,0 -13.8615,0.79494 -17.3901,7.19634 v 0 c -0.7195,1.2583 -1.097,2.683 -1.0951,4.1324 -0.1433,2.13 0.6832,4.2106 2.2489,5.6618 -2.1228,3.1792 -4.0521,6.4834 -5.7775,9.8948 -0.8855,-1.0079 -1.8472,-1.9464 -2.8762,-2.8075 0.2683,-0.6299 0.4576,-1.2906 0.5635,-1.9672 0.0429,-0.2775 0.0671,-0.5578 0.0721,-0.8385 0,-4.6098 -3.7371,-8.3469 -8.3469,-8.3469 -0.1459,0 -0.2934,0 -0.4444,0 -3.6817,-0.2101 -7.3304,-0.8122 -10.8843,-1.7961 0,7.3288 0.795,13.8628 7.1964,17.3897 v 0 c 1.2577,0.7193 2.6818,1.0968 4.1307,1.0951 2.2567,0.0102 4.4008,-0.985 5.8496,-2.7152 1.1673,0.9871 2.2183,2.1039 3.1328,3.329 -1.2618,2.7818 -2.3523,5.6382 -3.2653,8.5531 0,0.0285 -0.0201,0.0537 -0.0251,0.0822 -0.861,2.7174 -1.5241,5.4935 -1.984,8.3066 -1.1617,6.8485 -1.3194,13.8297 -0.4679,20.7237 -2.1967,-0.5105 -4.3614,-1.1488 -6.4836,-1.9118 0.0251,-0.0671 0.0587,-0.1292 0.0838,-0.1963 l 0.53,-1.4356 C 69.555,67.9484 69.839,66.4856 69.8639,65.0071 69.8713,55.7875 62.4033,48.3074 53.1837,48.3 c -0.0034,0 -0.0067,0 -0.0101,0 -0.2901,0.0101 -0.587,0.0134 -0.8872,0.0134 -8.798,0 -21.7685,-3.5889 -21.7685,-3.5889 0,14.656 1.5899,27.7221 14.3927,34.7793 v 0 c 4.3871,2.5019 9.6716,2.8811 14.3709,1.0314 3.1808,-1.3007 5.8557,-3.595 7.6257,-6.5406 2.7686,1.025 5.6141,1.8292 8.5096,2.4049 0.3807,2.249 0.8234,4.399 1.2628,6.5289 1.2191,5.0566 1.8938,10.229 2.0125,15.4292 v 6.8764 c -3.2468,12.507 -8.4558,14.617 -15.6522,17.52 -3.1875,1.2 -6.2648,2.674 -9.1971,4.406 h -0.0252 c -0.0151,0 -0.0218,0.022 -0.0369,0.03 -4.7678,2.987 -8.9298,6.847 -12.2679,11.376 -0.5621,0.736 -0.4211,1.789 0.3153,2.351 0.7364,0.562 1.7891,0.421 2.3513,-0.315 2.7072,-3.659 5.9833,-6.861 9.7036,-9.483 1.019,3.265 0.9991,6.766 -0.057,10.019 -0.2553,0.891 0.2594,1.819 1.1498,2.075 3e-4,0 5e-4,0 7e-4,0 0.1506,0.043 0.3062,0.065 0.4628,0.065 0.7484,0 1.4059,-0.496 1.6117,-1.216 1.3415,-4.161 1.2481,-8.653 -0.265,-12.756 2.4234,-1.315 4.9318,-2.467 7.5083,-3.449 0.5401,-0.218 1.0746,-0.436 1.6033,-0.654 -0.3215,2.316 0.0767,4.675 1.1405,6.757 0.3983,0.836 1.3991,1.191 2.2355,0.793 0.8364,-0.398 1.1916,-1.399 0.7933,-2.236 -2.0327,-4.263 -0.1258,-6.923 -0.0202,-7.064 0.0436,-0.073 0.0819,-0.15 0.1141,-0.229 3.6517,-1.901 6.6302,-4.879 8.5313,-8.53 v 20.46 c -5.0447,2.625 -10.8826,9.258 -11.1459,9.56 -0.6564,0.653 -0.6586,1.715 -0.005,2.372 0.6534,0.656 1.7153,0.658 2.3717,0.005 0.0533,-0.054 0.1032,-0.11 0.1489,-0.17 2.5774,-2.922 5.4688,-5.551 8.6219,-7.839 v 14.301 c 0,0.926 0.7509,1.677 1.6771,1.677 0.9263,0 1.6771,-0.751 1.6771,-1.677 v -11.217 c 2.7997,1.587 5.4394,3.44 7.8823,5.535 0.7176,0.585 1.774,0.478 2.3596,-0.239 0.5719,-0.701 0.4851,-1.729 -0.1962,-2.324 -1.1538,-0.974 -6.4115,-5.309 -10.039,-6.619 v -19.976 c 2.0051,2.732 4.557,5.016 7.4932,6.708 v 0 c 0.0336,0.024 3.3055,2.489 2.0125,8.797 -0.1633,0.911 0.4433,1.783 1.3549,1.946 0.8808,0.158 1.7304,-0.403 1.9305,-1.276 0.5328,-2.316 0.4983,-4.726 -0.1006,-7.027 1.8766,0.72 3.7818,1.325 5.6719,1.922 1.677,0.529 3.326,1.05 4.942,1.641 -0.94,1.876 -2.143,6.419 2.82,13.319 0.315,0.439 0.823,0.698 1.363,0.698 0.926,-0.002 1.676,-0.754 1.674,-1.68 0,-0.351 -0.111,-0.692 -0.316,-0.977 -4.513,-6.276 -2.79,-9.531 -2.421,-10.094 3.882,1.689 7.297,4.295 9.952,7.594 0.608,0.698 1.668,0.77 2.366,0.162 0.655,-0.572 0.765,-1.549 0.253,-2.252 -5.851,-7.245 -12.848,-9.454 -19.613,-11.589 z M 87.532,80.5 c 0.0082,-7.3455 5.9471,-13.3055 13.293,-13.3395 0.305,0.0084 0.617,0.0117 0.932,0.0117 6.192,-0.2442 12.343,-1.1253 18.354,-2.6296 -0.392,12.89 -2.839,21.6511 -11.667,27.001 l -0.973,0.5551 c -5.973,3.4132 -13.5632,1.6974 -17.4871,-3.9529 L 91.24,87.6427 c 4.1911,-1.4742 8.1689,-3.4957 11.83,-6.0123 0.733,-0.5669 0.868,-1.6208 0.301,-2.3538 -0.567,-0.7331 -1.621,-0.8679 -2.354,-0.3011 -3.423,2.3206 -7.1322,4.1887 -11.0348,5.5579 -0.5551,0.2247 -1.0968,0.4444 -1.6318,0.6708 -0.5343,-1.1996 -0.8135,-2.4972 -0.8201,-3.8103 z m 3.2435,-36.7919 c 0,-0.1425 0.0268,-0.2834 0.0386,-0.4259 0.921,0.1516 1.8322,0.3582 2.7286,0.6188 0.8808,0.2863 1.827,-0.1957 2.1133,-1.0767 0.2863,-0.8808 -0.1959,-1.827 -1.0767,-2.1133 -0.03,-0.0097 -0.0602,-0.0186 -0.0907,-0.0266 -0.8,-0.2365 -1.5782,-0.4277 -2.348,-0.5803 0.9466,-0.9865 2.2537,-1.5453 3.6209,-1.548 1.0609,-0.0018 2.0933,0.3433 2.9399,0.9828 2.1166,1.5855 4.3906,2.948 6.7876,4.0653 -2.833,3.1562 -5.5348,5.0061 -8.8789,5.0061 -0.3512,-0.0012 -0.7022,-0.0202 -1.0516,-0.0571 l -0.5232,-0.0687 c -2.2347,-0.2949 -3.9876,-2.063 -4.2632,-4.3001 z m -1.0063,-29.8688 0.2516,-0.4226 c 2.0125,-3.3106 5.2744,-4.54661 9.9686,-4.9273 -0.564,2.5851 -0.8602,5.2214 -0.8838,7.8672 -0.2503,2.3665 -2.0223,4.289 -4.3605,4.731 -0.039,0.0034 -0.0783,0.0034 -0.1173,0 -0.3977,-0.0174 -0.792,-0.0828 -1.174,-0.1945 -0.1493,-0.0386 -0.3069,-0.1023 -0.4595,-0.1526 0.7714,-1.0532 1.2477,-1.6452 1.2712,-1.6771 0.5853,-0.7178 0.478,-1.7743 -0.2398,-2.3596 -0.7178,-0.5854 -1.7744,-0.4781 -2.3597,0.2398 -0.1107,0.1358 -0.7513,0.9375 -1.6989,2.2372 -0.6049,-0.831 -0.9014,-1.8468 -0.8385,-2.8728 -0.0054,-0.8653 0.2173,-1.7168 0.6457,-2.4687 z M 76.6058,26.6086 c -0.0184,0.1325 -0.057,0.2616 -0.0872,0.3924 -0.6935,-0.4367 -1.4228,-0.8137 -2.1802,-1.127 -0.8637,-0.3347 -1.8351,0.0941 -2.1698,0.9578 -0.3316,0.8555 0.086,1.8188 0.9371,2.1616 0.5823,0.2417 1.1433,0.5318 1.6771,0.8671 -0.6956,0.7161 -1.6048,1.1868 -2.5911,1.3416 -0.1781,0.0203 -0.3574,0.0304 -0.5366,0.0302 -0.8663,0.0034 -1.7179,-0.2224 -2.4687,-0.654 l -0.426,-0.2432 c -3.3072,-2.0125 -4.5432,-5.2728 -4.9239,-9.9652 2.4271,0.5227 4.8973,0.8204 7.3792,0.8888 0.1677,0 0.327,0 0.4846,0 2.7337,0.0312 4.9352,2.2522 4.9424,4.986 -0.0038,0.1217 -0.0144,0.2433 -0.0319,0.3639 z m -10.7333,41.5497 -0.53,1.4356 c -0.0184,0.052 -0.0453,0.099 -0.0637,0.1493 -4.219,-1.7465 -8.243,-3.9309 -12.0062,-6.5172 -0.7628,-0.5256 -1.8073,-0.3334 -2.3329,0.4294 -0.5256,0.7627 -0.3334,1.8072 0.4294,2.3328 3.8762,2.6659 8.0142,4.9294 12.35,6.7553 -1.3784,2.0905 -3.3535,3.7182 -5.6685,4.6723 -3.7532,1.4757 -7.9729,1.1723 -11.4763,-0.8251 l -0.9308,-0.5299 c -8.8617,-5.3399 -11.317,-14.106 -11.7094,-27.0179 6.011,1.5037 12.1609,2.3844 18.3523,2.628 0.3153,0 0.6273,0 0.9342,-0.0134 7.3427,0.0341 13.2806,5.9899 13.2925,13.3328 -0.024,1.0849 -0.238,2.1571 -0.6322,3.168 z"
               fill="#243240"
               transform="matrix(1,0,0,1.01697,277,140)"
               id="path178" />
          </g>
        </g>
      </g>
      <g
         clip-path="url(#clip13)"
         id="g192">
        <g
           clip-path="url(#clip14)"
           id="g190">
          <g
             clip-path="url(#clip15)"
             id="g188">
            <path
               d="m 101.427,126.435 c -3.4169,-0.944 -6.7266,-2.24 -9.8767,-3.865 l -0.0235,-0.017 c -0.0084,0 -0.0184,0 -0.0285,-0.014 -4.2257,-2.407 -7.544,-6.136 -9.4453,-10.612 V 98.3609 c -0.0032,-1.8902 -0.1062,-3.7791 -0.3086,-5.6584 1.4634,-1.3954 3.1881,-2.4878 5.0749,-3.215 4.7778,7.488 14.5877,9.9141 22.3047,5.5159 v 0 c 12.803,-7.0555 14.393,-20.125 14.393,-34.7793 0,0 -12.972,3.5889 -21.77,3.5889 -0.3,0 -0.595,0 -0.886,-0.0117 -9.2176,0.0047 -16.6868,7.4806 -16.6832,16.6987 0,0.0302 0,0.3841 0,0.8704 0.0073,1.77 0.3819,3.5192 1.1002,5.1369 -1.4195,0.6254 -2.7804,1.3757 -4.0669,2.2423 -0.3589,-2.1802 -0.7933,-4.3135 -1.2427,-6.4937 -1.6603,-8.05 -3.3777,-16.3616 -1.288,-29.5921 0.4077,-2.498 0.9883,-4.9649 1.7374,-7.3826 2.122,-1.3426 4.5557,-2.1129 7.0639,-2.2355 -0.0168,0.2214 -0.0604,0.4394 -0.0604,0.6624 v 0.6709 c 0.371,3.846 3.3458,6.9278 7.1763,7.4345 v 0 c 0.6663,0.0996 1.3388,0.1506 2.0125,0.1526 6.0959,0 10.2299,-4.3604 14.2439,-9.6281 -3.563,-1.4187 -6.95,-3.2449 -10.093,-5.4422 -1.4354,-1.0981 -3.1923,-1.6933 -4.9995,-1.6938 -2.3491,8e-4 -4.5897,0.9885 -6.1751,2.7219 -0.4575,0.5427 -0.8472,1.1391 -1.1605,1.776 -2.2018,-0.0568 -4.394,0.3135 -6.4551,1.0901 2.3781,-6.0502 5.4103,-11.8224 9.0428,-17.2136 0.5199,0.2266 1.0558,0.4144 1.6033,0.5619 0.6559,0.1829 1.3318,0.2842 2.0125,0.3018 0.2174,10e-4 0.4344,-0.0152 0.6491,-0.0486 3.9921,-0.6821 6.9785,-4.0393 7.1915,-8.0835 0.156,-3.8326 0.756,-7.63424 1.788,-11.32874 -7.3293,0 -13.8615,0.79494 -17.3901,7.19634 v 0 c -0.7195,1.2583 -1.097,2.683 -1.0951,4.1324 -0.1433,2.13 0.6832,4.2106 2.2489,5.6618 -2.1228,3.1792 -4.0521,6.4834 -5.7775,9.8948 -0.8855,-1.0079 -1.8472,-1.9464 -2.8762,-2.8075 0.2683,-0.6299 0.4576,-1.2906 0.5635,-1.9672 0.0429,-0.2775 0.0671,-0.5578 0.0721,-0.8385 0,-4.6098 -3.7371,-8.3469 -8.3469,-8.3469 -0.1459,0 -0.2934,0 -0.4444,0 -3.6817,-0.2101 -7.3304,-0.8122 -10.8843,-1.7961 0,7.3288 0.795,13.8628 7.1964,17.3897 v 0 c 1.2577,0.7193 2.6818,1.0968 4.1307,1.0951 2.2567,0.0102 4.4008,-0.985 5.8496,-2.7152 1.1673,0.9871 2.2183,2.1039 3.1328,3.329 -1.2618,2.7818 -2.3523,5.6382 -3.2653,8.5531 0,0.0285 -0.0201,0.0537 -0.0251,0.0822 -0.861,2.7174 -1.5241,5.4935 -1.984,8.3066 -1.1617,6.8485 -1.3194,13.8297 -0.4679,20.7237 -2.1967,-0.5105 -4.3614,-1.1488 -6.4836,-1.9118 0.0251,-0.0671 0.0587,-0.1292 0.0838,-0.1963 l 0.53,-1.4356 C 69.555,67.9484 69.839,66.4856 69.8639,65.0071 69.8713,55.7875 62.4033,48.3074 53.1837,48.3 c -0.0034,0 -0.0067,0 -0.0101,0 -0.2901,0.0101 -0.587,0.0134 -0.8872,0.0134 -8.798,0 -21.7685,-3.5889 -21.7685,-3.5889 0,14.656 1.5899,27.7221 14.3927,34.7793 v 0 c 4.3871,2.5019 9.6716,2.8811 14.3709,1.0314 3.1808,-1.3007 5.8557,-3.595 7.6257,-6.5406 2.7686,1.025 5.6141,1.8292 8.5096,2.4049 0.3807,2.249 0.8234,4.399 1.2628,6.5289 1.2191,5.0566 1.8938,10.229 2.0125,15.4292 v 6.8764 c -3.2468,12.507 -8.4558,14.617 -15.6522,17.52 -3.1875,1.2 -6.2648,2.674 -9.1971,4.406 h -0.0252 c -0.0151,0 -0.0218,0.022 -0.0369,0.03 -4.7678,2.987 -8.9298,6.847 -12.2679,11.376 -0.5621,0.736 -0.4211,1.789 0.3153,2.351 0.7364,0.562 1.7891,0.421 2.3513,-0.315 2.7072,-3.659 5.9833,-6.861 9.7036,-9.483 1.019,3.265 0.9991,6.766 -0.057,10.019 -0.2553,0.891 0.2594,1.819 1.1498,2.075 3e-4,0 5e-4,0 7e-4,0 0.1506,0.043 0.3062,0.065 0.4628,0.065 0.7484,0 1.4059,-0.496 1.6117,-1.216 1.3415,-4.161 1.2481,-8.653 -0.265,-12.756 2.4234,-1.315 4.9318,-2.467 7.5083,-3.449 0.5401,-0.218 1.0746,-0.436 1.6033,-0.654 -0.3215,2.316 0.0767,4.675 1.1405,6.757 0.3983,0.836 1.3991,1.191 2.2355,0.793 0.8364,-0.398 1.1916,-1.399 0.7933,-2.236 -2.0327,-4.263 -0.1258,-6.923 -0.0202,-7.064 0.0436,-0.073 0.0819,-0.15 0.1141,-0.229 3.6517,-1.901 6.6302,-4.879 8.5313,-8.53 v 20.46 c -5.0447,2.625 -10.8826,9.258 -11.1459,9.56 -0.6564,0.653 -0.6586,1.715 -0.005,2.372 0.6534,0.656 1.7153,0.658 2.3717,0.005 0.0533,-0.054 0.1032,-0.11 0.1489,-0.17 2.5774,-2.922 5.4688,-5.551 8.6219,-7.839 v 14.301 c 0,0.926 0.7509,1.677 1.6771,1.677 0.9263,0 1.6771,-0.751 1.6771,-1.677 v -11.217 c 2.7997,1.587 5.4394,3.44 7.8823,5.535 0.7176,0.585 1.774,0.478 2.3596,-0.239 0.5719,-0.701 0.4851,-1.729 -0.1962,-2.324 -1.1538,-0.974 -6.4115,-5.309 -10.039,-6.619 v -19.976 c 2.0051,2.732 4.557,5.016 7.4932,6.708 v 0 c 0.0336,0.024 3.3055,2.489 2.0125,8.797 -0.1633,0.911 0.4433,1.783 1.3549,1.946 0.8808,0.158 1.7304,-0.403 1.9305,-1.276 0.5328,-2.316 0.4983,-4.726 -0.1006,-7.027 1.8766,0.72 3.7818,1.325 5.6719,1.922 1.677,0.529 3.326,1.05 4.942,1.641 -0.94,1.876 -2.143,6.419 2.82,13.319 0.315,0.439 0.823,0.698 1.363,0.698 0.926,-0.002 1.676,-0.754 1.674,-1.68 0,-0.351 -0.111,-0.692 -0.316,-0.977 -4.513,-6.276 -2.79,-9.531 -2.421,-10.094 3.882,1.689 7.297,4.295 9.952,7.594 0.608,0.698 1.668,0.77 2.366,0.162 0.655,-0.572 0.765,-1.549 0.253,-2.252 -5.851,-7.245 -12.848,-9.454 -19.613,-11.589 z M 87.532,80.5 c 0.0082,-7.3455 5.9471,-13.3055 13.293,-13.3395 0.305,0.0084 0.617,0.0117 0.932,0.0117 6.192,-0.2442 12.343,-1.1253 18.354,-2.6296 -0.392,12.89 -2.839,21.6511 -11.667,27.001 l -0.973,0.5551 c -5.973,3.4132 -13.5632,1.6974 -17.4871,-3.9529 L 91.24,87.6427 c 4.1911,-1.4742 8.1689,-3.4957 11.83,-6.0123 0.733,-0.5669 0.868,-1.6208 0.301,-2.3538 -0.567,-0.7331 -1.621,-0.8679 -2.354,-0.3011 -3.423,2.3206 -7.1322,4.1887 -11.0348,5.5579 -0.5551,0.2247 -1.0968,0.4444 -1.6318,0.6708 -0.5343,-1.1996 -0.8135,-2.4972 -0.8201,-3.8103 z m 3.2435,-36.7919 c 0,-0.1425 0.0268,-0.2834 0.0386,-0.4259 0.921,0.1516 1.8322,0.3582 2.7286,0.6188 0.8808,0.2863 1.827,-0.1957 2.1133,-1.0767 0.2863,-0.8808 -0.1959,-1.827 -1.0767,-2.1133 -0.03,-0.0097 -0.0602,-0.0186 -0.0907,-0.0266 -0.8,-0.2365 -1.5782,-0.4277 -2.348,-0.5803 0.9466,-0.9865 2.2537,-1.5453 3.6209,-1.548 1.0609,-0.0018 2.0933,0.3433 2.9399,0.9828 2.1166,1.5855 4.3906,2.948 6.7876,4.0653 -2.833,3.1562 -5.5348,5.0061 -8.8789,5.0061 -0.3512,-0.0012 -0.7022,-0.0202 -1.0516,-0.0571 l -0.5232,-0.0687 c -2.2347,-0.2949 -3.9876,-2.063 -4.2632,-4.3001 z m -1.0063,-29.8688 0.2516,-0.4226 c 2.0125,-3.3106 5.2744,-4.54661 9.9686,-4.9273 -0.564,2.5851 -0.8602,5.2214 -0.8838,7.8672 -0.2503,2.3665 -2.0223,4.289 -4.3605,4.731 -0.039,0.0034 -0.0783,0.0034 -0.1173,0 -0.3977,-0.0174 -0.792,-0.0828 -1.174,-0.1945 -0.1493,-0.0386 -0.3069,-0.1023 -0.4595,-0.1526 0.7714,-1.0532 1.2477,-1.6452 1.2712,-1.6771 0.5853,-0.7178 0.478,-1.7743 -0.2398,-2.3596 -0.7178,-0.5854 -1.7744,-0.4781 -2.3597,0.2398 -0.1107,0.1358 -0.7513,0.9375 -1.6989,2.2372 -0.6049,-0.831 -0.9014,-1.8468 -0.8385,-2.8728 -0.0054,-0.8653 0.2173,-1.7168 0.6457,-2.4687 z M 76.6058,26.6086 c -0.0184,0.1325 -0.057,0.2616 -0.0872,0.3924 -0.6935,-0.4367 -1.4228,-0.8137 -2.1802,-1.127 -0.8637,-0.3347 -1.8351,0.0941 -2.1698,0.9578 -0.3316,0.8555 0.086,1.8188 0.9371,2.1616 0.5823,0.2417 1.1433,0.5318 1.6771,0.8671 -0.6956,0.7161 -1.6048,1.1868 -2.5911,1.3416 -0.1781,0.0203 -0.3574,0.0304 -0.5366,0.0302 -0.8663,0.0034 -1.7179,-0.2224 -2.4687,-0.654 l -0.426,-0.2432 c -3.3072,-2.0125 -4.5432,-5.2728 -4.9239,-9.9652 2.4271,0.5227 4.8973,0.8204 7.3792,0.8888 0.1677,0 0.327,0 0.4846,0 2.7337,0.0312 4.9352,2.2522 4.9424,4.986 -0.0038,0.1217 -0.0144,0.2433 -0.0319,0.3639 z m -10.7333,41.5497 -0.53,1.4356 c -0.0184,0.052 -0.0453,0.099 -0.0637,0.1493 -4.219,-1.7465 -8.243,-3.9309 -12.0062,-6.5172 -0.7628,-0.5256 -1.8073,-0.3334 -2.3329,0.4294 -0.5256,0.7627 -0.3334,1.8072 0.4294,2.3328 3.8762,2.6659 8.0142,4.9294 12.35,6.7553 -1.3784,2.0905 -3.3535,3.7182 -5.6685,4.6723 -3.7532,1.4757 -7.9729,1.1723 -11.4763,-0.8251 l -0.9308,-0.5299 c -8.8617,-5.3399 -11.317,-14.106 -11.7094,-27.0179 6.011,1.5037 12.1609,2.3844 18.3523,2.628 0.3153,0 0.6273,0 0.9342,-0.0134 7.3427,0.0341 13.2806,5.9899 13.2925,13.3328 -0.024,1.0849 -0.238,2.1571 -0.6322,3.168 z"
               fill="#243240"
               transform="matrix(1,0,0,1.00949,277,141.473)"
               id="path186" />
          </g>
        </g>
      </g>
      <g
         clip-path="url(#clip16)"
         id="g200">
        <g
           clip-path="url(#clip17)"
           id="g198">
          <g
             clip-path="url(#clip18)"
             id="g196">
            <path
               d="m 104.625,98.1667 h -85.25 c -2.8417,0 -5.1667,-2.325 -5.1667,-5.1667 V 31 c 0,-2.8417 2.325,-5.1667 5.1667,-5.1667 h 24.2833 c 1.0334,0 2.0667,0.2584 2.8417,0.9042 l 14.2083,9.4292 h 43.9167 c 2.842,0 5.167,2.325 5.167,5.1666 V 93 c 0,2.8417 -2.325,5.1667 -5.167,5.1667 z"
               stroke="#243240"
               stroke-width="2.58332"
               fill="#4bceb8"
               transform="matrix(1.12097,0,0,1,922,145)"
               id="path194" />
          </g>
        </g>
      </g>
      <g
         clip-path="url(#clip19)"
         id="g208">
        <g
           clip-path="url(#clip20)"
           id="g206">
          <g
             clip-path="url(#clip21)"
             id="g204">
            <path
               d="M 115.594,108.458 H 21.4062 c -3.1395,0 -5.7083,-2.568 -5.7083,-5.708 v -68.5 c 0,-3.1396 2.5688,-5.7083 5.7083,-5.7083 h 26.8292 c 1.1417,0 2.2834,0.2854 3.1396,0.9989 l 15.6979,10.4177 h 48.5211 c 3.139,0 5.708,2.5688 5.708,5.7084 V 102.75 c 0,3.14 -2.569,5.708 -5.708,5.708 z"
               stroke="#243240"
               stroke-width="2.85415"
               fill="#243240"
               transform="matrix(1.0073,0,0,1,945,113)"
               id="path202" />
          </g>
        </g>
      </g>
      <rect
         x="734.5"
         y="292.5"
         width="51"
         height="12"
         stroke="#243240"
         stroke-width="1.33333"
         stroke-miterlimit="8"
         fill="#ffffff"
         id="rect210" />
      <path
         d="M 734.527,298.5 H 693.5"
         stroke="#243240"
         stroke-width="1.33333"
         stroke-miterlimit="8"
         fill="none"
         fill-rule="evenodd"
         id="path212" />
      <path
         d="M 692.834,298.512 675.5,262.5"
         stroke="#243240"
         stroke-width="1.33333"
         stroke-miterlimit="8"
         fill="none"
         fill-rule="evenodd"
         id="path214" />
      <rect
         x="533.5"
         y="92.500099"
         width="52"
         height="12"
         stroke="#243240"
         stroke-width="1.33333"
         stroke-miterlimit="8"
         fill="#ffffff"
         id="rect216" />
      <path
         d="m 585.5,98.5001 41.027,1e-4"
         stroke="#243240"
         stroke-width="1.33333"
         stroke-miterlimit="8"
         fill="none"
         fill-rule="evenodd"
         id="path218" />
      <path
         d="m 626.5,98.5001 13.637,25.1739"
         stroke="#243240"
         stroke-width="1.33333"
         stroke-miterlimit="8"
         fill="none"
         fill-rule="evenodd"
         id="path220" />
      <text
         fill="#243240"
         font-family="Calibri, Calibri_MSFontService, sans-serif"
         font-weight="700"
         font-size="21px"
         transform="translate(230.996,329)"
         id="text222">Data Generation</text>
      <path
         d="M 450.5,185.25 H 496 V 177.5 L 511.5,193 496,208.5 v -7.75 h -45.5 z"
         stroke="#1e2b38"
         stroke-width="1.33333"
         stroke-miterlimit="8"
         fill="#2d3e50"
         fill-rule="evenodd"
         id="path224" />
      <text
         fill="#243240"
         font-family="Calibri, Calibri_MSFontService, sans-serif"
         font-weight="700"
         font-size="21px"
         transform="translate(573.301,329)"
         id="text226">Metadata Annotation</text>
      <path
         d="M 816.5,185.25 H 862 V 177.5 L 877.5,193 862,208.5 v -7.75 h -45.5 z"
         stroke="#1e2b38"
         stroke-width="1.33333"
         stroke-miterlimit="8"
         fill="#2d3e50"
         fill-rule="evenodd"
         id="path228" />
      <text
         fill="#243240"
         font-family="Calibri, Calibri_MSFontService, sans-serif"
         font-weight="700"
         font-size="21px"
         transform="translate(939.864,329)"
         id="text230">Data Handling</text>
      <path
         d="m 326,414 h 680.31"
         stroke="#243240"
         stroke-width="8"
         stroke-miterlimit="8"
         fill="none"
         fill-rule="evenodd"
         id="path232" />
      <path
         d="m 330,342 v 75.591"
         stroke="#243240"
         stroke-width="8"
         stroke-miterlimit="8"
         fill="none"
         fill-rule="evenodd"
         id="path234" />
      <path
         d="m 1003,342 v 75.591"
         stroke="#243240"
         stroke-width="8"
         stroke-miterlimit="8"
         fill="none"
         fill-rule="evenodd"
         id="path236" />
      <path
         d="M 666,342 V 474.283"
         stroke="#243240"
         stroke-width="8"
         stroke-miterlimit="8"
         fill="none"
         fill-rule="evenodd"
         id="path238" />
      <g
         clip-path="url(#clip22)"
         filter="url(#fx0)"
         transform="translate(571,109)"
         id="g262">
        <g
           clip-path="url(#clip23)"
           id="g260">
          <rect
             x="7.1715698"
             y="7.1715698"
             width="145"
             height="12"
             fill="#243240"
             id="rect240" />
          <rect
             x="7.1715698"
             y="22.1716"
             width="47"
             height="26"
             fill="#1fc2a7"
             id="rect242" />
          <rect
             x="56.1716"
             y="22.1716"
             width="47"
             height="26"
             fill="#1fc2a7"
             id="rect244" />
          <rect
             x="105.172"
             y="22.1716"
             width="47"
             height="26"
             fill="#1fc2a7"
             id="rect246" />
          <rect
             x="7.1715698"
             y="50.1716"
             width="47"
             height="26"
             fill="#1fc2a7"
             id="rect248" />
          <rect
             x="56.1716"
             y="50.1716"
             width="47"
             height="26"
             fill="#1fc2a7"
             id="rect250" />
          <rect
             x="105.172"
             y="50.1716"
             width="47"
             height="26"
             fill="#1fc2a7"
             id="rect252" />
          <rect
             x="7.1715698"
             y="78.1716"
             width="47"
             height="26"
             fill="#1fc2a7"
             id="rect254" />
          <rect
             x="56.1716"
             y="78.1716"
             width="47"
             height="26"
             fill="#1fc2a7"
             id="rect256" />
          <rect
             x="105.172"
             y="78.1716"
             width="47"
             height="26"
             fill="#1fc2a7"
             id="rect258" />
        </g>
      </g>
      <rect
         x="581"
         y="119"
         width="145"
         height="12"
         fill="#243240"
         id="rect264" />
      <rect
         x="581"
         y="134"
         width="47"
         height="26"
         fill="#1fc2a7"
         id="rect266" />
      <rect
         x="630"
         y="134"
         width="47"
         height="26"
         fill="#1fc2a7"
         id="rect268" />
      <rect
         x="679"
         y="134"
         width="47"
         height="26"
         fill="#1fc2a7"
         id="rect270" />
      <rect
         x="581"
         y="162"
         width="47"
         height="26"
         fill="#1fc2a7"
         id="rect272" />
      <rect
         x="630"
         y="162"
         width="47"
         height="26"
         fill="#1fc2a7"
         id="rect274" />
      <rect
         x="679"
         y="162"
         width="47"
         height="26"
         fill="#1fc2a7"
         id="rect276" />
      <rect
         x="581"
         y="190"
         width="47"
         height="26"
         fill="#1fc2a7"
         id="rect278" />
      <rect
         x="630"
         y="190"
         width="47"
         height="26"
         fill="#1fc2a7"
         id="rect280" />
      <rect
         x="679"
         y="190"
         width="47"
         height="26"
         fill="#1fc2a7"
         id="rect282" />
      <g
         clip-path="url(#clip24)"
         filter="url(#fx1)"
         transform="translate(606,145)"
         id="g306">
        <g
           clip-path="url(#clip25)"
           id="g304">
          <rect
             x="7.1715698"
             y="7.1715698"
             width="144"
             height="12"
             fill="#243240"
             id="rect284" />
          <rect
             x="7.1715698"
             y="22.1716"
             width="46"
             height="26"
             fill="#1fc2a7"
             id="rect286" />
          <rect
             x="56.1716"
             y="22.1716"
             width="46"
             height="26"
             fill="#1fc2a7"
             id="rect288" />
          <rect
             x="104.172"
             y="22.1716"
             width="47"
             height="26"
             fill="#1fc2a7"
             id="rect290" />
          <rect
             x="7.1715698"
             y="50.1716"
             width="46"
             height="26"
             fill="#1fc2a7"
             id="rect292" />
          <rect
             x="56.1716"
             y="50.1716"
             width="46"
             height="26"
             fill="#1fc2a7"
             id="rect294" />
          <rect
             x="104.172"
             y="50.1716"
             width="47"
             height="26"
             fill="#1fc2a7"
             id="rect296" />
          <rect
             x="7.1715698"
             y="78.1716"
             width="46"
             height="26"
             fill="#1fc2a7"
             id="rect298" />
          <rect
             x="56.1716"
             y="78.1716"
             width="46"
             height="26"
             fill="#1fc2a7"
             id="rect300" />
          <rect
             x="104.172"
             y="78.1716"
             width="47"
             height="26"
             fill="#1fc2a7"
             id="rect302" />
        </g>
      </g>
      <rect
         x="616"
         y="155"
         width="144"
         height="12"
         fill="#243240"
         id="rect308" />
      <rect
         x="616"
         y="170"
         width="46"
         height="26"
         fill="#1fc2a7"
         id="rect310" />
      <rect
         x="665"
         y="170"
         width="46"
         height="26"
         fill="#1fc2a7"
         id="rect312" />
      <rect
         x="713"
         y="170"
         width="47"
         height="26"
         fill="#1fc2a7"
         id="rect314" />
      <rect
         x="616"
         y="198"
         width="46"
         height="26"
         fill="#1fc2a7"
         id="rect316" />
      <rect
         x="665"
         y="198"
         width="46"
         height="26"
         fill="#1fc2a7"
         id="rect318" />
      <rect
         x="713"
         y="198"
         width="47"
         height="26"
         fill="#1fc2a7"
         id="rect320" />
      <rect
         x="616"
         y="226"
         width="46"
         height="26"
         fill="#1fc2a7"
         id="rect322" />
      <rect
         x="665"
         y="226"
         width="46"
         height="26"
         fill="#1fc2a7"
         id="rect324" />
      <rect
         x="713"
         y="226"
         width="47"
         height="26"
         fill="#1fc2a7"
         id="rect326" />
      <g
         clip-path="url(#clip26)"
         filter="url(#fx2)"
         transform="translate(551,170)"
         id="g350">
        <g
           clip-path="url(#clip27)"
           id="g348">
          <rect
             x="7.1715698"
             y="7.1715698"
             width="145"
             height="13"
             fill="#243240"
             id="rect328" />
          <rect
             x="7.1715698"
             y="22.1716"
             width="47"
             height="26"
             fill="#1fc2a7"
             id="rect330" />
          <rect
             x="56.1716"
             y="22.1716"
             width="47"
             height="26"
             fill="#1fc2a7"
             id="rect332" />
          <rect
             x="105.172"
             y="22.1716"
             width="47"
             height="26"
             fill="#1fc2a7"
             id="rect334" />
          <rect
             x="7.1715698"
             y="51.1716"
             width="47"
             height="25"
             fill="#1fc2a7"
             id="rect336" />
          <rect
             x="56.1716"
             y="51.1716"
             width="47"
             height="25"
             fill="#1fc2a7"
             id="rect338" />
          <rect
             x="105.172"
             y="51.1716"
             width="47"
             height="25"
             fill="#1fc2a7"
             id="rect340" />
          <rect
             x="7.1715698"
             y="79.1716"
             width="47"
             height="26"
             fill="#1fc2a7"
             id="rect342" />
          <rect
             x="56.1716"
             y="79.1716"
             width="47"
             height="26"
             fill="#1fc2a7"
             id="rect344" />
          <rect
             x="105.172"
             y="79.1716"
             width="47"
             height="26"
             fill="#1fc2a7"
             id="rect346" />
        </g>
      </g>
      <rect
         x="561"
         y="180"
         width="145"
         height="13"
         fill="#243240"
         id="rect352" />
      <rect
         x="561"
         y="195"
         width="47"
         height="26"
         fill="#1fc2a7"
         id="rect354" />
      <rect
         x="610"
         y="195"
         width="47"
         height="26"
         fill="#1fc2a7"
         id="rect356" />
      <rect
         x="659"
         y="195"
         width="47"
         height="26"
         fill="#1fc2a7"
         id="rect358" />
      <rect
         x="561"
         y="224"
         width="47"
         height="25"
         fill="#1fc2a7"
         id="rect360" />
      <rect
         x="610"
         y="224"
         width="47"
         height="25"
         fill="#1fc2a7"
         id="rect362" />
      <rect
         x="659"
         y="224"
         width="47"
         height="25"
         fill="#1fc2a7"
         id="rect364" />
      <rect
         x="561"
         y="252"
         width="47"
         height="26"
         fill="#1fc2a7"
         id="rect366" />
      <rect
         x="610"
         y="252"
         width="47"
         height="26"
         fill="#1fc2a7"
         id="rect368" />
      <rect
         x="659"
         y="252"
         width="47"
         height="26"
         fill="#1fc2a7"
         id="rect370" />
    </g>
  </g>
</svg>
