<svg width="1100" height="1013" xmlns="http://www.w3.org/2000/svg" xmlns:xlink="http://www.w3.org/1999/xlink" xml:space="preserve" overflow="hidden"><g transform="translate(-1786 -701)"><path d="M335.262-6.04008 377.742-6.83465 420.15-6.61631 461.968-5.40355 502.842-3.2197 522.86-1.76774 542.468-0.0839138 561.665 1.83147 580.408 3.97573 598.652 6.34625 616.356 8.94051 633.474 11.7562 636.578 12.3263 634.088 25.849 631.242 25.3237 614.361 22.5451 596.88 19.9816 578.845 17.6366 560.3 15.5135 541.292 13.6156 521.865 11.9462 502.108 10.5107 461.569 8.34066 420.079 7.13351 377.999 6.91294 335.52 7.70752ZM603.604-17.259 648.752 21.5581 592.74 41.7513C589.168 43.039 585.228 41.1873 583.941 37.6154 582.653 34.0435 584.505 30.104 588.077 28.8162L633.002 12.6201 630.851 24.3008 594.64-6.83271C591.76-9.30809 591.433-13.6488 593.909-16.5279 596.384-19.407 600.725-19.7343 603.604-17.259Z" fill="#2D3E50" transform="matrix(0.162944 -0.986635 -0.986635 -0.162944 1918.53 1579.87)"/><path d="M2684.5 1118.5C2684.5 1071.56 2722.56 1033.5 2769.5 1033.5 2816.44 1033.5 2854.5 1071.56 2854.5 1118.5 2854.5 1165.44 2816.44 1203.5 2769.5 1203.5 2722.56 1203.5 2684.5 1165.44 2684.5 1118.5Z" stroke="#2D3E50" stroke-width="4.58333" stroke-miterlimit="8" fill="#0BB5DD" fill-rule="evenodd"/><g><g><g><path d="M94 44.0625C94 57.0412 83.4787 67.5625 70.5 67.5625 57.5213 67.5625 47 57.0412 47 44.0625 47 31.0838 57.5213 20.5625 70.5 20.5625 83.4787 20.5625 94 31.0838 94 44.0625Z" fill="#2D3E50" transform="matrix(-1 0 0 1 2842 1046)"/><path d="M44.9437 119.85 35.25 97.9656 35.25 83.1312C35.25 81.3687 36.2781 79.6062 37.7469 78.725 38.6281 78.2843 38.9219 77.2562 38.4812 76.5218 38.1875 75.9343 37.6 75.4937 36.8656 75.6406L20.1219 75.6406C19.2406 75.6406 18.3594 76.2281 18.3594 77.2562 18.3594 77.9906 18.6531 78.5781 19.2406 78.8718 20.8562 79.7531 21.7375 81.5156 21.7375 83.2781L21.7375 98.1125 12.1906 119.85C11.0156 122.347 12.1906 125.431 14.8344 126.459 15.4219 126.753 16.1562 126.9 16.8906 126.9L40.3906 126.9C43.1812 126.9 45.3844 124.697 45.3844 121.906 45.3844 121.172 45.2375 120.437 44.9437 119.85L44.9437 119.85ZM25.2625 86.5093 25.2625 83.1312C25.2625 81.6625 24.9687 80.1937 24.0875 78.8718L33.0469 78.8718C32.3125 80.1937 31.8719 81.6625 31.8719 83.1312L31.8719 86.5093 25.2625 86.5093Z" fill="#2D3E50" transform="matrix(-1 0 0 1 2842 1046)"/><path d="M32.7531 55.3718C32.7531 56.7508 31.6352 57.8687 30.2562 57.8687 28.8772 57.8687 27.7594 56.7508 27.7594 55.3718 27.7594 53.9929 28.8772 52.875 30.2562 52.875 31.6352 52.875 32.7531 53.9929 32.7531 55.3718Z" fill="#2D3E50" transform="matrix(-1 0 0 1 2842 1046)"/><path d="M37.0125 63.0093C37.0125 64.3883 35.8946 65.5062 34.5156 65.5062 33.1366 65.5062 32.0187 64.3883 32.0187 63.0093 32.0187 61.6304 33.1366 60.5125 34.5156 60.5125 35.8946 60.5125 37.0125 61.6304 37.0125 63.0093Z" fill="#2D3E50" transform="matrix(-1 0 0 1 2842 1046)"/><path d="M27.7594 61.2468C27.7594 62.6258 26.6415 63.7437 25.2625 63.7437 23.8835 63.7437 22.7656 62.6258 22.7656 61.2468 22.7656 59.8679 23.8835 58.75 25.2625 58.75 26.6415 58.75 27.7594 59.8679 27.7594 61.2468Z" fill="#2D3E50" transform="matrix(-1 0 0 1 2842 1046)"/><path d="M30.2562 70.5C30.2562 72.3657 28.7438 73.8781 26.8781 73.8781 25.0124 73.8781 23.5 72.3657 23.5 70.5 23.5 68.6343 25.0124 67.1218 26.8781 67.1218 28.7438 67.1218 30.2562 68.6343 30.2562 70.5Z" fill="#2D3E50" transform="matrix(-1 0 0 1 2842 1046)"/><path d="M63.1562 107.072 52.5812 95.9093 58.4562 88.5656 58.4562 88.4187 49.4969 89.3 49.7906 76.8156C46.2656 77.9906 42.7406 79.3125 39.3625 80.9281 38.775 81.5156 38.3344 82.3968 38.1875 83.2781L38.1875 97.3781 47.5875 118.675C47.8812 119.262 48.0281 119.85 48.175 120.437L63.1562 120.437 63.1562 107.072Z" fill="#2D3E50" transform="matrix(-1 0 0 1 2842 1046)"/><path d="M66.0937 105.75 66.0937 120.437 74.9062 120.437 74.9062 105.75 85.4812 75.2C80.4875 74.025 75.4937 73.4375 70.5 73.4375 65.5062 73.4375 60.5125 74.025 55.6656 75.2L66.0937 105.75Z" fill="#2D3E50" transform="matrix(-1 0 0 1 2842 1046)"/><path d="M112.8 87.5375C106.337 82.5437 98.9937 79.0187 91.2093 76.8156L91.5031 89.3 82.5437 88.4187 82.5437 88.5656 88.4187 95.9093 77.8437 107.072 77.8437 120.437 117.5 120.437 117.5 96.9375C117.353 93.2656 115.737 89.7406 112.8 87.5375Z" fill="#2D3E50" transform="matrix(-1 0 0 1 2842 1046)"/></g></g></g><path d="M1926.5 1421.5C1926.5 1282.88 2038.88 1170.5 2177.5 1170.5 2316.12 1170.5 2428.5 1282.88 2428.5 1421.5 2428.5 1560.12 2316.12 1672.5 2177.5 1672.5 2038.88 1672.5 1926.5 1560.12 1926.5 1421.5Z" stroke="#2D3E50" stroke-width="3.4375" stroke-linejoin="round" stroke-miterlimit="10" fill="#1FC2A7" fill-rule="evenodd" fill-opacity="0.501961"/><path d="M1788.5 1542.82C1788.5 1524.97 1802.97 1510.5 1820.82 1510.5L2298.18 1510.5C2316.03 1510.5 2330.5 1524.97 2330.5 1542.82L2330.5 1575.18C2330.5 1593.03 2316.03 1607.5 2298.18 1607.5L1820.82 1607.5C1802.97 1607.5 1788.5 1593.03 1788.5 1575.18Z" stroke="#2D3E50" stroke-width="4.58333" stroke-miterlimit="8" fill="#0BB5DD" fill-rule="evenodd"/><path d="M1831.5 1560C1831.5 1544.26 1844.26 1531.5 1860 1531.5 1875.74 1531.5 1888.5 1544.26 1888.5 1560 1888.5 1575.74 1875.74 1588.5 1860 1588.5 1844.26 1588.5 1831.5 1575.74 1831.5 1560Z" stroke="#2D3E50" stroke-width="4.58333" stroke-miterlimit="8" fill="#FFFFFF" fill-rule="evenodd"/><path d="M1931.5 1560C1931.5 1544.26 1944.26 1531.5 1960 1531.5 1975.74 1531.5 1988.5 1544.26 1988.5 1560 1988.5 1575.74 1975.74 1588.5 1960 1588.5 1944.26 1588.5 1931.5 1575.74 1931.5 1560Z" stroke="#2D3E50" stroke-width="4.58333" stroke-miterlimit="8" fill="#FFFFFF" fill-rule="evenodd"/><path d="M2032.5 1560C2032.5 1544.26 2045.26 1531.5 2061 1531.5 2076.74 1531.5 2089.5 1544.26 2089.5 1560 2089.5 1575.74 2076.74 1588.5 2061 1588.5 2045.26 1588.5 2032.5 1575.74 2032.5 1560Z" stroke="#2D3E50" stroke-width="4.58333" stroke-miterlimit="8" fill="#FFFFFF" fill-rule="evenodd"/><path d="M2133.5 1560C2133.5 1544.26 2146.26 1531.5 2162 1531.5 2177.74 1531.5 2190.5 1544.26 2190.5 1560 2190.5 1575.74 2177.74 1588.5 2162 1588.5 2146.26 1588.5 2133.5 1575.74 2133.5 1560Z" stroke="#2D3E50" stroke-width="4.58333" stroke-miterlimit="8" fill="#FFFFFF" fill-rule="evenodd"/><rect x="1842.5" y="1607.5" width="34" height="69.0001" stroke="#2D3E50" stroke-width="4.58333" stroke-miterlimit="8" fill="#0BB5DD"/><path d="M2235.5 1560C2235.5 1544.26 2248.26 1531.5 2264 1531.5 2279.74 1531.5 2292.5 1544.26 2292.5 1560 2292.5 1575.74 2279.74 1588.5 2264 1588.5 2248.26 1588.5 2235.5 1575.74 2235.5 1560Z" stroke="#2D3E50" stroke-width="4.58333" stroke-miterlimit="8" fill="#FFFFFF" fill-rule="evenodd"/><rect x="2235.5" y="1608.5" width="33" height="68.0001" stroke="#2D3E50" stroke-width="4.58333" stroke-miterlimit="8" fill="#0BB5DD"/><rect x="2205.5" y="1456.5" width="16.0002" height="33" stroke="#0684A2" stroke-width="6.875" stroke-miterlimit="8" fill="#0BB5DD"/><rect x="2225.5" y="1447.5" width="16.0002" height="41.9999" stroke="#0684A2" stroke-width="6.875" stroke-miterlimit="8" fill="#0BB5DD"/><rect x="2244.5" y="1439.5" width="16.0002" height="49.9999" stroke="#0684A2" stroke-width="6.875" stroke-miterlimit="8" fill="#0BB5DD"/><path d="M2198.4 1472.22C2171.88 1472.68 2150 1451.55 2149.54 1425.02 2149.08 1398.5 2170.21 1376.62 2196.73 1376.16 2223.26 1375.7 2245.13 1396.83 2245.6 1423.36 2245.62 1424.56 2245.59 1425.76 2245.52 1426.97" stroke="#0BB5DD" stroke-width="6.875" stroke-linecap="round" stroke-miterlimit="8" fill="none" fill-rule="evenodd"/><path d="M0 0 9.58891 10.5969" stroke="#0BB5DD" stroke-width="6.875" stroke-linecap="round" stroke-miterlimit="8" fill="none" fill-rule="evenodd" transform="matrix(1 0 0 -1 2245.5 1430.1)"/><path d="M0 0 9.58891 10.5969" stroke="#0BB5DD" stroke-width="6.875" stroke-linecap="round" stroke-miterlimit="8" fill="none" fill-rule="evenodd" transform="matrix(-1.83697e-16 -1 -1 1.83697e-16 2245.1 1430.09)"/><path d="M2178.11 1435.8C2175.95 1431.99 2175.93 1423.56 2178.24 1418.51 2180.55 1413.47 2184.84 1406.37 2196.77 1406.2 2200.92 1406.14 2207 1405.16 2210.9 1404.21 2214.8 1403.27 2218.46 1400.44 2220.18 1400.5 2221.91 1400.56 2221.54 1402.18 2221.26 1404.58 2220.98 1406.97 2219.72 1411.81 2218.51 1414.88 2217.3 1417.94 2213.98 1426.85 2211.46 1430.92 2208.95 1434.99 2206.82 1437.56 2203.44 1439.3 2200.06 1441.03 2195.4 1441.9 2191.18 1441.32 2186.96 1440.74 2180.26 1439.6 2178.11 1435.8Z" stroke="#2D3E50" stroke-width="6.875" stroke-linecap="round" stroke-miterlimit="8" fill="none" fill-rule="evenodd"/><path d="M2173.5 1447.5C2175.54 1438.85 2177.57 1430.19 2195.5 1424.5" stroke="#2D3E50" stroke-width="6.875" stroke-linecap="round" stroke-miterlimit="8" fill="none" fill-rule="evenodd"/><rect x="2121.5" y="1369.5" width="22" height="10" stroke="#0684A2" stroke-width="6.875" stroke-miterlimit="8" fill="#0BB5DD"/><path d="M2143.5 1374.5 2161.19 1374.5" stroke="#0BB5DD" stroke-width="6.875" stroke-miterlimit="8" fill="none" fill-rule="evenodd"/><path d="M2161.5 1374.5 2168.97 1404.89" stroke="#0BB5DD" stroke-width="6.875" stroke-miterlimit="8" fill="none" fill-rule="evenodd"/><rect x="2138.5" y="1471.5" width="22" height="10" stroke="#0684A2" stroke-width="6.875" stroke-miterlimit="8" fill="#0BB5DD"/><path d="M2160.5 1476.5 2176.41 1476.5" stroke="#0BB5DD" stroke-width="6.875" stroke-miterlimit="8" fill="none" fill-rule="evenodd"/><path d="M0 0 7.47372 30.39" stroke="#0BB5DD" stroke-width="6.875" stroke-miterlimit="8" fill="none" fill-rule="evenodd" transform="matrix(1 0 0 -1 2176.5 1475.89)"/><rect x="2257.5" y="1388.5" width="22" height="10" stroke="#0684A2" stroke-width="6.875" stroke-miterlimit="8" fill="#0BB5DD"/><path d="M2245.5 1393.5 2257.12 1393.5" stroke="#0BB5DD" stroke-width="6.875" stroke-miterlimit="8" fill="none" fill-rule="evenodd"/><path d="M0 0 32.7658 17.4502" stroke="#0BB5DD" stroke-width="6.875" stroke-miterlimit="8" fill="none" fill-rule="evenodd" transform="matrix(1 0 0 -1 2212.5 1410.95)"/><path d="M2253.38 1334.58C2255.59 1334.58 2257.81 1335.2 2259.78 1336.47 2262.43 1338.32 2264.07 1341.02 2264.59 1343.92 2265.1 1346.81 2264.49 1349.91 2262.63 1352.56L2246.08 1376.25C2243.83 1379.47 2240.3 1381.09 2236.64 1381.08L2234.18 1384.6 2233 1383.52C2231.42 1382.22 2229.77 1380.99 2228.07 1379.84L2223.61 1377.13 2226.03 1373.66C2224.76 1370.24 2225.07 1366.36 2227.32 1363.14L2243.87 1339.45C2246.11 1336.26 2249.71 1334.57 2253.38 1334.58Z" stroke="#0BB5DD" stroke-width="6.875" stroke-linecap="round" stroke-miterlimit="8" fill="none" fill-rule="evenodd"/><rect x="1932.5" y="1455.5" width="15.9998" height="33" stroke="#0684A2" stroke-width="6.875" stroke-miterlimit="8" fill="#0BB5DD"/><rect x="1951.5" y="1447.5" width="17.0002" height="40.9999" stroke="#0684A2" stroke-width="6.875" stroke-miterlimit="8" fill="#0BB5DD"/><rect x="1971.5" y="1438.5" width="16.0001" height="49.9999" stroke="#0684A2" stroke-width="6.875" stroke-miterlimit="8" fill="#0BB5DD"/><path d="M1904.11 1434.8C1901.95 1430.99 1901.93 1422.56 1904.24 1417.51 1906.55 1412.47 1910.84 1405.37 1922.77 1405.2 1926.92 1405.14 1933 1404.16 1936.9 1403.21 1940.8 1402.27 1944.46 1399.44 1946.18 1399.5 1947.91 1399.56 1947.54 1401.18 1947.26 1403.58 1946.98 1405.97 1945.72 1410.81 1944.51 1413.88 1943.3 1416.94 1939.98 1425.85 1937.46 1429.92 1934.95 1433.99 1932.82 1436.56 1929.44 1438.3 1926.06 1440.03 1921.4 1440.9 1917.18 1440.32 1912.96 1439.74 1906.26 1438.6 1904.11 1434.8Z" stroke="#2D3E50" stroke-width="6.875" stroke-linecap="round" stroke-miterlimit="8" fill="none" fill-rule="evenodd"/><path d="M1899.5 1446.5C1901.54 1437.85 1903.57 1429.19 1921.5 1423.5" stroke="#2D3E50" stroke-width="6.875" stroke-linecap="round" stroke-miterlimit="8" fill="none" fill-rule="evenodd"/><rect x="1864.5" y="1470.5" width="22" height="10" stroke="#0684A2" stroke-width="6.875" stroke-miterlimit="8" fill="#0BB5DD"/><path d="M1886.5 1475.5 1902.41 1475.5" stroke="#0BB5DD" stroke-width="6.875" stroke-miterlimit="8" fill="none" fill-rule="evenodd"/><path d="M0 0 7.47372 30.3897" stroke="#0BB5DD" stroke-width="6.875" stroke-miterlimit="8" fill="none" fill-rule="evenodd" transform="matrix(1 0 0 -1 1902.5 1475.89)"/><path d="M2039.5 1424.5 2065.5 1424.5 2065.5 1418.5 2077.5 1430.5 2065.5 1442.5 2065.5 1436.5 2039.5 1436.5Z" stroke="#0684A2" stroke-width="4.58333" stroke-miterlimit="8" fill="#0BB5DD" fill-rule="evenodd"/><path d="M1879.5 1259C1879.5 1208.47 1920.47 1167.5 1971 1167.5 2021.53 1167.5 2062.5 1208.47 2062.5 1259 2062.5 1309.53 2021.53 1350.5 1971 1350.5 1920.47 1350.5 1879.5 1309.53 1879.5 1259Z" stroke="#2D3E50" stroke-width="4.52776" stroke-linecap="round" stroke-linejoin="round" stroke-miterlimit="10" fill="#CAF3FC" fill-rule="evenodd"/><path d="M1946.97 1252.76C1945.44 1251.48 1944.7 1250.42 1940.93 1253.55 1937.17 1256.67 1929.02 1264.72 1924.38 1271.49 1919.74 1278.27 1915.06 1288.61 1913.09 1294.19 1911.12 1299.78 1911.03 1301.85 1912.56 1305.01 1914.09 1308.18 1916.59 1309.72 1922.28 1313.19 1927.97 1316.67 1946.71 1325.86 1946.71 1325.86 1953.89 1329.51 1959.76 1334.04 1965.36 1335.1 1970.97 1336.16 1973.46 1335.1 1980.34 1332.2 1987.21 1329.29 1999.12 1321.95 2006.61 1317.68 2014.1 1313.41 2021.71 1310.11 2025.26 1306.6 2028.81 1303.08 2029.03 1300.61 2027.89 1296.57 2026.75 1292.52 2025.83 1288.65 2021.58 1282.31 2017.34 1275.98 2007.4 1263.53 2002.4 1258.56 1997.41 1253.59 1994.66 1250.86 1991.63 1252.49 1988.61 1254.12 1987.52 1261.6 1984.28 1268.33 1981.04 1275.06 1975 1288.39 1972.19 1292.87 1969.39 1297.36 1969.79 1297.36 1967.47 1295.25 1965.15 1293.14 1961.42 1286.36 1958.27 1280.2 1955.12 1274.05 1951.75 1265.86 1950.13 1261.2 1948.51 1256.54 1948.51 1254.03 1946.97 1252.76Z" stroke="#0684A2" stroke-width="4.58333" stroke-miterlimit="8" fill="#0BB5DD" fill-rule="evenodd"/><path d="M1936.5 1215.5C1936.5 1197.83 1950.83 1183.5 1968.5 1183.5 1986.17 1183.5 2000.5 1197.83 2000.5 1215.5 2000.5 1233.17 1986.17 1247.5 1968.5 1247.5 1950.83 1247.5 1936.5 1233.17 1936.5 1215.5Z" stroke="#0684A2" stroke-width="4.58333" stroke-miterlimit="8" fill="#0BB5DD" fill-rule="evenodd"/><g><g><g><path d="M60.9336 23.5334C59.4669 23.0001 53.0669 21.0001 48.0002 21.0001 43.8002 21.0001 34.2002 23.1334 32.0001 23.6001 29.8001 23.1334 20.2001 21.0001 16.0001 21.0001 11.0001 21.0001 4.60002 23.0001 3.06668 23.5334 2.86668 23.6001 2.66668 23.8001 2.66668 24.0668L2.66668 26.8001C2.66668 27.2668 2.80001 27.8001 3.20001 28.0668L4.00002 28.7335C4.06669 31.4001 4.40002 35.4002 5.60003 37.3335 7.13337 40.0002 11.8667 43.0002 16.6667 43.0002 25.1334 43.0002 29.1335 36.6002 30.6001 30.7335 30.7335 30.1335 31.3335 29.6668 32.0001 29.6668 32.6668 29.6668 33.2002 30.1335 33.4002 30.7335 34.9335 36.6002 38.9335 43.0002 47.3335 43.0002 52.1336 43.0002 56.8669 40.0002 58.4003 37.3335 59.5336 35.3335 59.8669 31.4001 60.0003 28.7335L60.8003 28.1335C61.2003 27.8668 61.3336 27.2668 61.3336 26.8668L61.3336 24.1334C61.2669 23.8001 61.1336 23.6001 60.9336 23.5334ZM26.6001 30.2001C25.4668 34.2002 23.8001 39.6668 16.6667 39.6668 13.6001 39.6668 10.2667 38.2002 8.86671 36.0668 7.93337 34.6002 8.00004 31.0668 8.00004 28.0001 8.00004 27.0668 8.60004 26.2668 9.53338 26.0001 11.5334 25.4668 13.9334 25.0001 16.0001 25.0001 17.6001 25.0001 20.8001 25.4668 23.9334 26.0668 25.8668 26.4001 27.1335 28.3335 26.6001 30.2001ZM55.1336 36.0668C53.7336 38.2002 50.4002 39.6668 47.3335 39.6668 40.2669 39.6668 38.5335 34.2002 37.4002 30.2001 36.8668 28.3335 38.1335 26.4001 40.0002 26.0668 43.1335 25.4668 46.3335 25.0001 47.9336 25.0001 50.0669 25.0001 52.4002 25.4668 54.4002 26.0001 55.3336 26.2668 55.9336 27.0668 55.9336 28.0001 56.0003 31.0668 56.0669 34.6002 55.1336 36.0668Z" stroke="#0888A6" stroke-width="0.66667" fill="#FFFFFF" transform="matrix(1.0625 0 0 1 1934 1184)"/></g></g></g><path d="M1972.55 1259.73 1974.72 1251.73 1961.72 1251.73 1963.88 1259.73Z" stroke="#0684A2" stroke-width="4.58333" stroke-miterlimit="8" fill="#0BB5DD" fill-rule="evenodd"/><path d="M1974.5 1292.33 1972.33 1262.5 1963.67 1262.5 1961.5 1292.33 1968 1298.5 1974.5 1292.33Z" stroke="#0684A2" stroke-width="4.58333" stroke-miterlimit="8" fill="#0BB5DD" fill-rule="evenodd"/><path d="M1995 1280 1995 1296.08" stroke="#0888A6" stroke-width="13.75" stroke-linecap="round" stroke-miterlimit="8" fill="none" fill-rule="evenodd"/><path d="M1999 1282 1999 1298.08" stroke="#0888A6" stroke-width="13.75" stroke-linecap="round" stroke-miterlimit="8" fill="none" fill-rule="evenodd"/><path d="M2000.11 1302.5 1996.89 1302.5C1992.26 1302.5 1988.5 1298.54 1988.5 1293.65L1988.5 1286.5 2008.5 1286.5 2008.5 1293.65C2008.5 1298.54 2004.74 1302.5 2000.11 1302.5Z" stroke="#0684A2" stroke-width="4.58333" stroke-miterlimit="8" fill="#0BB5DD" fill-rule="evenodd"/><path d="M418.715-6.5557 457.956-5.0979 496.418-2.47975 515.252-0.744859 533.688 1.26028 551.748 3.53474 569.398 6.07373 586.608 8.87256 603.344 11.9266 619.574 15.2315 635.267 18.7828 650.392 22.5764 664.916 26.6085 678.808 30.8757 679.151 30.9892 674.769 44.0189 674.769 44.0189 661.236 39.8569 647.045 35.9128 632.231 32.1934 616.829 28.7048 600.874 25.4531 584.4 22.4441 567.44 19.6835 550.029 17.1769 532.201 14.9296 513.99 12.947 495.483 11.2384 457.445 8.64262 418.205 7.18482ZM650.831-3.07713 689.853 41.8935 631.5 53.7256C627.779 54.4802 624.15 52.0752 623.396 48.354 622.641 44.6327 625.046 41.0044 628.768 40.2499L675.57 30.7598 671.744 42.0035 640.445 5.93451C637.957 3.06671 638.264-1.27543 641.132-3.76393 644-6.25242 648.342-5.94493 650.831-3.07713Z" fill="#2D3E50" transform="matrix(0.890803 0.454389 0.454389 -0.890803 1996.31 1308.05)"/><path d="M418.715-6.5557 457.956-5.0979 496.418-2.47975 515.252-0.744859 533.688 1.26028 551.748 3.53474 569.398 6.07373 586.608 8.87256 603.344 11.9266 619.574 15.2315 635.267 18.7828 650.392 22.5764 664.916 26.6085 678.808 30.8757 679.151 30.9892 674.769 44.0189 674.769 44.0189 661.236 39.8569 647.045 35.9128 632.231 32.1934 616.829 28.7048 600.874 25.4531 584.4 22.4441 567.44 19.6835 550.029 17.1769 532.201 14.9296 513.99 12.947 495.483 11.2384 457.445 8.64262 418.205 7.18482ZM650.831-3.07713 689.853 41.8935 631.5 53.7256C627.779 54.4802 624.15 52.0752 623.396 48.354 622.641 44.6327 625.046 41.0044 628.768 40.2499L675.57 30.7598 671.744 42.0035 640.445 5.93451C637.957 3.06671 638.264-1.27543 641.132-3.76393 644-6.25242 648.342-5.94493 650.831-3.07713Z" fill="#2D3E50" transform="matrix(0.956801 -0.290744 -0.290744 -0.956801 1977.41 1423.55)"/><path d="M2171.68 1197.85 2188.41 1162.33 2205.9 1127.97 2214.88 1111.33 2223.96 1095.15 2233.13 1079.43 2242.39 1064.19 2251.71 1049.46 2261.08 1035.26 2270.49 1021.63 2279.91 1008.58 2289.33 996.156 2298.73 984.376 2308.11 973.269 2308.34 972.998 2318.61 982.139 2318.61 982.139 2309.48 992.956 2300.28 1004.46 2291.05 1016.63 2281.81 1029.43 2272.56 1042.84 2263.33 1056.81 2254.14 1071.33 2245.01 1086.36 2235.95 1101.88 2226.98 1117.86 2218.16 1134.21 2200.85 1168.19 2184.12 1203.71ZM2265.9 985.693 2322.57 967.429 2310.58 1025.75C2309.81 1029.47 2306.18 1031.86 2302.46 1031.1 2298.74 1030.33 2296.34 1026.7 2297.11 1022.98L2306.73 976.203 2315.57 984.131 2270.12 998.78C2266.51 999.944 2262.63 997.959 2261.47 994.345 2260.3 990.731 2262.29 986.857 2265.9 985.693Z" fill="#2D3E50"/><path d="M2713.5 1626.5C2713.5 1579.56 2751.56 1541.5 2798.5 1541.5 2845.44 1541.5 2883.5 1579.56 2883.5 1626.5 2883.5 1673.44 2845.44 1711.5 2798.5 1711.5 2751.56 1711.5 2713.5 1673.44 2713.5 1626.5Z" stroke="#2D3E50" stroke-width="4.58333" stroke-miterlimit="8" fill="#0BB5DD" fill-rule="evenodd"/><path d="M2821 1589C2821 1603.36 2809.36 1615 2795 1615 2780.64 1615 2769 1603.36 2769 1589 2769 1574.64 2780.64 1563 2795 1563 2809.36 1563 2821 1574.64 2821 1589Z" fill="#2D3E50" fill-rule="evenodd"/><path d="M2795.22 1622C2802.91 1622 2809.95 1623.28 2816.35 1625.19 2820.83 1626.46 2825.32 1628.06 2829.56 1630.05L2833 1632.17 2833 1632.18 2833 1647.67 2822.83 1670.53C2822.52 1671.14 2822.37 1671.91 2822.37 1672.67L2822.5 1673 2744 1673 2744 1647.5C2744 1643.68 2745.92 1639.85 2749.12 1637.3 2756.17 1632.2 2765.13 1627.74 2774.09 1625.19 2781.14 1623.28 2788.18 1622 2795.22 1622Z" fill="#2D3E50" fill-rule="evenodd"/><path d="M35.529 46.5771 25.1579 23.5354 25.1579 7.91662C25.1579 6.0609 26.258 4.20519 27.8292 3.27733 28.772 2.8134 29.0865 1.73113 28.6151 0.957686 28.3006 0.339349 27.6723-0.12458 26.8863 0.029829L8.97257 0.029829C8.02974 0.029829 7.08691 0.648518 7.08691 1.73113 7.08691 2.50423 7.40142 3.12292 8.02974 3.43209 9.7585 4.35995 10.7013 6.21566 10.7013 8.07138L10.7013 23.6902 0.487461 46.5771C-0.769882 49.2063 0.487461 52.4538 3.31595 53.536 3.94426 53.8456 4.72984 54 5.51576 54L30.6576 54C33.6434 54 36.0005 51.6803 36.0005 48.7423 36.0005 47.9689 35.8432 47.1958 35.529 46.5771L35.529 46.5771ZM14.4726 11.4736 14.4726 7.91662C14.4726 6.37042 14.1581 4.82388 13.2153 3.43209L22.8008 3.43209C22.0153 4.82388 21.5439 6.37042 21.5439 7.91662L21.5439 11.4736 14.4726 11.4736Z" fill="#2D3E50" fill-rule="evenodd" transform="matrix(-1 0 0 1 2861 1624)"/><path d="M6.00024 2.4999C6.00024 3.88084 4.65706 5.00014 2.99992 5.00014 1.34318 5.00014 0 3.88084 0 2.4999 0 1.1193 1.34318 0 2.99992 0 4.65706 0 6.00024 1.1193 6.00024 2.4999Z" fill="#2D3E50" fill-rule="evenodd" transform="matrix(-1 0 0 1 2844 1600)"/><path d="M5.0005 2.4999C5.0005 3.88084 3.88112 5.00014 2.50008 5.00014 1.11938 5.00014 0 3.88084 0 2.4999 0 1.1193 1.11938 0 2.50008 0 3.88112 0 5.0005 1.1193 5.0005 2.4999Z" fill="#2D3E50" fill-rule="evenodd" transform="matrix(-1 0 0 1 2839 1608)"/><path d="M5.0005 2.99992C5.0005 4.65706 3.88112 6.00024 2.50008 6.00024 1.11938 6.00024 0 4.65706 0 2.99992 0 1.34318 1.11938 0 2.50008 0 3.88112 0 5.0005 1.34318 5.0005 2.99992Z" fill="#2D3E50" fill-rule="evenodd" transform="matrix(-1 0 0 1 2849 1606)"/><path d="M7.00021 3.50011C7.00021 5.43338 5.4331 7.00058 3.49993 7.00058 1.56711 7.00058 0 5.43338 0 3.50011 0 1.56719 1.56711 0 3.49993 0 5.4331 0 7.00021 1.56719 7.00021 3.50011Z" fill="#2D3E50" fill-rule="evenodd" transform="matrix(-1 0 0 1 2848 1615)"/><path d="M2360.5 859.5C2360.5 812.556 2398.56 774.5 2445.5 774.5 2492.44 774.5 2530.5 812.556 2530.5 859.5 2530.5 906.444 2492.44 944.5 2445.5 944.5 2398.56 944.5 2360.5 906.444 2360.5 859.5Z" stroke="#2D3E50" stroke-width="4.58333" stroke-miterlimit="8" fill="#0BB5DD" fill-rule="evenodd"/><path d="M1922.5 788C1922.5 741.332 1960.56 703.5 2007.5 703.5 2054.44 703.5 2092.5 741.332 2092.5 788 2092.5 834.668 2054.44 872.5 2007.5 872.5 1960.56 872.5 1922.5 834.668 1922.5 788Z" stroke="#2D3E50" stroke-width="4.58333" stroke-miterlimit="8" fill="#0BB5DD" fill-rule="evenodd"/><path d="M2030 750.5C2030 764.583 2018.36 776 2004 776 1989.64 776 1978 764.583 1978 750.5 1978 736.417 1989.64 725 2004 725 2018.36 725 2030 736.417 2030 750.5Z" fill="#2D3E50" fill-rule="evenodd"/><path d="M2004.22 783C2011.91 783 2018.95 784.3 2025.35 786.25 2029.83 787.55 2034.32 789.175 2038.56 791.206L2042 793.368 2042 793.378 2042 809.174 2031.83 832.477C2031.52 833.103 2031.37 833.885 2031.37 834.667L2031.5 835 1953 835 1953 809C1953 805.1 1954.92 801.2 1958.12 798.6 1965.17 793.4 1974.13 788.85 1983.09 786.25 1990.14 784.3 1997.18 783 2004.22 783Z" fill="#2D3E50" fill-rule="evenodd"/><path d="M35.529 46.5771 25.1579 23.5354 25.1579 7.91662C25.1579 6.0609 26.258 4.20519 27.8292 3.27733 28.772 2.8134 29.0865 1.73113 28.6151 0.957686 28.3006 0.339349 27.6723-0.12458 26.8863 0.029829L8.97257 0.029829C8.02974 0.029829 7.08691 0.648518 7.08691 1.73113 7.08691 2.50423 7.40142 3.12292 8.02974 3.43209 9.7585 4.35995 10.7013 6.21566 10.7013 8.07138L10.7013 23.6902 0.487461 46.5771C-0.769882 49.2063 0.487461 52.4538 3.31595 53.536 3.94426 53.8456 4.72984 54 5.51576 54L30.6576 54C33.6434 54 36.0005 51.6803 36.0005 48.7423 36.0005 47.9689 35.8432 47.1958 35.529 46.5771L35.529 46.5771ZM14.4726 11.4736 14.4726 7.91662C14.4726 6.37042 14.1581 4.82388 13.2153 3.43209L22.8008 3.43209C22.0153 4.82388 21.5439 6.37042 21.5439 7.91662L21.5439 11.4736 14.4726 11.4736Z" fill="#2D3E50" fill-rule="evenodd" transform="matrix(-1 0 0 1 2070 786)"/><path d="M5.00014 2.4999C5.00014 3.88084 3.88084 5.00014 2.4999 5.00014 1.1193 5.00014 0 3.88084 0 2.4999 0 1.1193 1.1193 0 2.4999 0 3.88084 0 5.00014 1.1193 5.00014 2.4999Z" fill="#2D3E50" fill-rule="evenodd" transform="matrix(-1 0 0 1 2053 762)"/><path d="M5.0005 2.50008C5.0005 3.88112 3.88112 5.0005 2.50008 5.0005 1.11938 5.0005 0 3.88112 0 2.50008 0 1.11938 1.11938 0 2.50008 0 3.88112 0 5.0005 1.11938 5.0005 2.50008Z" fill="#2D3E50" fill-rule="evenodd" transform="matrix(-1 0 0 1 2048 770)"/><path d="M5.0005 2.50008C5.0005 3.88112 3.88112 5.0005 2.50008 5.0005 1.11938 5.0005 0 3.88112 0 2.50008 0 1.11938 1.11938 0 2.50008 0 3.88112 0 5.0005 1.11938 5.0005 2.50008Z" fill="#2D3E50" fill-rule="evenodd" transform="matrix(-1 0 0 1 2058 768)"/><path d="M7.00021 3.50011C7.00021 5.43338 5.4331 7.00058 3.49993 7.00058 1.56711 7.00058 0 5.43338 0 3.50011 0 1.56719 1.56711 0 3.49993 0 5.4331 0 7.00021 1.56719 7.00021 3.50011Z" fill="#2D3E50" fill-rule="evenodd" transform="matrix(-1 0 0 1 2057 777)"/><g><g><g><path d="M102.667 48.125C102.667 62.3003 91.1753 73.7917 77 73.7917 62.8247 73.7917 51.3333 62.3003 51.3333 48.125 51.3333 33.9497 62.8247 22.4583 77 22.4583 91.1753 22.4583 102.667 33.9497 102.667 48.125Z" fill="#2D3E50" transform="matrix(-1 0 0 1.00649 2523 772)"/><path d="M128.333 131.542 128.333 105.875C128.333 102.025 126.408 98.175 123.2 95.6083 116.142 89.8333 107.158 85.9833 98.175 83.4167 91.7583 81.4917 84.7 80.2083 77 80.2083 69.9417 80.2083 62.8833 81.4917 55.825 83.4167 46.8417 85.9833 37.8583 90.475 30.8 95.6083 27.5917 98.175 25.6667 102.025 25.6667 105.875L25.6667 131.542 128.333 131.542Z" fill="#2D3E50" transform="matrix(-1 0 0 1.00649 2523 772)"/></g></g></g><path d="M2121.5 1179.5C2121.5 1141.94 2151.94 1111.5 2189.5 1111.5 2227.06 1111.5 2257.5 1141.94 2257.5 1179.5 2257.5 1217.06 2227.06 1247.5 2189.5 1247.5 2151.94 1247.5 2121.5 1217.06 2121.5 1179.5Z" stroke="#2D3E50" stroke-width="4.52776" stroke-linecap="round" stroke-linejoin="round" stroke-miterlimit="10" fill="#CAF3FC" fill-rule="evenodd"/><path d="M2171.88 1175.43C2170.74 1174.48 2170.19 1173.71 2167.39 1176.01 2164.59 1178.32 2158.53 1184.26 2155.08 1189.26 2151.63 1194.26 2148.14 1201.89 2146.68 1206.01 2145.21 1210.13 2145.15 1211.66 2146.29 1214 2147.43 1216.33 2149.28 1217.47 2153.52 1220.04 2157.75 1222.6 2171.68 1229.39 2171.68 1229.39 2177.02 1232.08 2181.39 1235.43 2185.55 1236.2 2189.72 1236.98 2191.58 1236.2 2196.69 1234.06 2201.8 1231.92 2210.65 1226.5 2216.22 1223.35 2221.79 1220.2 2227.45 1217.76 2230.09 1215.17 2232.73 1212.57 2232.89 1210.75 2232.04 1207.76 2231.2 1204.78 2230.51 1201.92 2227.36 1197.24 2224.2 1192.57 2216.81 1183.38 2213.1 1179.71 2209.38 1176.04 2207.33 1174.03 2205.09 1175.23 2202.84 1176.43 2202.03 1181.95 2199.62 1186.92 2197.21 1191.89 2192.72 1201.72 2190.63 1205.04 2188.55 1208.35 2188.84 1208.35 2187.12 1206.79 2185.39 1205.23 2182.62 1200.23 2180.28 1195.69 2177.93 1191.14 2175.43 1185.1 2174.22 1181.66 2173.02 1178.22 2173.02 1176.37 2171.88 1175.43Z" stroke="#0684A2" stroke-width="4.58333" stroke-miterlimit="8" fill="#0BB5DD" fill-rule="evenodd"/><path d="M2164.5 1147C2164.5 1134.02 2175.02 1123.5 2188 1123.5 2200.98 1123.5 2211.5 1134.02 2211.5 1147 2211.5 1159.98 2200.98 1170.5 2188 1170.5 2175.02 1170.5 2164.5 1159.98 2164.5 1147Z" stroke="#0684A2" stroke-width="4.58333" stroke-miterlimit="8" fill="#0BB5DD" fill-rule="evenodd"/><g><g><g><path d="M44.748 17.2823C43.6709 16.8907 38.9709 15.4219 35.2501 15.4219 32.1657 15.4219 25.1157 16.9886 23.5 17.3313 21.8844 16.9886 14.8344 15.4219 11.75 15.4219 8.07814 15.4219 3.37813 16.8907 2.25209 17.2823 2.10521 17.3313 1.95834 17.4782 1.95834 17.674L1.95834 19.6813C1.95834 20.024 2.05625 20.4157 2.35 20.6115L2.93751 21.1011C2.98646 23.0594 3.23126 25.9969 4.11251 27.4167 5.23855 29.3751 8.7146 31.5782 12.2396 31.5782 18.4573 31.5782 21.3948 26.8782 22.4719 22.5698 22.5698 22.1292 23.0105 21.7865 23.5 21.7865 23.9896 21.7865 24.3813 22.1292 24.5282 22.5698 25.6542 26.8782 28.5917 31.5782 34.7605 31.5782 38.2855 31.5782 41.7615 29.3751 42.8876 27.4167 43.7199 25.948 43.9647 23.0594 44.0626 21.1011L44.6501 20.6605C44.9438 20.4646 45.0418 20.024 45.0418 19.7302L45.0418 17.723C44.9928 17.4782 44.8949 17.3313 44.748 17.2823ZM19.5344 22.1782C18.7021 25.1157 17.4782 29.1303 12.2396 29.1303 9.98752 29.1303 7.5396 28.0532 6.51147 26.4865 5.82605 25.4094 5.87501 22.8146 5.87501 20.5625 5.87501 19.8771 6.31564 19.2896 7.00106 19.0938 8.46981 18.7021 10.2323 18.3594 11.75 18.3594 12.925 18.3594 15.275 18.7021 17.5761 19.1427 18.9959 19.3875 19.9261 20.8073 19.5344 22.1782ZM40.4886 26.4865C39.4605 28.0532 37.0126 29.1303 34.7605 29.1303 29.5709 29.1303 28.298 25.1157 27.4657 22.1782 27.074 20.8073 28.0042 19.3875 29.3751 19.1427 31.6761 18.7021 34.0261 18.3594 35.2011 18.3594 36.7678 18.3594 38.4813 18.7021 39.9501 19.0938 40.6355 19.2896 41.0761 19.8771 41.0761 20.5625 41.1251 22.8146 41.174 25.4094 40.4886 26.4865Z" stroke="#0888A6" stroke-width="0.489584" fill="#FFFFFF" transform="matrix(1.08511 0 0 1 2162 1124)"/></g></g></g><path d="M2191 1179.64 2192.67 1174.64 2182.67 1174.64 2184.33 1179.64Z" stroke="#0684A2" stroke-width="4.58333" stroke-miterlimit="8" fill="#0BB5DD" fill-rule="evenodd"/><path d="M2192.5 1204.7 2190.83 1181.5 2184.17 1181.5 2182.5 1204.7 2187.5 1209.5 2192.5 1204.7Z" stroke="#0684A2" stroke-width="4.58333" stroke-miterlimit="8" fill="#0BB5DD" fill-rule="evenodd"/><path d="M2207 1195 2207 1206.93" stroke="#0888A6" stroke-width="13.75" stroke-linecap="round" stroke-miterlimit="8" fill="none" fill-rule="evenodd"/><path d="M2211 1197 2211 1208.93" stroke="#0888A6" stroke-width="13.75" stroke-linecap="round" stroke-miterlimit="8" fill="none" fill-rule="evenodd"/><path d="M2211.2 1211.5 2208.8 1211.5C2205.32 1211.5 2202.5 1208.78 2202.5 1205.42L2202.5 1200.5 2217.5 1200.5 2217.5 1205.42C2217.5 1208.78 2214.68 1211.5 2211.2 1211.5Z" stroke="#0684A2" stroke-width="4.58333" stroke-miterlimit="8" fill="#0BB5DD" fill-rule="evenodd"/><path d="M2314.5 1291.5C2314.5 1253.94 2344.94 1223.5 2382.5 1223.5 2420.06 1223.5 2450.5 1253.94 2450.5 1291.5 2450.5 1329.06 2420.06 1359.5 2382.5 1359.5 2344.94 1359.5 2314.5 1329.06 2314.5 1291.5Z" stroke="#2D3E50" stroke-width="4.52776" stroke-linecap="round" stroke-linejoin="round" stroke-miterlimit="10" fill="#CAF3FC" fill-rule="evenodd"/><path d="M2363.88 1287.43C2362.74 1286.48 2362.19 1285.71 2359.39 1288.01 2356.59 1290.32 2350.53 1296.26 2347.08 1301.26 2343.63 1306.26 2340.14 1313.89 2338.68 1318.01 2337.21 1322.13 2337.15 1323.66 2338.29 1326 2339.43 1328.33 2341.28 1329.47 2345.52 1332.04 2349.75 1334.6 2363.68 1341.39 2363.68 1341.39 2369.02 1344.08 2373.39 1347.43 2377.55 1348.2 2381.72 1348.98 2383.58 1348.2 2388.69 1346.06 2393.8 1343.92 2402.65 1338.5 2408.22 1335.35 2413.79 1332.2 2419.45 1329.76 2422.09 1327.17 2424.73 1324.57 2424.89 1322.75 2424.04 1319.76 2423.2 1316.78 2422.51 1313.92 2419.36 1309.24 2416.2 1304.57 2408.81 1295.38 2405.1 1291.71 2401.38 1288.04 2399.33 1286.03 2397.09 1287.23 2394.84 1288.43 2394.03 1293.95 2391.62 1298.92 2389.21 1303.89 2384.72 1313.72 2382.63 1317.04 2380.55 1320.35 2380.84 1320.35 2379.12 1318.79 2377.39 1317.23 2374.62 1312.23 2372.28 1307.69 2369.93 1303.14 2367.43 1297.1 2366.22 1293.66 2365.02 1290.22 2365.02 1288.37 2363.88 1287.43Z" stroke="#0684A2" stroke-width="4.58333" stroke-miterlimit="8" fill="#0BB5DD" fill-rule="evenodd"/><path d="M2357.5 1259C2357.5 1246.02 2368.02 1235.5 2381 1235.5 2393.98 1235.5 2404.5 1246.02 2404.5 1259 2404.5 1271.98 2393.98 1282.5 2381 1282.5 2368.02 1282.5 2357.5 1271.98 2357.5 1259Z" stroke="#0684A2" stroke-width="4.58333" stroke-miterlimit="8" fill="#0BB5DD" fill-rule="evenodd"/><g><g><g><path d="M44.7477 17.2822C43.6706 16.8905 38.9706 15.4218 35.2498 15.4218 32.1654 15.4218 25.1155 16.9884 23.4999 17.3312 21.8843 16.9884 14.8343 15.4218 11.7499 15.4218 8.07808 15.4218 3.37811 16.8905 2.25207 17.2822 2.1052 17.3312 1.95832 17.478 1.95832 17.6739L1.95832 19.6811C1.95832 20.0238 2.05624 20.4155 2.34999 20.6113L2.93748 21.1009C2.98644 23.0592 3.23123 25.9967 4.11248 27.4165 5.23851 29.3748 8.71453 31.5779 12.2395 31.5779 18.4572 31.5779 21.3947 26.878 22.4718 22.5697 22.5697 22.129 23.0103 21.7863 23.4999 21.7863 23.9894 21.7863 24.3811 22.129 24.528 22.5697 25.654 26.878 28.5915 31.5779 34.7602 31.5779 38.2852 31.5779 41.7612 29.3748 42.8873 27.4165 43.7196 25.9478 43.9643 23.0592 44.0623 21.1009L44.6497 20.6603C44.9435 20.4645 45.0414 20.0238 45.0414 19.7301L45.0414 17.7228C44.9925 17.478 44.8945 17.3312 44.7477 17.2822ZM19.5343 22.178C18.702 25.1155 17.478 29.13 12.2395 29.13 9.98744 29.13 7.53954 28.053 6.51142 26.4863 5.82601 25.4092 5.87497 22.8145 5.87497 20.5624 5.87497 19.877 6.31559 19.2895 7.001 19.0936 8.46974 18.702 10.2322 18.3593 11.7499 18.3593 12.9249 18.3593 15.2749 18.702 17.5759 19.1426 18.9957 19.3874 19.9259 20.8072 19.5343 22.178ZM40.4883 26.4863C39.4602 28.053 37.0123 29.13 34.7602 29.13 29.5707 29.13 28.2978 25.1155 27.4655 22.178 27.0738 20.8072 28.004 19.3874 29.3748 19.1426 31.6759 18.702 34.0259 18.3593 35.2008 18.3593 36.7675 18.3593 38.481 18.702 39.9498 19.0936 40.6352 19.2895 41.0758 19.877 41.0758 20.5624 41.1248 22.8145 41.1737 25.4092 40.4883 26.4863Z" stroke="#0888A6" stroke-width="0.489581" fill="#FFFFFF" transform="matrix(1.06383 0 0 1 2355 1236)"/></g></g></g><path d="M2383 1291.64 2384.67 1286.64 2374.67 1286.64 2376.33 1291.64Z" stroke="#0684A2" stroke-width="4.58333" stroke-miterlimit="8" fill="#0BB5DD" fill-rule="evenodd"/><path d="M2385.5 1316.7 2383.83 1293.5 2377.17 1293.5 2375.5 1316.7 2380.5 1321.5 2385.5 1316.7Z" stroke="#0684A2" stroke-width="4.58333" stroke-miterlimit="8" fill="#0BB5DD" fill-rule="evenodd"/><path d="M2400 1307 2400 1318.93" stroke="#0888A6" stroke-width="13.75" stroke-linecap="round" stroke-miterlimit="8" fill="none" fill-rule="evenodd"/><path d="M2403 1308 2403 1319.93" stroke="#0888A6" stroke-width="13.75" stroke-linecap="round" stroke-miterlimit="8" fill="none" fill-rule="evenodd"/><path d="M2404.2 1323.5 2401.8 1323.5C2398.32 1323.5 2395.5 1320.53 2395.5 1316.86L2395.5 1311.5 2410.5 1311.5 2410.5 1316.86C2410.5 1320.53 2407.68 1323.5 2404.2 1323.5Z" stroke="#0684A2" stroke-width="4.58333" stroke-miterlimit="8" fill="#0BB5DD" fill-rule="evenodd"/><path d="M2319.5 1464.5C2319.5 1426.94 2349.94 1396.5 2387.5 1396.5 2425.06 1396.5 2455.5 1426.94 2455.5 1464.5 2455.5 1502.06 2425.06 1532.5 2387.5 1532.5 2349.94 1532.5 2319.5 1502.06 2319.5 1464.5Z" stroke="#2D3E50" stroke-width="4.52776" stroke-linecap="round" stroke-linejoin="round" stroke-miterlimit="10" fill="#CAF3FC" fill-rule="evenodd"/><path d="M2368.88 1460.43C2367.74 1459.48 2367.19 1458.71 2364.39 1461.01 2361.59 1463.32 2355.53 1469.26 2352.08 1474.26 2348.63 1479.26 2345.14 1486.89 2343.68 1491.01 2342.21 1495.13 2342.15 1496.66 2343.29 1499 2344.43 1501.33 2346.28 1502.47 2350.52 1505.04 2354.75 1507.6 2368.68 1514.39 2368.68 1514.39 2374.02 1517.08 2378.39 1520.43 2382.55 1521.2 2386.72 1521.98 2388.58 1521.2 2393.69 1519.06 2398.8 1516.92 2407.65 1511.5 2413.22 1508.35 2418.79 1505.2 2424.45 1502.76 2427.09 1500.17 2429.73 1497.57 2429.89 1495.75 2429.04 1492.76 2428.2 1489.78 2427.51 1486.92 2424.36 1482.24 2421.2 1477.57 2413.81 1468.38 2410.1 1464.71 2406.38 1461.04 2404.33 1459.03 2402.09 1460.23 2399.84 1461.43 2399.03 1466.95 2396.62 1471.92 2394.21 1476.89 2389.72 1486.72 2387.63 1490.04 2385.55 1493.35 2385.84 1493.35 2384.12 1491.79 2382.39 1490.23 2379.62 1485.23 2377.28 1480.69 2374.93 1476.14 2372.43 1470.1 2371.22 1466.66 2370.02 1463.22 2370.02 1461.37 2368.88 1460.43Z" stroke="#0684A2" stroke-width="4.58333" stroke-miterlimit="8" fill="#0BB5DD" fill-rule="evenodd"/><path d="M2361.5 1432.5C2361.5 1419.25 2372.25 1408.5 2385.5 1408.5 2398.75 1408.5 2409.5 1419.25 2409.5 1432.5 2409.5 1445.75 2398.75 1456.5 2385.5 1456.5 2372.25 1456.5 2361.5 1445.75 2361.5 1432.5Z" stroke="#0684A2" stroke-width="4.58333" stroke-miterlimit="8" fill="#0BB5DD" fill-rule="evenodd"/><g><g><g><path d="M44.748 17.2823C43.6709 16.8907 38.9709 15.4219 35.2501 15.4219 32.1657 15.4219 25.1157 16.9886 23.5 17.3313 21.8844 16.9886 14.8344 15.4219 11.75 15.4219 8.07814 15.4219 3.37813 16.8907 2.25209 17.2823 2.10521 17.3313 1.95834 17.4782 1.95834 17.674L1.95834 19.6813C1.95834 20.024 2.05625 20.4157 2.35 20.6115L2.93751 21.1011C2.98646 23.0594 3.23126 25.9969 4.11251 27.4167 5.23855 29.3751 8.7146 31.5782 12.2396 31.5782 18.4573 31.5782 21.3948 26.8782 22.4719 22.5698 22.5698 22.1292 23.0105 21.7865 23.5 21.7865 23.9896 21.7865 24.3813 22.1292 24.5282 22.5698 25.6542 26.8782 28.5917 31.5782 34.7605 31.5782 38.2855 31.5782 41.7615 29.3751 42.8876 27.4167 43.7199 25.948 43.9647 23.0594 44.0626 21.1011L44.6501 20.6605C44.9438 20.4646 45.0418 20.024 45.0418 19.7302L45.0418 17.723C44.9928 17.4782 44.8949 17.3313 44.748 17.2823ZM19.5344 22.1782C18.7021 25.1157 17.4782 29.1303 12.2396 29.1303 9.98752 29.1303 7.5396 28.0532 6.51147 26.4865 5.82605 25.4094 5.87501 22.8146 5.87501 20.5625 5.87501 19.8771 6.31564 19.2896 7.00106 19.0938 8.46981 18.7021 10.2323 18.3594 11.75 18.3594 12.925 18.3594 15.275 18.7021 17.5761 19.1427 18.9959 19.3875 19.9261 20.8073 19.5344 22.1782ZM40.4886 26.4865C39.4605 28.0532 37.0126 29.1303 34.7605 29.1303 29.5709 29.1303 28.298 25.1157 27.4657 22.1782 27.074 20.8073 28.0042 19.3875 29.3751 19.1427 31.6761 18.7021 34.0261 18.3594 35.2011 18.3594 36.7678 18.3594 38.4813 18.7021 39.9501 19.0938 40.6355 19.2896 41.0761 19.8771 41.0761 20.5625 41.1251 22.8146 41.174 25.4094 40.4886 26.4865Z" stroke="#0888A6" stroke-width="0.489584" fill="#FFFFFF" transform="matrix(1.0851 0 0 1 2359 1409)"/></g></g></g><path d="M2388 1464.64 2389.67 1459.64 2379.67 1459.64 2381.33 1464.64Z" stroke="#0684A2" stroke-width="4.58333" stroke-miterlimit="8" fill="#0BB5DD" fill-rule="evenodd"/><path d="M2389.5 1489.87 2387.83 1467.5 2381.17 1467.5 2379.5 1489.87 2384.5 1494.5 2389.5 1489.87Z" stroke="#0684A2" stroke-width="4.58333" stroke-miterlimit="8" fill="#0BB5DD" fill-rule="evenodd"/><path d="M2405 1480 2405 1491.93" stroke="#0888A6" stroke-width="13.75" stroke-linecap="round" stroke-miterlimit="8" fill="none" fill-rule="evenodd"/><path d="M2408 1482 2408 1493.93" stroke="#0888A6" stroke-width="13.75" stroke-linecap="round" stroke-miterlimit="8" fill="none" fill-rule="evenodd"/><path d="M2409.2 1496.5 2406.8 1496.5C2403.32 1496.5 2400.5 1493.78 2400.5 1490.42L2400.5 1485.5 2415.5 1485.5 2415.5 1490.42C2415.5 1493.78 2412.68 1496.5 2409.2 1496.5Z" stroke="#0684A2" stroke-width="4.58333" stroke-miterlimit="8" fill="#0BB5DD" fill-rule="evenodd"/></g></svg>