<svg width="2584" height="1194" xmlns="http://www.w3.org/2000/svg" xmlns:xlink="http://www.w3.org/1999/xlink" xml:space="preserve" overflow="hidden"><defs><clipPath id="clip0"><rect x="827" y="625" width="2584" height="1194"/></clipPath></defs><g clip-path="url(#clip0)" transform="translate(-827 -625)"><path d="M1514.5 1169.5C1514.5 870.161 1757.16 627.5 2056.5 627.5 2355.84 627.5 2598.5 870.161 2598.5 1169.5 2598.5 1468.84 2355.84 1711.5 2056.5 1711.5 1757.16 1711.5 1514.5 1468.84 1514.5 1169.5Z" stroke="#2D3E50" stroke-width="4.58333" stroke-miterlimit="8" fill="#C6D99F" fill-rule="evenodd"/><path d="M2233.43 842.782 2166.8 938.127C2157.74 951.094 2156.49 966.685 2161.61 980.479L2138.16 1014.04C2101.28 994.515 2057.17 986.965 2013.12 994.776 1906.21 1013.73 1834.25 1116.7 1853.21 1223.6 1872.16 1330.51 1975.13 1402.46 2082.03 1383.51 2188.94 1364.56 2260.9 1261.59 2241.94 1154.69 2234.13 1110.63 2212 1072.45 2180.87 1043.89L2204.32 1010.33C2219.04 1010.39 2233.25 1003.86 2242.31 990.898L2308.94 895.552C2316.4 884.874 2318.87 872.408 2316.8 860.746 2314.73 849.084 2308.13 838.225 2297.45 830.763 2276.33 817.134 2247.82 822.188 2233.43 842.782ZM2202.54 1162.34C2217.7 1247.86 2160.13 1330.24 2074.61 1345.4 1989.09 1360.56 1906.71 1303 1891.55 1217.47 1876.39 1131.95 1933.95 1049.57 2019.48 1034.41 2105 1019.25 2187.38 1076.82 2202.54 1162.34Z" stroke="#1FC2A7" stroke-width="13.75" stroke-linecap="round" stroke-miterlimit="8" fill="none" fill-rule="evenodd"/><path d="M1768 1219C1768 1076.51 1883.29 961 2025.5 961 2167.71 961 2283 1076.51 2283 1219 2283 1361.49 2167.71 1477 2025.5 1477 1883.29 1477 1768 1361.49 1768 1219Z" fill="#C6D99F" fill-rule="evenodd"/><path d="M2050.39 1377.12C1943.62 1378.98 1855.56 1293.93 1853.71 1187.16 1851.85 1080.39 1936.9 992.338 2043.67 990.483 2150.44 988.627 2238.49 1073.68 2240.35 1180.44 2240.43 1185.29 2240.33 1190.14 2240.05 1194.98" stroke="#1FC2A7" stroke-width="13.75" stroke-linecap="round" stroke-miterlimit="8" fill="none" fill-rule="evenodd"/><rect x="2078.5" y="1312.5" width="65" height="134" stroke="#2D3E50" stroke-width="4.58333" stroke-miterlimit="8" fill="#1FC2A7"/><rect x="2156.5" y="1278.5" width="65.0002" height="168" stroke="#2D3E50" stroke-width="4.58333" stroke-miterlimit="8" fill="#1FC2A7"/><rect x="2234.5" y="1243.5" width="65" height="203" stroke="#2D3E50" stroke-width="4.58333" stroke-miterlimit="8" fill="#1FC2A7"/><path d="M0 0 38.5978 42.656" stroke="#1FC2A7" stroke-width="13.75" stroke-linecap="round" stroke-miterlimit="8" fill="none" fill-rule="evenodd" transform="matrix(1 0 0 -1 2239 1205.66)"/><path d="M0 0 38.5978 42.656" stroke="#1FC2A7" stroke-width="13.75" stroke-linecap="round" stroke-miterlimit="8" fill="none" fill-rule="evenodd" transform="matrix(-1.83697e-16 -1 -1 1.83697e-16 2236.66 1204.6)"/><path d="M1965.5 1228.18C1956.78 1212.98 1956.71 1179.24 1966.05 1159.05 1975.38 1138.87 1992.73 1110.49 2041 1109.79 2057.76 1109.55 2082.35 1105.66 2098.13 1101.86 2113.91 1098.06 2128.69 1086.76 2135.67 1087 2142.66 1087.25 2141.17 1093.73 2140.04 1103.31 2138.91 1112.9 2133.79 1132.24 2128.9 1144.5 2124 1156.76 2110.57 1192.42 2100.41 1208.7 2090.25 1224.98 2081.63 1235.26 2067.96 1242.19 2054.28 1249.12 2035.44 1252.61 2018.37 1250.28 2001.29 1247.94 1974.22 1243.38 1965.5 1228.18Z" stroke="#2D3E50" stroke-width="13.75" stroke-linecap="round" stroke-miterlimit="8" fill="none" fill-rule="evenodd"/><path d="M1947 1276C1955.15 1240.64 1963.3 1205.27 2035 1182" stroke="#2D3E50" stroke-width="13.75" stroke-linecap="round" stroke-miterlimit="8" fill="none" fill-rule="evenodd"/><rect x="1739.5" y="961.5" width="90.0001" height="40.9999" stroke="#2D3E50" stroke-width="4.58333" stroke-miterlimit="8" fill="#1FC2A7"/><path d="M1829 982 1900.21 982" stroke="#2D3E50" stroke-width="2.29167" stroke-miterlimit="8" fill="none" fill-rule="evenodd"/><path d="M1900 982 1930.08 1104.33" stroke="#2D3E50" stroke-width="2.29167" stroke-miterlimit="8" fill="none" fill-rule="evenodd"/><rect x="1805.5" y="1372.5" width="90.0001" height="39.9999" stroke="#2D3E50" stroke-width="4.58333" stroke-miterlimit="8" fill="#1FC2A7"/><path d="M1895 1392 1959.05 1392" stroke="#2D3E50" stroke-width="2.29167" stroke-miterlimit="8" fill="none" fill-rule="evenodd"/><path d="M0 0 30.0847 122.327" stroke="#2D3E50" stroke-width="2.29167" stroke-miterlimit="8" fill="none" fill-rule="evenodd" transform="matrix(1 0 0 -1 1959 1393.33)"/><rect x="2285.5" y="1040.5" width="89" height="39.9999" stroke="#2D3E50" stroke-width="4.58333" stroke-miterlimit="8" fill="#1FC2A7"/><path d="M2237 1060 2283.78 1060" stroke="#2D3E50" stroke-width="2.29167" stroke-miterlimit="8" fill="none" fill-rule="evenodd"/><path d="M0 0 131.892 70.2412" stroke="#2D3E50" stroke-width="2.29167" stroke-miterlimit="8" fill="none" fill-rule="evenodd" transform="matrix(1 0 0 -1 2106 1130.24)"/><path d="M2881.5 1140C2881.5 994.473 2999.47 876.5 3145 876.5 3290.53 876.5 3408.5 994.473 3408.5 1140 3408.5 1285.53 3290.53 1403.5 3145 1403.5 2999.47 1403.5 2881.5 1285.53 2881.5 1140Z" stroke="#2D3E50" stroke-width="4.58333" stroke-miterlimit="8" fill="#1FC2A7" fill-rule="evenodd"/><g><g><g><path d="M168.667 79.0625C168.667 102.351 149.788 121.229 126.5 121.229 103.212 121.229 84.3333 102.351 84.3333 79.0625 84.3333 55.7745 103.212 36.8958 126.5 36.8958 149.788 36.8958 168.667 55.7745 168.667 79.0625Z" fill="#2D3E50" transform="matrix(-1 0 0 1 3170 979)"/><path d="M210.833 216.104 210.833 173.938C210.833 167.613 207.671 161.288 202.4 157.071 190.804 147.583 176.046 141.258 161.288 137.042 150.746 133.879 139.15 131.771 126.5 131.771 114.904 131.771 103.308 133.879 91.7125 137.042 76.9542 141.258 62.1958 148.638 50.6 157.071 45.3292 161.288 42.1667 167.613 42.1667 173.938L42.1667 216.104 210.833 216.104Z" fill="#2D3E50" transform="matrix(-1 0 0 1 3170 979)"/></g></g></g><g><g><g><path d="M168.667 79.0625C168.667 102.351 149.788 121.229 126.5 121.229 103.212 121.229 84.3333 102.351 84.3333 79.0625 84.3333 55.7745 103.212 36.8958 126.5 36.8958 149.788 36.8958 168.667 55.7745 168.667 79.0625Z" fill="#2D3E50" transform="matrix(-1 0 0 1 3395 979)"/><path d="M80.6438 215.05 63.25 175.782 63.25 149.165C63.25 146.002 65.0948 142.84 67.7302 141.258 69.3115 140.468 69.8385 138.623 69.0479 137.305 68.5208 136.251 67.4667 135.46 66.149 135.724L36.1052 135.724C34.524 135.724 32.9427 136.778 32.9427 138.623 32.9427 139.941 33.4698 140.995 34.524 141.522 37.4229 143.103 39.0042 146.266 39.0042 149.428L39.0042 176.046 21.874 215.05C19.7656 219.53 21.874 225.065 26.6177 226.909 27.6719 227.436 28.9896 227.7 30.3073 227.7L72.474 227.7C77.4813 227.7 81.4344 223.747 81.4344 218.74 81.4344 217.422 81.1708 216.104 80.6438 215.05L80.6438 215.05ZM45.3292 155.226 45.3292 149.165C45.3292 146.529 44.8021 143.894 43.2208 141.522L59.2969 141.522C57.9792 143.894 57.1885 146.529 57.1885 149.165L57.1885 155.226 45.3292 155.226Z" fill="#2D3E50" transform="matrix(-1 0 0 1 3395 979)"/><path d="M58.7698 99.3552C58.7698 101.83 56.7639 103.835 54.2896 103.835 51.8152 103.835 49.8094 101.83 49.8094 99.3552 49.8094 96.8809 51.8152 94.875 54.2896 94.875 56.7639 94.875 58.7698 96.8809 58.7698 99.3552Z" fill="#2D3E50" transform="matrix(-1 0 0 1 3395 979)"/><path d="M66.4125 113.059C66.4125 115.534 64.4066 117.54 61.9323 117.54 59.4579 117.54 57.4521 115.534 57.4521 113.059 57.4521 110.585 59.4579 108.579 61.9323 108.579 64.4066 108.579 66.4125 110.585 66.4125 113.059Z" fill="#2D3E50" transform="matrix(-1 0 0 1 3395 979)"/><path d="M49.8094 109.897C49.8094 112.371 47.8035 114.377 45.3292 114.377 42.8548 114.377 40.849 112.371 40.849 109.897 40.849 107.423 42.8548 105.417 45.3292 105.417 47.8035 105.417 49.8094 107.423 49.8094 109.897Z" fill="#2D3E50" transform="matrix(-1 0 0 1 3395 979)"/><path d="M54.2896 126.5C54.2896 129.848 51.5758 132.561 48.2281 132.561 44.8805 132.561 42.1667 129.848 42.1667 126.5 42.1667 123.152 44.8805 120.439 48.2281 120.439 51.5758 120.439 54.2896 123.152 54.2896 126.5Z" fill="#2D3E50" transform="matrix(-1 0 0 1 3395 979)"/><path d="M113.323 192.122 94.3479 172.093 104.89 158.916 104.89 158.652 88.8135 160.233 89.3406 137.832C83.0156 139.941 76.6906 142.312 70.6292 145.211 69.575 146.266 68.7844 147.847 68.5208 149.428L68.5208 174.728 85.3875 212.942C85.9146 213.996 86.1781 215.05 86.4417 216.104L113.323 216.104 113.323 192.122Z" fill="#2D3E50" transform="matrix(-1 0 0 1 3395 979)"/><path d="M118.594 189.75 118.594 216.104 134.406 216.104 134.406 189.75 153.381 134.933C144.421 132.825 135.46 131.771 126.5 131.771 117.54 131.771 108.579 132.825 99.8823 134.933L118.594 189.75Z" fill="#2D3E50" transform="matrix(-1 0 0 1 3395 979)"/><path d="M202.4 157.071C190.804 148.11 177.627 141.785 163.659 137.832L164.186 160.233 148.11 158.652 148.11 158.916 158.652 172.093 139.677 192.122 139.677 216.104 210.833 216.104 210.833 173.938C210.57 167.349 207.671 161.024 202.4 157.071Z" fill="#2D3E50" transform="matrix(-1 0 0 1 3395 979)"/></g></g></g><g><g><g><path d="M184.667 86.5625C184.667 112.06 163.997 132.729 138.5 132.729 113.003 132.729 92.3334 112.06 92.3334 86.5625 92.3334 61.0654 113.003 40.3958 138.5 40.3958 163.997 40.3958 184.667 61.0654 184.667 86.5625Z" fill="#2D3E50" transform="matrix(-1 0 0 1 3279 1024)"/><path d="M230.833 236.604 230.833 190.438C230.833 183.513 227.371 176.588 221.6 171.971 208.904 161.583 192.746 154.658 176.588 150.042 165.046 146.579 152.35 144.271 138.5 144.271 125.804 144.271 113.108 146.579 100.413 150.042 84.2542 154.658 68.0959 162.738 55.4 171.971 49.6292 176.588 46.1667 183.513 46.1667 190.438L46.1667 236.604 230.833 236.604Z" fill="#2D3E50" transform="matrix(-1 0 0 1 3279 1024)"/></g></g></g><path d="M829.5 1148.5C829.5 1034.73 921.729 942.5 1035.5 942.5 1149.27 942.5 1241.5 1034.73 1241.5 1148.5 1241.5 1262.27 1149.27 1354.5 1035.5 1354.5 921.729 1354.5 829.5 1262.27 829.5 1148.5Z" stroke="#2D3E50" stroke-width="4.58333" stroke-miterlimit="8" fill="#1FC2A7" fill-rule="evenodd"/><g><g><g><path d="M196 91.875C196 118.937 174.062 140.875 147 140.875 119.938 140.875 98 118.937 98 91.875 98 64.813 119.938 42.875 147 42.875 174.062 42.875 196 64.813 196 91.875Z" fill="#2D3E50" transform="matrix(-1 0 0 1 1175 993)"/><path d="M93.7125 249.9 73.5 204.269 73.5 173.337C73.5 169.662 75.6437 165.987 78.7062 164.15 80.5437 163.231 81.1562 161.087 80.2375 159.556 79.625 158.331 78.4 157.412 76.8687 157.719L41.9562 157.719C40.1187 157.719 38.2812 158.944 38.2812 161.087 38.2812 162.619 38.8937 163.844 40.1187 164.456 43.4875 166.294 45.325 169.969 45.325 173.644L45.325 204.575 25.4187 249.9C22.9687 255.106 25.4187 261.537 30.9312 263.681 32.1562 264.294 33.6875 264.6 35.2187 264.6L84.2187 264.6C90.0375 264.6 94.6312 260.006 94.6312 254.187 94.6312 252.656 94.325 251.125 93.7125 249.9L93.7125 249.9ZM52.675 180.381 52.675 173.337C52.675 170.275 52.0625 167.212 50.225 164.456L68.9062 164.456C67.375 167.212 66.4562 170.275 66.4562 173.337L66.4562 180.381 52.675 180.381Z" fill="#2D3E50" transform="matrix(-1 0 0 1 1175 993)"/><path d="M68.2937 115.456C68.2937 118.332 65.9628 120.662 63.0875 120.662 60.2121 120.662 57.8812 118.332 57.8812 115.456 57.8812 112.581 60.2121 110.25 63.0875 110.25 65.9628 110.25 68.2937 112.581 68.2937 115.456Z" fill="#2D3E50" transform="matrix(-1 0 0 1 1175 993)"/><path d="M77.175 131.381C77.175 134.257 74.8441 136.587 71.9687 136.587 69.0934 136.587 66.7625 134.257 66.7625 131.381 66.7625 128.506 69.0934 126.175 71.9687 126.175 74.8441 126.175 77.175 128.506 77.175 131.381Z" fill="#2D3E50" transform="matrix(-1 0 0 1 1175 993)"/><path d="M57.8812 127.706C57.8812 130.582 55.5503 132.912 52.675 132.912 49.7996 132.912 47.4687 130.582 47.4687 127.706 47.4687 124.831 49.7996 122.5 52.675 122.5 55.5503 122.5 57.8812 124.831 57.8812 127.706Z" fill="#2D3E50" transform="matrix(-1 0 0 1 1175 993)"/><path d="M63.0875 147C63.0875 150.89 59.9339 154.044 56.0437 154.044 52.1536 154.044 49 150.89 49 147 49 143.11 52.1536 139.956 56.0437 139.956 59.9339 139.956 63.0875 143.11 63.0875 147Z" fill="#2D3E50" transform="matrix(-1 0 0 1 1175 993)"/><path d="M131.687 223.256 109.637 199.981 121.887 184.669 121.887 184.362 103.206 186.2 103.819 160.169C96.4687 162.619 89.1187 165.375 82.075 168.744 80.85 169.969 79.9312 171.806 79.625 173.644L79.625 203.044 99.225 247.45C99.8375 248.675 100.144 249.9 100.45 251.125L131.687 251.125 131.687 223.256Z" fill="#2D3E50" transform="matrix(-1 0 0 1 1175 993)"/><path d="M137.812 220.5 137.812 251.125 156.187 251.125 156.187 220.5 178.237 156.8C167.825 154.35 157.412 153.125 147 153.125 136.587 153.125 126.175 154.35 116.069 156.8L137.812 220.5Z" fill="#2D3E50" transform="matrix(-1 0 0 1 1175 993)"/><path d="M235.2 182.525C221.725 172.112 206.412 164.762 190.181 160.169L190.794 186.2 172.112 184.362 172.112 184.669 184.362 199.981 162.312 223.256 162.312 251.125 245 251.125 245 202.125C244.694 194.469 241.325 187.119 235.2 182.525Z" fill="#2D3E50" transform="matrix(-1 0 0 1 1175 993)"/></g></g></g><path d="M1438.5 1077 1605.5 1077 1605.5 1049.5 1660.5 1104.5 1605.5 1159.5 1605.5 1132 1438.5 1132Z" stroke="#1E2B38" stroke-width="4.58333" stroke-miterlimit="8" fill="#2D3E50" fill-rule="evenodd"/><path d="M1583.5 1230 1416.5 1230 1416.5 1257.5 1361.5 1202.5 1416.5 1147.5 1416.5 1175 1583.5 1175Z" stroke="#1E2B38" stroke-width="4.58333" stroke-miterlimit="8" fill="#2D3E50" fill-rule="evenodd"/><path d="M2530.5 1079.75 2697 1079.75 2697 1052.5 2751.5 1107 2697 1161.5 2697 1134.25 2530.5 1134.25Z" stroke="#1E2B38" stroke-width="4.58333" stroke-miterlimit="8" fill="#2D3E50" fill-rule="evenodd"/><path d="M2674.5 1233 2508.5 1233 2508.5 1260.5 2453.5 1205.5 2508.5 1150.5 2508.5 1178 2674.5 1178Z" stroke="#1E2B38" stroke-width="4.58333" stroke-miterlimit="8" fill="#2D3E50" fill-rule="evenodd"/><path d="M2726.85 1583.98C2712.37 1583.98 2701.59 1591.07 2701.59 1608.14 2701.59 1621 2708.7 1629.93 2726.07 1629.93 2740.79 1629.93 2750.8 1621.27 2750.8 1607.61 2750.8 1592.13 2741.85 1583.98 2726.85 1583.98ZM2697.9 1704.5C2694.47 1708.7 2691.05 1713.16 2691.05 1718.42 2691.05 1728.91 2704.47 1732.07 2722.89 1732.07 2738.16 1732.07 2758.95 1731 2758.95 1716.84 2758.95 1708.43 2748.95 1707.91 2736.3 1707.12L2697.9 1704.5ZM2775.79 1584.77C2780.52 1590.81 2785.52 1599.22 2785.52 1611.29 2785.52 1640.43 2762.63 1657.5 2729.48 1657.5 2721.05 1657.5 2713.42 1656.45 2708.69 1655.14L2700 1669.05 2725.79 1670.63C2771.31 1673.52 2798.15 1674.84 2798.15 1709.74 2798.15 1739.94 2771.58 1757 2725.79 1757 2678.16 1757 2660 1744.92 2660 1724.18 2660 1712.36 2665.26 1706.08 2674.47 1697.4 2665.79 1693.73 2662.9 1687.17 2662.9 1680.08 2662.9 1674.3 2665.79 1669.05 2670.53 1664.06 2675.27 1659.08 2680.53 1654.08 2686.84 1648.31 2673.95 1642.01 2664.21 1628.35 2664.21 1608.92 2664.21 1578.73 2684.21 1558 2724.47 1558 2735.78 1558 2742.63 1559.04 2748.68 1560.62L2800 1560.62 2800 1582.94 2775.79 1584.77" fill="#2D3E50" fill-rule="evenodd"/><path d="M2845.95 1536.85C2830.95 1536.85 2822.27 1528.16 2822.27 1513.15 2822.27 1498.16 2830.95 1490 2845.95 1490 2861.21 1490 2869.9 1498.16 2869.9 1513.15 2869.9 1528.16 2861.21 1536.85 2845.95 1536.85ZM2812 1695 2812 1674.22 2825.43 1672.38C2829.11 1671.85 2829.63 1671.07 2829.63 1667.11L2829.63 1589.74C2829.63 1586.85 2828.85 1585 2826.21 1584.22L2812 1579.21 2814.89 1557.9 2869.37 1557.9 2869.37 1667.11C2869.37 1671.33 2869.62 1671.85 2873.58 1672.38L2887 1674.22 2887 1695 2812 1695" fill="#2D3E50" fill-rule="evenodd"/><path d="M2991 1684.5C2979.74 1690.01 2963.26 1695 2948.33 1695 2917.19 1695 2905.42 1682.4 2905.42 1652.69L2905.42 1583.85C2905.42 1582.28 2905.42 1581.23 2903.32 1581.23L2885 1581.23 2885 1557.84C2908.04 1555.21 2917.19 1543.64 2920.07 1515L2944.93 1515 2944.93 1552.33C2944.93 1554.16 2944.93 1554.95 2947.03 1554.95L2983.93 1554.95 2983.93 1581.22 2944.94 1581.22 2944.94 1644.02C2944.94 1659.53 2948.61 1665.57 2962.73 1665.57 2970.07 1665.57 2977.65 1663.73 2983.93 1661.37L2991 1684.5" fill="#2D3E50" fill-rule="evenodd"/><path d="M2413.64 1437.22C2423.62 1427.23 2439.81 1427.23 2449.79 1437.22L2612.96 1600.39C2622.94 1610.37 2622.94 1626.56 2612.96 1636.54L2446.4 1803.11C2436.41 1813.09 2420.22 1813.09 2410.24 1803.11L2247.07 1639.94C2237.09 1629.96 2237.09 1613.77 2247.07 1603.78Z" fill="#2D3E50" fill-rule="evenodd"/><path d="M2621.63 1606.08 2450.9 1435.37C2441.08 1425.54 2425.14 1425.54 2415.3 1435.37L2379.85 1470.83 2424.82 1515.8C2435.27 1512.27 2447.25 1514.63 2455.58 1522.96 2463.95 1531.35 2466.3 1543.43 2462.69 1553.92L2506.02 1597.26C2516.51 1593.65 2528.61 1595.98 2536.98 1604.37 2548.68 1616.07 2548.68 1635.03 2536.98 1646.74 2525.27 1658.45 2506.31 1658.45 2494.6 1646.74 2485.8 1637.93 2483.62 1625 2488.08 1614.15L2447.66 1573.73 2447.66 1680.1C2450.51 1681.51 2453.2 1683.4 2455.58 1685.77 2467.28 1697.47 2467.28 1716.43 2455.58 1728.15 2443.87 1739.85 2424.9 1739.85 2413.21 1728.15 2401.51 1716.43 2401.51 1697.47 2413.21 1685.77 2416.1 1682.88 2419.45 1680.69 2423.02 1679.23L2423.02 1571.87C2419.45 1570.42 2416.11 1568.25 2413.21 1565.34 2404.34 1556.48 2402.21 1543.47 2406.76 1532.58L2362.43 1488.24 2245.38 1605.3C2235.54 1615.14 2235.54 1631.08 2245.38 1640.92L2416.09 1811.63C2425.92 1821.46 2441.86 1821.46 2451.7 1811.63L2621.63 1641.72C2631.46 1631.88 2631.46 1615.93 2621.63 1606.1" fill="#1FC2A7" fill-rule="evenodd"/></g></svg>