<svg width="6366" height="2122" xmlns="http://www.w3.org/2000/svg" xmlns:xlink="http://www.w3.org/1999/xlink" xml:space="preserve" overflow="hidden"><g transform="translate(983 -144)"><path d="M1558.5 874.5 1697.16 637.5 2680.84 637.5 2819.5 874.5Z" stroke="#FFFFFF" stroke-width="4.58333" stroke-miterlimit="8" fill="#FFFFFF" fill-rule="evenodd"/><path d="M0 0 177.535 261.996" stroke="#2D3E50" stroke-width="57.2917" stroke-linecap="round" stroke-miterlimit="8" fill="none" fill-rule="evenodd" transform="matrix(1 0 0 -1 1538.5 909.496)"/><path d="M1717.5 646.5 1920.03 646.5" stroke="#2D3E50" stroke-width="57.2917" stroke-linecap="round" stroke-miterlimit="8" fill="none" fill-rule="evenodd"/><path d="M2861.03 909.496 2683.5 647.5" stroke="#2D3E50" stroke-width="57.2917" stroke-linecap="round" stroke-miterlimit="8" fill="none" fill-rule="evenodd"/><path d="M0 0 202.528 0.000360892" stroke="#2D3E50" stroke-width="57.2917" stroke-linecap="round" stroke-miterlimit="8" fill="none" fill-rule="evenodd" transform="matrix(-1 0 0 1 2682.03 645.5)"/><path d="M2223.15 306.5 2223.15 719.897 2165.85 719.897 2165.85 306.5ZM2359.74 566.36 2194.5 764.643 2029.26 566.361C2019.14 554.207 2020.78 536.144 2032.93 526.016 2045.09 515.888 2063.15 517.53 2073.28 529.683L2216.51 701.558 2172.49 701.558 2315.72 529.683C2325.85 517.529 2343.91 515.887 2356.07 526.016 2368.22 536.144 2369.86 554.207 2359.74 566.36Z" fill="#2D3E50"/><path d="M1507 917.415C1507 892.885 1526.89 873 1551.41 873L2848.59 873C2873.11 873 2893 892.885 2893 917.415L2893 2059.59C2893 2084.12 2873.11 2104 2848.59 2104L1551.41 2104C1526.89 2104 1507 2084.12 1507 2059.59Z" fill="#2D3E50" fill-rule="evenodd"/><path d="M2484.8 1630 2546 1691.82 2546 1692 2498.84 1692C2490.64 1692 2484 1685.42 2484 1677.31L2484 1630Z" stroke="#FFFFFF" stroke-width="13.75" stroke-linejoin="round" stroke-miterlimit="10" fill="#2D3E50" fill-rule="evenodd"/><path d="M2318 1642.95C2318 1634.74 2324.63 1628.08 2332.82 1628.08L2484.9 1628 2546 1690.57 2545.96 1898.13C2545.96 1906.34 2539.33 1913 2531.15 1913L2332.82 1913C2324.63 1913 2318 1906.34 2318 1898.13L2318 1642.95Z" stroke="#FFFFFF" stroke-width="13.75" stroke-linejoin="round" stroke-miterlimit="10" fill="none" fill-rule="evenodd"/><path d="M2257 1693.9C2257 1685.71 2263.6 1679.08 2271.75 1679.08L2423.17 1679 2484 1741.35 2483.96 1948.18C2483.96 1956.37 2477.36 1963 2469.21 1963L2271.75 1963C2263.6 1963 2257 1956.37 2257 1948.18L2257 1693.9Z" stroke="#FFFFFF" stroke-width="13.75" stroke-linejoin="round" stroke-miterlimit="10" fill="#2D3E50" fill-rule="evenodd"/><path d="M2298 1732 2372.89 1732" stroke="#FFFFFF" stroke-width="13.75" stroke-linecap="round" stroke-miterlimit="8" fill="none" fill-rule="evenodd"/><path d="M2298 1789 2445.5 1789" stroke="#FFFFFF" stroke-width="13.75" stroke-linecap="round" stroke-miterlimit="8" fill="none" fill-rule="evenodd"/><path d="M2298 1904 2422.21 1904" stroke="#FFFFFF" stroke-width="13.75" stroke-linecap="round" stroke-miterlimit="8" fill="none" fill-rule="evenodd"/><path d="M2422.8 1680 2484 1742.82 2484 1743 2436.84 1743C2428.64 1743 2422 1736.32 2422 1728.07L2422 1680Z" stroke="#FFFFFF" stroke-width="13.75" stroke-linejoin="round" stroke-miterlimit="10" fill="#2D3E50" fill-rule="evenodd"/><path d="M2298 1848 2445.5 1848" stroke="#FFFFFF" stroke-width="13.75" stroke-linecap="round" stroke-miterlimit="8" fill="none" fill-rule="evenodd"/><path d="M2200.01 1920.68C2006.25 1924.05 1846.45 1769.71 1843.09 1575.95 1839.72 1382.2 1994.06 1222.4 2187.82 1219.03 2381.57 1215.66 2541.37 1370 2544.74 1563.76 2544.89 1572.56 2544.71 1581.36 2544.21 1590.14" stroke="#FFFFFF" stroke-width="27.5" stroke-linecap="round" stroke-miterlimit="8" fill="none" fill-rule="evenodd"/><path d="M0 0 70.0452 77.41" stroke="#FFFFFF" stroke-width="27.5" stroke-linecap="round" stroke-miterlimit="8" fill="none" fill-rule="evenodd" transform="matrix(1 0 0 -1 2539 1607.41)"/><path d="M0 0 70.0452 77.41" stroke="#FFFFFF" stroke-width="27.5" stroke-linecap="round" stroke-miterlimit="8" fill="none" fill-rule="evenodd" transform="matrix(-1.83697e-16 -1 -1 1.83697e-16 2538.41 1607.05)"/><rect x="1636.5" y="1166.5" width="162" height="73.0002" stroke="#FFFFFF" stroke-width="4.58333" stroke-miterlimit="8" fill="#FFFFFF"/><path d="M1798 1203 1927.22 1203" stroke="#FFFFFF" stroke-width="13.75" stroke-miterlimit="8" fill="none" fill-rule="evenodd"/><path d="M1926 1201 2094.17 1453.3" stroke="#FFFFFF" stroke-width="13.75" stroke-miterlimit="8" fill="none" fill-rule="evenodd"/><rect x="1755.5" y="1911.5" width="163" height="72.9999" stroke="#FFFFFF" stroke-width="4.58333" stroke-miterlimit="8" fill="#FFFFFF"/><path d="M1918 1947 2034.23 1947" stroke="#FFFFFF" stroke-width="13.75" stroke-miterlimit="8" fill="none" fill-rule="evenodd"/><path d="M0 0 88.4876 218.45" stroke="#FFFFFF" stroke-width="13.75" stroke-miterlimit="8" fill="none" fill-rule="evenodd" transform="matrix(1 0 0 -1 2032 1950.45)"/><rect x="2625.5" y="1308.5" width="163" height="72.9999" stroke="#FFFFFF" stroke-width="4.58333" stroke-miterlimit="8" fill="#FFFFFF"/><path d="M2538 1345 2622.9 1345" stroke="#FFFFFF" stroke-width="13.75" stroke-miterlimit="8" fill="none" fill-rule="evenodd"/><path d="M0 0 205.786 135.32" stroke="#FFFFFF" stroke-width="13.75" stroke-miterlimit="8" fill="none" fill-rule="evenodd" transform="matrix(1 0 0 -1 2332 1480.32)"/><path d="M2601.63 915.245C2617.71 915.285 2633.98 919.792 2648.35 929.067 2667.73 942.609 2679.71 962.314 2683.47 983.478 2687.22 1004.64 2682.74 1027.26 2669.2 1046.64L2548.28 1219.67C2531.84 1243.2 2506.05 1255.05 2479.35 1254.93L2461.37 1280.66 2452.71 1272.79C2441.16 1263.26 2429.15 1254.27 2416.71 1245.87L2384.14 1226.08 2401.83 1200.76C2392.54 1175.73 2394.8 1147.44 2411.24 1123.91L2532.16 950.878C2548.48 927.52 2574.81 915.178 2601.63 915.245Z" stroke="#FFFFFF" stroke-width="27.5" stroke-linecap="round" stroke-miterlimit="8" fill="none" fill-rule="evenodd"/></g></svg>