<svg width="3893" height="1379" xmlns="http://www.w3.org/2000/svg" xmlns:xlink="http://www.w3.org/1999/xlink" xml:space="preserve" overflow="hidden"><g transform="translate(-281 -499)"><text fill="#CAF3FC" font-family="Calibri,Calibri_MSFontService,sans-serif" font-weight="400" font-size="527" transform="matrix(1 0 0 1 597.996 1257)">F...</text><path d="M819.945 1285.08C842.236 1284.92 864.488 1291.14 883.728 1303.76L887.343 1306.71 822.223 1408.2 900.824 1317.68 901.854 1318.52C946.928 1363.56 946.474 1437.09 900.841 1482.76L850.241 1533.4C804.608 1579.07 731.076 1579.58 686.003 1534.54 640.93 1489.5 641.383 1415.97 687.016 1370.3L737.617 1319.66C760.433 1296.83 790.224 1285.28 819.945 1285.08Z" fill="#0BB5DD" fill-rule="evenodd"/><path d="M1119.5 1385.5 1208.62 1385.5 1208.62 1362.5 1329.5 1408.5 1208.62 1454.5 1208.62 1431.5 1119.5 1431.5Z" stroke="#1E2B38" stroke-width="4.58333" stroke-miterlimit="8" fill="#0BB5DD" fill-rule="evenodd"/><path d="M676.5 1245.5C676.5 1278.64 649.861 1305.5 617 1305.5 584.139 1305.5 557.5 1278.64 557.5 1245.5 557.5 1212.36 584.139 1185.5 617 1185.5 649.861 1185.5 676.5 1212.36 676.5 1245.5Z" stroke="#2D3E50" stroke-width="6.875" stroke-miterlimit="8" fill="#1FC2A7" fill-rule="evenodd"/><path d="M616.636 1321.5C634.506 1321.5 650.888 1324.52 665.78 1329.06 676.204 1332.09 686.628 1335.87 696.494 1340.6L704.493 1345.62 704.5 1345.65 704.5 1382.41 680.851 1436.63C680.135 1438.09 679.776 1439.9 679.776 1441.72L680.089 1442.5 497.5 1442.5 497.5 1382C497.5 1372.92 501.968 1363.85 509.414 1357.8 525.794 1345.7 546.643 1335.11 567.492 1329.06 583.874 1324.52 600.255 1321.5 616.636 1321.5Z" stroke="#2D3E50" stroke-width="6.875" stroke-miterlimit="8" fill="#1FC2A7" fill-rule="evenodd"/><path d="M80.9272 109.542 57.3041 55.3518 57.3041 18.6187C57.3041 14.2543 59.8099 9.88997 63.3886 7.70779 65.5361 6.6167 66.2525 4.07137 65.1787 2.25234 64.4623 0.798097 63.0312-0.292993 61.241 0.0701533L20.4375 0.0701533C18.2899 0.0701533 16.1424 1.52522 16.1424 4.07137 16.1424 5.88958 16.8588 7.34464 18.2899 8.07176 22.2277 10.2539 24.3752 14.6183 24.3752 18.9827L24.3752 55.7158 1.11033 109.542C-1.75362 115.726 1.11033 123.363 7.55299 125.909 8.98415 126.637 10.7735 127 12.5637 127L69.8312 127C76.6321 127 82.001 121.544 82.001 114.635 82.001 112.816 81.6428 110.997 80.9272 109.542L80.9272 109.542ZM32.9654 26.9843 32.9654 18.6187C32.9654 14.9823 32.249 11.345 30.1015 8.07176L51.9352 8.07176C50.1459 11.345 49.0721 14.9823 49.0721 18.6187L49.0721 26.9843 32.9654 26.9843Z" stroke="#2D3E50" stroke-width="6.875" stroke-miterlimit="8" fill="#1FC2A7" fill-rule="evenodd" transform="matrix(-1 0 0 1 768.5 1327.5)"/><path d="M12.0008 6.00002C12.0008 9.3144 9.3144 12.0008 6.00002 12.0008 2.68643 12.0008 0 9.3144 0 6.00002 0 2.68643 2.68643 0 6.00002 0 9.3144 0 12.0008 2.68643 12.0008 6.00002Z" stroke="#2D3E50" stroke-width="6.875" stroke-miterlimit="8" fill="#1FC2A7" fill-rule="evenodd" transform="matrix(-1 0 0 1 729.5 1271.5)"/><path d="M12.0008 6.50003C12.0008 10.0906 9.3144 13.0009 6.00002 13.0009 2.68643 13.0009 0 10.0906 0 6.50003 0 2.91031 2.68643 0 6.00002 0 9.3144 0 12.0008 2.91031 12.0008 6.50003Z" stroke="#2D3E50" stroke-width="6.875" stroke-miterlimit="8" fill="#1FC2A7" fill-rule="evenodd" transform="matrix(-1 0 0 1 718.5 1289.5)"/><path d="M12.0008 6.00002C12.0008 9.3144 9.3144 12.0008 6.00002 12.0008 2.68643 12.0008 0 9.3144 0 6.00002 0 2.68643 2.68643 0 6.00002 0 9.3144 0 12.0008 2.68643 12.0008 6.00002Z" stroke="#2D3E50" stroke-width="6.875" stroke-miterlimit="8" fill="#1FC2A7" fill-rule="evenodd" transform="matrix(-1 0 0 1 741.5 1285.5)"/><path d="M16.0006 8.49992C16.0006 13.1948 12.4186 17.0007 7.9999 17.0007 3.582 17.0007 0 13.1948 0 8.49992 0 3.80588 3.582 0 7.9999 0 12.4186 0 16.0006 3.80588 16.0006 8.49992Z" stroke="#2D3E50" stroke-width="6.875" stroke-miterlimit="8" fill="#1FC2A7" fill-rule="evenodd" transform="matrix(-1 0 0 1 739.5 1306.5)"/><path d="M433.5 1346.5C433.5 1236.6 521.252 1147.5 629.5 1147.5 737.748 1147.5 825.5 1236.6 825.5 1346.5 825.5 1456.4 737.748 1545.5 629.5 1545.5 521.252 1545.5 433.5 1456.4 433.5 1346.5Z" stroke="#1FC2A7" stroke-width="4.58333" stroke-miterlimit="8" fill="none" fill-rule="evenodd"/><text fill="#95E7FA" font-family="Calibri,Calibri_MSFontService,sans-serif" font-weight="400" font-size="527" transform="matrix(1 0 0 1 1646.98 1257)">FA..</text><path d="M9.00093 198.858C-3.07384 177.443-3.17353 129.918 9.75519 101.492 22.6839 73.0658 46.7046 33.0845 113.535 32.1014 136.749 31.7598 170.788 26.2798 192.636 20.9305 214.484 15.5811 234.951-0.335944 244.623 0.00549441 254.294 0.346933 252.23 9.48167 250.667 22.9793 249.103 36.477 242.018 63.7286 235.243 80.9917 228.467 98.2548 209.862 148.484 195.798 171.416 181.735 194.348 169.794 208.823 150.861 218.584 131.929 228.346 105.847 233.272 82.2036 229.984 58.5602 226.697 21.0757 220.274 9.00093 198.858Z" stroke="#0BB5DD" stroke-width="13.75" stroke-linecap="round" stroke-miterlimit="8" fill="none" fill-rule="evenodd" transform="matrix(-1 0 0 1 1564 896)"/><path d="M0 132C11.3889 82.3398 22.7778 32.6796 123 0" stroke="#0BB5DD" stroke-width="13.75" stroke-linecap="round" stroke-miterlimit="8" fill="none" fill-rule="evenodd" transform="matrix(-1 0 0 1 1581 1031)"/><path d="M1639.43 1041.14C1621.41 1009.24 1621.26 938.47 1640.56 896.139 1659.85 853.808 1695.69 794.269 1795.4 792.805 1830.04 792.296 1880.83 784.135 1913.43 776.169 1946.02 768.203 1976.56 744.5 1990.99 745.008 2005.42 745.517 2002.34 759.12 2000.01 779.22 1997.68 799.321 1987.11 839.903 1977 865.611 1966.89 891.319 1939.13 966.119 1918.14 1000.27 1897.16 1034.42 1879.34 1055.97 1851.09 1070.51 1822.85 1085.05 1783.93 1092.38 1748.65 1087.49 1713.38 1082.59 1657.45 1073.03 1639.43 1041.14Z" stroke="#0BB5DD" stroke-width="13.75" stroke-linecap="round" stroke-miterlimit="8" fill="none" fill-rule="evenodd"/><path d="M1581 1163C1599.8 1080.99 1618.59 998.971 1784 945" stroke="#0BB5DD" stroke-width="13.75" stroke-linecap="round" stroke-miterlimit="8" fill="none" fill-rule="evenodd"/><path d="M1581 1163 1581 1308.73" stroke="#0BB5DD" stroke-width="13.75" stroke-linecap="round" stroke-miterlimit="8" fill="none" fill-rule="evenodd"/><path d="M1554.19 1306.65C1561.62 1306.59 1569.04 1307.25 1576.36 1308.62L1595.2 1314.08 1544.91 1420.94 1632.35 1337.04 1636.1 1340.09C1681.17 1385.13 1680.72 1458.66 1635.08 1504.33L1584.48 1554.97C1538.85 1600.64 1465.32 1601.15 1420.25 1556.11 1375.17 1511.07 1375.63 1437.54 1421.26 1391.87L1471.86 1341.23C1494.68 1318.4 1524.47 1306.85 1554.19 1306.65Z" fill="#0BB5DD" fill-rule="evenodd"/><g><g><g><path d="M180.667 84.6876C180.667 109.632 160.445 129.854 135.5 129.854 110.555 129.854 90.3334 109.632 90.3334 84.6876 90.3334 59.7427 110.555 39.5209 135.5 39.5209 160.445 39.5209 180.667 59.7427 180.667 84.6876Z" stroke="#2D3E50" stroke-width="6.56974" fill="#1FC2A7" transform="matrix(-1 0 0 1.01476 1665 1447)"/><path d="M225.834 231.479 225.834 186.313C225.834 179.538 222.446 172.763 216.8 168.246 204.379 158.083 188.571 151.308 172.763 146.792 161.471 143.404 149.05 141.146 135.5 141.146 123.079 141.146 110.658 143.404 98.2376 146.792 82.4292 151.308 66.6209 159.213 54.2001 168.246 48.5542 172.763 45.1667 179.538 45.1667 186.313L45.1667 231.479 225.834 231.479Z" stroke="#2D3E50" stroke-width="6.56974" fill="#1FC2A7" transform="matrix(-1 0 0 1.01476 1665 1447)"/></g></g></g><g><g><g><path d="M180.667 84.6876C180.667 109.632 160.445 129.854 135.5 129.854 110.555 129.854 90.3334 109.632 90.3334 84.6876 90.3334 59.7427 110.555 39.5209 135.5 39.5209 160.445 39.5209 180.667 59.7427 180.667 84.6876Z" stroke="#2D3E50" stroke-width="6.56974" fill="#1FC2A7" transform="matrix(-1 0 0 1.01107 1906 1448)"/><path d="M86.3813 230.35 67.7501 188.289 67.7501 159.777C67.7501 156.39 69.7261 153.002 72.549 151.308 74.2428 150.462 74.8074 148.486 73.9605 147.074 73.3959 145.945 72.2667 145.098 70.8553 145.38L38.674 145.38C36.9802 145.38 35.2865 146.51 35.2865 148.486 35.2865 149.897 35.8511 151.026 36.9802 151.591 40.0854 153.285 41.7792 156.672 41.7792 160.06L41.7792 188.571 23.4302 230.35C21.1719 235.149 23.4302 241.077 28.5115 243.053 29.6407 243.618 31.0521 243.9 32.4636 243.9L77.6303 243.9C82.9938 243.9 87.2282 239.666 87.2282 234.302 87.2282 232.891 86.9459 231.479 86.3813 230.35L86.3813 230.35ZM48.5542 166.27 48.5542 159.777C48.5542 156.954 47.9896 154.131 46.2959 151.591L63.5157 151.591C62.1042 154.131 61.2573 156.954 61.2573 159.777L61.2573 166.27 48.5542 166.27Z" stroke="#2D3E50" stroke-width="6.56974" fill="#1FC2A7" transform="matrix(-1 0 0 1.01107 1906 1448)"/><path d="M62.9511 106.424C62.9511 109.074 60.8025 111.223 58.1521 111.223 55.5017 111.223 53.3532 109.074 53.3532 106.424 53.3532 103.774 55.5017 101.625 58.1521 101.625 60.8025 101.625 62.9511 103.774 62.9511 106.424Z" stroke="#2D3E50" stroke-width="6.56974" fill="#1FC2A7" transform="matrix(-1 0 0 1.01107 1906 1448)"/><path d="M71.1376 121.103C71.1376 123.754 68.989 125.902 66.3386 125.902 63.6882 125.902 61.5396 123.754 61.5396 121.103 61.5396 118.453 63.6882 116.304 66.3386 116.304 68.989 116.304 71.1376 118.453 71.1376 121.103Z" stroke="#2D3E50" stroke-width="6.56974" fill="#1FC2A7" transform="matrix(-1 0 0 1.01107 1906 1448)"/><path d="M53.3532 117.716C53.3532 120.366 51.2046 122.515 48.5542 122.515 45.9038 122.515 43.7552 120.366 43.7552 117.716 43.7552 115.065 45.9038 112.917 48.5542 112.917 51.2046 112.917 53.3532 115.065 53.3532 117.716Z" stroke="#2D3E50" stroke-width="6.56974" fill="#1FC2A7" transform="matrix(-1 0 0 1.01107 1906 1448)"/><path d="M58.1521 135.5C58.1521 139.086 55.2452 141.993 51.6594 141.993 48.0736 141.993 45.1667 139.086 45.1667 135.5 45.1667 131.914 48.0736 129.007 51.6594 129.007 55.2452 129.007 58.1521 131.914 58.1521 135.5Z" stroke="#2D3E50" stroke-width="6.56974" fill="#1FC2A7" transform="matrix(-1 0 0 1.01107 1906 1448)"/><path d="M121.386 205.791 101.061 184.337 112.352 170.222 112.352 169.94 95.1324 171.633 95.697 147.639C88.922 149.897 82.1469 152.438 75.6542 155.543 74.5251 156.672 73.6782 158.366 73.3959 160.06L73.3959 187.16 91.4626 228.092C92.0272 229.221 92.3095 230.35 92.5917 231.479L121.386 231.479 121.386 205.791Z" stroke="#2D3E50" stroke-width="6.56974" fill="#1FC2A7" transform="matrix(-1 0 0 1.01107 1906 1448)"/><path d="M127.031 203.25 127.031 231.479 143.969 231.479 143.969 203.25 164.294 144.533C154.696 142.275 145.098 141.146 135.5 141.146 125.902 141.146 116.304 142.275 106.989 144.533L127.031 203.25Z" stroke="#2D3E50" stroke-width="6.56974" fill="#1FC2A7" transform="matrix(-1 0 0 1.01107 1906 1448)"/><path d="M216.8 168.246C204.379 158.648 190.265 151.873 175.303 147.639L175.868 171.633 158.648 169.94 158.648 170.222 169.94 184.337 149.615 205.791 149.615 231.479 225.834 231.479 225.834 186.313C225.551 179.255 222.446 172.48 216.8 168.246Z" stroke="#2D3E50" stroke-width="6.56974" fill="#1FC2A7" transform="matrix(-1 0 0 1.01107 1906 1448)"/></g></g></g><g><g><g><path d="M198 92.8125C198 120.151 175.838 142.312 148.5 142.312 121.162 142.312 99 120.151 99 92.8125 99 65.4744 121.162 43.3125 148.5 43.3125 175.838 43.3125 198 65.4744 198 92.8125Z" stroke="#2D3E50" stroke-width="6.59988" fill="#1FC2A7" transform="matrix(-1 0 0 1.01347 1781 1496)"/><path d="M247.5 253.688 247.5 204.188C247.5 196.762 243.788 189.338 237.6 184.387 223.988 173.25 206.663 165.825 189.338 160.875 176.963 157.162 163.35 154.688 148.5 154.688 134.887 154.688 121.275 157.162 107.662 160.875 90.3375 165.825 73.0125 174.488 59.4 184.387 53.2125 189.338 49.5 196.762 49.5 204.188L49.5 253.688 247.5 253.688Z" stroke="#2D3E50" stroke-width="6.59988" fill="#1FC2A7" transform="matrix(-1 0 0 1.01347 1781 1496)"/></g></g></g><path d="M2115.5 1366.5 2203.62 1366.5 2203.62 1343.5 2324.5 1389.5 2203.62 1435.5 2203.62 1412.5 2115.5 1412.5Z" stroke="#1E2B38" stroke-width="4.58333" stroke-miterlimit="8" fill="#0BB5DD" fill-rule="evenodd"/><path d="M1417.5 1627.5C1417.5 1490.53 1527.19 1379.5 1662.5 1379.5 1797.81 1379.5 1907.5 1490.53 1907.5 1627.5 1907.5 1764.47 1797.81 1875.5 1662.5 1875.5 1527.19 1875.5 1417.5 1764.47 1417.5 1627.5Z" stroke="#1FC2A7" stroke-width="4.58333" stroke-miterlimit="8" fill="none" fill-rule="evenodd"/><path d="M12.8942 284.944C-4.40339 254.258-4.5462 186.159 13.9747 145.427 32.4956 104.696 66.9062 47.4069 162.643 45.9981 195.899 45.5087 244.661 37.6563 275.959 29.9913 307.257 22.3262 336.577-0.481374 350.432 0.00787295 364.287 0.49712 361.329 13.5863 359.09 32.9271 356.85 52.2678 346.701 91.3167 336.995 116.053 327.288 140.789 300.635 212.763 280.489 245.622 260.342 278.482 243.236 299.223 216.115 313.21 188.993 327.197 151.63 334.255 117.76 329.544 83.8898 324.834 30.1918 315.63 12.8942 284.944Z" stroke="#0BB5DD" stroke-width="13.75" stroke-linecap="round" stroke-miterlimit="8" fill="none" fill-rule="evenodd" transform="matrix(-1 0 0 1 2795 722)"/><path d="M0 189C16.2963 117.896 32.5926 46.7913 176 0" stroke="#0BB5DD" stroke-width="13.75" stroke-linecap="round" stroke-miterlimit="8" fill="none" fill-rule="evenodd" transform="matrix(-1 0 0 1 2819 915)"/><path d="M2903.18 928.682C2877.45 883.162 2877.24 782.145 2904.79 721.725 2932.34 661.304 2983.53 576.323 3125.94 574.233 3175.41 573.507 3247.94 561.859 3294.5 550.489 3341.06 539.118 3384.67 505.286 3405.28 506.012 3425.89 506.737 3421.49 526.154 3418.16 554.843 3414.83 583.533 3399.73 641.458 3385.29 678.151 3370.85 714.845 3331.21 821.609 3301.24 870.352 3271.27 919.095 3245.82 949.862 3205.48 970.61 3165.13 991.358 3109.55 1001.83 3059.17 994.841 3008.79 987.853 2928.91 974.201 2903.18 928.682Z" stroke="#0BB5DD" stroke-width="13.75" stroke-linecap="round" stroke-miterlimit="8" fill="none" fill-rule="evenodd"/><path d="M2819 1104C2845.94 986.621 2872.89 869.243 3110 792" stroke="#0BB5DD" stroke-width="13.75" stroke-linecap="round" stroke-miterlimit="8" fill="none" fill-rule="evenodd"/><path d="M2819 1104 2819 1312.52" stroke="#0BB5DD" stroke-width="13.75" stroke-linecap="round" stroke-miterlimit="8" fill="none" fill-rule="evenodd"/><rect x="2539" y="1285" width="102" height="90.0001" fill="#1FC2A7"/><rect x="2646" y="1285" width="101" height="90.0001" fill="#1FC2A7"/><rect x="2752" y="1285" width="102" height="90.0001" fill="#1FC2A7"/><rect x="2539" y="1380" width="102" height="90.9998" fill="#1FC2A7"/><rect x="2646" y="1380" width="101" height="90.9998" fill="#1FC2A7"/><rect x="2752" y="1380" width="102" height="90.9998" fill="#1FC2A7"/><rect x="2539" y="1475" width="102" height="90.0001" fill="#1FC2A7"/><rect x="2646" y="1475" width="101" height="90.0001" fill="#1FC2A7"/><rect x="2752" y="1475" width="102" height="90.0001" fill="#1FC2A7"/><rect x="2539.5" y="1224.5" width="312" height="45" stroke="#0684A2" stroke-width="4.58333" stroke-miterlimit="8" fill="#0BB5DD"/><rect x="0" y="0" width="168" height="77" stroke="#0684A2" stroke-width="4.58333" stroke-miterlimit="8" fill="#0BB5DD" transform="matrix(1 0 0 -1 2324.5 1669.5)"/><path d="M0 0 133.421 0.000360892" stroke="#0BB5DD" stroke-width="2.29167" stroke-miterlimit="8" fill="none" fill-rule="evenodd" transform="matrix(1 0 0 -1 2492 1631)"/><path d="M0 0 56.371 232.239" stroke="#0BB5DD" stroke-width="2.29167" stroke-miterlimit="8" fill="none" fill-rule="evenodd" transform="matrix(1 0 0 -1 2626 1630.24)"/><rect x="2983.5" y="1554.5" width="168" height="77" stroke="#0684A2" stroke-width="4.58333" stroke-miterlimit="8" fill="#0BB5DD"/><path d="M2983.42 1592 2850 1592" stroke="#0BB5DD" stroke-width="2.29167" stroke-miterlimit="8" fill="none" fill-rule="evenodd"/><path d="M2850.37 1592.24 2794 1360" stroke="#0BB5DD" stroke-width="2.29167" stroke-miterlimit="8" fill="none" fill-rule="evenodd"/><rect x="2372.5" y="1053.5" width="168" height="77" stroke="#0684A2" stroke-width="4.58333" stroke-miterlimit="8" fill="#0BB5DD"/><path d="M2540 1092 2673.42 1092" stroke="#0BB5DD" stroke-width="2.29167" stroke-miterlimit="8" fill="none" fill-rule="evenodd"/><path d="M2674 1092 2730.37 1324.24" stroke="#0BB5DD" stroke-width="2.29167" stroke-miterlimit="8" fill="none" fill-rule="evenodd"/><text fill="#0BB5DD" font-family="Calibri,Calibri_MSFontService,sans-serif" font-weight="400" font-size="527" transform="matrix(1 0 0 1 2919.66 1257)">FAIR</text></g></svg>