<svg width="1851" height="1214" xmlns="http://www.w3.org/2000/svg" xmlns:xlink="http://www.w3.org/1999/xlink" xml:space="preserve" overflow="hidden"><g transform="translate(-1414 -588)"><path d="M12.8942 284.944C-4.4034 254.258-4.54621 186.159 13.9747 145.427 32.4956 104.696 66.9062 47.4069 162.643 45.9981 195.899 45.5087 244.661 37.6563 275.959 29.9913 307.257 22.3262 336.577-0.481374 350.432 0.00787295 364.287 0.49712 361.33 13.5863 359.09 32.9271 356.851 52.2678 346.701 91.3167 336.995 116.053 327.289 140.789 300.636 212.763 280.489 245.622 260.342 278.482 243.237 299.223 216.115 313.21 188.994 327.197 151.63 334.255 117.76 329.544 83.8898 324.834 30.1918 315.63 12.8942 284.944Z" stroke="#0BB5DD" stroke-width="13.75" stroke-linecap="round" stroke-miterlimit="8" fill="none" fill-rule="evenodd" transform="matrix(-1 0 0 1 1886 811)"/><path d="M0 189C16.3889 117.896 32.7778 46.7913 177 0" stroke="#0BB5DD" stroke-width="13.75" stroke-linecap="round" stroke-miterlimit="8" fill="none" fill-rule="evenodd" transform="matrix(-1 0 0 1 1911 1004)"/><path d="M1994.22 1018.54C1968.44 972.93 1968.22 871.707 1995.83 811.164 2023.43 750.621 2074.71 665.466 2217.39 663.372 2266.95 662.644 2339.62 650.973 2386.26 639.579 2432.91 628.186 2476.6 594.285 2497.25 595.012 2517.9 595.739 2513.49 615.195 2510.15 643.943 2506.82 672.691 2491.69 730.734 2477.22 767.502 2462.76 804.27 2423.04 911.251 2393.01 960.094 2362.99 1008.94 2337.5 1039.77 2297.08 1060.56 2256.66 1081.35 2200.98 1091.84 2150.5 1084.84 2100.02 1077.83 2019.99 1064.15 1994.22 1018.54Z" stroke="#0BB5DD" stroke-width="13.75" stroke-linecap="round" stroke-miterlimit="8" fill="none" fill-rule="evenodd"/><path d="M1911 1193C1937.85 1075.62 1964.7 958.243 2201 881" stroke="#0BB5DD" stroke-width="13.75" stroke-linecap="round" stroke-miterlimit="8" fill="none" fill-rule="evenodd"/><path d="M1911 1193 1911 1401.52" stroke="#0BB5DD" stroke-width="13.75" stroke-linecap="round" stroke-miterlimit="8" fill="none" fill-rule="evenodd"/><rect x="1630" y="1374" width="102" height="90.0001" fill="#1FC2A7"/><rect x="1737" y="1374" width="102" height="90.0001" fill="#1FC2A7"/><rect x="1844" y="1374" width="102" height="90.0001" fill="#1FC2A7"/><rect x="1630" y="1470" width="102" height="90.0001" fill="#1FC2A7"/><rect x="1737" y="1470" width="102" height="90.0001" fill="#1FC2A7"/><rect x="1844" y="1470" width="102" height="90.0001" fill="#1FC2A7"/><rect x="1630" y="1564" width="102" height="90.0001" fill="#1FC2A7"/><rect x="1737" y="1564" width="102" height="90.0001" fill="#1FC2A7"/><rect x="1844" y="1564" width="102" height="90.0001" fill="#1FC2A7"/><rect x="1630.5" y="1313.5" width="312" height="45" stroke="#0684A2" stroke-width="4.58333" stroke-miterlimit="8" fill="#0BB5DD"/><rect x="0" y="0" width="168" height="77" stroke="#0684A2" stroke-width="4.58333" stroke-miterlimit="8" fill="#0BB5DD" transform="matrix(1 0 0 -1 1416.5 1758.5)"/><path d="M0 0 133.421 0.000360892" stroke="#0BB5DD" stroke-width="2.29167" stroke-miterlimit="8" fill="none" fill-rule="evenodd" transform="matrix(1 0 0 -1 1584 1720)"/><path d="M0 0 56.371 232.239" stroke="#0BB5DD" stroke-width="2.29167" stroke-miterlimit="8" fill="none" fill-rule="evenodd" transform="matrix(1 0 0 -1 1717 1719.24)"/><rect x="2075.5" y="1643.5" width="168" height="77" stroke="#0684A2" stroke-width="4.58333" stroke-miterlimit="8" fill="#0BB5DD"/><path d="M2075.42 1681 1942 1681" stroke="#0BB5DD" stroke-width="2.29167" stroke-miterlimit="8" fill="none" fill-rule="evenodd"/><path d="M1941.37 1681.24 1885 1449" stroke="#0BB5DD" stroke-width="2.29167" stroke-miterlimit="8" fill="none" fill-rule="evenodd"/><rect x="1464.5" y="1142.5" width="168" height="77" stroke="#0684A2" stroke-width="4.58333" stroke-miterlimit="8" fill="#0BB5DD"/><path d="M1632 1181 1765.42 1181" stroke="#0BB5DD" stroke-width="2.29167" stroke-miterlimit="8" fill="none" fill-rule="evenodd"/><path d="M1765 1181 1821.37 1413.24" stroke="#0BB5DD" stroke-width="2.29167" stroke-miterlimit="8" fill="none" fill-rule="evenodd"/><text fill="#0BB5DD" font-family="Calibri,Calibri_MSFontService,sans-serif" font-weight="400" font-size="527" transform="matrix(1 0 0 1 2011.19 1346)">FAIR</text></g></svg>