<?xml version="1.0" encoding="UTF-8" standalone="no"?>
<svg
   xmlns:dc="http://purl.org/dc/elements/1.1/"
   xmlns:cc="http://creativecommons.org/ns#"
   xmlns:rdf="http://www.w3.org/1999/02/22-rdf-syntax-ns#"
   xmlns:svg="http://www.w3.org/2000/svg"
   xmlns="http://www.w3.org/2000/svg"
   width="447.99969mm"
   height="400.91196mm"
   viewBox="0 0 447.99969 400.91196"
   version="1.1"
   id="svg8">
  <defs
     id="defs2">
    <clipPath
       id="clip0">
      <rect
         x="837"
         y="1011"
         width="2194"
         height="1579"
         id="rect10" />
    </clipPath>
    <linearGradient
       x1="1765.48"
       y1="1083.96"
       x2="2198.52"
       y2="1600.04"
       gradientUnits="userSpaceOnUse"
       spreadMethod="reflect"
       id="fill1">
      <stop
         offset="0"
         stop-color="#FFC611"
         stop-opacity="0.298039"
         id="stop13" />
      <stop
         offset="0.78"
         stop-color="#FFFFFF"
         stop-opacity="0"
         id="stop15" />
      <stop
         offset="1"
         stop-color="#FFFFFF"
         stop-opacity="0"
         id="stop17" />
    </linearGradient>
    <linearGradient
       x1="-22.387899"
       y1="26.680799"
       x2="525.388"
       y2="486.319"
       gradientUnits="userSpaceOnUse"
       spreadMethod="reflect"
       id="fill2">
      <stop
         offset="0"
         stop-color="#7F7F7F"
         stop-opacity="0.501961"
         id="stop20" />
      <stop
         offset="0.67"
         stop-color="#FFFFFF"
         stop-opacity="0"
         id="stop22" />
      <stop
         offset="1"
         stop-color="#FFFFFF"
         stop-opacity="0"
         id="stop24" />
    </linearGradient>
    <linearGradient
       x1="1840.23"
       y1="2478.71"
       x2="1311.77"
       y2="2035.29"
       gradientUnits="userSpaceOnUse"
       spreadMethod="reflect"
       id="fill3">
      <stop
         offset="0"
         stop-color="#0BB5DD"
         stop-opacity="0.501961"
         id="stop27" />
      <stop
         offset="0.01"
         stop-color="#0BB5DD"
         stop-opacity="0.301961"
         id="stop29" />
      <stop
         offset="0.83"
         stop-color="#FFFFFF"
         stop-opacity="0"
         id="stop31" />
      <stop
         offset="1"
         stop-color="#FFFFFF"
         stop-opacity="0"
         id="stop33" />
    </linearGradient>
    <linearGradient
       x1="-64.942802"
       y1="112.484"
       x2="433.94299"
       y2="400.51599"
       gradientUnits="userSpaceOnUse"
       spreadMethod="reflect"
       id="fill4">
      <stop
         offset="0"
         stop-color="#1FC2A7"
         stop-opacity="0.501961"
         id="stop36" />
      <stop
         offset="0.01"
         stop-color="#88DCCA"
         stop-opacity="0.301961"
         id="stop38" />
      <stop
         offset="0.75"
         stop-color="#FFFFFF"
         stop-opacity="0"
         id="stop40" />
      <stop
         offset="1"
         stop-color="#FFFFFF"
         stop-opacity="0"
         id="stop42" />
    </linearGradient>
    <clipPath
       id="clip5">
      <rect
         x="1815"
         y="2095"
         width="98"
         height="98"
         id="rect45" />
    </clipPath>
    <clipPath
       id="clip6">
      <rect
         x="1815"
         y="2095"
         width="98"
         height="98"
         id="rect48" />
    </clipPath>
    <clipPath
       id="clip7">
      <rect
         x="1815"
         y="2095"
         width="98"
         height="98"
         id="rect51" />
    </clipPath>
    <clipPath
       id="clip8">
      <rect
         x="1482"
         y="2010"
         width="72"
         height="71"
         id="rect54" />
    </clipPath>
    <clipPath
       id="clip9">
      <rect
         x="1482"
         y="2010"
         width="72"
         height="71"
         id="rect57" />
    </clipPath>
    <clipPath
       id="clip10">
      <rect
         x="1482"
         y="2010"
         width="72"
         height="71"
         id="rect60" />
    </clipPath>
    <clipPath
       id="clip11">
      <rect
         x="1397"
         y="1677"
         width="70"
         height="70"
         id="rect63" />
    </clipPath>
    <clipPath
       id="clip12">
      <rect
         x="1397"
         y="1677"
         width="70"
         height="70"
         id="rect66" />
    </clipPath>
    <clipPath
       id="clip13">
      <rect
         x="1397"
         y="1677"
         width="70"
         height="70"
         id="rect69" />
    </clipPath>
    <clipPath
       id="clip14">
      <rect
         x="2003"
         y="1533"
         width="66"
         height="65"
         id="rect72" />
    </clipPath>
    <clipPath
       id="clip15">
      <rect
         x="2003"
         y="1533"
         width="66"
         height="65"
         id="rect75" />
    </clipPath>
    <clipPath
       id="clip16">
      <rect
         x="2003"
         y="1533"
         width="66"
         height="65"
         id="rect78" />
    </clipPath>
    <clipPath
       id="clip17">
      <rect
         x="1638"
         y="1416"
         width="90"
         height="91"
         id="rect81" />
    </clipPath>
    <clipPath
       id="clip18">
      <rect
         x="1638"
         y="1416"
         width="90"
         height="91"
         id="rect84" />
    </clipPath>
    <clipPath
       id="clip19">
      <rect
         x="1638"
         y="1416"
         width="90"
         height="91"
         id="rect87" />
    </clipPath>
    <clipPath
       id="clip20">
      <rect
         x="1606"
         y="1619"
         width="184"
         height="184"
         id="rect90" />
    </clipPath>
    <clipPath
       id="clip21">
      <rect
         x="1606"
         y="1619"
         width="184"
         height="184"
         id="rect93" />
    </clipPath>
    <clipPath
       id="clip22">
      <rect
         x="1606"
         y="1619"
         width="184"
         height="184"
         id="rect96" />
    </clipPath>
    <clipPath
       id="clip23">
      <rect
         x="1770"
         y="1619"
         width="184"
         height="184"
         id="rect99" />
    </clipPath>
    <clipPath
       id="clip24">
      <rect
         x="1770"
         y="1619"
         width="184"
         height="184"
         id="rect102" />
    </clipPath>
    <clipPath
       id="clip25">
      <rect
         x="1770"
         y="1619"
         width="184"
         height="184"
         id="rect105" />
    </clipPath>
    <clipPath
       id="clip26">
      <rect
         x="1667"
         y="1652"
         width="202"
         height="201"
         id="rect108" />
    </clipPath>
    <clipPath
       id="clip27">
      <rect
         x="1667"
         y="1652"
         width="202"
         height="201"
         id="rect111" />
    </clipPath>
    <clipPath
       id="clip28">
      <rect
         x="1667"
         y="1652"
         width="202"
         height="201"
         id="rect114" />
    </clipPath>
  </defs>
  <metadata
     id="metadata5">
    <rdf:RDF>
      <cc:Work
         rdf:about="">
        <dc:format>image/svg+xml</dc:format>
        <dc:type
           rdf:resource="http://purl.org/dc/dcmitype/StillImage" />
        <dc:title></dc:title>
      </cc:Work>
    </rdf:RDF>
  </metadata>
  <g
     id="layer1"
     transform="translate(166.54747,133.17622)">
    <g
       clip-path="url(#clip0)"
       transform="matrix(0.26145813,0,0,0.26109108,-417.10963,-401.00869)"
       id="g373">
      <rect
         x="1682"
         y="1154"
         width="600"
         height="376"
         fill="url(#fill1)"
         id="rect119"
         style="fill:url(#fill1)" />
      <rect
         x="0"
         y="0"
         width="503"
         height="513"
         fill="url(#fill2)"
         transform="matrix(-1,0,0,1,1470,1266)"
         id="rect121"
         style="fill:url(#fill2)" />
      <text
         fill="#ffc000"
         font-family="Calibri, Calibri_MSFontService, sans-serif"
         font-weight="400"
         font-size="53px"
         transform="translate(1697.83,1205)"
         id="text127">Infrastructure<tspan
   font-size="53px"
   x="0"
   y="64"
   id="tspan123">Software</tspan><tspan
   font-size="53px"
   x="0"
   y="128"
   id="tspan125">Service</tspan></text>
      <path
         d="M 1472.15,1266 H 1313"
         stroke="#7f7f7f"
         stroke-width="8"
         stroke-miterlimit="8"
         fill="none"
         fill-rule="evenodd"
         id="path129" />
      <path
         d="m 1469,1265 v 362.01"
         stroke="#7f7f7f"
         stroke-width="8"
         stroke-miterlimit="8"
         fill="none"
         fill-rule="evenodd"
         id="path131" />
      <rect
         x="1286"
         y="2066"
         width="580"
         height="382"
         fill="url(#fill3)"
         id="rect133"
         style="fill:url(#fill3)" />
      <rect
         x="0"
         y="0"
         width="369"
         height="513"
         fill="url(#fill4)"
         transform="matrix(1,0,0,-1,2078,2333)"
         id="rect135"
         style="fill:url(#fill4)" />
      <path
         d="M 0,440 C 0,196.995 196.771,0 439.5,0 682.229,0 879,196.995 879,440 879,683.005 682.229,880 439.5,880 196.771,880 0,683.005 0,440 Z"
         fill="#d9d9d9"
         fill-rule="evenodd"
         transform="matrix(-1,0,0,1,2213,1363)"
         id="path137" />
      <text
         fill="#ffffff"
         font-family="Calibri, Calibri_MSFontService, sans-serif"
         font-weight="400"
         font-size="48px"
         transform="translate(1749,1819)"
         id="text143">21<tspan
   fill="#7f7f7f"
   font-size="53px"
   x="-581.711"
   y="-505"
   id="tspan139">Management</tspan><tspan
   fill="#7f7f7f"
   font-size="53px"
   x="-573.42401"
   y="-441"
   id="tspan141">Coordination</tspan></text>
      <path
         d="M 2076,2333.01 V 1971"
         stroke="#1fc2a7"
         stroke-width="8"
         stroke-miterlimit="8"
         fill="none"
         fill-rule="evenodd"
         id="path145" />
      <path
         d="m 2073,2333 h 159.15"
         stroke="#1fc2a7"
         stroke-width="8"
         stroke-miterlimit="8"
         fill="none"
         fill-rule="evenodd"
         id="path147" />
      <path
         d="M 0,356 C 0,159.387 159.387,0 356,0 552.613,0 712,159.387 712,356 712,552.613 552.613,712 356,712 159.387,712 0,552.613 0,356 Z"
         fill="#88dcca"
         fill-rule="evenodd"
         transform="matrix(-1,0,0,1,2129,1447)"
         id="path149" />
      <path
         d="m 1745.81,1448.99 c 196.34,-14.63 367.45,131.55 382.19,326.51 1.63,21.61 1.27,43.32 -1.1,64.86"
         stroke="#ffc000"
         stroke-width="8"
         stroke-miterlimit="8"
         fill="none"
         fill-rule="evenodd"
         id="path151" />
      <path
         d="m 1805.74,2155.64 c -196.13,17.06 -369.12,-126.32 -386.37,-320.25 -2.05,-23.05 -1.8,-46.25 0.75,-69.25"
         stroke="#0bb5dd"
         stroke-width="8"
         stroke-miterlimit="8"
         fill="none"
         fill-rule="evenodd"
         id="path153" />
      <path
         d="m 1623,1461.5 c 0,-32.86 26.86,-59.5 60,-59.5 33.14,0 60,26.64 60,59.5 0,32.86 -26.86,59.5 -60,59.5 -33.14,0 -60,-26.64 -60,-59.5 z"
         stroke="#ffc000"
         stroke-width="8"
         stroke-miterlimit="8"
         fill="#ffe9a3"
         fill-rule="evenodd"
         id="path155" />
      <path
         d="m 1961,1549.5 c 0,-32.86 26.86,-59.5 60,-59.5 33.14,0 60,26.64 60,59.5 0,32.86 -26.86,59.5 -60,59.5 -33.14,0 -60,-26.64 -60,-59.5 z"
         stroke="#ffc000"
         stroke-width="8"
         stroke-miterlimit="8"
         fill="#ffe9a3"
         fill-rule="evenodd"
         id="path157" />
      <path
         d="m 2057,1896 c 0,-33.14 26.86,-60 60,-60 33.14,0 60,26.86 60,60 0,33.14 -26.86,60 -60,60 -33.14,0 -60,-26.86 -60,-60 z"
         stroke="#ffc000"
         stroke-width="8"
         stroke-miterlimit="8"
         fill="#ffe9a3"
         fill-rule="evenodd"
         id="path159" />
      <path
         d="m 1804,2144.5 c 0,-32.86 26.86,-59.5 60,-59.5 33.14,0 60,26.64 60,59.5 0,32.86 -26.86,59.5 -60,59.5 -33.14,0 -60,-26.64 -60,-59.5 z"
         stroke="#0bb5dd"
         stroke-width="8"
         stroke-miterlimit="8"
         fill="#d7f6fd"
         fill-rule="evenodd"
         id="path161" />
      <path
         d="m 1458,2045.5 c 0,-32.86 26.86,-59.5 60,-59.5 33.14,0 60,26.64 60,59.5 0,32.86 -26.86,59.5 -60,59.5 -33.14,0 -60,-26.64 -60,-59.5 z"
         stroke="#0bb5dd"
         stroke-width="8"
         stroke-miterlimit="8"
         fill="#d7f6fd"
         fill-rule="evenodd"
         id="path163" />
      <path
         d="m 1372,1712.5 c 0,-32.86 26.86,-59.5 60,-59.5 33.14,0 60,26.64 60,59.5 0,32.86 -26.86,59.5 -60,59.5 -33.14,0 -60,-26.64 -60,-59.5 z"
         stroke="#0bb5dd"
         stroke-width="8"
         stroke-miterlimit="8"
         fill="#d7f6fd"
         fill-rule="evenodd"
         id="path165" />
      <g
         clip-path="url(#clip5)"
         id="g187">
        <g
           clip-path="url(#clip6)"
           id="g185">
          <g
             clip-path="url(#clip7)"
             id="g183">
            <path
               d="m 1860.84,2168.91 c -0.52,0 -1.13,-0.1 -1.54,-0.51 -0.81,-0.72 -0.91,-2.04 -0.2,-2.86 l 3.98,-4.59 c 0.72,-0.82 2.04,-0.92 2.86,-0.21 0.82,0.72 0.92,2.04 0.2,2.86 l -3.98,4.59 c -0.3,0.41 -0.81,0.62 -1.32,0.72 z"
               fill="#0bb5dd"
               id="path167" />
            <path
               d="m 1854.61,2166.56 c -0.72,0.1 -1.33,-0.1 -1.94,-0.61 -1.02,-0.92 -1.12,-2.55 -0.21,-3.57 l 4.7,-5.42 c 0.92,-1.02 2.55,-1.12 3.57,-0.2 1.02,0.92 1.13,2.55 0.21,3.57 l -4.7,5.41 c -0.41,0.51 -1.02,0.82 -1.63,0.82 z"
               fill="#0bb5dd"
               id="path169" />
            <path
               d="m 1848.18,2162.78 c -0.82,0.11 -1.64,-0.2 -2.25,-0.71 -1.22,-1.12 -1.43,-3.06 -0.31,-4.29 l 4.7,-5.41 c 1.12,-1.22 3.06,-1.43 4.29,-0.31 1.22,1.13 1.43,3.07 0.3,4.29 l -4.69,5.41 c -0.51,0.62 -1.33,1.02 -2.04,1.02 z"
               fill="#0bb5dd"
               id="path171" />
            <path
               d="m 1840.72,2159.01 c -0.81,0.1 -1.63,-0.21 -2.24,-0.72 -1.23,-1.12 -1.43,-3.06 -0.31,-4.29 l 5.41,-6.12 c 1.13,-1.23 3.07,-1.43 4.29,-0.31 1.23,1.13 1.43,3.07 0.31,4.29 l -5.41,6.13 c -0.62,0.61 -1.33,0.91 -2.05,1.02 z"
               fill="#0bb5dd"
               id="path173" />
            <path
               d="m 1819.7,2136.55 7.86,4.8 c 0.91,0.61 2.24,0.3 2.75,-0.72 l 9.5,-15.72 c 0.61,-0.92 0.3,-2.25 -0.72,-2.76 l -7.76,-4.79 z"
               fill="#0bb5dd"
               id="path175" />
            <path
               d="m 1885.85,2149.92 -16.44,-14.09 -1.12,-1.02 -7.05,8.07 c -1.02,1.22 -2.45,1.94 -4.08,2.04 -0.2,0 -0.41,0 -0.51,0 -1.53,0 -2.96,-0.51 -3.98,-1.53 -2.55,-2.25 -2.76,-6.13 -0.61,-8.68 l 6.02,-6.94 c -4.7,-0.61 -10.72,1.84 -16.95,-1.23 l -8.88,14.7 6.94,8.07 2.66,-3.06 c 0.92,-1.13 2.35,-1.74 3.88,-1.74 v 0 c 1.22,0 2.45,0.41 3.37,1.23 1.12,0.91 1.63,2.24 1.73,3.67 0.51,-0.2 1.12,-0.31 1.74,-0.31 1.22,0 2.45,0.41 3.37,1.23 1.12,1.02 1.73,2.35 1.73,3.78 0.41,-0.11 0.92,-0.21 1.33,-0.21 v 0 c 1.12,0 2.14,0.41 3.06,1.12 0.92,0.82 1.43,1.94 1.53,3.17 0.31,-0.1 0.72,-0.2 1.12,-0.2 v 0 c 1.03,0 1.94,0.3 2.66,1.02 0.82,0.71 1.33,1.73 1.43,2.75 0.1,1.13 -0.31,2.15 -1.02,2.96 l -3.47,3.98 1.43,1.13 c 0.71,0.41 1.53,0.71 2.45,0.61 2.24,-0.2 3.87,-2.14 3.67,-4.39 0,0 0,-0.1 0,-0.1 0.31,0.1 0.71,0.1 1.02,0.1 2.25,-0.2 3.88,-2.14 3.68,-4.39 0,0 0,-0.1 0,-0.1 0.3,0.1 0.71,0.1 1.02,0.1 2.24,-0.2 3.88,-2.14 3.67,-4.39 0,-0.2 -0.1,-0.41 -0.1,-0.61 0.61,0.3 1.33,0.51 2.14,0.41 2.25,-0.21 3.88,-2.15 3.68,-4.39 0.1,-1.13 -0.41,-2.04 -1.12,-2.76 z"
               fill="#0bb5dd"
               id="path177" />
            <path
               d="m 1908.3,2136.55 -7.86,4.8 c -0.91,0.61 -2.24,0.3 -2.75,-0.72 l -9.5,-15.72 c -0.61,-0.92 -0.3,-2.25 0.72,-2.76 l 7.86,-4.79 z"
               fill="#0bb5dd"
               id="path179" />
            <path
               d="m 1886.97,2126.95 c -8.47,3.06 -14.6,0.1 -21.44,-1.22 -0.1,0 -0.51,-0.11 -0.51,-0.11 -1.22,-0.1 -2.55,0.31 -3.47,1.33 l -8.06,9.19 c -1.54,1.74 -1.33,4.29 0.4,5.72 0.92,0.71 1.94,1.12 3.07,1.02 1.02,-0.11 2.04,-0.51 2.75,-1.43 0,0 8.37,-9.6 8.37,-9.6 l 19.09,16.44 v 0 0 c 0.51,0.51 0.72,0.71 1.13,1.32 l 7.35,-8.47 z"
               fill="#0bb5dd"
               id="path181" />
          </g>
        </g>
      </g>
      <g
         clip-path="url(#clip8)"
         id="g211">
        <g
           clip-path="url(#clip9)"
           id="g209">
          <g
             clip-path="url(#clip10)"
             id="g207">
            <path
               d="M 17.0104,10.3542 H 53.9896 V 60.6458 H 17.0104 Z M 12.5729,65.0833 H 58.4271 V 5.91667 H 12.5729 Z"
               fill="#0bb5dd"
               transform="matrix(1.01408,0,0,1,1482,2010)"
               id="path189" />
            <path
               d="m 36.9792,17.0104 h 12.5729 v 2.9584 H 36.9792 Z"
               fill="#0bb5dd"
               transform="matrix(1.01408,0,0,1,1482,2010)"
               id="path191" />
            <path
               d="m 36.9792,28.8438 h 12.5729 v 2.9583 H 36.9792 Z"
               fill="#0bb5dd"
               transform="matrix(1.01408,0,0,1,1482,2010)"
               id="path193" />
            <path
               d="m 36.9792,52.5104 h 12.5729 v 2.9584 H 36.9792 Z"
               fill="#0bb5dd"
               transform="matrix(1.01408,0,0,1,1482,2010)"
               id="path195" />
            <path
               d="m 36.9792,40.6771 h 12.5729 v 2.9583 H 36.9792 Z"
               fill="#0bb5dd"
               transform="matrix(1.01408,0,0,1,1482,2010)"
               id="path197" />
            <path
               d="m 32.3937,15.3833 -2.0708,-2.0708 -4.8812,4.8813 -1.923,-1.923 -2.0708,2.0709 3.9938,3.9937 z"
               fill="#0bb5dd"
               transform="matrix(1.01408,0,0,1,1482,2010)"
               id="path199" />
            <path
               d="m 32.3937,27.2167 -2.0708,-2.0709 -4.8812,4.8813 -1.923,-1.9229 -2.0708,2.0708 3.9938,3.9938 z"
               fill="#0bb5dd"
               transform="matrix(1.01408,0,0,1,1482,2010)"
               id="path201" />
            <path
               d="m 32.3937,39.05 -2.0708,-2.0708 -4.8812,4.8812 -1.923,-1.9229 -2.0708,2.0708 3.9938,3.9938 z"
               fill="#0bb5dd"
               transform="matrix(1.01408,0,0,1,1482,2010)"
               id="path203" />
            <path
               d="m 32.3937,50.7354 -2.0708,-2.0708 -4.8812,4.8812 -1.923,-1.9229 -2.0708,2.0708 3.9938,3.9938 z"
               fill="#0bb5dd"
               transform="matrix(1.01408,0,0,1,1482,2010)"
               id="path205" />
          </g>
        </g>
      </g>
      <g
         clip-path="url(#clip11)"
         id="g231">
        <g
           clip-path="url(#clip12)"
           id="g229">
          <g
             clip-path="url(#clip13)"
             id="g227">
            <path
               d="m 1453.17,1718.22 c 0,3.13 -2.54,5.67 -5.68,5.67 -3.13,0 -5.67,-2.54 -5.67,-5.67 0,-3.13 2.54,-5.67 5.67,-5.67 3.14,0 5.68,2.54 5.68,5.67 z"
               fill="#0bb5dd"
               id="path213" />
            <path
               d="m 1422.91,1718.22 c 0,3.13 -2.54,5.67 -5.67,5.67 -3.13,0 -5.67,-2.54 -5.67,-5.67 0,-3.13 2.54,-5.67 5.67,-5.67 3.13,0 5.67,2.54 5.67,5.67 z"
               fill="#0bb5dd"
               id="path215" />
            <path
               d="m 1457.71,1728.81 c -1.64,-1.28 -3.53,-2.18 -5.55,-2.65 -1.52,-0.44 -3.08,-0.69 -4.67,-0.73 -1.58,0 -3.15,0.24 -4.65,0.73 -1.51,0.4 -2.95,1.02 -4.28,1.84 l -0.26,0.3 c 2.12,0.57 4.1,1.56 5.83,2.91 1.36,1 2.16,2.6 2.13,4.28 v 1.3 h 12.58 v -5.71 c 0.03,-0.9 -0.4,-1.75 -1.13,-2.27 z"
               fill="#0bb5dd"
               id="path217" />
            <path
               d="m 1418.5,1735.49 c 0,-1.64 0.75,-3.19 2.04,-4.2 l 0.08,-0.08 0.1,-0.06 c 1.75,-1.25 3.69,-2.21 5.74,-2.85 -0.15,-0.15 -0.29,-0.31 -0.42,-0.47 -1.29,-0.75 -2.69,-1.31 -4.14,-1.67 -1.51,-0.44 -3.08,-0.69 -4.66,-0.73 -1.58,0 -3.16,0.24 -4.67,0.73 -1.99,0.55 -3.86,1.45 -5.54,2.65 -0.71,0.54 -1.13,1.38 -1.14,2.27 v 5.71 h 12.61 z"
               fill="#0bb5dd"
               id="path219" />
            <path
               d="m 1421.02,1741.17 v -5.68 c 0,-0.89 0.42,-1.73 1.14,-2.26 1.67,-1.21 3.55,-2.11 5.55,-2.65 1.5,-0.49 3.07,-0.74 4.65,-0.73 1.59,0.04 3.15,0.28 4.67,0.73 2.02,0.46 3.92,1.37 5.55,2.65 0.73,0.51 1.16,1.37 1.14,2.26 v 5.68 z"
               fill="#0bb5dd"
               id="path221" />
            <path
               d="m 1438.04,1722.63 c 0,3.13 -2.54,5.67 -5.68,5.67 -3.13,0 -5.67,-2.54 -5.67,-5.67 0,-3.13 2.54,-5.67 5.67,-5.67 3.14,0 5.68,2.54 5.68,5.67 z"
               fill="#0bb5dd"
               id="path223" />
            <path
               d="m 1456.06,1682.83 h -47.21 c -1.61,0 -2.92,1.31 -2.92,2.92 v 16.04 c 0,1.61 1.31,2.92 2.92,2.92 h 10.75 v 4.37 l 4.6,-4.37 h 4.96 l 2.84,4.37 2.62,-4.37 h 5.18 l 4.6,4.37 v -4.37 h 11.66 c 1.61,0 2.92,-1.31 2.92,-2.92 v -16.04 c 0,-1.61 -1.31,-2.92 -2.92,-2.92 z m -42.84,6.57 h 34.09 v 1.45 h -34.09 z m 26.8,8.75 h -26.8 v -1.46 h 26.8 z m 11.67,-3.65 h -38.47 v -1.46 h 38.47 z"
               fill="#0bb5dd"
               id="path225" />
          </g>
        </g>
      </g>
      <path
         d="m 1991.5,1519.87 c 0,-2.43 11.75,-4.37 26,-4.37 14.25,0 26,1.94 26,4.37 0,17.26 0,17.26 0,17.26 0,2.43 -11.75,4.37 -26,4.37 -14.25,0 -26,-1.94 -26,-4.37 z"
         stroke="#bc8c00"
         stroke-width="1.33333"
         stroke-miterlimit="8"
         fill="#ffc000"
         fill-rule="evenodd"
         id="path233" />
      <path
         d="m 1991.5,1551.87 c 0,-2.43 11.75,-4.37 26,-4.37 14.25,0 26,1.94 26,4.37 0,17.26 0,17.26 0,17.26 0,2.43 -11.75,4.37 -26,4.37 -14.25,0 -26,-1.94 -26,-4.37 z"
         stroke="#bc8c00"
         stroke-width="1.33333"
         stroke-miterlimit="8"
         fill="#ffc000"
         fill-rule="evenodd"
         id="path235" />
      <path
         d="m 2043.5,1551.5 c 0,2.5 -11.75,5 -26,5 -14.25,0 -26,-2.5 -26,-5"
         stroke="#bc8c00"
         stroke-width="1.33333"
         stroke-miterlimit="8"
         fill="#ffc000"
         fill-rule="evenodd"
         id="path237" />
      <path
         d="m 1991.5,1551.87 c 0,-2.43 11.75,-4.37 26,-4.37 14.25,0 26,1.94 26,4.37 0,17.26 0,17.26 0,17.26 0,2.43 -11.75,4.37 -26,4.37 -14.25,0 -26,-1.94 -26,-4.37 z"
         stroke="#bc8c00"
         stroke-width="1.33333"
         stroke-miterlimit="8"
         fill="#ffc000"
         fill-rule="evenodd"
         id="path239" />
      <path
         d="m 1991.5,1535.83 c 0,-2.4 11.75,-4.33 26,-4.33 14.25,0 26,1.93 26,4.33 0,17.34 0,17.34 0,17.34 0,2.4 -11.75,4.33 -26,4.33 -14.25,0 -26,-1.93 -26,-4.33 z"
         stroke="#bc8c00"
         stroke-width="1.33333"
         stroke-miterlimit="8"
         fill="#ffc000"
         fill-rule="evenodd"
         id="path241" />
      <path
         d="m 2043.5,1535.5 c 0,2.78 -11.75,5 -26,5 -14.25,0 -26,-2.22 -26,-5"
         stroke="#bc8c00"
         stroke-width="1.33333"
         stroke-miterlimit="8"
         fill="#ffc000"
         fill-rule="evenodd"
         id="path243" />
      <path
         d="m 1991.5,1535.83 c 0,-2.4 11.75,-4.33 26,-4.33 14.25,0 26,1.93 26,4.33 0,17.34 0,17.34 0,17.34 0,2.4 -11.75,4.33 -26,4.33 -14.25,0 -26,-1.93 -26,-4.33 z"
         stroke="#bc8c00"
         stroke-width="1.33333"
         stroke-miterlimit="8"
         fill="#ffc000"
         fill-rule="evenodd"
         id="path245" />
      <path
         d="m 1991.5,1519.87 c 0,-2.43 11.75,-4.37 26,-4.37 14.25,0 26,1.94 26,4.37 0,17.26 0,17.26 0,17.26 0,2.43 -11.75,4.37 -26,4.37 -14.25,0 -26,-1.94 -26,-4.37 z"
         stroke="#bc8c00"
         stroke-width="1.33333"
         stroke-miterlimit="8"
         fill="#ffc000"
         fill-rule="evenodd"
         id="path247" />
      <path
         d="m 2043.5,1519.5 c 0,2.78 -11.75,5 -26,5 -14.25,0 -26,-2.22 -26,-5"
         stroke="#bc8c00"
         stroke-width="1.33333"
         stroke-miterlimit="8"
         fill="#ffc000"
         fill-rule="evenodd"
         id="path249" />
      <g
         clip-path="url(#clip14)"
         id="g261">
        <g
           clip-path="url(#clip15)"
           id="g259">
          <g
             clip-path="url(#clip16)"
             id="g257">
            <path
               d="m 43.0151,33.3531 -4.3875,4.3875 -4.3943,-4.3875 h 2.4511 c -0.8291,-1.615 -2.4909,-2.6314 -4.3063,-2.6338 -1.1712,0.0013 -2.3012,0.4326 -3.1755,1.2119 h -4.462 c 1.9877,-4.2223 7.022,-6.0338 11.2443,-4.0461 2.2533,1.0608 3.9239,3.0616 4.5656,5.468 z"
               stroke="#bc8c00"
               stroke-width="1.73333"
               fill="#ffc000"
               transform="matrix(1.01538,0,0,1,2003,1533)"
               id="path251" />
            <path
               d="m 21.7682,37.7406 4.3943,-4.3875 4.3875,4.3875 h -2.4714 c 0.8268,1.6139 2.4862,2.6304 4.2995,2.6339 1.1735,-3e-4 2.306,-0.4316 3.1823,-1.212 h 4.4823 c -1.9942,4.2275 -7.0379,6.038 -11.2654,4.0438 -2.2513,-1.062 -3.921,-3.0612 -4.5648,-5.4657 z"
               stroke="#bc8c00"
               stroke-width="1.73333"
               fill="#ffc000"
               transform="matrix(1.01538,0,0,1,2003,1533)"
               id="path253" />
            <path
               d="M 53.3068,51.4583 C 59.1536,51.3199 63.7812,46.468 63.6428,40.6211 63.5207,35.4627 59.6985,31.1432 54.5932,30.3943 54.0537,27.0831 52.2349,24.1166 49.5286,22.1339 46.7278,20.149 43.2297,19.4135 39.8667,20.1026 36.5581,14.9944 30.3879,12.5279 24.4698,13.9479 c -5.7681,1.4855 -10.0781,6.2922 -10.9281,12.1875 -3.84262,0.1032 -7.42584,1.9622 -9.72295,5.0443 -2.72177,3.7808 -3.217447,8.7272 -1.3,12.9729 1.95456,4.1849 6.04629,6.9613 10.65725,7.2313 z M 13.3589,47.1792 C 10.2951,46.9862 7.579,45.1418 6.26979,42.3651 4.99941,39.535 5.32678,36.2433 7.12969,33.7188 8.97298,31.239 12.0402,29.9871 15.0922,30.4688 l 2.4036,0.3994 v -2.6541 c 0.0235,-4.7953 3.2824,-8.9698 7.9287,-10.1563 4.6621,-1.1241 9.4823,1.1231 11.6187,5.4167 l 0.8193,1.6318 1.6995,-0.6027 c 2.5428,-0.8984 5.3636,-0.5044 7.563,1.0563 2.1867,1.6018 3.4813,4.1482 3.487,6.8589 v 2.1124 h 2.7625 c 3.5088,0.1318 6.2465,3.0831 6.1148,6.5919 -0.1257,3.3501 -2.8312,6.027 -6.1825,6.117 z"
               stroke="#bc8c00"
               stroke-width="1.73333"
               fill="#ffc000"
               transform="matrix(1.01538,0,0,1,2003,1533)"
               id="path255" />
          </g>
        </g>
      </g>
      <g
         clip-path="url(#clip17)"
         id="g271">
        <g
           clip-path="url(#clip18)"
           id="g269">
          <g
             clip-path="url(#clip19)"
             id="g267">
            <path
               d="m 55.5938,34.9688 c -3.9376,0 -7.0313,-3.1875 -7.0313,-7.0313 0,-3.8437 3.1875,-7.0313 7.0313,-7.0313 3.9374,0 7.0312,3.1876 7.0312,7.0313 0,3.8438 -3.1875,7.0313 -7.0312,7.0313 z M 71.4375,23.5312 C 71.0625,22.2188 70.5938,21 69.9375,19.875 l 1.5,-4.4062 -3.375,-3.375 -4.4063,1.5 C 62.5312,12.9375 61.3125,12.4688 60,12.0938 L 57.9375,7.96875 H 53.25 l -2.0625,4.12505 c -1.3125,0.375 -2.5313,0.8437 -3.6563,1.5 l -4.4062,-1.5 -3.375,3.375 1.5,4.4062 c -0.6562,1.125 -1.125,2.3438 -1.5,3.6562 l -4.125,2.0626 v 4.6874 l 4.125,2.0626 c 0.375,1.3124 0.8438,2.5312 1.5,3.6562 l -1.5,4.4062 3.2812,3.2813 4.4063,-1.5 c 1.125,0.6563 2.3437,1.125 3.6563,1.5 l 2.0624,4.125 h 4.6876 l 2.0624,-4.125 c 1.3126,-0.375 2.5313,-0.8437 3.6563,-1.5 l 4.4063,1.5 3.375,-3.2813 -1.5,-4.4062 c 0.6562,-1.125 1.2187,-2.4375 1.5937,-3.6562 l 4.125,-2.0626 v -4.6874 z"
               stroke="#bc8c00"
               stroke-width="1.7647"
               fill="#ffc000"
               transform="matrix(1,0,0,1.01111,1638,1416)"
               id="path263" />
            <path
               d="m 34.4062,69.0938 c -3.9374,0 -7.0312,-3.1876 -7.0312,-7.0313 0,-3.9375 3.1875,-7.0313 7.0312,-7.0313 3.9376,0 7.0313,3.1876 7.0313,7.0313 0,3.8437 -3.0937,7.0313 -7.0313,7.0313 z M 48.75,54 l 1.5,-4.4062 -3.375,-3.375 -4.4062,1.5 c -1.125,-0.6563 -2.4376,-1.125 -3.6563,-1.5 L 36.75,42.0938 H 32.0625 L 30,46.2188 c -1.3125,0.375 -2.5312,0.8437 -3.6562,1.5 l -4.4063,-1.5 -3.2813,3.2812 1.4063,4.4062 c -0.6563,1.125 -1.125,2.4376 -1.5,3.6563 l -4.125,2.0625 v 4.6875 l 4.125,2.0625 c 0.375,1.3125 0.8437,2.5312 1.5,3.6562 l -1.4063,4.4063 3.2813,3.2813 4.4063,-1.4063 c 1.125,0.6563 2.3437,1.125 3.6562,1.5 l 2.0625,4.125 H 36.75 l 2.0625,-4.125 c 1.3125,-0.375 2.5313,-0.8437 3.6563,-1.5 l 4.4062,1.5 3.2812,-3.375 L 48.75,70.125 c 0.6562,-1.125 1.125,-2.3438 1.5,-3.6562 l 4.125,-2.0626 V 59.7188 L 50.25,57.6562 C 49.875,56.3438 49.4062,55.125 48.75,54 Z"
               stroke="#bc8c00"
               stroke-width="1.7647"
               fill="#ffc000"
               transform="matrix(1,0,0,1.01111,1638,1416)"
               id="path265" />
          </g>
        </g>
      </g>
      <path
         d="m 2114.5,1912.5 h 6 v 7 h -6 z"
         stroke="#bc8c00"
         stroke-width="1.33333"
         stroke-miterlimit="8"
         fill="#ffc000"
         fill-rule="evenodd"
         id="path273" />
      <path
         d="m 2114.5,1923.5 h 6 v 5 h -6 z"
         stroke="#bc8c00"
         stroke-width="1.33333"
         stroke-miterlimit="8"
         fill="#ffc000"
         fill-rule="evenodd"
         id="path275" />
      <path
         d="m 2123.5,1923.5 h 28 v 5 h -28 z"
         stroke="#bc8c00"
         stroke-width="1.33333"
         stroke-miterlimit="8"
         fill="#ffc000"
         fill-rule="evenodd"
         id="path277" />
      <path
         d="m 2083.5,1923.5 h 27 v 5 h -27 z"
         stroke="#bc8c00"
         stroke-width="1.33333"
         stroke-miterlimit="8"
         fill="#ffc000"
         fill-rule="evenodd"
         id="path279" />
      <path
         d="m 2144.14,1899.5 h -53.28 c -1.86,0 -3.36,1.3 -3.36,2.91 v 7.18 c 0,1.61 1.5,2.91 3.36,2.91 h 53.28 c 1.86,0 3.36,-1.3 3.36,-2.91 v -7.18 c 0,-1.61 -1.5,-2.91 -3.36,-2.91 z m -47.26,8.13 c -1.04,0 -1.88,-0.73 -1.88,-1.63 0,-0.9 0.84,-1.62 1.88,-1.62 1.03,0 1.87,0.72 1.87,1.62 0,0.9 -0.84,1.63 -1.87,1.63 z m 9.37,0 c -1.04,0 -1.87,-0.73 -1.87,-1.63 0,-0.9 0.83,-1.62 1.87,-1.62 1.04,0 1.87,0.72 1.87,1.62 0,0.9 -0.83,1.63 -1.87,1.63 z m 9.37,0 c -1.03,0 -1.87,-0.73 -1.87,-1.63 0,-0.9 0.84,-1.62 1.87,-1.62 1.04,0 1.88,0.72 1.88,1.62 0,0.9 -0.84,1.63 -1.88,1.63 z"
         stroke="#bc8c00"
         stroke-width="1.33333"
         stroke-miterlimit="8"
         fill="#ffc000"
         fill-rule="evenodd"
         id="path281" />
      <path
         d="m 2144.14,1881.5 h -53.28 c -1.86,0 -3.36,1.4 -3.36,3.13 v 7.74 c 0,1.73 1.5,3.13 3.36,3.13 h 53.28 c 1.86,0 3.36,-1.4 3.36,-3.13 v -7.74 c 0,-1.73 -1.5,-3.13 -3.36,-3.13 z m -47.26,8.75 c -1.04,0 -1.88,-0.78 -1.88,-1.75 0,-0.97 0.84,-1.75 1.88,-1.75 1.03,0 1.87,0.78 1.87,1.75 0,0.97 -0.84,1.75 -1.87,1.75 z m 9.37,0 c -1.04,0 -1.87,-0.78 -1.87,-1.75 0,-0.97 0.83,-1.75 1.87,-1.75 1.04,0 1.87,0.78 1.87,1.75 0,0.97 -0.83,1.75 -1.87,1.75 z m 9.37,0 c -1.03,0 -1.87,-0.78 -1.87,-1.75 0,-0.97 0.84,-1.75 1.87,-1.75 1.04,0 1.88,0.78 1.88,1.75 0,0.97 -0.84,1.75 -1.88,1.75 z"
         stroke="#bc8c00"
         stroke-width="1.33333"
         stroke-miterlimit="8"
         fill="#ffc000"
         fill-rule="evenodd"
         id="path283" />
      <path
         d="m 2144.14,1864.5 h -53.28 c -1.86,0 -3.36,1.4 -3.36,3.13 v 7.74 c 0,1.73 1.5,3.13 3.36,3.13 h 53.28 c 1.86,0 3.36,-1.4 3.36,-3.13 v -7.74 c 0,-1.73 -1.5,-3.13 -3.36,-3.13 z m -47.26,8.75 c -1.04,0 -1.88,-0.78 -1.88,-1.75 0,-0.97 0.84,-1.75 1.88,-1.75 1.03,0 1.87,0.78 1.87,1.75 0,0.97 -0.84,1.75 -1.87,1.75 z m 9.37,0 c -1.04,0 -1.87,-0.78 -1.87,-1.75 0,-0.97 0.83,-1.75 1.87,-1.75 1.04,0 1.87,0.78 1.87,1.75 0,0.97 -0.83,1.75 -1.87,1.75 z m 9.37,0 c -1.03,0 -1.87,-0.78 -1.87,-1.75 0,-0.97 0.84,-1.75 1.87,-1.75 1.04,0 1.88,0.78 1.88,1.75 0,0.97 -0.84,1.75 -1.88,1.75 z"
         stroke="#bc8c00"
         stroke-width="1.33333"
         stroke-miterlimit="8"
         fill="#ffc000"
         fill-rule="evenodd"
         id="path285" />
      <text
         fill="#1fc2a7"
         font-family="Calibri, Calibri_MSFontService, sans-serif"
         font-weight="400"
         font-size="53px"
         transform="translate(2091.57,2170)"
         id="text297">Transfer<tspan
   font-size="53px"
   x="0"
   y="64"
   id="tspan287">Training</tspan><tspan
   font-size="53px"
   x="0"
   y="128"
   id="tspan289">Application</tspan><tspan
   fill="#0bb5dd"
   font-size="53px"
   x="-508.633"
   y="119"
   id="tspan291">Data quality</tspan><tspan
   fill="#0bb5dd"
   font-size="53px"
   x="-583.09302"
   y="183"
   id="tspan293">Interoperability</tspan><tspan
   fill="#0bb5dd"
   font-size="53px"
   x="-586.35303"
   y="247"
   id="tspan295">Standardization</tspan></text>
      <path
         d="M 0,0 1.04987e-4,247.101"
         stroke="#0bb5dd"
         stroke-width="8"
         stroke-miterlimit="8"
         fill="none"
         fill-rule="evenodd"
         transform="matrix(1,0,0,-1,1866,2447.1)"
         id="path299" />
      <path
         d="M 0,0 1.04987e-4,159.15"
         stroke="#0bb5dd"
         stroke-width="8"
         stroke-miterlimit="8"
         fill="none"
         fill-rule="evenodd"
         transform="matrix(0,-1,-1,0,1869.15,2447)"
         id="path301" />
      <path
         d="m 1570.5,1803.5 c 0,-112.11 90.89,-203 203,-203 112.11,0 203,90.89 203,203 0,112.11 -90.89,203 -203,203 -112.11,0 -203,-90.89 -203,-203 z"
         stroke="#0684a2"
         stroke-width="1.33333"
         stroke-miterlimit="8"
         fill="#0bb5dd"
         fill-rule="evenodd"
         id="path303" />
      <g
         clip-path="url(#clip20)"
         id="g313">
        <g
           clip-path="url(#clip21)"
           id="g311">
          <g
             clip-path="url(#clip22)"
             id="g309">
            <path
               d="m 122.667,57.5 c 0,16.9367 -13.73,30.6667 -30.667,30.6667 -16.9367,0 -30.6667,-13.73 -30.6667,-30.6667 0,-16.9367 13.73,-30.6667 30.6667,-30.6667 16.937,0 30.667,13.73 30.667,30.6667 z"
               fill="#2d3e50"
               transform="matrix(-1,0,0,1,1790,1619)"
               id="path305" />
            <path
               d="M 153.333,157.167 V 126.5 c 0,-4.6 -2.3,-9.2 -6.133,-12.267 -8.433,-6.9 -19.167,-11.5 -29.9,-14.5663 -7.667,-2.3 -16.1,-3.8334 -25.3,-3.8334 -8.4333,0 -16.8667,1.5334 -25.3,3.8334 C 55.9667,102.733 45.2333,108.1 36.8,114.233 32.9667,117.3 30.6667,121.9 30.6667,126.5 v 30.667 z"
               fill="#2d3e50"
               transform="matrix(-1,0,0,1,1790,1619)"
               id="path307" />
          </g>
        </g>
      </g>
      <g
         clip-path="url(#clip23)"
         id="g337">
        <g
           clip-path="url(#clip24)"
           id="g335">
          <g
             clip-path="url(#clip25)"
             id="g333">
            <path
               d="m 122.667,57.5 c 0,16.9367 -13.73,30.6667 -30.667,30.6667 -16.9367,0 -30.6667,-13.73 -30.6667,-30.6667 0,-16.9367 13.73,-30.6667 30.6667,-30.6667 16.937,0 30.667,13.73 30.667,30.6667 z"
               fill="#2d3e50"
               transform="matrix(-1,0,0,1,1954,1619)"
               id="path315" />
            <path
               d="M 58.65,156.4 46,127.842 v -19.359 c 0,-2.3 1.3417,-4.6 3.2583,-5.75 1.15,-0.575 1.5334,-1.916 0.9584,-2.8747 -0.3834,-0.7666 -1.15,-1.3416 -2.1084,-1.15 h -21.85 c -1.15,0 -2.3,0.7667 -2.3,2.1087 0,0.958 0.3834,1.725 1.15,2.108 2.1084,1.15 3.2584,3.45 3.2584,5.75 v 19.358 L 15.9083,156.4 c -1.5333,3.258 0,7.283 3.45,8.625 0.7667,0.383 1.725,0.575 2.6834,0.575 h 30.6666 c 3.6417,0 6.5167,-2.875 6.5167,-6.517 0,-0.958 -0.1917,-1.916 -0.575,-2.683 z M 32.9667,112.892 v -4.409 c 0,-1.916 -0.3834,-3.833 -1.5334,-5.558 H 43.125 c -0.9583,1.725 -1.5333,3.642 -1.5333,5.558 v 4.409 z"
               fill="#2d3e50"
               transform="matrix(-1,0,0,1,1954,1619)"
               id="path317" />
            <path
               d="m 42.7417,72.2583 c 0,1.7996 -1.4588,3.2584 -3.2584,3.2584 -1.7995,0 -3.2583,-1.4588 -3.2583,-3.2584 0,-1.7995 1.4588,-3.2583 3.2583,-3.2583 1.7996,0 3.2584,1.4588 3.2584,3.2583 z"
               fill="#2d3e50"
               transform="matrix(-1,0,0,1,1954,1619)"
               id="path319" />
            <path
               d="m 48.3,82.225 c 0,1.7995 -1.4588,3.2583 -3.2583,3.2583 -1.7996,0 -3.2584,-1.4588 -3.2584,-3.2583 0,-1.7995 1.4588,-3.2583 3.2584,-3.2583 1.7995,0 3.2583,1.4588 3.2583,3.2583 z"
               fill="#2d3e50"
               transform="matrix(-1,0,0,1,1954,1619)"
               id="path321" />
            <path
               d="m 36.225,79.925 c 0,1.7995 -1.4588,3.2583 -3.2583,3.2583 -1.7996,0 -3.2584,-1.4588 -3.2584,-3.2583 0,-1.7995 1.4588,-3.2583 3.2584,-3.2583 1.7995,0 3.2583,1.4588 3.2583,3.2583 z"
               fill="#2d3e50"
               transform="matrix(-1,0,0,1,1954,1619)"
               id="path323" />
            <path
               d="m 39.4833,92 c 0,2.4347 -1.9736,4.4083 -4.4083,4.4083 -2.4347,0 -4.4083,-1.9736 -4.4083,-4.4083 0,-2.4347 1.9736,-4.4083 4.4083,-4.4083 2.4347,0 4.4083,1.9736 4.4083,4.4083 z"
               fill="#2d3e50"
               transform="matrix(-1,0,0,1,1954,1619)"
               id="path325" />
            <path
               d="m 82.4167,139.725 -13.8,-14.567 7.6666,-9.583 v -0.192 l -11.6916,1.15 0.3833,-16.291 c -4.6,1.533 -9.2,3.258 -13.6083,5.366 -0.7667,0.767 -1.3417,1.917 -1.5334,3.067 v 18.4 L 62.1,154.867 c 0.3833,0.766 0.575,1.533 0.7667,2.3 h 19.55 z"
               fill="#2d3e50"
               transform="matrix(-1,0,0,1,1954,1619)"
               id="path327" />
            <path
               d="m 86.25,138 v 19.167 h 11.5 V 138 l 13.8,-39.8667 c -6.517,-1.5333 -13.0333,-2.3 -19.55,-2.3 -6.5167,0 -13.0333,0.7667 -19.3583,2.3 z"
               fill="#2d3e50"
               transform="matrix(-1,0,0,1,1954,1619)"
               id="path329" />
            <path
               d="m 147.2,114.233 c -8.433,-6.516 -18.017,-11.116 -28.175,-13.991 l 0.383,16.291 -11.691,-1.15 v 0.192 l 7.666,9.583 -13.8,14.567 v 17.442 h 51.75 V 126.5 c -0.191,-4.792 -2.3,-9.392 -6.133,-12.267 z"
               fill="#2d3e50"
               transform="matrix(-1,0,0,1,1954,1619)"
               id="path331" />
          </g>
        </g>
      </g>
      <g
         clip-path="url(#clip26)"
         id="g347">
        <g
           clip-path="url(#clip27)"
           id="g345">
          <g
             clip-path="url(#clip28)"
             id="g343">
            <path
               d="m 134,62.8125 c 0,18.5015 -14.998,33.5 -33.5,33.5 -18.5015,0 -33.5,-14.9985 -33.5,-33.5 0,-18.5015 14.9985,-33.5 33.5,-33.5 18.502,0 33.5,14.9985 33.5,33.5 z"
               fill="#2d3e50"
               transform="matrix(-1.00498,0,0,1,1869,1652)"
               id="path339" />
            <path
               d="m 167.5,171.688 v -33.5 c 0,-5.026 -2.512,-10.051 -6.7,-13.401 -9.212,-7.537 -20.937,-12.562 -32.663,-15.912 -8.374,-2.513 -17.587,-4.187 -27.637,-4.187 -9.2125,0 -18.425,1.674 -27.6375,4.187 -11.725,3.35 -23.45,9.213 -32.6625,15.912 -4.1875,3.35 -6.7,8.375 -6.7,13.401 v 33.5 z"
               fill="#2d3e50"
               transform="matrix(-1.00498,0,0,1,1869,1652)"
               id="path341" />
          </g>
        </g>
      </g>
      <text
         fill="#2d3e50"
         font-family="Calibri, Calibri_MSFontService, sans-serif"
         font-weight="400"
         font-size="53px"
         transform="translate(1680.49,1870)"
         id="text353">research<tspan
   font-size="53px"
   x="-30.02"
   y="64"
   id="tspan349">community</tspan><tspan
   fill="#ffc000"
   font-weight="700"
   font-size="48px"
   x="33.508499"
   y="-738"
   id="tspan351">TA II</tspan></text>
      <path
         d="M 0,0 1.04987e-4,247.101"
         stroke="#ffc000"
         stroke-width="8"
         stroke-miterlimit="8"
         fill="none"
         fill-rule="evenodd"
         transform="matrix(-1,0,0,1,1682,1151)"
         id="path355" />
      <path
         d="M 0,0 1.04987e-4,159.15"
         stroke="#ffc000"
         stroke-width="8"
         stroke-miterlimit="8"
         fill="none"
         fill-rule="evenodd"
         transform="matrix(0,1,1,0,1680,1155)"
         id="path357" />
      <text
         fill="#808080"
         font-family="Calibri, Calibri_MSFontService, sans-serif"
         font-weight="700"
         font-size="48px"
         transform="translate(1343.25,1248)"
         id="text371">TA IV<tspan
   fill="#0bb5dd"
   font-size="48px"
   x="410.29599"
   y="1245"
   id="tspan359">TA I</tspan><tspan
   fill="#1fc2a7"
   font-size="48px"
   x="760.87799"
   y="1131"
   id="tspan361">TA III</tspan><tspan
   fill="#0bb5dd"
   font-style="italic"
   font-weight="400"
   font-size="48px"
   x="138.153"
   y="1299"
   id="tspan363">Prof. Björn Usadel</tspan><tspan
   fill="#1fc2a7"
   font-style="italic"
   font-weight="400"
   font-size="48px"
   x="762.44598"
   y="1189"
   id="tspan365">Jun. Prof. Dr. Timo Mühlhaus</tspan><tspan
   fill="#ffc000"
   font-style="italic"
   font-weight="400"
   font-size="48px"
   x="365.77399"
   y="-177"
   id="tspan367">Dr. Jens Krüger</tspan><tspan
   fill="#7f7f7f"
   font-style="italic"
   font-weight="400"
   font-size="48px"
   x="-363.87799"
   y="-53"
   id="tspan369">Dr. Dirk von Suchodoletz</tspan></text>
    </g>
  </g>
</svg>
