<svg width="2593" height="1272" xmlns="http://www.w3.org/2000/svg" xmlns:xlink="http://www.w3.org/1999/xlink" xml:space="preserve" overflow="hidden"><g transform="translate(-721 -607)"><path d="M1842.25 1057 1938 1154.72 1938 1155 1864.22 1155C1851.39 1155 1841 1144.6 1841 1131.78L1841 1057Z" stroke="#6B8BAC" stroke-width="27.5" stroke-linejoin="round" stroke-miterlimit="10" fill="#CEF7F0" fill-rule="evenodd"/><path d="M1583 1078.24C1583 1065.47 1593.33 1055.12 1606.07 1055.12L1842.87 1055 1938 1152.25 1937.94 1474.89C1937.94 1487.65 1927.61 1498 1914.87 1498L1606.07 1498C1593.33 1498 1583 1487.65 1583 1474.89L1583 1078.24Z" stroke="#6B8BAC" stroke-width="27.5" stroke-linejoin="round" stroke-miterlimit="10" fill="none" fill-rule="evenodd"/><path d="M1487 1156.24C1487 1143.47 1497.33 1133.12 1510.07 1133.12L1746.87 1133 1842 1230.25 1841.94 1552.89C1841.94 1565.65 1831.61 1576 1818.87 1576L1510.07 1576C1497.33 1576 1487 1565.65 1487 1552.89L1487 1156.24Z" stroke="#6B8BAC" stroke-width="27.5" stroke-linejoin="round" stroke-miterlimit="10" fill="#FFFFFF" fill-rule="evenodd"/><path d="M1552 1217 1668.72 1217" stroke="#6B8BAC" stroke-width="27.5" stroke-linecap="round" stroke-miterlimit="8" fill="none" fill-rule="evenodd"/><path d="M1552 1306 1781.87 1306" stroke="#6B8BAC" stroke-width="27.5" stroke-linecap="round" stroke-miterlimit="8" fill="none" fill-rule="evenodd"/><path d="M1552 1395 1710.77 1395" stroke="#6B8BAC" stroke-width="27.5" stroke-linecap="round" stroke-miterlimit="8" fill="none" fill-rule="evenodd"/><path d="M1552 1484 1745.57 1484" stroke="#6B8BAC" stroke-width="27.5" stroke-linecap="round" stroke-miterlimit="8" fill="none" fill-rule="evenodd"/><path d="M1747.24 1136 1842 1232.72 1842 1233 1768.98 1233C1756.29 1233 1746 1222.71 1746 1210.01L1746 1136Z" stroke="#6B8BAC" stroke-width="27.5" stroke-linejoin="round" stroke-miterlimit="10" fill="#CEF7F0" fill-rule="evenodd"/><path d="M1393.68 1604.93C1380.23 1642.93 1332.44 1760.65 1324.25 1782.69 1313.29 1812.21 1282.45 1865.16 1352.6 1865L1739.63 1864.78C1803.43 1866.54 1766.53 1808.33 1753.76 1777.14 1741 1745.95 1721.35 1694.58 1702.12 1633.48 1657.33 1603.74 1646.3 1598.49 1605.07 1569.47 1558.08 1568.65 1525.66 1569.05 1435.72 1569.52 1408.35 1569.66 1406.14 1569.72 1393.68 1604.93Z" stroke="#6B8BAC" stroke-width="27.5" stroke-miterlimit="8" fill="#FFFFFF" fill-rule="evenodd"/><path d="M1609 1575C1614.75 1597.38 1615.32 1621.51 1628.36 1630.52 1641.4 1639.54 1662.09 1635.21 1695 1633.02 1672.7 1619.7 1628.07 1587.44 1609 1575Z" stroke="#6B8BAC" stroke-width="27.5" stroke-miterlimit="8" fill="#DAE3F3" fill-rule="evenodd"/><path d="M1394.68 1537.93C1381.23 1575.93 1333.44 1693.65 1325.25 1715.7 1314.29 1745.21 1283.45 1798.16 1353.6 1798L1740.63 1797.78C1804.43 1799.54 1767.53 1741.33 1754.76 1710.14 1742 1678.95 1722.35 1627.58 1703.12 1566.48 1658.33 1536.74 1647.3 1531.49 1606.07 1502.47 1559.08 1501.65 1526.66 1502.05 1436.72 1502.52 1409.35 1502.66 1407.14 1502.72 1394.68 1537.93Z" stroke="#6B8BAC" stroke-width="27.5" stroke-miterlimit="8" fill="#FFFFFF" fill-rule="evenodd"/><path d="M1610 1508C1615.75 1530.38 1616.32 1554.51 1629.36 1563.52 1642.4 1572.54 1663.09 1568.21 1696 1566.02 1673.7 1552.7 1629.07 1520.44 1610 1508Z" stroke="#6B8BAC" stroke-width="27.5" stroke-miterlimit="8" fill="#DAE3F3" fill-rule="evenodd"/><path d="M1394.68 1472.93C1381.23 1510.93 1333.44 1628.65 1325.25 1650.69 1314.29 1680.21 1283.45 1733.16 1353.6 1733L1740.63 1732.78C1804.43 1734.54 1767.53 1676.33 1754.76 1645.14 1742 1613.95 1722.35 1562.58 1703.12 1501.48 1658.33 1471.74 1647.3 1466.49 1606.07 1437.47 1559.08 1436.65 1526.66 1437.05 1436.72 1437.52 1409.35 1437.66 1407.14 1437.72 1394.68 1472.93Z" stroke="#6B8BAC" stroke-width="27.5" stroke-miterlimit="8" fill="#FFFFFF" fill-rule="evenodd"/><path d="M1610 1444C1615.75 1466.01 1616.32 1489.75 1629.36 1498.61 1642.4 1507.48 1663.09 1503.23 1696 1501.07 1673.7 1487.96 1629.07 1456.24 1610 1444Z" stroke="#6B8BAC" stroke-width="27.5" stroke-miterlimit="8" fill="#DAE3F3" fill-rule="evenodd"/><path d="M1388.26 1408.93C1374.09 1446.93 1323.74 1564.65 1315.12 1586.69 1303.57 1616.21 1271.09 1669.16 1344.98 1669L1752.69 1668.78C1819.9 1670.54 1781.02 1612.33 1767.57 1581.14 1754.13 1549.95 1733.43 1498.58 1713.17 1437.48 1665.99 1407.74 1654.37 1402.49 1610.94 1373.47 1561.44 1372.65 1527.29 1373.05 1432.54 1373.52 1403.71 1373.66 1401.38 1373.72 1388.26 1408.93Z" stroke="#6B8BAC" stroke-width="27.5" stroke-miterlimit="8" fill="#FFFFFF" fill-rule="evenodd"/><path d="M1424 1429 1587.29 1429" stroke="#6B8BAC" stroke-width="27.5" stroke-linecap="round" stroke-miterlimit="8" fill="none" fill-rule="evenodd"/><path d="M1411 1475 1689.86 1475" stroke="#6B8BAC" stroke-width="27.5" stroke-linecap="round" stroke-miterlimit="8" fill="none" fill-rule="evenodd"/><path d="M1385 1531 1607.12 1531" stroke="#6B8BAC" stroke-width="27.5" stroke-linecap="round" stroke-miterlimit="8" fill="none" fill-rule="evenodd"/><path d="M1359 1597 1653.79 1597" stroke="#6B8BAC" stroke-width="27.5" stroke-linecap="round" stroke-miterlimit="8" fill="none" fill-rule="evenodd"/><path d="M1612 1376C1618.62 1400.21 1619.28 1426.32 1634.29 1436.08 1649.3 1445.83 1673.11 1441.15 1711 1438.77 1685.32 1424.36 1633.95 1389.46 1612 1376Z" stroke="#6B8BAC" stroke-width="27.5" stroke-miterlimit="8" fill="#CAF3FC" fill-rule="evenodd"/><path d="M1252.5 1475.66 1243.92 1461.5 1240.52 1445.2 1238.88 1430.36 1238.66 1415.43 1239.87 1400.52 1242.51 1385.74 1246.6 1371.19 1252.14 1357 1259.14 1343.26 1267.6 1330.11 1277.52 1317.65 1288.91 1306.03 1301.37 1295.72 1314.75 1286.81 1328.94 1279.34 1343.83 1273.37 1359.11 1269.01 1367.2 1267.37 1375.2 1266.17 1383.29 1265.38 1391.09 1265.04 1392.3 1292.51 1384.87 1292.84 1385.58 1292.79 1378.21 1293.51 1378.92 1293.42 1371.62 1294.51 1372.32 1294.39 1365.11 1295.85 1366.15 1295.6 1352.06 1299.62 1353.4 1299.16 1339.83 1304.6 1341.12 1304.01 1328.18 1310.82 1329.4 1310.09 1317.2 1318.22 1318.35 1317.37 1307 1326.76 1308.05 1325.79 1297.66 1336.39 1298.59 1335.34 1289.54 1346.7 1290.35 1345.57 1282.64 1357.56 1283.33 1356.36 1276.96 1368.87 1277.51 1367.63 1272.47 1380.56 1272.89 1379.28 1269.17 1392.54 1269.47 1391.24 1267.06 1404.71 1267.23 1403.4 1266.12 1417 1266.17 1415.69 1266.37 1429.3 1266.29 1427.99 1267.78 1441.53 1267.58 1440.23 1270.36 1453.58 1268.66 1449.27 1276.02 1461.41ZM1292.15 1435.18 1300.36 1527.05 1221.94 1478.49Z" fill="#2D3E50"/><text fill="#2D3E50" font-family="Calibri,Calibri_MSFontService,sans-serif" font-weight="700" font-size="202" transform="matrix(1 0 0 1 842.202 1010)">&lt;metadata&gt;</text><path d="M2040.5 1255.5 2721.39 1255.5" stroke="#6B8BAC" stroke-width="20.625" stroke-miterlimit="8" fill="none" fill-rule="evenodd"/><path d="M0 0 0.000360892 213.735" stroke="#6B8BAC" stroke-width="20.625" stroke-miterlimit="8" fill="none" fill-rule="evenodd" transform="matrix(1 0 0 -1 1869.5 981.235)"/><path d="M1865.5 776.5 2307.59 776.5" stroke="#6B8BAC" stroke-width="20.625" stroke-miterlimit="8" fill="none" fill-rule="evenodd"/><path d="M2024.5 1023.5 2483.99 1023.5" stroke="#6B8BAC" stroke-width="20.625" stroke-miterlimit="8" fill="none" fill-rule="evenodd"/><path d="M0 0 0.000360892 120.443" stroke="#6B8BAC" stroke-width="20.625" stroke-miterlimit="8" fill="none" fill-rule="evenodd" transform="matrix(1 0 0 -1 2045.5 1263.94)"/><path d="M1582.94 1092.54C1619.56 915.176 1793.02 801.081 1970.38 837.697 2147.74 874.314 2261.84 1047.78 2225.22 1225.14 2188.6 1402.5 2015.14 1516.59 1837.78 1479.98 1660.42 1443.36 1546.33 1269.9 1582.94 1092.54Z" stroke="#2D3E50" stroke-width="27.5" stroke-linecap="round" stroke-miterlimit="8" fill="#CAF3FC" fill-rule="evenodd" fill-opacity="0.341176"/><path d="M2508.31 1541.13C2508.36 1556.05 2504.26 1571.15 2495.74 1584.54 2483.28 1602.58 2465.07 1613.79 2445.47 1617.38 2425.86 1620.98 2404.86 1616.94 2386.81 1604.49L2225.72 1493.27C2203.81 1478.14 2192.68 1454.29 2192.65 1429.52L2168.7 1412.99 2175.95 1404.92C2184.73 1394.16 2193 1382.97 2200.72 1371.39L2218.9 1341.08 2242.48 1357.35C2265.64 1348.61 2291.89 1350.55 2313.8 1365.68L2474.9 1476.9C2496.65 1491.91 2508.23 1516.26 2508.31 1541.13Z" stroke="#2D3E50" stroke-width="27.5" stroke-linecap="round" stroke-miterlimit="8" fill="#2D3E50" fill-rule="evenodd"/><text fill="#2D3E50" font-family="Calibri,Calibri_MSFontService,sans-serif" font-weight="400" font-size="110" transform="matrix(1 0 0 1 2640.66 1227)">structural</text><text fill="#2D3E50" font-family="Calibri,Calibri_MSFontService,sans-serif" font-weight="400" font-size="110" transform="matrix(1 0 0 1 2378.19 985)">descriptive</text><text fill="#2D3E50" font-family="Calibri,Calibri_MSFontService,sans-serif" font-weight="400" font-size="110" transform="matrix(1 0 0 1 2199.26 744)">administrative</text><path d="M1973.5 1022C1973.5 1003.5 1988.5 988.5 2007 988.5 2025.5 988.5 2040.5 1003.5 2040.5 1022 2040.5 1040.5 2025.5 1055.5 2007 1055.5 1988.5 1055.5 1973.5 1040.5 1973.5 1022Z" stroke="#148E7A" stroke-width="4.58333" stroke-miterlimit="8" fill="#1FC2A7" fill-rule="evenodd"/><path d="M1836.5 989C1836.5 970.499 1851.27 955.5 1869.5 955.5 1887.73 955.5 1902.5 970.499 1902.5 989 1902.5 1007.5 1887.73 1022.5 1869.5 1022.5 1851.27 1022.5 1836.5 1007.5 1836.5 989Z" stroke="#148E7A" stroke-width="4.58333" stroke-miterlimit="8" fill="#1FC2A7" fill-rule="evenodd"/><path d="M2012.5 1144C2012.5 1125.5 2027.5 1110.5 2046 1110.5 2064.5 1110.5 2079.5 1125.5 2079.5 1144 2079.5 1162.5 2064.5 1177.5 2046 1177.5 2027.5 1177.5 2012.5 1162.5 2012.5 1144Z" stroke="#148E7A" stroke-width="4.58333" stroke-miterlimit="8" fill="#1FC2A7" fill-rule="evenodd"/></g></svg>