<svg width="2266" height="1363" xmlns="http://www.w3.org/2000/svg" xmlns:xlink="http://www.w3.org/1999/xlink" xml:space="preserve" overflow="hidden"><g transform="translate(-1052 -625)"><path d="M2200.5 1232C2200.5 1187.54 2236.54 1151.5 2281 1151.5 2325.46 1151.5 2361.5 1187.54 2361.5 1232 2361.5 1276.46 2325.46 1312.5 2281 1312.5 2236.54 1312.5 2200.5 1276.46 2200.5 1232Z" stroke="#2D3E50" stroke-width="4.58333" stroke-miterlimit="8" fill="#2D3E50" fill-rule="evenodd"/><path d="M1760.5 1818.5C1760.5 1773.77 1796.54 1737.5 1841 1737.5 1885.46 1737.5 1921.5 1773.77 1921.5 1818.5 1921.5 1863.24 1885.46 1899.5 1841 1899.5 1796.54 1899.5 1760.5 1863.24 1760.5 1818.5Z" stroke="#2D3E50" stroke-width="4.58333" stroke-miterlimit="8" fill="#2D3E50" fill-rule="evenodd"/><path d="M1298.5 1602C1298.5 1557.54 1334.54 1521.5 1379 1521.5 1423.46 1521.5 1459.5 1557.54 1459.5 1602 1459.5 1646.46 1423.46 1682.5 1379 1682.5 1334.54 1682.5 1298.5 1646.46 1298.5 1602Z" stroke="#2D3E50" stroke-width="4.58333" stroke-miterlimit="8" fill="#2D3E50" fill-rule="evenodd"/><path d="M1643.5 1607C1643.5 1574.14 1669.69 1547.5 1702 1547.5 1734.31 1547.5 1760.5 1574.14 1760.5 1607 1760.5 1639.86 1734.31 1666.5 1702 1666.5 1669.69 1666.5 1643.5 1639.86 1643.5 1607Z" stroke="#2D3E50" stroke-width="4.58333" stroke-miterlimit="8" fill="#2D3E50" fill-rule="evenodd"/><path d="M1765.5 1445C1765.5 1412.14 1791.92 1385.5 1824.5 1385.5 1857.08 1385.5 1883.5 1412.14 1883.5 1445 1883.5 1477.86 1857.08 1504.5 1824.5 1504.5 1791.92 1504.5 1765.5 1477.86 1765.5 1445Z" stroke="#2D3E50" stroke-width="4.58333" stroke-miterlimit="8" fill="#2D3E50" fill-rule="evenodd"/><path d="M2227.5 1798C2227.5 1765.14 2253.92 1738.5 2286.5 1738.5 2319.08 1738.5 2345.5 1765.14 2345.5 1798 2345.5 1830.86 2319.08 1857.5 2286.5 1857.5 2253.92 1857.5 2227.5 1830.86 2227.5 1798Z" stroke="#2D3E50" stroke-width="4.58333" stroke-miterlimit="8" fill="#2D3E50" fill-rule="evenodd"/><path d="M2413.5 1381.5C2413.5 1348.92 2439.69 1322.5 2472 1322.5 2504.31 1322.5 2530.5 1348.92 2530.5 1381.5 2530.5 1414.08 2504.31 1440.5 2472 1440.5 2439.69 1440.5 2413.5 1414.08 2413.5 1381.5Z" stroke="#2D3E50" stroke-width="4.58333" stroke-miterlimit="8" fill="#2D3E50" fill-rule="evenodd"/><path d="M1135.5 1253C1135.5 1220.14 1161.69 1193.5 1194 1193.5 1226.31 1193.5 1252.5 1220.14 1252.5 1253 1252.5 1285.86 1226.31 1312.5 1194 1312.5 1161.69 1312.5 1135.5 1285.86 1135.5 1253Z" stroke="#2D3E50" stroke-width="4.58333" stroke-miterlimit="8" fill="#2D3E50" fill-rule="evenodd"/><path d="M1758.5 1167C1758.5 1150.16 1772.16 1136.5 1789 1136.5 1805.84 1136.5 1819.5 1150.16 1819.5 1167 1819.5 1183.84 1805.84 1197.5 1789 1197.5 1772.16 1197.5 1758.5 1183.84 1758.5 1167Z" stroke="#2D3E50" stroke-width="4.58333" stroke-miterlimit="8" fill="#2D3E50" fill-rule="evenodd"/><path d="M2129 1021C2129 1003.88 2142.66 990 2159.5 990 2176.34 990 2190 1003.88 2190 1021 2190 1038.12 2176.34 1052 2159.5 1052 2142.66 1052 2129 1038.12 2129 1021Z" fill="#0BB5DD" fill-rule="evenodd"/><path d="M2403.5 1012C2403.5 995.155 2416.93 981.5 2433.5 981.5 2450.07 981.5 2463.5 995.155 2463.5 1012 2463.5 1028.84 2450.07 1042.5 2433.5 1042.5 2416.93 1042.5 2403.5 1028.84 2403.5 1012Z" stroke="#2D3E50" stroke-width="4.58333" stroke-miterlimit="8" fill="#2D3E50" fill-rule="evenodd"/><path d="M2297.5 1377C2297.5 1360.16 2310.93 1346.5 2327.5 1346.5 2344.07 1346.5 2357.5 1360.16 2357.5 1377 2357.5 1393.84 2344.07 1407.5 2327.5 1407.5 2310.93 1407.5 2297.5 1393.84 2297.5 1377Z" stroke="#2D3E50" stroke-width="4.58333" stroke-miterlimit="8" fill="#2D3E50" fill-rule="evenodd"/><path d="M2126.5 1580.5C2126.5 1563.38 2139.93 1549.5 2156.5 1549.5 2173.07 1549.5 2186.5 1563.38 2186.5 1580.5 2186.5 1597.62 2173.07 1611.5 2156.5 1611.5 2139.93 1611.5 2126.5 1597.62 2126.5 1580.5Z" stroke="#2D3E50" stroke-width="4.58333" stroke-miterlimit="8" fill="#2D3E50" fill-rule="evenodd"/><path d="M2409.5 1775C2409.5 1758.16 2422.93 1744.5 2439.5 1744.5 2456.07 1744.5 2469.5 1758.16 2469.5 1775 2469.5 1791.84 2456.07 1805.5 2439.5 1805.5 2422.93 1805.5 2409.5 1791.84 2409.5 1775Z" stroke="#2D3E50" stroke-width="4.58333" stroke-miterlimit="8" fill="#2D3E50" fill-rule="evenodd"/><path d="M2141.5 1930C2141.5 1913.16 2155.16 1899.5 2172 1899.5 2188.84 1899.5 2202.5 1913.16 2202.5 1930 2202.5 1946.84 2188.84 1960.5 2172 1960.5 2155.16 1960.5 2141.5 1946.84 2141.5 1930Z" stroke="#2D3E50" stroke-width="4.58333" stroke-miterlimit="8" fill="#2D3E50" fill-rule="evenodd"/><path d="M1148.5 1718.5C1148.5 1701.38 1161.93 1687.5 1178.5 1687.5 1195.07 1687.5 1208.5 1701.38 1208.5 1718.5 1208.5 1735.62 1195.07 1749.5 1178.5 1749.5 1161.93 1749.5 1148.5 1735.62 1148.5 1718.5Z" stroke="#2D3E50" stroke-width="4.58333" stroke-miterlimit="8" fill="#2D3E50" fill-rule="evenodd"/><path d="M1054.5 1603C1054.5 1586.16 1068.16 1572.5 1085 1572.5 1101.84 1572.5 1115.5 1586.16 1115.5 1603 1115.5 1619.84 1101.84 1633.5 1085 1633.5 1068.16 1633.5 1054.5 1619.84 1054.5 1603Z" stroke="#2D3E50" stroke-width="4.58333" stroke-miterlimit="8" fill="#2D3E50" fill-rule="evenodd"/><path d="M1380 1323.5C1380 1306.66 1393.66 1293 1410.5 1293 1427.34 1293 1441 1306.66 1441 1323.5 1441 1340.34 1427.34 1354 1410.5 1354 1393.66 1354 1380 1340.34 1380 1323.5Z" fill="#2D3E50" fill-rule="evenodd"/><path d="M1196.43 1279.18 1210.99 1271.42 1400.63 1627.39 1386.07 1635.15Z" stroke="#2D3E50" stroke-width="4.58333" stroke-miterlimit="8" fill="#2D3E50" fill-rule="evenodd"/><path d="M1403.46 1302.74 1419.92 1303.91 1396.44 1633.07 1379.98 1631.9Z" fill="#2D3E50" fill-rule="evenodd"/><rect x="1362.5" y="1599.5" width="330" height="16.0001" stroke="#2D3E50" stroke-width="4.58333" stroke-miterlimit="8" fill="#2D3E50"/><path d="M2227.35 1795.33 2227.64 1811.83 1897.69 1817.59 1897.4 1801.09Z" stroke="#2D3E50" stroke-width="4.58333" stroke-miterlimit="8" fill="#2D3E50" fill-rule="evenodd"/><path d="M2213.36 1259.48 2220.32 1274.44 1861.29 1441.5 1854.33 1426.54Z" stroke="#2D3E50" stroke-width="4.58333" stroke-miterlimit="8" fill="#2D3E50" fill-rule="evenodd"/><path d="M1781.87 1172.8 1798.23 1170.62 1833.13 1432.3 1816.78 1434.48Z" stroke="#2D3E50" stroke-width="4.58333" stroke-miterlimit="8" fill="#2D3E50" fill-rule="evenodd"/><path d="M2157.73 1026.11 2172.16 1018.11 2268.15 1191.29 2253.72 1199.28Z" fill="#0BB5DD" fill-rule="evenodd"/><path d="M1811.61 1446.21 1824.69 1456.26 1704.04 1613.26 1690.96 1603.21Z" stroke="#2D3E50" stroke-width="4.58333" stroke-miterlimit="8" fill="#2D3E50" fill-rule="evenodd"/><path d="M1703.39 1609.74 1717.39 1601 1822.31 1768.91 1808.32 1777.65Z" stroke="#2D3E50" stroke-width="4.58333" stroke-miterlimit="8" fill="#2D3E50" fill-rule="evenodd"/><path d="M2159.92 1607.97 2174.06 1599.47 2276.04 1769.19 2261.9 1777.68Z" fill="#2D3E50" fill-rule="evenodd"/><path d="M2420.47 1014.79 2433.65 1024.72 2314.49 1182.85 2301.31 1172.92Z" stroke="#2D3E50" stroke-width="4.58333" stroke-miterlimit="8" fill="#2D3E50" fill-rule="evenodd"/><path d="M2300.12 1768.55 2312.57 1779.38 2182.67 1928.81 2170.22 1917.98Z" stroke="#2D3E50" stroke-width="4.58333" stroke-miterlimit="8" fill="#2D3E50" fill-rule="evenodd"/><path d="M1347.55 1615.6 1355.55 1630.04 1182.38 1726.03 1174.38 1711.6Z" stroke="#2D3E50" stroke-width="4.58333" stroke-miterlimit="8" fill="#2D3E50" fill-rule="evenodd"/><path d="M1422.86 1610.98 1421.99 1627.45 1092.44 1610.18 1093.31 1593.71Z" stroke="#2D3E50" stroke-width="4.58333" stroke-miterlimit="8" fill="#2D3E50" fill-rule="evenodd"/><path d="M2248.73 1213.02 2259.34 1200.38 2461.57 1370.07 2450.97 1382.71Z" stroke="#2D3E50" stroke-width="4.58333" stroke-miterlimit="8" fill="#2D3E50" fill-rule="evenodd"/><path d="M2286.64 1802.54 2284.92 1786.13 2416.2 1772.34 2417.92 1788.75Z" stroke="#2D3E50" stroke-width="4.58333" stroke-miterlimit="8" fill="#2D3E50" fill-rule="evenodd"/><path d="M2275.63 1266.7 2290.9 1260.45 2340.9 1382.62 2325.63 1388.87Z" stroke="#2D3E50" stroke-width="4.58333" stroke-miterlimit="8" fill="#2D3E50" fill-rule="evenodd"/><path d="M1170.5 1122.5C1170.5 1110.35 1180.35 1100.5 1192.5 1100.5L1209.17 1100.5 1209.17 1100.5 1267.17 1100.5 1380.5 1100.5C1392.65 1100.5 1402.5 1110.35 1402.5 1122.5L1402.5 1177.5 1402.5 1177.5 1402.5 1210.5 1402.5 1210.5C1402.5 1222.65 1392.65 1232.5 1380.5 1232.5L1267.17 1232.5 1218.26 1279.92 1209.17 1232.5 1192.5 1232.5C1180.35 1232.5 1170.5 1222.65 1170.5 1210.5L1170.5 1210.5 1170.5 1177.5 1170.5 1177.5Z" stroke="#2D3E50" stroke-width="6.875" stroke-miterlimit="8" fill="#0BB5DD" fill-rule="evenodd" fill-opacity="0.698039"/><path d="M0 22.0005C-3.708e-15 9.84995 9.84994-3.708e-15 22.0005-7.41601e-15L38.8333 0 38.8333 0 97.0834 0 211 0C223.15-7.41601e-15 233 9.84995 233 22.0005L233 77.0001 233 77.0001 233 110 233 110C233 122.15 223.15 132 211 132L97.0834 132 47.963 179.424 38.8333 132 22.0005 132C9.84994 132 0 122.15 0 110L0 110 0 77.0001 0 77.0001Z" stroke="#2D3E50" stroke-width="6.875" stroke-miterlimit="8" fill="#0BB5DD" fill-rule="evenodd" fill-opacity="0.698039" transform="matrix(1 -1.22465e-16 -1.22465e-16 -1 1788.5 1984.5)"/><path d="M0 13.3335C0 5.96962 5.96962-4.10585e-15 13.3335-4.10585e-15L21.5 0 21.5 0 53.75 0 115.666 0C123.03-2.05293e-15 129 5.96962 129 13.3335L129 46.6666 129 46.6666 129 66.6665 129 66.6662C129 74.0301 123.03 79.9997 115.666 79.9997L53.75 79.9997 26.5546 108.741 21.5 79.9997 13.3335 79.9997C5.96962 79.9997 0 74.0301 0 66.6662L0 66.6665 0 46.6666 0 46.6666Z" fill="#24C2BD" fill-rule="evenodd" fill-opacity="0.698039" transform="matrix(-1 0 0 1 2299 1127)"/><path d="M1514.5 1169.5C1514.5 870.161 1757.16 627.5 2056.5 627.5 2355.84 627.5 2598.5 870.161 2598.5 1169.5 2598.5 1468.84 2355.84 1711.5 2056.5 1711.5 1757.16 1711.5 1514.5 1468.84 1514.5 1169.5Z" stroke="#2D3E50" stroke-width="4.58333" stroke-miterlimit="8" fill="#2D3E50" fill-rule="evenodd"/><path d="M2267.7 779.877 2188.14 893.724C2177.32 909.207 2175.83 927.823 2181.95 944.294L2153.94 984.368C2109.91 961.054 2057.24 952.039 2004.64 961.366 1876.99 983.996 1791.07 1106.95 1813.7 1234.6 1836.33 1362.24 1959.28 1448.17 2086.93 1425.54 2214.58 1402.91 2300.5 1279.95 2277.87 1152.31 2268.54 1099.7 2242.11 1054.12 2204.94 1020.01L2232.95 979.937C2250.52 980.014 2267.49 972.218 2278.31 956.735L2357.87 842.888C2366.78 830.137 2369.72 815.252 2367.25 801.326 2364.79 787.401 2356.9 774.436 2344.15 765.525 2318.92 749.252 2284.88 755.286 2267.7 779.877ZM2230.82 1161.45C2248.92 1263.56 2180.18 1361.93 2078.06 1380.03 1975.95 1398.14 1877.58 1329.4 1859.48 1227.28 1841.37 1125.16 1910.11 1026.8 2012.23 1008.69 2114.35 990.589 2212.71 1059.33 2230.82 1161.45Z" stroke="#0BB5DD" stroke-width="13.75" stroke-linecap="round" stroke-miterlimit="8" fill="none" fill-rule="evenodd"/><path d="M1712 1229C1712 1058.9 1849.67 921 2019.5 921 2189.33 921 2327 1058.9 2327 1229 2327 1399.1 2189.33 1537 2019.5 1537 1849.67 1537 1712 1399.1 1712 1229Z" fill="#2D3E50" fill-rule="evenodd"/><path d="M2049.14 1417.91C1921.65 1420.12 1816.51 1318.57 1814.3 1191.08 1812.08 1063.6 1913.63 958.454 2041.12 956.239 2168.61 954.024 2273.75 1055.58 2275.96 1183.06 2276.07 1188.85 2275.95 1194.64 2275.61 1200.42" stroke="#0BB5DD" stroke-width="13.75" stroke-linecap="round" stroke-miterlimit="8" fill="none" fill-rule="evenodd"/><rect x="2082.5" y="1341.5" width="78" height="160" stroke="#0684A2" stroke-width="4.58333" stroke-miterlimit="8" fill="#0BB5DD"/><rect x="2176.5" y="1299.5" width="77" height="202" stroke="#0684A2" stroke-width="4.58333" stroke-miterlimit="8" fill="#0BB5DD"/><rect x="2268.5" y="1257.5" width="77" height="244" stroke="#0684A2" stroke-width="4.58333" stroke-miterlimit="8" fill="#0BB5DD"/><path d="M0 0 46.0881 50.9338" stroke="#0BB5DD" stroke-width="13.75" stroke-linecap="round" stroke-miterlimit="8" fill="none" fill-rule="evenodd" transform="matrix(1 0 0 -1 2274 1213.93)"/><path d="M0 0 46.0878 50.9335" stroke="#0BB5DD" stroke-width="13.75" stroke-linecap="round" stroke-miterlimit="8" fill="none" fill-rule="evenodd" transform="matrix(-1.83697e-16 -1 -1 1.83697e-16 2271.93 1212.09)"/><path d="M1947.75 1239.73C1937.35 1221.56 1937.27 1181.23 1948.4 1157.11 1959.53 1133 1980.22 1099.07 2037.77 1098.24 2057.76 1097.95 2087.07 1093.3 2105.88 1088.76 2124.69 1084.22 2142.32 1070.72 2150.65 1071 2158.98 1071.29 2157.2 1079.05 2155.85 1090.5 2154.51 1101.95 2148.4 1125.07 2142.57 1139.72 2136.74 1154.37 2120.71 1196.99 2108.6 1216.44 2096.49 1235.9 2086.21 1248.18 2069.91 1256.47 2053.61 1264.75 2031.15 1268.93 2010.79 1266.14 1990.43 1263.35 1958.15 1257.9 1947.75 1239.73Z" stroke="#0BB5DD" stroke-width="13.75" stroke-linecap="round" stroke-miterlimit="8" fill="none" fill-rule="evenodd"/><path d="M1925 1297C1934.81 1254.86 1944.63 1212.73 2031 1185" stroke="#0BB5DD" stroke-width="13.75" stroke-linecap="round" stroke-miterlimit="8" fill="none" fill-rule="evenodd"/><rect x="1678.5" y="921.5" width="107" height="48.9998" stroke="#0684A2" stroke-width="4.58333" stroke-miterlimit="8" fill="#0BB5DD"/><path d="M1785 946 1870.02 946" stroke="#0BB5DD" stroke-width="2.29167" stroke-miterlimit="8" fill="none" fill-rule="evenodd"/><path d="M1870 946 1905.92 1092.07" stroke="#0BB5DD" stroke-width="2.29167" stroke-miterlimit="8" fill="none" fill-rule="evenodd"/><rect x="1756.5" y="1411.5" width="107" height="49.0001" stroke="#0684A2" stroke-width="4.58333" stroke-miterlimit="8" fill="#0BB5DD"/><path d="M1863 1435 1939.48 1435" stroke="#0BB5DD" stroke-width="2.29167" stroke-miterlimit="8" fill="none" fill-rule="evenodd"/><path d="M0 0 35.9225 146.065" stroke="#0BB5DD" stroke-width="2.29167" stroke-miterlimit="8" fill="none" fill-rule="evenodd" transform="matrix(1 0 0 -1 1939 1437.07)"/><rect x="2329.5" y="1015.5" width="107" height="48.0002" stroke="#0684A2" stroke-width="4.58333" stroke-miterlimit="8" fill="#0BB5DD"/><path d="M2272 1039 2327.86 1039" stroke="#0BB5DD" stroke-width="2.29167" stroke-miterlimit="8" fill="none" fill-rule="evenodd"/><path d="M0 0 157.486 83.8721" stroke="#0BB5DD" stroke-width="2.29167" stroke-miterlimit="8" fill="none" fill-rule="evenodd" transform="matrix(1 0 0 -1 2116 1122.87)"/><path d="M2789.5 1140C2789.5 994.473 2907.25 876.5 3052.5 876.5 3197.75 876.5 3315.5 994.473 3315.5 1140 3315.5 1285.53 3197.75 1403.5 3052.5 1403.5 2907.25 1403.5 2789.5 1285.53 2789.5 1140Z" stroke="#0684A2" stroke-width="4.58333" stroke-miterlimit="8" fill="#0BB5DD" fill-rule="evenodd"/><g><g><g><path d="M168.667 79.0625C168.667 102.351 149.788 121.229 126.5 121.229 103.212 121.229 84.3333 102.351 84.3333 79.0625 84.3333 55.7745 103.212 36.8958 126.5 36.8958 149.788 36.8958 168.667 55.7745 168.667 79.0625Z" fill="#2D3E50" transform="matrix(-1 0 0 1 3078 979)"/><path d="M210.833 216.104 210.833 173.938C210.833 167.613 207.671 161.288 202.4 157.071 190.804 147.583 176.046 141.258 161.288 137.042 150.746 133.879 139.15 131.771 126.5 131.771 114.904 131.771 103.308 133.879 91.7125 137.042 76.9542 141.258 62.1958 148.638 50.6 157.071 45.3292 161.288 42.1667 167.613 42.1667 173.938L42.1667 216.104 210.833 216.104Z" fill="#2D3E50" transform="matrix(-1 0 0 1 3078 979)"/></g></g></g><g><g><g><path d="M168.667 79.0625C168.667 102.351 149.788 121.229 126.5 121.229 103.212 121.229 84.3333 102.351 84.3333 79.0625 84.3333 55.7745 103.212 36.8958 126.5 36.8958 149.788 36.8958 168.667 55.7745 168.667 79.0625Z" fill="#2D3E50" transform="matrix(-1 0 0 1 3303 979)"/><path d="M80.6438 215.05 63.25 175.782 63.25 149.165C63.25 146.002 65.0948 142.84 67.7302 141.258 69.3115 140.468 69.8385 138.623 69.0479 137.305 68.5208 136.251 67.4667 135.46 66.149 135.724L36.1052 135.724C34.524 135.724 32.9427 136.778 32.9427 138.623 32.9427 139.941 33.4698 140.995 34.524 141.522 37.4229 143.103 39.0042 146.266 39.0042 149.428L39.0042 176.046 21.874 215.05C19.7656 219.53 21.874 225.065 26.6177 226.909 27.6719 227.436 28.9896 227.7 30.3073 227.7L72.474 227.7C77.4813 227.7 81.4344 223.747 81.4344 218.74 81.4344 217.422 81.1708 216.104 80.6438 215.05L80.6438 215.05ZM45.3292 155.226 45.3292 149.165C45.3292 146.529 44.8021 143.894 43.2208 141.522L59.2969 141.522C57.9792 143.894 57.1885 146.529 57.1885 149.165L57.1885 155.226 45.3292 155.226Z" fill="#2D3E50" transform="matrix(-1 0 0 1 3303 979)"/><path d="M58.7698 99.3552C58.7698 101.83 56.7639 103.835 54.2896 103.835 51.8152 103.835 49.8094 101.83 49.8094 99.3552 49.8094 96.8809 51.8152 94.875 54.2896 94.875 56.7639 94.875 58.7698 96.8809 58.7698 99.3552Z" fill="#2D3E50" transform="matrix(-1 0 0 1 3303 979)"/><path d="M66.4125 113.059C66.4125 115.534 64.4066 117.54 61.9323 117.54 59.4579 117.54 57.4521 115.534 57.4521 113.059 57.4521 110.585 59.4579 108.579 61.9323 108.579 64.4066 108.579 66.4125 110.585 66.4125 113.059Z" fill="#2D3E50" transform="matrix(-1 0 0 1 3303 979)"/><path d="M49.8094 109.897C49.8094 112.371 47.8035 114.377 45.3292 114.377 42.8548 114.377 40.849 112.371 40.849 109.897 40.849 107.423 42.8548 105.417 45.3292 105.417 47.8035 105.417 49.8094 107.423 49.8094 109.897Z" fill="#2D3E50" transform="matrix(-1 0 0 1 3303 979)"/><path d="M54.2896 126.5C54.2896 129.848 51.5758 132.561 48.2281 132.561 44.8805 132.561 42.1667 129.848 42.1667 126.5 42.1667 123.152 44.8805 120.439 48.2281 120.439 51.5758 120.439 54.2896 123.152 54.2896 126.5Z" fill="#2D3E50" transform="matrix(-1 0 0 1 3303 979)"/><path d="M113.323 192.122 94.3479 172.093 104.89 158.916 104.89 158.652 88.8135 160.233 89.3406 137.832C83.0156 139.941 76.6906 142.312 70.6292 145.211 69.575 146.266 68.7844 147.847 68.5208 149.428L68.5208 174.728 85.3875 212.942C85.9146 213.996 86.1781 215.05 86.4417 216.104L113.323 216.104 113.323 192.122Z" fill="#2D3E50" transform="matrix(-1 0 0 1 3303 979)"/><path d="M118.594 189.75 118.594 216.104 134.406 216.104 134.406 189.75 153.381 134.933C144.421 132.825 135.46 131.771 126.5 131.771 117.54 131.771 108.579 132.825 99.8823 134.933L118.594 189.75Z" fill="#2D3E50" transform="matrix(-1 0 0 1 3303 979)"/><path d="M202.4 157.071C190.804 148.11 177.627 141.785 163.659 137.832L164.186 160.233 148.11 158.652 148.11 158.916 158.652 172.093 139.677 192.122 139.677 216.104 210.833 216.104 210.833 173.938C210.57 167.349 207.671 161.024 202.4 157.071Z" fill="#2D3E50" transform="matrix(-1 0 0 1 3303 979)"/></g></g></g><g><g><g><path d="M184.666 86.5624C184.666 112.06 163.997 132.729 138.5 132.729 113.003 132.729 92.3332 112.06 92.3332 86.5624 92.3332 61.0653 113.003 40.3958 138.5 40.3958 163.997 40.3958 184.666 61.0653 184.666 86.5624Z" fill="#2D3E50" transform="matrix(-1 0 0 1 3186 1024)"/><path d="M230.833 236.604 230.833 190.437C230.833 183.512 227.371 176.587 221.6 171.971 208.904 161.583 192.746 154.658 176.587 150.042 165.046 146.579 152.35 144.271 138.5 144.271 125.804 144.271 113.108 146.579 100.412 150.042 84.2541 154.658 68.0958 162.737 55.3999 171.971 49.6291 176.587 46.1666 183.512 46.1666 190.437L46.1666 236.604 230.833 236.604Z" fill="#2D3E50" transform="matrix(-1 0 0 1 3186 1024)"/></g></g></g><path d="M2530.5 1079.75 2697 1079.75 2697 1052.5 2751.5 1107 2697 1161.5 2697 1134.25 2530.5 1134.25Z" stroke="#B4CE82" stroke-width="4.58333" stroke-miterlimit="8" fill="#2D3E50" fill-rule="evenodd"/><path d="M2674.5 1233 2508.5 1233 2508.5 1260.5 2453.5 1205.5 2508.5 1150.5 2508.5 1178 2674.5 1178Z" stroke="#B4CE82" stroke-width="4.58333" stroke-miterlimit="8" fill="#2D3E50" fill-rule="evenodd"/></g></svg>