<?xml version="1.0" encoding="UTF-8" standalone="no"?>
<!DOCTYPE svg PUBLIC "-//W3C//DTD SVG 1.1//EN" "http://www.w3.org/Graphics/SVG/1.1/DTD/svg11.dtd">
<svg width="100%" height="100%" viewBox="0 0 620 500" version="1.1" xmlns="http://www.w3.org/2000/svg" xmlns:xlink="http://www.w3.org/1999/xlink" xml:space="preserve" xmlns:serif="http://www.serif.com/" style="fill-rule:evenodd;clip-rule:evenodd;stroke-miterlimit:8;">
    <g transform="matrix(1.36135,0,0,1.36135,-17.8872,-8.04318)">
        <g transform="matrix(0.0149989,0,0,0.0149995,0,0)">
            <rect x="13196" y="17956" width="2120" height="4368" style="fill:white;"/>
        </g>
        <g transform="matrix(0.0149989,0,0,0.0149995,0,0)">
            <rect x="13196" y="17956" width="2120" height="4368" style="fill:none;stroke:rgb(217,217,217);stroke-width:67px;"/>
        </g>
        <g transform="matrix(0.0149989,0,0,0.0149995,0,0)">
            <rect x="15748" y="16820" width="2112" height="5504" style="fill:white;"/>
        </g>
        <g transform="matrix(0.0149989,0,0,0.0149995,0,0)">
            <rect x="15748" y="16820" width="2112" height="5504" style="fill:none;stroke:rgb(217,217,217);stroke-width:67px;"/>
        </g>
        <g transform="matrix(0.0149989,0,0,0.0149995,0,0)">
            <rect x="18260" y="15684" width="2120" height="6640" style="fill:white;"/>
        </g>
        <g transform="matrix(0.0149989,0,0,0.0149995,0,0)">
            <rect x="18260" y="15684" width="2120" height="6640" style="fill:none;stroke:rgb(217,217,217);stroke-width:67px;"/>
        </g>
        <g transform="matrix(0.0149989,0,0,0.0149995,0,0)">
            <path d="M12291,20067C8812,20127 5943,17356 5883,13878C5822,10399 8593,7530 12072,7469C15551,7409 18420,10180 18480,13659C18483,13817 18480,13975 18471,14132" style="fill:none;stroke:white;stroke-width:399.99px;stroke-linecap:round;"/>
        </g>
        <g transform="matrix(0.0149989,0,0,0.0149995,0,0)">
            <path d="M18372,14450L19630,13060" style="fill:none;stroke:white;stroke-width:399.99px;stroke-linecap:round;"/>
        </g>
        <g transform="matrix(0.0149989,0,0,0.0149995,0,0)">
            <path d="M18362,14446L16972,13188" style="fill:none;stroke:white;stroke-width:399.99px;stroke-linecap:round;"/>
        </g>
        <g transform="matrix(0.0149989,0,0,0.0149995,0,0)">
            <path d="M9520,15205C9236,14709 9234,13610 9538,12952C9841,12295 10406,11370 11976,11347C12521,11339 13321,11212 13834,11089C14347,10965 14828,10597 15055,10605C15282,10612 15234,10824 15197,11136C15160,11448 14994,12079 14835,12478C14676,12878 14239,14040 13908,14570C13578,15101 13297,15435 12853,15661C12408,15887 11795,16001 11240,15925C10684,15849 9804,15700 9520,15205" style="fill:none;stroke:rgb(45,62,80);stroke-width:399.99px;stroke-linecap:round;"/>
        </g>
        <g transform="matrix(0.0149989,0,0,0.0149995,0,0)">
            <path d="M8916,16772C9184,15623 9451,14473 11804,13716" style="fill:none;stroke:rgb(45,62,80);stroke-width:399.99px;stroke-linecap:round;"/>
        </g>
        <g transform="matrix(0.00749944,0,0,0.00749973,0,0)">
            <rect x="4312" y="13032" width="5840" height="2640" style="fill:white;"/>
        </g>
        <g transform="matrix(0.00749944,0,0,0.00749973,0,0)">
            <rect x="4312" y="13032" width="5840" height="2640" style="fill:none;stroke:rgb(217,217,217);stroke-width:133px;"/>
        </g>
        <g transform="matrix(0.00749944,0,0,0.00749973,0,0)">
            <path d="M10152,14360L14792,14360" style="fill:none;stroke:white;stroke-width:133px;"/>
        </g>
        <g transform="matrix(0.00749944,0,0,0.00749973,0,0)">
            <path d="M14792,14360L16753,22332" style="fill:none;stroke:white;stroke-width:133px;"/>
        </g>
        <g transform="matrix(0.0149989,0,0,0.0149995,0,0)">
            <rect x="4308" y="19884" width="2920" height="1320" style="fill:white;"/>
        </g>
        <g transform="matrix(0.0149989,0,0,0.0149995,0,0)">
            <rect x="4308" y="19884" width="2920" height="1320" style="fill:none;stroke:rgb(217,217,217);stroke-width:67px;"/>
        </g>
        <g transform="matrix(0.0149989,0,0,0.0149995,0,0)">
            <path d="M7228,20540L9315,20540" style="fill:none;stroke:white;stroke-width:67px;"/>
        </g>
        <g transform="matrix(0.0149989,0,0,0.0149995,0,0)">
            <path d="M9308,20542L10289,16556" style="fill:none;stroke:white;stroke-width:67px;"/>
        </g>
        <g transform="matrix(0.0149989,0,0,0.0149995,0,0)">
            <rect x="19924" y="9068" width="2920" height="1320" style="fill:white;"/>
        </g>
        <g transform="matrix(0.0149989,0,0,0.0149995,0,0)">
            <rect x="19924" y="9068" width="2920" height="1320" style="fill:none;stroke:rgb(217,217,217);stroke-width:67px;"/>
        </g>
        <g transform="matrix(0.0149989,0,0,0.0149995,0,0)">
            <path d="M18356,9724L19881,9724" style="fill:none;stroke:white;stroke-width:67px;"/>
        </g>
        <g transform="matrix(0.0149989,0,0,0.0149995,0,0)">
            <path d="M14060,12013L18358,9724" style="fill:none;stroke:white;stroke-width:67px;"/>
        </g>
        <g transform="matrix(0.0149989,0,0,0.0149995,0,0)">
            <path d="M19502,2015C19790,2016 20082,2097 20341,2264C20689,2507 20904,2860 20971,3240C21038,3620 20958,4027 20715,4374L18544,7481C18249,7903 17786,8116 17306,8114L16983,8576L16828,8435C16621,8264 16405,8102 16182,7951L15597,7596L15915,7142C15748,6692 15788,6184 16084,5762L18254,2655C18548,2236 19020,2014 19502,2015Z" style="fill:none;stroke:white;stroke-width:399.99px;stroke-linecap:round;"/>
        </g>
        <rect x="0" y="0" width="482.004" height="394.306" style="fill:none;"/>
        <g transform="matrix(0.138105,0,0,0.13811,17.3449,360.266)">
            <text x="0px" y="0px" style="font-family:'BradleyHandITC', 'Bradley Hand ITC', cursive;font-size:200px;fill:rgb(45,62,80);stroke:black;stroke-width:2.96px;stroke-linejoin:round;stroke-miterlimit:2;">e</text>
            <g transform="matrix(1,0,0,1,72.777,0)">
                <text x="0px" y="0px" style="font-family:'BradleyHandITC', 'Bradley Hand ITC', cursive;font-size:200px;fill:rgb(45,62,80);stroke:black;stroke-width:2.96px;stroke-linejoin:round;stroke-miterlimit:2;">x</text>
            </g>
            <g transform="matrix(1,0,0,1,165.565,0)">
                <text x="0px" y="0px" style="font-family:'BradleyHandITC', 'Bradley Hand ITC', cursive;font-size:200px;fill:rgb(45,62,80);stroke:black;stroke-width:2.96px;stroke-linejoin:round;stroke-miterlimit:2;">p</text>
            </g>
            <g transform="matrix(1,0,0,1,256.409,0)">
                <text x="0px" y="0px" style="font-family:'BradleyHandITC', 'Bradley Hand ITC', cursive;font-size:200px;fill:rgb(45,62,80);stroke:black;stroke-width:2.96px;stroke-linejoin:round;stroke-miterlimit:2;">e</text>
            </g>
            <g transform="matrix(1,0,0,1,328.186,0)">
                <text x="0px" y="0px" style="font-family:'BradleyHandITC', 'Bradley Hand ITC', cursive;font-size:200px;fill:rgb(45,62,80);stroke:black;stroke-width:2.96px;stroke-linejoin:round;stroke-miterlimit:2;">r</text>
            </g>
            <g transform="matrix(1,0,0,1,402.995,0)">
                <text x="0px" y="0px" style="font-family:'BradleyHandITC', 'Bradley Hand ITC', cursive;font-size:200px;fill:rgb(45,62,80);stroke:black;stroke-width:2.96px;stroke-linejoin:round;stroke-miterlimit:2;">i</text>
            </g>
            <g transform="matrix(1,0,0,1,463.835,0)">
                <text x="0px" y="0px" style="font-family:'BradleyHandITC', 'Bradley Hand ITC', cursive;font-size:200px;fill:rgb(45,62,80);stroke:black;stroke-width:2.96px;stroke-linejoin:round;stroke-miterlimit:2;">m</text>
            </g>
            <g transform="matrix(1,0,0,1,635.603,0)">
                <text x="0px" y="0px" style="font-family:'BradleyHandITC', 'Bradley Hand ITC', cursive;font-size:200px;fill:rgb(45,62,80);stroke:black;stroke-width:2.96px;stroke-linejoin:round;stroke-miterlimit:2;">e</text>
            </g>
            <g>
                <g transform="matrix(1,0,0,1,707.38,0)">
                    <text x="0px" y="0px" style="font-family:'BradleyHandITC', 'Bradley Hand ITC', cursive;font-size:200px;fill:rgb(45,62,80);stroke:black;stroke-width:2.96px;stroke-linejoin:round;stroke-miterlimit:2;">n</text>
                </g>
                <g transform="matrix(1,0,0,1,832.19,0)">
                    <text x="0px" y="0px" style="font-family:'BradleyHandITC', 'Bradley Hand ITC', cursive;font-size:200px;fill:rgb(45,62,80);stroke:black;stroke-width:2.96px;stroke-linejoin:round;stroke-miterlimit:2;">t</text>
                </g>
            </g>
            <g transform="matrix(1,0,0,1,902.019,0)">
                <text x="0px" y="0px" style="font-family:'BradleyHandITC', 'Bradley Hand ITC', cursive;font-size:200px;fill:rgb(45,62,80);stroke:black;stroke-width:2.96px;stroke-linejoin:round;stroke-miterlimit:2;">a</text>
            </g>
            <g transform="matrix(1,0,0,1,1000.84,0)">
                <text x="0px" y="0px" style="font-family:'BradleyHandITC', 'Bradley Hand ITC', cursive;font-size:200px;fill:rgb(45,62,80);stroke:black;stroke-width:2.96px;stroke-linejoin:round;stroke-miterlimit:2;">l</text>
            </g>
            <g transform="matrix(1,0,0,1,1110.46,0)">
                <text x="0px" y="0px" style="font-family:'BradleyHandITC', 'Bradley Hand ITC', cursive;font-size:200px;fill:rgb(45,62,80);stroke:black;stroke-width:2.96px;stroke-linejoin:round;stroke-miterlimit:2;">d</text>
            </g>
            <g transform="matrix(1,0,0,1,1220.23,0)">
                <text x="0px" y="0px" style="font-family:'BradleyHandITC', 'Bradley Hand ITC', cursive;font-size:200px;fill:rgb(45,62,80);stroke:black;stroke-width:2.96px;stroke-linejoin:round;stroke-miterlimit:2;">a</text>
            </g>
            <g transform="matrix(1,0,0,1,1320.06,0)">
                <text x="0px" y="0px" style="font-family:'BradleyHandITC', 'Bradley Hand ITC', cursive;font-size:200px;fill:rgb(45,62,80);stroke:black;stroke-width:2.96px;stroke-linejoin:round;stroke-miterlimit:2;">t</text>
            </g>
            <g transform="matrix(1,0,0,1,1390.89,0)">
                <text x="0px" y="0px" style="font-family:'BradleyHandITC', 'Bradley Hand ITC', cursive;font-size:200px;fill:rgb(45,62,80);stroke:black;stroke-width:2.96px;stroke-linejoin:round;stroke-miterlimit:2;">a</text>
            </g>
        </g>
        <g transform="matrix(0.148218,0,0,0.148224,31.9877,28.5998)">
            <text x="0px" y="0px" style="font-family:'BradleyHandITC', 'Bradley Hand ITC', cursive;font-size:200px;fill:rgb(45,62,80);stroke:black;stroke-width:3.06px;stroke-linejoin:round;stroke-miterlimit:2;">a</text>
            <g transform="matrix(1,0,0,1,99.823,0)">
                <text x="0px" y="0px" style="font-family:'BradleyHandITC', 'Bradley Hand ITC', cursive;font-size:200px;fill:rgb(45,62,80);stroke:black;stroke-width:3.06px;stroke-linejoin:round;stroke-miterlimit:2;">n</text>
            </g>
            <g transform="matrix(1,0,0,1,225.633,0)">
                <text x="0px" y="0px" style="font-family:'BradleyHandITC', 'Bradley Hand ITC', cursive;font-size:200px;fill:rgb(45,62,80);stroke:black;stroke-width:3.06px;stroke-linejoin:round;stroke-miterlimit:2;">n</text>
            </g>
            <g transform="matrix(1,0,0,1,350.442,0)">
                <text x="0px" y="0px" style="font-family:'BradleyHandITC', 'Bradley Hand ITC', cursive;font-size:200px;fill:rgb(45,62,80);stroke:black;stroke-width:3.06px;stroke-linejoin:round;stroke-miterlimit:2;">o</text>
            </g>
            <g transform="matrix(1,0,0,1,432.283,0)">
                <text x="0px" y="0px" style="font-family:'BradleyHandITC', 'Bradley Hand ITC', cursive;font-size:200px;fill:rgb(45,62,80);stroke:black;stroke-width:3.06px;stroke-linejoin:round;stroke-miterlimit:2;">t</text>
            </g>
            <g transform="matrix(1,0,0,1,502.112,0)">
                <text x="0px" y="0px" style="font-family:'BradleyHandITC', 'Bradley Hand ITC', cursive;font-size:200px;fill:rgb(45,62,80);stroke:black;stroke-width:3.06px;stroke-linejoin:round;stroke-miterlimit:2;">a</text>
            </g>
            <g transform="matrix(1,0,0,1,600.935,0)">
                <text x="0px" y="0px" style="font-family:'BradleyHandITC', 'Bradley Hand ITC', cursive;font-size:200px;fill:rgb(45,62,80);stroke:black;stroke-width:3.06px;stroke-linejoin:round;stroke-miterlimit:2;">t</text>
            </g>
            <g transform="matrix(1,0,0,1,670.764,0)">
                <text x="0px" y="0px" style="font-family:'BradleyHandITC', 'Bradley Hand ITC', cursive;font-size:200px;fill:rgb(45,62,80);stroke:black;stroke-width:3.06px;stroke-linejoin:round;stroke-miterlimit:2;">i</text>
            </g>
            <g transform="matrix(1,0,0,1,731.604,0)">
                <text x="0px" y="0px" style="font-family:'BradleyHandITC', 'Bradley Hand ITC', cursive;font-size:200px;fill:rgb(45,62,80);stroke:black;stroke-width:3.06px;stroke-linejoin:round;stroke-miterlimit:2;">o</text>
            </g>
            <g transform="matrix(1,0,0,1,812.445,0)">
                <text x="0px" y="0px" style="font-family:'BradleyHandITC', 'Bradley Hand ITC', cursive;font-size:200px;fill:rgb(45,62,80);stroke:black;stroke-width:3.06px;stroke-linejoin:round;stroke-miterlimit:2;">n</text>
            </g>
        </g>
        <g transform="matrix(0.142556,0,0,0.142561,316.259,346.71)">
            <text x="0px" y="0px" style="font-family:'BradleyHandITC', 'Bradley Hand ITC', cursive;font-size:200px;fill:rgb(45,62,80);stroke:black;stroke-width:3.27px;stroke-linejoin:round;stroke-miterlimit:2;">c</text>
            <g transform="matrix(1,0,0,1,82.822,0)">
                <text x="0px" y="0px" style="font-family:'BradleyHandITC', 'Bradley Hand ITC', cursive;font-size:200px;fill:rgb(45,62,80);stroke:black;stroke-width:3.27px;stroke-linejoin:round;stroke-miterlimit:2;">o</text>
            </g>
            <g transform="matrix(1,0,0,1,165.662,0)">
                <text x="0px" y="0px" style="font-family:'BradleyHandITC', 'Bradley Hand ITC', cursive;font-size:200px;fill:rgb(45,62,80);stroke:black;stroke-width:3.27px;stroke-linejoin:round;stroke-miterlimit:2;">m</text>
            </g>
            <g transform="matrix(1,0,0,1,337.43,0)">
                <text x="0px" y="0px" style="font-family:'BradleyHandITC', 'Bradley Hand ITC', cursive;font-size:200px;fill:rgb(45,62,80);stroke:black;stroke-width:3.27px;stroke-linejoin:round;stroke-miterlimit:2;">p</text>
            </g>
            <g transform="matrix(1,0,0,1,427.274,0)">
                <text x="0px" y="0px" style="font-family:'BradleyHandITC', 'Bradley Hand ITC', cursive;font-size:200px;fill:rgb(45,62,80);stroke:black;stroke-width:3.27px;stroke-linejoin:round;stroke-miterlimit:2;">u</text>
            </g>
            <g transform="matrix(1,0,0,1,541.039,0)">
                <text x="0px" y="0px" style="font-family:'BradleyHandITC', 'Bradley Hand ITC', cursive;font-size:200px;fill:rgb(45,62,80);stroke:black;stroke-width:3.27px;stroke-linejoin:round;stroke-miterlimit:2;">t</text>
            </g>
            <g transform="matrix(1,0,0,1,610.868,0)">
                <text x="0px" y="0px" style="font-family:'BradleyHandITC', 'Bradley Hand ITC', cursive;font-size:200px;fill:rgb(45,62,80);stroke:black;stroke-width:3.27px;stroke-linejoin:round;stroke-miterlimit:2;">a</text>
            </g>
            <g transform="matrix(1,0,0,1,709.691,0)">
                <text x="0px" y="0px" style="font-family:'BradleyHandITC', 'Bradley Hand ITC', cursive;font-size:200px;fill:rgb(45,62,80);stroke:black;stroke-width:3.27px;stroke-linejoin:round;stroke-miterlimit:2;">t</text>
            </g>
            <g transform="matrix(1,0,0,1,779.52,0)">
                <text x="0px" y="0px" style="font-family:'BradleyHandITC', 'Bradley Hand ITC', cursive;font-size:200px;fill:rgb(45,62,80);stroke:black;stroke-width:3.27px;stroke-linejoin:round;stroke-miterlimit:2;">i</text>
            </g>
            <g transform="matrix(1,0,0,1,840.36,0)">
                <text x="0px" y="0px" style="font-family:'BradleyHandITC', 'Bradley Hand ITC', cursive;font-size:200px;fill:rgb(45,62,80);stroke:black;stroke-width:3.27px;stroke-linejoin:round;stroke-miterlimit:2;">o</text>
            </g>
            <g transform="matrix(1,0,0,1,922.201,0)">
                <text x="0px" y="0px" style="font-family:'BradleyHandITC', 'Bradley Hand ITC', cursive;font-size:200px;fill:rgb(45,62,80);stroke:black;stroke-width:3.27px;stroke-linejoin:round;stroke-miterlimit:2;">n</text>
            </g>
        </g>
        <g transform="matrix(0.0149989,0,0,0.0149995,0,0)">
            <path d="M24640,21562L24515,21422L24384,21284L24248,21147L24106,21014L23959,20883L23807,20755L23651,20630L23491,20509L23327,20391L23160,20276L22990,20166L22817,20058L22642,19955L22465,19857L22286,19762L22106,19672L21924,19587L21742,19507L21560,19431L21377,19361L21195,19296L21014,19236L20833,19183L20654,19134L20476,19093L20301,19056L20127,19027L19956,19004L19788,18988L19624,18978L19463,18975L19306,18979L19189,18988L19076,19000L18966,19017L18910,19029L18919,19078L18974,19067L19081,19050L19192,19037L19307,19029L19462,19025L19621,19027L19784,19037L19950,19053L20119,19076L20291,19105L20465,19141L20641,19183L20819,19230L20998,19284L21179,19343L21359,19407L21541,19477L21722,19552L21903,19632L22083,19717L22262,19806L22440,19900L22617,19999L22791,20101L22963,20207L23132,20318L23298,20431L23461,20549L23620,20669L23775,20794L23925,20921L24071,21050L24212,21183L24348,21318L24478,21456L24602,21596L24640,21562ZM19244,18727L18866,19063L19345,19226C19358,19231 19372,19224 19376,19211C19381,19198 19374,19184 19361,19179L18923,19030L18931,19072L19277,18764C19287,18755 19288,18739 19279,18729C19270,18718 19254,18717 19244,18727Z" style="fill:rgb(89,89,89);fill-rule:nonzero;stroke:rgb(89,89,89);stroke-width:1px;stroke-linejoin:round;stroke-miterlimit:2;"/>
        </g>
        <g transform="matrix(0.0149989,0,0,0.0149995,0,0)">
            <path d="M9993,22258L10163,22108L10329,21953L10490,21795L10646,21632L10797,21465L10942,21296L11082,21123L11217,20948L11346,20770L11469,20590L11586,20407L11697,20224L11802,20039L11900,19853L11992,19667L12078,19480L12157,19293L12228,19105L12293,18919L12351,18733L12402,18549L12445,18365L12481,18184L12509,18004L12529,17826L12541,17651L12545,17479L12542,17309L12530,17143L12509,16981L12480,16822L12454,16717L12406,16729L12431,16832L12460,16987L12480,17147L12492,17310L12495,17477L12492,17648L12479,17821L12459,17996L12431,18174L12396,18354L12353,18535L12303,18719L12246,18903L12182,19088L12110,19273L12032,19459L11948,19644L11856,19830L11758,20014L11654,20198L11544,20380L11428,20561L11305,20740L11178,20917L11044,21091L10905,21263L10760,21432L10610,21597L10455,21759L10295,21917L10130,22071L9960,22220L9993,22258ZM12770,17038L12418,16674L12275,17160C12271,17173 12278,17187 12292,17191C12305,17195 12319,17187 12323,17174L12454,16730L12412,16740L12734,17073C12744,17083 12759,17083 12769,17073C12779,17064 12779,17048 12770,17038Z" style="fill:rgb(89,89,89);fill-rule:nonzero;stroke:rgb(89,89,89);stroke-width:1px;stroke-linejoin:round;stroke-miterlimit:2;"/>
        </g>
        <g transform="matrix(0.00749944,0,0,0.00749973,0,0)">
            <path d="M10171,4987L9869,5361L9582,5753L9313,6158L9064,6574L8835,6997L8626,7425L8441,7855L8278,8284L8205,8498L8139,8711L8078,8922L8025,9130L7978,9337L7937,9542L7903,9743L7877,9941L7857,10135L7845,10326L7838,10512L7840,10694L7851,10871L7868,11042L7892,11209L7905,11272L8003,11251L7991,11194L7967,11032L7950,10866L7940,10693L7938,10515L7944,10333L7956,10146L7976,9954L8002,9760L8036,9561L8075,9360L8122,9155L8175,8949L8234,8740L8300,8530L8371,8319L8532,7894L8716,7468L8922,7044L9149,6625L9396,6213L9663,5812L9946,5424L10248,5050L10171,4987ZM7296,10608L7975,11359L8294,10398C8302,10372 8288,10344 8262,10335C8236,10327 8207,10341 8199,10367L7907,11246L7991,11228L7370,10541C7351,10521 7320,10519 7299,10538C7279,10556 7277,10588 7296,10608Z" style="fill:rgb(89,89,89);fill-rule:nonzero;stroke:rgb(89,89,89);stroke-width:1px;stroke-linejoin:round;stroke-miterlimit:2;"/>
        </g>
    </g>
</svg>
