<?xml version="1.0" encoding="UTF-8" standalone="no"?>
<!DOCTYPE svg PUBLIC "-//W3C//DTD SVG 1.1//EN" "http://www.w3.org/Graphics/SVG/1.1/DTD/svg11.dtd">
<svg width="100%" height="100%" viewBox="0 0 1920 1080" version="1.1" xmlns="http://www.w3.org/2000/svg" xmlns:xlink="http://www.w3.org/1999/xlink" xml:space="preserve" xmlns:serif="http://www.serif.com/" style="fill-rule:evenodd;clip-rule:evenodd;stroke-miterlimit:8;">
    <g transform="matrix(3.29223,0,0,3.24951,169.85,45.7003)">
        <g transform="matrix(0.0149989,0,0,0.0149995,0,0)">
            <rect x="2556" y="17908" width="248" height="504" style="fill:rgb(11,181,221);"/>
        </g>
        <g transform="matrix(0.0149989,0,0,0.0149995,0,0)">
            <rect x="2556" y="17908" width="248" height="504" style="fill:none;stroke:rgb(6,132,162);stroke-width:33px;"/>
        </g>
        <g transform="matrix(0.0149989,0,0,0.0149995,0,0)">
            <rect x="2852" y="17772" width="248" height="640" style="fill:rgb(11,181,221);"/>
        </g>
        <g transform="matrix(0.0149989,0,0,0.0149995,0,0)">
            <rect x="2852" y="17772" width="248" height="640" style="fill:none;stroke:rgb(6,132,162);stroke-width:33px;"/>
        </g>
        <g transform="matrix(0.0149989,0,0,0.0149995,0,0)">
            <rect x="3148" y="17644" width="248" height="768" style="fill:rgb(11,181,221);"/>
        </g>
        <g transform="matrix(0.0149989,0,0,0.0149995,0,0)">
            <rect x="3148" y="17644" width="248" height="768" style="fill:none;stroke:rgb(6,132,162);stroke-width:33px;"/>
        </g>
        <g transform="matrix(0.0149989,0,0,0.0149995,0,0)">
            <path d="M2454,18153C2049,18160 1715,17837 1708,17432C1701,17027 2023,16693 2428,16686C2833,16679 3167,17002 3174,17407C3174,17425 3174,17443 3173,17462" style="fill:none;stroke:rgb(11,181,221);stroke-width:100px;stroke-linecap:round;"/>
        </g>
        <g transform="matrix(0.0149989,0,0,0.0149995,0,0)">
            <path d="M3168,17506L3315,17344" style="fill:none;stroke:rgb(11,181,221);stroke-width:100px;stroke-linecap:round;"/>
        </g>
        <g transform="matrix(0.0149989,0,0,0.0149995,0,0)">
            <path d="M3162,17499L3000,17352" style="fill:none;stroke:rgb(11,181,221);stroke-width:100px;stroke-linecap:round;"/>
        </g>
        <g transform="matrix(0.0149989,0,0,0.0149995,0,0)">
            <path d="M2137,17594C2104,17536 2104,17407 2139,17331C2174,17254 2240,17146 2422,17143C2486,17142 2579,17127 2638,17113C2698,17099 2754,17056 2780,17056C2807,17057 2801,17082 2797,17119C2793,17155 2773,17229 2755,17275C2736,17322 2685,17458 2647,17520C2609,17581 2576,17621 2524,17647C2473,17673 2401,17687 2337,17678C2272,17669 2170,17651 2137,17594" style="fill:none;stroke:rgb(45,62,80);stroke-width:100px;stroke-linecap:round;"/>
        </g>
        <g transform="matrix(0.0149989,0,0,0.0149995,0,0)">
            <path d="M2064,17776C2096,17641 2127,17506 2400,17416" style="fill:none;stroke:rgb(45,62,80);stroke-width:100px;stroke-linecap:round;"/>
        </g>
        <g transform="matrix(0.0149989,0,0,0.0149995,0,0)">
            <rect x="1276" y="16572" width="336" height="160" style="fill:rgb(11,181,221);"/>
        </g>
        <g transform="matrix(0.0149989,0,0,0.0149995,0,0)">
            <rect x="1276" y="16572" width="336" height="160" style="fill:none;stroke:rgb(6,132,162);stroke-width:33px;"/>
        </g>
        <g transform="matrix(0.0149989,0,0,0.0149995,0,0)">
            <path d="M1612,16652L1882,16652" style="fill:none;stroke:rgb(11,181,221);stroke-width:33px;"/>
        </g>
        <g transform="matrix(0.0149989,0,0,0.0149995,0,0)">
            <path d="M1884,16652L1999,17116" style="fill:none;stroke:rgb(11,181,221);stroke-width:33px;"/>
        </g>
        <g transform="matrix(0.0149989,0,0,0.0149995,0,0)">
            <rect x="1524" y="18132" width="336" height="152" style="fill:rgb(11,181,221);"/>
        </g>
        <g transform="matrix(0.0149989,0,0,0.0149995,0,0)">
            <rect x="1524" y="18132" width="336" height="152" style="fill:none;stroke:rgb(6,132,162);stroke-width:33px;"/>
        </g>
        <g transform="matrix(0.0149989,0,0,0.0149995,0,0)">
            <path d="M1860,18204L2103,18204" style="fill:none;stroke:rgb(11,181,221);stroke-width:33px;"/>
        </g>
        <g transform="matrix(0.0149989,0,0,0.0149995,0,0)">
            <path d="M2108,18204L2223,17740" style="fill:none;stroke:rgb(11,181,221);stroke-width:33px;"/>
        </g>
        <g transform="matrix(0.0149989,0,0,0.0149995,0,0)">
            <rect x="3340" y="16868" width="344" height="160" style="fill:rgb(11,181,221);"/>
        </g>
        <g transform="matrix(0.0149989,0,0,0.0149995,0,0)">
            <rect x="3340" y="16868" width="344" height="160" style="fill:none;stroke:rgb(6,132,162);stroke-width:33px;"/>
        </g>
        <g transform="matrix(0.0149989,0,0,0.0149995,0,0)">
            <path d="M3156,16948L3334,16948" style="fill:none;stroke:rgb(11,181,221);stroke-width:33px;"/>
        </g>
        <g transform="matrix(0.0149989,0,0,0.0149995,0,0)">
            <path d="M2660,17215L3161,16948" style="fill:none;stroke:rgb(11,181,221);stroke-width:33px;"/>
        </g>
        <g transform="matrix(0.0149989,0,0,0.0149995,0,0)">
            <path d="M3293,16052C3326,16052 3360,16061 3390,16080C3431,16109 3456,16150 3464,16194C3472,16238 3462,16286 3434,16326L3181,16688C3147,16737 3093,16762 3037,16761L3000,16815L2982,16799C2957,16779 2932,16760 2906,16742L2838,16701L2875,16648C2856,16596 2861,16537 2895,16488L3148,16126C3182,16077 3237,16051 3293,16052Z" style="fill:none;stroke:rgb(11,181,221);stroke-width:100px;stroke-linecap:round;"/>
        </g>
        <g transform="matrix(0.0149989,0,0,0.0149995,0,0)">
            <path d="M1032,18872C915,18872 820,18771 820,18646L820,17566C820,17442 726,17340 608,17340C726,17340 820,17239 820,17114L820,16034C820,15910 915,15808 1032,15808" style="fill:none;stroke:rgb(45,62,80);stroke-width:150px;"/>
        </g>
        <g transform="matrix(0.0149989,0,0,0.0149995,0,0)">
            <path d="M3976,15808C4096,15808 4192,15912 4192,16039L4192,17110C4192,17237 4289,17340 4408,17340C4289,17340 4192,17444 4192,17571L4192,18642C4192,18769 4096,18872 3976,18872" style="fill:none;stroke:rgb(45,62,80);stroke-width:150px;"/>
        </g>
        <g transform="matrix(0.0149989,0,0,0.0149995,0,0)">
            <rect x="9468" y="17924" width="248" height="504" style="fill:rgb(11,181,221);"/>
        </g>
        <g transform="matrix(0.0149989,0,0,0.0149995,0,0)">
            <rect x="9468" y="17924" width="248" height="504" style="fill:none;stroke:rgb(6,132,162);stroke-width:33px;"/>
        </g>
        <g transform="matrix(0.0149989,0,0,0.0149995,0,0)">
            <rect x="9764" y="17788" width="248" height="640" style="fill:rgb(11,181,221);"/>
        </g>
        <g transform="matrix(0.0149989,0,0,0.0149995,0,0)">
            <rect x="9764" y="17788" width="248" height="640" style="fill:none;stroke:rgb(6,132,162);stroke-width:33px;"/>
        </g>
        <g transform="matrix(0.0149989,0,0,0.0149995,0,0)">
            <rect x="10060" y="17660" width="240" height="768" style="fill:rgb(11,181,221);"/>
        </g>
        <g transform="matrix(0.0149989,0,0,0.0149995,0,0)">
            <rect x="10060" y="17660" width="240" height="768" style="fill:none;stroke:rgb(6,132,162);stroke-width:33px;"/>
        </g>
        <g transform="matrix(0.0149989,0,0,0.0149995,0,0)">
            <path d="M9363,18168C8958,18175 8624,17853 8617,17448C8610,17043 8933,16709 9338,16702C9742,16695 10076,17017 10083,17422C10084,17441 10083,17459 10082,17477" style="fill:none;stroke:rgb(11,181,221);stroke-width:100px;stroke-linecap:round;"/>
        </g>
        <g transform="matrix(0.0149989,0,0,0.0149995,0,0)">
            <path d="M10072,17514L10219,17352" style="fill:none;stroke:rgb(11,181,221);stroke-width:100px;stroke-linecap:round;"/>
        </g>
        <g transform="matrix(0.0149989,0,0,0.0149995,0,0)">
            <path d="M10074,17515L9912,17368" style="fill:none;stroke:rgb(11,181,221);stroke-width:100px;stroke-linecap:round;"/>
        </g>
        <g transform="matrix(0.0149989,0,0,0.0149995,0,0)">
            <path d="M9041,17610C9008,17552 9008,17423 9043,17347C9079,17270 9145,17162 9330,17159C9394,17158 9488,17143 9549,17129C9609,17115 9665,17072 9692,17072C9719,17073 9713,17098 9709,17135C9704,17171 9685,17245 9666,17291C9647,17338 9596,17474 9557,17536C9518,17597 9485,17637 9433,17663C9381,17689 9309,17703 9244,17694C9178,17685 9075,17667 9041,17610" style="fill:none;stroke:rgb(45,62,80);stroke-width:100px;stroke-linecap:round;"/>
        </g>
        <g transform="matrix(0.0149989,0,0,0.0149995,0,0)">
            <path d="M8976,17792C9008,17657 9039,17522 9312,17432" style="fill:none;stroke:rgb(45,62,80);stroke-width:100px;stroke-linecap:round;"/>
        </g>
        <g transform="matrix(0.0149989,0,0,0.0149995,0,0)">
            <rect x="8180" y="16588" width="344" height="160" style="fill:rgb(11,181,221);"/>
        </g>
        <g transform="matrix(0.0149989,0,0,0.0149995,0,0)">
            <rect x="8180" y="16588" width="344" height="160" style="fill:none;stroke:rgb(6,132,162);stroke-width:33px;"/>
        </g>
        <g transform="matrix(0.0149989,0,0,0.0149995,0,0)">
            <path d="M8524,16668L8794,16668" style="fill:none;stroke:rgb(11,181,221);stroke-width:33px;"/>
        </g>
        <g transform="matrix(0.0149989,0,0,0.0149995,0,0)">
            <path d="M8796,16668L8911,17132" style="fill:none;stroke:rgb(11,181,221);stroke-width:33px;"/>
        </g>
        <g transform="matrix(0.0149989,0,0,0.0149995,0,0)">
            <rect x="8436" y="18148" width="336" height="152" style="fill:rgb(11,181,221);"/>
        </g>
        <g transform="matrix(0.0149989,0,0,0.0149995,0,0)">
            <rect x="8436" y="18148" width="336" height="152" style="fill:none;stroke:rgb(6,132,162);stroke-width:33px;"/>
        </g>
        <g transform="matrix(0.0149989,0,0,0.0149995,0,0)">
            <path d="M8772,18220L9015,18220" style="fill:none;stroke:rgb(11,181,221);stroke-width:33px;"/>
        </g>
        <g transform="matrix(0.0149989,0,0,0.0149995,0,0)">
            <path d="M9012,18220L9127,17756" style="fill:none;stroke:rgb(11,181,221);stroke-width:33px;"/>
        </g>
        <g transform="matrix(0.0149989,0,0,0.0149995,0,0)">
            <rect x="10252" y="16884" width="336" height="160" style="fill:rgb(11,181,221);"/>
        </g>
        <g transform="matrix(0.0149989,0,0,0.0149995,0,0)">
            <rect x="10252" y="16884" width="336" height="160" style="fill:none;stroke:rgb(6,132,162);stroke-width:33px;"/>
        </g>
        <g transform="matrix(0.0149989,0,0,0.0149995,0,0)">
            <path d="M10068,16964L10246,16964" style="fill:none;stroke:rgb(11,181,221);stroke-width:33px;"/>
        </g>
        <g transform="matrix(0.0149989,0,0,0.0149995,0,0)">
            <path d="M9572,17231L10073,16964" style="fill:none;stroke:rgb(11,181,221);stroke-width:33px;"/>
        </g>
        <g transform="matrix(0.0149989,0,0,0.0149995,0,0)">
            <path d="M10202,16067C10236,16067 10270,16077 10300,16096C10340,16124 10365,16165 10373,16210C10381,16254 10372,16301 10343,16342L10091,16703C10056,16752 10003,16777 9947,16777L9909,16831L9891,16814C9867,16794 9842,16775 9816,16758L9748,16717L9785,16664C9765,16611 9770,16552 9804,16503L10057,16141C10091,16093 10146,16067 10202,16067Z" style="fill:none;stroke:rgb(11,181,221);stroke-width:100px;stroke-linecap:round;"/>
        </g>
        <g transform="matrix(0.0149989,0,0,0.0149995,0,0)">
            <path d="M7944,18888C7825,18888 7728,18785 7728,18658L7728,17587C7728,17460 7632,17356 7512,17356C7632,17356 7728,17253 7728,17126L7728,16055C7728,15928 7825,15824 7944,15824" style="fill:none;stroke:rgb(45,62,80);stroke-width:150px;"/>
        </g>
        <g transform="matrix(0.0149989,0,0,0.0149995,0,0)">
            <path d="M10888,15824C11006,15824 11100,15926 11100,16050L11100,17130C11100,17255 11195,17356 11312,17356C11195,17356 11100,17458 11100,17582L11100,18662C11100,18787 11006,18888 10888,18888" style="fill:none;stroke:rgb(45,62,80);stroke-width:150px;"/>
        </g>
        <g transform="matrix(0.0149989,0,0,0.0149995,0,0)">
            <rect x="16444" y="17980" width="248" height="512" style="fill:rgb(11,181,221);"/>
        </g>
        <g transform="matrix(0.0149989,0,0,0.0149995,0,0)">
            <rect x="16444" y="17980" width="248" height="512" style="fill:none;stroke:rgb(6,132,162);stroke-width:33px;"/>
        </g>
        <g transform="matrix(0.0149989,0,0,0.0149995,0,0)">
            <rect x="16740" y="17852" width="248" height="640" style="fill:rgb(11,181,221);"/>
        </g>
        <g transform="matrix(0.0149989,0,0,0.0149995,0,0)">
            <rect x="16740" y="17852" width="248" height="640" style="fill:none;stroke:rgb(6,132,162);stroke-width:33px;"/>
        </g>
        <g transform="matrix(0.0149989,0,0,0.0149995,0,0)">
            <rect x="17036" y="17716" width="248" height="776" style="fill:rgb(11,181,221);"/>
        </g>
        <g transform="matrix(0.0149989,0,0,0.0149995,0,0)">
            <rect x="17036" y="17716" width="248" height="776" style="fill:none;stroke:rgb(6,132,162);stroke-width:33px;"/>
        </g>
        <g transform="matrix(0.0149989,0,0,0.0149995,0,0)">
            <path d="M16342,18229C15937,18236 15603,17914 15596,17509C15589,17104 15912,16770 16316,16763C16721,16756 17055,17079 17062,17483C17063,17502 17062,17520 17061,17539" style="fill:none;stroke:rgb(11,181,221);stroke-width:100px;stroke-linecap:round;"/>
        </g>
        <g transform="matrix(0.0149989,0,0,0.0149995,0,0)">
            <path d="M17056,17578L17203,17416" style="fill:none;stroke:rgb(11,181,221);stroke-width:100px;stroke-linecap:round;"/>
        </g>
        <g transform="matrix(0.0149989,0,0,0.0149995,0,0)">
            <path d="M17050,17579L16888,17432" style="fill:none;stroke:rgb(11,181,221);stroke-width:100px;stroke-linecap:round;"/>
        </g>
        <g transform="matrix(0.0149989,0,0,0.0149995,0,0)">
            <path d="M16025,17666C15992,17608 15992,17479 16027,17403C16062,17326 16128,17218 16310,17215C16374,17214 16467,17199 16526,17185C16586,17171 16642,17128 16668,17128C16695,17129 16689,17154 16685,17191C16681,17227 16661,17301 16643,17347C16624,17394 16573,17530 16535,17592C16497,17653 16464,17693 16412,17719C16361,17745 16289,17759 16225,17750C16160,17741 16058,17723 16025,17666" style="fill:none;stroke:rgb(45,62,80);stroke-width:100px;stroke-linecap:round;"/>
        </g>
        <g transform="matrix(0.0149989,0,0,0.0149995,0,0)">
            <path d="M15952,17848C15984,17716 16015,17584 16288,17496" style="fill:none;stroke:rgb(45,62,80);stroke-width:100px;stroke-linecap:round;"/>
        </g>
        <g transform="matrix(0.0149989,0,0,0.0149995,0,0)">
            <rect x="15164" y="16652" width="336" height="152" style="fill:rgb(11,181,221);"/>
        </g>
        <g transform="matrix(0.0149989,0,0,0.0149995,0,0)">
            <rect x="15164" y="16652" width="336" height="152" style="fill:none;stroke:rgb(6,132,162);stroke-width:33px;"/>
        </g>
        <g transform="matrix(0.0149989,0,0,0.0149995,0,0)">
            <path d="M15500,16732L15770,16732" style="fill:none;stroke:rgb(11,181,221);stroke-width:33px;"/>
        </g>
        <g transform="matrix(0.0149989,0,0,0.0149995,0,0)">
            <path d="M15772,16732L15887,17196" style="fill:none;stroke:rgb(11,181,221);stroke-width:33px;"/>
        </g>
        <g transform="matrix(0.0149989,0,0,0.0149995,0,0)">
            <rect x="15412" y="18204" width="336" height="160" style="fill:rgb(11,181,221);"/>
        </g>
        <g transform="matrix(0.0149989,0,0,0.0149995,0,0)">
            <rect x="15412" y="18204" width="336" height="160" style="fill:none;stroke:rgb(6,132,162);stroke-width:33px;"/>
        </g>
        <g transform="matrix(0.0149989,0,0,0.0149995,0,0)">
            <path d="M15748,18284L15991,18284" style="fill:none;stroke:rgb(11,181,221);stroke-width:33px;"/>
        </g>
        <g transform="matrix(0.0149989,0,0,0.0149995,0,0)">
            <path d="M15996,18284L16111,17820" style="fill:none;stroke:rgb(11,181,221);stroke-width:33px;"/>
        </g>
        <g transform="matrix(0.0149989,0,0,0.0149995,0,0)">
            <rect x="17228" y="16948" width="344" height="152" style="fill:rgb(11,181,221);"/>
        </g>
        <g transform="matrix(0.0149989,0,0,0.0149995,0,0)">
            <rect x="17228" y="16948" width="344" height="152" style="fill:none;stroke:rgb(6,132,162);stroke-width:33px;"/>
        </g>
        <g transform="matrix(0.0149989,0,0,0.0149995,0,0)">
            <path d="M17044,17028L17222,17028" style="fill:none;stroke:rgb(11,181,221);stroke-width:33px;"/>
        </g>
        <g transform="matrix(0.0149989,0,0,0.0149995,0,0)">
            <path d="M16548,17295L17049,17028" style="fill:none;stroke:rgb(11,181,221);stroke-width:33px;"/>
        </g>
        <g transform="matrix(0.0149989,0,0,0.0149995,0,0)">
            <path d="M17181,16128C17215,16128 17249,16138 17279,16157C17319,16185 17344,16227 17352,16271C17360,16315 17351,16362 17322,16403L17070,16764C17035,16814 16981,16838 16926,16838L16888,16892L16870,16875C16846,16856 16821,16837 16795,16819L16727,16778L16764,16725C16744,16673 16749,16613 16783,16564L17036,16203C17070,16154 17125,16128 17181,16128Z" style="fill:none;stroke:rgb(11,181,221);stroke-width:100px;stroke-linecap:round;"/>
        </g>
        <g transform="matrix(0.0149989,0,0,0.0149995,0,0)">
            <path d="M14920,18952C14803,18952 14708,18851 14708,18726L14708,17642C14708,17518 14614,17416 14496,17416C14614,17416 14708,17315 14708,17190L14708,16106C14708,15982 14803,15880 14920,15880" style="fill:none;stroke:rgb(45,62,80);stroke-width:150px;"/>
        </g>
        <g transform="matrix(0.0149989,0,0,0.0149995,0,0)">
            <path d="M17864,15880C17984,15880 18080,15984 18080,16111L18080,17186C18080,17313 18177,17416 18296,17416C18177,17416 18080,17520 18080,17647L18080,18722C18080,18849 17984,18952 17864,18952" style="fill:none;stroke:rgb(45,62,80);stroke-width:150px;"/>
        </g>
        <g transform="matrix(0.00749944,0,0,0.00749973,0,0)">
            <path d="M12448,7888C12955,6557 14059,4909 14919,4891C15780,4874 16912,7106 17610,7362C18309,7619 18512,6513 19109,6432C19706,6351 20290,7266 21190,6877C22091,6488 23137,5868 24512,4096" style="fill:none;stroke:rgb(11,181,221);stroke-width:399.99px;stroke-linecap:round;"/>
        </g>
        <g transform="matrix(0.00749944,0,0,0.00749973,0,0)">
            <path d="M12636,3827L13184,4508L13183,4506L13390,4758C13460,4843 13448,4969 13363,5040C13277,5110 13151,5097 13081,5012L12873,4760L12325,4078C12255,3992 12269,3866 12355,3797C12441,3727 12567,3741 12636,3827ZM14422,5969L14579,6144L14577,6141L14867,6451L14864,6448L15159,6750L15155,6746L15240,6828C15319,6905 15321,7032 15244,7111C15167,7190 15040,7192 14961,7115L14874,7031L14576,6726L14283,6413L14125,6236C14051,6154 14057,6028 14140,5954C14222,5880 14348,5887 14422,5969ZM16424,7862L16700,8065L16693,8061L17029,8287L17022,8282L17366,8492L17357,8487L17400,8510C17497,8563 17533,8684 17480,8781C17428,8878 17306,8914 17209,8862L17162,8836L16809,8621L16466,8390L16187,8184C16098,8118 16079,7993 16144,7904C16210,7815 16335,7796 16424,7862ZM18823,9160L19178,9282L19171,9280L19563,9401L19558,9400L19955,9511L19950,9509L19952,9510C20060,9537 20125,9645 20098,9752C20072,9860 19963,9925 19856,9898L19850,9897L19448,9784L19050,9662L18693,9538C18589,9503 18533,9389 18569,9284C18605,9180 18719,9124 18823,9160ZM21504,9847L21576,9861L21573,9860L21992,9932L21989,9932L22682,10041C22792,10058 22866,10160 22849,10269C22832,10378 22730,10453 22621,10436L21926,10327L21504,10254L21430,10240C21322,10220 21250,10116 21271,10007C21291,9898 21396,9827 21504,9847Z" style="fill:rgb(6,132,162);fill-rule:nonzero;stroke:rgb(6,132,162);stroke-width:1px;stroke-linejoin:round;stroke-miterlimit:10;"/>
        </g>
        <g transform="matrix(0.00749944,0,0,0.00749973,0,0)">
            <path d="M11716,12658L11716,1579L11516,1579L11516,12658L11716,12658ZM12016,1712L11616,912L11216,1712L12016,1712Z" style="fill:rgb(172,172,172);fill-rule:nonzero;stroke:rgb(172,172,172);stroke-width:1px;stroke-linejoin:round;stroke-miterlimit:10;"/>
        </g>
        <rect x="0" y="0" width="476.004" height="293.509" style="fill:none;"/>
        <clipPath id="_clip1">
            <rect x="0" y="0" width="476.004" height="293.509"/>
        </clipPath>
        <g clip-path="url(#_clip1)">
            <g transform="matrix(-2.2042e-17,-0.119996,0.119991,-2.20429e-17,78.4579,69.6381)">
                <text x="0px" y="0px" style="font-family:'Calibri', sans-serif;font-size:100px;fill:rgb(147,147,147);">a</text>
                <text x="48px" y="0px" style="font-family:'Calibri', sans-serif;font-size:100px;fill:rgb(147,147,147);">b</text>
                <text x="101.039px" y="0px" style="font-family:'Calibri', sans-serif;font-size:100px;fill:rgb(147,147,147);">u</text>
                <text x="154.079px" y="0px" style="font-family:'Calibri', sans-serif;font-size:100px;fill:rgb(147,147,147);">n</text>
                <text x="207.118px" y="0px" style="font-family:'Calibri', sans-serif;font-size:100px;fill:rgb(147,147,147);">d</text>
                <text x="259.157px" y="0px" style="font-family:'Calibri', sans-serif;font-size:100px;fill:rgb(147,147,147);">a</text>
                <text x="307.157px" y="0px" style="font-family:'Calibri', sans-serif;font-size:100px;fill:rgb(147,147,147);">n</text>
                <text x="359.196px" y="0px" style="font-family:'Calibri', sans-serif;font-size:100px;fill:rgb(147,147,147);">c</text>
                <text x="401.181px" y="0px" style="font-family:'Calibri', sans-serif;font-size:100px;fill:rgb(147,147,147);">e</text>
            </g>
            <g transform="matrix(0.00749944,0,0,0.00749973,0,0)">
                <path d="M10017,10972L26314,10979L26314,11179L10016,11172L10017,10972ZM26180,10679L26980,11079L26180,11479L26180,10679Z" style="fill:rgb(172,172,172);fill-rule:nonzero;stroke:rgb(172,172,172);stroke-width:1px;stroke-linejoin:round;stroke-miterlimit:2;"/>
            </g>
            <g transform="matrix(0.119991,0,0,0.119996,104.906,99.6425)">
                <text x="0px" y="0px" style="font-family:'Calibri', sans-serif;font-size:100px;fill:rgb(147,147,147);">d</text>
                <text x="53.039px" y="0px" style="font-family:'Calibri', sans-serif;font-size:100px;fill:rgb(147,147,147);">i</text>
                <text x="75.988px" y="0px" style="font-family:'Calibri', sans-serif;font-size:100px;fill:rgb(147,147,147);">f</text>
                <text x="105.029px" y="0px" style="font-family:'Calibri', sans-serif;font-size:100px;fill:rgb(147,147,147);">f</text>
                <text x="122.406px" y="0px" style="font-family:'Calibri', sans-serif;font-size:100px;fill:rgb(147,147,147);">.</text>
                <text x="168.458px" y="0px" style="font-family:'Calibri', sans-serif;font-size:100px;fill:rgb(147,147,147);">e</text>
                <text x="215.9px" y="0px" style="font-family:'Calibri', sans-serif;font-size:100px;fill:rgb(147,147,147);">x</text>
                <text x="258.911px" y="0px" style="font-family:'Calibri', sans-serif;font-size:100px;fill:rgb(147,147,147);">p</text>
                <text x="311.95px" y="0px" style="font-family:'Calibri', sans-serif;font-size:100px;fill:rgb(147,147,147);">e</text>
                <text x="361.905px" y="0px" style="font-family:'Calibri', sans-serif;font-size:100px;fill:rgb(147,147,147);">r</text>
                <text x="396.869px" y="0px" style="font-family:'Calibri', sans-serif;font-size:100px;fill:rgb(147,147,147);">i</text>
                <text x="419.818px" y="0px" style="font-family:'Calibri', sans-serif;font-size:100px;fill:rgb(147,147,147);">m</text>
                <text x="499.801px" y="0px" style="font-family:'Calibri', sans-serif;font-size:100px;fill:rgb(147,147,147);">e</text>
                <text x="549.757px" y="0px" style="font-family:'Calibri', sans-serif;font-size:100px;fill:rgb(147,147,147);">n</text>
                <text x="600.868px" y="0px" style="font-family:'Calibri', sans-serif;font-size:100px;fill:rgb(147,147,147);">t</text>
                <text x="634.864px" y="0px" style="font-family:'Calibri', sans-serif;font-size:100px;fill:rgb(147,147,147);">s</text>
            </g>
            <g transform="matrix(0.0149989,0,0,0.0149995,0,0)">
                <path d="M20380,16258C20380,15946 20634,15692 20946,15692L30015,15692C30327,15692 30580,15946 30580,16258L30580,18519C30580,18831 30327,19084 30015,19084L20946,19084C20634,19084 20380,18831 20380,18519L20380,16258Z" style="fill:rgb(45,62,80);"/>
            </g>
            <g transform="matrix(0.0149989,0,0,0.0149995,0,0)">
                <path d="M20380,16258C20380,15946 20634,15692 20946,15692L30015,15692C30327,15692 30580,15946 30580,16258L30580,18519C30580,18831 30327,19084 30015,19084L20946,19084C20634,19084 20380,18831 20380,18519L20380,16258Z" style="fill:none;stroke:rgb(30,43,56);stroke-width:67px;"/>
            </g>
            <g transform="matrix(0.0149989,0,0,0.0149995,0,0)">
                <path d="M20380,9402C20380,9090 20634,8836 20946,8836L30015,8836C30327,8836 30580,9090 30580,9402L30580,11663C30580,11975 30327,12228 30015,12228L20946,12228C20634,12228 20380,11975 20380,11663L20380,9402Z" style="fill:rgb(31,194,167);"/>
            </g>
            <g transform="matrix(0.0149989,0,0,0.0149995,0,0)">
                <path d="M20380,9402C20380,9090 20634,8836 20946,8836L30015,8836C30327,8836 30580,9090 30580,9402L30580,11663C30580,11975 30327,12228 30015,12228L20946,12228C20634,12228 20380,11975 20380,11663L20380,9402Z" style="fill:none;stroke:rgb(20,142,122);stroke-width:67px;"/>
            </g>
            <g transform="matrix(0.0149989,0,0,0.0149995,0,0)">
                <path d="M20380,2491C20380,2178 20634,1924 20947,1924L30014,1924C30327,1924 30580,2178 30580,2491L30580,4758C30580,5071 30327,5324 30014,5324L20947,5324C20634,5324 20380,5071 20380,4758L20380,2491Z" style="fill:rgb(11,181,221);"/>
            </g>
            <g transform="matrix(0.0149989,0,0,0.0149995,0,0)">
                <path d="M20380,2491C20380,2178 20634,1924 20947,1924L30014,1924C30327,1924 30580,2178 30580,2491L30580,4758C30580,5071 30327,5324 30014,5324L20947,5324C20634,5324 20380,5071 20380,4758L20380,2491Z" style="fill:none;stroke:rgb(6,132,162);stroke-width:67px;"/>
            </g>
            <g transform="matrix(0.119991,0,0,0.119996,346.489,47.9731)">
                <text x="0px" y="0px" style="font-family:'Calibri', sans-serif;font-size:150px;fill:rgb(255,192,0);">g</text>
            </g>
            <g transform="matrix(0.119991,0,0,0.119996,354.888,47.9731)">
                <text x="0px" y="0px" style="font-family:'Calibri', sans-serif;font-size:150px;fill:rgb(89,89,89);">e</text>
                <text x="74.934px" y="0px" style="font-family:'Calibri', sans-serif;font-size:150px;fill:rgb(89,89,89);">n</text>
                <text x="153.992px" y="0px" style="font-family:'Calibri', sans-serif;font-size:150px;fill:rgb(89,89,89);">e</text>
                <text x="228.926px" y="0px" style="font-family:'Calibri', sans-serif;font-size:150px;fill:rgb(89,89,89);">s</text>
            </g>
            <g transform="matrix(0.119991,0,0,0.119996,393.406,47.9731)">
                <text x="0px" y="0px" style="font-family:'Calibri', sans-serif;font-size:150px;fill:rgb(255,192,0);">o</text>
            </g>
            <g transform="matrix(0.119991,0,0,0.119996,402.885,47.9731)">
                <text x="0px" y="0px" style="font-family:'Calibri', sans-serif;font-size:150px;fill:rgb(89,89,89);">f</text>
            </g>
            <g transform="matrix(0.119991,0,0,0.119996,349.489,69.5723)">
                <text x="0px" y="0px" style="font-family:'Calibri', sans-serif;font-size:150px;fill:rgb(255,192,0);">i</text>
            </g>
            <g transform="matrix(0.119991,0,0,0.119996,353.569,69.5723)">
                <text x="0px" y="0px" style="font-family:'Calibri', sans-serif;font-size:150px;fill:rgb(89,89,89);">n</text>
                <text x="76.667px" y="0px" style="font-family:'Calibri', sans-serif;font-size:150px;fill:rgb(89,89,89);">t</text>
                <text x="123.05px" y="0px" style="font-family:'Calibri', sans-serif;font-size:150px;fill:rgb(89,89,89);">e</text>
                <text x="197.984px" y="0px" style="font-family:'Calibri', sans-serif;font-size:150px;fill:rgb(89,89,89);">r</text>
                <text x="245.951px" y="0px" style="font-family:'Calibri', sans-serif;font-size:150px;fill:rgb(89,89,89);">e</text>
                <text x="320.885px" y="0px" style="font-family:'Calibri', sans-serif;font-size:150px;fill:rgb(89,89,89);">s</text>
                <text x="376.217px" y="0px" style="font-family:'Calibri', sans-serif;font-size:150px;fill:rgb(89,89,89);">t</text>
            </g>
            <g transform="matrix(0.119991,0,0,0.119996,347.823,256.427)">
                <text x="0px" y="0px" style="font-family:'Calibri', sans-serif;font-size:150px;fill:white;">a</text>
                <text x="67.51px" y="0px" style="font-family:'Calibri', sans-serif;font-size:150px;fill:white;">v</text>
                <text x="131.262px" y="0px" style="font-family:'Calibri', sans-serif;font-size:150px;fill:white;">a</text>
                <text x="203.263px" y="0px" style="font-family:'Calibri', sans-serif;font-size:150px;fill:white;">i<tspan x="237.187px " y="0px ">l</tspan></text>
                <text x="271.11px" y="0px" style="font-family:'Calibri', sans-serif;font-size:150px;fill:white;">a</text>
                <text x="343.111px" y="0px" style="font-family:'Calibri', sans-serif;font-size:150px;fill:white;">b</text>
                <text x="422.17px" y="0px" style="font-family:'Calibri', sans-serif;font-size:150px;fill:white;">l</text>
                <text x="456.093px" y="0px" style="font-family:'Calibri', sans-serif;font-size:150px;fill:white;">e</text>
            </g>
            <g transform="matrix(0.119991,0,0,0.119996,359.582,278.026)">
                <text x="0px" y="0px" style="font-family:'Calibri', sans-serif;font-size:150px;fill:white;">A</text>
                <text x="86.942px" y="0px" style="font-family:'Calibri', sans-serif;font-size:150px;fill:white;">R</text>
                <text x="165.619px" y="0px" style="font-family:'Calibri', sans-serif;font-size:150px;fill:white;">C</text>
                <text x="245.649px" y="0px" style="font-family:'Calibri', sans-serif;font-size:150px;fill:white;">s</text>
            </g>
            <g transform="matrix(0.119991,0,0,0.119996,313.356,160.749)">
                <text x="0px" y="0px" style="font-family:'Calibri', sans-serif;font-size:150px;fill:rgb(89,89,89);">o</text>
                <text x="77.392px" y="0px" style="font-family:'Calibri', sans-serif;font-size:150px;fill:rgb(89,89,89);">v</text>
                <text x="142.877px" y="0px" style="font-family:'Calibri', sans-serif;font-size:150px;fill:rgb(89,89,89);">e</text>
                <text x="217.81px" y="0px" style="font-family:'Calibri', sans-serif;font-size:150px;fill:rgb(89,89,89);">r</text>
                <text x="263.679px" y="0px" style="font-family:'Calibri', sans-serif;font-size:150px;fill:rgb(89,89,89);">a</text>
                <text x="335.68px" y="0px" style="font-family:'Calibri', sans-serif;font-size:150px;fill:rgb(89,89,89);">r</text>
                <text x="383.427px" y="0px" style="font-family:'Calibri', sans-serif;font-size:150px;fill:rgb(89,89,89);">c</text>
                <text x="446.405px" y="0px" style="font-family:'Calibri', sans-serif;font-size:150px;fill:rgb(89,89,89);">h</text>
                <text x="525.464px" y="0px" style="font-family:'Calibri', sans-serif;font-size:150px;fill:rgb(89,89,89);">i</text>
                <text x="559.387px" y="0px" style="font-family:'Calibri', sans-serif;font-size:150px;fill:rgb(89,89,89);">n</text>
                <text x="638.446px" y="0px" style="font-family:'Calibri', sans-serif;font-size:150px;fill:rgb(89,89,89);">g</text>
                <text x="744.413px" y="0px" style="font-family:'Calibri', sans-serif;font-size:150px;fill:rgb(89,89,89);">q<tspan x="823.471px " y="0px ">u</tspan></text>
                <text x="902.53px" y="0px" style="font-family:'Calibri', sans-serif;font-size:150px;fill:rgb(89,89,89);">e</text>
                <text x="977.464px" y="0px" style="font-family:'Calibri', sans-serif;font-size:150px;fill:rgb(89,89,89);">r</text>
                <text x="1031.14px" y="0px" style="font-family:'Calibri', sans-serif;font-size:150px;fill:rgb(89,89,89);">y</text>
            </g>
            <g transform="matrix(0.0149989,0,0,0.0149995,0,0)">
                <path d="M30000,876C29370,-374 28300,376 28300,1077C28300,2127 30000,3428 30000,3428C30000,3428 31700,2127 31700,1077C31700,376 30630,-374 30000,876" style="fill:white;"/>
            </g>
            <g transform="matrix(0.0149989,0,0,0.0149995,0,0)">
                <path d="M30000,876C29370,-374 28300,376 28300,1077C28300,2127 30000,3428 30000,3428C30000,3428 31700,2127 31700,1077C31700,376 30630,-374 30000,876" style="fill:none;stroke:rgb(255,192,0);stroke-width:67px;"/>
            </g>
            <g transform="matrix(0.119991,0,0,0.119996,439.59,28.7569)">
                <text x="0px" y="0px" style="font-family:'Calibri', sans-serif;font-size:150px;fill:rgb(255,192,0);">g</text>
                <text x="68.93px" y="0px" style="font-family:'Calibri', sans-serif;font-size:150px;fill:rgb(255,192,0);">o</text>
                <text x="147.982px" y="0px" style="font-family:'Calibri', sans-serif;font-size:150px;fill:rgb(255,192,0);">i</text>
            </g>
            <g transform="matrix(0.00749944,0,0,0.00749973,0,0)">
                <path d="M5144,25985L5144,24785L4744,24785L4744,25985L5144,25985ZM5144,24385L5144,23185L4744,23185L4744,24385L5144,24385ZM5144,22785L5144,22048L4744,22048L4744,22785L5144,22785Z" style="fill:rgb(31,194,167);fill-rule:nonzero;stroke:rgb(31,194,167);stroke-width:1px;stroke-linejoin:round;stroke-miterlimit:2;"/>
            </g>
            <g transform="matrix(0.0149989,0,0,0.0149995,0,0)">
                <path d="M2576,10524L3176,10524L3176,10724L2576,10724L2576,10524ZM3376,10524L3976,10524L3976,10724L3376,10724L3376,10524ZM4176,10524L4776,10524L4776,10724L4176,10724L4176,10524ZM4976,10524L5576,10524L5576,10724L4976,10724L4976,10524ZM5776,10524L6376,10524L6376,10724L5776,10724L5776,10524ZM6576,10524L7176,10524L7176,10724L6576,10724L6576,10524ZM7376,10524L7976,10524L7976,10724L7376,10724L7376,10524ZM8176,10524L8776,10524L8776,10724L8176,10724L8176,10524ZM8976,10524L9576,10524L9576,10724L8976,10724L8976,10524ZM9776,10524L10376,10524L10376,10724L9776,10724L9776,10524ZM10576,10524L11176,10524L11176,10724L10576,10724L10576,10524ZM11376,10524L11976,10524L11976,10724L11376,10724L11376,10524ZM12176,10524L12776,10524L12776,10724L12176,10724L12176,10524ZM12976,10524L13576,10524L13576,10724L12976,10724L12976,10524ZM13776,10524L14376,10524L14376,10724L13776,10724L13776,10524ZM14576,10524L15176,10524L15176,10724L14576,10724L14576,10524ZM15376,10524L15976,10524L15976,10724L15376,10724L15376,10524ZM16176,10524L16271,10524L16271,10724L16176,10724L16176,10524Z" style="fill:rgb(31,194,167);fill-rule:nonzero;stroke:rgb(31,194,167);stroke-width:1px;stroke-linejoin:round;stroke-miterlimit:2;"/>
            </g>
            <g transform="matrix(0.00749944,0,0,0.00749973,0,0)">
                <path d="M19032,25985L19032,24785L18632,24785L18632,25985L19032,25985ZM19032,24385L19032,23185L18632,23185L18632,24385L19032,24385ZM19032,22785L19032,22048L18632,22048L18632,22785L19032,22785Z" style="fill:rgb(31,194,167);fill-rule:nonzero;stroke:rgb(31,194,167);stroke-width:1px;stroke-linejoin:round;stroke-miterlimit:2;"/>
            </g>
            <g transform="matrix(0.0149989,0,0,0.0149995,0,0)">
                <path d="M16516,12992L16516,12392L16316,12392L16316,12992L16516,12992ZM16516,12192L16516,11592L16316,11592L16316,12192L16516,12192ZM16516,11392L16516,11024L16316,11024L16316,11392L16516,11392Z" style="fill:rgb(31,194,167);fill-rule:nonzero;stroke:rgb(31,194,167);stroke-width:1px;stroke-linejoin:round;stroke-miterlimit:2;"/>
            </g>
            <g transform="matrix(0.00749944,0,0,0.00749973,0,0)">
                <path d="M19032,20080L19032,18880L18632,18880L18632,20080L19032,20080ZM19032,18480L19032,17280L18632,17280L18632,18480L19032,18480ZM19032,16880L19032,16144L18632,16144L18632,16880L19032,16880Z" style="fill:rgb(31,194,167);fill-rule:nonzero;stroke:rgb(31,194,167);stroke-width:1px;stroke-linejoin:round;stroke-miterlimit:2;"/>
            </g>
        </g>
    </g>
</svg>
