<?xml version="1.0" encoding="utf-8"?>
<!-- Generator: Adobe Illustrator 24.3.0, SVG Export Plug-In . SVG Version: 6.00 Build 0)  -->
<svg version="1.1" id="Layer_1" xmlns="http://www.w3.org/2000/svg" xmlns:xlink="http://www.w3.org/1999/xlink" x="0px" y="0px"
	 viewBox="0 0 254 250" style="enable-background:new 0 0 254 250;" xml:space="preserve">
<style type="text/css">
	.st0{fill:#0BB5DD;}
	.st1{fill:none;stroke:#0684A2;stroke-miterlimit:8;}
	.st2{fill:none;stroke:#0BB5DD;stroke-width:6;stroke-linecap:round;stroke-miterlimit:8;}
	.st3{fill:none;stroke:#2D3E50;stroke-width:6;stroke-linecap:round;stroke-miterlimit:8;}
	.st4{fill:none;stroke:#0BB5DD;stroke-width:0.5;stroke-miterlimit:8;}
</style>
<rect x="135.7" y="194.6" class="st0" width="24" height="51"/>
<rect x="135.7" y="194.6" class="st1" width="24" height="51"/>
<rect x="165.7" y="181.6" class="st0" width="24" height="64"/>
<rect x="165.7" y="181.6" class="st1" width="24" height="64"/>
<rect x="194.7" y="167.6" class="st0" width="25" height="78"/>
<rect x="194.7" y="167.6" class="st1" width="25" height="78"/>
<path class="st2" d="M124.2,218.9c-40.8,0.7-74.5-31.8-75.2-72.6c-0.7-40.8,31.8-74.5,72.6-75.2c40.8-0.7,74.5,31.8,75.2,72.6
	c0,1.9,0,3.7-0.1,5.6"/>
<line class="st2" x1="195.2" y1="153.4" x2="210" y2="137.1"/>
<line class="st2" x1="195.5" y1="152.9" x2="179.2" y2="138.1"/>
<path class="st3" d="M91.7,161.5c-3.3-5.7-3.3-18.5,0.2-26.1c3.5-7.6,10.1-18.4,28.4-18.6c6.4-0.1,15.7-1.6,21.7-3
	c6-1.4,11.6-5.7,14.2-5.6s2.1,2.5,1.7,6.2s-2.4,10.9-4.2,15.6c-1.9,4.6-6.9,18.1-10.8,24.3c-3.9,6.2-7.1,10-12.3,12.7
	c-5.2,2.6-12.3,3.9-18.8,3.1C105.3,168.9,95,167.2,91.7,161.5z"/>
<path class="st3" d="M84.2,180.1c3.1-13.5,6.3-27.1,34-36"/>
<rect x="5.7" y="60.6" class="st0" width="34" height="15"/>
<rect x="5.7" y="60.6" class="st1" width="34" height="15"/>
<line class="st4" x1="39.7" y1="68.6" x2="67" y2="68.6"/>
<line class="st4" x1="67.7" y1="68.6" x2="79.2" y2="115.4"/>
<rect x="30.7" y="217.6" class="st0" width="35" height="15"/>
<rect x="30.7" y="217.6" class="st1" width="35" height="15"/>
<line class="st4" x1="65.7" y1="224.6" x2="90.2" y2="224.6"/>
<line class="st4" x1="89.7" y1="225.4" x2="101.2" y2="178.6"/>
<rect x="214.7" y="90.6" class="st0" width="34" height="15"/>
<rect x="214.7" y="90.6" class="st1" width="34" height="15"/>
<line class="st4" x1="195.7" y1="97.6" x2="213.6" y2="97.6"/>
<line class="st4" x1="145.7" y1="124.5" x2="196.2" y2="97.6"/>
<path class="st2" d="M208.8,7c3.4,0,6.8,1,9.8,2.9c4.1,2.9,6.6,7,7.4,11.5c0.8,4.5-0.2,9.2-3,13.3l-25.5,36.5
	c-3.5,5-8.9,7.5-14.5,7.4l-3.8,5.4l-1.8-1.7c-2.4-2-5-3.9-7.6-5.7l-6.9-4.2l3.7-5.3c-2-5.3-1.5-11.2,2-16.2l25.5-36.5
	C197.6,9.6,203.2,7,208.8,7z"/>
</svg>
