<?xml version="1.0" encoding="UTF-8" standalone="no"?>
<!DOCTYPE svg PUBLIC "-//W3C//DTD SVG 1.1//EN" "http://www.w3.org/Graphics/SVG/1.1/DTD/svg11.dtd">
<svg width="100%" height="100%" viewBox="0 0 1920 1080" version="1.1" xmlns="http://www.w3.org/2000/svg" xmlns:xlink="http://www.w3.org/1999/xlink" xml:space="preserve" xmlns:serif="http://www.serif.com/" style="fill-rule:evenodd;clip-rule:evenodd;stroke-miterlimit:8;">
    <g transform="matrix(2.34213,0,0,2.34213,344.253,58.9904)">
        <g transform="matrix(0.0149989,0,0,0.0149995,0,0)">
            <path d="M4688,13624C4688,9029 8413,5304 13008,5304C17603,5304 21328,9029 21328,13624C21328,18219 17603,21944 13008,21944C8413,21944 4688,18219 4688,13624" style="fill:rgb(31,194,167);fill-opacity:0.6;"/>
        </g>
        <g transform="matrix(0.0149989,0,0,0.0149995,0,0)">
            <path d="M4688,13624C4688,9029 8413,5304 13008,5304C17603,5304 21328,9029 21328,13624C21328,18219 17603,21944 13008,21944C8413,21944 4688,18219 4688,13624" style="fill:none;stroke:white;stroke-width:100px;"/>
        </g>
        <g transform="matrix(0.00749944,0,0,0.00749973,0,0)">
            <path d="M11064,14016C11064,10663 13783,7944 17136,7944C20490,7944 23208,10663 23208,14016C23208,17370 20490,20088 17136,20088C13783,20088 11064,17370 11064,14016" style="fill:rgb(202,243,252);"/>
        </g>
        <g transform="matrix(0.00749944,0,0,0.00749973,0,0)">
            <path d="M15523,13644C15421,13559 15371,13489 15121,13696C14870,13903 14328,14437 14018,14886C13709,15335 13397,16020 13266,16390C13135,16761 13129,16898 13231,17108C13333,17318 13499,17420 13878,17650C14258,17880 15506,18490 15506,18490C15984,18732 16374,19032 16748,19102C17121,19172 17287,19102 17745,18910C18203,18717 18996,18230 19495,17947C19993,17664 20500,17446 20737,17213C20973,16979 20987,16816 20912,16548C20836,16280 20775,16023 20492,15603C20209,15183 19547,14358 19215,14029C18882,13699 18698,13518 18497,13626C18296,13734 18223,14230 18007,14676C17792,15122 17389,16005 17203,16303C17016,16600 17042,16600 16888,16460C16733,16320 16485,15871 16275,15463C16065,15055 15841,14513 15733,14203C15625,13894 15625,13728 15523,13644" style="fill:rgb(11,181,221);"/>
        </g>
        <g transform="matrix(0.00749944,0,0,0.00749973,0,0)">
            <path d="M15523,13644C15421,13559 15371,13489 15121,13696C14870,13903 14328,14437 14018,14886C13709,15335 13397,16020 13266,16390C13135,16761 13129,16898 13231,17108C13333,17318 13499,17420 13878,17650C14258,17880 15506,18490 15506,18490C15984,18732 16374,19032 16748,19102C17121,19172 17287,19102 17745,18910C18203,18717 18996,18230 19495,17947C19993,17664 20500,17446 20737,17213C20973,16979 20987,16816 20912,16548C20836,16280 20775,16023 20492,15603C20209,15183 19547,14358 19215,14029C18882,13699 18698,13518 18497,13626C18296,13734 18223,14230 18007,14676C17792,15122 17389,16005 17203,16303C17016,16600 17042,16600 16888,16460C16733,16320 16485,15871 16275,15463C16065,15055 15841,14513 15733,14203C15625,13894 15625,13728 15523,13644" style="fill:none;stroke:rgb(6,132,162);stroke-width:133px;"/>
        </g>
        <g transform="matrix(0.00749944,0,0,0.00749973,0,0)">
            <path d="M14872,11136C14872,9974 15814,9032 16976,9032C18138,9032 19080,9974 19080,11136C19080,12298 18138,13240 16976,13240C15814,13240 14872,12298 14872,11136" style="fill:rgb(11,181,221);"/>
        </g>
        <g transform="matrix(0.00749944,0,0,0.00749973,0,0)">
            <path d="M14872,11136C14872,9974 15814,9032 16976,9032C18138,9032 19080,9974 19080,11136C19080,12298 18138,13240 16976,13240C15814,13240 14872,12298 14872,11136" style="fill:none;stroke:rgb(6,132,162);stroke-width:133px;"/>
        </g>
        <g transform="matrix(0.00749944,0,0,0.00749973,0,0)">
            <path d="M17220,14054L17367,13574L16487,13574L16634,14054L17220,14054Z" style="fill:rgb(11,181,221);"/>
        </g>
        <g transform="matrix(0.00749944,0,0,0.00749973,0,0)">
            <path d="M17220,14054L17367,13574L16487,13574L16634,14054L17220,14054Z" style="fill:none;stroke:rgb(6,132,162);stroke-width:133px;"/>
        </g>
        <g transform="matrix(0.00749944,0,0,0.00749973,0,0)">
            <path d="M17368,16261L17222,14232L16635,14232L16488,16261L16928,16680L17368,16261Z" style="fill:rgb(11,181,221);"/>
        </g>
        <g transform="matrix(0.00749944,0,0,0.00749973,0,0)">
            <path d="M17368,16261L17222,14232L16635,14232L16488,16261L16928,16680L17368,16261Z" style="fill:none;stroke:rgb(6,132,162);stroke-width:133px;"/>
        </g>
        <g transform="matrix(0.00749944,0,0,0.00749973,0,0)">
            <path d="M18736,15472L18736,16539" style="fill:none;stroke:rgb(8,136,166);stroke-width:399.99px;stroke-linecap:round;"/>
        </g>
        <g transform="matrix(0.00749944,0,0,0.00749973,0,0)">
            <path d="M19056,15600L19056,16667" style="fill:none;stroke:rgb(8,136,166);stroke-width:399.99px;stroke-linecap:round;"/>
        </g>
        <g transform="matrix(0.00749944,0,0,0.00749973,0,0)">
            <path d="M19067,16904L18854,16904C18546,16904 18296,16647 18296,16329L18296,15864L19624,15864L19624,16329C19624,16647 19375,16904 19067,16904Z" style="fill:rgb(11,181,221);"/>
        </g>
        <g transform="matrix(0.00749944,0,0,0.00749973,0,0)">
            <path d="M19067,16904L18854,16904C18546,16904 18296,16647 18296,16329L18296,15864L19624,15864L19624,16329C19624,16647 19375,16904 19067,16904Z" style="fill:none;stroke:rgb(6,132,162);stroke-width:133px;"/>
        </g>
        <g transform="matrix(0.00749944,0,0,0.00749973,0,0)">
            <path d="M19028,10662C18924,10627 18470,10496 18111,10496C17813,10496 17132,10636 16976,10667C16820,10636 16140,10496 15842,10496C15487,10496 15034,10627 14925,10662C14911,10667 14896,10680 14896,10697L14896,10876C14896,10907 14906,10942 14934,10959L14991,11003C14996,11177 15019,11439 15104,11566C15213,11740 15549,11936 15889,11936C16490,11936 16773,11518 16877,11134C16887,11094 16929,11064 16976,11064C17024,11064 17062,11094 17076,11134C17184,11518 17468,11936 18064,11936C18404,11936 18740,11740 18848,11566C18929,11435 18952,11177 18962,11003L19019,10963C19047,10946 19056,10907 19056,10880L19056,10702C19052,10680 19042,10667 19028,10662ZM16594,11099C16513,11360 16395,11718 15889,11718C15672,11718 15435,11622 15336,11483C15270,11387 15275,11155 15275,10955C15275,10894 15317,10841 15383,10824C15525,10789 15695,10758 15842,10758C15955,10758 16182,10789 16404,10828C16542,10850 16631,10976 16594,11099ZM18617,11483C18518,11622 18281,11718 18064,11718C17563,11718 17440,11360 17359,11099C17322,10976 17411,10850 17544,10828C17766,10789 17993,10758 18106,10758C18258,10758 18423,10789 18565,10824C18631,10841 18674,10894 18674,10955C18678,11155 18683,11387 18617,11483Z" style="fill:white;"/>
        </g>
        <g transform="matrix(0.00749944,0,0,0.00749973,0,0)">
            <path d="M19028,10662C18924,10627 18470,10496 18111,10496C17813,10496 17132,10636 16976,10667C16820,10636 16140,10496 15842,10496C15487,10496 15034,10627 14925,10662C14911,10667 14896,10680 14896,10697L14896,10876C14896,10907 14906,10942 14934,10959L14991,11003C14996,11177 15019,11439 15104,11566C15213,11740 15549,11936 15889,11936C16490,11936 16773,11518 16877,11134C16887,11094 16929,11064 16976,11064C17024,11064 17062,11094 17076,11134C17184,11518 17468,11936 18064,11936C18404,11936 18740,11740 18848,11566C18929,11435 18952,11177 18962,11003L19019,10963C19047,10946 19056,10907 19056,10880L19056,10702C19052,10680 19042,10667 19028,10662ZM16594,11099C16513,11360 16395,11718 15889,11718C15672,11718 15435,11622 15336,11483C15270,11387 15275,11155 15275,10955C15275,10894 15317,10841 15383,10824C15525,10789 15695,10758 15842,10758C15955,10758 16182,10789 16404,10828C16542,10850 16631,10976 16594,11099ZM18617,11483C18518,11622 18281,11718 18064,11718C17563,11718 17440,11360 17359,11099C17322,10976 17411,10850 17544,10828C17766,10789 17993,10758 18106,10758C18258,10758 18423,10789 18565,10824C18631,10841 18674,10894 18674,10955C18678,11155 18683,11387 18617,11483Z" style="fill:none;stroke:rgb(8,136,166);stroke-width:47px;"/>
        </g>
        <g transform="matrix(0.0149989,0,0,0.0149995,0,0)">
            <path d="M6196,15521C6196,14927 6679,14444 7273,14444L23096,14444C23690,14444 24172,14927 24172,15521L24172,16599C24172,17194 23690,17676 23096,17676L7273,17676C6679,17676 6196,17194 6196,16599L6196,15521Z" style="fill:rgb(11,181,221);"/>
        </g>
        <g transform="matrix(0.0149989,0,0,0.0149995,0,0)">
            <path d="M6196,15521C6196,14927 6679,14444 7273,14444L23096,14444C23690,14444 24172,14927 24172,15521L24172,16599C24172,17194 23690,17676 23096,17676L7273,17676C6679,17676 6196,17194 6196,16599L6196,15521Z" style="fill:none;stroke:rgb(6,132,162);stroke-width:67px;"/>
        </g>
        <g transform="matrix(0.0149989,0,0,0.0149995,0,0)">
            <path d="M7596,16084C7596,15563 8019,15140 8540,15140C9062,15140 9484,15563 9484,16084C9484,16606 9062,17028 8540,17028C8019,17028 7596,16606 7596,16084" style="fill:white;"/>
        </g>
        <g transform="matrix(0.0149989,0,0,0.0149995,0,0)">
            <path d="M7596,16084C7596,15563 8019,15140 8540,15140C9062,15140 9484,15563 9484,16084C9484,16606 9062,17028 8540,17028C8019,17028 7596,16606 7596,16084" style="fill:none;stroke:rgb(6,132,162);stroke-width:67px;"/>
        </g>
        <g transform="matrix(0.0149989,0,0,0.0149995,0,0)">
            <path d="M10940,16084C10940,15563 11363,15140 11884,15140C12406,15140 12828,15563 12828,16084C12828,16606 12406,17028 11884,17028C11363,17028 10940,16606 10940,16084" style="fill:white;"/>
        </g>
        <g transform="matrix(0.0149989,0,0,0.0149995,0,0)">
            <path d="M10940,16084C10940,15563 11363,15140 11884,15140C12406,15140 12828,15563 12828,16084C12828,16606 12406,17028 11884,17028C11363,17028 10940,16606 10940,16084" style="fill:none;stroke:rgb(6,132,162);stroke-width:67px;"/>
        </g>
        <g transform="matrix(0.0149989,0,0,0.0149995,0,0)">
            <path d="M14276,16084C14276,15563 14699,15140 15220,15140C15742,15140 16164,15563 16164,16084C16164,16606 15742,17028 15220,17028C14699,17028 14276,16606 14276,16084" style="fill:white;"/>
        </g>
        <g transform="matrix(0.0149989,0,0,0.0149995,0,0)">
            <path d="M14276,16084C14276,15563 14699,15140 15220,15140C15742,15140 16164,15563 16164,16084C16164,16606 15742,17028 15220,17028C14699,17028 14276,16606 14276,16084" style="fill:none;stroke:rgb(6,132,162);stroke-width:67px;"/>
        </g>
        <g transform="matrix(0.0149989,0,0,0.0149995,0,0)">
            <path d="M17612,16084C17612,15563 18035,15140 18556,15140C19078,15140 19500,15563 19500,16084C19500,16606 19078,17028 18556,17028C18035,17028 17612,16606 17612,16084" style="fill:white;"/>
        </g>
        <g transform="matrix(0.0149989,0,0,0.0149995,0,0)">
            <path d="M17612,16084C17612,15563 18035,15140 18556,15140C19078,15140 19500,15563 19500,16084C19500,16606 19078,17028 18556,17028C18035,17028 17612,16606 17612,16084" style="fill:none;stroke:rgb(6,132,162);stroke-width:67px;"/>
        </g>
        <g transform="matrix(0.0149989,0,0,0.0149995,0,0)">
            <rect x="7980" y="17676" width="1112" height="2256" style="fill:rgb(11,181,221);"/>
        </g>
        <g transform="matrix(0.0149989,0,0,0.0149995,0,0)">
            <rect x="7980" y="17676" width="1112" height="2256" style="fill:none;stroke:rgb(6,132,162);stroke-width:67px;"/>
        </g>
        <g transform="matrix(0.0149989,0,0,0.0149995,0,0)">
            <path d="M21004,16084C21004,15563 21427,15140 21948,15140C22470,15140 22892,15563 22892,16084C22892,16606 22470,17028 21948,17028C21427,17028 21004,16606 21004,16084" style="fill:white;"/>
        </g>
        <g transform="matrix(0.0149989,0,0,0.0149995,0,0)">
            <path d="M21004,16084C21004,15563 21427,15140 21948,15140C22470,15140 22892,15563 22892,16084C22892,16606 22470,17028 21948,17028C21427,17028 21004,16606 21004,16084" style="fill:none;stroke:rgb(6,132,162);stroke-width:67px;"/>
        </g>
        <g transform="matrix(0.0149989,0,0,0.0149995,0,0)">
            <rect x="21004" y="17676" width="1112" height="2264" style="fill:rgb(11,181,221);"/>
        </g>
        <g transform="matrix(0.0149989,0,0,0.0149995,0,0)">
            <rect x="21004" y="17676" width="1112" height="2264" style="fill:none;stroke:rgb(6,132,162);stroke-width:67px;"/>
        </g>
        <g transform="matrix(0.0149989,0,0,0.0149995,0,0)">
            <rect x="20024" y="12656" width="536" height="1104" style="fill:rgb(11,181,221);"/>
        </g>
        <g transform="matrix(0.0149989,0,0,0.0149995,0,0)">
            <rect x="20024" y="12656" width="536" height="1104" style="fill:none;stroke:rgb(6,132,162);stroke-width:100px;"/>
        </g>
        <g transform="matrix(0.0149989,0,0,0.0149995,0,0)">
            <rect x="20672" y="12376" width="536" height="1384" style="fill:rgb(11,181,221);"/>
        </g>
        <g transform="matrix(0.0149989,0,0,0.0149995,0,0)">
            <rect x="20672" y="12376" width="536" height="1384" style="fill:none;stroke:rgb(6,132,162);stroke-width:100px;"/>
        </g>
        <g transform="matrix(0.0149989,0,0,0.0149995,0,0)">
            <rect x="21304" y="12088" width="536" height="1672" style="fill:rgb(11,181,221);"/>
        </g>
        <g transform="matrix(0.0149989,0,0,0.0149995,0,0)">
            <rect x="21304" y="12088" width="536" height="1672" style="fill:none;stroke:rgb(6,132,162);stroke-width:100px;"/>
        </g>
        <g transform="matrix(0.0149989,0,0,0.0149995,0,0)">
            <path d="M19794,13189C18914,13205 18189,12504 18174,11624C18158,10745 18859,10019 19739,10004C20618,9989 21344,10689 21359,11569C21360,11609 21359,11649 21357,11689" style="fill:none;stroke:rgb(11,181,221);stroke-width:100px;stroke-linecap:round;"/>
        </g>
        <g transform="matrix(0.0149989,0,0,0.0149995,0,0)">
            <path d="M21336,11776L21654,11424" style="fill:none;stroke:rgb(11,181,221);stroke-width:100px;stroke-linecap:round;"/>
        </g>
        <g transform="matrix(0.0149989,0,0,0.0149995,0,0)">
            <path d="M21336,11774L20984,11456" style="fill:none;stroke:rgb(11,181,221);stroke-width:100px;stroke-linecap:round;"/>
        </g>
        <g transform="matrix(0.0149989,0,0,0.0149995,0,0)">
            <path d="M19102,11964C19030,11839 19030,11561 19106,11394C19183,11228 19326,10994 19722,10988C19860,10986 20062,10954 20192,10923C20322,10892 20443,10799 20501,10801C20558,10802 20546,10856 20537,10935C20527,11014 20485,11173 20445,11274C20405,11376 20294,11670 20211,11804C20127,11938 20056,12023 19944,12080C19832,12137 19677,12166 19536,12147C19396,12127 19174,12090 19102,11964" style="fill:none;stroke:rgb(45,62,80);stroke-width:100px;stroke-linecap:round;"/>
        </g>
        <g transform="matrix(0.0149989,0,0,0.0149995,0,0)">
            <path d="M18944,12360C19012,12069 19079,11777 19672,11584" style="fill:none;stroke:rgb(45,62,80);stroke-width:100px;stroke-linecap:round;"/>
        </g>
        <g transform="matrix(0.0149989,0,0,0.0149995,0,0)">
            <rect x="17232" y="9768" width="744" height="336" style="fill:rgb(11,181,221);"/>
        </g>
        <g transform="matrix(0.0149989,0,0,0.0149995,0,0)">
            <rect x="17232" y="9768" width="744" height="336" style="fill:none;stroke:rgb(6,132,162);stroke-width:100px;"/>
        </g>
        <g transform="matrix(0.0149989,0,0,0.0149995,0,0)">
            <path d="M17976,9936L18563,9936" style="fill:none;stroke:rgb(11,181,221);stroke-width:100px;"/>
        </g>
        <g transform="matrix(0.0149989,0,0,0.0149995,0,0)">
            <path d="M18560,9936L18808,10944" style="fill:none;stroke:rgb(11,181,221);stroke-width:100px;"/>
        </g>
        <g transform="matrix(0.0149989,0,0,0.0149995,0,0)">
            <rect x="17776" y="13144" width="744" height="336" style="fill:rgb(11,181,221);"/>
        </g>
        <g transform="matrix(0.0149989,0,0,0.0149995,0,0)">
            <rect x="17776" y="13144" width="744" height="336" style="fill:none;stroke:rgb(6,132,162);stroke-width:100px;"/>
        </g>
        <g transform="matrix(0.0149989,0,0,0.0149995,0,0)">
            <path d="M18520,13312L19048,13312" style="fill:none;stroke:rgb(11,181,221);stroke-width:100px;"/>
        </g>
        <g transform="matrix(0.0149989,0,0,0.0149995,0,0)">
            <path d="M19048,13312L19296,12304" style="fill:none;stroke:rgb(11,181,221);stroke-width:100px;"/>
        </g>
        <g transform="matrix(0.0149989,0,0,0.0149995,0,0)">
            <rect x="21728" y="10408" width="736" height="336" style="fill:rgb(11,181,221);"/>
        </g>
        <g transform="matrix(0.0149989,0,0,0.0149995,0,0)">
            <rect x="21728" y="10408" width="736" height="336" style="fill:none;stroke:rgb(6,132,162);stroke-width:100px;"/>
        </g>
        <g transform="matrix(0.0149989,0,0,0.0149995,0,0)">
            <path d="M21336,10576L21722,10576" style="fill:none;stroke:rgb(11,181,221);stroke-width:100px;"/>
        </g>
        <g transform="matrix(0.0149989,0,0,0.0149995,0,0)">
            <path d="M20248,11155L21335,10576" style="fill:none;stroke:rgb(11,181,221);stroke-width:100px;"/>
        </g>
        <g transform="matrix(0.0149989,0,0,0.0149995,0,0)">
            <path d="M21618,8625C21691,8625 21764,8645 21830,8687C21918,8749 21972,8838 21989,8934C22006,9030 21986,9133 21924,9221L21375,10007C21301,10114 21184,10167 21062,10167L20981,10284L20941,10248C20889,10205 20834,10164 20778,10126L20630,10036L20710,9921C20668,9807 20679,9679 20753,9572L21302,8786C21376,8680 21496,8624 21618,8625Z" style="fill:none;stroke:rgb(11,181,221);stroke-width:100px;stroke-linecap:round;"/>
        </g>
        <g transform="matrix(0.00749944,0,0,0.00749973,0,0)">
            <path d="M3723,23976C3580,23726 3579,23169 3732,22836C3886,22504 4171,22036 4964,22024C5240,22020 5644,21956 5904,21893C6163,21831 6406,21645 6521,21649C6636,21653 6611,21759 6593,21917C6574,22075 6490,22394 6410,22597C6329,22799 6108,23387 5941,23655C5774,23923 5632,24093 5408,24207C5183,24321 4873,24379 4592,24341C4312,24302 3867,24227 3723,23976" style="fill:none;stroke:rgb(45,62,80);stroke-width:200px;stroke-linecap:round;"/>
        </g>
        <g transform="matrix(0.00749944,0,0,0.00749973,0,0)">
            <path d="M3424,24768C3559,24185 3694,23601 4880,23216" style="fill:none;stroke:rgb(45,62,80);stroke-width:200px;stroke-linecap:round;"/>
        </g>
        <g transform="matrix(0.00749944,0,0,0.00749973,0,0)">
            <rect x="21920" y="25264" width="1072" height="2208" style="fill:rgb(11,181,221);"/>
        </g>
        <g transform="matrix(0.00749944,0,0,0.00749973,0,0)">
            <rect x="21920" y="25264" width="1072" height="2208" style="fill:none;stroke:rgb(6,132,162);stroke-width:200px;"/>
        </g>
        <g transform="matrix(0.00749944,0,0,0.00749973,0,0)">
            <rect x="23216" y="24688" width="1072" height="2784" style="fill:rgb(11,181,221);"/>
        </g>
        <g transform="matrix(0.00749944,0,0,0.00749973,0,0)">
            <rect x="23216" y="24688" width="1072" height="2784" style="fill:none;stroke:rgb(6,132,162);stroke-width:200px;"/>
        </g>
        <g transform="matrix(0.00749944,0,0,0.00749973,0,0)">
            <rect x="24480" y="24112" width="1072" height="3360" style="fill:rgb(11,181,221);"/>
        </g>
        <g transform="matrix(0.00749944,0,0,0.00749973,0,0)">
            <rect x="24480" y="24112" width="1072" height="3360" style="fill:none;stroke:rgb(6,132,162);stroke-width:200px;"/>
        </g>
        <g transform="matrix(0.00749944,0,0,0.00749973,0,0)">
            <path d="M20059,23864C19916,23614 19915,23057 20068,22724C20222,22392 20507,21924 21300,21912C21576,21908 21980,21844 22240,21781C22499,21719 22742,21533 22857,21537C22972,21541 22947,21647 22929,21805C22910,21963 22826,22282 22746,22485C22665,22687 22444,23275 22277,23543C22110,23811 21968,23981 21744,24095C21519,24209 21209,24267 20928,24229C20648,24190 20203,24115 20059,23864" style="fill:none;stroke:rgb(45,62,80);stroke-width:200px;stroke-linecap:round;"/>
        </g>
        <g transform="matrix(0.00749944,0,0,0.00749973,0,0)">
            <path d="M19760,24656C19895,24079 20030,23501 21216,23120" style="fill:none;stroke:rgb(45,62,80);stroke-width:200px;stroke-linecap:round;"/>
        </g>
        <g transform="matrix(0.00749944,0,0,0.00749973,0,0)">
            <rect x="17424" y="26240" width="1472" height="656" style="fill:rgb(11,181,221);"/>
        </g>
        <g transform="matrix(0.00749944,0,0,0.00749973,0,0)">
            <rect x="17424" y="26240" width="1472" height="656" style="fill:none;stroke:rgb(6,132,162);stroke-width:200px;"/>
        </g>
        <g transform="matrix(0.00749944,0,0,0.00749973,0,0)">
            <path d="M18896,26560L19952,26560" style="fill:none;stroke:rgb(11,181,221);stroke-width:200px;"/>
        </g>
        <g transform="matrix(0.00749944,0,0,0.00749973,0,0)">
            <path d="M19952,26560L20448,24544" style="fill:none;stroke:rgb(11,181,221);stroke-width:200px;"/>
        </g>
        <g transform="matrix(0.00749944,0,0,0.00749973,0,0)">
            <path d="M11752,22924L13456,22924L13456,22536L14232,23312L13456,24088L13456,23700L11752,23700L11752,22924Z" style="fill:rgb(11,181,221);"/>
        </g>
        <g transform="matrix(0.00749944,0,0,0.00749973,0,0)">
            <path d="M11752,22924L13456,22924L13456,22536L14232,23312L13456,24088L13456,23700L11752,23700L11752,22924Z" style="fill:none;stroke:rgb(6,132,162);stroke-width:133px;"/>
        </g>
        <g transform="matrix(0.00749944,0,0,0.00749973,0,0)">
            <path d="M29032,23192L30744,23192L30744,22808L31512,23576L30744,24344L30744,23960L29032,23960L29032,23192Z" style="fill:rgb(11,181,221);"/>
        </g>
        <g transform="matrix(0.00749944,0,0,0.00749973,0,0)">
            <path d="M29032,23192L30744,23192L30744,22808L31512,23576L30744,24344L30744,23960L29032,23960L29032,23192Z" style="fill:none;stroke:rgb(6,132,162);stroke-width:133px;"/>
        </g>
        <rect x="0" y="0" width="525.801" height="410.745" style="fill:none;"/>
        <g transform="matrix(0.119991,0,0,0.119996,16.8198,386.412)">
            <text x="0px" y="0px" style="font-family:'Calibri', sans-serif;font-size:233px;fill:rgb(45,62,80);">t</text>
            <text x="73.488px" y="0px" style="font-family:'Calibri', sans-serif;font-size:233px;fill:rgb(45,62,80);">e</text>
            <text x="189.385px" y="0px" style="font-family:'Calibri', sans-serif;font-size:233px;fill:rgb(45,62,80);">c</text>
            <text x="288.351px" y="0px" style="font-family:'Calibri', sans-serif;font-size:233px;fill:rgb(45,62,80);">h<tspan x="410.442px " y="0px ">n</tspan></text>
            <text x="532.533px" y="0px" style="font-family:'Calibri', sans-serif;font-size:233px;fill:rgb(45,62,80);">i</text>
            <text x="585.414px" y="0px" style="font-family:'Calibri', sans-serif;font-size:233px;fill:rgb(45,62,80);">c</text>
            <text x="680.446px" y="0px" style="font-family:'Calibri', sans-serif;font-size:233px;fill:rgb(45,62,80);">a</text>
            <text x="792.446px" y="0px" style="font-family:'Calibri', sans-serif;font-size:233px;fill:rgb(45,62,80);">l</text>
        </g>
        <g transform="matrix(0.119991,0,0,0.119996,118.812,386.412)">
            <text x="0px" y="0px" style="font-family:'Calibri', sans-serif;font-size:233px;fill:rgb(45,62,80);">-</text>
        </g>
        <g transform="matrix(0.119991,0,0,0.119996,127.332,386.412)">
            <text x="0px" y="0px" style="font-family:'Calibri', sans-serif;font-size:233px;fill:rgb(45,62,80);">d</text>
            <text x="122.091px" y="0px" style="font-family:'Calibri', sans-serif;font-size:233px;fill:rgb(45,62,80);">i</text>
            <text x="174.973px" y="0px" style="font-family:'Calibri', sans-serif;font-size:233px;fill:rgb(45,62,80);">g</text>
            <text x="284.904px" y="0px" style="font-family:'Calibri', sans-serif;font-size:233px;fill:rgb(45,62,80);">i</text>
            <text x="337.785px" y="0px" style="font-family:'Calibri', sans-serif;font-size:233px;fill:rgb(45,62,80);">t</text>
            <text x="409.932px" y="0px" style="font-family:'Calibri', sans-serif;font-size:233px;fill:rgb(45,62,80);">a</text>
            <text x="521.933px" y="0px" style="font-family:'Calibri', sans-serif;font-size:233px;fill:rgb(45,62,80);">l</text>
            <text x="629.832px" y="0px" style="font-family:'Calibri', sans-serif;font-size:233px;fill:rgb(45,62,80);">a</text>
            <text x="741.833px" y="0px" style="font-family:'Calibri', sans-serif;font-size:233px;fill:rgb(45,62,80);">s<tspan x="832.859px " y="0px ">s</tspan></text>
            <text x="923.885px" y="0px" style="font-family:'Calibri', sans-serif;font-size:233px;fill:rgb(45,62,80);">i</text>
            <text x="976.767px" y="0px" style="font-family:'Calibri', sans-serif;font-size:233px;fill:rgb(45,62,80);">s</text>
            <text x="1062.18px" y="0px" style="font-family:'Calibri', sans-serif;font-size:233px;fill:rgb(45,62,80);">t</text>
            <text x="1134.32px" y="0px" style="font-family:'Calibri', sans-serif;font-size:233px;fill:rgb(45,62,80);">a</text>
            <text x="1246.32px" y="0px" style="font-family:'Calibri', sans-serif;font-size:233px;fill:rgb(45,62,80);">n</text>
            <text x="1368.41px" y="0px" style="font-family:'Calibri', sans-serif;font-size:233px;fill:rgb(45,62,80);">c</text>
            <text x="1467.38px" y="0px" style="font-family:'Calibri', sans-serif;font-size:233px;fill:rgb(45,62,80);">e</text>
        </g>
        <g transform="matrix(0.119991,0,0,0.119996,189.289,34.658)">
            <text x="0px" y="0px" style="font-family:'Calibri', sans-serif;font-size:233px;fill:rgb(45,62,80);">o</text>
            <text x="123.08px" y="0px" style="font-family:'Calibri', sans-serif;font-size:233px;fill:rgb(45,62,80);">n</text>
        </g>
        <g transform="matrix(0.119991,0,0,0.119996,218.687,34.658)">
            <text x="0px" y="0px" style="font-family:'Calibri', sans-serif;font-size:233px;fill:rgb(45,62,80);">-</text>
        </g>
        <g transform="matrix(0.119991,0,0,0.119996,227.207,34.658)">
            <text x="0px" y="0px" style="font-family:'Calibri', sans-serif;font-size:233px;fill:rgb(45,62,80);">s</text>
            <text x="91.026px" y="0px" style="font-family:'Calibri', sans-serif;font-size:233px;fill:rgb(45,62,80);">i</text>
            <text x="143.908px" y="0px" style="font-family:'Calibri', sans-serif;font-size:233px;fill:rgb(45,62,80);">t</text>
            <text x="217.396px" y="0px" style="font-family:'Calibri', sans-serif;font-size:233px;fill:rgb(45,62,80);">e</text>
            <text x="388.31px" y="0px" style="font-family:'Calibri', sans-serif;font-size:233px;fill:rgb(45,62,80);">p</text>
            <text x="510.401px" y="0px" style="font-family:'Calibri', sans-serif;font-size:233px;fill:rgb(45,62,80);">e</text>
            <text x="626.299px" y="0px" style="font-family:'Calibri', sans-serif;font-size:233px;fill:rgb(45,62,80);">r</text>
            <text x="699.231px" y="0px" style="font-family:'Calibri', sans-serif;font-size:233px;fill:rgb(45,62,80);">s</text>
            <text x="790.258px" y="0px" style="font-family:'Calibri', sans-serif;font-size:233px;fill:rgb(45,62,80);">o</text>
            <text x="913.338px" y="0px" style="font-family:'Calibri', sans-serif;font-size:233px;fill:rgb(45,62,80);">n<tspan x="1035.43px " y="0px ">n</tspan></text>
            <text x="1157.52px" y="0px" style="font-family:'Calibri', sans-serif;font-size:233px;fill:rgb(45,62,80);">e</text>
            <text x="1273.42px" y="0px" style="font-family:'Calibri', sans-serif;font-size:233px;fill:rgb(45,62,80);">l</text>
            <text x="1382.32px" y="0px" style="font-family:'Calibri', sans-serif;font-size:233px;fill:rgb(45,62,80);">a</text>
            <text x="1494.32px" y="0px" style="font-family:'Calibri', sans-serif;font-size:233px;fill:rgb(45,62,80);">s<tspan x="1585.34px " y="0px ">s</tspan></text>
            <text x="1676.37px" y="0px" style="font-family:'Calibri', sans-serif;font-size:233px;fill:rgb(45,62,80);">i</text>
            <text x="1729.25px" y="0px" style="font-family:'Calibri', sans-serif;font-size:233px;fill:rgb(45,62,80);">s</text>
            <text x="1814.66px" y="0px" style="font-family:'Calibri', sans-serif;font-size:233px;fill:rgb(45,62,80);">t</text>
            <text x="1886.81px" y="0px" style="font-family:'Calibri', sans-serif;font-size:233px;fill:rgb(45,62,80);">a</text>
            <text x="1998.81px" y="0px" style="font-family:'Calibri', sans-serif;font-size:233px;fill:rgb(45,62,80);">n</text>
            <text x="2120.9px" y="0px" style="font-family:'Calibri', sans-serif;font-size:233px;fill:rgb(45,62,80);">c</text>
            <text x="2219.87px" y="0px" style="font-family:'Calibri', sans-serif;font-size:233px;fill:rgb(45,62,80);">e</text>
        </g>
        <g transform="matrix(0.00749944,0,0,0.00749973,0,0)">
            <path d="M22967,3812L22637,3872L22310,3944L21989,4026L21677,4120L21374,4221L21079,4333L20796,4453L20525,4581L20267,4717L20024,4859L19795,5009L19584,5164L19389,5325L19213,5490L19058,5661L18983,5757L19062,5818L19131,5728L19282,5563L19452,5402L19643,5245L19850,5092L20075,4946L20314,4806L20568,4672L20835,4545L21114,4426L21405,4316L21706,4215L22014,4123L22331,4041L22654,3971L22984,3911L22967,3812ZM19095,4863L18961,5866L19900,5489C19926,5478 19938,5449 19928,5424C19918,5398 19889,5386 19863,5396L19004,5741L19072,5794L19195,4876C19198,4849 19179,4823 19152,4820C19124,4816 19099,4835 19095,4863Z" style="fill:rgb(89,89,89);fill-rule:nonzero;stroke:rgb(89,89,89);stroke-width:1px;stroke-linejoin:round;stroke-miterlimit:2;"/>
        </g>
        <g transform="matrix(0.0149989,0,0,0.0149995,0,0)">
            <path d="M14320,23277L14533,23157L14739,23027L14937,22888L15127,22742L15309,22588L15482,22426L15646,22258L15802,22083L15948,21902L16085,21715L16213,21523L16332,21325L16441,21124L16541,20918L16631,20708L16711,20495L16781,20279L16841,20060L16890,19839L16929,19616L16957,19393L16974,19167L16980,18942L16976,18716L16960,18490L16933,18265L16895,18041L16845,17819L16783,17597L16709,17378L16668,17270L16623,17162L16576,17055L16526,16949L16468,16838L16424,16861L16480,16971L16530,17076L16577,17181L16621,17288L16662,17394L16735,17611L16796,17829L16845,18049L16884,18271L16911,18494L16926,18717L16930,18940L16924,19164L16907,19386L16879,19608L16841,19828L16792,20047L16733,20263L16664,20477L16585,20688L16496,20896L16397,21100L16290,21300L16172,21495L16045,21685L15909,21870L15764,22050L15610,22223L15447,22390L15276,22550L15097,22703L14909,22847L14713,22984L14508,23113L14295,23233L14320,23277ZM16850,17077L16423,16806L16397,17311C16397,17325 16407,17337 16421,17337C16435,17338 16447,17327 16447,17314L16471,16851L16433,16871L16824,17119C16835,17127 16851,17123 16858,17112C16865,17100 16862,17085 16850,17077Z" style="fill:rgb(89,89,89);fill-rule:nonzero;stroke:rgb(89,89,89);stroke-width:1px;stroke-linejoin:round;stroke-miterlimit:2;"/>
        </g>
    </g>
</svg>
