<svg width="4275" height="1557" xmlns="http://www.w3.org/2000/svg" xmlns:xlink="http://www.w3.org/1999/xlink" xml:space="preserve" overflow="hidden"><defs><clipPath id="clip0"><rect x="117" y="820" width="4275" height="1557"/></clipPath><clipPath id="clip1"><rect x="1321" y="821" width="262" height="262"/></clipPath><clipPath id="clip2"><rect x="1321" y="821" width="262" height="262"/></clipPath><clipPath id="clip3"><rect x="1321" y="821" width="262" height="262"/></clipPath><clipPath id="clip4"><rect x="1322" y="1254" width="260" height="259"/></clipPath><clipPath id="clip5"><rect x="1322" y="1254" width="260" height="259"/></clipPath><clipPath id="clip6"><rect x="1322" y="1254" width="260" height="259"/></clipPath><clipPath id="clip7"><rect x="1321" y="1676" width="260" height="260"/></clipPath><clipPath id="clip8"><rect x="1321" y="1676" width="260" height="260"/></clipPath><clipPath id="clip9"><rect x="1321" y="1676" width="260" height="260"/></clipPath><clipPath id="clip10"><rect x="1328" y="2059" width="262" height="260"/></clipPath><clipPath id="clip11"><rect x="1328" y="2059" width="262" height="260"/></clipPath><clipPath id="clip12"><rect x="1328" y="2059" width="262" height="260"/></clipPath></defs><g clip-path="url(#clip0)" transform="translate(-117 -820)"><path d="M1732.81 886.327 1779.7 886.327C1780.07 886.327 1780.43 886.434 1780.78 886.649 1781.13 886.864 1781.44 887.213 1781.71 887.697 1781.98 888.18 1782.17 888.811 1782.27 889.59 1782.38 890.369 1782.44 891.268 1782.44 892.289 1782.44 893.309 1782.38 894.196 1782.27 894.948 1782.17 895.7 1781.98 896.304 1781.71 896.76 1781.44 897.217 1781.13 897.553 1780.78 897.767 1780.43 897.982 1780.07 898.09 1779.7 898.09L1741.51 898.09 1741.51 933.539 1777.6 933.539C1777.98 933.539 1778.34 933.633 1778.69 933.821 1779.04 934.009 1779.35 934.318 1779.62 934.747 1779.88 935.177 1780.07 935.754 1780.18 936.48 1780.29 937.205 1780.34 938.131 1780.34 939.259 1780.34 940.28 1780.29 941.152 1780.18 941.878 1780.07 942.603 1779.88 943.193 1779.62 943.65 1779.35 944.107 1779.04 944.456 1778.69 944.697 1778.34 944.939 1777.98 945.06 1777.6 945.06L1741.51 945.06 1741.51 988.485C1741.51 988.861 1741.4 989.224 1741.19 989.573 1740.97 989.922 1740.59 990.19 1740.06 990.378 1739.52 990.566 1738.82 990.728 1737.96 990.862 1737.1 990.996 1735.98 991.063 1734.58 991.063 1733.29 991.063 1732.19 990.996 1731.28 990.862 1730.36 990.728 1729.64 990.566 1729.1 990.378 1728.56 990.19 1728.19 989.922 1727.97 989.573 1727.76 989.224 1727.65 988.861 1727.65 988.485L1727.65 891.967C1727.65 889.872 1728.2 888.408 1729.3 887.576 1730.4 886.743 1731.57 886.327 1732.81 886.327Z" stroke="#2D3E50" stroke-width="7" stroke-linejoin="round" stroke-miterlimit="10" fill="#FFFFFF" fill-rule="evenodd"/><text fill="#000000" fill-opacity="0" font-family="Arial,Arial_MSFontService,sans-serif" font-size="104.736" x="1727.65" y="977.971">F</text><text fill="#FFFFFF" font-family="Calibri,Calibri_MSFontService,sans-serif" font-weight="400" font-size="88" transform="matrix(1 0 0 1 1789.42 991)">INDABLE<tspan font-size="110" x="311.529" y="0">: </tspan><tspan font-size="83" x="584.375" y="0">ARCs </tspan><tspan font-size="83" x="770.985" y="0">receive a DOI conferring uniqueness. </tspan><tspan font-size="83" x="2020.56" y="0">Additionally</tspan><tspan font-size="83" x="2416.29" y="0">, </tspan><tspan font-size="83" x="584.375" y="121">ARCs </tspan><tspan font-size="83" x="770.985" y="121">are completely </tspan><tspan font-size="83" x="1288.1" y="121">machine</tspan><tspan font-size="83" x="1575.7" y="121">-</tspan><tspan font-size="83" x="1600.91" y="121">readable</tspan><tspan font-size="83" x="1896.03" y="121">.</tspan></text><path d="M1760.76 1252.18 1742.8 1304.15 1779.05 1304.15 1760.84 1252.18ZM1761.25 1237.84C1762.97 1237.84 1764.39 1237.88 1765.52 1237.96 1766.64 1238.04 1767.56 1238.19 1768.26 1238.41 1768.95 1238.62 1769.49 1238.93 1769.87 1239.33 1770.24 1239.74 1770.54 1240.23 1770.75 1240.82L1805.72 1337.67C1806.15 1338.85 1806.38 1339.8 1806.4 1340.53 1806.43 1341.25 1806.23 1341.8 1805.8 1342.18 1805.37 1342.55 1804.66 1342.79 1803.66 1342.9 1802.67 1343.01 1801.34 1343.06 1799.68 1343.06 1798.01 1343.06 1796.68 1343.02 1795.69 1342.94 1794.69 1342.86 1793.94 1342.73 1793.43 1342.54 1792.92 1342.35 1792.55 1342.1 1792.3 1341.77 1792.06 1341.45 1791.83 1341.05 1791.62 1340.57L1782.68 1315.19 1739.33 1315.19 1730.79 1340.24C1730.63 1340.73 1730.42 1341.14 1730.15 1341.49 1729.88 1341.84 1729.49 1342.14 1728.98 1342.38 1728.47 1342.62 1727.74 1342.79 1726.8 1342.9 1725.86 1343.01 1724.64 1343.06 1723.14 1343.06 1721.58 1343.06 1720.31 1343 1719.31 1342.86 1718.32 1342.73 1717.62 1342.47 1717.22 1342.1 1716.81 1341.72 1716.63 1341.17 1716.65 1340.44 1716.68 1339.72 1716.91 1338.77 1717.34 1337.58L1752.3 1240.74C1752.52 1240.15 1752.8 1239.67 1753.15 1239.29 1753.5 1238.92 1754.01 1238.62 1754.68 1238.41 1755.35 1238.19 1756.21 1238.04 1757.26 1237.96 1758.31 1237.88 1759.64 1237.84 1761.25 1237.84Z" stroke="#2D3E50" stroke-width="7" stroke-linejoin="round" stroke-miterlimit="10" fill="#FFFFFF" fill-rule="evenodd"/><text fill="#000000" fill-opacity="0" font-family="Arial,Arial_MSFontService,sans-serif" font-size="105.22" x="1716.65" y="1329.91">A</text><text fill="#FFFFFF" font-family="Calibri,Calibri_MSFontService,sans-serif" font-weight="400" font-size="88" transform="matrix(1 0 0 1 1809.47 1343)">CCESSIBLE<tspan font-size="110" x="368.088" y="0">: </tspan><tspan font-size="83" x="564.323" y="0">ARCs </tspan><tspan font-size="83" x="750.933" y="0">are retrievable by their identifier using </tspan><tspan font-size="83" x="2060.39" y="0">standardized </tspan><tspan font-size="83" x="564.323" y="130">protocols</tspan><tspan font-size="83" x="877.754" y="130">.</tspan><tspan font-size="83" x="919.004" y="130">ARC</tspan><tspan font-size="66" x="1054.63" y="130">S</tspan><tspan font-size="83" x="1103.9" y="130">and datasets will be </tspan><tspan font-size="83" x="1787.48" y="130">stored </tspan><tspan font-size="83" x="2020.15" y="130">on </tspan><tspan font-size="83" x="2126.14" y="130">Gitlab </tspan><tspan font-size="83" x="564.323" y="231">using </tspan><tspan font-size="83" x="760.261" y="231">Git LFS.</tspan></text><path d="M1734.58 1699.84C1735.92 1699.84 1737.04 1699.91 1737.92 1700.04 1738.81 1700.18 1739.52 1700.34 1740.06 1700.53 1740.59 1700.72 1740.97 1700.97 1741.19 1701.29 1741.4 1701.62 1741.51 1701.99 1741.51 1702.42L1741.51 1802.49C1741.51 1802.91 1741.4 1803.29 1741.19 1803.61 1740.97 1803.94 1740.59 1804.19 1740.06 1804.38 1739.52 1804.57 1738.81 1804.73 1737.92 1804.86 1737.04 1805 1735.92 1805.06 1734.58 1805.06 1733.29 1805.06 1732.19 1805 1731.28 1804.86 1730.36 1804.73 1729.64 1804.57 1729.1 1804.38 1728.56 1804.19 1728.19 1803.94 1727.97 1803.61 1727.76 1803.29 1727.65 1802.91 1727.65 1802.49L1727.65 1702.42C1727.65 1701.99 1727.77 1701.62 1728.01 1701.29 1728.25 1700.97 1728.66 1700.72 1729.22 1700.53 1729.79 1700.34 1730.51 1700.18 1731.4 1700.04 1732.28 1699.91 1733.34 1699.84 1734.58 1699.84Z" stroke="#2D3E50" stroke-width="7" stroke-linejoin="round" stroke-miterlimit="10" fill="#FFFFFF" fill-rule="evenodd"/><text fill="#000000" fill-opacity="0" font-family="Arial,Arial_MSFontService,sans-serif" font-size="105.22" x="1727.65" y="1791.91">I</text><text fill="#FFFFFF" font-family="Calibri,Calibri_MSFontService,sans-serif" font-weight="400" font-size="88" transform="matrix(1 0 0 1 1755.62 1805)">NTEROPERABLE<tspan font-size="110" x="562.879" y="0">: </tspan><tspan font-size="83" x="618.177" y="0">ARCs </tspan><tspan font-size="83" x="804.788" y="0">rely on well</tspan><tspan font-size="83" x="1191.99" y="0">-</tspan><tspan font-size="83" x="1217.2" y="0">established standards like the </tspan><tspan font-size="83" x="2225.92" y="0">ISA Model </tspan><tspan font-size="83" x="618.177" y="121">and </tspan><tspan font-size="83" x="763.698" y="121">CWL.</tspan></text><path d="M1741.51 2063.77 1741.51 2098.89 1755.04 2098.89C1758.7 2098.89 1761.85 2098.45 1764.51 2097.56 1767.17 2096.68 1769.38 2095.44 1771.16 2093.86 1772.93 2092.27 1774.23 2090.41 1775.06 2088.26 1775.9 2086.11 1776.31 2083.77 1776.31 2081.25 1776.31 2077.17 1775.4 2073.72 1773.57 2070.9 1771.75 2068.08 1768.69 2066.05 1764.39 2064.81 1763.05 2064.44 1761.53 2064.17 1759.84 2064.01 1758.14 2063.85 1755.93 2063.77 1753.19 2063.77ZM1732.81 2052.33 1754.96 2052.33C1757.59 2052.33 1759.78 2052.39 1761.53 2052.53 1763.27 2052.66 1764.84 2052.81 1766.24 2052.97 1770.27 2053.67 1773.83 2054.77 1776.92 2056.27 1780 2057.78 1782.6 2059.69 1784.69 2061.99 1786.79 2064.3 1788.36 2066.95 1789.4 2069.93 1790.45 2072.91 1790.98 2076.2 1790.98 2079.8 1790.98 2083.29 1790.51 2086.42 1789.57 2089.19 1788.63 2091.95 1787.27 2094.4 1785.5 2096.52 1783.72 2098.64 1781.6 2100.48 1779.13 2102.04 1776.66 2103.59 1773.9 2104.91 1770.83 2105.98 1772.55 2106.74 1774.11 2107.69 1775.51 2108.84 1776.9 2110 1778.21 2111.38 1779.41 2112.99 1780.62 2114.6 1781.76 2116.46 1782.84 2118.55 1783.91 2120.65 1784.99 2123.01 1786.06 2125.64L1795.41 2148.6C1796.16 2150.54 1796.64 2151.89 1796.86 2152.67 1797.07 2153.45 1797.18 2154.06 1797.18 2154.49 1797.18 2154.91 1797.1 2155.29 1796.94 2155.61 1796.78 2155.94 1796.43 2156.2 1795.89 2156.42 1795.35 2156.63 1794.6 2156.79 1793.63 2156.9 1792.67 2157.01 1791.38 2157.06 1789.77 2157.06 1788.37 2157.06 1787.23 2157.01 1786.34 2156.9 1785.46 2156.79 1784.74 2156.62 1784.21 2156.38 1783.67 2156.14 1783.25 2155.8 1782.96 2155.37 1782.66 2154.94 1782.41 2154.4 1782.19 2153.76L1772.61 2129.19C1771.48 2126.39 1770.31 2123.83 1769.1 2121.49 1767.89 2119.16 1766.46 2117.14 1764.79 2115.45 1763.13 2113.76 1761.17 2112.44 1758.91 2111.5 1756.65 2110.56 1753.94 2110.09 1750.77 2110.09L1741.51 2110.09 1741.51 2154.49C1741.51 2154.91 1741.39 2155.29 1741.15 2155.61 1740.9 2155.94 1740.53 2156.19 1740.02 2156.38 1739.51 2156.57 1738.81 2156.73 1737.92 2156.86 1737.04 2157 1735.92 2157.06 1734.58 2157.06 1733.24 2157.06 1732.12 2157 1731.24 2156.86 1730.35 2156.73 1729.64 2156.57 1729.1 2156.38 1728.56 2156.19 1728.19 2155.94 1727.97 2155.61 1727.76 2155.29 1727.65 2154.91 1727.65 2154.49L1727.65 2057.97C1727.65 2055.87 1728.2 2054.41 1729.3 2053.58 1730.4 2052.74 1731.57 2052.33 1732.81 2052.33Z" stroke="#2D3E50" stroke-width="7" stroke-linejoin="round" stroke-miterlimit="10" fill="#FFFFFF" fill-rule="evenodd"/><text fill="#000000" fill-opacity="0" font-family="Arial,Arial_MSFontService,sans-serif" font-size="104.736" x="1727.65" y="2143.97">R</text><text fill="#FFFFFF" font-family="Calibri,Calibri_MSFontService,sans-serif" font-weight="400" font-size="88" transform="matrix(1 0 0 1 1803.17 2157)">EUSABLE<tspan font-size="110" x="319.046" y="0">: </tspan><tspan font-size="83" x="570.625" y="0">ARCs </tspan><tspan font-size="83" x="757.235" y="0">comprise complete metadata, including </tspan><tspan font-size="83" x="2102.26" y="0">workflow </tspan><tspan font-size="83" x="570.625" y="121">and </tspan><tspan font-size="83" x="716.146" y="121">run descriptions for accurate </tspan><tspan font-size="83" x="1697.83" y="121">reusability</tspan><tspan font-size="83" x="2041.37" y="121">.</tspan></text><rect x="703.5" y="1844.5" width="112" height="227" stroke="#FFFFFF" stroke-width="4.58333" stroke-miterlimit="8" fill="none"/><rect x="838.5" y="1785.5" width="111" height="286" stroke="#FFFFFF" stroke-width="4.58333" stroke-miterlimit="8" fill="none"/><rect x="970.5" y="1725.5" width="112" height="346" stroke="#FFFFFF" stroke-width="4.58333" stroke-miterlimit="8" fill="none"/><path d="M654.706 1954.06C471.017 1958.81 319.55 1815.47 316.395 1633.92 313.24 1452.36 459.592 1301.34 643.281 1296.59 826.971 1291.85 978.438 1435.18 981.593 1616.74 981.754 1626.01 981.518 1635.29 980.886 1644.55" stroke="#FFFFFF" stroke-width="27.5" stroke-linecap="round" stroke-miterlimit="8" fill="none" fill-rule="evenodd"/><path d="M0 0 66.5063 72.4362" stroke="#FFFFFF" stroke-width="27.5" stroke-linecap="round" stroke-miterlimit="8" fill="none" fill-rule="evenodd" transform="matrix(1 0 0 -1 976 1660.44)"/><path d="M0 0 65.5445 73.499" stroke="#FFFFFF" stroke-width="27.5" stroke-linecap="round" stroke-miterlimit="8" fill="none" fill-rule="evenodd" transform="matrix(-1.83697e-16 -1 -1 1.83697e-16 975.499 1660.54)"/><path d="M508.18 1700.18C493.182 1674.31 493.058 1616.91 509.117 1582.58 525.175 1548.25 555.01 1499.96 638.017 1498.77 666.851 1498.36 709.13 1491.74 736.266 1485.28 763.403 1478.82 788.824 1459.59 800.837 1460.01 812.85 1460.42 810.286 1471.45 808.344 1487.75 806.402 1504.06 797.602 1536.97 789.186 1557.82 780.771 1578.67 757.662 1639.34 740.194 1667.03 722.726 1694.73 707.895 1712.21 684.379 1724 660.864 1735.79 628.469 1741.74 599.102 1737.77 569.735 1733.8 523.177 1726.04 508.18 1700.18Z" stroke="#FFFFFF" stroke-width="27.5" stroke-linecap="round" stroke-miterlimit="8" fill="none" fill-rule="evenodd"/><path d="M476 1782C490.167 1722.18 504.333 1662.36 629 1623" stroke="#FFFFFF" stroke-width="27.5" stroke-linecap="round" stroke-miterlimit="8" fill="none" fill-rule="evenodd"/><rect x="119.5" y="1248.5" width="154" height="68.0001" stroke="#FFFFFF" stroke-width="4.58333" stroke-miterlimit="8" fill="none"/><path d="M273 1282 395.691 1282" stroke="#FFFFFF" stroke-width="2.29167" stroke-miterlimit="8" fill="none" fill-rule="evenodd"/><path d="M396 1282 447.837 1489.73" stroke="#FFFFFF" stroke-width="2.29167" stroke-miterlimit="8" fill="none" fill-rule="evenodd"/><rect x="232.5" y="1944.5" width="155" height="68.9998" stroke="#FFFFFF" stroke-width="4.58333" stroke-miterlimit="8" fill="none"/><path d="M387 1978 497.361 1978" stroke="#FFFFFF" stroke-width="2.29167" stroke-miterlimit="8" fill="none" fill-rule="evenodd"/><path d="M0 0 51.8375 207.73" stroke="#FFFFFF" stroke-width="2.29167" stroke-miterlimit="8" fill="none" fill-rule="evenodd" transform="matrix(1 0 0 -1 497 1978.73)"/><rect x="1058.5" y="1380.5" width="155" height="69.0001" stroke="#FFFFFF" stroke-width="4.58333" stroke-miterlimit="8" fill="none"/><path d="M976 1415 1056.61 1415" stroke="#FFFFFF" stroke-width="2.29167" stroke-miterlimit="8" fill="none" fill-rule="evenodd"/><path d="M0 0 227.258 119.28" stroke="#FFFFFF" stroke-width="2.29167" stroke-miterlimit="8" fill="none" fill-rule="evenodd" transform="matrix(1 0 0 -1 748 1534.28)"/><path d="M1036.51 1012.54C1051.78 1012.54 1067.2 1016.72 1080.82 1025.37 1099.18 1038 1110.51 1056.42 1114.02 1076.22 1117.53 1096.03 1113.23 1117.21 1100.33 1135.39L985.165 1297.66C969.503 1319.72 944.997 1330.88 919.656 1330.83L902.534 1354.96 894.335 1347.61C883.398 1338.72 872.018 1330.33 860.232 1322.49L829.366 1304.05 846.217 1280.3C837.46 1256.89 839.672 1230.4 855.334 1208.33L970.498 1046.06C986.045 1024.15 1011.06 1012.54 1036.51 1012.54Z" stroke="#FFFFFF" stroke-width="27.5" stroke-linecap="round" stroke-miterlimit="8" fill="none" fill-rule="evenodd"/><g clip-path="url(#clip1)"><g clip-path="url(#clip2)"><g clip-path="url(#clip3)"><path d="M231.563 204.75 197.708 170.896C193.104 166.292 186.875 164.667 180.917 165.75L169 153.833C179.563 140.292 185.792 122.958 185.792 104.542 185.792 59.8542 149.229 23.2917 104.542 23.2917 59.8542 23.2917 23.2917 59.8542 23.2917 104.542 23.2917 149.229 59.8542 185.792 104.542 185.792 122.958 185.792 140.021 179.563 153.833 169L165.75 180.917C164.667 186.875 166.292 193.104 170.896 197.708L204.75 231.563C208.542 235.354 213.417 237.25 218.292 237.25 223.167 237.25 228.042 235.354 231.834 231.563 238.875 223.979 238.875 212.063 231.563 204.75ZM104.271 169.271C68.5209 169.271 39.2709 140.021 39.2709 104.271 39.2709 68.5209 68.5209 39.2709 104.271 39.2709 140.021 39.2709 169.271 68.5209 169.271 104.271 169.271 140.021 140.021 169.271 104.271 169.271Z" fill="#FFFFFF" transform="matrix(-1.00769 0 0 1 1583 822)"/></g></g></g><g clip-path="url(#clip4)"><g clip-path="url(#clip5)"><g clip-path="url(#clip6)"><path d="M86.3333 86.0284 86.3333 52.6714C86.3333 41.4605 95.4215 32.3723 106.632 32.3723 117.843 32.3723 126.931 41.4605 126.931 52.6714L126.931 85.9448C145.377 74.6958 151.212 50.6234 139.963 32.1778 128.714 13.7318 104.641 7.89763 86.1954 19.1466 67.7498 30.3955 61.9155 54.4679 73.1645 72.9136 76.4368 78.2797 80.9539 82.7782 86.3333 86.0284Z" fill="#FFFFFF" transform="matrix(1.00386 0 0 1 1322 1254)"/><path d="M94.427 52.6741 94.427 167.851 94.3973 167.851 84.3827 122.755C82.8392 116.193 76.2687 112.125 69.7068 113.669 63.2602 115.185 59.199 121.566 60.5547 128.048L75.2017 193.956C75.8246 196.746 77.4078 199.229 79.6748 200.97L106.654 221.717 106.654 240.114 177.431 240.114 177.431 227.909C177.431 210.618 196.959 209.293 196.959 176.649L196.959 132.71C196.967 124.632 190.424 118.076 182.345 118.067 178.696 118.064 175.178 119.424 172.48 121.881 172.521 121.428 172.548 120.972 172.548 120.508 172.553 112.425 166.004 105.868 157.921 105.862 154.135 105.86 150.496 107.324 147.767 109.948 145.988 102.062 138.153 97.1104 130.266 98.8894 123.584 100.397 118.841 106.336 118.849 113.186L118.849 52.6741C118.849 45.9333 113.384 40.4687 106.643 40.4687 99.9024 40.4687 94.4378 45.9333 94.4378 52.6741Z" fill="#FFFFFF" transform="matrix(1.00386 0 0 1 1322 1254)"/></g></g></g><g clip-path="url(#clip7)"><g clip-path="url(#clip8)"><g clip-path="url(#clip9)"><path d="M1481.6 1777.02C1470.23 1777.02 1461.29 1767.81 1461.29 1756.71 1461.29 1745.6 1470.5 1736.4 1481.6 1736.4 1492.98 1736.4 1501.92 1745.6 1501.92 1756.71 1501.92 1767.81 1492.71 1777.02 1481.6 1777.02ZM1527.37 1743.98C1526.29 1740.19 1524.94 1736.67 1523.04 1733.42L1527.37 1720.69 1517.62 1710.94 1504.9 1715.27C1501.65 1713.38 1498.12 1712.02 1494.33 1710.94L1488.37 1699.02 1474.83 1699.02 1468.87 1710.94C1465.08 1712.02 1461.56 1713.38 1458.31 1715.27L1445.58 1710.94 1435.83 1720.69 1440.17 1733.42C1438.27 1736.67 1436.92 1740.19 1435.83 1743.98L1423.92 1749.94 1423.92 1763.48 1435.83 1769.44C1436.92 1773.23 1438.27 1776.75 1440.17 1780L1435.83 1792.73 1445.31 1802.21 1458.04 1797.88C1461.29 1799.77 1464.81 1801.13 1468.6 1802.21L1474.56 1814.12 1488.1 1814.12 1494.06 1802.21C1497.85 1801.13 1501.37 1799.77 1504.62 1797.88L1517.35 1802.21 1527.1 1792.73 1522.77 1780C1524.67 1776.75 1526.29 1772.96 1527.37 1769.44L1539.29 1763.48 1539.29 1749.94 1527.37 1743.98Z" fill="#FFFFFF"/><path d="M1420.4 1875.6C1409.02 1875.6 1400.08 1866.4 1400.08 1855.29 1400.08 1843.92 1409.29 1834.98 1420.4 1834.98 1431.77 1834.98 1440.71 1844.19 1440.71 1855.29 1440.71 1866.4 1431.77 1875.6 1420.4 1875.6L1420.4 1875.6ZM1461.83 1832 1466.17 1819.27 1456.42 1809.52 1443.69 1813.85C1440.44 1811.96 1436.65 1810.6 1433.12 1809.52L1427.17 1797.6 1413.62 1797.6 1407.67 1809.52C1403.88 1810.6 1400.35 1811.96 1397.1 1813.85L1384.38 1809.52 1374.9 1819 1378.96 1831.73C1377.06 1834.98 1375.71 1838.77 1374.62 1842.29L1362.71 1848.25 1362.71 1861.79 1374.62 1867.75C1375.71 1871.54 1377.06 1875.06 1378.96 1878.31L1374.9 1891.04 1384.38 1900.52 1397.1 1896.46C1400.35 1898.35 1403.88 1899.71 1407.67 1900.79L1413.62 1912.71 1427.17 1912.71 1433.12 1900.79C1436.92 1899.71 1440.44 1898.35 1443.69 1896.46L1456.42 1900.79 1465.9 1891.04 1461.83 1878.58C1463.73 1875.33 1465.08 1871.81 1466.17 1868.02L1478.08 1862.06 1478.08 1848.52 1466.17 1842.56C1465.08 1838.77 1463.73 1835.25 1461.83 1832Z" fill="#FFFFFF"/></g></g></g><g clip-path="url(#clip10)"><g clip-path="url(#clip11)"><g clip-path="url(#clip12)"><path d="M41.0854 190.748C43.1288 194.686 47.0394 197.31 51.4583 197.708L100.208 197.708 100.208 219.375 51.4583 219.375C39.1089 219.15 27.8116 212.372 21.8021 201.581 16.0451 191.166 16.5459 178.417 23.1021 168.485L51.2687 119.735 32.6896 108.902 78.027 96.7687 90.1604 142.106 70.4166 130.758 42.1416 179.779C39.7285 182.935 39.319 187.189 41.0854 190.748Z" fill="#FFFFFF" transform="matrix(1 0 0 1 1329 2059)"/><path d="M79.4083 78.9208 102.077 36.5896C108.023 25.8913 119.331 19.2874 131.571 19.3646 143.471 19.6086 154.255 26.4295 159.575 37.0771L187.742 85.827 206.321 74.9937 194.187 120.467 148.958 108.333 168.675 96.9312 140.265 47.8833C138.722 44.2203 135.239 41.7449 131.273 41.4916 127.096 41.6986 123.315 44.0285 121.252 47.6666L98.5562 89.9979Z" fill="#FFFFFF" transform="matrix(1 0 0 1 1329 2059)"/><path d="M237.223 203.748C231.301 213.684 220.484 219.657 208.921 219.375L151.667 219.375 151.667 241.042 118.381 207.187 151.667 174.254 151.667 197.708 208.189 197.708C212.252 197.979 216.123 195.949 218.21 192.454 220.232 188.755 220.108 184.255 217.885 180.673L193.104 138.423 212.252 127.292 237.06 169.515C238.459 171.975 239.559 174.593 240.337 177.314L240.798 179.102C242.846 187.47 241.564 196.306 237.223 203.748Z" fill="#FFFFFF" transform="matrix(1 0 0 1 1329 2059)"/></g></g></g></g></svg>