<?xml version="1.0" encoding="UTF-8"?>
<svg width="896mm" height="802.09mm" version="1.1" viewBox="0 0 896 802.09" xmlns="http://www.w3.org/2000/svg" xmlns:cc="http://creativecommons.org/ns#" xmlns:dc="http://purl.org/dc/elements/1.1/" xmlns:rdf="http://www.w3.org/1999/02/22-rdf-syntax-ns#">
 <defs>
  <clipPath id="clip0-3">
   <rect x="1675" y="2023" width="4387" height="3155"/>
  </clipPath>
  <linearGradient id="fill1-3" x1="3531.1" x2="4396.9" y1="2167.6" y2="3199.4" gradientUnits="userSpaceOnUse" spreadMethod="reflect">
   <stop stop-color="#FFC611" stop-opacity=".29804" offset="0"/>
   <stop stop-color="#fff" stop-opacity="0" offset=".78"/>
   <stop stop-color="#fff" stop-opacity="0" offset="1"/>
  </linearGradient>
  <linearGradient id="fill2-9" x1="-44.776" x2="1050.8" y1="53.362" y2="972.64" gradientUnits="userSpaceOnUse" spreadMethod="reflect">
   <stop stop-color="#7F7F7F" stop-opacity=".50196" offset="0"/>
   <stop stop-color="#fff" stop-opacity="0" offset=".67"/>
   <stop stop-color="#fff" stop-opacity="0" offset="1"/>
  </linearGradient>
  <linearGradient id="fill3-8" x1="3679.5" x2="2622.5" y1="4957.4" y2="4070.6" gradientUnits="userSpaceOnUse" spreadMethod="reflect">
   <stop stop-color="#0BB5DD" stop-opacity=".50196" offset="0"/>
   <stop stop-color="#0BB5DD" stop-opacity=".30196" offset=".01"/>
   <stop stop-color="#fff" stop-opacity="0" offset=".83"/>
   <stop stop-color="#fff" stop-opacity="0" offset="1"/>
  </linearGradient>
  <linearGradient id="fill4-9" x1="-129.76" x2="868.76" y1="224.75" y2="801.25" gradientUnits="userSpaceOnUse" spreadMethod="reflect">
   <stop stop-color="#1FC2A7" stop-opacity=".50196" offset="0"/>
   <stop stop-color="#88DCCA" stop-opacity=".30196" offset=".01"/>
   <stop stop-color="#fff" stop-opacity="0" offset=".75"/>
   <stop stop-color="#fff" stop-opacity="0" offset="1"/>
  </linearGradient>
  <clipPath id="clip5-8">
   <rect x="3630" y="4191" width="198" height="195"/>
  </clipPath>
  <clipPath id="clip6-1">
   <rect x="3630" y="4191" width="198" height="195"/>
  </clipPath>
  <clipPath id="clip7-2">
   <rect x="3630" y="4191" width="198" height="195"/>
  </clipPath>
  <clipPath id="clip8-7">
   <rect x="2965" y="4019" width="144" height="143"/>
  </clipPath>
  <clipPath id="clip9-4">
   <rect x="2965" y="4019" width="144" height="143"/>
  </clipPath>
  <clipPath id="clip10-6">
   <rect x="2965" y="4019" width="144" height="143"/>
  </clipPath>
  <clipPath id="clip11-5">
   <rect x="2794" y="3355" width="140" height="140"/>
  </clipPath>
  <clipPath id="clip12-9">
   <rect x="2794" y="3355" width="140" height="140"/>
  </clipPath>
  <clipPath id="clip13-7">
   <rect x="2794" y="3355" width="140" height="140"/>
  </clipPath>
  <clipPath id="clip14-5">
   <rect x="4006" y="3065" width="132" height="133"/>
  </clipPath>
  <clipPath id="clip15-5">
   <rect x="4006" y="3065" width="132" height="133"/>
  </clipPath>
  <clipPath id="clip16-8">
   <rect x="4006" y="3065" width="132" height="133"/>
  </clipPath>
  <clipPath id="clip17-6">
   <rect x="3275" y="2833" width="183" height="181"/>
  </clipPath>
  <clipPath id="clip18-9">
   <rect x="3275" y="2833" width="183" height="181"/>
  </clipPath>
  <clipPath id="clip19-3">
   <rect x="3275" y="2833" width="183" height="181"/>
  </clipPath>
  <clipPath id="clip20-8">
   <rect x="3211" y="3237" width="369" height="370"/>
  </clipPath>
  <clipPath id="clip21-5">
   <rect x="3211" y="3237" width="369" height="370"/>
  </clipPath>
  <clipPath id="clip22-7">
   <rect x="3211" y="3237" width="369" height="370"/>
  </clipPath>
  <clipPath id="clip23-6">
   <rect x="3539" y="3238" width="369" height="368"/>
  </clipPath>
  <clipPath id="clip24-1">
   <rect x="3539" y="3238" width="369" height="368"/>
  </clipPath>
  <clipPath id="clip25-2">
   <rect x="3539" y="3238" width="369" height="368"/>
  </clipPath>
  <clipPath id="clip26-3">
   <rect x="3334" y="3303" width="404" height="405"/>
  </clipPath>
  <clipPath id="clip27-4">
   <rect x="3334" y="3303" width="404" height="405"/>
  </clipPath>
  <clipPath id="clip28-7">
   <rect x="3334" y="3303" width="404" height="405"/>
  </clipPath>
 </defs>
 <metadata>
  <rdf:RDF>
   <cc:Work rdf:about="">
    <dc:format>image/svg+xml</dc:format>
    <dc:type rdf:resource="http://purl.org/dc/dcmitype/StillImage"/>
    <dc:title/>
   </cc:Work>
  </rdf:RDF>
 </metadata>
 <g transform="translate(318.73 292.23)">
  <g transform="matrix(.24985 0 0 .24962 -785.31 -794.96)" clip-path="url(#clip0-3)">
   <rect x="3365" y="2307" width="1198" height="753" fill="url(#fill1-3)"/>
   <rect transform="matrix(-1,0,0,1,2940,2532)" width="1006" height="1026" fill="url(#fill2-9)"/>
   <text transform="translate(3395.6 2410)" fill="#ffc000" font-family="Calibri, Calibri_MSFontService, sans-serif" font-weight="400">Infrastructure<tspan x="0" y="128" font-size="107px">Software</tspan><tspan x="0" y="256" font-size="107px">Service</tspan></text>
   <path d="m2944.3 2533h-318.3" fill="none" fill-rule="evenodd" stroke="#7f7f7f" stroke-miterlimit="8" stroke-width="16"/>
   <path d="m2937 2530v724.03" fill="none" fill-rule="evenodd" stroke="#7f7f7f" stroke-miterlimit="8" stroke-width="16"/>
   <rect x="2571" y="4132" width="1160" height="764" fill="url(#fill3-8)"/>
   <rect transform="matrix(1,0,0,-1,4155,4666)" width="739" height="1026" fill="url(#fill4-9)"/>
   <path transform="matrix(-1,0,0,1,4426,2726)" d="M 0,879.5 C 0,393.766 393.766,0 879.5,0 1365.23,0 1759,393.766 1759,879.5 1759,1365.23 1365.23,1759 879.5,1759 393.766,1759 0,1365.23 0,879.5 Z" fill="#d9d9d9" fill-rule="evenodd"/>
   <text transform="translate(3498 3638)" font-family="Calibri, Calibri_MSFontService, sans-serif" font-weight="400">21<tspan x="-1163.42" y="-1009" fill="#7f7f7f" font-size="107px">Management</tspan><tspan x="-1146.85" y="-881" fill="#7f7f7f" font-size="107px">Coordination</tspan></text>
   <g fill-rule="evenodd">
    <path d="m4153 4667v-724.03" fill="none" stroke="#1fc2a7" stroke-miterlimit="8" stroke-width="16"/>
    <path d="m4145 4665h318.3" fill="none" stroke="#1fc2a7" stroke-miterlimit="8" stroke-width="16"/>
    <path transform="matrix(-1,0,0,1,4259,2894)" d="m0 712c0-393.23 318.77-712 712-712 393.23 0 712 318.77 712 712 0 393.23-318.77 712-712 712-393.23 0-712-318.77-712-712z" fill="#88dcca"/>
    <path d="m3491.1 2898c392.39-29.3 734.39 263.05 763.88 652.96 3.27 43.22 2.53 86.64-2.19 129.72" fill="none" stroke="#ffc000" stroke-miterlimit="8" stroke-width="16"/>
    <path d="m3610.9 4311.3c-391.99 34.1-737.72-252.47-772.2-640.06-4.1-46.07-3.6-92.43 1.49-138.41" fill="none" stroke="#0bb5dd" stroke-miterlimit="8" stroke-width="16"/>
   </g>
   <g fill="#ffe9a3" fill-rule="evenodd" stroke="#ffc000" stroke-miterlimit="8" stroke-width="16">
    <path d="m3246 2923c0-65.72 53.73-119 120-119s120 53.28 120 119-53.73 119-120 119-120-53.28-120-119z"/>
    <path d="m3921 3099.5c0-66 53.73-119.5 120-119.5s120 53.5 120 119.5-53.73 119.5-120 119.5-120-53.5-120-119.5z"/>
    <path d="m4113 3792c0-65.72 53.95-119 120.5-119s120.5 53.28 120.5 119-53.95 119-120.5 119-120.5-53.28-120.5-119z"/>
   </g>
   <g fill="#d7f6fd" fill-rule="evenodd" stroke="#0bb5dd" stroke-miterlimit="8" stroke-width="16">
    <path d="m3609 4288.5c0-66 53.73-119.5 120-119.5s120 53.5 120 119.5-53.73 119.5-120 119.5-120-53.5-120-119.5z"/>
    <path d="m2916 4090.5c0-66 53.95-119.5 120.5-119.5s120.5 53.5 120.5 119.5-53.95 119.5-120.5 119.5-120.5-53.5-120.5-119.5z"/>
    <path d="m2744 3424.5c0-66 53.73-119.5 120-119.5s120 53.5 120 119.5-53.73 119.5-120 119.5-120-53.5-120-119.5z"/>
   </g>
   <g clip-path="url(#clip5-8)">
    <g clip-path="url(#clip6-1)">
     <g clip-path="url(#clip7-2)" fill="#0bb5dd">
      <path transform="matrix(1.0103 0 0 1 3630 4191)" d="m91.203 147.06c-1.0157 0-2.2344-0.203-3.0469-1.015-1.625-1.422-1.8281-4.063-0.4063-5.688l7.9219-9.14c1.4219-1.625 4.0625-1.828 5.6872-0.407 1.625 1.422 1.828 4.063 0.407 5.688l-7.9223 9.141c-0.6094 0.812-1.625 1.218-2.6406 1.421z"/>
      <path transform="matrix(1.0103 0 0 1 3630 4191)" d="m78.812 142.39c-1.4219 0.203-2.6407-0.204-3.8594-1.219-2.0313-1.828-2.2344-5.078-0.4063-7.11l9.3438-10.765c1.8281-2.031 5.0781-2.235 7.1093-0.406 2.0313 1.828 2.2344 5.078 0.4063 7.109l-9.3437 10.766c-0.8125 1.015-2.0313 1.625-3.25 1.625z"/>
      <path transform="matrix(1.0103 0 0 1 3630 4191)" d="m66.016 134.88c-1.625 0.203-3.25-0.406-4.4688-1.422-2.4375-2.234-2.8437-6.094-0.6093-8.531l9.3437-10.766c2.2344-2.437 6.0938-2.844 8.5313-0.609 2.4375 2.234 2.8437 6.094 0.6093 8.531l-9.3437 10.766c-1.0156 1.218-2.6406 2.031-4.0625 2.031z"/>
      <path transform="matrix(1.0103 0 0 1 3630 4191)" d="m51.188 127.36c-1.625 0.203-3.25-0.406-4.4688-1.422-2.4375-2.234-2.8437-6.093-0.6094-8.531l10.766-12.187c2.2343-2.438 6.0937-2.844 8.5312-0.61 2.4375 2.235 2.8438 6.094 0.6094 8.532l-10.766 12.187c-1.2188 1.219-2.6407 1.828-4.0625 2.031z"/>
      <path transform="matrix(1.0103 0 0 1 3630 4191)" d="m9.3437 82.672 15.641 9.5469c1.8281 1.2187 4.4687 0.6094 5.4843-1.4219l18.891-31.281c1.2188-1.8281 0.6094-4.4688-1.4218-5.4844l-15.438-9.5469z"/>
      <path transform="matrix(1.0103 0 0 1 3630 4191)" d="m140.97 109.28-32.703-28.031-2.235-2.0313-14.015 16.047c-2.0313 2.4375-4.875 3.8593-8.125 4.0625h-1.0157c-3.0468 0-5.8906-1.0157-7.9218-3.0469-5.0781-4.4688-5.4844-12.188-1.2188-17.266l11.984-13.812c-9.3437-1.2188-21.328 3.6562-33.719-2.4375l-17.672 29.25 13.812 16.046 5.2812-6.093c1.8282-2.2347 4.6719-3.4534 7.7188-3.4534 2.4375 0 4.875 0.8125 6.7031 2.4374 2.2344 1.828 3.25 4.469 3.4531 7.313 1.0157-0.407 2.2344-0.61 3.4532-0.61 2.4375 0 4.875 0.813 6.7031 2.438 2.2344 2.031 3.4531 4.672 3.4531 7.515 0.8125-0.203 1.8281-0.406 2.6406-0.406 2.2344 0 4.2656 0.813 6.0938 2.234 1.8281 1.625 2.8437 3.86 3.0468 6.297 0.6094-0.203 1.4219-0.406 2.2344-0.406 2.0312 0 3.8592 0.609 5.2812 2.031 1.625 1.422 2.641 3.453 2.844 5.485 0.203 2.234-0.61 4.265-2.031 5.89l-6.9067 7.922 2.8437 2.235c1.422 0.812 3.047 1.421 4.875 1.218 4.469-0.406 7.719-4.265 7.313-8.734v-0.203c0.609 0.203 1.421 0.203 2.031 0.203 4.469-0.406 7.719-4.266 7.312-8.734v-0.204c0.61 0.204 1.422 0.204 2.032 0.204 4.468-0.407 7.718-4.266 7.312-8.735 0-0.406-0.203-0.812-0.203-1.219 1.219 0.61 2.641 1.016 4.266 0.813 4.468-0.406 7.718-4.266 7.312-8.734 0.203-2.235-0.812-4.063-2.234-5.485z"/>
      <path transform="matrix(1.0103 0 0 1 3630 4191)" d="m185.66 82.672-15.64 9.5469c-1.829 1.2187-4.469 0.6094-5.485-1.4219l-18.89-31.281c-1.219-1.8281-0.61-4.4688 1.421-5.4844l15.641-9.5469z"/>
      <path transform="matrix(1.0103 0 0 1 3630 4191)" d="m143.2 63.578c-16.859 6.0937-29.047 0.2031-42.656-2.4375-0.203 0-1.0158-0.2031-1.0158-0.2031-2.4375-0.2032-5.0781 0.6093-6.9063 2.6406l-16.047 18.281c-3.0469 3.4531-2.6406 8.5313 0.8125 11.375 1.8281 1.4219 3.8594 2.2344 6.0937 2.0313 2.0313-0.2032 4.0625-1.0157 5.4844-2.8438 0 0 16.656-19.094 16.656-19.094l37.984 32.703c1.016 1.016 1.422 1.422 2.235 2.641l14.625-16.86z"/>
     </g>
    </g>
   </g>
   <g clip-path="url(#clip8-7)">
    <g clip-path="url(#clip9-4)">
     <g clip-path="url(#clip10-6)" fill="#0bb5dd">
      <path d="m2999.3 4039.8h74.48v101.3h-74.48zm-8.94 110.23h92.36v-119.16h-92.36z"/>
      <path d="m3039.5 4053.3h25.32v5.96h-25.32z"/>
      <path d="m3039.5 4077.1h25.32v5.96h-25.32z"/>
      <path d="m3039.5 4124.8h25.32v5.96h-25.32z"/>
      <path d="m3039.5 4100.9h25.32v5.96h-25.32z"/>
      <path d="m3030.2 4050-4.17-4.17-9.83 9.83-3.87-3.87-4.17 4.17 8.04 8.05z"/>
      <path d="m3030.2 4073.8-4.17-4.17-9.83 9.83-3.87-3.88-4.17 4.17 8.04 8.05z"/>
      <path d="m3030.2 4097.6-4.17-4.17-9.83 9.83-3.87-3.87-4.17 4.17 8.04 8.04z"/>
      <path d="m3030.2 4121.2-4.17-4.18-9.83 9.84-3.87-3.88-4.17 4.17 8.04 8.05z"/>
     </g>
    </g>
   </g>
   <g clip-path="url(#clip11-5)">
    <g clip-path="url(#clip12-9)">
     <g clip-path="url(#clip13-7)" fill="#0bb5dd">
      <path transform="matrix(1.0072,0,0,1,2794,3355)" d="m111.53 81.851c0 6.2213-5.043 11.265-11.265 11.265-6.2212 0-11.265-5.0434-11.265-11.265 0-6.2214 5.0434-11.265 11.265-11.265 6.222 0 11.265 5.0434 11.265 11.265z"/>
      <path transform="matrix(1.0072,0,0,1,2794,3355)" d="m51.459 81.851c0 6.2213-5.0434 11.265-11.265 11.265-6.2213 0-11.265-5.0434-11.265-11.265 0-6.2214 5.0434-11.265 11.265-11.265 6.2214 0 11.265 5.0434 11.265 11.265z"/>
      <path transform="matrix(1.0072,0,0,1,2794,3355)" d="m120.55 102.87c-3.25-2.527-7.009-4.3202-11.018-5.2555-3.014-0.8804-6.128-1.3672-9.267-1.448-3.1408-7e-3 -6.2634 0.4816-9.252 1.448-2.991 0.7963-5.8495 2.0256-8.4848 3.6485l-0.5213 0.594c4.2097 1.136 8.1485 3.106 11.583 5.792 2.6997 1.983 4.2746 5.149 4.2279 8.499v2.577h24.977v-11.337c0.049-1.785-0.792-3.478-2.245-4.518z"/>
      <path transform="matrix(1.0072,0,0,1,2794,3355)" d="m42.685 116.15c0.0023-3.262 1.5023-6.342 4.0686-8.355l0.1593-0.144 0.1882-0.131c3.4756-2.473 7.3218-4.379 11.395-5.647-0.2896-0.304-0.5647-0.622-0.8253-0.941-2.5689-1.4922-5.3385-2.6088-8.2242-3.3155-3.0088-0.8792-6.1186-1.3659-9.2522-1.448-3.1459-0.0081-6.2732 0.4806-9.2666 1.448-3.9533 1.0905-7.6832 2.8695-11.019 5.2555-1.4044 1.081-2.2366 2.746-2.2587 4.518v11.337h25.034z"/>
      <path transform="matrix(1.0072,0,0,1,2794,3355)" d="m47.694 127.42v-11.265c0.0068-1.772 0.8427-3.438 2.2588-4.503 3.3287-2.398 7.0607-4.178 11.019-5.256 2.9872-0.973 6.1107-1.462 9.2522-1.448 3.1391 0.074 6.2547 0.561 9.2667 1.448 4.0137 0.923 7.7754 2.717 11.019 5.256 1.4578 1.029 2.3052 2.719 2.2588 4.503v11.265z"/>
      <path transform="matrix(1.0072,0,0,1,2794,3355)" d="m81.489 90.611c0 6.2213-5.0434 11.264-11.265 11.264s-11.265-5.0431-11.265-11.264c0-6.2214 5.0434-11.265 11.265-11.265s11.265 5.0434 11.265 11.265z"/>
      <path transform="matrix(1.0072,0,0,1,2794,3355)" d="m117.28 11.583h-93.752c-3.1986 0-5.7916 2.593-5.7916 5.7917v31.854c0 3.1986 2.593 5.7917 5.7916 5.7917h21.357v8.6875l9.1218-8.6875h9.8459l5.6468 8.6875 5.2125-8.6875h10.28l9.1219 8.6875v-8.6875h23.166c3.199 0 5.792-2.5931 5.792-5.7917v-31.854c0-3.1987-2.593-5.7917-5.792-5.7917zm-85.065 13.031h67.69v2.8958h-67.69zm53.211 17.375h-53.211v-2.8959h53.211zm23.167-7.2396h-76.378v-2.8959h76.378z"/>
     </g>
    </g>
   </g>
   <g fill="#ffc000" fill-rule="evenodd" stroke="#bc8c00" stroke-miterlimit="8" stroke-width="2.6667">
    <path d="m3981.5 3038.6c0-5.04 23.73-9.08 52.5-9.08s52.5 4.04 52.5 9.08v35.84c0 5.04-23.73 9.08-52.5 9.08s-52.5-4.04-52.5-9.08z"/>
    <path d="m3981.5 3102.6c0-5.04 23.73-9.08 52.5-9.08s52.5 4.04 52.5 9.08v35.84c0 5.04-23.73 9.08-52.5 9.08s-52.5-4.04-52.5-9.08z"/>
    <path d="m4086.5 3102.5c0 4.5-23.73 9-52.5 9s-52.5-4.5-52.5-9"/>
    <path d="m3981.5 3102.6c0-5.04 23.73-9.08 52.5-9.08s52.5 4.04 52.5 9.08v35.84c0 5.04-23.73 9.08-52.5 9.08s-52.5-4.04-52.5-9.08z"/>
    <path d="m3981.5 3070.5c0-5 23.73-9 52.5-9s52.5 4 52.5 9v36c0 5-23.73 9-52.5 9s-52.5-4-52.5-9z"/>
    <path d="m4086.5 3070.5c0 5-23.73 9-52.5 9s-52.5-4-52.5-9"/>
    <path d="m3981.5 3070.5c0-5 23.73-9 52.5-9s52.5 4 52.5 9v36c0 5-23.73 9-52.5 9s-52.5-4-52.5-9z"/>
    <path d="m3981.5 3038.6c0-5.04 23.73-9.08 52.5-9.08s52.5 4.04 52.5 9.08v35.84c0 5.04-23.73 9.08-52.5 9.08s-52.5-4.04-52.5-9.08z"/>
    <path d="m4086.5 3038.5c0 5-23.73 9-52.5 9s-52.5-4-52.5-9"/>
   </g>
   <g clip-path="url(#clip14-5)">
    <g clip-path="url(#clip15-5)">
     <g clip-path="url(#clip16-8)" fill="#ffc000" stroke="#bc8c00" stroke-width="3.52">
      <path d="m4093.4 3132.7-8.91 8.91-8.92-8.91h4.98c-1.69-3.28-5.06-5.34-8.75-5.35-2.38 0.01-4.67 0.88-6.45 2.46h-9.06c4.04-8.57 14.26-12.25 22.84-8.21 4.57 2.15 7.97 6.22 9.27 11.1z"/>
      <path d="m4050.2 3141.6 8.92-8.91 8.91 8.91h-5.02c1.68 3.28 5.05 5.34 8.73 5.35 2.39 0 4.69-0.88 6.47-2.46h9.1c-4.05 8.58-14.29 12.26-22.88 8.21-4.57-2.15-7.96-6.21-9.27-11.1z"/>
      <path d="m4114.2 3169.5c11.88-0.28 21.27-10.13 20.99-22.01-0.24-10.47-8.01-19.25-18.37-20.77-1.1-6.72-4.79-12.74-10.29-16.77-5.69-4.03-12.79-5.53-19.62-4.13-6.72-10.37-19.25-15.38-31.27-12.5-11.71 3.02-20.46 12.78-22.19 24.75-7.8 0.21-15.08 3.99-19.75 10.25-5.52 7.68-6.53 17.72-2.64 26.34 3.97 8.5 12.28 14.14 21.65 14.69zm-81.12-8.69c-6.22-0.39-11.74-4.14-14.4-9.78-2.58-5.74-1.91-12.43 1.75-17.55 3.74-5.04 9.97-7.58 16.17-6.6l4.88 0.81v-5.39c0.05-9.74 6.67-18.22 16.1-20.63 9.47-2.28 19.26 2.28 23.6 11l1.66 3.32 3.45-1.23c5.17-1.82 10.89-1.02 15.36 2.15 4.44 3.25 7.07 8.42 7.08 13.92v4.29h5.61c7.13 0.27 12.69 6.27 12.42 13.39-0.26 6.8-5.75 12.24-12.56 12.42z"/>
     </g>
    </g>
   </g>
   <g clip-path="url(#clip17-6)">
    <g clip-path="url(#clip18-9)">
     <g clip-path="url(#clip19-3)" fill="#ffc000" stroke="#bc8c00" stroke-width="3.5294">
      <path transform="matrix(1.0111 0 0 1 3275 2833)" d="m111.19 69.938c-7.876 0-14.063-6.375-14.063-14.062s6.375-14.062 14.063-14.062c7.874 0 14.062 6.375 14.062 14.062s-6.375 14.062-14.062 14.062zm31.687-22.875c-0.75-2.625-1.687-5.0625-3-7.3125l3-8.8125-6.75-6.75-8.813 3c-2.25-1.3125-4.687-2.25-7.312-3l-4.125-8.25h-9.375l-4.125 8.25c-2.625 0.75-5.0625 1.6875-7.3125 3l-8.8125-3-6.75 6.75 3 8.8125c-1.3125 2.25-2.25 4.6875-3 7.3125l-8.25 4.125v9.375l8.25 4.125c0.75 2.625 1.6875 5.0625 3 7.3125l-3 8.8125 6.5625 6.5625 8.8125-3c2.25 1.3125 4.6875 2.25 7.313 3l4.124 8.25h9.376l4.124-8.25c2.626-0.75 5.063-1.6875 7.313-3l8.813 3 6.75-6.5625-3-8.8125c1.312-2.25 2.437-4.875 3.187-7.3125l8.25-4.125v-9.375z"/>
      <path transform="matrix(1.0111 0 0 1 3275 2833)" d="m68.812 138.19c-7.875 0-14.062-6.376-14.062-14.063 0-7.875 6.375-14.063 14.062-14.063 7.875 0 14.062 6.376 14.062 14.063s-6.1875 14.063-14.062 14.063zm28.688-30.188 3-8.8125-6.75-6.75-8.8125 3c-2.25-1.3125-4.875-2.25-7.3125-3l-4.125-8.25h-9.375l-4.125 8.25c-2.625 0.75-5.0625 1.6875-7.3125 3l-8.8125-3-6.5625 6.5625 2.8125 8.812c-1.3125 2.25-2.25 4.876-3 7.313l-8.25 4.125v9.375l8.25 4.125c0.75 2.625 1.6875 5.062 3 7.312l-2.8125 8.813 6.5625 6.563 8.8125-2.813c2.25 1.313 4.6875 2.25 7.3125 3l4.125 8.25h9.375l4.125-8.25c2.625-0.75 5.0625-1.687 7.3125-3l8.8125 3 6.562-6.75-2.812-8.625c1.3125-2.25 2.25-4.688 3-7.312l8.25-4.126v-9.374l-8.25-4.126c-0.75-2.624-1.6875-5.062-3-7.312z"/>
     </g>
    </g>
   </g>
   <g fill="#ffc000" fill-rule="evenodd" stroke="#bc8c00" stroke-miterlimit="8" stroke-width="2.6667">
    <path d="m4228.5 3825.5h11v13h-11z"/>
    <path d="m4228.5 3845.5h11v11h-11z"/>
    <path d="m4247.5 3845.5h54v11h-54z"/>
    <path d="m4166.5 3845.5h54v11h-54z"/>
    <path d="m4287.8 3797.5h-106.58c-3.7 0-6.71 2.8-6.71 6.27v15.47c0 3.46 3.01 6.26 6.71 6.26h106.58c3.7 0 6.71-2.8 6.71-6.26v-15.47c0-3.47-3.01-6.27-6.71-6.27zm-94.54 17.5c-2.07 0-3.75-1.57-3.75-3.5s1.68-3.5 3.75-3.5 3.75 1.57 3.75 3.5-1.68 3.5-3.75 3.5zm18.75 0c-2.07 0-3.75-1.57-3.75-3.5s1.68-3.5 3.75-3.5 3.75 1.57 3.75 3.5-1.68 3.5-3.75 3.5zm18.75 0c-2.07 0-3.75-1.57-3.75-3.5s1.68-3.5 3.75-3.5 3.75 1.57 3.75 3.5-1.68 3.5-3.75 3.5z"/>
    <path d="m4287.8 3763.5h-106.58c-3.7 0-6.71 2.7-6.71 6.04v14.92c0 3.34 3.01 6.04 6.71 6.04h106.58c3.7 0 6.71-2.7 6.71-6.04v-14.92c0-3.34-3.01-6.04-6.71-6.04zm-94.54 16.88c-2.07 0-3.75-1.52-3.75-3.38s1.68-3.38 3.75-3.38 3.75 1.52 3.75 3.38-1.68 3.38-3.75 3.38zm18.75 0c-2.07 0-3.75-1.52-3.75-3.38s1.68-3.38 3.75-3.38 3.75 1.52 3.75 3.38-1.68 3.38-3.75 3.38zm18.75 0c-2.07 0-3.75-1.52-3.75-3.38s1.68-3.38 3.75-3.38 3.75 1.52 3.75 3.38-1.68 3.38-3.75 3.38z"/>
    <path d="m4287.8 3728.5h-106.58c-3.7 0-6.71 2.8-6.71 6.27v15.47c0 3.46 3.01 6.26 6.71 6.26h106.58c3.7 0 6.71-2.8 6.71-6.26v-15.47c0-3.47-3.01-6.27-6.71-6.27zm-94.54 17.5c-2.07 0-3.75-1.57-3.75-3.5s1.68-3.5 3.75-3.5 3.75 1.57 3.75 3.5-1.68 3.5-3.75 3.5zm18.75 0c-2.07 0-3.75-1.57-3.75-3.5s1.68-3.5 3.75-3.5 3.75 1.57 3.75 3.5-1.68 3.5-3.75 3.5zm18.75 0c-2.07 0-3.75-1.57-3.75-3.5s1.68-3.5 3.75-3.5 3.75 1.57 3.75 3.5-1.68 3.5-3.75 3.5z"/>
   </g>
   <text transform="translate(4183.2 4340)" fill="#1fc2a7" font-family="Calibri, Calibri_MSFontService, sans-serif" font-weight="400">Transfer<tspan x="0" y="128" font-size="107px">Training</tspan><tspan x="0" y="256" font-size="107px">Application</tspan><tspan x="-1017.27" y="238" fill="#0bb5dd" font-size="107px">Data quality</tspan><tspan x="-1166.1899" y="366" fill="#0bb5dd" font-size="107px">Interoperability</tspan><tspan x="-1172.71" y="494" fill="#0bb5dd" font-size="107px">Standardization</tspan></text>
   <g fill-rule="evenodd" stroke-miterlimit="8">
    <path transform="matrix(1,0,0,-1,3731,4895.2)" d="m0 0 2.0997e-4 494.2" fill="none" stroke="#0bb5dd" stroke-width="16"/>
    <path transform="matrix(0,-1,-1,0,3739.3,4894)" d="m0 0 2.0997e-4 318.3" fill="none" stroke="#0bb5dd" stroke-width="16"/>
    <path d="m3140.5 3606c0-224.5 182-406.5 406.5-406.5s406.5 182 406.5 406.5-182 406.5-406.5 406.5-406.5-182-406.5-406.5z" fill="#0bb5dd" stroke="#0684a2" stroke-width="2.6667"/>
   </g>
   <g clip-path="url(#clip20-8)">
    <g clip-path="url(#clip21-5)">
     <g clip-path="url(#clip22-7)" fill="#2d3e50">
      <path transform="matrix(-1,0,0,1,3580,3237)" d="m246 115.31c0 33.966-27.535 61.5-61.5 61.5-33.966 0-61.5-27.534-61.5-61.5 0-33.965 27.534-61.5 61.5-61.5 33.965 0 61.5 27.534 61.5 61.5z"/>
      <path transform="matrix(-1,0,0,1,3580,3237)" d="m307.5 315.19v-61.5c0-9.225-4.613-18.45-12.3-24.6-16.913-13.837-38.438-23.062-59.963-29.212-15.375-4.613-32.287-7.688-50.737-7.688-16.913 0-33.825 3.075-50.738 7.688-21.525 6.15-43.05 16.912-59.962 29.212-7.6875 6.15-12.3 15.375-12.3 24.6v61.5z"/>
     </g>
    </g>
   </g>
   <g clip-path="url(#clip23-6)">
    <g clip-path="url(#clip24-1)">
     <g clip-path="url(#clip25-2)" fill="#2d3e50">
      <path transform="matrix(-1.0027 0 0 1 3908 3238)" d="m245.33 115c0 33.873-27.46 61.333-61.333 61.333s-61.333-27.46-61.333-61.333c0-33.874 27.46-61.333 61.333-61.333s61.333 27.46 61.333 61.333z"/>
      <path transform="matrix(-1.0027 0 0 1 3908 3238)" d="m117.3 312.8-25.3-57.117v-38.716c0-4.6 2.6833-9.2 6.5167-11.5 2.3003-1.15 3.0663-3.834 1.9163-5.75-0.7663-1.534-2.2997-2.684-4.2163-2.3h-43.7c-2.3 0-4.6 1.533-4.6 4.216 0 1.917 0.7666 3.45 2.3 4.217 4.2166 2.3 6.5166 6.9 6.5166 11.5v38.717l-24.917 56.733c-3.0667 6.517 0 14.567 6.9 17.25 1.5333 0.767 3.45 1.15 5.3666 1.15h61.334c7.283 0 13.033-5.75 13.033-13.033 0-1.917-0.383-3.834-1.15-5.367zm-51.367-87.017v-8.816c0-3.834-0.7666-7.667-3.0666-11.117h23.383c-1.9167 3.45-3.0667 7.283-3.0667 11.117v8.816z"/>
      <path transform="matrix(-1.0027 0 0 1 3908 3238)" d="m85.483 144.52c0 3.599-2.9176 6.516-6.5166 6.516-3.5991 0-6.5167-2.917-6.5167-6.516s2.9176-6.517 6.5167-6.517c3.599 0 6.5166 2.918 6.5166 6.517z"/>
      <path transform="matrix(-1.0027 0 0 1 3908 3238)" d="m96.6 164.45c0 3.599-2.9176 6.517-6.5167 6.517-3.599 0-6.5166-2.918-6.5166-6.517s2.9176-6.517 6.5166-6.517c3.5991 0 6.5167 2.918 6.5167 6.517z"/>
      <path transform="matrix(-1.0027 0 0 1 3908 3238)" d="m72.45 159.85c0 3.599-2.9176 6.517-6.5167 6.517-3.599 0-6.5166-2.918-6.5166-6.517s2.9176-6.517 6.5166-6.517c3.5991 0 6.5167 2.918 6.5167 6.517z"/>
      <path transform="matrix(-1.0027 0 0 1 3908 3238)" d="m78.967 184c0 4.869-3.9474 8.817-8.8167 8.817s-8.8167-3.948-8.8167-8.817 3.9474-8.817 8.8167-8.817 8.8167 3.948 8.8167 8.817z"/>
      <path transform="matrix(-1.0027 0 0 1 3908 3238)" d="m164.83 279.45-27.6-29.133 15.334-19.167v-0.383l-23.384 2.3 0.767-32.584c-9.2 3.067-18.4 6.517-27.217 10.734-1.533 1.533-2.683 3.833-3.0663 6.133v36.8l24.533 55.583c0.767 1.534 1.15 3.067 1.533 4.6h39.1z"/>
      <path transform="matrix(-1.0027 0 0 1 3908 3238)" d="m172.5 276v38.333h23v-38.333l27.6-79.733c-13.033-3.067-26.067-4.6-39.1-4.6s-26.067 1.533-38.717 4.6z"/>
      <path transform="matrix(-1.0027 0 0 1 3908 3238)" d="m294.4 228.47c-16.867-13.034-36.033-22.234-56.35-27.984l0.767 32.584-23.384-2.3v0.383l15.334 19.167-27.6 29.133v34.883h103.5v-61.333c-0.384-9.583-4.6-18.783-12.267-24.533z"/>
     </g>
    </g>
   </g>
   <g clip-path="url(#clip26-3)">
    <g clip-path="url(#clip27-4)">
     <g clip-path="url(#clip28-7)" fill="#2d3e50">
      <path transform="matrix(-1,0,0,1,3738,3303)" d="m269.33 126.25c0 37.187-30.146 67.333-67.333 67.333s-67.333-30.146-67.333-67.333c0-37.187 30.146-67.333 67.333-67.333s67.333 30.146 67.333 67.333z"/>
      <path transform="matrix(-1,0,0,1,3738,3303)" d="m336.67 345.08v-67.333c0-10.1-5.05-20.2-13.467-26.933-18.517-15.15-42.083-25.25-65.65-31.984-16.833-5.05-35.35-8.416-55.55-8.416-18.517 0-37.033 3.366-55.55 8.416-23.567 6.734-47.133 18.517-65.65 31.984-8.4167 6.733-13.467 16.833-13.467 26.933v67.333z"/>
     </g>
    </g>
   </g>
   <text transform="translate(3361 3739)" fill="#2d3e50" font-family="Calibri, Calibri_MSFontService, sans-serif" font-weight="400">research<tspan x="-60.040001" y="128" font-size="107px">community</tspan><tspan x="67.017097" y="-1475" fill="#ffc000" font-size="96px" font-weight="700">TA II</tspan></text>
   <path transform="matrix(-1,0,0,1,3364,2302)" d="m0 0 2.0997e-4 494.2" fill="none" fill-rule="evenodd" stroke="#ffc000" stroke-miterlimit="8" stroke-width="16"/>
   <path transform="matrix(0,1,1,0,3360,2310)" d="m0 0 2.0997e-4 318.3" fill="none" fill-rule="evenodd" stroke="#ffc000" stroke-miterlimit="8" stroke-width="16"/>
   <text transform="translate(2686.5,2496)" font-family="Calibri, Calibri_MSFontService, sans-serif" font-weight="700">TA IV<tspan x="820.59198" y="2491" fill="#0bb5dd" font-size="96px">TA I</tspan><tspan x="1521.76" y="2261" fill="#1fc2a7" font-size="96px">TA III</tspan><tspan x="276.30701" y="2599" fill="#0bb5dd" font-size="96px" font-style="italic" font-weight="400">Prof. Björn Usadel</tspan><tspan x="1524.89" y="2378" fill="#1fc2a7" font-size="96px" font-style="italic" font-weight="400">Jun. Prof. Dr. Timo Mühlhaus</tspan><tspan x="731.54901" y="-354" fill="#ffc000" font-size="96px" font-style="italic" font-weight="400">Dr. Jens Krüger</tspan><tspan x="-727.75598" y="-106" fill="#7f7f7f" font-size="96px" font-style="italic" font-weight="400">Dr. Dirk von Suchodoletz</tspan></text>
  </g>
 </g>
</svg>
