<?xml version="1.0" encoding="UTF-8" standalone="no"?>
<svg
   xmlns:dc="http://purl.org/dc/elements/1.1/"
   xmlns:cc="http://creativecommons.org/ns#"
   xmlns:rdf="http://www.w3.org/1999/02/22-rdf-syntax-ns#"
   xmlns:svg="http://www.w3.org/2000/svg"
   xmlns="http://www.w3.org/2000/svg"
   xmlns:sodipodi="http://sodipodi.sourceforge.net/DTD/sodipodi-0.dtd"
   xmlns:inkscape="http://www.inkscape.org/namespaces/inkscape"
   width="659.34167mm"
   height="603.06396mm"
   viewBox="0 0 659.34167 603.06396"
   version="1.1"
   id="svg8"
   inkscape:version="1.0.1 (3bc2e813f5, 2020-09-07)"
   sodipodi:docname="TA4.svg">
  <defs
     id="defs2">
    <clipPath
       id="clip0">
      <rect
         x="1675"
         y="2023"
         width="3865"
         height="3155"
         id="rect10" />
    </clipPath>
    <linearGradient
       x1="3531.1201"
       y1="2167.6101"
       x2="4396.8799"
       y2="3199.3899"
       gradientUnits="userSpaceOnUse"
       spreadMethod="reflect"
       id="fill1">
      <stop
         offset="0"
         stop-color="#FFC611"
         stop-opacity="0.298039"
         id="stop13" />
      <stop
         offset="0.78"
         stop-color="#FFFFFF"
         stop-opacity="0"
         id="stop15" />
      <stop
         offset="1"
         stop-color="#FFFFFF"
         stop-opacity="0"
         id="stop17" />
    </linearGradient>
    <linearGradient
       x1="-44.7757"
       y1="53.361599"
       x2="1050.78"
       y2="972.638"
       gradientUnits="userSpaceOnUse"
       spreadMethod="reflect"
       id="fill2">
      <stop
         offset="0"
         stop-color="#7F7F7F"
         stop-opacity="0.501961"
         id="stop20" />
      <stop
         offset="0.67"
         stop-color="#FFFFFF"
         stop-opacity="0"
         id="stop22" />
      <stop
         offset="1"
         stop-color="#FFFFFF"
         stop-opacity="0"
         id="stop24" />
    </linearGradient>
    <linearGradient
       x1="3679.46"
       y1="4957.4302"
       x2="2622.54"
       y2="4070.5701"
       gradientUnits="userSpaceOnUse"
       spreadMethod="reflect"
       id="fill3">
      <stop
         offset="0"
         stop-color="#0BB5DD"
         stop-opacity="0.501961"
         id="stop27" />
      <stop
         offset="0.01"
         stop-color="#0BB5DD"
         stop-opacity="0.301961"
         id="stop29" />
      <stop
         offset="0.83"
         stop-color="#FFFFFF"
         stop-opacity="0"
         id="stop31" />
      <stop
         offset="1"
         stop-color="#FFFFFF"
         stop-opacity="0"
         id="stop33" />
    </linearGradient>
    <linearGradient
       x1="-129.761"
       y1="224.752"
       x2="868.76001"
       y2="801.24799"
       gradientUnits="userSpaceOnUse"
       spreadMethod="reflect"
       id="fill4">
      <stop
         offset="0"
         stop-color="#1FC2A7"
         stop-opacity="0.501961"
         id="stop36" />
      <stop
         offset="0.01"
         stop-color="#88DCCA"
         stop-opacity="0.301961"
         id="stop38" />
      <stop
         offset="0.75"
         stop-color="#FFFFFF"
         stop-opacity="0"
         id="stop40" />
      <stop
         offset="1"
         stop-color="#FFFFFF"
         stop-opacity="0"
         id="stop42" />
    </linearGradient>
    <clipPath
       id="clip5">
      <rect
         x="3630"
         y="4191"
         width="198"
         height="195"
         id="rect45" />
    </clipPath>
    <clipPath
       id="clip6">
      <rect
         x="3630"
         y="4191"
         width="198"
         height="195"
         id="rect48" />
    </clipPath>
    <clipPath
       id="clip7">
      <rect
         x="3630"
         y="4191"
         width="198"
         height="195"
         id="rect51" />
    </clipPath>
    <clipPath
       id="clip8">
      <rect
         x="2965"
         y="4019"
         width="144"
         height="143"
         id="rect54" />
    </clipPath>
    <clipPath
       id="clip9">
      <rect
         x="2965"
         y="4019"
         width="144"
         height="143"
         id="rect57" />
    </clipPath>
    <clipPath
       id="clip10">
      <rect
         x="2965"
         y="4019"
         width="144"
         height="143"
         id="rect60" />
    </clipPath>
    <clipPath
       id="clip11">
      <rect
         x="2794"
         y="3355"
         width="140"
         height="140"
         id="rect63" />
    </clipPath>
    <clipPath
       id="clip12">
      <rect
         x="2794"
         y="3355"
         width="140"
         height="140"
         id="rect66" />
    </clipPath>
    <clipPath
       id="clip13">
      <rect
         x="2794"
         y="3355"
         width="140"
         height="140"
         id="rect69" />
    </clipPath>
    <clipPath
       id="clip14">
      <rect
         x="4006"
         y="3065"
         width="132"
         height="133"
         id="rect72" />
    </clipPath>
    <clipPath
       id="clip15">
      <rect
         x="4006"
         y="3065"
         width="132"
         height="133"
         id="rect75" />
    </clipPath>
    <clipPath
       id="clip16">
      <rect
         x="4006"
         y="3065"
         width="132"
         height="133"
         id="rect78" />
    </clipPath>
    <clipPath
       id="clip17">
      <rect
         x="3275"
         y="2833"
         width="183"
         height="181"
         id="rect81" />
    </clipPath>
    <clipPath
       id="clip18">
      <rect
         x="3275"
         y="2833"
         width="183"
         height="181"
         id="rect84" />
    </clipPath>
    <clipPath
       id="clip19">
      <rect
         x="3275"
         y="2833"
         width="183"
         height="181"
         id="rect87" />
    </clipPath>
    <clipPath
       id="clip20">
      <rect
         x="3211"
         y="3237"
         width="369"
         height="370"
         id="rect90" />
    </clipPath>
    <clipPath
       id="clip21">
      <rect
         x="3211"
         y="3237"
         width="369"
         height="370"
         id="rect93" />
    </clipPath>
    <clipPath
       id="clip22">
      <rect
         x="3211"
         y="3237"
         width="369"
         height="370"
         id="rect96" />
    </clipPath>
    <clipPath
       id="clip23">
      <rect
         x="3539"
         y="3238"
         width="369"
         height="368"
         id="rect99" />
    </clipPath>
    <clipPath
       id="clip24">
      <rect
         x="3539"
         y="3238"
         width="369"
         height="368"
         id="rect102" />
    </clipPath>
    <clipPath
       id="clip25">
      <rect
         x="3539"
         y="3238"
         width="369"
         height="368"
         id="rect105" />
    </clipPath>
    <clipPath
       id="clip26">
      <rect
         x="3334"
         y="3303"
         width="404"
         height="405"
         id="rect108" />
    </clipPath>
    <clipPath
       id="clip27">
      <rect
         x="3334"
         y="3303"
         width="404"
         height="405"
         id="rect111" />
    </clipPath>
    <clipPath
       id="clip28">
      <rect
         x="3334"
         y="3303"
         width="404"
         height="405"
         id="rect114" />
    </clipPath>
    <clipPath
       id="clip0-6">
      <rect
         x="2667"
         y="2726"
         width="2873"
         height="2346"
         id="rect589" />
    </clipPath>
    <linearGradient
       x1="-129.761"
       y1="224.752"
       x2="868.76001"
       y2="801.24799"
       gradientUnits="userSpaceOnUse"
       spreadMethod="reflect"
       id="fill1-9">
      <stop
         offset="0"
         stop-color="#1FC2A7"
         stop-opacity="0.501961"
         id="stop592" />
      <stop
         offset="0.01"
         stop-color="#88DCCA"
         stop-opacity="0.301961"
         id="stop594" />
      <stop
         offset="0.75"
         stop-color="#FFFFFF"
         stop-opacity="0"
         id="stop596" />
      <stop
         offset="1"
         stop-color="#FFFFFF"
         stop-opacity="0"
         id="stop598" />
    </linearGradient>
    <clipPath
       id="clip2">
      <rect
         x="3630"
         y="4191"
         width="198"
         height="195"
         id="rect601" />
    </clipPath>
    <clipPath
       id="clip3">
      <rect
         x="3630"
         y="4191"
         width="198"
         height="195"
         id="rect604" />
    </clipPath>
    <clipPath
       id="clip4">
      <rect
         x="3630"
         y="4191"
         width="198"
         height="195"
         id="rect607" />
    </clipPath>
    <clipPath
       id="clip5-3">
      <rect
         x="2965"
         y="4019"
         width="144"
         height="143"
         id="rect610" />
    </clipPath>
    <clipPath
       id="clip6-1">
      <rect
         x="2965"
         y="4019"
         width="144"
         height="143"
         id="rect613" />
    </clipPath>
    <clipPath
       id="clip7-3">
      <rect
         x="2965"
         y="4019"
         width="144"
         height="143"
         id="rect616" />
    </clipPath>
    <clipPath
       id="clip8-7">
      <rect
         x="2794"
         y="3355"
         width="140"
         height="140"
         id="rect619" />
    </clipPath>
    <clipPath
       id="clip9-7">
      <rect
         x="2794"
         y="3355"
         width="140"
         height="140"
         id="rect622" />
    </clipPath>
    <clipPath
       id="clip10-9">
      <rect
         x="2794"
         y="3355"
         width="140"
         height="140"
         id="rect625" />
    </clipPath>
    <clipPath
       id="clip11-3">
      <rect
         x="4006"
         y="3065"
         width="132"
         height="133"
         id="rect628" />
    </clipPath>
    <clipPath
       id="clip12-5">
      <rect
         x="4006"
         y="3065"
         width="132"
         height="133"
         id="rect631" />
    </clipPath>
    <clipPath
       id="clip13-9">
      <rect
         x="4006"
         y="3065"
         width="132"
         height="133"
         id="rect634" />
    </clipPath>
    <clipPath
       id="clip14-5">
      <rect
         x="3275"
         y="2833"
         width="183"
         height="181"
         id="rect637" />
    </clipPath>
    <clipPath
       id="clip15-5">
      <rect
         x="3275"
         y="2833"
         width="183"
         height="181"
         id="rect640" />
    </clipPath>
    <clipPath
       id="clip16-5">
      <rect
         x="3275"
         y="2833"
         width="183"
         height="181"
         id="rect643" />
    </clipPath>
    <clipPath
       id="clip17-8">
      <rect
         x="3211"
         y="3237"
         width="369"
         height="370"
         id="rect646" />
    </clipPath>
    <clipPath
       id="clip18-9">
      <rect
         x="3211"
         y="3237"
         width="369"
         height="370"
         id="rect649" />
    </clipPath>
    <clipPath
       id="clip19-0">
      <rect
         x="3211"
         y="3237"
         width="369"
         height="370"
         id="rect652" />
    </clipPath>
    <clipPath
       id="clip20-3">
      <rect
         x="3539"
         y="3238"
         width="369"
         height="368"
         id="rect655" />
    </clipPath>
    <clipPath
       id="clip21-1">
      <rect
         x="3539"
         y="3238"
         width="369"
         height="368"
         id="rect658" />
    </clipPath>
    <clipPath
       id="clip22-6">
      <rect
         x="3539"
         y="3238"
         width="369"
         height="368"
         id="rect661" />
    </clipPath>
    <clipPath
       id="clip23-8">
      <rect
         x="3334"
         y="3303"
         width="404"
         height="405"
         id="rect664" />
    </clipPath>
    <clipPath
       id="clip24-4">
      <rect
         x="3334"
         y="3303"
         width="404"
         height="405"
         id="rect667" />
    </clipPath>
    <clipPath
       id="clip25-5">
      <rect
         x="3334"
         y="3303"
         width="404"
         height="405"
         id="rect670" />
    </clipPath>
    <clipPath
       id="clip0-1">
      <rect
         x="1675"
         y="2151"
         width="2751"
         height="2334"
         id="rect1054" />
    </clipPath>
    <linearGradient
       x1="-44.7757"
       y1="53.361599"
       x2="1050.78"
       y2="972.638"
       gradientUnits="userSpaceOnUse"
       spreadMethod="reflect"
       id="fill1-5">
      <stop
         offset="0"
         stop-color="#7F7F7F"
         stop-opacity="0.501961"
         id="stop1057" />
      <stop
         offset="0.67"
         stop-color="#FFFFFF"
         stop-opacity="0"
         id="stop1059" />
      <stop
         offset="1"
         stop-color="#FFFFFF"
         stop-opacity="0"
         id="stop1061" />
    </linearGradient>
    <clipPath
       id="clip2-1">
      <rect
         x="3630"
         y="4191"
         width="198"
         height="195"
         id="rect1064" />
    </clipPath>
    <clipPath
       id="clip3-0">
      <rect
         x="3630"
         y="4191"
         width="198"
         height="195"
         id="rect1067" />
    </clipPath>
    <clipPath
       id="clip4-8">
      <rect
         x="3630"
         y="4191"
         width="198"
         height="195"
         id="rect1070" />
    </clipPath>
    <clipPath
       id="clip5-4">
      <rect
         x="2965"
         y="4019"
         width="144"
         height="143"
         id="rect1073" />
    </clipPath>
    <clipPath
       id="clip6-7">
      <rect
         x="2965"
         y="4019"
         width="144"
         height="143"
         id="rect1076" />
    </clipPath>
    <clipPath
       id="clip7-7">
      <rect
         x="2965"
         y="4019"
         width="144"
         height="143"
         id="rect1079" />
    </clipPath>
    <clipPath
       id="clip8-77">
      <rect
         x="2794"
         y="3355"
         width="140"
         height="140"
         id="rect1082" />
    </clipPath>
    <clipPath
       id="clip9-0">
      <rect
         x="2794"
         y="3355"
         width="140"
         height="140"
         id="rect1085" />
    </clipPath>
    <clipPath
       id="clip10-4">
      <rect
         x="2794"
         y="3355"
         width="140"
         height="140"
         id="rect1088" />
    </clipPath>
    <clipPath
       id="clip11-1">
      <rect
         x="4006"
         y="3065"
         width="132"
         height="133"
         id="rect1091" />
    </clipPath>
    <clipPath
       id="clip12-4">
      <rect
         x="4006"
         y="3065"
         width="132"
         height="133"
         id="rect1094" />
    </clipPath>
    <clipPath
       id="clip13-96">
      <rect
         x="4006"
         y="3065"
         width="132"
         height="133"
         id="rect1097" />
    </clipPath>
    <clipPath
       id="clip14-9">
      <rect
         x="3275"
         y="2833"
         width="183"
         height="181"
         id="rect1100" />
    </clipPath>
    <clipPath
       id="clip15-55">
      <rect
         x="3275"
         y="2833"
         width="183"
         height="181"
         id="rect1103" />
    </clipPath>
    <clipPath
       id="clip16-2">
      <rect
         x="3275"
         y="2833"
         width="183"
         height="181"
         id="rect1106" />
    </clipPath>
    <clipPath
       id="clip17-0">
      <rect
         x="3211"
         y="3237"
         width="369"
         height="370"
         id="rect1109" />
    </clipPath>
    <clipPath
       id="clip18-8">
      <rect
         x="3211"
         y="3237"
         width="369"
         height="370"
         id="rect1112" />
    </clipPath>
    <clipPath
       id="clip19-6">
      <rect
         x="3211"
         y="3237"
         width="369"
         height="370"
         id="rect1115" />
    </clipPath>
    <clipPath
       id="clip20-5">
      <rect
         x="3539"
         y="3238"
         width="369"
         height="368"
         id="rect1118" />
    </clipPath>
    <clipPath
       id="clip21-16">
      <rect
         x="3539"
         y="3238"
         width="369"
         height="368"
         id="rect1121" />
    </clipPath>
    <clipPath
       id="clip22-3">
      <rect
         x="3539"
         y="3238"
         width="369"
         height="368"
         id="rect1124" />
    </clipPath>
    <clipPath
       id="clip23-3">
      <rect
         x="3334"
         y="3303"
         width="404"
         height="405"
         id="rect1127" />
    </clipPath>
    <clipPath
       id="clip24-3">
      <rect
         x="3334"
         y="3303"
         width="404"
         height="405"
         id="rect1130" />
    </clipPath>
    <clipPath
       id="clip25-7">
      <rect
         x="3334"
         y="3303"
         width="404"
         height="405"
         id="rect1133" />
    </clipPath>
  </defs>
  <sodipodi:namedview
     id="base"
     pagecolor="#ffffff"
     bordercolor="#666666"
     borderopacity="1.0"
     inkscape:pageopacity="0.0"
     inkscape:pageshadow="2"
     inkscape:zoom="0.175"
     inkscape:cx="2568.9263"
     inkscape:cy="84.665075"
     inkscape:document-units="mm"
     inkscape:current-layer="layer1"
     inkscape:document-rotation="0"
     showgrid="false"
     inkscape:window-width="1920"
     inkscape:window-height="1018"
     inkscape:window-x="2993"
     inkscape:window-y="9"
     inkscape:window-maximized="1" />
  <metadata
     id="metadata5">
    <rdf:RDF>
      <cc:Work
         rdf:about="">
        <dc:format>image/svg+xml</dc:format>
        <dc:type
           rdf:resource="http://purl.org/dc/dcmitype/StillImage" />
        <dc:title></dc:title>
      </cc:Work>
    </rdf:RDF>
  </metadata>
  <g
     inkscape:label="Ebene 1"
     inkscape:groupmode="layer"
     id="layer1"
     transform="translate(609.44924,-58.531098)">
    <g
       clip-path="url(#clip0-1)"
       transform="matrix(0.26458333,0,0,0.26458333,-1121.1534,-525.06118)"
       id="g1346">
      <rect
         x="0"
         y="0"
         width="1006"
         height="1026"
         fill="url(#fill1)"
         transform="matrix(-1,0,0,1,2940,2532)"
         id="rect1138"
         style="fill:url(#fill1-5)" />
      <path
         d="M 2944.3,2533 H 2626"
         stroke="#7f7f7f"
         stroke-width="16"
         stroke-miterlimit="8"
         fill="none"
         fill-rule="evenodd"
         id="path1140" />
      <path
         d="m 2937,2530 v 724.03"
         stroke="#7f7f7f"
         stroke-width="16"
         stroke-miterlimit="8"
         fill="none"
         fill-rule="evenodd"
         id="path1142" />
      <path
         d="M 0,879.5 C 0,393.766 393.766,0 879.5,0 1365.23,0 1759,393.766 1759,879.5 1759,1365.23 1365.23,1759 879.5,1759 393.766,1759 0,1365.23 0,879.5 Z"
         fill="#d9d9d9"
         fill-rule="evenodd"
         transform="matrix(-1,0,0,1,4426,2726)"
         id="path1144" />
      <text
         fill="#ffffff"
         font-family="Calibri, Calibri_MSFontService, sans-serif"
         font-weight="400"
         font-size="96px"
         transform="translate(3498.01,3638)"
         id="text1150">21<tspan
   fill="#7f7f7f"
   font-size="107px"
   x="-1163.42"
   y="-1009"
   id="tspan1146">Management</tspan><tspan
   fill="#7f7f7f"
   font-size="107px"
   x="-1146.85"
   y="-881"
   id="tspan1148">Coordination</tspan></text>
      <path
         d="M 0,712 C 0,318.773 318.773,0 712,0 c 393.23,0 712,318.773 712,712 0,393.23 -318.77,712 -712,712 C 318.773,1424 0,1105.23 0,712 Z"
         fill="#88dcca"
         fill-rule="evenodd"
         transform="matrix(-1,0,0,1,4259,2894)"
         id="path1152" />
      <path
         d="m 3491.12,2897.99 c 392.39,-29.3 734.39,263.05 763.88,652.96 3.27,43.22 2.53,86.64 -2.19,129.72"
         stroke="#ffc000"
         stroke-width="16"
         stroke-miterlimit="8"
         fill="none"
         fill-rule="evenodd"
         id="path1154" />
      <path
         d="m 3610.93,4311.29 c -391.99,34.09 -737.71,-252.47 -772.19,-640.05 -4.1,-46.07 -3.6,-92.43 1.49,-138.4"
         stroke="#0bb5dd"
         stroke-width="16"
         stroke-miterlimit="8"
         fill="none"
         fill-rule="evenodd"
         id="path1156" />
      <path
         d="m 3246,2923 c 0,-65.72 53.73,-119 120,-119 66.27,0 120,53.28 120,119 0,65.72 -53.73,119 -120,119 -66.27,0 -120,-53.28 -120,-119 z"
         stroke="#ffc000"
         stroke-width="16"
         stroke-miterlimit="8"
         fill="#ffe9a3"
         fill-rule="evenodd"
         id="path1158" />
      <path
         d="m 3921,3099.5 c 0,-66 53.73,-119.5 120,-119.5 66.27,0 120,53.5 120,119.5 0,66 -53.73,119.5 -120,119.5 -66.27,0 -120,-53.5 -120,-119.5 z"
         stroke="#ffc000"
         stroke-width="16"
         stroke-miterlimit="8"
         fill="#ffe9a3"
         fill-rule="evenodd"
         id="path1160" />
      <path
         d="m 4113,3792 c 0,-65.72 53.95,-119 120.5,-119 66.55,0 120.5,53.28 120.5,119 0,65.72 -53.95,119 -120.5,119 -66.55,0 -120.5,-53.28 -120.5,-119 z"
         stroke="#ffc000"
         stroke-width="16"
         stroke-miterlimit="8"
         fill="#ffe9a3"
         fill-rule="evenodd"
         id="path1162" />
      <path
         d="m 3609,4288.5 c 0,-66 53.73,-119.5 120,-119.5 66.27,0 120,53.5 120,119.5 0,66 -53.73,119.5 -120,119.5 -66.27,0 -120,-53.5 -120,-119.5 z"
         stroke="#0bb5dd"
         stroke-width="16"
         stroke-miterlimit="8"
         fill="#d7f6fd"
         fill-rule="evenodd"
         id="path1164" />
      <path
         d="m 2916,4090.5 c 0,-66 53.95,-119.5 120.5,-119.5 66.55,0 120.5,53.5 120.5,119.5 0,66 -53.95,119.5 -120.5,119.5 -66.55,0 -120.5,-53.5 -120.5,-119.5 z"
         stroke="#0bb5dd"
         stroke-width="16"
         stroke-miterlimit="8"
         fill="#d7f6fd"
         fill-rule="evenodd"
         id="path1166" />
      <path
         d="m 2744,3424.5 c 0,-66 53.73,-119.5 120,-119.5 66.27,0 120,53.5 120,119.5 0,66 -53.73,119.5 -120,119.5 -66.27,0 -120,-53.5 -120,-119.5 z"
         stroke="#0bb5dd"
         stroke-width="16"
         stroke-miterlimit="8"
         fill="#d7f6fd"
         fill-rule="evenodd"
         id="path1168" />
      <g
         clip-path="url(#clip2-1)"
         id="g1190">
        <g
           clip-path="url(#clip3-0)"
           id="g1188">
          <g
             clip-path="url(#clip4-8)"
             id="g1186">
            <path
               d="m 91.2031,147.062 c -1.0157,0 -2.2344,-0.203 -3.0469,-1.015 -1.625,-1.422 -1.8281,-4.063 -0.4063,-5.688 l 7.9219,-9.14 c 1.4219,-1.625 4.0625,-1.828 5.6872,-0.407 1.625,1.422 1.828,4.063 0.407,5.688 l -7.9223,9.141 c -0.6094,0.812 -1.625,1.218 -2.6406,1.421 z"
               fill="#0bb5dd"
               transform="matrix(1.01026,0,0,1,3630,4191)"
               id="path1170" />
            <path
               d="m 78.8125,142.391 c -1.4219,0.203 -2.6407,-0.204 -3.8594,-1.219 -2.0313,-1.828 -2.2344,-5.078 -0.4063,-7.11 l 9.3438,-10.765 c 1.8281,-2.031 5.0781,-2.235 7.1093,-0.406 2.0313,1.828 2.2344,5.078 0.4063,7.109 l -9.3437,10.766 c -0.8125,1.015 -2.0313,1.625 -3.25,1.625 z"
               fill="#0bb5dd"
               transform="matrix(1.01026,0,0,1,3630,4191)"
               id="path1172" />
            <path
               d="m 66.0156,134.875 c -1.625,0.203 -3.25,-0.406 -4.4688,-1.422 -2.4375,-2.234 -2.8437,-6.094 -0.6093,-8.531 l 9.3437,-10.766 c 2.2344,-2.437 6.0938,-2.844 8.5313,-0.609 2.4375,2.234 2.8437,6.094 0.6093,8.531 l -9.3437,10.766 c -1.0156,1.218 -2.6406,2.031 -4.0625,2.031 z"
               fill="#0bb5dd"
               transform="matrix(1.01026,0,0,1,3630,4191)"
               id="path1174" />
            <path
               d="m 51.1875,127.359 c -1.625,0.203 -3.25,-0.406 -4.4688,-1.422 -2.4375,-2.234 -2.8437,-6.093 -0.6094,-8.531 L 56.875,105.219 c 2.2343,-2.438 6.0937,-2.844 8.5312,-0.61 2.4375,2.235 2.8438,6.094 0.6094,8.532 L 55.25,125.328 c -1.2188,1.219 -2.6407,1.828 -4.0625,2.031 z"
               fill="#0bb5dd"
               transform="matrix(1.01026,0,0,1,3630,4191)"
               id="path1176" />
            <path
               d="m 9.34374,82.6718 15.64066,9.5469 c 1.8281,1.2187 4.4687,0.6094 5.4843,-1.4219 L 49.3593,59.5156 c 1.2188,-1.8281 0.6094,-4.4688 -1.4218,-5.4844 L 32.5,44.4843 Z"
               fill="#0bb5dd"
               transform="matrix(1.01026,0,0,1,3630,4191)"
               id="path1178" />
            <path
               d="M 140.969,109.281 108.266,81.25 106.031,79.2187 92.0156,95.2656 c -2.0313,2.4375 -4.875,3.8593 -8.125,4.0625 -0.4063,0 -0.8125,0 -1.0157,0 -3.0468,0 -5.8906,-1.0157 -7.9218,-3.0469 C 69.875,91.8124 69.4687,84.0937 73.7343,79.0156 L 85.7187,65.2031 C 76.375,63.9843 64.3906,68.8593 52,62.7656 l -17.6719,29.25 13.8125,16.0464 5.2812,-6.093 c 1.8282,-2.2347 4.6719,-3.4534 7.7188,-3.4534 v 0 c 2.4375,0 4.875,0.8125 6.7031,2.4374 2.2344,1.828 3.25,4.469 3.4531,7.313 1.0157,-0.407 2.2344,-0.61 3.4532,-0.61 2.4375,0 4.875,0.813 6.7031,2.438 2.2344,2.031 3.4531,4.672 3.4531,7.515 0.8125,-0.203 1.8281,-0.406 2.6406,-0.406 v 0 c 2.2344,0 4.2656,0.813 6.0938,2.234 1.8281,1.625 2.8437,3.86 3.0468,6.297 0.6094,-0.203 1.4219,-0.406 2.2344,-0.406 v 0 c 2.0312,0 3.8592,0.609 5.2812,2.031 1.625,1.422 2.641,3.453 2.844,5.485 0.203,2.234 -0.61,4.265 -2.031,5.89 l -6.9067,7.922 2.8437,2.235 c 1.422,0.812 3.047,1.421 4.875,1.218 4.469,-0.406 7.719,-4.265 7.313,-8.734 0,0 0,-0.203 0,-0.203 0.609,0.203 1.421,0.203 2.031,0.203 4.469,-0.406 7.719,-4.266 7.312,-8.734 0,0 0,-0.204 0,-0.204 0.61,0.204 1.422,0.204 2.032,0.204 4.468,-0.407 7.718,-4.266 7.312,-8.735 0,-0.406 -0.203,-0.812 -0.203,-1.219 1.219,0.61 2.641,1.016 4.266,0.813 4.468,-0.406 7.718,-4.266 7.312,-8.734 0.203,-2.235 -0.812,-4.063 -2.234,-5.485 z"
               fill="#0bb5dd"
               transform="matrix(1.01026,0,0,1,3630,4191)"
               id="path1180" />
            <path
               d="m 185.656,82.6718 -15.64,9.5469 c -1.829,1.2187 -4.469,0.6094 -5.485,-1.4219 l -18.89,-31.2812 c -1.219,-1.8281 -0.61,-4.4688 1.421,-5.4844 l 15.641,-9.5469 z"
               fill="#0bb5dd"
               transform="matrix(1.01026,0,0,1,3630,4191)"
               id="path1182" />
            <path
               d="m 143.203,63.5781 c -16.859,6.0937 -29.047,0.2031 -42.656,-2.4375 -0.203,0 -1.0158,-0.2031 -1.0158,-0.2031 -2.4375,-0.2032 -5.0781,0.6093 -6.9063,2.6406 L 76.5781,81.8593 c -3.0469,3.4531 -2.6406,8.5313 0.8125,11.375 1.8281,1.4219 3.8594,2.2344 6.0937,2.0313 2.0313,-0.2032 4.0625,-1.0157 5.4844,-2.8438 0,0 16.6563,-19.0937 16.6563,-19.0937 l 37.984,32.7029 v 0 0 c 1.016,1.016 1.422,1.422 2.235,2.641 l 14.625,-16.8596 z"
               fill="#0bb5dd"
               transform="matrix(1.01026,0,0,1,3630,4191)"
               id="path1184" />
          </g>
        </g>
      </g>
      <g
         clip-path="url(#clip5-4)"
         id="g1214">
        <g
           clip-path="url(#clip6-7)"
           id="g1212">
          <g
             clip-path="url(#clip7-7)"
             id="g1210">
            <path
               d="m 2999.26,4039.85 h 74.48 v 101.3 h -74.48 z m -8.94,110.23 h 92.36 v -119.16 h -92.36 z"
               fill="#0bb5dd"
               id="path1192" />
            <path
               d="m 3039.48,4053.26 h 25.32 v 5.96 h -25.32 z"
               fill="#0bb5dd"
               id="path1194" />
            <path
               d="m 3039.48,4077.09 h 25.32 v 5.96 h -25.32 z"
               fill="#0bb5dd"
               id="path1196" />
            <path
               d="m 3039.48,4124.76 h 25.32 v 5.96 h -25.32 z"
               fill="#0bb5dd"
               id="path1198" />
            <path
               d="m 3039.48,4100.93 h 25.32 v 5.96 h -25.32 z"
               fill="#0bb5dd"
               id="path1200" />
            <path
               d="m 3030.24,4049.98 -4.17,-4.17 -9.83,9.83 -3.87,-3.87 -4.17,4.17 8.04,8.05 z"
               fill="#0bb5dd"
               id="path1202" />
            <path
               d="m 3030.24,4073.82 -4.17,-4.17 -9.83,9.83 -3.87,-3.88 -4.17,4.17 8.04,8.05 z"
               fill="#0bb5dd"
               id="path1204" />
            <path
               d="m 3030.24,4097.65 -4.17,-4.17 -9.83,9.83 -3.87,-3.87 -4.17,4.17 8.04,8.04 z"
               fill="#0bb5dd"
               id="path1206" />
            <path
               d="m 3030.24,4121.19 -4.17,-4.18 -9.83,9.84 -3.87,-3.88 -4.17,4.17 8.04,8.05 z"
               fill="#0bb5dd"
               id="path1208" />
          </g>
        </g>
      </g>
      <g
         clip-path="url(#clip8-77)"
         id="g1234">
        <g
           clip-path="url(#clip9-0)"
           id="g1232">
          <g
             clip-path="url(#clip10-4)"
             id="g1230">
            <path
               d="m 111.533,81.8507 c 0,6.2213 -5.043,11.2647 -11.265,11.2647 -6.2212,0 -11.2646,-5.0434 -11.2646,-11.2647 0,-6.2214 5.0434,-11.2648 11.2646,-11.2648 6.222,0 11.265,5.0434 11.265,11.2648 z"
               fill="#0bb5dd"
               transform="matrix(1.0072,0,0,1,2794,3355)"
               id="path1216" />
            <path
               d="m 51.4589,81.8507 c 0,6.2213 -5.0434,11.2647 -11.2648,11.2647 -6.2213,0 -11.2647,-5.0434 -11.2647,-11.2647 0,-6.2214 5.0434,-11.2648 11.2647,-11.2648 6.2214,0 11.2648,5.0434 11.2648,11.2648 z"
               fill="#0bb5dd"
               transform="matrix(1.0072,0,0,1,2794,3355)"
               id="path1218" />
            <path
               d="m 120.553,102.874 c -3.25,-2.527 -7.009,-4.3202 -11.018,-5.2555 -3.014,-0.8804 -6.128,-1.3672 -9.267,-1.448 -3.1408,-0.007 -6.2634,0.4816 -9.252,1.448 -2.991,0.7963 -5.8495,2.0256 -8.4848,3.6485 l -0.5213,0.594 c 4.2097,1.136 8.1485,3.106 11.5834,5.792 2.6997,1.983 4.2746,5.149 4.2279,8.499 v 2.577 h 24.9768 v -11.337 c 0.049,-1.785 -0.792,-3.478 -2.245,-4.518 z"
               fill="#0bb5dd"
               transform="matrix(1.0072,0,0,1,2794,3355)"
               id="path1220" />
            <path
               d="m 42.6846,116.152 c 0.0023,-3.262 1.5023,-6.342 4.0686,-8.355 l 0.1593,-0.144 0.1882,-0.131 c 3.4756,-2.473 7.3218,-4.379 11.3951,-5.647 -0.2896,-0.304 -0.5647,-0.622 -0.8253,-0.941 -2.5689,-1.4922 -5.3385,-2.6088 -8.2242,-3.3155 -3.0088,-0.8792 -6.1186,-1.3659 -9.2522,-1.448 -3.1459,-0.0081 -6.2732,0.4806 -9.2666,1.448 -3.9533,1.0905 -7.6832,2.8695 -11.0187,5.2555 -1.4044,1.081 -2.2366,2.746 -2.2587,4.518 v 11.337 h 25.0345 z"
               fill="#0bb5dd"
               transform="matrix(1.0072,0,0,1,2794,3355)"
               id="path1222" />
            <path
               d="m 47.6943,127.417 v -11.265 c 0.0068,-1.772 0.8427,-3.438 2.2588,-4.503 3.3287,-2.398 7.0607,-4.178 11.0186,-5.256 2.9872,-0.973 6.1107,-1.462 9.2522,-1.448 3.1391,0.074 6.2547,0.561 9.2667,1.448 4.0137,0.923 7.7754,2.717 11.0186,5.256 1.4578,1.029 2.3052,2.719 2.2588,4.503 v 11.265 z"
               fill="#0bb5dd"
               transform="matrix(1.0072,0,0,1,2794,3355)"
               id="path1224" />
            <path
               d="m 81.4887,90.6106 c 0,6.2213 -5.0434,11.2644 -11.2648,11.2644 -6.2214,0 -11.2648,-5.0431 -11.2648,-11.2644 0,-6.2214 5.0434,-11.2648 11.2648,-11.2648 6.2214,0 11.2648,5.0434 11.2648,11.2648 z"
               fill="#0bb5dd"
               transform="matrix(1.0072,0,0,1,2794,3355)"
               id="path1226" />
            <path
               d="M 117.281,11.5833 H 23.5286 c -3.1986,0 -5.7916,2.593 -5.7916,5.7917 v 31.8541 c 0,3.1986 2.593,5.7917 5.7916,5.7917 h 21.3568 v 8.6875 l 9.1218,-8.6875 h 9.8459 l 5.6468,8.6875 5.2125,-8.6875 h 10.2802 l 9.1219,8.6875 v -8.6875 h 23.1665 c 3.199,0 5.792,-2.5931 5.792,-5.7917 V 17.375 c 0,-3.1987 -2.593,-5.7917 -5.792,-5.7917 z M 32.2161,24.6146 h 67.6901 v 2.8958 H 32.2161 Z M 85.427,41.9896 H 32.2161 V 39.0937 H 85.427 Z M 108.594,34.75 H 32.2161 v -2.8959 h 76.3779 z"
               fill="#0bb5dd"
               transform="matrix(1.0072,0,0,1,2794,3355)"
               id="path1228" />
          </g>
        </g>
      </g>
      <path
         d="m 3981.5,3038.58 c 0,-5.04 23.73,-9.08 52.5,-9.08 28.77,0 52.5,4.04 52.5,9.08 0,35.84 0,35.84 0,35.84 0,5.04 -23.73,9.08 -52.5,9.08 -28.77,0 -52.5,-4.04 -52.5,-9.08 z"
         stroke="#bc8c00"
         stroke-width="2.66667"
         stroke-miterlimit="8"
         fill="#ffc000"
         fill-rule="evenodd"
         id="path1236" />
      <path
         d="m 3981.5,3102.58 c 0,-5.04 23.73,-9.08 52.5,-9.08 28.77,0 52.5,4.04 52.5,9.08 0,35.84 0,35.84 0,35.84 0,5.04 -23.73,9.08 -52.5,9.08 -28.77,0 -52.5,-4.04 -52.5,-9.08 z"
         stroke="#bc8c00"
         stroke-width="2.66667"
         stroke-miterlimit="8"
         fill="#ffc000"
         fill-rule="evenodd"
         id="path1238" />
      <path
         d="m 4086.5,3102.5 c 0,4.5 -23.73,9 -52.5,9 -28.77,0 -52.5,-4.5 -52.5,-9"
         stroke="#bc8c00"
         stroke-width="2.66667"
         stroke-miterlimit="8"
         fill="#ffc000"
         fill-rule="evenodd"
         id="path1240" />
      <path
         d="m 3981.5,3102.58 c 0,-5.04 23.73,-9.08 52.5,-9.08 28.77,0 52.5,4.04 52.5,9.08 0,35.84 0,35.84 0,35.84 0,5.04 -23.73,9.08 -52.5,9.08 -28.77,0 -52.5,-4.04 -52.5,-9.08 z"
         stroke="#bc8c00"
         stroke-width="2.66667"
         stroke-miterlimit="8"
         fill="#ffc000"
         fill-rule="evenodd"
         id="path1242" />
      <path
         d="m 3981.5,3070.5 c 0,-5 23.73,-9 52.5,-9 28.77,0 52.5,4 52.5,9 0,36 0,36 0,36 0,5 -23.73,9 -52.5,9 -28.77,0 -52.5,-4 -52.5,-9 z"
         stroke="#bc8c00"
         stroke-width="2.66667"
         stroke-miterlimit="8"
         fill="#ffc000"
         fill-rule="evenodd"
         id="path1244" />
      <path
         d="m 4086.5,3070.5 c 0,5 -23.73,9 -52.5,9 -28.77,0 -52.5,-4 -52.5,-9"
         stroke="#bc8c00"
         stroke-width="2.66667"
         stroke-miterlimit="8"
         fill="#ffc000"
         fill-rule="evenodd"
         id="path1246" />
      <path
         d="m 3981.5,3070.5 c 0,-5 23.73,-9 52.5,-9 28.77,0 52.5,4 52.5,9 0,36 0,36 0,36 0,5 -23.73,9 -52.5,9 -28.77,0 -52.5,-4 -52.5,-9 z"
         stroke="#bc8c00"
         stroke-width="2.66667"
         stroke-miterlimit="8"
         fill="#ffc000"
         fill-rule="evenodd"
         id="path1248" />
      <path
         d="m 3981.5,3038.58 c 0,-5.04 23.73,-9.08 52.5,-9.08 28.77,0 52.5,4.04 52.5,9.08 0,35.84 0,35.84 0,35.84 0,5.04 -23.73,9.08 -52.5,9.08 -28.77,0 -52.5,-4.04 -52.5,-9.08 z"
         stroke="#bc8c00"
         stroke-width="2.66667"
         stroke-miterlimit="8"
         fill="#ffc000"
         fill-rule="evenodd"
         id="path1250" />
      <path
         d="m 4086.5,3038.5 c 0,5 -23.73,9 -52.5,9 -28.77,0 -52.5,-4 -52.5,-9"
         stroke="#bc8c00"
         stroke-width="2.66667"
         stroke-miterlimit="8"
         fill="#ffc000"
         fill-rule="evenodd"
         id="path1252" />
      <g
         clip-path="url(#clip11-1)"
         id="g1264">
        <g
           clip-path="url(#clip12-4)"
           id="g1262">
          <g
             clip-path="url(#clip13-96)"
             id="g1260">
            <path
               d="m 4093.35,3132.73 -8.91,8.91 -8.92,-8.91 h 4.98 c -1.69,-3.28 -5.06,-5.34 -8.75,-5.35 -2.38,0.01 -4.67,0.88 -6.45,2.46 h -9.06 c 4.04,-8.57 14.26,-12.25 22.84,-8.21 4.57,2.15 7.97,6.22 9.27,11.1 z"
               stroke="#bc8c00"
               stroke-width="3.52"
               fill="#ffc000"
               id="path1254" />
            <path
               d="m 4050.21,3141.64 8.92,-8.91 8.91,8.91 h -5.02 c 1.68,3.28 5.05,5.34 8.73,5.35 2.39,0 4.69,-0.88 6.47,-2.46 h 9.1 c -4.05,8.58 -14.29,12.26 -22.88,8.21 -4.57,-2.15 -7.96,-6.21 -9.27,-11.1 z"
               stroke="#bc8c00"
               stroke-width="3.52"
               fill="#ffc000"
               id="path1256" />
            <path
               d="m 4114.25,3169.5 c 11.88,-0.28 21.27,-10.13 20.99,-22.01 -0.24,-10.47 -8.01,-19.25 -18.37,-20.77 -1.1,-6.72 -4.79,-12.74 -10.29,-16.77 -5.69,-4.03 -12.79,-5.53 -19.62,-4.13 -6.72,-10.37 -19.25,-15.38 -31.27,-12.5 -11.71,3.02 -20.46,12.78 -22.19,24.75 -7.8,0.21 -15.08,3.99 -19.75,10.25 -5.52,7.68 -6.53,17.72 -2.64,26.34 3.97,8.5 12.28,14.14 21.65,14.69 z m -81.12,-8.69 c -6.22,-0.39 -11.74,-4.14 -14.4,-9.78 -2.58,-5.74 -1.91,-12.43 1.75,-17.55 3.74,-5.04 9.97,-7.58 16.17,-6.6 l 4.88,0.81 v -5.39 c 0.05,-9.74 6.67,-18.22 16.1,-20.63 9.47,-2.28 19.26,2.28 23.6,11 l 1.66,3.32 3.45,-1.23 c 5.17,-1.82 10.89,-1.02 15.36,2.15 4.44,3.25 7.07,8.42 7.08,13.92 v 4.29 h 5.61 c 7.13,0.27 12.69,6.27 12.42,13.39 -0.26,6.8 -5.75,12.24 -12.56,12.42 z"
               stroke="#bc8c00"
               stroke-width="3.52"
               fill="#ffc000"
               id="path1258" />
          </g>
        </g>
      </g>
      <g
         clip-path="url(#clip14-9)"
         id="g1274">
        <g
           clip-path="url(#clip15-55)"
           id="g1272">
          <g
             clip-path="url(#clip16-2)"
             id="g1270">
            <path
               d="m 111.188,69.9375 c -7.876,0 -14.063,-6.375 -14.063,-14.0625 0,-7.6875 6.375,-14.0625 14.063,-14.0625 7.874,0 14.062,6.375 14.062,14.0625 0,7.6875 -6.375,14.0625 -14.062,14.0625 z m 31.687,-22.875 c -0.75,-2.625 -1.687,-5.0625 -3,-7.3125 l 3,-8.8125 -6.75,-6.75 -8.813,3 c -2.25,-1.3125 -4.687,-2.25 -7.312,-3 l -4.125,-8.25 H 106.5 l -4.125,8.25 c -2.625,0.75 -5.0625,1.6875 -7.3125,3 l -8.8125,-3 -6.75,6.75 3,8.8125 c -1.3125,2.25 -2.25,4.6875 -3,7.3125 l -8.25,4.125 v 9.375 l 8.25,4.125 c 0.75,2.625 1.6875,5.0625 3,7.3125 l -3,8.8125 6.5625,6.5625 8.8125,-3 c 2.25,1.3125 4.6875,2.25 7.313,3 l 4.124,8.25 h 9.376 l 4.124,-8.25 c 2.626,-0.75 5.063,-1.6875 7.313,-3 l 8.813,3 6.75,-6.5625 -3,-8.8125 c 1.312,-2.25 2.437,-4.875 3.187,-7.3125 l 8.25,-4.125 v -9.375 z"
               stroke="#bc8c00"
               stroke-width="3.52941"
               fill="#ffc000"
               transform="matrix(1.01111,0,0,1,3275,2833)"
               id="path1266" />
            <path
               d="m 68.8125,138.188 c -7.875,0 -14.0625,-6.376 -14.0625,-14.063 0,-7.875 6.375,-14.063 14.0625,-14.063 7.875,0 14.0625,6.376 14.0625,14.063 0,7.687 -6.1875,14.063 -14.0625,14.063 z M 97.5,108 l 3,-8.8125 -6.75,-6.75 -8.8125,3 c -2.25,-1.3125 -4.875,-2.25 -7.3125,-3 L 73.5,84.1875 H 64.125 L 60,92.4375 c -2.625,0.75 -5.0625,1.6875 -7.3125,3 l -8.8125,-3 -6.5625,6.5625 2.8125,8.812 c -1.3125,2.25 -2.25,4.876 -3,7.313 l -8.25,4.125 v 9.375 l 8.25,4.125 c 0.75,2.625 1.6875,5.062 3,7.312 l -2.8125,8.813 6.5625,6.563 8.8125,-2.813 c 2.25,1.313 4.6875,2.25 7.3125,3 l 4.125,8.25 H 73.5 l 4.125,-8.25 c 2.625,-0.75 5.0625,-1.687 7.3125,-3 l 8.8125,3 6.562,-6.75 -2.812,-8.625 c 1.3125,-2.25 2.25,-4.688 3,-7.312 l 8.25,-4.126 v -9.374 l -8.25,-4.126 c -0.75,-2.624 -1.6875,-5.062 -3,-7.312 z"
               stroke="#bc8c00"
               stroke-width="3.52941"
               fill="#ffc000"
               transform="matrix(1.01111,0,0,1,3275,2833)"
               id="path1268" />
          </g>
        </g>
      </g>
      <path
         d="m 4228.5,3825.5 h 11 v 13 h -11 z"
         stroke="#bc8c00"
         stroke-width="2.66667"
         stroke-miterlimit="8"
         fill="#ffc000"
         fill-rule="evenodd"
         id="path1276" />
      <path
         d="m 4228.5,3845.5 h 11 v 11 h -11 z"
         stroke="#bc8c00"
         stroke-width="2.66667"
         stroke-miterlimit="8"
         fill="#ffc000"
         fill-rule="evenodd"
         id="path1278" />
      <path
         d="m 4247.5,3845.5 h 54 v 11 h -54 z"
         stroke="#bc8c00"
         stroke-width="2.66667"
         stroke-miterlimit="8"
         fill="#ffc000"
         fill-rule="evenodd"
         id="path1280" />
      <path
         d="m 4166.5,3845.5 h 54 v 11 h -54 z"
         stroke="#bc8c00"
         stroke-width="2.66667"
         stroke-miterlimit="8"
         fill="#ffc000"
         fill-rule="evenodd"
         id="path1282" />
      <path
         d="m 4287.79,3797.5 h -106.58 c -3.7,0 -6.71,2.8 -6.71,6.27 v 15.47 c 0,3.46 3.01,6.26 6.71,6.26 h 106.58 c 3.7,0 6.71,-2.8 6.71,-6.26 v -15.47 c 0,-3.47 -3.01,-6.27 -6.71,-6.27 z m -94.54,17.5 c -2.07,0 -3.75,-1.57 -3.75,-3.5 0,-1.93 1.68,-3.5 3.75,-3.5 2.07,0 3.75,1.57 3.75,3.5 0,1.93 -1.68,3.5 -3.75,3.5 z m 18.75,0 c -2.07,0 -3.75,-1.57 -3.75,-3.5 0,-1.93 1.68,-3.5 3.75,-3.5 2.07,0 3.75,1.57 3.75,3.5 0,1.93 -1.68,3.5 -3.75,3.5 z m 18.75,0 c -2.07,0 -3.75,-1.57 -3.75,-3.5 0,-1.93 1.68,-3.5 3.75,-3.5 2.07,0 3.75,1.57 3.75,3.5 0,1.93 -1.68,3.5 -3.75,3.5 z"
         stroke="#bc8c00"
         stroke-width="2.66667"
         stroke-miterlimit="8"
         fill="#ffc000"
         fill-rule="evenodd"
         id="path1284" />
      <path
         d="m 4287.79,3763.5 h -106.58 c -3.7,0 -6.71,2.7 -6.71,6.04 v 14.92 c 0,3.34 3.01,6.04 6.71,6.04 h 106.58 c 3.7,0 6.71,-2.7 6.71,-6.04 v -14.92 c 0,-3.34 -3.01,-6.04 -6.71,-6.04 z m -94.54,16.88 c -2.07,0 -3.75,-1.52 -3.75,-3.38 0,-1.86 1.68,-3.38 3.75,-3.38 2.07,0 3.75,1.52 3.75,3.38 0,1.86 -1.68,3.38 -3.75,3.38 z m 18.75,0 c -2.07,0 -3.75,-1.52 -3.75,-3.38 0,-1.86 1.68,-3.38 3.75,-3.38 2.07,0 3.75,1.52 3.75,3.38 0,1.86 -1.68,3.38 -3.75,3.38 z m 18.75,0 c -2.07,0 -3.75,-1.52 -3.75,-3.38 0,-1.86 1.68,-3.38 3.75,-3.38 2.07,0 3.75,1.52 3.75,3.38 0,1.86 -1.68,3.38 -3.75,3.38 z"
         stroke="#bc8c00"
         stroke-width="2.66667"
         stroke-miterlimit="8"
         fill="#ffc000"
         fill-rule="evenodd"
         id="path1286" />
      <path
         d="m 4287.79,3728.5 h -106.58 c -3.7,0 -6.71,2.8 -6.71,6.27 v 15.47 c 0,3.46 3.01,6.26 6.71,6.26 h 106.58 c 3.7,0 6.71,-2.8 6.71,-6.26 v -15.47 c 0,-3.47 -3.01,-6.27 -6.71,-6.27 z m -94.54,17.5 c -2.07,0 -3.75,-1.57 -3.75,-3.5 0,-1.93 1.68,-3.5 3.75,-3.5 2.07,0 3.75,1.57 3.75,3.5 0,1.93 -1.68,3.5 -3.75,3.5 z m 18.75,0 c -2.07,0 -3.75,-1.57 -3.75,-3.5 0,-1.93 1.68,-3.5 3.75,-3.5 2.07,0 3.75,1.57 3.75,3.5 0,1.93 -1.68,3.5 -3.75,3.5 z m 18.75,0 c -2.07,0 -3.75,-1.57 -3.75,-3.5 0,-1.93 1.68,-3.5 3.75,-3.5 2.07,0 3.75,1.57 3.75,3.5 0,1.93 -1.68,3.5 -3.75,3.5 z"
         stroke="#bc8c00"
         stroke-width="2.66667"
         stroke-miterlimit="8"
         fill="#ffc000"
         fill-rule="evenodd"
         id="path1288" />
      <path
         d="m 3140.5,3606 c 0,-224.5 182,-406.5 406.5,-406.5 224.5,0 406.5,182 406.5,406.5 0,224.5 -182,406.5 -406.5,406.5 -224.5,0 -406.5,-182 -406.5,-406.5 z"
         stroke="#0684a2"
         stroke-width="2.66667"
         stroke-miterlimit="8"
         fill="#0bb5dd"
         fill-rule="evenodd"
         id="path1290" />
      <g
         clip-path="url(#clip17-0)"
         id="g1300">
        <g
           clip-path="url(#clip18-8)"
           id="g1298">
          <g
             clip-path="url(#clip19-6)"
             id="g1296">
            <path
               d="m 246,115.312 c 0,33.966 -27.535,61.5 -61.5,61.5 -33.966,0 -61.5,-27.534 -61.5,-61.5 0,-33.965 27.534,-61.4995 61.5,-61.4995 33.965,0 61.5,27.5345 61.5,61.4995 z"
               fill="#2d3e50"
               transform="matrix(-1,0,0,1,3580,3237)"
               id="path1292" />
            <path
               d="m 307.5,315.187 v -61.5 c 0,-9.225 -4.613,-18.45 -12.3,-24.6 -16.913,-13.837 -38.438,-23.062 -59.963,-29.212 -15.375,-4.613 -32.287,-7.688 -50.737,-7.688 -16.913,0 -33.825,3.075 -50.738,7.688 -21.525,6.15 -43.0495,16.912 -59.962,29.212 -7.6875,6.15 -12.3,15.375 -12.3,24.6 v 61.5 z"
               fill="#2d3e50"
               transform="matrix(-1,0,0,1,3580,3237)"
               id="path1294" />
          </g>
        </g>
      </g>
      <g
         clip-path="url(#clip20-5)"
         id="g1324">
        <g
           clip-path="url(#clip21-16)"
           id="g1322">
          <g
             clip-path="url(#clip22-3)"
             id="g1320">
            <path
               d="m 245.333,115 c 0,33.873 -27.46,61.333 -61.333,61.333 -33.873,0 -61.333,-27.46 -61.333,-61.333 0,-33.8735 27.46,-61.3333 61.333,-61.3333 33.873,0 61.333,27.4598 61.333,61.3333 z"
               fill="#2d3e50"
               transform="matrix(-1.00272,0,0,1,3908,3238)"
               id="path1302" />
            <path
               d="M 117.3,312.8 92,255.683 v -38.716 c 0,-4.6 2.6833,-9.2 6.5167,-11.5 2.3003,-1.15 3.0663,-3.834 1.9163,-5.75 -0.7663,-1.534 -2.2997,-2.684 -4.2163,-2.3 h -43.7 c -2.3,0 -4.6,1.533 -4.6,4.216 0,1.917 0.7666,3.45 2.3,4.217 4.2166,2.3 6.5166,6.9 6.5166,11.5 v 38.717 L 31.8167,312.8 c -3.0667,6.517 0,14.567 6.9,17.25 1.5333,0.767 3.45,1.15 5.3666,1.15 h 61.3337 c 7.283,0 13.033,-5.75 13.033,-13.033 0,-1.917 -0.383,-3.834 -1.15,-5.367 z M 65.9333,225.783 v -8.816 c 0,-3.834 -0.7666,-7.667 -3.0666,-11.117 H 86.25 c -1.9167,3.45 -3.0667,7.283 -3.0667,11.117 v 8.816 z"
               fill="#2d3e50"
               transform="matrix(-1.00272,0,0,1,3908,3238)"
               id="path1304" />
            <path
               d="m 85.4833,144.517 c 0,3.599 -2.9176,6.516 -6.5166,6.516 -3.5991,0 -6.5167,-2.917 -6.5167,-6.516 0,-3.599 2.9176,-6.517 6.5167,-6.517 3.599,0 6.5166,2.918 6.5166,6.517 z"
               fill="#2d3e50"
               transform="matrix(-1.00272,0,0,1,3908,3238)"
               id="path1306" />
            <path
               d="m 96.6,164.45 c 0,3.599 -2.9176,6.517 -6.5167,6.517 -3.599,0 -6.5166,-2.918 -6.5166,-6.517 0,-3.599 2.9176,-6.517 6.5166,-6.517 3.5991,0 6.5167,2.918 6.5167,6.517 z"
               fill="#2d3e50"
               transform="matrix(-1.00272,0,0,1,3908,3238)"
               id="path1308" />
            <path
               d="m 72.45,159.85 c 0,3.599 -2.9176,6.517 -6.5167,6.517 -3.599,0 -6.5166,-2.918 -6.5166,-6.517 0,-3.599 2.9176,-6.517 6.5166,-6.517 3.5991,0 6.5167,2.918 6.5167,6.517 z"
               fill="#2d3e50"
               transform="matrix(-1.00272,0,0,1,3908,3238)"
               id="path1310" />
            <path
               d="m 78.9667,184 c 0,4.869 -3.9474,8.817 -8.8167,8.817 -4.8693,0 -8.8167,-3.948 -8.8167,-8.817 0,-4.869 3.9474,-8.817 8.8167,-8.817 4.8693,0 8.8167,3.948 8.8167,8.817 z"
               fill="#2d3e50"
               transform="matrix(-1.00272,0,0,1,3908,3238)"
               id="path1312" />
            <path
               d="m 164.833,279.45 -27.6,-29.133 15.334,-19.167 v -0.383 l -23.384,2.3 0.767,-32.584 c -9.2,3.067 -18.4,6.517 -27.217,10.734 -1.533,1.533 -2.683,3.833 -3.0663,6.133 v 36.8 L 124.2,309.733 c 0.767,1.534 1.15,3.067 1.533,4.6 h 39.1 z"
               fill="#2d3e50"
               transform="matrix(-1.00272,0,0,1,3908,3238)"
               id="path1314" />
            <path
               d="m 172.5,276 v 38.333 h 23 V 276 l 27.6,-79.733 c -13.033,-3.067 -26.067,-4.6 -39.1,-4.6 -13.033,0 -26.067,1.533 -38.717,4.6 z"
               fill="#2d3e50"
               transform="matrix(-1.00272,0,0,1,3908,3238)"
               id="path1316" />
            <path
               d="m 294.4,228.467 c -16.867,-13.034 -36.033,-22.234 -56.35,-27.984 l 0.767,32.584 -23.384,-2.3 v 0.383 l 15.334,19.167 -27.6,29.133 v 34.883 h 103.5 V 253 c -0.384,-9.583 -4.6,-18.783 -12.267,-24.533 z"
               fill="#2d3e50"
               transform="matrix(-1.00272,0,0,1,3908,3238)"
               id="path1318" />
          </g>
        </g>
      </g>
      <g
         clip-path="url(#clip23-3)"
         id="g1334">
        <g
           clip-path="url(#clip24-3)"
           id="g1332">
          <g
             clip-path="url(#clip25-7)"
             id="g1330">
            <path
               d="m 269.333,126.25 c 0,37.187 -30.146,67.333 -67.333,67.333 -37.187,0 -67.333,-30.146 -67.333,-67.333 0,-37.1872 30.146,-67.3333 67.333,-67.3333 37.187,0 67.333,30.1461 67.333,67.3333 z"
               fill="#2d3e50"
               transform="matrix(-1,0,0,1,3738,3303)"
               id="path1326" />
            <path
               d="M 336.667,345.083 V 277.75 c 0,-10.1 -5.05,-20.2 -13.467,-26.933 -18.517,-15.15 -42.083,-25.25 -65.65,-31.984 -16.833,-5.05 -35.35,-8.416 -55.55,-8.416 -18.517,0 -37.033,3.366 -55.55,8.416 -23.567,6.734 -47.1333,18.517 -65.65,31.984 -8.4167,6.733 -13.4667,16.833 -13.4667,26.933 v 67.333 z"
               fill="#2d3e50"
               transform="matrix(-1,0,0,1,3738,3303)"
               id="path1328" />
          </g>
        </g>
      </g>
      <text
         fill="#2d3e50"
         font-family="Calibri, Calibri_MSFontService, sans-serif"
         font-weight="400"
         font-size="107px"
         transform="translate(3360.99,3739)"
         id="text1344">research<tspan
   font-size="107px"
   x="-60.040001"
   y="128"
   id="tspan1336">community</tspan><tspan
   fill="#808080"
   font-weight="700"
   font-size="96px"
   x="-674.492"
   y="-1243"
   id="tspan1338">TA IV</tspan><tspan
   fill="#7f7f7f"
   font-style="italic"
   font-size="96px"
   x="-750.52899"
   y="-1468"
   id="tspan1340">Dr. Dirk</tspan><tspan
   fill="#7f7f7f"
   font-style="italic"
   font-size="96px"
   x="-1092.8"
   y="-1353"
   id="tspan1342">von Suchodoletz</tspan></text>
    </g>
  </g>
</svg>
