<?xml version="1.0" encoding="UTF-8" standalone="no"?>
<svg
   xmlns:dc="http://purl.org/dc/elements/1.1/"
   xmlns:cc="http://creativecommons.org/ns#"
   xmlns:rdf="http://www.w3.org/1999/02/22-rdf-syntax-ns#"
   xmlns:svg="http://www.w3.org/2000/svg"
   xmlns="http://www.w3.org/2000/svg"
   width="323.03748mm"
   height="112.09065mm"
   viewBox="0 0 323.03748 112.09065"
   version="1.1"
   id="svg8">
  <defs
     id="defs2">
    <clipPath
       id="clip0">
      <rect
         x="35"
         y="239"
         width="1243"
         height="453"
         id="rect10" />
    </clipPath>
    <clipPath
       id="clip1">
      <rect
         x="384"
         y="239"
         width="77"
         height="76"
         id="rect13" />
    </clipPath>
    <clipPath
       id="clip2">
      <rect
         x="384"
         y="239"
         width="77"
         height="76"
         id="rect16" />
    </clipPath>
    <clipPath
       id="clip3">
      <rect
         x="384"
         y="239"
         width="77"
         height="76"
         id="rect19" />
    </clipPath>
    <clipPath
       id="clip4">
      <rect
         x="385"
         y="365"
         width="75"
         height="75"
         id="rect22" />
    </clipPath>
    <clipPath
       id="clip5">
      <rect
         x="385"
         y="365"
         width="75"
         height="75"
         id="rect25" />
    </clipPath>
    <clipPath
       id="clip6">
      <rect
         x="385"
         y="365"
         width="75"
         height="75"
         id="rect28" />
    </clipPath>
    <clipPath
       id="clip7">
      <rect
         x="384"
         y="488"
         width="76"
         height="75"
         id="rect31" />
    </clipPath>
    <clipPath
       id="clip8">
      <rect
         x="384"
         y="488"
         width="76"
         height="75"
         id="rect34" />
    </clipPath>
    <clipPath
       id="clip9">
      <rect
         x="384"
         y="488"
         width="76"
         height="75"
         id="rect37" />
    </clipPath>
    <clipPath
       id="clip10">
      <rect
         x="387"
         y="599"
         width="75"
         height="76"
         id="rect40" />
    </clipPath>
    <clipPath
       id="clip11">
      <rect
         x="387"
         y="599"
         width="75"
         height="76"
         id="rect43" />
    </clipPath>
    <clipPath
       id="clip12">
      <rect
         x="387"
         y="599"
         width="75"
         height="76"
         id="rect46" />
    </clipPath>
  </defs>
  <metadata
     id="metadata5">
    <rdf:RDF>
      <cc:Work
         rdf:about="">
        <dc:format>image/svg+xml</dc:format>
        <dc:type
           rdf:resource="http://purl.org/dc/dcmitype/StillImage" />
        <dc:title></dc:title>
      </cc:Work>
    </rdf:RDF>
  </metadata>
  <g
     id="layer1"
     transform="translate(129.01278,-46.008244)">
    <g
       clip-path="url(#clip0)"
       transform="matrix(0.25715339,0,0,0.25387705,-132.72145,-13.751013)"
       id="g233">
      <path
         d="m 504.089,258.041 h 13.641 c 0.109,0 0.215,0.031 0.316,0.093 0.102,0.063 0.192,0.164 0.27,0.305 0.078,0.141 0.132,0.324 0.164,0.551 0.031,0.226 0.047,0.488 0.047,0.785 0,0.297 -0.016,0.555 -0.047,0.773 -0.032,0.219 -0.086,0.395 -0.164,0.528 -0.078,0.133 -0.168,0.23 -0.27,0.293 -0.101,0.062 -0.207,0.093 -0.316,0.093 h -11.11 v 10.313 h 10.5 c 0.11,0 0.215,0.027 0.317,0.082 0.101,0.055 0.191,0.145 0.269,0.27 0.078,0.125 0.133,0.292 0.164,0.503 0.032,0.211 0.047,0.481 0.047,0.809 0,0.297 -0.015,0.551 -0.047,0.762 -0.031,0.211 -0.086,0.383 -0.164,0.515 -0.078,0.133 -0.168,0.235 -0.269,0.305 -0.102,0.07 -0.207,0.106 -0.317,0.106 h -10.5 v 12.632 c 0,0.11 -0.031,0.215 -0.093,0.317 -0.063,0.101 -0.172,0.179 -0.328,0.234 -0.157,0.055 -0.36,0.102 -0.61,0.141 -0.25,0.039 -0.578,0.058 -0.984,0.058 -0.375,0 -0.696,-0.019 -0.961,-0.058 -0.266,-0.039 -0.477,-0.086 -0.633,-0.141 -0.156,-0.055 -0.266,-0.133 -0.328,-0.234 -0.063,-0.102 -0.094,-0.207 -0.094,-0.317 v -28.078 c 0,-0.609 0.16,-1.035 0.481,-1.277 0.32,-0.242 0.66,-0.363 1.019,-0.363 z"
         stroke="#2d3e50"
         stroke-width="2"
         stroke-linejoin="round"
         stroke-miterlimit="10"
         fill="#ffffff"
         fill-rule="evenodd"
         id="path51" />
      <text
         fill="#000000"
         fill-opacity="0"
         font-family="Arial, Arial_MSFontService, sans-serif"
         font-size="30.4688px"
         x="502.58899"
         y="284.70099"
         id="text53">F</text>
      <text
         fill="#ffffff"
         font-family="Calibri, Calibri_MSFontService, sans-serif"
         font-weight="400"
         font-size="26px"
         transform="translate(520.558,288)"
         id="text77">INDABLE<tspan
   font-size="32px"
   x="90.626602"
   y="0"
   id="tspan55">:</tspan><tspan
   font-size="24px"
   x="170"
   y="0"
   id="tspan57">ARCs</tspan><tspan
   font-size="24px"
   x="224.287"
   y="0"
   id="tspan59">receive a DOI conferring uniqueness.</tspan><tspan
   font-size="24px"
   x="587.79999"
   y="0"
   id="tspan61">Additionally</tspan><tspan
   font-size="24px"
   x="702.91998"
   y="0"
   id="tspan63">,</tspan><tspan
   font-size="24px"
   x="170"
   y="35"
   id="tspan65">ARCs</tspan><tspan
   font-size="24px"
   x="224.287"
   y="35"
   id="tspan67">are completely</tspan><tspan
   font-size="24px"
   x="374.72"
   y="35"
   id="tspan69">machine</tspan><tspan
   font-size="24px"
   x="458.38699"
   y="35"
   id="tspan71">-</tspan><tspan
   font-size="24px"
   x="465.72"
   y="35"
   id="tspan73">readable</tspan><tspan
   font-size="24px"
   x="551.573"
   y="35"
   id="tspan75">.</tspan></text>
      <path
         d="m 512.222,364.072 -5.227,15.117 h 10.547 l -5.297,-15.117 z m 0.141,-4.172 c 0.5,0 0.914,0.012 1.242,0.035 0.328,0.024 0.593,0.067 0.797,0.129 0.203,0.063 0.359,0.152 0.468,0.27 0.11,0.117 0.196,0.261 0.258,0.433 l 10.172,28.172 c 0.125,0.344 0.191,0.621 0.199,0.832 0.008,0.211 -0.051,0.371 -0.176,0.481 -0.125,0.109 -0.332,0.179 -0.621,0.21 -0.289,0.032 -0.675,0.047 -1.16,0.047 -0.484,0 -0.871,-0.011 -1.16,-0.035 -0.289,-0.023 -0.508,-0.062 -0.656,-0.117 -0.149,-0.055 -0.258,-0.129 -0.328,-0.223 -0.071,-0.093 -0.137,-0.211 -0.2,-0.351 l -2.601,-7.383 h -12.609 l -2.485,7.289 c -0.047,0.141 -0.109,0.262 -0.187,0.363 -0.078,0.102 -0.192,0.188 -0.34,0.258 -0.149,0.07 -0.36,0.121 -0.633,0.152 -0.273,0.032 -0.629,0.047 -1.066,0.047 -0.453,0 -0.825,-0.019 -1.114,-0.058 -0.289,-0.039 -0.492,-0.114 -0.609,-0.223 -0.117,-0.109 -0.172,-0.269 -0.164,-0.48 0.008,-0.211 0.074,-0.489 0.199,-0.832 l 10.172,-28.172 c 0.063,-0.172 0.145,-0.313 0.246,-0.422 0.102,-0.11 0.25,-0.195 0.445,-0.258 0.196,-0.062 0.446,-0.105 0.75,-0.129 0.305,-0.023 0.692,-0.035 1.161,-0.035 z"
         stroke="#2d3e50"
         stroke-width="2"
         stroke-linejoin="round"
         stroke-miterlimit="10"
         fill="#ffffff"
         fill-rule="evenodd"
         id="path79" />
      <text
         fill="#000000"
         fill-opacity="0"
         font-family="Arial, Arial_MSFontService, sans-serif"
         font-size="30.6094px"
         x="499.38901"
         y="386.68301"
         id="text81">A</text>
      <text
         fill="#ffffff"
         font-family="Calibri, Calibri_MSFontService, sans-serif"
         font-weight="400"
         font-size="26px"
         transform="translate(526.391,390)"
         id="text111">CCESSIBLE<tspan
   font-size="32px"
   x="107.08"
   y="0"
   id="tspan83">:</tspan><tspan
   font-size="24px"
   x="164.16701"
   y="0"
   id="tspan85">ARCs</tspan><tspan
   font-size="24px"
   x="218.453"
   y="0"
   id="tspan87">are retrievable by their identifier using</tspan><tspan
   font-size="24px"
   x="599.38702"
   y="0"
   id="tspan89">standardized</tspan><tspan
   font-size="24px"
   x="164.16701"
   y="38"
   id="tspan91">protocols</tspan><tspan
   font-size="24px"
   x="255.347"
   y="38"
   id="tspan93">.</tspan><tspan
   font-size="24px"
   x="267.34698"
   y="38"
   id="tspan95">ARC</tspan><tspan
   font-size="19px"
   x="306.79999"
   y="38"
   id="tspan97">S</tspan><tspan
   font-size="24px"
   x="321.133"
   y="38"
   id="tspan99">and datasets will be</tspan><tspan
   font-size="24px"
   x="519.99298"
   y="38"
   id="tspan101">stored</tspan><tspan
   font-size="24px"
   x="587.67999"
   y="38"
   id="tspan103">on</tspan><tspan
   font-size="24px"
   x="618.513"
   y="38"
   id="tspan105">Gitlab</tspan><tspan
   font-size="24px"
   x="164.16701"
   y="67"
   id="tspan107">using</tspan><tspan
   font-size="24px"
   x="221.16701"
   y="67"
   id="tspan109">Git LFS.</tspan></text>
      <path
         d="m 504.605,494.9 c 0.39,0 0.715,0.019 0.972,0.059 0.258,0.039 0.465,0.085 0.622,0.14 0.156,0.055 0.265,0.129 0.328,0.223 0.062,0.094 0.093,0.203 0.093,0.328 v 29.109 c 0,0.125 -0.031,0.235 -0.093,0.328 -0.063,0.094 -0.172,0.168 -0.328,0.223 -0.157,0.055 -0.364,0.102 -0.622,0.141 -0.257,0.039 -0.582,0.058 -0.972,0.058 -0.375,0 -0.696,-0.019 -0.961,-0.058 -0.266,-0.039 -0.477,-0.086 -0.633,-0.141 -0.156,-0.055 -0.266,-0.129 -0.328,-0.223 -0.063,-0.093 -0.094,-0.203 -0.094,-0.328 V 495.65 c 0,-0.125 0.035,-0.234 0.106,-0.328 0.07,-0.094 0.187,-0.168 0.351,-0.223 0.164,-0.055 0.375,-0.101 0.633,-0.14 0.258,-0.04 0.566,-0.059 0.926,-0.059 z"
         stroke="#2d3e50"
         stroke-width="2"
         stroke-linejoin="round"
         stroke-miterlimit="10"
         fill="#ffffff"
         fill-rule="evenodd"
         id="path113" />
      <text
         fill="#000000"
         fill-opacity="0"
         font-family="Arial, Arial_MSFontService, sans-serif"
         font-size="30.6094px"
         x="502.58899"
         y="521.68298"
         id="text115">I</text>
      <text
         fill="#ffffff"
         font-family="Calibri, Calibri_MSFontService, sans-serif"
         font-weight="400"
         font-size="26px"
         transform="translate(510.725,525)"
         id="text133">NTEROPERABLE<tspan
   font-size="32px"
   x="163.74699"
   y="0"
   id="tspan117">:</tspan><tspan
   font-size="24px"
   x="179.83299"
   y="0"
   id="tspan119">ARCs</tspan><tspan
   font-size="24px"
   x="234.12"
   y="0"
   id="tspan121">rely on well</tspan><tspan
   font-size="24px"
   x="346.76001"
   y="0"
   id="tspan123">-</tspan><tspan
   font-size="24px"
   x="354.09299"
   y="0"
   id="tspan125">established standards like the</tspan><tspan
   font-size="24px"
   x="647.53998"
   y="0"
   id="tspan127">ISA Model</tspan><tspan
   font-size="24px"
   x="179.83299"
   y="35"
   id="tspan129">and</tspan><tspan
   font-size="24px"
   x="222.16701"
   y="35"
   id="tspan131">CWL.</tspan></text>
      <path
         d="m 506.62,600.369 v 10.218 h 3.938 c 1.062,0 1.98,-0.128 2.754,-0.386 0.773,-0.258 1.418,-0.617 1.933,-1.078 0.516,-0.461 0.895,-1.004 1.137,-1.629 0.242,-0.625 0.363,-1.305 0.363,-2.039 0,-1.188 -0.265,-2.192 -0.797,-3.012 -0.531,-0.82 -1.421,-1.41 -2.671,-1.77 -0.391,-0.109 -0.832,-0.187 -1.325,-0.234 -0.492,-0.047 -1.136,-0.07 -1.933,-0.07 z m -2.531,-3.328 h 6.445 c 0.766,0 1.403,0.019 1.911,0.058 0.507,0.039 0.964,0.082 1.371,0.129 1.172,0.203 2.207,0.524 3.105,0.961 0.899,0.438 1.652,0.992 2.262,1.664 0.609,0.672 1.066,1.441 1.371,2.309 0.305,0.867 0.457,1.824 0.457,2.871 0,1.015 -0.137,1.926 -0.41,2.73 -0.274,0.805 -0.668,1.516 -1.184,2.133 -0.515,0.617 -1.133,1.152 -1.851,1.606 -0.719,0.453 -1.524,0.835 -2.414,1.148 0.5,0.219 0.953,0.496 1.359,0.832 0.406,0.336 0.785,0.738 1.137,1.207 0.351,0.469 0.683,1.008 0.996,1.617 0.312,0.61 0.625,1.297 0.937,2.063 l 2.719,6.679 c 0.219,0.563 0.359,0.957 0.422,1.184 0.062,0.227 0.094,0.402 0.094,0.527 0,0.125 -0.024,0.235 -0.071,0.328 -0.047,0.094 -0.148,0.172 -0.304,0.235 -0.157,0.062 -0.375,0.109 -0.657,0.14 -0.281,0.032 -0.656,0.047 -1.125,0.047 -0.406,0 -0.738,-0.015 -0.996,-0.047 -0.257,-0.031 -0.465,-0.082 -0.621,-0.152 -0.156,-0.07 -0.277,-0.168 -0.363,-0.293 -0.086,-0.125 -0.16,-0.281 -0.223,-0.469 l -2.789,-7.148 c -0.328,-0.813 -0.668,-1.559 -1.019,-2.238 -0.352,-0.68 -0.77,-1.266 -1.254,-1.758 -0.485,-0.492 -1.055,-0.875 -1.711,-1.149 -0.656,-0.273 -1.445,-0.41 -2.367,-0.41 h -2.696 v 12.914 c 0,0.125 -0.035,0.235 -0.105,0.328 -0.07,0.094 -0.18,0.168 -0.328,0.223 -0.149,0.055 -0.352,0.102 -0.61,0.141 -0.257,0.039 -0.582,0.058 -0.972,0.058 -0.391,0 -0.715,-0.019 -0.973,-0.058 -0.258,-0.039 -0.465,-0.086 -0.621,-0.141 -0.156,-0.055 -0.266,-0.129 -0.328,-0.223 -0.063,-0.093 -0.094,-0.203 -0.094,-0.328 v -28.078 c 0,-0.609 0.16,-1.035 0.481,-1.277 0.32,-0.242 0.66,-0.363 1.019,-0.363 z"
         stroke="#2d3e50"
         stroke-width="2"
         stroke-linejoin="round"
         stroke-miterlimit="10"
         fill="#ffffff"
         fill-rule="evenodd"
         id="path135" />
      <text
         fill="#000000"
         fill-opacity="0"
         font-family="Arial, Arial_MSFontService, sans-serif"
         font-size="30.4688px"
         x="502.58899"
         y="623.70099"
         id="text137">R</text>
      <text
         fill="#ffffff"
         font-family="Calibri, Calibri_MSFontService, sans-serif"
         font-weight="400"
         font-size="26px"
         transform="translate(524.558,627)"
         id="text155">EUSABLE<tspan
   font-size="32px"
   x="92.813301"
   y="0"
   id="tspan139">:</tspan><tspan
   font-size="24px"
   x="166"
   y="0"
   id="tspan141">ARCs</tspan><tspan
   font-size="24px"
   x="220.287"
   y="0"
   id="tspan143">comprise complete metadata, including</tspan><tspan
   font-size="24px"
   x="611.56702"
   y="0"
   id="tspan145">workflow</tspan><tspan
   font-size="24px"
   x="166"
   y="35"
   id="tspan147">and</tspan><tspan
   font-size="24px"
   x="208.33299"
   y="35"
   id="tspan149">run descriptions for accurate</tspan><tspan
   font-size="24px"
   x="493.91299"
   y="35"
   id="tspan151">reusability</tspan><tspan
   font-size="24px"
   x="593.85303"
   y="35"
   id="tspan153">.</tspan></text>
      <rect
         x="204.5"
         y="536.5"
         width="33"
         height="66"
         stroke="#ffffff"
         stroke-width="1.33333"
         stroke-miterlimit="8"
         fill="none"
         id="rect157" />
      <rect
         x="244.5"
         y="519.5"
         width="32"
         height="83"
         stroke="#ffffff"
         stroke-width="1.33333"
         stroke-miterlimit="8"
         fill="none"
         id="rect159" />
      <rect
         x="282.5"
         y="502.5"
         width="33"
         height="100"
         stroke="#ffffff"
         stroke-width="1.33333"
         stroke-miterlimit="8"
         fill="none"
         id="rect161" />
      <path
         d="m 190.46,568.455 c -53.437,1.38 -97.4999,-40.317 -98.4177,-93.133 -0.9178,-52.817 41.6577,-96.751 95.0937,-98.132 53.437,-1.38 97.5,40.318 98.418,93.134 0.047,2.697 -0.021,5.396 -0.205,8.089"
         stroke="#ffffff"
         stroke-width="8"
         stroke-linecap="round"
         stroke-miterlimit="8"
         fill="none"
         fill-rule="evenodd"
         id="path163" />
      <path
         d="M 0,0 19.3473,21.0723"
         stroke="#ffffff"
         stroke-width="8"
         stroke-linecap="round"
         stroke-miterlimit="8"
         fill="none"
         fill-rule="evenodd"
         transform="matrix(1,0,0,-1,284,483.072)"
         id="path165" />
      <path
         d="M 0,0 19.0675,21.3815"
         stroke="#ffffff"
         stroke-width="8"
         stroke-linecap="round"
         stroke-miterlimit="8"
         fill="none"
         fill-rule="evenodd"
         transform="matrix(0,-1,-1,0,283.381,483.068)"
         id="path167" />
      <path
         d="m 148.25,494.73 c -4.36,-7.51 -4.396,-24.175 0.273,-34.142 4.668,-9.968 13.343,-23.987 37.476,-24.332 8.383,-0.119 20.675,-2.041 28.564,-3.917 7.89,-1.875 15.28,-7.457 18.773,-7.337 3.493,0.12 2.747,3.323 2.183,8.056 -0.565,4.733 -3.124,14.288 -5.57,20.342 -2.447,6.053 -9.166,23.666 -14.244,31.707 -5.079,8.041 -9.391,13.117 -16.227,16.539 -6.837,3.423 -16.255,5.151 -24.793,3.998 -8.538,-1.153 -22.074,-3.405 -26.435,-10.914 z"
         stroke="#ffffff"
         stroke-width="8"
         stroke-linecap="round"
         stroke-miterlimit="8"
         fill="none"
         fill-rule="evenodd"
         id="path169" />
      <path
         d="m 139,518 c 4.074,-17.306 8.148,-34.612 44,-46"
         stroke="#ffffff"
         stroke-width="8"
         stroke-linecap="round"
         stroke-miterlimit="8"
         fill="none"
         fill-rule="evenodd"
         id="path171" />
      <rect
         x="35.500099"
         y="363.5"
         width="44"
         height="20"
         stroke="#ffffff"
         stroke-width="1.33333"
         stroke-miterlimit="8"
         fill="none"
         id="rect173" />
      <path
         d="M 79.5001,373.5 H 115.192"
         stroke="#ffffff"
         stroke-width="0.666667"
         stroke-miterlimit="8"
         fill="none"
         fill-rule="evenodd"
         id="path175" />
      <path
         d="m 115.5,373.5 15.08,60.431"
         stroke="#ffffff"
         stroke-width="0.666667"
         stroke-miterlimit="8"
         fill="none"
         fill-rule="evenodd"
         id="path177" />
      <rect
         x="68.500099"
         y="566.5"
         width="45"
         height="20"
         stroke="#ffffff"
         stroke-width="1.33333"
         stroke-miterlimit="8"
         fill="none"
         id="rect179" />
      <path
         d="m 113.5,576.5 h 32.105"
         stroke="#ffffff"
         stroke-width="0.666667"
         stroke-miterlimit="8"
         fill="none"
         fill-rule="evenodd"
         id="path181" />
      <path
         d="M 0,0 15.08,60.4307"
         stroke="#ffffff"
         stroke-width="0.666667"
         stroke-miterlimit="8"
         fill="none"
         fill-rule="evenodd"
         transform="matrix(1,0,0,-1,145.5,575.931)"
         id="path183" />
      <rect
         x="308.5"
         y="402.5"
         width="45"
         height="20"
         stroke="#ffffff"
         stroke-width="1.33333"
         stroke-miterlimit="8"
         fill="none"
         id="rect185" />
      <path
         d="m 284.5,412.5 h 23.45"
         stroke="#ffffff"
         stroke-width="0.666667"
         stroke-miterlimit="8"
         fill="none"
         fill-rule="evenodd"
         id="path187" />
      <path
         d="M 0,0 66.1114,34.6997"
         stroke="#ffffff"
         stroke-width="0.666667"
         stroke-miterlimit="8"
         fill="none"
         fill-rule="evenodd"
         transform="matrix(1,0,0,-1,218.5,447.2)"
         id="path189" />
      <path
         d="m 301.53,294.556 c 4.442,0 8.928,1.216 12.891,3.732 5.341,3.675 8.636,9.033 9.657,14.795 1.022,5.761 -0.23,11.925 -3.982,17.212 L 286.593,377.5 c -4.556,6.42 -11.685,9.665 -19.057,9.651 l -4.981,7.018 -2.385,-2.137 c -3.182,-2.587 -6.492,-5.027 -9.921,-7.307 l -8.979,-5.366 4.902,-6.908 c -2.547,-6.811 -1.904,-14.518 2.652,-20.937 l 33.503,-47.206 c 4.523,-6.372 11.8,-9.752 19.203,-9.752 z"
         stroke="#ffffff"
         stroke-width="8"
         stroke-linecap="round"
         stroke-miterlimit="8"
         fill="none"
         fill-rule="evenodd"
         id="path191" />
      <g
         clip-path="url(#clip1)"
         id="g199">
        <g
           clip-path="url(#clip2)"
           id="g197">
          <g
             clip-path="url(#clip3)"
             id="g195">
            <path
               d="M 67.6875,59.85 57.7917,49.9542 C 56.4458,48.6083 54.625,48.1333 52.8833,48.45 L 49.4,44.9667 c 3.0875,-3.9584 4.9083,-9.025 4.9083,-14.4084 0,-13.0625 -10.6875,-23.74997 -23.75,-23.74997 -13.0625,0 -23.74997,10.68747 -23.74997,23.74997 0,13.0625 10.68747,23.75 23.74997,23.75 5.3834,0 10.3709,-1.8208 14.4084,-4.9083 l 3.4833,3.4833 c -0.3167,1.7417 0.1583,3.5625 1.5042,4.9084 l 9.8958,9.8958 c 1.1083,1.1083 2.5333,1.6625 3.9583,1.6625 1.425,0 2.85,-0.5542 3.9584,-1.6625 2.0583,-2.2167 2.0583,-5.7 -0.0792,-7.8375 z M 30.4792,49.4792 c -10.45,0 -19,-8.55 -19,-19 0,-10.45 8.55,-19 19,-19 10.45,0 19,8.55 19,19 0,10.45 -8.55,19 -19,19 z"
               fill="#ffffff"
               transform="matrix(-1.01316,0,0,1,461,239)"
               id="path193" />
          </g>
        </g>
      </g>
      <g
         clip-path="url(#clip4)"
         id="g209">
        <g
           clip-path="url(#clip5)"
           id="g207">
          <g
             clip-path="url(#clip6)"
             id="g205">
            <path
               d="m 410,389.912 v -9.66 c 0,-3.246 2.632,-5.878 5.878,-5.878 3.247,0 5.878,2.632 5.878,5.878 v 9.636 c 5.342,-3.258 7.031,-10.229 3.774,-15.57 -3.258,-5.342 -10.228,-7.031 -15.57,-3.774 -5.341,3.258 -7.031,10.229 -3.773,15.57 0.947,1.554 2.255,2.857 3.813,3.798 z"
               fill="#ffffff"
               id="path201" />
            <path
               d="m 412.344,380.253 v 33.352 h -0.009 l -2.9,-13.058 c -0.447,-1.9 -2.349,-3.078 -4.25,-2.631 -1.866,0.439 -3.042,2.287 -2.65,4.164 l 4.242,19.085 c 0.18,0.808 0.638,1.527 1.295,2.031 l 7.812,6.008 v 5.327 h 20.496 v -3.534 c 0,-5.007 5.654,-5.391 5.654,-14.844 V 403.43 c 0.003,-2.34 -1.892,-4.238 -4.231,-4.241 -1.057,-0.001 -2.076,0.393 -2.857,1.105 0.012,-0.131 0.02,-0.264 0.02,-0.398 10e-4,-2.341 -1.895,-4.239 -4.236,-4.241 -1.096,0 -2.15,0.424 -2.94,1.183 -0.515,-2.283 -2.784,-3.717 -5.068,-3.202 -1.935,0.436 -3.309,2.156 -3.306,4.14 v -17.523 c 0,-1.952 -1.583,-3.534 -3.535,-3.534 -1.952,0 -3.534,1.582 -3.534,3.534 z"
               fill="#ffffff"
               id="path203" />
          </g>
        </g>
      </g>
      <g
         clip-path="url(#clip7)"
         id="g219">
        <g
           clip-path="url(#clip8)"
           id="g217">
          <g
             clip-path="url(#clip9)"
             id="g215">
            <path
               d="m 46.3281,29.1406 c -3.2812,0 -5.8593,-2.6562 -5.8593,-5.8594 0,-3.2031 2.6562,-5.8593 5.8593,-5.8593 3.2813,0 5.8594,2.6562 5.8594,5.8593 0,3.2032 -2.6563,5.8594 -5.8594,5.8594 z M 59.5312,19.6094 C 59.2188,18.5156 58.8281,17.5 58.2812,16.5625 l 1.25,-3.6719 -2.8124,-2.8125 -3.6719,1.25 C 52.1094,10.7812 51.0938,10.3906 50,10.0781 L 48.2812,6.64062 H 44.375 l -1.7188,3.43748 c -1.0937,0.3125 -2.1093,0.7031 -3.0468,1.25 l -3.6719,-1.25 -2.8125,2.8125 1.25,3.6719 c -0.5469,0.9375 -0.9375,1.9531 -1.25,3.0469 l -3.4375,1.7187 v 3.9063 l 3.4375,1.7187 c 0.3125,1.0938 0.7031,2.1094 1.25,3.0469 l -1.25,3.6719 2.7344,2.7343 3.6718,-1.25 c 0.9376,0.5469 1.9532,0.9376 3.0469,1.25 l 1.7188,3.4376 h 3.9062 l 1.7188,-3.4376 c 1.0937,-0.3124 2.1093,-0.7031 3.0469,-1.25 l 3.6718,1.25 2.8125,-2.7343 L 58.2031,30 c 0.5469,-0.9375 1.0157,-2.0312 1.3281,-3.0469 l 3.4376,-1.7187 v -3.9063 z"
               fill="#ffffff"
               transform="matrix(1.01333,0,0,1,384,488)"
               id="path211" />
            <path
               d="m 28.6719,57.5781 c -3.2813,0 -5.8594,-2.6562 -5.8594,-5.8594 0,-3.2812 2.6562,-5.8593 5.8594,-5.8593 3.2812,0 5.8593,2.6562 5.8593,5.8593 0,3.2032 -2.5781,5.8594 -5.8593,5.8594 z M 40.625,45 l 1.25,-3.6719 -2.8125,-2.8125 -3.6719,1.25 c -0.9375,-0.5468 -2.0312,-0.9375 -3.0468,-1.25 L 30.625,35.0781 H 26.7188 L 25,38.5156 c -1.0938,0.3125 -2.1094,0.7032 -3.0469,1.25 l -3.6719,-1.25 -2.7343,2.7344 1.1719,3.6719 c -0.5469,0.9375 -0.9375,2.0312 -1.2501,3.0469 l -3.4375,1.7187 v 3.9063 l 3.4375,1.7187 c 0.3126,1.0937 0.7032,2.1094 1.2501,3.0469 l -1.1719,3.6718 2.7343,2.7344 3.6719,-1.1718 c 0.9375,0.5468 1.9531,0.9374 3.0469,1.25 l 1.7188,3.4374 h 3.9062 l 1.7188,-3.4374 c 1.0937,-0.3126 2.1093,-0.7032 3.0468,-1.25 l 3.6719,1.25 2.7344,-2.8126 -1.1719,-3.5937 c 0.5469,-0.9375 0.9375,-1.9531 1.25,-3.0469 l 3.4375,-1.7187 V 49.7656 L 41.875,48.0469 C 41.5625,46.9531 41.1719,45.9375 40.625,45 Z"
               fill="#ffffff"
               transform="matrix(1.01333,0,0,1,384,488)"
               id="path213" />
          </g>
        </g>
      </g>
      <g
         clip-path="url(#clip10)"
         id="g231">
        <g
           clip-path="url(#clip11)"
           id="g229">
          <g
             clip-path="url(#clip12)"
             id="g227">
            <path
               d="m 11.8516,55.0234 c 0.5894,1.1361 1.7175,1.893 2.9922,2.0078 h 14.0624 v 6.25 H 14.8438 c -3.5624,-0.0647 -6.82122,-2.02 -8.55474,-5.1328 -1.66067,-3.0043 -1.51621,-6.6821 0.375,-9.5468 l 8.12504,-14.0625 -5.35941,-3.125 13.07811,-3.5 3.5,13.0781 -5.6953,-3.2734 -8.1563,14.1406 c -0.696,0.9104 -0.8142,2.1375 -0.3046,3.164 z"
               fill="#ffffff"
               transform="matrix(1,0,0,1.01333,387,599)"
               id="path221" />
            <path
               d="m 22.9062,22.7656 6.5391,-12.2109 c 1.7153,-3.08606 4.9771,-4.99102 8.5078,-4.96876 3.4328,0.0704 6.5435,2.03796 8.0781,5.10936 l 8.125,14.0625 5.3594,-3.125 -3.5,13.1172 -13.0468,-3.5 5.6874,-3.2891 -8.1953,-14.1484 c -0.445,-1.0566 -1.4495,-1.7707 -2.5937,-1.8437 -1.2049,0.0596 -2.2956,0.7317 -2.8906,1.7812 l -6.5469,12.2109 z"
               fill="#ffffff"
               transform="matrix(1,0,0,1.01333,387,599)"
               id="path223" />
            <path
               d="m 68.4297,58.7734 c -1.7082,2.8661 -4.8285,4.5891 -8.1641,4.5078 H 43.75 v 6.25 l -9.6016,-9.7656 9.6016,-9.5 v 6.7656 h 16.3047 c 1.1718,0.0781 2.2884,-0.5074 2.8906,-1.5156 0.5833,-1.0669 0.5474,-2.3652 -0.0937,-3.3984 l -7.1485,-12.1875 5.5235,-3.2109 7.1562,12.1796 c 0.4035,0.7098 0.7208,1.4651 0.9453,2.25 l 0.1328,0.5157 c 0.5908,2.4139 0.2211,4.9628 -1.0312,7.1093 z"
               fill="#ffffff"
               transform="matrix(1,0,0,1.01333,387,599)"
               id="path225" />
          </g>
        </g>
      </g>
    </g>
  </g>
</svg>
