<svg width="1285" height="945" xmlns="http://www.w3.org/2000/svg" xmlns:xlink="http://www.w3.org/1999/xlink" xml:space="preserve" overflow="hidden"><g transform="translate(-1510 -767)"><path d="M2122.44 936.965C2151.85 987.936 2175.98 1026.05 2205.11 1079.86 2234.24 1133.67 2248.66 1172.05 2298.68 1241.6 2348.7 1311.14 2366.81 1350.4 2394.98 1408.04 2342.56 1445.85 2310.7 1454.2 2280.68 1474.17 2250.66 1494.14 2213.28 1512 2156.86 1545.8 2131.23 1482.64 2102.21 1433.71 2060.57 1379.35 2018.92 1325 2013.37 1305.88 1975.17 1231.75 1936.97 1157.62 1928.54 1147.74 1884.32 1074.72 1913.78 1063.44 1972.63 1030.9 2008.14 1003.09 2043.66 975.273 2090.77 954.329 2122.44 936.965Z" fill="#1FC2A7" fill-rule="evenodd"/><path d="M2122.44 936.965C2159.99 1012.92 2169.05 1035.81 2216.01 1098.7 2262.96 1161.6 2281.54 1225.39 2309.58 1260.44 2337.62 1295.49 2378.53 1374.21 2394.98 1408.04 2335.77 1439.33 2302.46 1454.47 2271.16 1479.68 2239.85 1504.89 2182.44 1529.96 2156.86 1545.8 2110.21 1482.02 2095.47 1450.08 2071.47 1398.2 2047.47 1346.31 1999.4 1278.49 1983.35 1245.88 1967.29 1213.27 1912.29 1104.79 1884.32 1074.72 1938.73 1050.04 1967.48 1020 2003.38 1005.84 2039.28 991.691 2069.79 968.525 2122.44 936.965Z" stroke="#024A5D" stroke-width="4.58333" stroke-miterlimit="8" fill="none" fill-rule="evenodd"/><path d="M1558.36 1095.1C1539.1 1060.52 1538.94 983.78 1559.56 937.881 1580.19 891.981 1618.51 827.422 1725.12 825.835 1762.15 825.283 1816.45 816.435 1851.3 807.797 1886.15 799.159 1918.8 773.458 1934.23 774.009 1949.66 774.56 1946.37 789.31 1943.87 811.105 1941.38 832.9 1930.08 876.904 1919.27 904.779 1908.46 932.654 1878.78 1013.76 1856.34 1050.79 1833.91 1087.82 1814.86 1111.19 1784.66 1126.95 1754.46 1142.71 1712.85 1150.67 1675.13 1145.36 1637.42 1140.05 1577.62 1129.68 1558.36 1095.1Z" stroke="#2D3E50" stroke-width="13.75" stroke-linecap="round" stroke-miterlimit="8" fill="none" fill-rule="evenodd"/><path d="M1517 1204C1535.15 1123.87 1553.3 1043.73 1713 991" stroke="#2D3E50" stroke-width="13.75" stroke-linecap="round" stroke-miterlimit="8" fill="none" fill-rule="evenodd"/><g><g><g><path d="M134.167 64.1666C134.167 73.8316 126.332 81.6666 116.667 81.6666 107.002 81.6666 99.1666 73.8316 99.1666 64.1666 99.1666 54.5016 107.002 46.6666 116.667 46.6666 126.332 46.6666 134.167 54.5016 134.167 64.1666Z" stroke="#E7E6E6" stroke-width="2.91677" fill="#2D3E50" transform="matrix(1 0 0 1.02143 1710 820)"/><path d="M116.667 20.4167C116.667 25.2491 112.749 29.1666 107.917 29.1666 103.084 29.1666 99.1666 25.2491 99.1666 20.4167 99.1666 15.5842 103.084 11.6667 107.917 11.6667 112.749 11.6667 116.667 15.5842 116.667 20.4167Z" stroke="#E7E6E6" stroke-width="2.91677" fill="#2D3E50" transform="matrix(1 0 0 1.02143 1710 820)"/><path d="M166.25 72.9166C166.25 77.7491 162.332 81.6666 157.5 81.6666 152.667 81.6666 148.75 77.7491 148.75 72.9166 148.75 68.0841 152.667 64.1666 157.5 64.1666 162.332 64.1666 166.25 68.0841 166.25 72.9166Z" stroke="#E7E6E6" stroke-width="2.91677" fill="#2D3E50" transform="matrix(1 0 0 1.02143 1710 820)"/><path d="M175 35C175 41.4433 169.777 46.6666 163.333 46.6666 156.89 46.6666 151.667 41.4433 151.667 35 151.667 28.5567 156.89 23.3333 163.333 23.3333 169.777 23.3333 175 28.5567 175 35Z" stroke="#E7E6E6" stroke-width="2.91677" fill="#2D3E50" transform="matrix(1 0 0 1.02143 1710 820)"/><path d="M221.375 94.7916C220.792 92.1666 218.458 90.4166 215.833 90.4166L64.1666 90.4166C61.5416 90.4166 59.2083 92.1666 58.625 94.7916 58.0416 97.4166 59.2083 100.042 61.5416 101.208 61.5416 101.208 70.2916 106.167 70.2916 116.667L70.2916 250.833C70.2916 260.458 78.1666 268.333 87.7916 268.333L192.792 268.333C202.417 268.333 210.292 260.458 210.292 250.833L210.292 116.667C210.292 106.167 218.458 101.5 218.75 101.5 220.792 100.042 222.25 97.4166 221.375 94.7916ZM180.833 245 145.833 245 145.833 233.333 180.833 233.333 180.833 245ZM180.833 221.667 145.833 221.667 145.833 210 180.833 210 180.833 221.667ZM180.833 198.333 145.833 198.333 145.833 186.667 180.833 186.667 180.833 198.333ZM180.833 175 145.833 175 145.833 163.333 180.833 163.333 180.833 175ZM180.833 151.667 145.833 151.667 145.833 140 180.833 140 180.833 151.667ZM198.333 116.667 198.333 122.208C189.292 118.708 174.708 113.75 160.417 113.75 144.667 113.75 135.042 116.375 125.125 119 114.333 121.917 102.958 124.833 81.6666 125.417L81.6666 116.667C81.6666 110.833 79.9166 105.875 77.8749 102.083L202.125 102.083C200.083 105.875 198.333 110.833 198.333 116.667Z" stroke="#E7E6E6" stroke-width="2.91677" fill="#2D3E50" transform="matrix(1 0 0 1.02143 1710 820)"/></g></g></g><g><g><g><path d="M84.5834 137.083C112.385 137.083 134.167 124.27 134.167 107.917 134.167 91.563 112.385 78.75 84.5834 78.75 56.7817 78.75 35 91.563 35 107.917 35 124.27 56.7817 137.083 84.5834 137.083ZM84.5834 90.4167C106.928 90.4167 122.5 99.6392 122.5 107.917 122.5 116.194 106.928 125.417 84.5834 125.417 62.2388 125.417 46.6667 116.194 46.6667 107.917 46.6667 99.6392 62.2388 90.4167 84.5834 90.4167Z" stroke="#E7E6E6" stroke-width="2.91677" fill="#2D3E50" transform="matrix(1 0 0 1.02143 1594 978)"/><path d="M110.833 107.917C110.833 114.36 99.0809 119.583 84.5834 119.583 70.0859 119.583 58.3334 114.36 58.3334 107.917 58.3334 101.473 70.0859 96.2501 84.5834 96.2501 99.0809 96.2501 110.833 101.473 110.833 107.917Z" stroke="#E7E6E6" stroke-width="2.91677" fill="#2D3E50" transform="matrix(1 0 0 1.02143 1594 978)"/><path d="M261.514 116.048C229.306 101.544 195.983 101.757 162.316 116.503 162.987 113.69 163.329 110.809 163.333 107.917 163.333 78.4788 128.745 55.4167 84.5834 55.4167 40.4221 55.4167 5.83334 78.4788 5.83334 107.917L5.83334 168.274C5.83334 199.85 41.9096 224.583 87.9638 224.583 115.672 224.583 144.436 209.385 159.886 201.218 192.136 184.173 223.913 182.473 254.328 196.169L274.167 205.109 274.167 121.748ZM177.917 129.103C181.742 127.752 185.636 126.606 189.583 125.668L189.583 163.333 177.917 163.333ZM32.0834 148.75 34.5567 148.75C37.5334 150.358 40.6035 151.788 43.75 153.032L43.75 169.167 32.0834 169.167ZM90.4167 160.265C94.4029 160.071 98.2917 159.7 102.083 159.154L102.083 177.917 90.4167 177.917ZM119.583 155.123C123.575 153.837 127.473 152.278 131.25 150.456L131.25 186.667 119.583 186.667ZM148.75 142.418C152.936 140.566 156.707 138.731 159.886 137.051 160.064 136.958 160.239 136.879 160.417 136.786L160.417 157.5 148.75 157.5ZM72.9167 192.5 61.25 192.5 61.25 158.156C65.1073 158.923 69.0014 159.492 72.9167 159.863ZM207.083 142.917 207.083 123.06C210.969 122.824 214.865 122.824 218.75 123.06L218.75 142.917ZM84.5834 72.9167C117.784 72.9167 145.833 88.9584 145.833 107.917 145.833 126.875 117.784 142.917 84.5834 142.917 51.3829 142.917 23.3333 126.89 23.3333 107.917 23.3333 88.9438 51.3829 72.9167 84.5834 72.9167ZM256.667 178.144C250.754 175.759 244.664 173.839 238.452 172.401 235.263 165.38 233.522 157.787 233.333 150.077 233.448 141.835 235.873 133.79 240.333 126.858 245.113 128.247 249.791 129.966 254.333 132.003L256.667 133.055Z" stroke="#E7E6E6" stroke-width="2.91677" fill="#2D3E50" transform="matrix(1 0 0 1.02143 1594 978)"/></g></g></g><g><g><g><path d="M211.167 9.04166 9.04166 211.167 68.8333 270.958 270.666 69.125 211.167 9.04166ZM215.25 99.7499 192.5 122.5 174.417 104.417 166.25 112.583 184.333 130.667 161.583 153.417 143.5 135.333 135.333 143.5 153.417 161.583 130.667 184.333 112.583 166.25 104.417 174.417 122.5 192.5 99.7499 215.25 81.6666 197.167 73.4999 205.333 91.5833 223.417 69.125 245.875 34.125 210.875 211.167 33.8333 246.167 68.8333 223.708 91.2916 205.625 73.2083 197.167 81.6666 215.25 99.7499Z" stroke="#E7E6E6" stroke-width="2.91677" fill="#2D3E50" transform="matrix(1 0 0 1.025 1786 965)"/></g></g></g><path d="M2627 1263C2627 1239.8 2645.36 1221 2668 1221 2690.64 1221 2709 1239.8 2709 1263 2709 1286.2 2690.64 1305 2668 1305 2645.36 1305 2627 1286.2 2627 1263Z" fill="#2D3E50" fill-rule="evenodd"/><path d="M2406 1373.5C2406 1356.66 2419.43 1343 2436 1343 2452.57 1343 2466 1356.66 2466 1373.5 2466 1390.34 2452.57 1404 2436 1404 2419.43 1404 2406 1390.34 2406 1373.5Z" fill="#2D3E50" fill-rule="evenodd"/><path d="M2641 1557C2641 1539.88 2654.43 1526 2671 1526 2687.57 1526 2701 1539.88 2701 1557 2701 1574.12 2687.57 1588 2671 1588 2654.43 1588 2641 1574.12 2641 1557Z" fill="#2D3E50" fill-rule="evenodd"/><path d="M2735 1340.5C2735 1323.66 2748.43 1310 2765 1310 2781.57 1310 2795 1323.66 2795 1340.5 2795 1357.34 2781.57 1371 2765 1371 2748.43 1371 2735 1357.34 2735 1340.5Z" fill="#2D3E50" fill-rule="evenodd"/><path d="M2403 1229C2403 1220.16 2409.72 1213 2418 1213 2426.28 1213 2433 1220.16 2433 1229 2433 1237.84 2426.28 1245 2418 1245 2409.72 1245 2403 1237.84 2403 1229Z" fill="#2D3E50" fill-rule="evenodd"/><path d="M2591 1153C2591 1144.16 2597.94 1137 2606.5 1137 2615.06 1137 2622 1144.16 2622 1153 2622 1161.84 2615.06 1169 2606.5 1169 2597.94 1169 2591 1161.84 2591 1153Z" fill="#2D3E50" fill-rule="evenodd"/><path d="M2730 1148C2730 1139.16 2736.94 1132 2745.5 1132 2754.06 1132 2761 1139.16 2761 1148 2761 1156.84 2754.06 1164 2745.5 1164 2736.94 1164 2730 1156.84 2730 1148Z" fill="#2D3E50" fill-rule="evenodd"/><path d="M2676 1338C2676 1329.16 2682.94 1322 2691.5 1322 2700.06 1322 2707 1329.16 2707 1338 2707 1346.84 2700.06 1354 2691.5 1354 2682.94 1354 2676 1346.84 2676 1338Z" fill="#2D3E50" fill-rule="evenodd"/><path d="M2589 1444C2589 1435.16 2595.94 1428 2604.5 1428 2613.06 1428 2620 1435.16 2620 1444 2620 1452.84 2613.06 1460 2604.5 1460 2595.94 1460 2589 1452.84 2589 1444Z" fill="#2D3E50" fill-rule="evenodd"/><path d="M2733 1545C2733 1536.16 2739.94 1529 2748.5 1529 2757.06 1529 2764 1536.16 2764 1545 2764 1553.84 2757.06 1561 2748.5 1561 2739.94 1561 2733 1553.84 2733 1545Z" fill="#2D3E50" fill-rule="evenodd"/><path d="M2597 1626C2597 1617.16 2603.94 1610 2612.5 1610 2621.06 1610 2628 1617.16 2628 1626 2628 1634.84 2621.06 1642 2612.5 1642 2603.94 1642 2597 1634.84 2597 1626Z" fill="#2D3E50" fill-rule="evenodd"/><path d="M2641.05 1556.2 2641.2 1564.78 2473.55 1567.71 2473.4 1559.12Z" fill="#2D3E50" fill-rule="evenodd"/><path d="M2633.9 1278.37 2637.52 1286.16 2455.1 1371.04 2451.48 1363.25Z" fill="#2D3E50" fill-rule="evenodd"/><path d="M2414.49 1232.24 2422.8 1231.13 2440.96 1367.29 2432.65 1368.4Z" fill="#2D3E50" fill-rule="evenodd"/><path d="M2605.09 1155.88 2612.42 1151.82 2662.36 1241.92 2655.03 1245.99Z" fill="#2D3E50" fill-rule="evenodd"/><path d="M2430.55 1374.57 2437.2 1379.68 2374.42 1461.37 2367.78 1456.26Z" fill="#2D3E50" fill-rule="evenodd"/><path d="M2606.17 1458.62 2613.35 1454.3 2666.41 1542.61 2659.22 1546.93Z" fill="#2D3E50" fill-rule="evenodd"/><path d="M2739.9 1150.1 2746.6 1155.15 2684.6 1237.42 2677.9 1232.38Z" fill="#2D3E50" fill-rule="evenodd"/><path d="M2678.82 1542.29 2685.14 1547.79 2617.56 1625.54 2611.23 1620.04Z" fill="#2D3E50" fill-rule="evenodd"/><path d="M2651.85 1254.22 2657.37 1247.64 2760.12 1333.86 2754.6 1340.44Z" fill="#2D3E50" fill-rule="evenodd"/><path d="M2671.19 1559.83 2670.29 1551.29 2736.99 1544.28 2737.89 1552.82Z" fill="#2D3E50" fill-rule="evenodd"/><path d="M2665.28 1281.07 2673.04 1277.9 2699.05 1341.46 2691.29 1344.64Z" fill="#2D3E50" fill-rule="evenodd"/><path d="M0 6.83346C-1.03442e-15 3.05944 3.05944-2.06884e-15 6.83346-2.06884e-15L10.8333 0 10.8333 0 27.0833 0 58.1665 0C61.9405-2.06884e-15 65 3.05944 65 6.83346L65 23.9166 65 23.9166 65 34.1666 65 34.1664C65 37.9405 61.9405 40.9999 58.1665 40.9999L27.0833 40.9999 13.3802 55.73 10.8333 40.9999 6.83346 40.9999C3.05944 40.9999-1.03442e-15 37.9405 0 34.1664L0 34.1666 0 23.9166 0 23.9166Z" stroke="#2D3E50" stroke-width="4.58333" stroke-miterlimit="8" fill="#1FC2A7" fill-rule="evenodd" fill-opacity="0.698039" transform="matrix(-1 0 0 1 2677.5 1209.5)"/><path d="M2298.5 1388.23C2298.5 1381.75 2303.75 1376.5 2310.23 1376.5L2611.77 1376.5C2618.25 1376.5 2623.5 1381.75 2623.5 1388.23L2623.5 1697.77C2623.5 1704.25 2618.25 1709.5 2611.77 1709.5L2310.23 1709.5C2303.75 1709.5 2298.5 1704.25 2298.5 1697.77Z" stroke="#1E2B38" stroke-width="4.58333" stroke-miterlimit="8" fill="#2D3E50" fill-rule="evenodd"/><text fill="#FFFFFF" font-family="Calibri,Calibri_MSFontService,sans-serif" font-weight="400" font-size="110" transform="matrix(1 0 0 1 2365.21 1579)">FDO</text><g><g><g><path d="M168 78.75C168 101.946 149.196 120.75 126 120.75 102.804 120.75 84 101.946 84 78.75 84 55.554 102.804 36.75 126 36.75 149.196 36.75 168 55.554 168 78.75Z" fill="#2D3E50" transform="matrix(-1 0 0 1.02778 2105 1126)"/><path d="M210 215.25 210 173.25C210 166.95 206.85 160.65 201.6 156.45 190.05 147 175.35 140.7 160.65 136.5 150.15 133.35 138.6 131.25 126 131.25 114.45 131.25 102.9 133.35 91.35 136.5 76.65 140.7 61.95 148.05 50.4 156.45 45.15 160.65 42 166.95 42 173.25L42 215.25 210 215.25Z" fill="#2D3E50" transform="matrix(-1 0 0 1.02778 2105 1126)"/></g></g></g><g><g><g><path d="M168.667 79.0625C168.667 102.351 149.788 121.229 126.5 121.229 103.212 121.229 84.3333 102.351 84.3333 79.0625 84.3333 55.7745 103.212 36.8958 126.5 36.8958 149.788 36.8958 168.667 55.7745 168.667 79.0625Z" fill="#2D3E50" transform="matrix(-1 0 0 1.01976 2330 1127)"/><path d="M80.6438 215.05 63.25 175.782 63.25 149.165C63.25 146.002 65.0948 142.84 67.7302 141.258 69.3115 140.468 69.8385 138.623 69.0479 137.305 68.5208 136.251 67.4667 135.46 66.149 135.724L36.1052 135.724C34.524 135.724 32.9427 136.778 32.9427 138.623 32.9427 139.941 33.4698 140.995 34.524 141.522 37.4229 143.103 39.0042 146.266 39.0042 149.428L39.0042 176.046 21.874 215.05C19.7656 219.53 21.874 225.065 26.6177 226.909 27.6719 227.436 28.9896 227.7 30.3073 227.7L72.474 227.7C77.4813 227.7 81.4344 223.747 81.4344 218.74 81.4344 217.422 81.1708 216.104 80.6438 215.05L80.6438 215.05ZM45.3292 155.226 45.3292 149.165C45.3292 146.529 44.8021 143.894 43.2208 141.522L59.2969 141.522C57.9792 143.894 57.1885 146.529 57.1885 149.165L57.1885 155.226 45.3292 155.226Z" fill="#2D3E50" transform="matrix(-1 0 0 1.01976 2330 1127)"/><path d="M58.7698 99.3552C58.7698 101.83 56.7639 103.835 54.2896 103.835 51.8152 103.835 49.8094 101.83 49.8094 99.3552 49.8094 96.8809 51.8152 94.875 54.2896 94.875 56.7639 94.875 58.7698 96.8809 58.7698 99.3552Z" fill="#2D3E50" transform="matrix(-1 0 0 1.01976 2330 1127)"/><path d="M66.4125 113.059C66.4125 115.534 64.4066 117.54 61.9323 117.54 59.4579 117.54 57.4521 115.534 57.4521 113.059 57.4521 110.585 59.4579 108.579 61.9323 108.579 64.4066 108.579 66.4125 110.585 66.4125 113.059Z" fill="#2D3E50" transform="matrix(-1 0 0 1.01976 2330 1127)"/><path d="M49.8094 109.897C49.8094 112.371 47.8035 114.377 45.3292 114.377 42.8548 114.377 40.849 112.371 40.849 109.897 40.849 107.423 42.8548 105.417 45.3292 105.417 47.8035 105.417 49.8094 107.423 49.8094 109.897Z" fill="#2D3E50" transform="matrix(-1 0 0 1.01976 2330 1127)"/><path d="M54.2896 126.5C54.2896 129.848 51.5758 132.561 48.2281 132.561 44.8805 132.561 42.1667 129.848 42.1667 126.5 42.1667 123.152 44.8805 120.439 48.2281 120.439 51.5758 120.439 54.2896 123.152 54.2896 126.5Z" fill="#2D3E50" transform="matrix(-1 0 0 1.01976 2330 1127)"/><path d="M113.323 192.122 94.3479 172.093 104.89 158.916 104.89 158.652 88.8135 160.233 89.3406 137.832C83.0156 139.941 76.6906 142.312 70.6292 145.211 69.575 146.266 68.7844 147.847 68.5208 149.428L68.5208 174.728 85.3875 212.942C85.9146 213.996 86.1781 215.05 86.4417 216.104L113.323 216.104 113.323 192.122Z" fill="#2D3E50" transform="matrix(-1 0 0 1.01976 2330 1127)"/><path d="M118.594 189.75 118.594 216.104 134.406 216.104 134.406 189.75 153.381 134.933C144.421 132.825 135.46 131.771 126.5 131.771 117.54 131.771 108.579 132.825 99.8823 134.933L118.594 189.75Z" fill="#2D3E50" transform="matrix(-1 0 0 1.01976 2330 1127)"/><path d="M202.4 157.071C190.804 148.11 177.627 141.785 163.659 137.832L164.186 160.233 148.11 158.652 148.11 158.916 158.652 172.093 139.677 192.122 139.677 216.104 210.833 216.104 210.833 173.938C210.57 167.349 207.671 161.024 202.4 157.071Z" fill="#2D3E50" transform="matrix(-1 0 0 1.01976 2330 1127)"/></g></g></g><g><g><g><path d="M184 86.25C184 111.655 163.405 132.25 138 132.25 112.595 132.25 92 111.655 92 86.25 92 60.8449 112.595 40.25 138 40.25 163.405 40.25 184 60.8449 184 86.25Z" fill="#2D3E50" transform="matrix(-1 0 0 1.02536 2213 1173)"/><path d="M230 235.75 230 189.75C230 182.85 226.55 175.95 220.8 171.35 208.15 161 192.05 154.1 175.95 149.5 164.45 146.05 151.8 143.75 138 143.75 125.35 143.75 112.7 146.05 100.05 149.5 83.95 154.1 67.85 162.15 55.2 171.35 49.45 175.95 46 182.85 46 189.75L46 235.75 230 235.75Z" fill="#2D3E50" transform="matrix(-1 0 0 1.02536 2213 1173)"/></g></g></g></g></svg>