<svg width="2418" height="1173" xmlns="http://www.w3.org/2000/svg" xmlns:xlink="http://www.w3.org/1999/xlink" xml:space="preserve" overflow="hidden"><g transform="translate(-960 -685)"><path d="M2122.44 936.965C2192.29 1038.31 2228.33 1095.34 2250.53 1158.37 2272.73 1221.4 2333.52 1308.45 2394.98 1408.04 2340.99 1438.15 2313.17 1459.92 2273.54 1478.3 2233.9 1496.68 2197.28 1521.49 2156.86 1545.8 2111.2 1454.59 2079.14 1411.75 2023.32 1314.97 1967.5 1218.2 1927.62 1132.77 1884.32 1074.72 1905 1057.6 1947.61 1031.35 1998.62 1008.6 2049.63 985.849 2084.31 965.869 2122.44 936.965Z" fill="#1FC2A7" fill-rule="evenodd"/><path d="M2122.44 936.965C2169.27 1031.5 2195.2 1073.29 2258.71 1172.51 2322.21 1271.72 2366.51 1358.67 2394.98 1408.04 2354.87 1436.17 2302.96 1469.07 2273.54 1478.3 2244.12 1487.53 2187.95 1526.01 2156.86 1545.8 2128.86 1478.4 2063.24 1380.41 2015.14 1300.84 1967.05 1221.27 1919.54 1159.86 1884.32 1074.72 1935.53 1038.39 1965.71 1021.11 1998.62 1008.6 2031.53 996.087 2083.95 966.555 2122.44 936.965Z" stroke="#024A5D" stroke-width="4.58333" stroke-miterlimit="8" fill="none" fill-rule="evenodd"/><path d="M1008.39 1035.24C989.084 1000.75 988.925 924.218 1009.6 878.441 1030.28 832.664 1068.69 768.279 1175.57 766.696 1212.69 766.146 1267.13 757.321 1302.07 748.706 1337 740.092 1369.74 714.459 1385.2 715.009 1400.67 715.559 1397.37 730.269 1394.87 752.006 1392.37 773.742 1381.04 817.628 1370.2 845.428 1359.37 873.228 1329.61 954.117 1307.12 991.047 1284.63 1027.98 1265.54 1051.29 1235.26 1067.01 1204.98 1082.73 1163.27 1090.66 1125.46 1085.36 1087.65 1080.07 1027.7 1069.73 1008.39 1035.24Z" stroke="#2D3E50" stroke-width="13.75" stroke-linecap="round" stroke-miterlimit="8" fill="none" fill-rule="evenodd"/><path d="M967 1144C985.148 1063.87 1003.3 983.733 1163 931" stroke="#2D3E50" stroke-width="13.75" stroke-linecap="round" stroke-miterlimit="8" fill="none" fill-rule="evenodd"/><g><g><g><path d="M134.167 64.1666C134.167 73.8316 126.332 81.6666 116.667 81.6666 107.002 81.6666 99.1666 73.8316 99.1666 64.1666 99.1666 54.5016 107.002 46.6666 116.667 46.6666 126.332 46.6666 134.167 54.5016 134.167 64.1666Z" stroke="#E7E6E6" stroke-width="2.91677" fill="#2D3E50" transform="matrix(1 0 0 1.02143 1160 761)"/><path d="M116.667 20.4167C116.667 25.2491 112.749 29.1666 107.917 29.1666 103.084 29.1666 99.1666 25.2491 99.1666 20.4167 99.1666 15.5842 103.084 11.6667 107.917 11.6667 112.749 11.6667 116.667 15.5842 116.667 20.4167Z" stroke="#E7E6E6" stroke-width="2.91677" fill="#2D3E50" transform="matrix(1 0 0 1.02143 1160 761)"/><path d="M166.25 72.9166C166.25 77.7491 162.332 81.6666 157.5 81.6666 152.667 81.6666 148.75 77.7491 148.75 72.9166 148.75 68.0841 152.667 64.1666 157.5 64.1666 162.332 64.1666 166.25 68.0841 166.25 72.9166Z" stroke="#E7E6E6" stroke-width="2.91677" fill="#2D3E50" transform="matrix(1 0 0 1.02143 1160 761)"/><path d="M175 35C175 41.4433 169.777 46.6666 163.333 46.6666 156.89 46.6666 151.667 41.4433 151.667 35 151.667 28.5567 156.89 23.3333 163.333 23.3333 169.777 23.3333 175 28.5567 175 35Z" stroke="#E7E6E6" stroke-width="2.91677" fill="#2D3E50" transform="matrix(1 0 0 1.02143 1160 761)"/><path d="M221.375 94.7916C220.792 92.1666 218.458 90.4166 215.833 90.4166L64.1666 90.4166C61.5416 90.4166 59.2083 92.1666 58.625 94.7916 58.0416 97.4166 59.2083 100.042 61.5416 101.208 61.5416 101.208 70.2916 106.167 70.2916 116.667L70.2916 250.833C70.2916 260.458 78.1666 268.333 87.7916 268.333L192.792 268.333C202.417 268.333 210.292 260.458 210.292 250.833L210.292 116.667C210.292 106.167 218.458 101.5 218.75 101.5 220.792 100.042 222.25 97.4166 221.375 94.7916ZM180.833 245 145.833 245 145.833 233.333 180.833 233.333 180.833 245ZM180.833 221.667 145.833 221.667 145.833 210 180.833 210 180.833 221.667ZM180.833 198.333 145.833 198.333 145.833 186.667 180.833 186.667 180.833 198.333ZM180.833 175 145.833 175 145.833 163.333 180.833 163.333 180.833 175ZM180.833 151.667 145.833 151.667 145.833 140 180.833 140 180.833 151.667ZM198.333 116.667 198.333 122.208C189.292 118.708 174.708 113.75 160.417 113.75 144.667 113.75 135.042 116.375 125.125 119 114.333 121.917 102.958 124.833 81.6666 125.417L81.6666 116.667C81.6666 110.833 79.9166 105.875 77.8749 102.083L202.125 102.083C200.083 105.875 198.333 110.833 198.333 116.667Z" stroke="#E7E6E6" stroke-width="2.91677" fill="#2D3E50" transform="matrix(1 0 0 1.02143 1160 761)"/></g></g></g><g><g><g><path d="M84.2813 136.594C111.984 136.594 133.688 123.827 133.688 107.531 133.688 91.2359 111.984 78.4688 84.2813 78.4688 56.5789 78.4688 34.875 91.2359 34.875 107.531 34.875 123.827 56.5789 136.594 84.2813 136.594ZM84.2813 90.0938C106.546 90.0938 122.063 99.2834 122.063 107.531 122.063 115.779 106.546 124.969 84.2813 124.969 62.0165 124.969 46.5 115.779 46.5 107.531 46.5 99.2834 62.0165 90.0938 84.2813 90.0938Z" stroke="#E7E6E6" stroke-width="2.90635" fill="#2D3E50" transform="matrix(1 0 0 1.02509 1045 918)"/><path d="M110.438 107.531C110.438 113.952 98.727 119.156 84.2813 119.156 69.8356 119.156 58.125 113.952 58.125 107.531 58.125 101.111 69.8356 95.9063 84.2813 95.9063 98.727 95.9063 110.438 101.111 110.438 107.531Z" stroke="#E7E6E6" stroke-width="2.90635" fill="#2D3E50" transform="matrix(1 0 0 1.02509 1045 918)"/><path d="M260.58 115.634C228.487 101.181 195.283 101.393 161.736 116.087 162.405 113.284 162.745 110.413 162.75 107.531 162.75 78.1985 128.285 55.2188 84.2813 55.2188 40.2777 55.2188 5.8125 78.1985 5.8125 107.531L5.8125 167.673C5.8125 199.136 41.7599 223.781 87.6496 223.781 115.259 223.781 143.92 208.637 159.315 200.499 191.449 183.515 223.113 181.821 253.419 195.469L273.188 204.376 273.188 121.313ZM177.281 128.642C181.093 127.296 184.973 126.153 188.906 125.219L188.906 162.75 177.281 162.75ZM31.9688 148.219 34.4333 148.219C37.3994 149.821 40.4585 151.246 43.5938 152.485L43.5938 168.563 31.9688 168.563ZM90.0938 159.693C94.0658 159.499 97.9407 159.13 101.719 158.585L101.719 177.281 90.0938 177.281ZM119.156 154.569C123.134 153.288 127.018 151.734 130.781 149.919L130.781 186 119.156 186ZM148.219 141.909C152.389 140.064 156.147 138.236 159.315 136.562 159.492 136.469 159.667 136.39 159.844 136.297L159.844 156.938 148.219 156.938ZM72.6563 191.813 61.0313 191.813 61.0313 157.591C64.8748 158.355 68.7549 158.923 72.6563 159.292ZM206.344 142.406 206.344 122.621C210.215 122.385 214.097 122.385 217.969 122.621L217.969 142.406ZM84.2813 72.6563C117.363 72.6563 145.313 88.6407 145.313 107.531 145.313 126.422 117.363 142.406 84.2813 142.406 51.1994 142.406 23.25 126.436 23.25 107.531 23.25 88.6261 51.1994 72.6563 84.2813 72.6563ZM255.75 177.508C249.858 175.132 243.79 173.218 237.601 171.786 234.422 164.789 232.688 157.224 232.5 149.541 232.614 141.328 235.031 133.312 239.475 126.404 244.238 127.789 248.899 129.502 253.425 131.531L255.75 132.58Z" stroke="#E7E6E6" stroke-width="2.90635" fill="#2D3E50" transform="matrix(1 0 0 1.02509 1045 918)"/></g></g></g><g><g><g><path d="M211.167 9.04166 9.04166 211.167 68.8333 270.958 270.666 69.125 211.167 9.04166ZM215.25 99.7499 192.5 122.5 174.417 104.417 166.25 112.583 184.333 130.667 161.583 153.417 143.5 135.333 135.333 143.5 153.417 161.583 130.667 184.333 112.583 166.25 104.417 174.417 122.5 192.5 99.7499 215.25 81.6666 197.167 73.4999 205.333 91.5833 223.417 69.125 245.875 34.125 210.875 211.167 33.8333 246.167 68.8333 223.708 91.2916 205.625 73.2083 197.167 81.6666 215.25 99.7499Z" stroke="#E7E6E6" stroke-width="2.91677" fill="#2D3E50" transform="matrix(1 0 0 1.02143 1236 906)"/></g></g></g><path d="M3210 1243C3210 1219.8 3228.36 1201 3251 1201 3273.64 1201 3292 1219.8 3292 1243 3292 1266.2 3273.64 1285 3251 1285 3228.36 1285 3210 1266.2 3210 1243Z" fill="#2D3E50" fill-rule="evenodd"/><path d="M2752 1436C2752 1412.8 2770.36 1394 2793 1394 2815.64 1394 2834 1412.8 2834 1436 2834 1459.2 2815.64 1478 2793 1478 2770.36 1478 2752 1459.2 2752 1436Z" fill="#2D3E50" fill-rule="evenodd"/><path d="M2990 1354C2990 1336.88 3003.21 1323 3019.5 1323 3035.79 1323 3049 1336.88 3049 1354 3049 1371.12 3035.79 1385 3019.5 1385 3003.21 1385 2990 1371.12 2990 1354Z" fill="#2D3E50" fill-rule="evenodd"/><path d="M3224 1538C3224 1520.88 3237.43 1507 3254 1507 3270.57 1507 3284 1520.88 3284 1538 3284 1555.12 3270.57 1569 3254 1569 3237.43 1569 3224 1555.12 3224 1538Z" fill="#2D3E50" fill-rule="evenodd"/><path d="M3318 1321C3318 1303.88 3331.43 1290 3348 1290 3364.57 1290 3378 1303.88 3378 1321 3378 1338.12 3364.57 1352 3348 1352 3331.43 1352 3318 1338.12 3318 1321Z" fill="#2D3E50" fill-rule="evenodd"/><path d="M2669 1254C2669 1236.88 2682.43 1223 2699 1223 2715.57 1223 2729 1236.88 2729 1254 2729 1271.12 2715.57 1285 2699 1285 2682.43 1285 2669 1271.12 2669 1254Z" fill="#2D3E50" fill-rule="evenodd"/><path d="M2986 1209C2986 1200.16 2992.94 1193 3001.5 1193 3010.06 1193 3017 1200.16 3017 1209 3017 1217.84 3010.06 1225 3001.5 1225 2992.94 1225 2986 1217.84 2986 1209Z" fill="#2D3E50" fill-rule="evenodd"/><path d="M3175 1133.5C3175 1124.94 3181.72 1118 3190 1118 3198.28 1118 3205 1124.94 3205 1133.5 3205 1142.06 3198.28 1149 3190 1149 3181.72 1149 3175 1142.06 3175 1133.5Z" fill="#2D3E50" fill-rule="evenodd"/><path d="M3314 1128C3314 1119.16 3320.72 1112 3329 1112 3337.28 1112 3344 1119.16 3344 1128 3344 1136.84 3337.28 1144 3329 1144 3320.72 1144 3314 1136.84 3314 1128Z" fill="#2D3E50" fill-rule="evenodd"/><path d="M3260 1318.5C3260 1309.94 3266.72 1303 3275 1303 3283.28 1303 3290 1309.94 3290 1318.5 3290 1327.06 3283.28 1334 3275 1334 3266.72 1334 3260 1327.06 3260 1318.5Z" fill="#2D3E50" fill-rule="evenodd"/><path d="M3173 1424C3173 1415.16 3179.72 1408 3188 1408 3196.28 1408 3203 1415.16 3203 1424 3203 1432.84 3196.28 1440 3188 1440 3179.72 1440 3173 1432.84 3173 1424Z" fill="#2D3E50" fill-rule="evenodd"/><path d="M3317 1525.5C3317 1516.94 3323.72 1510 3332 1510 3340.28 1510 3347 1516.94 3347 1525.5 3347 1534.06 3340.28 1541 3332 1541 3323.72 1541 3317 1534.06 3317 1525.5Z" fill="#2D3E50" fill-rule="evenodd"/><path d="M3181 1606C3181 1597.16 3187.72 1590 3196 1590 3204.28 1590 3211 1597.16 3211 1606 3211 1614.84 3204.28 1622 3196 1622 3187.72 1622 3181 1614.84 3181 1606Z" fill="#2D3E50" fill-rule="evenodd"/><path d="M2676 1496C2676 1487.16 2682.94 1480 2691.5 1480 2700.06 1480 2707 1487.16 2707 1496 2707 1504.84 2700.06 1512 2691.5 1512 2682.94 1512 2676 1504.84 2676 1496Z" fill="#2D3E50" fill-rule="evenodd"/><path d="M2628 1436C2628 1427.16 2634.94 1420 2643.5 1420 2652.06 1420 2659 1427.16 2659 1436 2659 1444.84 2652.06 1452 2643.5 1452 2634.94 1452 2628 1444.84 2628 1436Z" fill="#2D3E50" fill-rule="evenodd"/><path d="M2794 1291C2794 1282.16 2800.94 1275 2809.5 1275 2818.06 1275 2825 1282.16 2825 1291 2825 1299.84 2818.06 1307 2809.5 1307 2800.94 1307 2794 1299.84 2794 1291Z" fill="#2D3E50" fill-rule="evenodd"/><path d="M2699.38 1267.82 2706.78 1263.88 2805.46 1449.09 2798.06 1453.03Z" fill="#2D3E50" fill-rule="evenodd"/><path d="M2805.88 1280.13 2814.24 1280.73 2802.02 1451.99 2793.66 1451.4Z" fill="#2D3E50" fill-rule="evenodd"/><rect x="2785" y="1434" width="167" height="8.99988" fill="#2D3E50"/><path d="M3224.34 1536.46 3224.49 1545.04 3056.85 1547.97 3056.7 1539.39Z" fill="#2D3E50" fill-rule="evenodd"/><path d="M3217.2 1258.64 3220.82 1266.42 3038.4 1351.3 3034.77 1343.52Z" fill="#2D3E50" fill-rule="evenodd"/><path d="M2997.79 1212.5 3006.1 1211.39 3024.26 1347.55 3015.95 1348.66Z" fill="#2D3E50" fill-rule="evenodd"/><path d="M3188.38 1136.14 3195.72 1132.08 3245.66 1222.18 3238.33 1226.25Z" fill="#2D3E50" fill-rule="evenodd"/><path d="M3013.85 1354.83 3020.49 1359.94 2957.72 1441.63 2951.07 1436.52Z" fill="#2D3E50" fill-rule="evenodd"/><path d="M3189.46 1438.88 3196.65 1434.57 3249.71 1522.87 3242.52 1527.19Z" fill="#2D3E50" fill-rule="evenodd"/><path d="M3323.2 1130.36 3329.89 1135.41 3267.89 1217.68 3261.2 1212.64Z" fill="#2D3E50" fill-rule="evenodd"/><path d="M3262.11 1522.56 3268.44 1528.06 3200.85 1605.81 3194.53 1600.31Z" fill="#2D3E50" fill-rule="evenodd"/><path d="M2777.28 1443.5 2781.44 1451.01 2693.45 1499.78 2689.29 1492.27Z" fill="#2D3E50" fill-rule="evenodd"/><path d="M2815.6 1440.4 2815.15 1448.97 2647.71 1440.2 2648.16 1431.62Z" fill="#2D3E50" fill-rule="evenodd"/><path d="M3235.15 1234.48 3240.66 1227.9 3343.42 1314.12 3337.9 1320.7Z" fill="#2D3E50" fill-rule="evenodd"/><path d="M3254.48 1540.09 3253.59 1531.55 3320.29 1524.54 3321.18 1533.08Z" fill="#2D3E50" fill-rule="evenodd"/><path d="M3248.57 1261.34 3256.33 1258.16 3282.35 1321.72 3274.59 1324.9Z" fill="#2D3E50" fill-rule="evenodd"/><path d="M2687.5 1186.83C2687.5 1180.57 2692.57 1175.5 2698.83 1175.5L2707.17 1175.5 2707.17 1175.5 2736.67 1175.5 2794.17 1175.5C2800.43 1175.5 2805.5 1180.57 2805.5 1186.83L2805.5 1215.17 2805.5 1215.17 2805.5 1232.17 2805.5 1232.17C2805.5 1238.43 2800.43 1243.5 2794.17 1243.5L2736.67 1243.5 2711.79 1267.93 2707.17 1243.5 2698.83 1243.5C2692.57 1243.5 2687.5 1238.43 2687.5 1232.17L2687.5 1232.17 2687.5 1215.17 2687.5 1215.17Z" stroke="#2D3E50" stroke-width="4.58333" stroke-miterlimit="8" fill="#1FC2A7" fill-rule="evenodd" fill-opacity="0.698039"/><path d="M0 6.8335C-1.05034e-15 3.05946 3.05946-1.05034e-15 6.8335-2.10067e-15L11 0 11 0 27.5 0 59.1665 0C62.9405-2.10067e-15 66 3.05946 66 6.8335L66 23.9168 66 23.9168 66 34.1669 66 34.1668C66 37.9408 62.9405 41.0003 59.1665 41.0003L27.5 41.0003 13.5861 55.7304 11 41.0003 6.8335 41.0003C3.05946 41.0003 0 37.9408 0 34.1668L0 34.1669 0 23.9168 0 23.9168Z" stroke="#2D3E50" stroke-width="4.58333" stroke-miterlimit="8" fill="#1FC2A7" fill-rule="evenodd" fill-opacity="0.698039" transform="matrix(-1 0 0 1 3261.5 1189.5)"/><path d="M2881.5 1368.26C2881.5 1361.77 2886.77 1356.5 2893.26 1356.5L3195.74 1356.5C3202.23 1356.5 3207.5 1361.77 3207.5 1368.26L3207.5 1677.74C3207.5 1684.23 3202.23 1689.5 3195.74 1689.5L2893.26 1689.5C2886.77 1689.5 2881.5 1684.23 2881.5 1677.74Z" stroke="#1E2B38" stroke-width="4.58333" stroke-miterlimit="8" fill="#2D3E50" fill-rule="evenodd"/><text fill="#FFFFFF" font-family="Calibri,Calibri_MSFontService,sans-serif" font-weight="400" font-size="110" transform="matrix(1 0 0 1 2948.51 1560)">FDO</text><path d="M1471.5 885.319C1531.86 883.228 1583.16 873.621 1645.34 885.319 1707.53 897.018 1791.07 897.496 1830.65 885.319 1870.22 873.143 1987.85 895.294 2044.61 885.319 2043.96 879.289 2045.24 862.758 2044.61 856.5 2062.85 872.42 2094.52 889.014 2124.5 905 2106.71 921.613 2067.38 937.195 2044.61 953.5 2045.22 945.053 2043.92 935.296 2044.61 924.681 1983.17 913.779 1925.89 919.056 1853.57 924.681 1781.26 930.306 1711.87 933.199 1651.07 924.681 1590.28 916.163 1523.44 932.103 1471.5 924.681 1470.36 909.954 1472.36 902.976 1471.5 885.319Z" fill="#1FC2A7" fill-rule="evenodd"/><path d="M1471.5 885.319C1519.24 897.167 1585.17 874.799 1656.81 885.319 1728.44 895.84 1746.93 892.869 1836.38 885.319 1925.83 877.77 1947.26 885.683 2044.61 885.319 2044.33 874.134 2044.09 867.849 2044.61 856.5 2064.7 865.916 2097.57 893.916 2124.5 905 2100.59 913.312 2076.27 937.233 2044.61 953.5 2045.67 943.642 2044.58 939.019 2044.61 924.681 1974.3 930.966 1949.7 915.883 1865.04 924.681 1780.37 933.479 1746.19 930.669 1691.19 924.681 1636.19 918.693 1560.57 915.582 1471.5 924.681 1472.72 907.502 1472.65 893.59 1471.5 885.319Z" stroke="#2D3E50" stroke-width="4.58333" stroke-miterlimit="8" fill="none" fill-rule="evenodd"/><path d="M2157.5 882.5C2180.29 880.579 2210.48 876.904 2233.5 882.5 2234.53 887.512 2232.74 912.414 2233.5 922.5 2204.56 919.724 2174.62 930.642 2157.5 922.5 2158.65 916.395 2159.83 893.754 2157.5 882.5Z" fill="#1FC2A7" fill-rule="evenodd"/><path d="M2157.5 882.5C2175.52 877.334 2219.99 874.321 2233.5 882.5 2235.41 887.118 2233.57 916.715 2233.5 922.5 2220.38 929.128 2172.49 931.49 2157.5 922.5 2158.49 905.705 2156.9 891.8 2157.5 882.5Z" stroke="#2D3E50" stroke-width="4.58333" stroke-miterlimit="8" fill="none" fill-rule="evenodd"/><path d="M2268.5 881.5C2291.29 879.627 2321.48 876.044 2344.5 881.5 2345.53 886.387 2343.74 910.666 2344.5 920.5 2315.56 917.794 2285.62 928.438 2268.5 920.5 2269.65 914.548 2270.83 892.473 2268.5 881.5Z" fill="#1FC2A7" fill-rule="evenodd"/><path d="M2268.5 881.5C2286.52 876.463 2330.99 873.526 2344.5 881.5 2346.41 886.002 2344.57 914.859 2344.5 920.5 2331.38 926.962 2283.49 929.265 2268.5 920.5 2269.49 904.125 2267.9 890.568 2268.5 881.5Z" stroke="#2D3E50" stroke-width="4.58333" stroke-miterlimit="8" fill="none" fill-rule="evenodd"/><path d="M2379.5 879.5C2401.99 877.627 2431.78 874.044 2454.5 879.5 2455.51 884.387 2453.75 908.666 2454.5 918.5 2425.94 915.794 2396.4 926.438 2379.5 918.5 2380.63 912.548 2381.8 890.473 2379.5 879.5Z" fill="#1FC2A7" fill-rule="evenodd"/><path d="M2379.5 879.5C2397.28 874.464 2441.16 871.526 2454.5 879.5 2456.38 884.003 2454.57 912.859 2454.5 918.5 2441.55 924.962 2394.3 927.265 2379.5 918.5 2380.47 902.125 2378.9 888.568 2379.5 879.5Z" stroke="#2D3E50" stroke-width="4.58333" stroke-miterlimit="8" fill="none" fill-rule="evenodd"/><path d="M2490.5 877.5C2512.99 875.627 2542.78 872.044 2565.5 877.5 2566.51 882.387 2564.75 906.666 2565.5 916.5 2536.94 913.794 2507.4 924.438 2490.5 916.5 2491.63 910.548 2492.8 888.473 2490.5 877.5Z" fill="#1FC2A7" fill-rule="evenodd"/><path d="M2490.5 877.5C2508.28 872.464 2552.16 869.526 2565.5 877.5 2567.38 882.003 2565.57 910.859 2565.5 916.5 2552.55 922.962 2505.3 925.265 2490.5 916.5 2491.47 900.125 2489.9 886.568 2490.5 877.5Z" stroke="#2D3E50" stroke-width="4.58333" stroke-miterlimit="8" fill="none" fill-rule="evenodd"/><path d="M2601.5 875.5C2623.99 873.627 2653.78 870.044 2676.5 875.5 2677.51 880.387 2675.75 904.666 2676.5 914.5 2647.94 911.794 2618.4 922.438 2601.5 914.5 2602.63 908.548 2603.8 886.473 2601.5 875.5Z" fill="#1FC2A7" fill-rule="evenodd"/><path d="M2601.5 875.5C2619.28 870.463 2663.16 867.526 2676.5 875.5 2678.38 880.003 2676.57 908.859 2676.5 914.5 2663.55 920.962 2616.3 923.265 2601.5 914.5 2602.47 898.125 2600.9 884.568 2601.5 875.5Z" stroke="#2D3E50" stroke-width="4.58333" stroke-miterlimit="8" fill="none" fill-rule="evenodd"/><path d="M2706.5 873.5C2728.99 871.579 2758.78 867.904 2781.5 873.5 2782.51 878.512 2780.75 903.414 2781.5 913.5 2752.94 910.724 2723.4 921.642 2706.5 913.5 2707.63 907.395 2708.8 884.754 2706.5 873.5Z" fill="#1FC2A7" fill-rule="evenodd"/><path d="M2706.5 873.5C2724.28 868.334 2768.16 865.322 2781.5 873.5 2783.38 878.118 2781.57 907.714 2781.5 913.5 2768.55 920.128 2721.3 922.49 2706.5 913.5 2707.47 896.705 2705.9 882.8 2706.5 873.5Z" stroke="#2D3E50" stroke-width="4.58333" stroke-miterlimit="8" fill="none" fill-rule="evenodd"/><path d="M2164.5 1587.32C2224.77 1585.23 2275.99 1575.62 2338.08 1587.32 2400.17 1599.02 2483.58 1599.5 2523.1 1587.32 2562.61 1575.14 2680.06 1597.29 2736.73 1587.32 2736.08 1581.29 2737.36 1564.76 2736.73 1558.5 2754.94 1574.42 2786.57 1591.01 2816.5 1607 2798.74 1623.61 2759.47 1639.19 2736.73 1655.5 2737.35 1647.05 2736.04 1637.3 2736.73 1626.68 2675.39 1615.78 2618.19 1621.06 2545.99 1626.68 2473.78 1632.31 2404.5 1635.2 2343.8 1626.68 2283.1 1618.16 2216.36 1634.1 2164.5 1626.68 2163.36 1611.95 2165.36 1604.98 2164.5 1587.32Z" fill="#1FC2A7" fill-rule="evenodd"/><path d="M2164.5 1587.32C2212.17 1599.17 2277.99 1576.8 2349.52 1587.32 2421.05 1597.84 2439.51 1594.87 2528.82 1587.32 2618.13 1579.77 2639.53 1587.68 2736.73 1587.32 2736.45 1576.13 2736.22 1569.85 2736.73 1558.5 2756.79 1567.92 2789.61 1595.92 2816.5 1607 2792.63 1615.31 2768.34 1639.23 2736.73 1655.5 2737.79 1645.64 2736.7 1641.02 2736.73 1626.68 2666.53 1632.97 2641.97 1617.88 2557.43 1626.68 2472.9 1635.48 2438.77 1632.67 2383.86 1626.68 2328.94 1620.69 2253.44 1617.58 2164.5 1626.68 2165.72 1609.5 2165.65 1595.59 2164.5 1587.32Z" stroke="#2D3E50" stroke-width="4.58333" stroke-miterlimit="8" fill="none" fill-rule="evenodd"/><path d="M1503.5 1599.5C1526.3 1597.63 1556.48 1594.04 1579.5 1599.5 1580.53 1604.39 1578.74 1628.67 1579.5 1638.5 1550.56 1635.79 1520.62 1646.44 1503.5 1638.5 1504.65 1632.55 1505.83 1610.47 1503.5 1599.5Z" fill="#1FC2A7" fill-rule="evenodd"/><path d="M1503.5 1599.5C1521.52 1594.46 1565.99 1591.53 1579.5 1599.5 1581.41 1604 1579.57 1632.86 1579.5 1638.5 1566.38 1644.96 1518.49 1647.27 1503.5 1638.5 1504.49 1622.12 1502.9 1608.57 1503.5 1599.5Z" stroke="#2D3E50" stroke-width="4.58333" stroke-miterlimit="8" fill="none" fill-rule="evenodd"/><path d="M1614.5 1597.5C1636.99 1595.63 1666.78 1592.04 1689.5 1597.5 1690.51 1602.39 1688.75 1626.67 1689.5 1636.5 1660.94 1633.79 1631.4 1644.44 1614.5 1636.5 1615.63 1630.55 1616.8 1608.47 1614.5 1597.5Z" fill="#1FC2A7" fill-rule="evenodd"/><path d="M1614.5 1597.5C1632.28 1592.46 1676.16 1589.53 1689.5 1597.5 1691.38 1602 1689.57 1630.86 1689.5 1636.5 1676.55 1642.96 1629.3 1645.27 1614.5 1636.5 1615.47 1620.12 1613.9 1606.57 1614.5 1597.5Z" stroke="#2D3E50" stroke-width="4.58333" stroke-miterlimit="8" fill="none" fill-rule="evenodd"/><path d="M1725.5 1595.5C1747.99 1593.63 1777.78 1590.04 1800.5 1595.5 1801.51 1600.39 1799.75 1624.67 1800.5 1634.5 1771.94 1631.79 1742.4 1642.44 1725.5 1634.5 1726.63 1628.55 1727.8 1606.47 1725.5 1595.5Z" fill="#1FC2A7" fill-rule="evenodd"/><path d="M1725.5 1595.5C1743.28 1590.46 1787.16 1587.53 1800.5 1595.5 1802.38 1600 1800.57 1628.86 1800.5 1634.5 1787.55 1640.96 1740.3 1643.27 1725.5 1634.5 1726.47 1618.12 1724.9 1604.57 1725.5 1595.5Z" stroke="#2D3E50" stroke-width="4.58333" stroke-miterlimit="8" fill="none" fill-rule="evenodd"/><path d="M1836.5 1593.5C1858.99 1591.63 1888.78 1588.04 1911.5 1593.5 1912.51 1598.39 1910.75 1622.67 1911.5 1632.5 1882.94 1629.79 1853.4 1640.44 1836.5 1632.5 1837.63 1626.55 1838.8 1604.47 1836.5 1593.5Z" fill="#1FC2A7" fill-rule="evenodd"/><path d="M1836.5 1593.5C1854.28 1588.46 1898.16 1585.53 1911.5 1593.5 1913.38 1598 1911.57 1626.86 1911.5 1632.5 1898.55 1638.96 1851.3 1641.27 1836.5 1632.5 1837.47 1616.12 1835.9 1602.57 1836.5 1593.5Z" stroke="#2D3E50" stroke-width="4.58333" stroke-miterlimit="8" fill="none" fill-rule="evenodd"/><path d="M1947.5 1591.5C1969.99 1589.63 1999.78 1586.04 2022.5 1591.5 2023.51 1596.39 2021.75 1620.67 2022.5 1630.5 1993.94 1627.79 1964.4 1638.44 1947.5 1630.5 1948.63 1624.55 1949.8 1602.47 1947.5 1591.5Z" fill="#1FC2A7" fill-rule="evenodd"/><path d="M1947.5 1591.5C1965.28 1586.46 2009.16 1583.53 2022.5 1591.5 2024.38 1596 2022.57 1624.86 2022.5 1630.5 2009.55 1636.96 1962.3 1639.27 1947.5 1630.5 1948.47 1614.12 1946.9 1600.57 1947.5 1591.5Z" stroke="#2D3E50" stroke-width="4.58333" stroke-miterlimit="8" fill="none" fill-rule="evenodd"/><path d="M2052.5 1589.5C2074.99 1587.58 2104.78 1583.9 2127.5 1589.5 2128.51 1594.51 2126.75 1619.41 2127.5 1629.5 2098.94 1626.72 2069.4 1637.64 2052.5 1629.5 2053.63 1623.39 2054.8 1600.75 2052.5 1589.5Z" fill="#1FC2A7" fill-rule="evenodd"/><path d="M2052.5 1589.5C2070.28 1584.33 2114.16 1581.32 2127.5 1589.5 2129.38 1594.12 2127.57 1623.71 2127.5 1629.5 2114.55 1636.13 2067.3 1638.49 2052.5 1629.5 2053.47 1612.7 2051.9 1598.8 2052.5 1589.5Z" stroke="#2D3E50" stroke-width="4.58333" stroke-miterlimit="8" fill="none" fill-rule="evenodd"/><g><g><g><path d="M168 78.75C168 101.946 149.196 120.75 126 120.75 102.804 120.75 84 101.946 84 78.75 84 55.554 102.804 36.75 126 36.75 149.196 36.75 168 55.554 168 78.75Z" fill="#2D3E50" transform="matrix(-1 0 0 1.02778 2105 1126)"/><path d="M210 215.25 210 173.25C210 166.95 206.85 160.65 201.6 156.45 190.05 147 175.35 140.7 160.65 136.5 150.15 133.35 138.6 131.25 126 131.25 114.45 131.25 102.9 133.35 91.35 136.5 76.65 140.7 61.95 148.05 50.4 156.45 45.15 160.65 42 166.95 42 173.25L42 215.25 210 215.25Z" fill="#2D3E50" transform="matrix(-1 0 0 1.02778 2105 1126)"/></g></g></g><g><g><g><path d="M168.667 79.0625C168.667 102.351 149.788 121.229 126.5 121.229 103.212 121.229 84.3333 102.351 84.3333 79.0625 84.3333 55.7745 103.212 36.8958 126.5 36.8958 149.788 36.8958 168.667 55.7745 168.667 79.0625Z" fill="#2D3E50" transform="matrix(-1 0 0 1.01976 2330 1127)"/><path d="M80.6438 215.05 63.25 175.782 63.25 149.165C63.25 146.002 65.0948 142.84 67.7302 141.258 69.3115 140.468 69.8385 138.623 69.0479 137.305 68.5208 136.251 67.4667 135.46 66.149 135.724L36.1052 135.724C34.524 135.724 32.9427 136.778 32.9427 138.623 32.9427 139.941 33.4698 140.995 34.524 141.522 37.4229 143.103 39.0042 146.266 39.0042 149.428L39.0042 176.046 21.874 215.05C19.7656 219.53 21.874 225.065 26.6177 226.909 27.6719 227.436 28.9896 227.7 30.3073 227.7L72.474 227.7C77.4813 227.7 81.4344 223.747 81.4344 218.74 81.4344 217.422 81.1708 216.104 80.6438 215.05L80.6438 215.05ZM45.3292 155.226 45.3292 149.165C45.3292 146.529 44.8021 143.894 43.2208 141.522L59.2969 141.522C57.9792 143.894 57.1885 146.529 57.1885 149.165L57.1885 155.226 45.3292 155.226Z" fill="#2D3E50" transform="matrix(-1 0 0 1.01976 2330 1127)"/><path d="M58.7698 99.3552C58.7698 101.83 56.7639 103.835 54.2896 103.835 51.8152 103.835 49.8094 101.83 49.8094 99.3552 49.8094 96.8809 51.8152 94.875 54.2896 94.875 56.7639 94.875 58.7698 96.8809 58.7698 99.3552Z" fill="#2D3E50" transform="matrix(-1 0 0 1.01976 2330 1127)"/><path d="M66.4125 113.059C66.4125 115.534 64.4066 117.54 61.9323 117.54 59.4579 117.54 57.4521 115.534 57.4521 113.059 57.4521 110.585 59.4579 108.579 61.9323 108.579 64.4066 108.579 66.4125 110.585 66.4125 113.059Z" fill="#2D3E50" transform="matrix(-1 0 0 1.01976 2330 1127)"/><path d="M49.8094 109.897C49.8094 112.371 47.8035 114.377 45.3292 114.377 42.8548 114.377 40.849 112.371 40.849 109.897 40.849 107.423 42.8548 105.417 45.3292 105.417 47.8035 105.417 49.8094 107.423 49.8094 109.897Z" fill="#2D3E50" transform="matrix(-1 0 0 1.01976 2330 1127)"/><path d="M54.2896 126.5C54.2896 129.848 51.5758 132.561 48.2281 132.561 44.8805 132.561 42.1667 129.848 42.1667 126.5 42.1667 123.152 44.8805 120.439 48.2281 120.439 51.5758 120.439 54.2896 123.152 54.2896 126.5Z" fill="#2D3E50" transform="matrix(-1 0 0 1.01976 2330 1127)"/><path d="M113.323 192.122 94.3479 172.093 104.89 158.916 104.89 158.652 88.8135 160.233 89.3406 137.832C83.0156 139.941 76.6906 142.312 70.6292 145.211 69.575 146.266 68.7844 147.847 68.5208 149.428L68.5208 174.728 85.3875 212.942C85.9146 213.996 86.1781 215.05 86.4417 216.104L113.323 216.104 113.323 192.122Z" fill="#2D3E50" transform="matrix(-1 0 0 1.01976 2330 1127)"/><path d="M118.594 189.75 118.594 216.104 134.406 216.104 134.406 189.75 153.381 134.933C144.421 132.825 135.46 131.771 126.5 131.771 117.54 131.771 108.579 132.825 99.8823 134.933L118.594 189.75Z" fill="#2D3E50" transform="matrix(-1 0 0 1.01976 2330 1127)"/><path d="M202.4 157.071C190.804 148.11 177.627 141.785 163.659 137.832L164.186 160.233 148.11 158.652 148.11 158.916 158.652 172.093 139.677 192.122 139.677 216.104 210.833 216.104 210.833 173.938C210.57 167.349 207.671 161.024 202.4 157.071Z" fill="#2D3E50" transform="matrix(-1 0 0 1.01976 2330 1127)"/></g></g></g><g><g><g><path d="M184 86.25C184 111.655 163.405 132.25 138 132.25 112.595 132.25 92 111.655 92 86.25 92 60.8449 112.595 40.25 138 40.25 163.405 40.25 184 60.8449 184 86.25Z" fill="#2D3E50" transform="matrix(-1 0 0 1.02536 2213 1173)"/><path d="M230 235.75 230 189.75C230 182.85 226.55 175.95 220.8 171.35 208.15 161 192.05 154.1 175.95 149.5 164.45 146.05 151.8 143.75 138 143.75 125.35 143.75 112.7 146.05 100.05 149.5 83.95 154.1 67.85 162.15 55.2 171.35 49.45 175.95 46 182.85 46 189.75L46 235.75 230 235.75Z" fill="#2D3E50" transform="matrix(-1 0 0 1.02536 2213 1173)"/></g></g></g><text fill="#2D3E50" font-family="Calibri,Calibri_MSFontService,sans-serif" font-weight="400" font-size="92" transform="matrix(1 0 0 1 2207.67 1778)">engagement</text><text fill="#2D3E50" font-family="Calibri,Calibri_MSFontService,sans-serif" font-weight="400" font-size="92" transform="matrix(1 0 0 1 1498.22 799)">empowerment </text></g></svg>