<svg id="Layer_1" data-name="Layer 1" xmlns="http://www.w3.org/2000/svg" viewBox="0 0 416.97 362.32"><defs><style>.cls-1{fill:#fff;}.cls-2,.cls-3,.cls-4,.cls-5,.cls-6{fill:none;stroke-miterlimit:8;}.cls-2{stroke:#d9d9d9;}.cls-3,.cls-5,.cls-6{stroke:#fff;}.cls-3,.cls-4,.cls-6{stroke-linecap:round;}.cls-3,.cls-4{stroke-width:6px;}.cls-4{stroke:#2d3e50;}.cls-6{stroke-width:6px;}.cls-7{fill:#595959;}.cls-8{font-size:26px;font-family:BradleyHandITCTT-Bold, Bradley Hand;font-weight:700;}</style></defs><rect class="cls-1" x="165.5" y="259.96" width="32" height="65"/><rect class="cls-2" x="165.5" y="259.96" width="32" height="65"/><rect class="cls-1" x="204.5" y="242.96" width="31" height="82"/><rect class="cls-2" x="204.5" y="242.96" width="31" height="82"/><rect class="cls-1" x="241.5" y="225.96" width="32" height="99"/><rect class="cls-2" x="241.5" y="225.96" width="32" height="99"/><path class="cls-3" d="M177.5,303.54a94.49,94.49,0,1,1,92.84-96.12q.06,3.56-.14,7.1" transform="translate(-25.64 -12.71)"/><line class="cls-3" x1="243" y1="206.3" x2="261.86" y2="185.46"/><line class="cls-3" x1="242.85" y1="206.32" x2="222" y2="187.46"/><path class="cls-4" d="M135.82,230.89c-4.26-7.51-4.3-24.17.27-34.14s13-24,36.65-24.33c8.2-.12,20.22-2,27.94-3.92S215.62,161,219,161.16s2.69,3.33,2.13,8.06a102.74,102.74,0,0,1-5.44,20.34c-2.4,6.06-9,23.67-13.93,31.71s-9.19,13.12-15.88,16.54a43,43,0,0,1-24.24,4C153.33,240.65,140.09,238.4,135.82,230.89Z" transform="translate(-25.64 -12.71)"/><path class="cls-4" d="M126.64,254.16c4.08-17.3,8.15-34.61,44-46" transform="translate(-25.64 -12.71)"/><rect class="cls-1" x="0.5" y="87.96" width="44" height="20"/><rect class="cls-2" x="0.5" y="87.96" width="44" height="20"/><line class="cls-5" x1="44.5" y1="97.96" x2="79.3" y2="97.96"/><line class="cls-5" x1="78.5" y1="97.96" x2="93.2" y2="157.74"/><rect class="cls-1" x="32.5" y="288.96" width="44" height="19"/><rect class="cls-2" x="32.5" y="288.96" width="44" height="19"/><line class="cls-5" x1="76.5" y1="298.96" x2="107.8" y2="298.96"/><line class="cls-5" x1="107.5" y1="298.74" x2="122.2" y2="238.96"/><rect class="cls-1" x="266.5" y="125.96" width="44" height="20"/><rect class="cls-2" x="266.5" y="125.96" width="44" height="20"/><line class="cls-5" x1="243.5" y1="135.96" x2="266.36" y2="135.96"/><line class="cls-5" x1="178.5" y1="170.28" x2="242.96" y2="135.96"/><path class="cls-6" d="M285.66,32.77a23.3,23.3,0,0,1,12.59,3.72,22.52,22.52,0,0,1,5.61,31.66l-32.56,46.6a22.23,22.23,0,0,1-18.57,9.5l-4.84,6.93-2.33-2.12q-4.67-3.86-9.7-7.25l-8.77-5.33,4.76-6.82A22.22,22.22,0,0,1,234.39,89L267,42.36A22.64,22.64,0,0,1,285.66,32.77Z" transform="translate(-25.64 -12.71)"/><path class="cls-7" d="M282.12,283.82l-6,4.66,7,2.92a.37.37,0,1,0,.29-.69L277,288l.08.65,5.49-4.27a.37.37,0,0,0,.06-.52A.36.36,0,0,0,282.12,283.82ZM362.71,326l-8-8.21-9.22-7.57-10.11-6.77-10.67-5.79L313.81,293,303,289.56l-10.46-2-5-.39-4.77,0-5.92.79.1.74,5.82-.78,4.71,0,4.92.38,10.38,1.94,10.78,3.37,10.85,4.64L335,304l10,6.71,9.16,7.53,8,8.2Z" transform="translate(-25.64 -12.71)"/><path class="cls-7" d="M184.52,258.26l-5.12-5.61L177,259.86a.37.37,0,0,0,.24.47.36.36,0,0,0,.47-.24l2.17-6.6-.64.14,4.68,5.13a.38.38,0,0,0,.53,0A.37.37,0,0,0,184.52,258.26ZM143,336.39l5-4.55,4.75-4.83,4.45-5,4.12-5.22,7.19-10.85,5.71-11.16,4.1-11.19L179.8,278l1-5.42.49-5.29v-5.13l-.49-4.92-.84-4-.74.16.84,3.87.48,4.85v5.06l-.49,5.23-.94,5.37-1.39,5.46-4.07,11.1L168,305.49l-7.16,10.79-4.09,5.2-4.42,5-4.73,4.79-5,4.56Z" transform="translate(-25.64 -12.71)"/><path class="cls-7" d="M48.33,81.7l4.62,6,3-7a.39.39,0,0,0-.2-.5.37.37,0,0,0-.49.2l-2.72,6.39.64-.08-4.22-5.51a.37.37,0,0,0-.53-.07A.38.38,0,0,0,48.33,81.7ZM69.41,40,65,45.68l-3.89,6.15-3.28,6.38-2.61,6.45L53.33,71l-1.11,6.08-.28,5.64a.17.17,0,0,0,0,.07L52.48,87l.75-.1-.54-4.25v.07L53,77.21l1.1-6,1.87-6.28,2.59-6.38,3.25-6.33,3.84-6.09L70,40.41Z" transform="translate(-25.64 -12.71)"/><text class="cls-8" transform="translate(26.46 20.06)">annotation</text><text class="cls-8" transform="translate(6.3 351.95)">experimental data</text><text class="cls-8" transform="translate(294.12 340.67)">Workflows</text></svg>