<?xml version="1.0" encoding="utf-8"?>
<!-- Generator: Adobe Illustrator 24.3.0, SVG Export Plug-In . SVG Version: 6.00 Build 0)  -->
<svg version="1.1" id="Ebene_1" xmlns="http://www.w3.org/2000/svg" xmlns:xlink="http://www.w3.org/1999/xlink" x="0px" y="0px"
	 viewBox="0 0 144.9 31.3" style="enable-background:new 0 0 144.9 31.3;" xml:space="preserve">
<style type="text/css">
	.st0{clip-path:url(#SVGID_2_);fill:#00608E;}
	.st1{clip-path:url(#SVGID_4_);fill:#BC261A;}
	.st2{fill:#00608E;}
	.st3{fill:#BC261A;}
</style>
<g>
	<g>
		<defs>
			<rect id="SVGID_1_" x="1.6" y="1.4" width="141.7" height="27.4"/>
		</defs>
		<clipPath id="SVGID_2_">
			<use xlink:href="#SVGID_1_"  style="overflow:visible;"/>
		</clipPath>
		<path class="st0" d="M137.3,28.5v-4.8l-0.2-1.4h0.1l0.7,1.4l3.5,4.9h1.3v-9.3h-1.7v4.8l0.2,1.4h-0.1l-0.7-1.4l-3.5-4.9h-1.3v9.3
			L137.3,28.5L137.3,28.5z M128.7,20.9c0.1,0,0.2,0,0.4-0.1c0.2,0,0.4,0,0.5,0c0.5,0,0.8,0.1,1.1,0.3c0.2,0.2,0.4,0.5,0.4,0.9
			c0,0.5-0.1,0.9-0.4,1.1c-0.3,0.2-0.7,0.3-1.2,0.3h-0.8V20.9z M128.7,28.5v-3.8l1,0.2l2.1,3.6h2.1l-2.1-3.5l-0.7-0.4
			c0.5-0.2,0.9-0.5,1.3-1c0.3-0.5,0.5-1.1,0.5-1.8c0-0.5-0.1-0.9-0.3-1.3c-0.2-0.3-0.4-0.6-0.7-0.8s-0.7-0.3-1.1-0.4
			s-0.8-0.1-1.2-0.1c-0.2,0-0.4,0-0.6,0s-0.4,0-0.6,0c-0.2,0-0.4,0-0.7,0.1s-0.4,0.1-0.6,0.1v9.1L128.7,28.5L128.7,28.5z
			 M125.2,28.5v-1.6h-3.8v-2.2h3.4v-1.6h-3.4V21h3.7v-1.6h-5.4v9.2L125.2,28.5L125.2,28.5z M113.4,21v7.6h1.7V21h2.8v-1.6h-7.3V21
			H113.4z M106,28.7c0.5,0,0.9-0.1,1.3-0.2c0.4-0.1,0.7-0.3,1-0.6s0.5-0.6,0.7-1.1c0.2-0.4,0.2-0.9,0.2-1.5v-5.9h-1.7v5.8
			c0,0.7-0.1,1.2-0.4,1.5c-0.2,0.3-0.6,0.5-1.2,0.5c-0.3,0-0.5,0-0.7-0.1c-0.2-0.1-0.4-0.2-0.5-0.3c-0.1-0.2-0.2-0.4-0.3-0.6
			c-0.1-0.2-0.1-0.6-0.1-0.9v-5.8h-1.7v6.2C102.6,27.6,103.7,28.7,106,28.7 M97.1,23l0.3-1.5h0.1l0.3,1.4l0.7,2h-2L97.1,23z
			 M95.3,28.5l0.6-1.9h3l0.6,1.9h1.7L98,19.3h-1.3l-3.2,9.3C93.5,28.5,95.3,28.5,95.3,28.5z M92.5,28.5v-1.6h-4.1v-7.6h-1.7v9.2
			L92.5,28.5L92.5,28.5z M79.8,28.5c0.5,0.1,1,0.2,1.7,0.2c0.5,0,0.9-0.1,1.3-0.2c0.4-0.1,0.8-0.3,1-0.5c0.3-0.2,0.5-0.5,0.7-0.9
			c0.2-0.4,0.2-0.8,0.2-1.3c0-0.5-0.1-0.9-0.3-1.2c-0.2-0.3-0.4-0.6-0.7-0.8c-0.3-0.2-0.6-0.4-1-0.6c-0.4-0.2-0.7-0.3-1-0.5
			c-0.3-0.1-0.6-0.3-0.8-0.5c-0.2-0.2-0.3-0.4-0.3-0.6c0-0.3,0.1-0.5,0.3-0.7c0.2-0.2,0.5-0.2,1-0.2c0.4,0,0.8,0,1.2,0.1
			s0.7,0.2,0.8,0.3l0.5-1.5c-0.3-0.2-0.7-0.3-1.1-0.4c-0.5-0.1-0.9-0.1-1.5-0.1c-0.4,0-0.9,0.1-1.2,0.2c-0.4,0.1-0.7,0.3-0.9,0.5
			s-0.5,0.5-0.6,0.8C79,21,79,21.4,79,21.8c0,0.5,0.1,0.9,0.3,1.3s0.5,0.6,0.8,0.8c0.3,0.2,0.6,0.4,1,0.6s0.7,0.3,1,0.4
			c0.3,0.1,0.6,0.3,0.7,0.5s0.3,0.4,0.3,0.7c0,0.4-0.1,0.6-0.4,0.8s-0.7,0.3-1.2,0.3c-0.2,0-0.4,0-0.6-0.1c-0.2,0-0.4-0.1-0.6-0.1
			c-0.2-0.1-0.4-0.1-0.5-0.2c-0.1-0.1-0.3-0.1-0.4-0.2l-0.6,1.6C79,28.3,79.3,28.4,79.8,28.5 M72.3,20.9c0.1,0,0.2,0,0.4-0.1
			c0.2,0,0.4,0,0.5,0c0.5,0,0.8,0.1,1.1,0.3c0.2,0.2,0.4,0.5,0.4,0.9c0,0.5-0.1,0.9-0.4,1.1c-0.3,0.2-0.7,0.3-1.2,0.3h-0.8V20.9z
			 M72.3,28.5v-3.8l1,0.2l2.1,3.6h2.1l-2.1-3.5l-0.7-0.4c0.5-0.2,1-0.5,1.3-1c0.3-0.5,0.5-1.1,0.5-1.8c0-0.5-0.1-0.9-0.3-1.3
			c-0.2-0.3-0.4-0.6-0.7-0.8c-0.3-0.2-0.7-0.3-1.1-0.4s-0.8-0.1-1.2-0.1c-0.2,0-0.4,0-0.6,0c-0.2,0-0.4,0-0.7,0
			c-0.2,0-0.4,0-0.7,0.1s-0.4,0.1-0.6,0.1v9.1L72.3,28.5L72.3,28.5z M68.5,28.5v-1.6h-3.8v-2.2h3.4v-1.6h-3.4V21h3.7v-1.6H63v9.2
			L68.5,28.5L68.5,28.5z M55.9,28.5c0.5,0.1,1,0.2,1.7,0.2c0.5,0,0.9-0.1,1.3-0.2c0.4-0.1,0.8-0.3,1-0.5c0.3-0.2,0.5-0.5,0.7-0.9
			c0.2-0.4,0.2-0.8,0.2-1.3c0-0.5-0.1-0.9-0.3-1.2c-0.2-0.3-0.4-0.6-0.7-0.8c-0.3-0.2-0.6-0.4-1-0.6c-0.4-0.2-0.7-0.3-1-0.5
			c-0.3-0.1-0.6-0.3-0.8-0.5c-0.2-0.2-0.3-0.4-0.3-0.6c0-0.3,0.1-0.5,0.3-0.7c0.2-0.2,0.5-0.2,1-0.2c0.4,0,0.8,0,1.2,0.1
			c0.4,0.1,0.7,0.2,0.8,0.3l0.5-1.5c-0.3-0.2-0.7-0.3-1.1-0.4c-0.5-0.1-0.9-0.1-1.5-0.1c-0.4,0-0.9,0.1-1.2,0.2
			c-0.4,0.1-0.7,0.3-0.9,0.5c-0.3,0.2-0.5,0.5-0.6,0.8S55,21.4,55,21.8c0,0.5,0.1,0.9,0.3,1.3s0.5,0.6,0.8,0.8
			c0.3,0.2,0.6,0.4,1,0.6s0.7,0.3,1,0.4c0.3,0.1,0.6,0.3,0.7,0.5c0.2,0.2,0.3,0.4,0.3,0.7c0,0.4-0.1,0.6-0.4,0.8
			c-0.3,0.2-0.7,0.3-1.2,0.3c-0.2,0-0.4,0-0.6-0.1c-0.2,0-0.4-0.1-0.6-0.1c-0.2-0.1-0.4-0.1-0.5-0.2c-0.1-0.1-0.3-0.1-0.4-0.2
			l-0.6,1.6C55,28.3,55.4,28.4,55.9,28.5 M53,19.3h-1.7v9.2H53V19.3z M45.3,23l0.3-1.5h0.1L46,23l0.7,2h-2L45.3,23z M43.5,28.5
			l0.6-1.9h3l0.6,1.9h1.7l-3.3-9.3h-1.3l-3.2,9.3C41.7,28.5,43.5,28.5,43.5,28.5z M35.3,28.5v-3.9h0.5l2.7,3.9h2.2l-3-4.3l-0.8-0.5
			l0.7-0.5l2.7-3.9h-2.1l-2.5,3.9l-0.4,0.2v-4.1h-1.7v9.2L35.3,28.5L35.3,28.5z"/>
	</g>
	<g>
		<defs>
			<rect id="SVGID_3_" x="1.6" y="1.4" width="141.7" height="27.4"/>
		</defs>
		<clipPath id="SVGID_4_">
			<use xlink:href="#SVGID_3_"  style="overflow:visible;"/>
		</clipPath>
		<path class="st1" d="M140.1,10.4v5.5h1.2v-5.5h2V9.2h-5.3v1.2H140.1z M135.9,8.7c0.1,0.1,0.3,0.2,0.5,0.2c0.3,0,0.4-0.1,0.6-0.2
			c0.1-0.1,0.2-0.2,0.2-0.4c0-0.2-0.1-0.3-0.2-0.4c-0.1-0.1-0.3-0.2-0.6-0.2c-0.2,0-0.4,0.1-0.5,0.2c-0.1,0.1-0.2,0.2-0.2,0.4
			S135.8,8.6,135.9,8.7 M133.9,8.7c0.1,0.1,0.3,0.2,0.6,0.2c0.2,0,0.4-0.1,0.5-0.2c0.1-0.1,0.2-0.2,0.2-0.4c0-0.2-0.1-0.3-0.2-0.4
			c-0.1-0.1-0.3-0.2-0.5-0.2c-0.3,0-0.4,0.1-0.6,0.2c-0.1,0.1-0.2,0.2-0.2,0.4S133.8,8.6,133.9,8.7 M135.2,11.9l0.2-1.1h0l0.2,1
			l0.5,1.5h-1.4L135.2,11.9z M133.9,15.9l0.4-1.4h2.2l0.4,1.4h1.2l-2.4-6.7h-0.9l-2.3,6.7H133.9z M129.5,10.4v5.5h1.2v-5.5h2V9.2
			h-5.3v1.2H129.5z M126.6,9.2h-1.2v6.7h1.2V9.2z M120.6,15.9c0.4,0.1,0.8,0.1,1.2,0.1c0.4,0,0.7,0,1-0.1c0.3-0.1,0.5-0.2,0.7-0.4
			s0.4-0.4,0.5-0.6c0.1-0.3,0.2-0.6,0.2-0.9c0-0.3-0.1-0.6-0.2-0.9s-0.3-0.4-0.5-0.6c-0.2-0.2-0.4-0.3-0.7-0.4
			c-0.3-0.1-0.5-0.2-0.7-0.3c-0.2-0.1-0.4-0.2-0.6-0.3c-0.2-0.1-0.3-0.3-0.3-0.5c0-0.2,0.1-0.4,0.2-0.5c0.2-0.1,0.4-0.2,0.7-0.2
			c0.3,0,0.6,0,0.9,0.1c0.3,0.1,0.5,0.2,0.6,0.2l0.4-1.1c-0.2-0.1-0.5-0.2-0.8-0.3s-0.7-0.1-1.1-0.1c-0.3,0-0.6,0-0.9,0.1
			s-0.5,0.2-0.7,0.4c-0.2,0.2-0.3,0.4-0.4,0.6c-0.1,0.2-0.2,0.5-0.2,0.8c0,0.4,0.1,0.7,0.2,0.9s0.3,0.4,0.6,0.6
			c0.2,0.2,0.5,0.3,0.7,0.4c0.3,0.1,0.5,0.2,0.7,0.3c0.2,0.1,0.4,0.2,0.5,0.3c0.1,0.1,0.2,0.3,0.2,0.5c0,0.3-0.1,0.5-0.3,0.6
			c-0.2,0.1-0.5,0.2-0.9,0.2c-0.2,0-0.3,0-0.5,0s-0.3-0.1-0.4-0.1c-0.1,0-0.3-0.1-0.4-0.1s-0.2-0.1-0.3-0.1l-0.4,1.1
			C120,15.7,120.3,15.8,120.6,15.9 M115.7,10.3c0.1,0,0.2,0,0.3,0c0.1,0,0.3,0,0.4,0c0.3,0,0.6,0.1,0.8,0.2c0.2,0.2,0.3,0.4,0.3,0.7
			c0,0.4-0.1,0.7-0.3,0.8c-0.2,0.2-0.5,0.2-0.9,0.2h-0.6L115.7,10.3L115.7,10.3z M115.7,15.9v-2.7l0.7,0.2l1.5,2.6h1.5l-1.5-2.5
			l-0.5-0.3c0.4-0.1,0.7-0.4,0.9-0.7c0.2-0.3,0.3-0.8,0.3-1.3c0-0.4-0.1-0.7-0.2-0.9c-0.1-0.2-0.3-0.4-0.5-0.6
			c-0.2-0.1-0.5-0.2-0.8-0.3c-0.3-0.1-0.6-0.1-0.9-0.1c-0.1,0-0.3,0-0.4,0c-0.2,0-0.3,0-0.5,0c-0.2,0-0.3,0-0.5,0.1
			c-0.2,0-0.3,0-0.5,0.1v6.6L115.7,15.9L115.7,15.9z M113.4,15.9v-1.2h-2.8v-1.6h2.5v-1.2h-2.5v-1.5h2.7V9.2h-3.9v6.7H113.4z
			 M105.4,15.9h0.9l2.5-6.7h-1.2l-1.3,3.9l-0.2,1.1h0l-0.2-1.1l-1.3-3.9H103L105.4,15.9z M102.3,9.2H101v6.7h1.2V9.2z M95.8,15.9
			v-3.5l-0.2-1h0.1l0.5,1l2.5,3.5h0.9V9.2h-1.2v3.5l0.2,1h0l-0.5-1l-2.5-3.5h-1v6.7C94.6,15.9,95.8,15.9,95.8,15.9z M91,16
			c0.3,0,0.7,0,1-0.1c0.3-0.1,0.5-0.2,0.7-0.4s0.4-0.5,0.5-0.8c0.1-0.3,0.2-0.7,0.2-1.1V9.2h-1.2v4.2c0,0.5-0.1,0.8-0.3,1.1
			c-0.2,0.2-0.5,0.3-0.9,0.3c-0.2,0-0.4,0-0.5-0.1c-0.2,0-0.3-0.1-0.4-0.2c-0.1-0.1-0.2-0.3-0.2-0.4c0-0.2-0.1-0.4-0.1-0.7V9.2h-1.2
			v4.5C88.6,15.2,89.4,16,91,16 M85.1,15.9v-1.2h-2.8v-1.6h2.5v-1.2h-2.5v-1.5h2.7V9.2h-3.9v6.7H85.1z M76.1,15.9v-2.8h2.4v2.8h1.2
			V9.2h-1.2v2.7h-2.4V9.2h-1.2v6.7H76.1z M69.6,14.1c0.1,0.4,0.3,0.8,0.6,1.1c0.2,0.3,0.5,0.5,0.9,0.6c0.4,0.1,0.7,0.2,1.1,0.2
			c0.3,0,0.6,0,1-0.1c0.3-0.1,0.6-0.2,0.8-0.3l-0.3-1.1c-0.1,0.1-0.3,0.2-0.5,0.2c-0.2,0.1-0.4,0.1-0.7,0.1c-0.3,0-0.6-0.1-0.8-0.2
			c-0.2-0.1-0.4-0.3-0.6-0.5c-0.2-0.2-0.3-0.4-0.3-0.7c-0.1-0.3-0.1-0.6-0.1-0.9c0-0.8,0.2-1.4,0.5-1.7c0.3-0.4,0.7-0.6,1.3-0.6
			c0.3,0,0.5,0,0.7,0c0.2,0,0.4,0.1,0.5,0.2l0.3-1.1c-0.2-0.1-0.4-0.1-0.7-0.2c-0.3,0-0.6-0.1-1-0.1c-0.4,0-0.7,0.1-1.1,0.2
			c-0.4,0.1-0.7,0.3-0.9,0.6c-0.3,0.3-0.5,0.6-0.6,1.1s-0.2,1-0.2,1.6C69.3,13.2,69.4,13.7,69.6,14.1 M64.9,15.9
			c0.4,0.1,0.8,0.1,1.2,0.1c0.3,0,0.7,0,1-0.1c0.3-0.1,0.5-0.2,0.8-0.4s0.4-0.4,0.5-0.6c0.1-0.3,0.2-0.6,0.2-0.9
			c0-0.3-0.1-0.6-0.2-0.9c-0.1-0.2-0.3-0.4-0.5-0.6c-0.2-0.2-0.4-0.3-0.7-0.4c-0.3-0.1-0.5-0.2-0.7-0.3c-0.2-0.1-0.4-0.2-0.6-0.3
			c-0.2-0.1-0.3-0.3-0.3-0.5c0-0.2,0.1-0.4,0.2-0.5c0.2-0.1,0.4-0.2,0.7-0.2c0.3,0,0.6,0,0.9,0.1c0.3,0.1,0.5,0.2,0.6,0.2l0.4-1.1
			c-0.2-0.1-0.5-0.2-0.8-0.3s-0.7-0.1-1.1-0.1c-0.3,0-0.6,0-0.9,0.1s-0.5,0.2-0.7,0.4c-0.2,0.2-0.3,0.4-0.4,0.6
			c-0.1,0.2-0.2,0.5-0.2,0.8c0,0.4,0.1,0.7,0.2,0.9c0.1,0.2,0.3,0.4,0.6,0.6c0.2,0.2,0.5,0.3,0.7,0.4c0.3,0.1,0.5,0.2,0.7,0.3
			c0.2,0.1,0.4,0.2,0.5,0.3c0.1,0.1,0.2,0.3,0.2,0.5c0,0.3-0.1,0.5-0.3,0.6c-0.2,0.1-0.5,0.2-0.9,0.2c-0.2,0-0.3,0-0.5,0
			c-0.1,0-0.3-0.1-0.4-0.1c-0.1,0-0.3-0.1-0.4-0.1c-0.1,0-0.2-0.1-0.3-0.1l-0.4,1.1C64.3,15.7,64.6,15.8,64.9,15.9 M63.1,9.2h-1.2
			v6.7h1.2V9.2z M56.7,15.9v-3.5l-0.2-1h0.1l0.5,1l2.5,3.5h0.9V9.2h-1.2v3.5l0.2,1h0l-0.5-1l-2.5-3.5h-1v6.7
			C55.4,15.9,56.7,15.9,56.7,15.9z M50.4,15.9v-2.8h2.4v2.8h1.2V9.2h-1.2v2.7h-2.4V9.2h-1.2v6.7H50.4z M43.8,14.1
			c0.1,0.4,0.3,0.8,0.6,1.1c0.2,0.3,0.5,0.5,0.9,0.6c0.4,0.1,0.7,0.2,1.1,0.2c0.3,0,0.6,0,1-0.1c0.3-0.1,0.6-0.2,0.8-0.3l-0.3-1.1
			c-0.1,0.1-0.3,0.2-0.5,0.2c-0.2,0.1-0.4,0.1-0.7,0.1c-0.3,0-0.6-0.1-0.8-0.2c-0.2-0.1-0.4-0.3-0.6-0.5C45.2,14,45,13.8,45,13.5
			c-0.1-0.3-0.1-0.6-0.1-0.9c0-0.8,0.2-1.4,0.5-1.7c0.3-0.4,0.7-0.6,1.3-0.6c0.3,0,0.5,0,0.7,0c0.2,0,0.4,0.1,0.5,0.2l0.3-1.1
			c-0.2-0.1-0.4-0.1-0.7-0.2c-0.3,0-0.6-0.1-1-0.1c-0.4,0-0.7,0.1-1.1,0.2c-0.4,0.1-0.7,0.3-0.9,0.6c-0.3,0.3-0.5,0.6-0.6,1.1
			s-0.2,1-0.2,1.6C43.6,13.2,43.7,13.7,43.8,14.1 M42.8,15.9v-1.2h-2.8v-1.6h2.5v-1.2h-2.5v-1.5h2.7V9.2h-3.9v6.7H42.8z M34.9,10.4
			v5.5h1.2v-5.5h2V9.2h-5.3v1.2H34.9z"/>
	</g>
</g>
<polygon class="st2" points="15.1,1.4 4.5,4.7 4.5,8 25.9,8 25.9,4.5 "/>
<polygon class="st2" points="7.3,9.3 1.6,28.6 5.9,28.6 11.6,9.3 "/>
<rect x="19.1" y="9.3" class="st2" width="4.8" height="4.6"/>
<rect x="19.1" y="16.6" class="st3" width="4.8" height="4.6"/>
<rect x="19.1" y="24" class="st2" width="4.8" height="4.6"/>
</svg>
