<?xml version="1.0" encoding="UTF-8" standalone="no"?>
<!-- Created with Inkscape (http://www.inkscape.org/) -->

<svg
   xmlns:dc="http://purl.org/dc/elements/1.1/"
   xmlns:cc="http://creativecommons.org/ns#"
   xmlns:rdf="http://www.w3.org/1999/02/22-rdf-syntax-ns#"
   xmlns:svg="http://www.w3.org/2000/svg"
   xmlns="http://www.w3.org/2000/svg"
   xmlns:sodipodi="http://sodipodi.sourceforge.net/DTD/sodipodi-0.dtd"
   xmlns:inkscape="http://www.inkscape.org/namespaces/inkscape"
   id="svg2985"
   version="1.1"
   inkscape:version="0.48.0 r9654"
   width="154.13374"
   height="53.14875"
   xml:space="preserve"
   sodipodi:docname="schriftzug aus pdf.svg"><metadata
     id="metadata2991"><rdf:RDF><cc:Work
         rdf:about=""><dc:format>image/svg+xml</dc:format><dc:type
           rdf:resource="http://purl.org/dc/dcmitype/StillImage" /><dc:title></dc:title></cc:Work></rdf:RDF></metadata><defs
     id="defs2989"><clipPath
       clipPathUnits="userSpaceOnUse"
       id="clipPath3001"><path
         d="m 877.156,7186.78 0,-5952.75 4195.284,0 0,5952.75 -4195.284,0 z"
         id="path3003"
         inkscape:connector-curvature="0" /></clipPath></defs><sodipodi:namedview
     pagecolor="#ffffff"
     bordercolor="#666666"
     borderopacity="1"
     objecttolerance="10"
     gridtolerance="10"
     guidetolerance="10"
     inkscape:pageopacity="0"
     inkscape:pageshadow="2"
     inkscape:window-width="1151"
     inkscape:window-height="746"
     id="namedview2987"
     showgrid="false"
     inkscape:zoom="0.27648456"
     inkscape:cx="13.799076"
     inkscape:cy="-292.37375"
     inkscape:window-x="211"
     inkscape:window-y="-4"
     inkscape:window-maximized="1"
     inkscape:current-layer="g2993"
     fit-margin-top="0"
     fit-margin-left="0"
     fit-margin-right="0"
     fit-margin-bottom="0" /><g
     id="g2993"
     inkscape:groupmode="layer"
     inkscape:label="StudiumGenerale_WS_10_11"
     transform="matrix(1.25,0,0,-1.25,-294.78125,871.7725)"><g
       id="g2997"
       transform="scale(0.1,0.1)"><g
         clip-path="url(#clipPath3001)"
         id="g2999"><path
           inkscape:connector-curvature="0"
           id="path3007"
           style="fill:#b20d35;fill-opacity:1;fill-rule:evenodd;stroke:none"
           d="m 3246.23,6969.96 c 2.84,0.02 9.08,0.49 14.06,-4.6 5.01,-5.08 5.3,-11.41 5.3,-14.52 0,-8.67 -7.13,-15.16 -16.27,-15.16 -3.79,0 -7.96,0.64 -9.34,1.47 -0.46,0.27 -0.64,0.64 -0.64,1.09 l 0,30.05 c 0,0.57 0.28,0.92 0.73,1.12 0.91,0.26 3.4,0.52 6.16,0.55 m 10.65,-35.16 c 9.6,2.64 16.06,10.65 16.06,21.52 0,5 -2.64,9.23 -4.72,11.22 -1.51,1.41 -5.76,5.39 -17.54,5.39 -4.34,0 -12.34,-0.3 -14.83,-0.3 -1.08,0 -6.25,0.27 -10.39,0.27 -1.01,0 -1.47,-0.18 -1.47,-0.74 0,-0.36 0.36,-0.55 0.73,-0.55 0.83,0 2.41,-0.09 3.14,-0.27 3.02,-0.65 3.77,-2.13 3.94,-5.24 0.18,-2.94 0.18,-5.53 0.18,-19.85 l 0,-16.19 c 0,-8.81 0,-16.07 -0.45,-19.93 -0.37,-2.68 -0.83,-4.69 -2.67,-5.07 -0.84,-0.18 -1.93,-0.36 -2.77,-0.36 -0.54,0 -0.73,-0.27 -0.73,-0.55 0,-0.55 0.47,-0.73 1.48,-0.73 2.76,0 8.55,0.26 8.64,0.26 0.47,0 6.25,-0.26 11.3,-0.26 1.02,0 1.47,0.26 1.47,0.73 0,0.28 -0.19,0.55 -0.73,0.55 -0.84,0 -2.85,0.18 -4.14,0.36 -2.75,0.38 -3.31,2.39 -3.58,5.07 -0.46,3.86 -0.46,11.12 -0.46,19.93 l 0,2.22 c 0,0.45 0.18,0.72 0.64,0.72 l 8.91,-0.13 c 0.57,0 1.05,-0.22 1.23,-0.59 1.39,-3.06 3.32,-8.22 6.1,-13.92 3.8,-7.78 4.46,-11.22 8.41,-13.33 2.39,-1.3 4.89,-1.61 10.04,-1.61 l 4.43,0 c 1.65,0 2.2,0.18 2.2,0.73 0,0.28 -0.35,0.56 -0.84,0.55 -0.9,-0.02 -2.42,0.23 -4.15,0.53 -1.5,0.28 -5.85,1.32 -8.53,6.36 -3.36,6.3 -7.23,15.46 -10.9,23.21 m 45.36,11.45 c 0,14.32 0,16.91 0.19,19.85 0.18,3.22 0.91,4.77 3.58,5.24 1.11,0.18 2.39,0.27 3.03,0.27 0.38,0 0.74,0.19 0.74,0.55 0,0.56 -0.46,0.74 -1.48,0.74 -2.75,0 -9.46,-0.27 -9.92,-0.27 -0.45,0 -6.25,0.27 -10.38,0.27 -1.02,0 -1.48,-0.18 -1.48,-0.74 0,-0.36 0.36,-0.55 0.73,-0.55 0.84,0 2.41,-0.09 3.14,-0.27 3.04,-0.65 3.77,-2.13 3.95,-5.24 0.18,-2.94 0.18,-5.53 0.18,-19.85 l 0,-16.19 c 0,-8.81 0,-16.07 -0.46,-19.93 -0.36,-2.68 -0.83,-4.69 -2.67,-5.07 -0.82,-0.18 -1.93,-0.36 -2.75,-0.36 -0.55,0 -0.75,-0.27 -0.75,-0.55 0,-0.55 0.48,-0.73 1.48,-0.73 1.38,0 3.41,0.08 5.24,0.18 1.84,0 3.41,0.08 3.77,0.08 2.67,0 5.52,-0.08 9.37,-0.26 3.86,-0.1 8.64,-0.29 15.25,-0.29 4.88,0 5.16,0.37 5.8,2.49 0.74,2.67 1.38,8.18 1.38,9.2 0,1.01 -0.09,1.37 -0.55,1.37 -0.56,0 -0.75,-0.46 -0.83,-1.19 -0.28,-1.75 -1.2,-4.05 -2.39,-5.51 -2.21,-2.67 -6.24,-2.76 -11.12,-2.76 -7.16,0 -9.57,0.64 -11.02,2.1 -1.66,1.67 -2.03,7.55 -2.03,21.06 l 0,16.36 z m 46.79,-44.12 c 4.96,0 9.93,1.1 13.87,3.86 6.35,4.51 7.81,11.48 7.81,15.26 0,7.35 -2.56,13.05 -13.4,21.6 l -2.58,2.02 c -8.82,6.88 -11.21,10.2 -11.21,15.43 0,6.72 4.96,10.67 11.3,10.67 8.46,0 10.94,-3.86 11.49,-4.87 0.54,-1.01 1.09,-3.49 1.2,-4.6 0.09,-0.73 0.18,-1.2 0.73,-1.2 0.46,0 0.64,0.65 0.64,2.13 0,6.23 0.37,9.27 0.37,9.73 0,0.47 -0.18,0.64 -0.92,0.64 -0.73,0 -1.48,0.1 -3.22,0.46 -2.29,0.56 -4.95,0.92 -8.54,0.92 -11.68,0 -19.03,-6.7 -19.03,-16.54 0,-6.26 2.21,-11.94 11.95,-19.95 l 4.14,-3.39 c 7.89,-6.53 10.56,-10.2 10.56,-16.54 0,-5.89 -4.32,-12.23 -13.14,-12.23 -6.16,0 -12.22,2.57 -13.6,9.37 -0.27,1.29 -0.27,2.57 -0.27,3.4 0,0.73 -0.1,1.02 -0.65,1.02 -0.46,0 -0.65,-0.47 -0.74,-1.48 -0.09,-1.46 -0.46,-5.14 -0.46,-9.74 0,-2.48 0.1,-2.85 1.38,-3.49 3.77,-1.84 8,-2.48 12.32,-2.48 m -177.25,1.29 c 0.82,0 1.37,0.18 1.37,0.73 0,0.37 -0.27,0.55 -0.93,0.55 l -0.9,0 c -1.57,0 -3.5,0.83 -3.5,2.67 0,1.65 0.46,3.86 1.29,6.15 l 5.52,16.28 c 0.17,0.45 0.45,0.73 0.91,0.73 l 19.77,0 c 0.46,0 0.64,-0.18 0.82,-0.55 l 8.55,-22.61 c 0.54,-1.48 0,-2.31 -0.55,-2.49 -0.37,-0.08 -0.65,-0.27 -0.65,-0.63 0,-0.57 1.01,-0.57 2.76,-0.65 6.34,-0.18 13.05,-0.18 14.43,-0.18 1.01,0 1.83,0.18 1.83,0.73 0,0.46 -0.36,0.55 -0.91,0.55 -0.92,0 -2.3,0.1 -3.67,0.55 -1.94,0.56 -4.6,2.02 -7.91,10.21 -5.62,13.97 -20.03,51.93 -21.42,55.41 -1.1,2.86 -1.47,3.31 -2.03,3.31 -0.54,0 -0.91,-0.55 -2.01,-3.58 l -20.86,-57.08 c -1.37,-3.8 -2.87,-6.86 -5.76,-8.09 -2.4,0.78 -4.77,2.62 -7.81,6.02 -6.92,7.75 -21.26,26.07 -24.68,30.74 1.93,2.31 18.03,18.02 20.33,20.24 4.12,3.94 6.16,6.23 9.93,7.9 1.82,0.82 3.76,1.28 5.14,1.28 0.74,0 0.93,0.19 0.93,0.64 0,0.47 -0.38,0.65 -1.39,0.65 -2.31,0 -8.36,-0.27 -8.82,-0.27 -2.21,0 -5.06,0.27 -6.89,0.27 -0.65,0 -1.1,-0.18 -1.1,-0.65 0,-0.36 0.36,-0.55 0.81,-0.73 0.75,-0.28 1.21,-0.83 1.21,-1.93 0,-1.56 -2.41,-3.95 -4.97,-6.61 -3.32,-3.59 -19.94,-20.5 -21.49,-22.25 l -0.38,5.52 c 0,14.32 0,16.91 0.18,19.85 0.2,3.22 0.93,4.77 3.4,5.24 1.12,0.18 1.65,0.27 2.3,0.27 0.36,0 0.73,0.19 0.73,0.55 0,0.56 -0.45,0.74 -1.47,0.74 -2.75,0 -8.08,-0.27 -8.91,-0.27 -0.55,0 -5.98,0.27 -10.11,0.27 -1.01,0 -1.48,-0.18 -1.48,-0.74 0,-0.36 0.38,-0.55 0.75,-0.55 0.81,0 2.38,-0.09 3.11,-0.27 3.04,-0.65 3.77,-2.13 3.96,-5.24 0.17,-2.94 0.17,-5.53 0.17,-19.85 l 0,-16.19 c 0,-8.81 0,-16.07 -0.44,-19.93 -0.37,-2.68 -0.83,-4.69 -2.67,-5.07 -0.83,-0.18 -1.93,-0.36 -2.75,-0.36 -0.57,0 -0.73,-0.27 -0.73,-0.55 0,-0.55 0.45,-0.73 1.46,-0.73 2.75,0 8.09,0.26 8.83,0.26 0.73,0 6.06,-0.26 10.56,-0.26 1.01,0 1.47,0.26 1.47,0.73 0,0.28 -0.18,0.55 -0.73,0.55 -0.83,0 -2.3,0.18 -3.59,0.36 -2.75,0.38 -3.31,2.39 -3.59,5.07 -0.45,3.86 -0.45,11.12 -0.45,19.93 l 0.05,8.94 c 2.06,-2.86 10.56,-14.21 16.19,-21.31 4.89,-6.19 8.54,-10.57 12.47,-12.73 1.67,-0.93 2.53,-1.57 6.8,-1.57 0,0 6.04,0.32 9.26,0.32 3.05,0 6.05,-0.29 8.26,-0.29 m 4.77,30.42 c -0.27,0 -0.46,0.18 -0.27,0.64 l 8.09,24.81 c 0.45,1.38 0.92,1.38 1.36,0 l 8.75,-24.81 c 0.09,-0.36 0.09,-0.64 -0.37,-0.64 l -17.56,0 z m -295.73,-20.32 c -1.65,-4.59 -3.5,-8.08 -7.72,-8.64 -0.74,-0.08 -2.01,-0.18 -2.67,-0.18 -0.46,0 -0.82,-0.18 -0.82,-0.55 0,-0.55 0.55,-0.73 1.74,-0.73 4.32,0 9.38,0.26 10.39,0.26 1.01,0 4.96,-0.26 7.17,-0.26 0.82,0 1.38,0.18 1.38,0.73 0,0.37 -0.28,0.55 -0.92,0.55 l -0.92,0 c -1.57,0 -3.49,0.83 -3.49,2.67 0,1.65 0.45,3.86 1.28,6.15 l 5.52,16.28 c 0.18,0.45 0.45,0.73 0.91,0.73 l 19.76,0 c 0.46,0 0.66,-0.18 0.82,-0.55 l 8.56,-22.61 c 0.55,-1.48 0,-2.31 -0.56,-2.49 -0.37,-0.08 -0.63,-0.27 -0.63,-0.63 0,-0.57 1.01,-0.57 2.75,-0.65 6.34,-0.18 13.06,-0.18 14.42,-0.18 1.02,0 1.85,0.18 1.85,0.73 0,0.46 -0.37,0.55 -0.93,0.55 -0.92,0 -2.28,0.1 -3.67,0.55 -1.93,0.56 -4.59,2.02 -7.9,10.21 -5.61,13.97 -20.04,51.93 -21.43,55.41 -1.08,2.86 -1.46,3.31 -2.01,3.31 -0.55,0 -0.92,-0.55 -2.02,-3.58 l -20.86,-57.08 z m 12.86,20.32 c -0.27,0 -0.46,0.18 -0.27,0.64 l 8.08,24.81 c 0.47,1.38 0.92,1.38 1.39,0 l 8.73,-24.81 c 0.08,-0.36 0.08,-0.64 -0.38,-0.64 l -17.55,0 z m -134.76,36.12 c 2.83,0.02 9.07,0.49 14.06,-4.6 5.01,-5.08 5.29,-11.41 5.29,-14.52 0,-8.67 -7.12,-15.16 -16.28,-15.16 -3.77,0 -7.94,0.64 -9.32,1.47 -0.46,0.27 -0.64,0.64 -0.64,1.09 l 0,30.05 c 0,0.57 0.28,0.92 0.74,1.12 0.91,0.26 3.39,0.52 6.15,0.55 m 10.64,-35.16 c 9.6,2.64 16.07,10.65 16.07,21.52 0,5 -2.64,9.23 -4.72,11.22 -1.5,1.41 -5.75,5.39 -17.54,5.39 -4.33,0 -12.35,-0.3 -14.83,-0.3 -1.08,0 -6.25,0.27 -10.39,0.27 -1.01,0 -1.47,-0.18 -1.47,-0.74 0,-0.36 0.37,-0.55 0.73,-0.55 0.83,0 2.41,-0.09 3.13,-0.27 3.03,-0.65 3.78,-2.13 3.94,-5.24 0.2,-2.94 0.2,-5.53 0.2,-19.85 l 0,-16.19 c 0,-8.81 0,-16.07 -0.46,-19.93 -0.37,-2.68 -0.83,-4.69 -2.67,-5.07 -0.84,-0.18 -1.92,-0.36 -2.75,-0.36 -0.56,0 -0.75,-0.27 -0.75,-0.55 0,-0.55 0.47,-0.73 1.48,-0.73 2.76,0 8.56,0.26 8.64,0.26 0.46,0 6.25,-0.26 11.3,-0.26 1.01,0 1.47,0.26 1.47,0.73 0,0.28 -0.19,0.55 -0.73,0.55 -0.83,0 -2.85,0.18 -4.15,0.36 -2.74,0.38 -3.29,2.39 -3.57,5.07 -0.46,3.86 -0.46,11.12 -0.46,19.93 l 0,2.22 c 0,0.45 0.18,0.72 0.64,0.72 l 8.92,-0.13 c 0.55,0 1.04,-0.22 1.21,-0.59 1.4,-3.06 3.33,-8.22 6.11,-13.92 3.8,-7.78 4.45,-11.22 8.41,-13.33 2.39,-1.3 4.89,-1.61 10.04,-1.61 l 4.43,0 c 1.66,0 2.21,0.18 2.21,0.73 0,0.28 -0.37,0.56 -0.83,0.55 -0.92,-0.02 -2.44,0.23 -4.18,0.53 -1.5,0.28 -5.84,1.32 -8.52,6.36 -3.36,6.3 -7.24,15.46 -10.91,23.21 m 238.62,-4.74 c 0,-8.81 0,-16.07 -0.45,-19.93 -0.37,-2.68 -0.83,-4.69 -2.68,-5.07 -0.83,-0.18 -1.92,-0.36 -2.75,-0.36 -0.55,0 -0.73,-0.27 -0.73,-0.55 0,-0.55 0.46,-0.73 1.47,-0.73 1.37,0 3.49,0.18 5.32,0.18 1.94,0.08 3.5,0.08 3.68,0.08 0.48,0 3.59,-0.26 7.63,-0.55 3.96,-0.26 8.83,-0.54 12.78,-0.54 15.62,0 23.9,6.43 27.85,10.56 5.14,5.42 9.92,14.34 9.92,25.92 0,10.93 -4.33,18.57 -8.91,23.36 -10.95,11.3 -27.76,10.47 -36.85,10.47 -5.52,0 -11.31,-0.27 -12.42,-0.27 -0.45,0 -6.25,0.27 -10.38,0.27 -1.01,0 -1.47,-0.18 -1.47,-0.74 0,-0.36 0.36,-0.55 0.74,-0.55 0.82,0 2.39,-0.09 3.12,-0.27 3.03,-0.65 3.77,-2.13 3.94,-5.24 0.19,-2.94 0.19,-5.53 0.19,-19.85 l 0,-16.19 z m 7.73,17.66 c 0,7.07 0,16.44 0.09,19.57 0,1 0.29,1.47 1.1,1.84 0.74,0.36 4.14,0.65 5.97,0.65 10.94,0 21.41,-1.3 30.06,-10.39 3.76,-3.95 8.83,-11.5 8.83,-23.16 0,-8.46 -2.58,-17.28 -7.36,-21.98 -5.42,-5.42 -13.33,-8.53 -21.88,-8.53 -10.84,0 -14.42,1.92 -15.62,3.66 -0.73,1.01 -0.92,4.69 -1.01,7 -0.09,1.74 -0.18,10.2 -0.18,19.94 l 0,11.4 z m -53.28,22.24 c 2.83,0.02 9.08,0.49 14.07,-4.6 5,-5.08 5.28,-11.41 5.28,-14.52 0,-8.67 -7.12,-15.16 -16.27,-15.16 -3.77,0 -7.94,0.64 -9.32,1.47 -0.46,0.27 -0.65,0.64 -0.65,1.09 l 0,30.05 c 0,0.57 0.28,0.92 0.74,1.12 0.92,0.26 3.4,0.52 6.15,0.55 m 10.66,-35.16 c 9.59,2.64 16.05,10.65 16.05,21.52 0,5 -2.65,9.23 -4.71,11.22 -1.51,1.41 -5.75,5.39 -17.54,5.39 -4.34,0 -12.34,-0.3 -14.84,-0.3 -1.08,0 -6.25,0.27 -10.38,0.27 -1.02,0 -1.48,-0.18 -1.48,-0.74 0,-0.36 0.36,-0.55 0.74,-0.55 0.83,0 2.39,-0.09 3.13,-0.27 3.03,-0.65 3.76,-2.13 3.95,-5.24 0.18,-2.94 0.18,-5.53 0.18,-19.85 l 0,-16.19 c 0,-8.81 0,-16.07 -0.46,-19.93 -0.37,-2.68 -0.82,-4.69 -2.66,-5.07 -0.83,-0.18 -1.95,-0.36 -2.76,-0.36 -0.55,0 -0.73,-0.27 -0.73,-0.55 0,-0.55 0.45,-0.73 1.47,-0.73 2.75,0 8.54,0.26 8.64,0.26 0.45,0 6.24,-0.26 11.29,-0.26 1.01,0 1.48,0.26 1.48,0.73 0,0.28 -0.18,0.55 -0.75,0.55 -0.81,0 -2.84,0.18 -4.12,0.36 -2.76,0.38 -3.31,2.39 -3.59,5.07 -0.46,3.86 -0.46,11.12 -0.46,19.93 l 0,2.22 c 0,0.45 0.19,0.72 0.65,0.72 l 8.92,-0.13 c 0.55,0 1.04,-0.22 1.21,-0.59 1.39,-3.06 3.34,-8.22 6.11,-13.92 3.79,-7.78 4.45,-11.22 8.4,-13.33 2.38,-1.3 4.9,-1.61 10.04,-1.61 l 4.44,0 c 1.65,0 2.19,0.18 2.19,0.73 0,0.28 -0.36,0.56 -0.82,0.55 -0.91,-0.02 -2.42,0.23 -4.19,0.53 -1.48,0.28 -5.82,1.32 -8.51,6.36 -3.36,6.3 -7.23,15.46 -10.89,23.21 m -114.35,11.45 c 0,14.32 0,16.91 0.18,19.85 0.18,3.22 0.92,4.77 3.4,5.24 1.11,0.18 1.66,0.27 2.3,0.27 0.37,0 0.73,0.19 0.73,0.55 0,0.56 -0.45,0.74 -1.48,0.74 -2.74,0 -8.53,-0.27 -9,-0.27 -0.45,0 -6.25,0.27 -10.39,0.27 -1,0 -1.46,-0.18 -1.46,-0.74 0,-0.36 0.37,-0.55 0.73,-0.55 0.83,0 2.4,-0.09 3.14,-0.27 3.03,-0.65 3.76,-2.13 3.94,-5.24 0.19,-2.94 0.19,-5.53 0.19,-19.85 l 0,-1.93 c 0,-0.46 -0.28,-0.55 -0.56,-0.55 l -38.96,0 c -0.28,0 -0.54,0.09 -0.54,0.55 l 0,1.93 c 0,14.32 0,16.91 0.16,19.85 0.2,3.22 0.93,4.77 3.41,5.24 1.09,0.18 1.65,0.27 2.29,0.27 0.37,0 0.73,0.19 0.73,0.55 0,0.56 -0.45,0.74 -1.46,0.74 -2.76,0 -8.54,-0.27 -9.01,-0.27 -0.46,0 -6.24,0.27 -10.38,0.27 -1.01,0 -1.47,-0.18 -1.47,-0.74 0,-0.36 0.37,-0.55 0.73,-0.55 0.82,0 2.39,-0.09 3.13,-0.27 3.03,-0.65 3.76,-2.13 3.94,-5.24 0.18,-2.94 0.18,-5.53 0.18,-19.85 l 0,-16.19 c 0,-8.81 0,-16.07 -0.44,-19.93 -0.37,-2.68 -0.83,-4.69 -2.67,-5.07 -0.83,-0.18 -1.94,-0.36 -2.76,-0.36 -0.56,0 -0.72,-0.27 -0.72,-0.55 0,-0.55 0.45,-0.73 1.46,-0.73 2.76,0 8.54,0.26 9,0.26 0.47,0 6.25,-0.26 11.31,-0.26 1,0 1.47,0.26 1.47,0.73 0,0.28 -0.18,0.55 -0.74,0.55 -0.82,0 -2.84,0.18 -4.13,0.36 -2.76,0.38 -3.31,2.39 -3.58,5.07 -0.45,3.86 -0.45,11.12 -0.45,19.93 l 0,9.66 c 0,0.46 0.26,0.54 0.54,0.54 l 38.96,0 c 0.28,0 0.56,-0.17 0.56,-0.54 l 0,-9.66 c 0,-8.81 0,-16.07 -0.47,-19.93 -0.37,-2.68 -0.82,-4.69 -2.66,-5.07 -0.82,-0.18 -1.93,-0.36 -2.76,-0.36 -0.55,0 -0.73,-0.27 -0.73,-0.55 0,-0.55 0.45,-0.73 1.46,-0.73 2.76,0 8.56,0.26 9.01,0.26 0.47,0 6.26,-0.26 11.32,-0.26 1,0 1.47,0.26 1.47,0.73 0,0.28 -0.2,0.55 -0.73,0.55 -0.84,0 -2.86,0.18 -4.15,0.36 -2.76,0.38 -3.31,2.39 -3.59,5.07 -0.45,3.86 -0.45,11.12 -0.45,19.93 l 0,16.19 z m -212.42,-6.53 c 0,0.46 0.18,0.65 0.55,0.65 1.38,0 5.97,0 7.16,-0.19 2.21,-0.28 4.51,-0.55 7.62,-2.68 7.1,-4.86 8.93,-12.85 8.93,-18.37 0,-10.38 -8,-13.06 -12.96,-13.06 -1.66,0 -5.61,0.2 -8.09,1.38 -2.85,1.38 -2.85,2.68 -3.12,7.18 -0.09,1.38 -0.09,12.78 -0.09,19.85 l 0,5.24 z m 0,29.14 c 0,0.55 0.27,0.81 1.1,1 1.47,0.37 3.4,0.47 4.4,0.47 9,0 12.43,-8.18 12.43,-15.81 0,-3.77 -1.4,-7.08 -3.32,-9.28 -1.93,-2.21 -3.22,-2.39 -8.36,-2.39 -3.41,0 -5.06,0.27 -5.62,0.35 -0.45,0.19 -0.63,0.37 -0.63,1.03 l 0,24.63 z m -7.36,-38.8 c 0,-8.81 0,-16.07 -0.47,-19.93 -0.35,-2.68 -0.81,-4.69 -2.65,-5.07 -0.83,-0.18 -1.93,-0.36 -2.76,-0.36 -0.55,0 -0.73,-0.27 -0.73,-0.55 0,-0.55 0.44,-0.73 1.47,-0.73 1.37,0 3.5,0.18 5.33,0.18 1.94,0.08 3.49,0.08 3.67,0.08 0.36,0 2.93,-0.08 5.61,-0.26 2.66,-0.1 5.6,-0.29 6.62,-0.29 15.71,0 23.43,10.2 23.43,20.04 0,10.76 -9.1,17.28 -15.9,19.39 4.32,4.5 8.63,9.01 8.63,16.54 0,4.61 -3.29,13.8 -18.37,13.8 -4.23,0 -7.81,-0.27 -10.02,-0.27 -0.47,0 -6.25,0.27 -10.38,0.27 -1.01,0 -1.47,-0.18 -1.47,-0.74 0,-0.36 0.36,-0.55 0.73,-0.55 0.83,0 2.39,-0.09 3.13,-0.27 3.02,-0.65 3.77,-2.13 3.95,-5.24 0.18,-2.94 0.18,-5.53 0.18,-19.85 l 0,-16.19 z m -52.37,0 c 0,-8.81 0,-16.07 -0.44,-19.93 -0.37,-2.68 -0.83,-4.69 -2.67,-5.07 -0.82,-0.18 -1.93,-0.36 -2.75,-0.36 -0.56,0 -0.74,-0.27 -0.74,-0.55 0,-0.55 0.46,-0.73 1.47,-0.73 1.38,0 3.49,0.18 5.32,0.18 1.93,0.08 3.5,0.08 3.68,0.08 1.38,0 3.59,-0.08 7.17,-0.26 3.59,-0.1 8.64,-0.29 15.54,-0.29 3.58,0 4.32,0 4.96,2.4 0.46,1.92 1.19,8.17 1.19,8.92 0,0.63 0,1.38 -0.56,1.38 -0.45,0 -0.63,-0.37 -0.81,-1.38 -0.65,-3.77 -1.76,-5.62 -4.14,-6.63 -2.39,-1 -6.44,-1 -8.82,-1 -9.01,0 -10.39,1.18 -10.67,7.53 -0.09,1.94 0,12.6 0,15.71 l 0,8.1 c 0,0.37 0.19,0.64 0.65,0.64 1.56,0 10.65,-0.18 13.14,-0.46 3.58,-0.36 4.41,-1.93 4.78,-3.21 0.37,-1.2 0.37,-2.13 0.37,-3.04 0,-0.46 0.18,-0.83 0.63,-0.83 0.65,0 0.65,1.02 0.65,1.74 0,0.66 0.19,4.05 0.37,5.89 0.28,3.04 0.75,4.6 0.75,5.15 0,0.55 -0.21,0.73 -0.47,0.73 -0.37,0 -0.73,-0.45 -1.38,-1.2 -0.83,-0.91 -2.12,-1.09 -4.32,-1.28 -2.12,-0.18 -13.42,-0.18 -14.6,-0.18 -0.47,0 -0.57,0.27 -0.57,0.92 l 0,25.37 c 0,0.64 0.19,0.92 0.57,0.92 1,0 11.02,-0.11 12.58,-0.28 4.96,-0.56 5.88,-1.65 6.52,-3.12 0.47,-1.12 0.55,-2.67 0.55,-3.31 0,-0.75 0.19,-1.21 0.74,-1.21 0.38,0 0.54,0.56 0.64,1.03 0.19,1.1 0.37,5.13 0.45,6.05 0.28,2.57 0.75,3.68 0.75,4.32 0,0.46 -0.1,0.83 -0.37,0.83 -0.46,0 -0.83,-0.37 -1.3,-0.45 -0.72,-0.2 -2.19,-0.38 -3.94,-0.46 -2.12,-0.09 -20.39,-0.09 -21.05,-0.09 l -3.76,0.17 c -2.03,0.1 -4.51,0.1 -6.62,0.1 -1.01,0 -1.47,-0.18 -1.47,-0.74 0,-0.36 0.37,-0.55 0.73,-0.55 0.83,0 2.39,-0.09 3.12,-0.27 3.04,-0.65 3.79,-2.13 3.97,-5.24 0.16,-2.94 0.16,-5.53 0.16,-19.85 l 0,-16.19 z m 109.32,0 c 0,-8.81 0,-16.07 -0.45,-19.93 -0.37,-2.68 -0.84,-4.69 -2.68,-5.07 -0.83,-0.18 -1.93,-0.36 -2.76,-0.36 -0.55,0 -0.73,-0.27 -0.73,-0.55 0,-0.55 0.47,-0.73 1.46,-0.73 1.39,0 3.51,0.18 5.34,0.18 1.93,0.08 3.5,0.08 3.67,0.08 1.38,0 3.59,-0.08 7.18,-0.26 3.57,-0.1 8.63,-0.29 15.53,-0.29 3.58,0 4.32,0 4.96,2.4 0.46,1.92 1.19,8.17 1.19,8.92 0,0.63 0,1.38 -0.55,1.38 -0.45,0 -0.64,-0.37 -0.81,-1.38 -0.66,-3.77 -1.77,-5.62 -4.14,-6.63 -2.41,-1 -6.44,-1 -8.84,-1 -9,0 -10.39,1.18 -10.66,7.53 -0.09,1.94 0,12.6 0,15.71 l 0,8.1 c 0,0.37 0.19,0.64 0.64,0.64 1.56,0 10.67,-0.18 13.16,-0.46 3.57,-0.36 4.4,-1.93 4.77,-3.21 0.36,-1.2 0.36,-2.13 0.36,-3.04 0,-0.46 0.2,-0.83 0.65,-0.83 0.64,0 0.64,1.02 0.64,1.74 0,0.66 0.19,4.05 0.37,5.89 0.27,3.04 0.74,4.6 0.74,5.15 0,0.55 -0.18,0.73 -0.47,0.73 -0.36,0 -0.73,-0.45 -1.36,-1.2 -0.84,-0.91 -2.13,-1.09 -4.34,-1.28 -2.1,-0.18 -13.41,-0.18 -14.6,-0.18 -0.45,0 -0.56,0.27 -0.56,0.92 l 0,25.37 c 0,0.64 0.19,0.92 0.56,0.92 1.01,0 11.03,-0.11 12.59,-0.28 4.96,-0.56 5.88,-1.65 6.53,-3.12 0.45,-1.12 0.54,-2.67 0.54,-3.31 0,-0.75 0.19,-1.21 0.74,-1.21 0.37,0 0.55,0.56 0.63,1.03 0.2,1.1 0.38,5.13 0.47,6.05 0.28,2.57 0.74,3.68 0.74,4.32 0,0.46 -0.1,0.83 -0.37,0.83 -0.46,0 -0.84,-0.37 -1.28,-0.45 -0.74,-0.2 -2.22,-0.38 -3.96,-0.46 -2.11,-0.09 -20.4,-0.09 -21.05,-0.09 l -3.76,0.17 c -2.02,0.1 -4.52,0.1 -6.61,0.1 -1.03,0 -1.48,-0.18 -1.48,-0.74 0,-0.36 0.37,-0.55 0.74,-0.55 0.82,0 2.38,-0.09 3.12,-0.27 3.03,-0.65 3.77,-2.13 3.95,-5.24 0.19,-2.94 0.19,-5.53 0.19,-19.85 l 0,-16.19 z m 85.64,-305.9 c 0,0.91 0.38,1.28 1.11,1.28 2.76,0 11.95,0 14.34,-0.37 4.42,-0.55 9.01,-1.11 15.25,-5.33 14.16,-9.74 17.84,-25.74 17.84,-36.77 0,-20.77 -15.99,-26.1 -25.93,-26.1 -3.31,0 -11.2,0.36 -16.17,2.76 -5.7,2.76 -5.7,5.33 -6.25,14.33 -0.19,2.77 -0.19,25.56 -0.19,39.72 l 0,10.48 z m 0,58.26 c 0,1.11 0.56,1.65 2.21,2.03 2.95,0.73 6.81,0.92 8.83,0.92 18.01,0 24.81,-16.37 24.81,-31.62 0,-7.55 -2.75,-14.16 -6.61,-18.58 -3.86,-4.4 -6.44,-4.76 -16.73,-4.76 -6.8,0 -10.1,0.55 -11.21,0.73 -0.92,0.36 -1.3,0.73 -1.3,2.02 l 0,49.26 z m -14.7,-77.56 c 0,-17.65 0,-32.17 -0.91,-39.9 -0.74,-5.33 -1.66,-9.37 -5.32,-10.1 -1.67,-0.38 -3.87,-0.73 -5.53,-0.73 -1.1,0 -1.47,-0.57 -1.47,-1.11 0,-1.12 0.92,-1.48 2.94,-1.48 2.76,0 6.99,0.36 10.65,0.36 3.87,0.2 7,0.2 7.36,0.2 0.75,0 5.88,-0.2 11.22,-0.56 5.33,-0.18 11.21,-0.55 13.22,-0.55 31.45,0 46.89,20.4 46.89,40.07 0,21.5 -18.21,34.56 -31.8,38.8 8.63,9 17.27,18.01 17.27,33.08 0,9.19 -6.61,27.58 -36.76,27.58 -8.46,0 -15.62,-0.57 -20.04,-0.57 -0.91,0 -12.5,0.57 -20.77,0.57 -2.02,0 -2.93,-0.39 -2.93,-1.48 0,-0.73 0.72,-1.1 1.45,-1.1 1.67,0 4.79,-0.19 6.26,-0.57 6.07,-1.27 7.54,-4.21 7.9,-10.46 0.37,-5.88 0.37,-11.03 0.37,-39.71 l 0,-32.34 z m 122.81,32.34 c 0,28.68 0,33.83 0.37,39.71 0.38,6.43 1.86,9.55 6.81,10.46 2.21,0.38 3.31,0.57 4.6,0.57 0.73,0 1.47,0.37 1.47,1.1 0,1.09 -0.92,1.48 -2.95,1.48 -5.51,0 -17.09,-0.57 -18.01,-0.57 -0.93,0 -12.49,0.57 -18.56,0.57 -2.04,0 -2.93,-0.39 -2.93,-1.48 0,-0.73 0.72,-1.1 1.46,-1.1 1.27,0 3.67,-0.19 5.69,-0.74 4.04,-0.92 5.89,-4.04 6.25,-10.29 0.37,-5.88 0.37,-11.03 0.37,-39.71 l 0,-32.34 c 0,-17.65 0,-32.17 -0.92,-39.9 -0.73,-5.33 -1.66,-9.37 -5.33,-10.1 -1.66,-0.38 -3.86,-0.73 -5.51,-0.73 -1.12,0 -1.47,-0.57 -1.47,-1.11 0,-1.12 0.92,-1.48 2.93,-1.48 5.53,0 17.09,0.56 18.02,0.56 0.92,0 12.5,-0.56 22.6,-0.56 2.04,0 2.95,0.56 2.95,1.48 0,0.54 -0.38,1.11 -1.47,1.11 -1.66,0 -5.7,0.35 -8.28,0.73 -5.49,0.73 -6.61,4.77 -7.16,10.1 -0.93,7.73 -0.93,22.25 -0.93,39.9 l 0,32.34 z m 55.68,27.38 c 5.89,-6.61 26.62,-29.76 47.9,-52.75 19.45,-20.95 45.88,-47.97 47.89,-49.8 9.77,-9.75 12,-11.77 13.47,-11.77 1.31,0 1.68,0.91 1.68,13.04 l 0.36,107.73 c 0,11.02 0.73,15.07 6.81,16.34 2.21,0.57 3.49,0.57 4.4,0.57 1.29,0 2.03,0.55 2.03,1.28 0,1.1 -1.29,1.3 -3.31,1.3 -7.54,0 -13.63,-0.57 -15.67,-0.57 -2.03,0 -10.88,0.57 -19.12,0.57 -2.19,0 -3.67,-0.2 -3.67,-1.3 0,-0.73 0.18,-1.28 1.48,-1.28 1.44,0 5.68,-0.19 8.98,-0.92 5.69,-1.47 6.97,-5.52 7.16,-17.47 l 2.02,-93.37 c -5.88,6.07 -25.88,28.49 -44.05,47.98 -28.26,30.32 -55.61,59.91 -58.36,63.04 -1.86,1.84 -5.01,5.87 -6.49,5.87 -1.49,0 -2.03,-2.02 -2.03,-9.18 l -0.19,-105.32 c 0,-16.73 -0.92,-22.07 -5.52,-23.36 -2.76,-0.91 -6.06,-1.08 -7.53,-1.08 -0.93,0 -1.47,-0.38 -1.47,-1.11 0,-1.3 1.1,-1.48 2.94,-1.48 8.27,0 16.04,0.56 17.69,0.56 1.67,0 9.02,-0.56 19.49,-0.56 2.2,0 3.3,0.36 3.3,1.48 0,0.73 -0.55,1.11 -1.48,1.11 -1.64,0 -5.69,0.17 -9.16,1.08 -4.95,1.48 -6.8,6.26 -7.16,21.34 l -2.39,88.03 z m 243.55,-97.4 c 0,-3.12 -1.28,-5.15 -3.66,-6.43 -4.79,-2.76 -14.34,-3.87 -20.96,-3.87 -16.92,0 -33.65,5.52 -48.17,19.67 -6.44,6.25 -19.48,25.01 -19.48,50.92 0,21.5 7.53,38.23 18.2,46.69 13.96,11.04 27.75,12.13 39.34,12.13 23.71,0 38.59,-7.9 43.19,-14.89 2.75,-4.4 3.68,-9.55 3.86,-12.13 0.18,-1.64 0.37,-2.75 1.28,-2.75 1.29,0 1.66,0.91 1.66,3.85 0,18.38 1.29,23.53 1.29,26.1 0,0.74 -0.37,1.48 -2.21,1.67 -4.6,0.18 -11.04,0.91 -14.89,1.82 -3.49,0.75 -16.54,3.14 -28.13,3.14 -14.14,0 -32.35,-1.3 -48.88,-11.58 -16.36,-10.3 -30.7,-31.07 -30.7,-60.47 0,-22.98 10.65,-42.65 21.87,-52.39 20.4,-17.84 46.5,-19.67 60.48,-19.67 10.66,0 27.2,2.01 38.97,8.26 2.2,1.3 2.38,1.68 2.38,9.93 l 0,20.58 c 0,7.73 0,13.25 0.37,19.13 0.37,6.43 1.83,9.56 6.79,10.47 2.22,0.36 3.31,0.56 4.61,0.56 0.73,0 1.47,0.37 1.47,1.1 0,1.11 -0.92,1.46 -2.95,1.46 -5.52,0 -17.1,-0.55 -18,-0.55 -0.93,0 -12.5,0.55 -20.78,0.55 -2.02,0 -2.94,-0.35 -2.94,-1.46 0,-0.73 0.74,-1.1 1.46,-1.1 1.66,0 4.79,-0.2 6.26,-0.56 7.35,-2.01 8.27,-4.04 8.27,-18.93 l 0,-31.25 z m 57.54,37.68 c 0,-17.65 0,-32.17 -0.92,-39.9 -0.73,-5.33 -1.66,-9.37 -5.33,-10.1 -1.65,-0.38 -3.86,-0.73 -5.52,-0.73 -1.1,0 -1.47,-0.57 -1.47,-1.11 0,-1.12 0.93,-1.48 2.94,-1.48 2.76,0 6.99,0.36 10.65,0.36 3.87,0.2 7,0.2 7.37,0.2 2.76,0 7.17,-0.2 14.34,-0.56 7.17,-0.18 17.27,-0.55 31.06,-0.55 7.18,0 8.64,0 9.93,4.79 0.92,3.85 2.39,16.35 2.39,17.82 0,1.28 0,2.76 -1.11,2.76 -0.91,0 -1.28,-0.73 -1.65,-2.76 -1.29,-7.54 -3.49,-11.21 -8.27,-13.24 -4.79,-2.01 -12.87,-2.01 -17.65,-2.01 -18.01,0 -20.77,2.38 -21.32,15.07 -0.18,3.85 0,25.19 0,31.44 l 0,16.16 c 0,0.75 0.37,1.3 1.28,1.3 3.13,0 21.33,-0.37 26.29,-0.93 7.17,-0.74 8.82,-3.86 9.56,-6.44 0.74,-2.39 0.74,-4.22 0.74,-6.06 0,-0.91 0.37,-1.64 1.28,-1.64 1.28,0 1.28,2.02 1.28,3.48 0,1.29 0.37,8.09 0.74,11.77 0.55,6.06 1.46,9.19 1.46,10.3 0,1.1 -0.34,1.46 -0.91,1.46 -0.73,0 -1.47,-0.91 -2.75,-2.39 -1.66,-1.85 -4.23,-2.21 -8.65,-2.58 -4.22,-0.36 -26.83,-0.36 -29.22,-0.36 -0.92,0 -1.1,0.54 -1.1,1.84 l 0,50.73 c 0,1.29 0.37,1.84 1.1,1.84 2.03,0 22.06,-0.18 25.18,-0.55 9.94,-1.11 11.77,-3.31 13.04,-6.25 0.93,-2.21 1.11,-5.33 1.11,-6.61 0,-1.48 0.37,-2.41 1.48,-2.41 0.72,0 1.09,1.12 1.29,2.03 0.36,2.21 0.74,10.31 0.91,12.13 0.55,5.15 1.48,7.36 1.48,8.64 0,0.93 -0.2,1.66 -0.73,1.66 -0.92,0 -1.66,-0.73 -2.57,-0.93 -1.49,-0.37 -4.42,-0.73 -7.91,-0.92 -4.24,-0.18 -40.81,-0.18 -42.1,-0.18 l -7.55,0.37 c -4.03,0.2 -9,0.2 -13.22,0.2 -2.03,0 -2.94,-0.39 -2.94,-1.48 0,-0.73 0.73,-1.1 1.45,-1.1 1.67,0 4.8,-0.19 6.27,-0.57 6.05,-1.27 7.53,-4.21 7.89,-10.46 0.38,-5.88 0.38,-11.03 0.38,-39.71 l 0,-32.34 z m 107.32,59.72 c 5.88,-6.61 26.62,-29.76 47.91,-52.75 19.45,-20.95 45.87,-47.97 47.89,-49.8 9.77,-9.75 11.98,-11.77 13.47,-11.77 1.3,0 1.67,0.91 1.67,13.04 l 0.36,107.73 c 0,11.02 0.73,15.07 6.82,16.34 2.2,0.57 3.49,0.57 4.41,0.57 1.27,0 2.01,0.55 2.01,1.28 0,1.1 -1.29,1.3 -3.3,1.3 -7.54,0 -13.64,-0.57 -15.67,-0.57 -2.04,0 -10.86,0.57 -19.13,0.57 -2.2,0 -3.66,-0.2 -3.66,-1.3 0,-0.73 0.18,-1.28 1.46,-1.28 1.47,0 5.69,-0.19 8.99,-0.92 5.69,-1.47 6.97,-5.52 7.16,-17.47 l 2.03,-93.37 c -5.88,6.07 -25.89,28.49 -44.05,47.98 -28.26,30.32 -55.61,59.91 -58.37,63.04 -1.86,1.84 -5,5.87 -6.48,5.87 -1.49,0 -2.04,-2.02 -2.04,-9.18 l -0.19,-105.32 c 0,-16.73 -0.92,-22.07 -5.51,-23.36 -2.76,-0.91 -6.06,-1.08 -7.55,-1.08 -0.91,0 -1.46,-0.38 -1.46,-1.11 0,-1.3 1.1,-1.48 2.95,-1.48 8.26,0 16.02,0.56 17.68,0.56 1.67,0 9.03,-0.56 19.49,-0.56 2.21,0 3.3,0.36 3.3,1.48 0,0.73 -0.54,1.11 -1.46,1.11 -1.66,0 -5.7,0.17 -9.19,1.08 -4.94,1.48 -6.78,6.26 -7.14,21.34 l -2.4,88.03 z m -815.64,18.03 23.12,-0.38 c 17.61,-0.37 22.03,-4.58 22.57,-10.1 l 0.18,-2.02 c 0.19,-2.59 0.57,-3.14 1.51,-3.14 0.76,0 1.31,0.74 1.31,2.39 0,2.03 0.57,14.71 0.57,20.23 0,1.09 0,2.21 -0.94,2.21 -0.76,0 -2.45,-0.55 -5.2,-0.92 -2.94,-0.56 -7.16,-0.93 -13.04,-0.93 l -68.86,0 c -2.21,0 -9.19,0.37 -14.53,0.93 -4.96,0.37 -6.81,2.19 -8.08,2.19 -0.74,0 -1.46,-2.39 -1.83,-3.48 -0.38,-1.47 -4.06,-17.27 -4.06,-19.13 0,-1.1 0.37,-1.64 0.92,-1.64 0.73,0 1.28,0.37 1.84,1.84 0.55,1.28 1.1,2.56 3.13,5.7 2.94,4.4 7.35,5.69 18.74,5.87 l 27.21,0.38 0,-77.75 c 0,-17.65 0,-32.17 -0.91,-39.9 -0.74,-5.33 -1.66,-9.37 -5.34,-10.1 -1.65,-0.38 -3.87,-0.73 -5.51,-0.73 -1.12,0 -1.47,-0.57 -1.47,-1.11 0,-1.12 0.91,-1.48 2.95,-1.48 5.5,0 17.08,0.56 18,0.56 0.92,0 12.48,-0.56 22.58,-0.56 2.01,0 2.94,0.56 2.94,1.48 0,0.54 -0.38,1.11 -1.47,1.11 -1.65,0 -5.68,0.35 -8.26,0.73 -5.5,0.73 -6.6,4.77 -7.16,10.1 -0.91,7.73 -0.91,22.25 -0.91,39.9 l 0,77.75 z m 77.38,-72.23 c 0,-26.83 6.99,-39.71 15.99,-48.34 13.05,-12.31 31.61,-13.05 37.87,-13.05 10.84,0 24.63,1.83 37.86,13.59 14.71,13.07 16.91,35.13 16.91,54.97 l 0,19.67 c 0,28.67 0,33.83 0.36,39.71 0.37,6.42 1.85,9.36 6.82,10.48 2.2,0.36 3.3,0.55 4.59,0.55 0.73,0 1.47,0.36 1.47,1.09 0,1.11 -0.92,1.48 -2.94,1.48 -5.51,0 -14.15,-0.55 -15.44,-0.55 -1.11,0 -11.22,0.55 -19.49,0.55 -2.02,0 -2.94,-0.37 -2.94,-1.48 0,-0.73 0.74,-1.09 1.47,-1.09 1.66,0 4.79,-0.19 6.24,-0.55 6.08,-1.28 7.55,-4.25 7.92,-10.48 0.37,-5.88 0.37,-11.04 0.37,-39.71 l 0,-22.99 c 0,-18.92 -2.21,-34.55 -10.68,-45.02 -6.61,-7.91 -17.63,-13.24 -28.86,-13.24 -10.46,0 -18.74,1.66 -27.74,10.12 -7.92,7.54 -13.79,18.93 -13.79,45.39 l 0,25.74 c 0,28.67 0,33.83 0.37,39.71 0.36,6.42 1.84,9.73 6.8,10.48 2.2,0.36 3.31,0.55 4.61,0.55 0.72,0 1.46,0.36 1.46,1.09 0,1.11 -0.92,1.48 -2.94,1.48 -5.52,0 -16.55,-0.55 -18.2,-0.55 -1.66,0 -12.87,0.55 -21.14,0.55 -2.02,0 -2.95,-0.37 -2.95,-1.48 0,-0.73 0.75,-1.09 1.48,-1.09 1.65,0 4.79,-0.19 6.25,-0.55 6.07,-1.28 7.54,-4.25 7.9,-10.48 0.37,-5.88 0.37,-11.04 0.37,-39.71 l 0,-26.84 z m 65.71,32.47 c 0,4.98 -3.69,8.1 -8.46,8.1 -4.58,0 -7.35,-3.49 -7.35,-7.91 0,-5.7 4.59,-7.89 7.9,-7.89 3.49,0 7.91,2.19 7.91,7.7 m 0,36.95 c 0,4.97 -3.69,8.1 -8.46,8.1 -4.58,0 -7.35,-3.49 -7.35,-7.91 0,-5.7 4.59,-7.91 7.9,-7.91 3.49,0 7.91,2.21 7.91,7.72 m 351.66,109.99 c 19.23,5.27 32.17,21.34 32.17,43.12 0,10.02 -5.28,18.52 -9.45,22.48 -3.03,2.84 -11.53,10.77 -35.15,10.77 -8.69,0 -24.74,-0.58 -29.74,-0.58 -2.16,0 -12.53,0.56 -20.8,0.56 -2.04,0 -2.95,-0.36 -2.95,-1.48 0,-0.73 0.74,-1.09 1.47,-1.09 1.66,0 4.78,-0.19 6.26,-0.57 6.09,-1.28 7.56,-4.22 7.92,-10.5 0.37,-5.87 0.37,-11.05 0.37,-39.78 l 0,-32.42 c 0,-17.67 0,-32.23 -0.92,-39.96 -0.74,-5.35 -1.65,-9.41 -5.34,-10.14 -1.66,-0.36 -3.88,-0.73 -5.53,-0.73 -1.1,0 -1.48,-0.55 -1.48,-1.11 0,-1.1 0.93,-1.47 2.97,-1.47 5.5,0 17.12,0.55 17.3,0.55 0.93,0 12.53,-0.55 22.66,-0.55 2.02,0 2.95,0.55 2.95,1.47 0,0.56 -0.38,1.11 -1.48,1.11 -1.66,0 -5.71,0.37 -8.29,0.73 -5.52,0.73 -6.64,4.79 -7.18,10.14 -0.93,7.73 -0.93,22.29 -0.93,39.96 l 0,4.43 c 0,0.92 0.38,1.46 1.29,1.46 l 17.87,-0.27 c 1.12,0 2.09,-0.44 2.44,-1.19 2.8,-6.12 6.68,-16.46 12.24,-27.88 7.61,-15.58 8.93,-22.5 16.84,-26.73 4.79,-2.58 9.81,-3.23 20.13,-3.23 l 8.88,0 c 3.31,0 4.42,0.37 4.42,1.47 0,0.56 -0.75,1.13 -1.66,1.11 -1.82,-0.05 -4.88,0.46 -8.36,1.08 -3,0.52 -11.71,2.65 -17.09,12.73 -6.73,12.61 -14.5,30.97 -21.83,46.51 m -658.77,-3.92 c 0,-26.91 7,-39.81 16.04,-48.47 13.08,-12.35 31.69,-13.08 37.96,-13.08 10.87,0 24.7,1.84 37.96,13.63 14.75,13.08 16.96,35.21 16.96,55.1 l 0,19.72 c 0,28.75 0,33.91 0.37,39.82 0.37,6.44 1.83,9.38 6.81,10.5 2.23,0.37 3.33,0.55 4.63,0.55 0.73,0 1.46,0.36 1.46,1.1 0,1.12 -0.93,1.49 -2.95,1.49 -5.53,0 -14.19,-0.56 -15.48,-0.56 -1.09,0 -11.23,0.56 -19.53,0.56 -2.04,0 -2.95,-0.37 -2.95,-1.49 0,-0.74 0.72,-1.1 1.47,-1.1 1.65,0 4.78,-0.18 6.27,-0.55 6.07,-1.3 7.55,-4.24 7.92,-10.5 0.36,-5.91 0.36,-11.07 0.36,-39.82 l 0,-23.04 c 0,-18.97 -2.21,-34.64 -10.68,-45.14 -6.63,-7.92 -17.69,-13.27 -28.93,-13.27 -10.51,0 -18.8,1.65 -27.83,10.14 -7.93,7.56 -13.82,18.98 -13.82,45.51 l 0,25.8 c 0,28.75 0,33.91 0.37,39.82 0.36,6.44 1.84,9.75 6.82,10.5 2.2,0.37 3.31,0.55 4.61,0.55 0.73,0 1.47,0.36 1.47,1.1 0,1.12 -0.94,1.49 -2.95,1.49 -5.53,0 -16.6,-0.56 -18.26,-0.56 -1.65,0 -12.89,0.56 -21.18,0.56 -2.03,0 -2.96,-0.37 -2.96,-1.49 0,-0.74 0.75,-1.1 1.48,-1.1 1.65,0 4.8,-0.18 6.26,-0.55 6.08,-1.3 7.56,-4.24 7.94,-10.5 0.36,-5.91 0.36,-11.07 0.36,-39.82 l 0,-26.9 z m 150.44,54.37 c 5.89,-6.63 26.68,-29.87 48.02,-52.91 19.5,-21 46,-48.08 48.03,-49.93 9.79,-9.77 12.02,-11.79 13.5,-11.79 1.31,0 1.68,0.92 1.68,13.07 l 0.37,108 c 0,11.07 0.73,15.11 6.83,16.41 2.19,0.55 3.49,0.55 4.41,0.55 1.29,0 2.03,0.55 2.03,1.29 0,1.11 -1.28,1.3 -3.32,1.3 -7.57,0 -13.67,-0.56 -15.71,-0.56 -2.04,0 -10.9,0.56 -19.18,0.56 -2.21,0 -3.67,-0.19 -3.67,-1.3 0,-0.74 0.18,-1.29 1.46,-1.29 1.48,0 5.7,-0.18 9.02,-0.93 5.69,-1.46 6.99,-5.53 7.18,-17.49 l 2.03,-93.64 c -5.9,6.09 -25.95,28.58 -44.17,48.11 -28.33,30.41 -55.74,60.08 -58.51,63.22 -1.86,1.83 -5.02,5.89 -6.51,5.89 -1.49,0 -2.04,-2.03 -2.04,-9.22 l -0.19,-105.6 c 0,-16.76 -0.91,-22.11 -5.52,-23.41 -2.77,-0.91 -6.08,-1.09 -7.56,-1.09 -0.92,0 -1.47,-0.37 -1.47,-1.12 0,-1.28 1.1,-1.47 2.95,-1.47 8.29,0 16.07,0.56 17.74,0.56 1.66,0 9.04,-0.56 19.53,-0.56 2.21,0 3.31,0.37 3.31,1.47 0,0.75 -0.55,1.12 -1.47,1.12 -1.65,0 -5.7,0.18 -9.21,1.09 -4.95,1.49 -6.79,6.28 -7.16,21.39 l -2.4,88.28 z m 167.5,-27.47 c 0,28.75 0,33.91 0.38,39.82 0.37,6.44 1.85,9.57 6.82,10.5 2.21,0.37 3.3,0.55 4.6,0.55 0.74,0 1.48,0.36 1.48,1.1 0,1.12 -0.92,1.49 -2.96,1.49 -5.53,0 -17.13,-0.56 -18.05,-0.56 -0.93,0 -12.54,0.56 -18.62,0.56 -2.02,0 -2.95,-0.37 -2.95,-1.49 0,-0.74 0.73,-1.1 1.48,-1.1 1.28,0 3.68,-0.18 5.71,-0.73 4.06,-0.94 5.9,-4.06 6.26,-10.32 0.37,-5.91 0.37,-11.07 0.37,-39.82 l 0,-32.43 c 0,-17.69 0,-32.25 -0.91,-39.99 -0.74,-5.35 -1.66,-9.4 -5.35,-10.13 -1.67,-0.38 -3.87,-0.74 -5.53,-0.74 -1.1,0 -1.48,-0.56 -1.48,-1.12 0,-1.1 0.93,-1.47 2.96,-1.47 5.52,0 17.13,0.56 18.06,0.56 0.92,0 12.52,-0.56 22.66,-0.56 2.03,0 2.96,0.56 2.96,1.47 0,0.56 -0.37,1.12 -1.48,1.12 -1.66,0 -5.71,0.36 -8.29,0.74 -5.53,0.73 -6.64,4.78 -7.19,10.13 -0.93,7.74 -0.93,22.3 -0.93,39.99 l 0,32.43 z m 706.31,36.33 c 4.98,0 8.12,3.69 8.12,8.48 0,4.61 -3.51,7.37 -7.94,7.37 -5.71,0 -7.93,-4.61 -7.93,-7.92 0,-3.51 2.22,-7.93 7.75,-7.93 m 47.28,0 c 4.97,0 8.11,3.69 8.11,8.48 0,4.61 -3.5,7.37 -7.93,7.37 -5.71,0 -7.91,-4.61 -7.91,-7.92 0,-3.51 2.2,-7.93 7.73,-7.93 m -44.75,-61.21 c -0.55,0 -0.92,0.38 -0.55,1.3 l 16.21,49.76 c 0.94,2.75 1.86,2.75 2.77,0 l 17.52,-49.76 c 0.18,-0.74 0.18,-1.3 -0.73,-1.3 l -35.22,0 z m -25.79,-40.72 c -3.33,-9.22 -7,-16.22 -15.49,-17.33 -1.47,-0.18 -4.05,-0.36 -5.33,-0.36 -0.93,0 -1.67,-0.37 -1.67,-1.12 0,-1.1 1.1,-1.47 3.5,-1.47 8.67,0 18.8,0.56 20.84,0.56 2.02,0 9.94,-0.56 14.36,-0.56 1.67,0 2.77,0.37 2.77,1.47 0,0.75 -0.56,1.12 -1.83,1.12 l -1.87,0 c -3.11,0 -6.99,1.65 -6.99,5.34 0,3.31 0.92,7.74 2.58,12.35 l 11.06,32.62 c 0.38,0.92 0.92,1.47 1.84,1.47 l 39.63,0 c 0.92,0 1.28,-0.37 1.65,-1.1 l 17.13,-45.34 c 1.12,-2.95 0,-4.6 -1.09,-4.98 -0.74,-0.18 -1.3,-0.55 -1.3,-1.29 0,-1.1 2.02,-1.1 5.53,-1.29 12.72,-0.37 26.18,-0.37 28.94,-0.37 2.03,0 3.68,0.37 3.68,1.47 0,0.93 -0.73,1.12 -1.84,1.12 -1.84,0 -4.6,0.18 -7.37,1.09 -3.87,1.12 -9.22,4.07 -15.85,20.46 -11.23,28.02 -40.18,104.14 -42.94,111.13 -2.21,5.72 -2.94,6.64 -4.06,6.64 -1.1,0 -1.84,-1.1 -4.04,-7.17 l -41.84,-114.46 z m -618.99,96.56 c -2.76,7.2 -4.97,12.9 -4.97,15.3 0,1.3 0.36,2.76 2.39,3.68 1.66,0.75 4.98,0.93 7.01,0.93 1.3,0 1.83,0.36 1.83,1.29 0,0.93 -1.65,1.3 -4.98,1.3 -6.99,0 -15.28,-0.56 -17.13,-0.56 -2.21,0 -12.71,0.56 -21.56,0.56 -2.95,0 -4.79,-0.19 -4.79,-1.3 0,-0.74 0.37,-1.29 1.46,-1.29 1.12,0 4.25,0 7.02,-0.73 6.45,-1.85 9.21,-3.88 13.27,-14.19 l 45.15,-112.99 c 3.5,-8.84 4.42,-11.41 6.64,-11.41 1.84,0 2.56,2.94 7.72,14 4.26,9.04 12.54,28.93 23.79,55.84 9.4,22.67 18.62,44.79 20.64,49.95 4.97,12.52 7.74,15.66 10.13,17.32 3.51,2.21 7.55,2.21 8.85,2.21 1.47,0 2.21,0.36 2.21,1.29 0,0.93 -1.11,1.3 -3.13,1.3 -5.34,0 -13.28,-0.56 -14.38,-0.56 -2.21,0 -10.68,0.56 -18.06,0.56 -2.94,0 -4.04,-0.37 -4.04,-1.49 0,-0.91 0.91,-1.1 2.02,-1.1 2.02,0 4.79,0 7,-0.73 1.83,-0.94 2.4,-2.77 2.4,-4.25 0,-1.66 -0.74,-4.23 -1.65,-7.01 -4.06,-13.26 -28.76,-77.58 -39.45,-102.27 l -35.39,94.35 z m 127.66,-63.39 c 0,-17.69 0,-32.25 -0.93,-39.99 -0.73,-5.35 -1.65,-9.4 -5.34,-10.13 -1.66,-0.38 -3.87,-0.74 -5.53,-0.74 -1.1,0 -1.47,-0.56 -1.47,-1.12 0,-1.1 0.92,-1.47 2.95,-1.47 2.76,0 7,0.37 10.69,0.37 3.86,0.19 7,0.19 7.37,0.19 2.76,0 7.19,-0.19 14.37,-0.56 7.19,-0.18 17.33,-0.54 31.15,-0.54 7.18,0 8.66,0 9.94,4.78 0.92,3.87 2.4,16.4 2.4,17.89 0,1.28 0,2.76 -1.1,2.76 -0.93,0 -1.3,-0.75 -1.66,-2.76 -1.29,-7.56 -3.5,-11.26 -8.29,-13.29 -4.79,-2.02 -12.9,-2.02 -17.69,-2.02 -18.06,0 -20.83,2.4 -21.38,15.11 -0.18,3.88 0,25.25 0,31.52 l 0,16.22 c 0,0.73 0.37,1.28 1.29,1.28 3.14,0 21.38,-0.37 26.35,-0.91 7.18,-0.74 8.85,-3.88 9.58,-6.45 0.74,-2.41 0.74,-4.24 0.74,-6.09 0,-0.91 0.36,-1.66 1.3,-1.66 1.27,0 1.27,2.04 1.27,3.51 0,1.28 0.38,8.11 0.75,11.78 0.55,6.1 1.47,9.23 1.47,10.34 0,1.1 -0.36,1.47 -0.92,1.47 -0.73,0 -1.47,-0.92 -2.76,-2.4 -1.66,-1.85 -4.25,-2.21 -8.66,-2.58 -4.24,-0.36 -26.91,-0.36 -29.3,-0.36 -0.93,0 -1.11,0.54 -1.11,1.84 l 0,50.85 c 0,1.3 0.37,1.85 1.11,1.85 2.02,0 22.11,-0.18 25.25,-0.55 9.95,-1.1 11.78,-3.31 13.08,-6.27 0.92,-2.2 1.09,-5.35 1.09,-6.63 0,-1.47 0.38,-2.39 1.49,-2.39 0.73,0 1.1,1.1 1.28,2.03 0.38,2.21 0.75,10.32 0.93,12.16 0.55,5.16 1.48,7.36 1.48,8.66 0,0.91 -0.18,1.66 -0.75,1.66 -0.91,0 -1.66,-0.75 -2.57,-0.93 -1.48,-0.37 -4.43,-0.73 -7.93,-0.91 -4.23,-0.19 -40.91,-0.19 -42.2,-0.19 l -7.55,0.37 c -4.05,0.19 -9.05,0.19 -13.28,0.19 -2.02,0 -2.95,-0.37 -2.95,-1.49 0,-0.74 0.74,-1.1 1.48,-1.1 1.66,0 4.79,-0.18 6.27,-0.55 6.08,-1.3 7.55,-4.24 7.91,-10.5 0.38,-5.91 0.38,-11.07 0.38,-39.82 l 0,-32.43 z m 239.8,-56.02 c 9.94,0 19.9,2.21 27.84,7.74 12.7,9.02 15.65,23.03 15.65,30.59 0,14.73 -5.15,26.17 -26.91,43.31 l -5.16,4.04 c -17.69,13.84 -22.48,20.46 -22.48,30.97 0,13.46 9.95,21.37 22.67,21.37 16.96,0 21.93,-7.72 23.04,-9.75 1.09,-2.03 2.21,-7.01 2.4,-9.23 0.18,-1.47 0.37,-2.39 1.47,-2.39 0.92,0 1.29,1.3 1.29,4.25 0,12.53 0.73,18.61 0.73,19.52 0,0.93 -0.36,1.3 -1.83,1.3 -1.48,0 -2.97,0.19 -6.46,0.91 -4.61,1.12 -9.95,1.85 -17.14,1.85 -23.41,0 -38.15,-13.45 -38.15,-33.17 0,-12.54 4.43,-23.96 23.96,-39.99 l 8.29,-6.82 c 15.86,-13.09 21.19,-20.46 21.19,-33.17 0,-11.81 -8.65,-24.52 -26.34,-24.52 -12.36,0 -24.52,5.17 -27.29,18.8 -0.54,2.59 -0.54,5.16 -0.54,6.81 0,1.49 -0.19,2.03 -1.29,2.03 -0.94,0 -1.3,-0.91 -1.48,-2.94 -0.18,-2.95 -0.92,-10.33 -0.92,-19.53 0,-4.98 0.19,-5.73 2.77,-7.01 7.55,-3.68 16.03,-4.97 24.69,-4.97 m 95.93,88.45 c 0,28.75 0,33.91 0.37,39.82 0.36,6.44 1.84,9.57 6.81,10.5 2.22,0.37 3.32,0.55 4.61,0.55 0.74,0 1.49,0.36 1.49,1.1 0,1.12 -0.94,1.49 -2.97,1.49 -5.52,0 -17.13,-0.56 -18.04,-0.56 -0.93,0 -12.56,0.56 -18.62,0.56 -2.04,0 -2.96,-0.37 -2.96,-1.49 0,-0.74 0.74,-1.1 1.49,-1.1 1.28,0 3.68,-0.18 5.71,-0.73 4.06,-0.94 5.89,-4.06 6.26,-10.32 0.36,-5.91 0.36,-11.07 0.36,-39.82 l 0,-32.43 c 0,-17.69 0,-32.25 -0.91,-39.99 -0.74,-5.35 -1.65,-9.4 -5.35,-10.13 -1.66,-0.38 -3.88,-0.74 -5.54,-0.74 -1.1,0 -1.46,-0.56 -1.46,-1.12 0,-1.1 0.93,-1.47 2.95,-1.47 5.51,0 17.14,0.56 18.07,0.56 0.91,0 12.52,-0.56 22.66,-0.56 2.02,0 2.94,0.56 2.94,1.47 0,0.56 -0.36,1.12 -1.48,1.12 -1.65,0 -5.71,0.36 -8.28,0.74 -5.54,0.73 -6.64,4.78 -7.19,10.13 -0.92,7.74 -0.92,22.3 -0.92,39.99 l 0,32.43 z m 95.15,45.53 23.16,-0.37 c 17.67,-0.38 22.1,-4.61 22.64,-10.14 l 0.17,-2.03 c 0.2,-2.57 0.58,-3.12 1.52,-3.12 0.75,0 1.32,0.72 1.32,2.39 0,2.02 0.56,14.74 0.56,20.27 0,1.1 0,2.2 -0.95,2.2 -0.74,0 -2.45,-0.55 -5.2,-0.91 -2.94,-0.55 -7.17,-0.92 -13.06,-0.92 l -69.06,0 c -2.21,0 -9.21,0.37 -14.55,0.92 -4.99,0.36 -6.83,2.21 -8.11,2.21 -0.74,0 -1.48,-2.4 -1.84,-3.5 -0.38,-1.47 -4.06,-17.32 -4.06,-19.17 0,-1.1 0.37,-1.65 0.92,-1.65 0.73,0 1.28,0.36 1.84,1.84 0.56,1.29 1.11,2.57 3.14,5.7 2.94,4.43 7.37,5.73 18.79,5.91 l 27.28,0.37 0,-77.96 c 0,-17.69 0,-32.25 -0.93,-39.99 -0.73,-5.35 -1.64,-9.4 -5.34,-10.13 -1.65,-0.38 -3.87,-0.74 -5.52,-0.74 -1.11,0 -1.47,-0.56 -1.47,-1.12 0,-1.1 0.91,-1.47 2.94,-1.47 5.53,0 17.14,0.56 18.06,0.56 0.91,0 12.52,-0.56 22.64,-0.56 2.03,0 2.94,0.56 2.94,1.47 0,0.56 -0.37,1.12 -1.46,1.12 -1.66,0 -5.71,0.36 -8.28,0.74 -5.52,0.73 -6.63,4.78 -7.18,10.13 -0.91,7.74 -0.91,22.3 -0.91,39.99 l 0,77.96 z m 227.13,0 23.17,-0.37 c 17.66,-0.38 22.07,-4.61 22.62,-10.14 l 0.19,-2.03 c 0.19,-2.57 0.55,-3.12 1.51,-3.12 0.75,0 1.32,0.72 1.32,2.39 0,2.02 0.55,14.74 0.55,20.27 0,1.1 0,2.2 -0.93,2.2 -0.76,0 -2.45,-0.55 -5.21,-0.91 -2.94,-0.55 -7.19,-0.92 -13.05,-0.92 l -69.08,0 c -2.19,0 -9.2,0.37 -14.55,0.92 -4.97,0.36 -6.82,2.21 -8.11,2.21 -0.74,0 -1.47,-2.4 -1.84,-3.5 -0.37,-1.47 -4.06,-17.32 -4.06,-19.17 0,-1.1 0.37,-1.65 0.92,-1.65 0.74,0 1.29,0.36 1.84,1.84 0.55,1.29 1.12,2.57 3.14,5.7 2.95,4.43 7.38,5.73 18.8,5.91 l 27.27,0.37 0,-77.96 c 0,-17.69 0,-32.25 -0.91,-39.99 -0.74,-5.35 -1.67,-9.4 -5.35,-10.13 -1.65,-0.38 -3.88,-0.74 -5.53,-0.74 -1.11,0 -1.48,-0.56 -1.48,-1.12 0,-1.1 0.93,-1.47 2.97,-1.47 5.52,0 17.13,0.56 18.04,0.56 0.93,0 12.53,-0.56 22.65,-0.56 2.03,0 2.94,0.56 2.94,1.47 0,0.56 -0.36,1.12 -1.47,1.12 -1.65,0 -5.69,0.36 -8.28,0.74 -5.52,0.73 -6.62,4.78 -7.17,10.13 -0.91,7.74 -0.91,22.3 -0.91,39.99 l 0,77.96 z m -530.25,1.94 c 5.68,0.08 18.18,1.01 28.2,-9.19 10.02,-10.2 10.57,-22.86 10.57,-29.1 0,-17.4 -14.27,-30.42 -32.6,-30.42 -7.57,0 -15.92,1.3 -18.7,2.95 -0.91,0.56 -1.29,1.3 -1.29,2.21 l 0,60.24 c 0,1.11 0.56,1.85 1.47,2.21 1.85,0.55 6.82,1.04 12.35,1.1" /><g
           transform="scale(10,10)"
           id="g3017">

</g></g></g></g></svg>