<?xml version="1.0" encoding="utf-8"?>
<!-- Generator: Adobe Illustrator 24.3.0, SVG Export Plug-In . SVG Version: 6.00 Build 0)  -->
<svg version="1.1" id="Layer_1" xmlns="http://www.w3.org/2000/svg" xmlns:xlink="http://www.w3.org/1999/xlink" x="0px" y="0px"
	 viewBox="0 0 417 362.3" style="enable-background:new 0 0 417 362.3;" xml:space="preserve">
<style type="text/css">
	.st0{opacity:0.502;fill:#1FC2A7;enable-background:new    ;}
	.st1{fill:#CAF3FC;}
	.st2{fill-rule:evenodd;clip-rule:evenodd;fill:#0BB5DD;}
	.st3{fill:none;stroke:#0684A2;stroke-miterlimit:8;}
	.st4{fill:#0BB5DD;}
	.st5{fill:none;stroke:#0684A2;stroke-width:1;stroke-miterlimit:8.0001;}
	.st6{clip-path:url(#SVGID_2_);}
	.st7{fill:none;stroke:#0888A6;stroke-width:3;stroke-linecap:round;stroke-miterlimit:8;}
	.st8{fill:#FFFFFF;}
	.st9{fill:none;stroke:#0684A2;stroke-width:1.5;stroke-miterlimit:8;}
	.st10{fill:none;stroke:#0BB5DD;stroke-width:1.5;stroke-linecap:round;stroke-miterlimit:8;}
	.st11{fill:none;stroke:#595959;stroke-width:1.5;stroke-linecap:round;stroke-miterlimit:8;}
	.st12{fill:none;stroke:#0BB5DD;stroke-width:1.5;stroke-miterlimit:8;}
	.st13{fill:#595959;}
	.st14{font-family:'BradleyHandITCTT-Bold';}
	.st15{font-size:24px;}
</style>
<circle class="st0" cx="207.2" cy="212.6" r="135.5"/>
<circle class="st1" cx="135.3" cy="104.8" r="49.5"/>
<path class="st2" d="M122.1,102.3c-0.8-0.7-1.2-1.3-3.3,0.4c-2.1,1.7-6.5,6.1-9.1,9.8c-2.5,3.7-5.1,9.3-6.2,12.4
	c-1.1,3-1.1,4.2-0.3,5.9c0.8,1.7,2.2,2.6,5.3,4.5c3.1,1.9,13.4,6.9,13.4,6.9c3.9,2,7.2,4.5,10.2,5c3.1,0.6,4.4,0,8.2-1.6
	s10.3-5.6,14.4-7.9c4.1-2.3,8.3-4.1,10.2-6s2.1-3.3,1.4-5.5c-0.6-2.2-1.1-4.3-3.5-7.8c-2.3-3.4-7.8-10.2-10.5-12.9
	c-2.7-2.7-4.3-4.2-5.9-3.3c-1.7,0.9-2.3,5-4,8.6c-1.8,3.7-5.1,10.9-6.6,13.4c-1.5,2.4-1.3,2.4-2.6,1.3s-3.3-4.8-5-8.2
	c-1.7-3.4-3.6-7.8-4.5-10.3C123,104.3,123,102.9,122.1,102.3z"/>
<path class="st3" d="M122.1,102.3c-0.8-0.7-1.2-1.3-3.3,0.4s-6.5,6.1-9.1,9.8c-2.5,3.7-5.1,9.3-6.2,12.4c-1.1,3-1.1,4.2-0.3,5.9
	c0.8,1.7,2.2,2.6,5.3,4.5c3.1,1.9,13.4,6.9,13.4,6.9c3.9,2,7.2,4.5,10.2,5c3.1,0.6,4.4,0,8.2-1.6s10.3-5.6,14.4-7.9
	c4.1-2.3,8.3-4.1,10.2-6s2.1-3.3,1.4-5.5c-0.6-2.2-1.1-4.3-3.5-7.8c-2.3-3.4-7.8-10.2-10.5-12.9c-2.7-2.7-4.3-4.2-5.9-3.3
	s-2.3,5-4,8.6c-1.8,3.7-5.1,10.9-6.6,13.4c-1.5,2.4-1.3,2.4-2.6,1.3s-3.3-4.8-5-8.2c-1.7-3.4-3.6-7.8-4.5-10.3
	C123,104.3,123,102.9,122.1,102.3z"/>
<circle class="st4" cx="134.2" cy="82" r="17.4"/>
<ellipse class="st5" cx="134.3" cy="82" rx="17.4" ry="17.4"/>
<g>
	<g>
		<defs>
			<rect id="SVGID_1_" x="115.2" y="65.1" width="37" height="33.7"/>
		</defs>
		<clipPath id="SVGID_2_">
			<use xlink:href="#SVGID_1_"  style="overflow:visible;"/>
		</clipPath>
		<g class="st6">
			
				<image style="overflow:visible;enable-background:new    ;" width="35" height="32" xlink:href="C08CCCA4BFE8292D.png"  transform="matrix(1.0547 0 0 1.0547 115.2327 65.099)">
			</image>
		</g>
	</g>
</g>
<line class="st7" x1="148.4" y1="116.8" x2="148.4" y2="125.5"/>
<line class="st7" x1="150.6" y1="117.9" x2="150.6" y2="126.6"/>
<path class="st2" d="M151.4,128.8h-1.7c-2.5,0-4.6-2.2-4.6-4.8v-3.9H156v3.9C156,126.6,154,128.8,151.4,128.8z"/>
<path class="st3" d="M151.4,128.8h-1.7c-2.5,0-4.6-2.2-4.6-4.8v-3.9H156v3.9C156,126.6,154,128.8,151.4,128.8z"/>
<path class="st4" d="M97.2,244.2c0-9.6,7.8-17.4,17.4-17.4h258c9.6,0,17.4,7.8,17.4,17.4v17.4c0,9.6-7.8,17.4-17.4,17.4h-258
	c-9.6,0-17.4-7.8-17.4-17.4C97.2,261.6,97.2,244.2,97.2,244.2z"/>
<path class="st3" d="M97.2,244.2c0-9.6,7.8-17.4,17.4-17.4h258c9.6,0,17.4,7.8,17.4,17.4v17.4c0,9.6-7.8,17.4-17.4,17.4h-258
	c-9.6,0-17.4-7.8-17.4-17.4C97.2,261.6,97.2,244.2,97.2,244.2z"/>
<ellipse class="st8" cx="135.3" cy="253.4" rx="15.2" ry="15.8"/>
<ellipse class="st3" cx="135.3" cy="253.4" rx="15.2" ry="15.8"/>
<ellipse class="st8" cx="189.8" cy="253.4" rx="15.2" ry="15.8"/>
<ellipse class="st3" cx="189.8" cy="253.4" rx="15.2" ry="15.8"/>
<ellipse class="st8" cx="244.2" cy="253.4" rx="15.2" ry="15.8"/>
<ellipse class="st3" cx="244.2" cy="253.4" rx="15.2" ry="15.8"/>
<ellipse class="st8" cx="298.6" cy="253.4" rx="15.2" ry="15.8"/>
<ellipse class="st3" cx="298.6" cy="253.4" rx="15.2" ry="15.8"/>
<rect x="125.5" y="279" class="st4" width="18.5" height="37"/>
<rect x="125.5" y="279" class="st3" width="18.5" height="37"/>
<ellipse class="st8" cx="354.2" cy="253.4" rx="15.2" ry="15.8"/>
<ellipse class="st3" cx="354.2" cy="253.4" rx="15.2" ry="15.8"/>
<rect x="338.9" y="279" class="st4" width="17.4" height="37"/>
<rect x="338.9" y="279" class="st3" width="17.4" height="37"/>
<rect x="322" y="196.8" class="st4" width="8.7" height="18.5"/>
<rect x="322" y="196.8" class="st9" width="8.7" height="18.5"/>
<rect x="332.9" y="192.5" class="st4" width="8.7" height="22.9"/>
<rect x="332.9" y="192.5" class="st9" width="8.7" height="22.9"/>
<rect x="342.7" y="187" class="st4" width="8.7" height="28.3"/>
<rect x="342.7" y="187" class="st9" width="8.7" height="28.3"/>
<path class="st10" d="M318.3,205.6c-14.4,0.2-26.2-11.2-26.5-25.6c-0.2-14.4,11.2-26.2,25.6-26.5c14.4-0.2,26.2,11.2,26.5,25.6
	c0,0.7,0,1.3,0,2"/>
<line class="st10" x1="343.8" y1="183" x2="349" y2="177.2"/>
<line class="st10" x1="343" y1="182.4" x2="337.3" y2="177.2"/>
<path class="st11" d="M306.6,185.1c-1.2-2-1.2-6.5,0.1-9.2c1.3-2.7,3.7-6.4,10.3-6.5c2.3,0,5.7-0.5,7.9-1.1c2.2-0.5,4.2-2,5.2-2
	s0.8,0.9,0.6,2.2c-0.2,1.3-0.9,3.8-1.5,5.5c-0.7,1.6-2.5,6.4-3.9,8.5c-1.4,2.2-2.6,3.5-4.5,4.4s-4.5,1.4-6.8,1.1
	S307.8,187.1,306.6,185.1z"/>
<path class="st11" d="M304.6,192.5c1.1-4.9,2.2-9.8,12-13.1"/>
<rect x="276.3" y="150" class="st4" width="12" height="5.4"/>
<rect x="276.3" y="150" class="st9" width="12" height="5.4"/>
<line class="st12" x1="288.3" y1="152.2" x2="297.9" y2="152.2"/>
<line class="st12" x1="298.1" y1="152.2" x2="302.1" y2="168.7"/>
<rect x="285" y="204.5" class="st4" width="12" height="5.4"/>
<rect x="285" y="204.5" class="st9" width="12" height="5.4"/>
<line class="st12" x1="297" y1="207.7" x2="305.6" y2="207.7"/>
<line class="st12" x1="305.7" y1="207.8" x2="309.8" y2="191.4"/>
<rect x="349.3" y="159.8" class="st4" width="13.1" height="5.4"/>
<rect x="349.3" y="159.8" class="st9" width="13.1" height="5.4"/>
<line class="st12" x1="343.8" y1="163.1" x2="350.1" y2="163.1"/>
<line class="st12" x1="325.3" y1="172.5" x2="343" y2="163.1"/>
<path class="st10" d="M348,131.1c1.2,0,2.4,0.3,3.5,1c1.4,1,2.3,2.5,2.6,4c0.3,1.6-0.1,3.2-1.1,4.7l-9,12.8
	c-1.2,1.7-3.1,2.6-5.1,2.6l-1.3,1.9l-0.6-0.6c-0.9-0.7-1.7-1.4-2.7-2l-2.4-1.5l1.3-1.9c-0.7-1.9-0.5-4,0.7-5.7l9-12.8
	C344.1,132,346,131.1,348,131.1z"/>
<path class="st11" d="M25.7,186.2c-1.1-2-1.2-6.5,0.1-9.2c1.2-2.7,3.5-6.4,9.9-6.5c2.2,0,5.4-0.5,7.5-1.1c2.1-0.5,4-2,4.9-2
	s0.7,0.9,0.6,2.2c-0.1,1.3-0.8,3.8-1.5,5.5c-0.6,1.6-2.4,6.4-3.7,8.5c-1.3,2.2-2.5,3.5-4.3,4.4s-4.3,1.4-6.5,1.1
	C30.4,188.8,26.8,188.2,25.7,186.2z"/>
<path class="st11" d="M22.6,192.5c1.1-4.9,2.2-9.8,12-13.1"/>
<rect x="174" y="196.8" class="st4" width="8.7" height="17.4"/>
<rect x="174" y="196.8" class="st9" width="8.7" height="17.4"/>
<rect x="184.9" y="191.4" class="st4" width="8.7" height="22.9"/>
<rect x="184.9" y="191.4" class="st9" width="8.7" height="22.9"/>
<rect x="194.7" y="187" class="st4" width="8.7" height="27.2"/>
<rect x="194.7" y="187" class="st9" width="8.7" height="27.2"/>
<path class="st11" d="M158.5,185.1c-1.2-2-1.2-6.5,0.1-9.2s3.7-6.4,10.3-6.5c2.3,0,5.7-0.5,7.9-1.1c2.2-0.5,4.2-2,5.2-2
	s0.8,0.9,0.6,2.2s-0.9,3.8-1.5,5.5c-0.7,1.6-2.5,6.4-3.9,8.5c-1.4,2.2-2.6,3.5-4.5,4.4s-4.5,1.4-6.8,1.1S159.7,187.1,158.5,185.1z"
	/>
<path class="st11" d="M156.6,191.4c1.1-4.5,2.2-9,12-12"/>
<rect x="137" y="204.5" class="st4" width="12" height="5.4"/>
<rect x="137" y="204.5" class="st9" width="12" height="5.4"/>
<line class="st12" x1="148.9" y1="206.6" x2="157.5" y2="206.6"/>
<line class="st12" x1="157.6" y1="206.8" x2="161.7" y2="190.3"/>
<polygon class="st4" points="91.8,177.8 104.8,177.8 104.8,174.5 111.4,181 104.8,187.6 104.8,184.3 91.8,184.3 "/>
<polygon class="st3" points="91.8,177.8 104.8,177.8 104.8,174.5 111.4,181 104.8,187.6 104.8,184.3 91.8,184.3 "/>
<polygon class="st4" points="232.2,180 246.4,180 246.4,176.7 252.9,183.2 246.4,189.8 246.4,186.5 232.2,186.5 "/>
<polygon class="st3" points="232.2,180 246.4,180 246.4,176.7 252.9,183.2 246.4,189.8 246.4,186.5 232.2,186.5 "/>
<text transform="matrix(1 0 0 1 71.6342 26.693)" class="st13 st14 st15">on-site personell assistance</text>
</svg>
