<?xml version="1.0" encoding="UTF-8" standalone="no"?>
<!DOCTYPE svg PUBLIC "-//W3C//DTD SVG 1.1//EN" "http://www.w3.org/Graphics/SVG/1.1/DTD/svg11.dtd">
<svg width="100%" height="100%" viewBox="0 0 620 500" version="1.1" xmlns="http://www.w3.org/2000/svg" xmlns:xlink="http://www.w3.org/1999/xlink" xml:space="preserve" xmlns:serif="http://www.serif.com/" style="fill-rule:evenodd;clip-rule:evenodd;stroke-miterlimit:8.0002;">
    <g transform="matrix(1.83713,-0.36806,0.359601,1.88035,-24.3172,7.2745)">
        <rect x="42.4" y="84.4" width="48.7" height="2.5" style="fill:rgb(89,89,89);"/>
    </g>
    <g transform="matrix(1.83713,-0.36806,0.359601,1.88035,-24.3172,7.2745)">
        <rect x="42.4" y="84.4" width="48.7" height="2.5" style="fill:none;stroke:rgb(63,63,63);stroke-width:1px;"/>
    </g>
    <g transform="matrix(1.83713,-0.36806,0.359601,1.88035,-22.2897,1.71013)">
        <rect x="40.8" y="77.3" width="23.1" height="2.5" style="fill:rgb(89,89,89);"/>
    </g>
    <g transform="matrix(1.83713,-0.36806,0.359601,1.88035,-22.2897,1.71013)">
        <rect x="40.8" y="77.3" width="23.1" height="2.5" style="fill:none;stroke:rgb(63,63,63);stroke-width:1px;"/>
    </g>
    <g transform="matrix(1.83713,-0.36806,0.359601,1.88035,-27.6929,8.31722)">
        <rect x="44.4" y="94" width="48.7" height="2.5" style="fill:rgb(89,89,89);"/>
    </g>
    <g transform="matrix(1.83713,-0.36806,0.359601,1.88035,-27.6929,8.31722)">
        <rect x="44.4" y="94" width="48.7" height="2.5" style="fill:none;stroke:rgb(63,63,63);stroke-width:1px;"/>
    </g>
    <g transform="matrix(1.83713,-0.36806,0.359601,1.88035,-31.0767,9.33168)">
        <rect x="46.2" y="103.5" width="48.7" height="2.5" style="fill:rgb(89,89,89);"/>
    </g>
    <g transform="matrix(1.83713,-0.36806,0.359601,1.88035,-31.0767,9.33168)">
        <rect x="46.2" y="103.5" width="48.7" height="2.5" style="fill:none;stroke:rgb(63,63,63);stroke-width:1px;"/>
    </g>
    <g transform="matrix(1.83713,-0.36806,0.359601,1.88035,-34.425,10.366)">
        <rect x="48.1" y="113" width="48.7" height="2.5" style="fill:rgb(89,89,89);"/>
    </g>
    <g transform="matrix(1.83713,-0.36806,0.359601,1.88035,-34.425,10.366)">
        <rect x="48.1" y="113" width="48.7" height="2.5" style="fill:none;stroke:rgb(63,63,63);stroke-width:1px;"/>
    </g>
    <g transform="matrix(1.83713,-0.36806,0.359601,1.88035,-37.8088,11.3806)">
        <rect x="49.9" y="122.6" width="48.7" height="2.5" style="fill:rgb(89,89,89);"/>
    </g>
    <g transform="matrix(1.83713,-0.36806,0.359601,1.88035,-37.8088,11.3806)">
        <rect x="49.9" y="122.6" width="48.7" height="2.5" style="fill:none;stroke:rgb(63,63,63);stroke-width:1px;"/>
    </g>
    <g transform="matrix(1.87194,0,0,1.91598,4.14053,-20.3618)">
        <path d="M43.4,143.5L25.7,52.8L67.4,44.6L72.3,69.7L97.4,64.8L110.2,130.4L43.4,143.5ZM70.2,45.8L95.3,62.7L74.3,66.8L70.2,45.8ZM22.8,50.9L41.5,146.4L113.1,132.4L99.5,62.6L68.7,41.9L22.8,50.9Z" style="fill:rgb(89,89,89);"/>
    </g>
    <g transform="matrix(1.52828,0,0,1.52828,59.3834,-8.73424)">
        <g transform="matrix(0.984166,0,0,0.970362,2.73739,5.20301)">
            <rect x="0" y="0" width="275.619" height="50.518" style="fill:none;"/>
        </g>
        <g transform="matrix(0.130815,0,0,0.128986,-3.38026,29.374)">
            <text x="0px" y="0px" style="font-family:'BradleyHandITC', 'Bradley Hand ITC', cursive;font-size:200px;fill:rgb(89,89,89);stroke:black;stroke-width:2.54px;stroke-linejoin:round;stroke-miterlimit:2;">c</text>
            <g transform="matrix(1,0,0,1,82.822,0)">
                <text x="0px" y="0px" style="font-family:'BradleyHandITC', 'Bradley Hand ITC', cursive;font-size:200px;fill:rgb(89,89,89);stroke:black;stroke-width:2.54px;stroke-linejoin:round;stroke-miterlimit:2;">l</text>
            </g>
            <g>
                <g transform="matrix(1,0,0,1,144.662,0)">
                    <text x="0px" y="0px" style="font-family:'BradleyHandITC', 'Bradley Hand ITC', cursive;font-size:200px;fill:rgb(89,89,89);stroke:black;stroke-width:2.54px;stroke-linejoin:round;stroke-miterlimit:2;">a</text>
                </g>
                <g transform="matrix(1,0,0,1,244.485,0)">
                    <text x="0px" y="0px" style="font-family:'BradleyHandITC', 'Bradley Hand ITC', cursive;font-size:200px;fill:rgb(89,89,89);stroke:black;stroke-width:2.54px;stroke-linejoin:round;stroke-miterlimit:2;">ss</text>
                </g>
            </g>
            <g transform="matrix(1,0,0,1,420.109,0)">
                <text x="0px" y="0px" style="font-family:'BradleyHandITC', 'Bradley Hand ITC', cursive;font-size:200px;fill:rgb(89,89,89);stroke:black;stroke-width:2.54px;stroke-linejoin:round;stroke-miterlimit:2;">i</text>
            </g>
            <g transform="matrix(1,0,0,1,480.948,0)">
                <text x="0px" y="0px" style="font-family:'BradleyHandITC', 'Bradley Hand ITC', cursive;font-size:200px;fill:rgb(89,89,89);stroke:black;stroke-width:2.54px;stroke-linejoin:round;stroke-miterlimit:2;">c</text>
            </g>
            <g transform="matrix(1,0,0,1,562.77,0)">
                <text x="0px" y="0px" style="font-family:'BradleyHandITC', 'Bradley Hand ITC', cursive;font-size:200px;fill:rgb(89,89,89);stroke:black;stroke-width:2.54px;stroke-linejoin:round;stroke-miterlimit:2;">a</text>
            </g>
            <g transform="matrix(1,0,0,1,661.594,0)">
                <text x="0px" y="0px" style="font-family:'BradleyHandITC', 'Bradley Hand ITC', cursive;font-size:200px;fill:rgb(89,89,89);stroke:black;stroke-width:2.54px;stroke-linejoin:round;stroke-miterlimit:2;">l</text>
            </g>
            <g transform="matrix(1,0,0,1,771.21,0)">
                <text x="0px" y="0px" style="font-family:'BradleyHandITC', 'Bradley Hand ITC', cursive;font-size:200px;fill:rgb(89,89,89);stroke:black;stroke-width:2.54px;stroke-linejoin:round;stroke-miterlimit:2;">p</text>
            </g>
            <g>
                <g transform="matrix(1,0,0,1,862.054,0)">
                    <text x="0px" y="0px" style="font-family:'BradleyHandITC', 'Bradley Hand ITC', cursive;font-size:200px;fill:rgb(89,89,89);stroke:black;stroke-width:2.54px;stroke-linejoin:round;stroke-miterlimit:2;">u</text>
                </g>
                <g transform="matrix(1,0,0,1,976.819,0)">
                    <text x="0px" y="0px" style="font-family:'BradleyHandITC', 'Bradley Hand ITC', cursive;font-size:200px;fill:rgb(89,89,89);stroke:black;stroke-width:2.54px;stroke-linejoin:round;stroke-miterlimit:2;">b</text>
                </g>
            </g>
            <g transform="matrix(1,0,0,1,1070.59,0)">
                <text x="0px" y="0px" style="font-family:'BradleyHandITC', 'Bradley Hand ITC', cursive;font-size:200px;fill:rgb(89,89,89);stroke:black;stroke-width:2.54px;stroke-linejoin:round;stroke-miterlimit:2;">l</text>
            </g>
            <g transform="matrix(1,0,0,1,1131.43,0)">
                <text x="0px" y="0px" style="font-family:'BradleyHandITC', 'Bradley Hand ITC', cursive;font-size:200px;fill:rgb(89,89,89);stroke:black;stroke-width:2.54px;stroke-linejoin:round;stroke-miterlimit:2;">i</text>
            </g>
            <g transform="matrix(1,0,0,1,1193.27,0)">
                <text x="0px" y="0px" style="font-family:'BradleyHandITC', 'Bradley Hand ITC', cursive;font-size:200px;fill:rgb(89,89,89);stroke:black;stroke-width:2.54px;stroke-linejoin:round;stroke-miterlimit:2;">c</text>
            </g>
            <g transform="matrix(1,0,0,1,1275.09,0)">
                <text x="0px" y="0px" style="font-family:'BradleyHandITC', 'Bradley Hand ITC', cursive;font-size:200px;fill:rgb(89,89,89);stroke:black;stroke-width:2.54px;stroke-linejoin:round;stroke-miterlimit:2;">a</text>
            </g>
            <g transform="matrix(1,0,0,1,1373.91,0)">
                <text x="0px" y="0px" style="font-family:'BradleyHandITC', 'Bradley Hand ITC', cursive;font-size:200px;fill:rgb(89,89,89);stroke:black;stroke-width:2.54px;stroke-linejoin:round;stroke-miterlimit:2;">t</text>
            </g>
            <g transform="matrix(1,0,0,1,1443.74,0)">
                <text x="0px" y="0px" style="font-family:'BradleyHandITC', 'Bradley Hand ITC', cursive;font-size:200px;fill:rgb(89,89,89);stroke:black;stroke-width:2.54px;stroke-linejoin:round;stroke-miterlimit:2;">i</text>
            </g>
            <g transform="matrix(1,0,0,1,1504.58,0)">
                <text x="0px" y="0px" style="font-family:'BradleyHandITC', 'Bradley Hand ITC', cursive;font-size:200px;fill:rgb(89,89,89);stroke:black;stroke-width:2.54px;stroke-linejoin:round;stroke-miterlimit:2;">o</text>
            </g>
            <g transform="matrix(1,0,0,1,1585.42,0)">
                <text x="0px" y="0px" style="font-family:'BradleyHandITC', 'Bradley Hand ITC', cursive;font-size:200px;fill:rgb(89,89,89);stroke:black;stroke-width:2.54px;stroke-linejoin:round;stroke-miterlimit:2;">n</text>
            </g>
        </g>
    </g>
    <g transform="matrix(1.79463,0,0,1.79463,103.813,437.197)">
        <g transform="matrix(0.984166,0,0,0.970362,1.93911,-2.93357)">
            <rect x="0" y="0" width="206.625" height="50.518" style="fill:none;"/>
        </g>
        <g transform="matrix(0.111556,0,0,0.109996,16.7772,26.2596)">
            <text x="0px" y="0px" style="font-family:'BradleyHandITC', 'Bradley Hand ITC', cursive;font-size:200px;fill:rgb(89,89,89);stroke:black;stroke-width:3.32px;stroke-linejoin:round;stroke-miterlimit:2;">A</text>
            <g transform="matrix(1,0,0,1,141.82,0)">
                <text x="0px" y="0px" style="font-family:'BradleyHandITC', 'Bradley Hand ITC', cursive;font-size:200px;fill:rgb(89,89,89);stroke:black;stroke-width:3.32px;stroke-linejoin:round;stroke-miterlimit:2;">R</text>
            </g>
            <g transform="matrix(1,0,0,1,289.584,0)">
                <text x="0px" y="0px" style="font-family:'BradleyHandITC', 'Bradley Hand ITC', cursive;font-size:200px;fill:rgb(89,89,89);stroke:black;stroke-width:3.32px;stroke-linejoin:round;stroke-miterlimit:2;">C</text>
            </g>
            <g transform="matrix(1,0,0,1,460.142,0)">
                <text x="0px" y="0px" style="font-family:'BradleyHandITC', 'Bradley Hand ITC', cursive;font-size:200px;fill:rgb(89,89,89);stroke:black;stroke-width:3.32px;stroke-linejoin:round;stroke-miterlimit:2;">p</text>
            </g>
            <g>
                <g transform="matrix(1,0,0,1,550.986,0)">
                    <text x="0px" y="0px" style="font-family:'BradleyHandITC', 'Bradley Hand ITC', cursive;font-size:200px;fill:rgb(89,89,89);stroke:black;stroke-width:3.32px;stroke-linejoin:round;stroke-miterlimit:2;">u</text>
                </g>
                <g transform="matrix(1,0,0,1,665.751,0)">
                    <text x="0px" y="0px" style="font-family:'BradleyHandITC', 'Bradley Hand ITC', cursive;font-size:200px;fill:rgb(89,89,89);stroke:black;stroke-width:3.32px;stroke-linejoin:round;stroke-miterlimit:2;">b</text>
                </g>
            </g>
            <g transform="matrix(1,0,0,1,759.52,0)">
                <text x="0px" y="0px" style="font-family:'BradleyHandITC', 'Bradley Hand ITC', cursive;font-size:200px;fill:rgb(89,89,89);stroke:black;stroke-width:3.32px;stroke-linejoin:round;stroke-miterlimit:2;">l</text>
            </g>
            <g transform="matrix(1,0,0,1,821.359,0)">
                <text x="0px" y="0px" style="font-family:'BradleyHandITC', 'Bradley Hand ITC', cursive;font-size:200px;fill:rgb(89,89,89);stroke:black;stroke-width:3.32px;stroke-linejoin:round;stroke-miterlimit:2;">i</text>
            </g>
            <g transform="matrix(1,0,0,1,882.199,0)">
                <text x="0px" y="0px" style="font-family:'BradleyHandITC', 'Bradley Hand ITC', cursive;font-size:200px;fill:rgb(89,89,89);stroke:black;stroke-width:3.32px;stroke-linejoin:round;stroke-miterlimit:2;">c</text>
            </g>
            <g transform="matrix(1,0,0,1,965.021,0)">
                <text x="0px" y="0px" style="font-family:'BradleyHandITC', 'Bradley Hand ITC', cursive;font-size:200px;fill:rgb(89,89,89);stroke:black;stroke-width:3.32px;stroke-linejoin:round;stroke-miterlimit:2;">a</text>
            </g>
            <g transform="matrix(1,0,0,1,1063.85,0)">
                <text x="0px" y="0px" style="font-family:'BradleyHandITC', 'Bradley Hand ITC', cursive;font-size:200px;fill:rgb(89,89,89);stroke:black;stroke-width:3.32px;stroke-linejoin:round;stroke-miterlimit:2;">t</text>
            </g>
            <g transform="matrix(1,0,0,1,1132.67,0)">
                <text x="0px" y="0px" style="font-family:'BradleyHandITC', 'Bradley Hand ITC', cursive;font-size:200px;fill:rgb(89,89,89);stroke:black;stroke-width:3.32px;stroke-linejoin:round;stroke-miterlimit:2;">i</text>
            </g>
            <g transform="matrix(1,0,0,1,1193.51,0)">
                <text x="0px" y="0px" style="font-family:'BradleyHandITC', 'Bradley Hand ITC', cursive;font-size:200px;fill:rgb(89,89,89);stroke:black;stroke-width:3.32px;stroke-linejoin:round;stroke-miterlimit:2;">o</text>
            </g>
            <g transform="matrix(1,0,0,1,1275.35,0)">
                <text x="0px" y="0px" style="font-family:'BradleyHandITC', 'Bradley Hand ITC', cursive;font-size:200px;fill:rgb(89,89,89);stroke:black;stroke-width:3.32px;stroke-linejoin:round;stroke-miterlimit:2;">n</text>
            </g>
        </g>
    </g>
    <g transform="matrix(1.87194,0,0,1.91598,4.14053,-20.3618)">
        <path d="M43.4,143.5L25.7,52.8L67.4,44.6L72.3,69.7L97.4,64.8L110.2,130.4L43.4,143.5ZM70.2,45.8L95.3,62.7L74.3,66.8L70.2,45.8ZM22.8,50.9L41.5,146.4L113.1,132.4L99.5,62.6L68.7,41.9L22.8,50.9Z" style="fill:none;fill-rule:nonzero;stroke:rgb(63,63,63);stroke-width:1px;stroke-miterlimit:8;"/>
    </g>
    <g transform="matrix(1.87194,0,0,1.91598,4.14053,-20.3618)">
        <rect x="252.8" y="220.1" width="14.2" height="30.1" style="fill:rgb(255,192,0);"/>
    </g>
    <g transform="matrix(1.87194,0,0,1.91598,4.14053,-20.3618)">
        <rect x="252.8" y="220.1" width="14.2" height="30.1" style="fill:none;stroke:rgb(188,140,0);stroke-width:1px;stroke-miterlimit:8;"/>
    </g>
    <g transform="matrix(1.87194,0,0,1.91598,4.14053,-20.3618)">
        <rect x="270.2" y="213" width="14.2" height="37.2" style="fill:rgb(255,192,0);"/>
    </g>
    <g transform="matrix(1.87194,0,0,1.91598,4.14053,-20.3618)">
        <rect x="270.2" y="213" width="14.2" height="37.2" style="fill:none;stroke:rgb(188,140,0);stroke-width:1px;stroke-miterlimit:8;"/>
    </g>
    <g transform="matrix(1.87194,0,0,1.91598,4.14053,-20.3618)">
        <rect x="286.9" y="205.1" width="15" height="45.1" style="fill:rgb(255,192,0);"/>
    </g>
    <g transform="matrix(1.87194,0,0,1.91598,4.14053,-20.3618)">
        <rect x="286.9" y="205.1" width="15" height="45.1" style="fill:none;stroke:rgb(188,140,0);stroke-width:1px;stroke-miterlimit:8;"/>
    </g>
    <g transform="matrix(1.87194,0,0,1.91598,4.14053,-20.3618)">
        <path d="M246.2,234.3C222.5,234.7 203.1,215.9 202.7,192.2C202.3,168.5 221.1,149.1 244.8,148.7C268.5,148.3 287.9,167.1 288.3,190.8C288.3,191.9 288.3,192.9 288.2,194" style="fill:none;fill-rule:nonzero;stroke:rgb(255,192,0);stroke-width:3.72px;stroke-linecap:round;stroke-miterlimit:8;"/>
    </g>
    <g transform="matrix(1.87194,0,0,1.91598,4.14053,-20.3618)">
        <path d="M287.3,196L295.8,186.5" style="fill:none;fill-rule:nonzero;stroke:rgb(255,192,0);stroke-width:6px;stroke-linecap:round;stroke-miterlimit:8;"/>
    </g>
    <g transform="matrix(1.87194,0,0,1.91598,4.14053,-20.3618)">
        <path d="M287.2,195.8L277.8,187.2" style="fill:none;fill-rule:nonzero;stroke:rgb(255,192,0);stroke-width:6px;stroke-linecap:round;stroke-miterlimit:8;"/>
    </g>
    <g transform="matrix(1.87194,0,0,1.91598,4.14053,-20.3618)">
        <path d="M228.1,201.6C226.2,198.2 226.2,190.8 228.2,186.2C230.3,181.7 234,175.4 244.5,175.3C248.1,175.2 253.5,174.4 256.9,173.6C260.3,172.8 263.5,170.3 265.1,170.3C266.6,170.4 266.3,171.8 266,173.9C265.8,176 264.7,180.3 263.5,183.1C262.5,185.8 259.5,193.7 257.3,197.3C255.1,200.9 253.2,203.2 250.3,204.7C247.3,206.2 243.3,207 239.5,206.5C235.9,206 230,205 228.1,201.6Z" style="fill:none;fill-rule:nonzero;stroke:rgb(89,89,89);stroke-width:3px;stroke-linecap:round;stroke-miterlimit:8;"/>
    </g>
    <g transform="matrix(1.87194,0,0,1.91598,4.14053,-20.3618)">
        <path d="M223.5,212.2C225.3,204.4 227.1,196.7 243.3,191.6" style="fill:none;fill-rule:nonzero;stroke:rgb(89,89,89);stroke-width:3px;stroke-linecap:round;stroke-miterlimit:8;"/>
    </g>
    <g transform="matrix(1.87194,0,0,1.91598,4.14053,-20.3618)">
        <rect x="177.6" y="142.5" width="19.8" height="8.7" style="fill:rgb(255,192,0);"/>
    </g>
    <g transform="matrix(1.87194,0,0,1.91598,4.14053,-20.3618)">
        <rect x="177.6" y="142.5" width="19.8" height="8.7" style="fill:none;stroke:rgb(188,140,0);stroke-width:1px;stroke-miterlimit:8;"/>
    </g>
    <g transform="matrix(1.87194,0,0,1.91598,43.3014,-38.6752)">
        <path d="M177,156.9L192.8,156.9" style="fill:none;fill-rule:nonzero;stroke:rgb(255,192,0);stroke-width:1.5px;stroke-miterlimit:8;"/>
    </g>
    <g transform="matrix(1.87194,0,0,1.91598,4.14053,-20.3618)">
        <path d="M212.9,146.9L219.5,174" style="fill:none;fill-rule:nonzero;stroke:rgb(255,192,0);stroke-width:1.5px;stroke-miterlimit:8;"/>
    </g>
    <g transform="matrix(1.87194,0,0,1.91598,4.14053,-20.3618)">
        <rect x="191.9" y="233.6" width="20.6" height="8.7" style="fill:rgb(255,192,0);"/>
    </g>
    <g transform="matrix(1.87194,0,0,1.91598,4.14053,-20.3618)">
        <rect x="191.9" y="233.6" width="20.6" height="8.7" style="fill:none;stroke:rgb(188,140,0);stroke-width:1px;stroke-miterlimit:8;"/>
    </g>
    <g transform="matrix(1.87194,0,0,1.91598,4.14053,-20.3618)">
        <path d="M212.1,237.9L226.2,237.9" style="fill:none;fill-rule:nonzero;stroke:rgb(255,192,0);stroke-width:1.5px;stroke-miterlimit:8;"/>
    </g>
    <g transform="matrix(1.87194,0,0,1.91598,4.14053,-20.3618)">
        <path d="M226.3,237.4L233,210.2" style="fill:none;fill-rule:nonzero;stroke:rgb(255,192,0);stroke-width:1.5px;stroke-miterlimit:8;"/>
    </g>
    <g transform="matrix(1.87194,0,0,1.91598,4.14053,-20.3618)">
        <rect x="298.7" y="159.9" width="19.8" height="8.7" style="fill:rgb(255,192,0);"/>
    </g>
    <g transform="matrix(1.87194,0,0,1.91598,4.14053,-20.3618)">
        <rect x="298.7" y="159.9" width="19.8" height="8.7" style="fill:none;stroke:rgb(188,140,0);stroke-width:1px;stroke-miterlimit:8;"/>
    </g>
    <g transform="matrix(1.87194,0,0,1.91598,4.14053,-20.3618)">
        <path d="M287.3,164.3L297.6,164.3" style="fill:none;fill-rule:nonzero;stroke:rgb(255,192,0);stroke-width:1.5px;stroke-miterlimit:8;"/>
    </g>
    <g transform="matrix(1.87194,0,0,1.91598,4.14053,-20.3618)">
        <path d="M258,179.9L287.2,164.3" style="fill:none;fill-rule:nonzero;stroke:rgb(255,192,0);stroke-width:1.5px;stroke-miterlimit:8;"/>
    </g>
    <g transform="matrix(1.87194,0,0,1.91598,4.14053,-20.3618)">
        <path d="M295.2,111.6C297.2,111.6 299.2,112.2 300.9,113.3C303.3,115 304.7,117.3 305.2,119.9C305.7,122.5 305.1,125.3 303.5,127.6L288.8,148.7C286.8,151.5 283.7,153.1 280.4,153L278.2,156.2L277.2,155.3C275.8,154.1 274.4,153 272.8,152L268.8,149.5L270.9,146.4C269.8,143.3 270,139.9 272.1,137L286.8,115.9C288.7,113.2 291.9,111.6 295.2,111.6Z" style="fill:none;fill-rule:nonzero;stroke:rgb(255,192,0);stroke-width:3.72px;stroke-linecap:round;stroke-miterlimit:8;"/>
    </g>
    <g transform="matrix(1.87194,0,0,1.91598,4.14053,-20.3618)">
        <path d="M273.8,93.1L271.5,98.6L267.9,93.9C267.8,93.7 267.8,93.6 268,93.5C268.2,93.4 268.3,93.4 268.4,93.6L271.7,98L271.2,98.1L273.3,93C273.4,92.8 273.5,92.8 273.7,92.8C273.8,92.8 273.9,93 273.8,93.1ZM211.5,39.5L217.3,39.8L223,40.7L228.5,42.1L233.8,44.1L238.9,46.6L243.7,49.5L248.2,52.8L252.4,56.6L256.3,60.8L259.8,65.3L262.9,70.2L265.6,75.4L267.9,80.9L269.7,86.7L271,92.7L271.7,98.3L271.1,98.4L270.4,92.9L269.1,87L267.3,81.3L265.1,75.8L262.4,70.7L259.3,65.9L255.8,61.4L252,57.3L247.8,53.6L243.3,50.3L238.6,47.5L233.6,45L228.4,43.1L222.9,41.7L217.3,40.8L211.5,40.5L211.5,39.5Z" style="fill:rgb(89,89,89);fill-rule:nonzero;"/>
    </g>
    <g transform="matrix(1.87194,0,0,1.91598,4.14053,-20.3618)">
        <path d="M59.5,176.1L61.9,170.6L65.5,175.3C65.6,175.5 65.6,175.6 65.4,175.7C65.2,175.8 65.1,175.8 65,175.6L61.7,171.2L62.2,171.1L60.1,176.2C60,176.4 59.9,176.4 59.7,176.4C59.5,176.4 59.4,176.3 59.5,176.1ZM123.1,235.4L117,234.3L111.1,232.7L105.4,230.6L99.9,228.1L94.7,225.1L89.8,221.7L85.2,217.9L80.9,213.8L77,209.4L73.5,204.7L70.4,199.6L67.7,194.3L65.5,188.8L63.8,183L62.5,177L61.8,171.5L62.3,171.3L62.9,176.8L64.2,182.7L65.9,188.5L68.1,194L70.8,199.3L73.9,204.3L77.4,209L81.3,213.4L85.5,217.5L90.1,221.2L95,224.5L100.1,227.4L105.6,229.9L111.3,232L117.2,233.6L123.3,234.7L123.1,235.4Z" style="fill:rgb(89,89,89);fill-rule:nonzero;"/>
    </g>
</svg>
