<svg width="1551" height="1173" xmlns="http://www.w3.org/2000/svg" xmlns:xlink="http://www.w3.org/1999/xlink" xml:space="preserve" overflow="hidden"><g transform="translate(-1414 -588)"><path d="M12.8942 284.944C-4.4034 254.258-4.54621 186.159 13.9747 145.427 32.4956 104.696 66.9062 47.4069 162.643 45.9981 195.899 45.5087 244.661 37.6563 275.959 29.9913 307.257 22.3262 336.577-0.481374 350.432 0.00787295 364.287 0.49712 361.33 13.5863 359.09 32.9271 356.851 52.2678 346.701 91.3167 336.995 116.053 327.289 140.789 300.636 212.763 280.489 245.622 260.342 278.482 243.237 299.223 216.115 313.21 188.994 327.197 151.63 334.255 117.76 329.544 83.8898 324.834 30.1918 315.63 12.8942 284.944Z" stroke="#2D3E50" stroke-width="13.75" stroke-linecap="round" stroke-miterlimit="8" fill="none" fill-rule="evenodd" transform="matrix(-1 0 0 1 1886 811)"/><path d="M0 189C16.3889 117.896 32.7778 46.7913 177 0" stroke="#2D3E50" stroke-width="13.75" stroke-linecap="round" stroke-miterlimit="8" fill="none" fill-rule="evenodd" transform="matrix(-1 0 0 1 1911 1004)"/><path d="M1911 1193C1937.85 1075.62 1964.7 958.243 2201 881" stroke="#2D3E50" stroke-width="13.75" stroke-linecap="round" stroke-miterlimit="8" fill="none" fill-rule="evenodd"/><path d="M1994.22 1018.54C1968.44 972.93 1968.22 871.707 1995.83 811.164 2023.43 750.621 2074.71 665.466 2217.39 663.372 2266.95 662.644 2339.62 650.973 2386.26 639.579 2432.91 628.186 2476.6 594.285 2497.25 595.012 2517.9 595.739 2513.49 615.195 2510.15 643.943 2506.82 672.691 2491.69 730.734 2477.22 767.502 2462.76 804.27 2423.04 911.251 2393.01 960.094 2362.99 1008.94 2337.5 1039.77 2297.08 1060.56 2256.66 1081.35 2200.98 1091.84 2150.5 1084.84 2100.02 1077.83 2019.99 1064.15 1994.22 1018.54Z" stroke="#2D3E50" stroke-width="13.75" stroke-linecap="round" stroke-miterlimit="8" fill="none" fill-rule="evenodd"/><path d="M1911 1193 1911 1401.52" stroke="#2D3E50" stroke-width="13.75" stroke-linecap="round" stroke-miterlimit="8" fill="none" fill-rule="evenodd"/><rect x="1627.5" y="1374.5" width="101" height="89.9998" stroke="#0D141D" stroke-width="4.58333" stroke-miterlimit="8" fill="#2D3E50"/><rect x="1737.5" y="1374.5" width="102" height="89.9998" stroke="#0D141D" stroke-width="4.58333" stroke-miterlimit="8" fill="#2D3E50"/><rect x="1848.5" y="1374.5" width="101" height="89.9998" stroke="#0D141D" stroke-width="4.58333" stroke-miterlimit="8" fill="#2D3E50"/><rect x="1627.5" y="1473.5" width="101" height="90.9998" stroke="#0D141D" stroke-width="4.58333" stroke-miterlimit="8" fill="#2D3E50"/><rect x="1737.5" y="1473.5" width="102" height="90.9998" stroke="#0D141D" stroke-width="4.58333" stroke-miterlimit="8" fill="#2D3E50"/><rect x="1848.5" y="1473.5" width="101" height="90.9998" stroke="#0D141D" stroke-width="4.58333" stroke-miterlimit="8" fill="#2D3E50"/><rect x="1627.5" y="1573.5" width="101" height="91.0001" stroke="#0D141D" stroke-width="4.58333" stroke-miterlimit="8" fill="#2D3E50"/><rect x="1737.5" y="1573.5" width="102" height="91.0001" stroke="#0D141D" stroke-width="4.58333" stroke-miterlimit="8" fill="#2D3E50"/><rect x="1849.5" y="1573.5" width="102" height="91.0001" stroke="#0D141D" stroke-width="4.58333" stroke-miterlimit="8" fill="#2D3E50"/><rect x="1627.5" y="1313.5" width="322" height="45" stroke="#2D3E50" stroke-width="4.58333" stroke-miterlimit="8" fill="#0BB5DD"/><rect x="0" y="0" width="168" height="77" stroke="#2D3E50" stroke-width="4.58333" stroke-miterlimit="8" fill="#0BB5DD" transform="matrix(1 0 0 -1 1416.5 1758.5)"/><path d="M0 0 133.421 0.000360892" stroke="#2D3E50" stroke-width="2.29167" stroke-miterlimit="8" fill="#B4CE82" fill-rule="evenodd" transform="matrix(1 0 0 -1 1584 1720)"/><path d="M0 0 56.371 232.239" stroke="#2D3E50" stroke-width="2.29167" stroke-miterlimit="8" fill="#B4CE82" fill-rule="evenodd" transform="matrix(1 0 0 -1 1717 1719.24)"/><rect x="2075.5" y="1643.5" width="168" height="77" stroke="#2D3E50" stroke-width="4.58333" stroke-miterlimit="8" fill="#0BB5DD"/><path d="M2075.92 1681.5 1942.5 1681.5" stroke="#2D3E50" stroke-width="4.58333" stroke-miterlimit="8" fill="#B4CE82" fill-rule="evenodd"/><path d="M1941.87 1681.74 1885.5 1449.5" stroke="#2D3E50" stroke-width="4.58333" stroke-miterlimit="8" fill="#B4CE82" fill-rule="evenodd"/><rect x="1464.5" y="1142.5" width="168" height="77" stroke="#2D3E50" stroke-width="4.58333" stroke-miterlimit="8" fill="#0BB5DD"/><path d="M1632 1181 1765.42 1181" stroke="#2D3E50" stroke-width="2.29167" stroke-miterlimit="8" fill="#B4CE82" fill-rule="evenodd"/><path d="M1765 1181 1821.37 1413.24" stroke="#2D3E50" stroke-width="2.29167" stroke-miterlimit="8" fill="#B4CE82" fill-rule="evenodd"/><path d="M2348.19 1052.67 2290.81 1218.64 2406.6 1218.64 2348.45 1052.67ZM2723.69 1044.95 2723.69 1157.14 2766.92 1157.14C2778.58 1157.14 2788.66 1155.73 2797.15 1152.9 2805.65 1150.07 2812.72 1146.12 2818.38 1141.06 2824.04 1136 2828.21 1130.04 2830.86 1123.18 2833.52 1116.31 2834.85 1108.85 2834.85 1100.79 2834.85 1087.75 2831.94 1076.73 2826.1 1067.72 2820.27 1058.72 2810.49 1052.24 2796.77 1048.29 2792.48 1047.09 2787.63 1046.24 2782.23 1045.72 2776.83 1045.21 2769.75 1044.95 2761 1044.95ZM2695.9 1008.41 2766.66 1008.41C2775.07 1008.41 2782.06 1008.62 2787.63 1009.05 2793.21 1009.48 2798.23 1009.95 2802.69 1010.47 2815.55 1012.7 2826.92 1016.21 2836.78 1021.02 2846.65 1025.82 2854.92 1031.91 2861.61 1039.29 2868.3 1046.66 2873.32 1055.11 2876.67 1064.63 2880.01 1074.16 2881.69 1084.66 2881.69 1096.16 2881.69 1107.31 2880.18 1117.3 2877.18 1126.13 2874.18 1134.97 2869.85 1142.77 2864.19 1149.55 2858.53 1156.33 2851.75 1162.2 2843.86 1167.18 2835.97 1172.15 2827.13 1176.36 2817.35 1179.79 2822.84 1182.19 2827.82 1185.23 2832.28 1188.92 2836.74 1192.61 2840.9 1197.03 2844.76 1202.17 2848.62 1207.32 2852.26 1213.24 2855.7 1219.93 2859.13 1226.62 2862.56 1234.17 2865.99 1242.57L2895.84 1315.91C2898.24 1322.09 2899.78 1326.42 2900.47 1328.91 2901.16 1331.39 2901.5 1333.32 2901.5 1334.7 2901.5 1336.07 2901.24 1337.27 2900.73 1338.3 2900.21 1339.33 2899.1 1340.19 2897.38 1340.87 2895.67 1341.56 2893.27 1342.07 2890.18 1342.42 2887.09 1342.76 2882.97 1342.93 2877.83 1342.93 2873.37 1342.93 2869.72 1342.76 2866.89 1342.42 2864.06 1342.07 2861.79 1341.51 2860.07 1340.74 2858.35 1339.97 2857.03 1338.9 2856.08 1337.53 2855.14 1336.15 2854.32 1334.44 2853.64 1332.38L2823.02 1253.9C2819.41 1244.98 2815.68 1236.78 2811.82 1229.32 2807.96 1221.86 2803.37 1215.43 2798.06 1210.02 2792.74 1204.62 2786.48 1200.42 2779.27 1197.41 2772.07 1194.41 2763.4 1192.91 2753.28 1192.91L2723.69 1192.91 2723.69 1334.7C2723.69 1336.07 2723.3 1337.27 2722.53 1338.3 2721.76 1339.33 2720.56 1340.14 2718.93 1340.74 2717.3 1341.34 2715.07 1341.86 2712.24 1342.29 2709.41 1342.72 2705.85 1342.93 2701.56 1342.93 2697.27 1342.93 2693.71 1342.72 2690.88 1342.29 2688.05 1341.86 2685.78 1341.34 2684.06 1340.74 2682.34 1340.14 2681.14 1339.33 2680.46 1338.3 2679.77 1337.27 2679.43 1336.07 2679.43 1334.7L2679.43 1026.42C2679.43 1019.73 2681.19 1015.06 2684.7 1012.4 2688.22 1009.74 2691.95 1008.41 2695.9 1008.41ZM2045.9 1008.41 2195.66 1008.41C2196.86 1008.41 2198.02 1008.75 2199.13 1009.44 2200.25 1010.12 2201.24 1011.24 2202.09 1012.78 2202.95 1014.33 2203.55 1016.34 2203.89 1018.83 2204.24 1021.32 2204.41 1024.19 2204.41 1027.45 2204.41 1030.71 2204.24 1033.54 2203.89 1035.94 2203.55 1038.34 2202.95 1040.27 2202.09 1041.73 2201.24 1043.19 2200.25 1044.26 2199.13 1044.95 2198.02 1045.64 2196.86 1045.98 2195.66 1045.98L2073.69 1045.98 2073.69 1159.2 2188.97 1159.2C2190.17 1159.2 2191.33 1159.5 2192.44 1160.1 2193.56 1160.7 2194.55 1161.69 2195.4 1163.06 2196.26 1164.43 2196.86 1166.28 2197.2 1168.59 2197.55 1170.91 2197.72 1173.87 2197.72 1177.47 2197.72 1180.73 2197.55 1183.52 2197.2 1185.83 2196.86 1188.15 2196.26 1190.04 2195.4 1191.49 2194.55 1192.95 2193.56 1194.07 2192.44 1194.84 2191.33 1195.61 2190.17 1196 2188.97 1196L2073.69 1196 2073.69 1334.7C2073.69 1335.9 2073.35 1337.05 2072.66 1338.17 2071.97 1339.28 2070.77 1340.14 2069.06 1340.74 2067.34 1341.34 2065.11 1341.86 2062.37 1342.29 2059.62 1342.72 2056.02 1342.93 2051.56 1342.93 2047.44 1342.93 2043.92 1342.72 2041.01 1342.29 2038.09 1341.86 2035.78 1341.34 2034.06 1340.74 2032.35 1340.14 2031.14 1339.28 2030.46 1338.17 2029.77 1337.05 2029.43 1335.9 2029.43 1334.7L2029.43 1026.42C2029.43 1019.73 2031.19 1015.06 2034.7 1012.4 2038.22 1009.74 2041.95 1008.41 2045.9 1008.41ZM2569.56 1006.86C2573.85 1006.86 2577.41 1007.08 2580.24 1007.51 2583.07 1007.94 2585.34 1008.45 2587.06 1009.05 2588.77 1009.65 2589.97 1010.47 2590.66 1011.5 2591.35 1012.53 2591.69 1013.73 2591.69 1015.1L2591.69 1334.7C2591.69 1336.07 2591.35 1337.27 2590.66 1338.3 2589.97 1339.33 2588.77 1340.14 2587.06 1340.74 2585.34 1341.34 2583.07 1341.86 2580.24 1342.29 2577.41 1342.72 2573.85 1342.93 2569.56 1342.93 2565.44 1342.93 2561.92 1342.72 2559.01 1342.29 2556.09 1341.86 2553.78 1341.34 2552.06 1340.74 2550.34 1340.14 2549.14 1339.33 2548.46 1338.3 2547.77 1337.27 2547.43 1336.07 2547.43 1334.7L2547.43 1015.1C2547.43 1013.73 2547.81 1012.53 2548.59 1011.5 2549.36 1010.47 2550.65 1009.65 2552.45 1009.05 2554.25 1008.45 2556.56 1007.94 2559.39 1007.51 2562.22 1007.08 2565.61 1006.86 2569.56 1006.86ZM2349.73 1006.86C2355.22 1006.86 2359.77 1006.99 2363.37 1007.25 2366.97 1007.51 2369.89 1007.98 2372.12 1008.67 2374.35 1009.35 2376.07 1010.34 2377.27 1011.63 2378.47 1012.91 2379.41 1014.5 2380.1 1016.39L2491.78 1325.69C2493.15 1329.46 2493.88 1332.51 2493.96 1334.82 2494.05 1337.14 2493.41 1338.9 2492.03 1340.1 2490.66 1341.3 2488.39 1342.07 2485.21 1342.42 2482.04 1342.76 2477.79 1342.93 2472.48 1342.93 2467.16 1342.93 2462.91 1342.8 2459.74 1342.54 2456.57 1342.29 2454.16 1341.86 2452.53 1341.26 2450.9 1340.66 2449.7 1339.84 2448.93 1338.81 2448.16 1337.78 2447.43 1336.5 2446.74 1334.95L2418.18 1253.9 2279.74 1253.9 2252.46 1333.92C2251.95 1335.47 2251.26 1336.8 2250.41 1337.91 2249.55 1339.03 2248.3 1339.97 2246.67 1340.74 2245.04 1341.51 2242.73 1342.07 2239.73 1342.42 2236.72 1342.76 2232.82 1342.93 2228.02 1342.93 2223.04 1342.93 2218.97 1342.72 2215.8 1342.29 2212.62 1341.86 2210.39 1341.04 2209.11 1339.84 2207.82 1338.64 2207.22 1336.88 2207.3 1334.57 2207.39 1332.25 2208.12 1329.21 2209.49 1325.43L2321.17 1016.13C2321.86 1014.24 2322.76 1012.7 2323.87 1011.5 2324.99 1010.3 2326.62 1009.35 2328.76 1008.67 2330.91 1007.98 2333.65 1007.51 2337 1007.25 2340.34 1006.99 2344.59 1006.86 2349.73 1006.86Z" stroke="#1FC2A7" stroke-width="10" stroke-linejoin="round" stroke-miterlimit="10" fill="#2D3E50" fill-rule="evenodd"/><text fill="#000000" fill-opacity="0" font-family="Arial,Arial_MSFontService,sans-serif" font-size="336.065" x="2029.43" y="1300.92">FAIR</text></g></svg>