<?xml version="1.0" encoding="UTF-8" standalone="no"?>
<svg
   xmlns:dc="http://purl.org/dc/elements/1.1/"
   xmlns:cc="http://creativecommons.org/ns#"
   xmlns:rdf="http://www.w3.org/1999/02/22-rdf-syntax-ns#"
   xmlns:svg="http://www.w3.org/2000/svg"
   xmlns="http://www.w3.org/2000/svg"
   xmlns:sodipodi="http://sodipodi.sourceforge.net/DTD/sodipodi-0.dtd"
   xmlns:inkscape="http://www.inkscape.org/namespaces/inkscape"
   width="484.22211mm"
   height="293.09277mm"
   viewBox="0 0 484.22211 293.09277"
   version="1.1"
   id="svg8"
   inkscape:version="1.0.1 (3bc2e813f5, 2020-09-07)"
   sodipodi:docname="Service.svg">
  <defs
     id="defs2">
    <filter
       id="fx0"
       x="-21"
       y="-29.700001"
       width="252.00002"
       height="356.40002"
       filterUnits="userSpaceOnUse"
       primitiveUnits="userSpaceOnUse">
      <feComponentTransfer
         color-interpolation-filters="sRGB"
         id="feComponentTransfer18">
        <feFuncR
           type="discrete"
           tableValues="0 0"
           id="feFuncR10" />
        <feFuncG
           type="discrete"
           tableValues="0 0"
           id="feFuncG12" />
        <feFuncB
           type="discrete"
           tableValues="0 0"
           id="feFuncB14" />
        <feFuncA
           type="linear"
           slope="0.4"
           intercept="0"
           id="feFuncA16" />
      </feComponentTransfer>
      <feGaussianBlur
         stdDeviation="3.55556 3.55556"
         id="feGaussianBlur20" />
    </filter>
    <filter
       id="fx1"
       x="-21"
       y="-29.700001"
       width="252.00002"
       height="356.40002"
       filterUnits="userSpaceOnUse"
       primitiveUnits="userSpaceOnUse">
      <feComponentTransfer
         color-interpolation-filters="sRGB"
         id="feComponentTransfer31">
        <feFuncR
           type="discrete"
           tableValues="0 0"
           id="feFuncR23" />
        <feFuncG
           type="discrete"
           tableValues="0 0"
           id="feFuncG25" />
        <feFuncB
           type="discrete"
           tableValues="0 0"
           id="feFuncB27" />
        <feFuncA
           type="linear"
           slope="0.4"
           intercept="0"
           id="feFuncA29" />
      </feComponentTransfer>
      <feGaussianBlur
         stdDeviation="3.55556 3.55556"
         id="feGaussianBlur33" />
    </filter>
    <filter
       id="fx2"
       x="-21"
       y="-29.700001"
       width="252.00002"
       height="356.40002"
       filterUnits="userSpaceOnUse"
       primitiveUnits="userSpaceOnUse">
      <feComponentTransfer
         color-interpolation-filters="sRGB"
         id="feComponentTransfer44">
        <feFuncR
           type="discrete"
           tableValues="0 0"
           id="feFuncR36" />
        <feFuncG
           type="discrete"
           tableValues="0 0"
           id="feFuncG38" />
        <feFuncB
           type="discrete"
           tableValues="0 0"
           id="feFuncB40" />
        <feFuncA
           type="linear"
           slope="0.4"
           intercept="0"
           id="feFuncA42" />
      </feComponentTransfer>
      <feGaussianBlur
         stdDeviation="3.55556 3.55556"
         id="feGaussianBlur46" />
    </filter>
    <clipPath
       id="clip3">
      <rect
         x="341"
         y="156"
         width="1917"
         height="1118"
         id="rect49" />
    </clipPath>
    <clipPath
       id="clip4">
      <rect
         x="341"
         y="156"
         width="323"
         height="218"
         id="rect52" />
    </clipPath>
    <clipPath
       id="clip5">
      <rect
         x="341"
         y="156"
         width="323"
         height="218"
         id="rect55" />
    </clipPath>
    <clipPath
       id="clip6">
      <rect
         x="341"
         y="156"
         width="323"
         height="326"
         id="rect58" />
    </clipPath>
    <clipPath
       id="clip7">
      <rect
         x="341"
         y="370"
         width="323"
         height="114"
         id="rect61" />
    </clipPath>
    <clipPath
       id="clip8">
      <rect
         x="341"
         y="370"
         width="323"
         height="114"
         id="rect64" />
    </clipPath>
    <clipPath
       id="clip9">
      <rect
         x="341"
         y="158"
         width="323"
         height="326"
         id="rect67" />
    </clipPath>
    <clipPath
       id="clip10">
      <rect
         x="554"
         y="281"
         width="322"
         height="217"
         id="rect70" />
    </clipPath>
    <clipPath
       id="clip11">
      <rect
         x="554"
         y="281"
         width="322"
         height="217"
         id="rect73" />
    </clipPath>
    <clipPath
       id="clip12">
      <rect
         x="554"
         y="281"
         width="322"
         height="325"
         id="rect76" />
    </clipPath>
    <clipPath
       id="clip13">
      <rect
         x="554"
         y="494"
         width="322"
         height="114"
         id="rect79" />
    </clipPath>
    <clipPath
       id="clip14">
      <rect
         x="554"
         y="494"
         width="322"
         height="114"
         id="rect82" />
    </clipPath>
    <clipPath
       id="clip15">
      <rect
         x="554"
         y="282"
         width="322"
         height="326"
         id="rect85" />
    </clipPath>
    <clipPath
       id="clip16">
      <rect
         x="1798"
         y="289"
         width="278"
         height="249"
         id="rect88" />
    </clipPath>
    <clipPath
       id="clip17">
      <rect
         x="1798"
         y="289"
         width="278"
         height="249"
         id="rect91" />
    </clipPath>
    <clipPath
       id="clip18">
      <rect
         x="1798"
         y="289"
         width="278"
         height="249"
         id="rect94" />
    </clipPath>
    <clipPath
       id="clip19">
      <rect
         x="1843"
         y="227"
         width="277"
         height="275"
         id="rect97" />
    </clipPath>
    <clipPath
       id="clip20">
      <rect
         x="1843"
         y="227"
         width="277"
         height="275"
         id="rect100" />
    </clipPath>
    <clipPath
       id="clip21">
      <rect
         x="1843"
         y="227"
         width="277"
         height="275"
         id="rect103" />
    </clipPath>
    <clipPath
       id="clip22">
      <rect
         x="-2"
         y="-2"
         width="318"
         height="224"
         id="rect106" />
    </clipPath>
    <clipPath
       id="clip23">
      <rect
         x="0"
         y="0"
         width="312"
         height="218"
         id="rect109" />
    </clipPath>
    <clipPath
       id="clip24">
      <rect
         x="-2"
         y="-2"
         width="318"
         height="224"
         id="rect112" />
    </clipPath>
    <clipPath
       id="clip25">
      <rect
         x="0"
         y="0"
         width="313"
         height="218"
         id="rect115" />
    </clipPath>
    <clipPath
       id="clip26">
      <rect
         x="-2"
         y="-2"
         width="318"
         height="224"
         id="rect118" />
    </clipPath>
    <clipPath
       id="clip27">
      <rect
         x="0"
         y="0"
         width="313"
         height="218"
         id="rect121" />
    </clipPath>
  </defs>
  <sodipodi:namedview
     id="base"
     pagecolor="#ffffff"
     bordercolor="#666666"
     borderopacity="1.0"
     inkscape:pageopacity="0.0"
     inkscape:pageshadow="2"
     inkscape:zoom="0.35"
     inkscape:cx="966.49399"
     inkscape:cy="328.16182"
     inkscape:document-units="mm"
     inkscape:current-layer="layer1"
     inkscape:document-rotation="0"
     showgrid="false"
     inkscape:window-width="1254"
     inkscape:window-height="960"
     inkscape:window-x="73"
     inkscape:window-y="0"
     inkscape:window-maximized="0" />
  <metadata
     id="metadata5">
    <rdf:RDF>
      <cc:Work
         rdf:about="">
        <dc:format>image/svg+xml</dc:format>
        <dc:type
           rdf:resource="http://purl.org/dc/dcmitype/StillImage" />
        <dc:title></dc:title>
      </cc:Work>
    </rdf:RDF>
  </metadata>
  <g
     inkscape:label="Ebene 1"
     inkscape:groupmode="layer"
     id="layer1"
     transform="translate(149.88487,-61.340518)">
    <g
       clip-path="url(#clip3)"
       transform="matrix(0.26458333,0,0,0.26458333,-256.25684,17.398225)"
       id="g372">
      <rect
         x="1353.5"
         y="1187.5"
         width="40.999901"
         height="84.999901"
         stroke="#243240"
         stroke-width="2.66667"
         stroke-miterlimit="8"
         fill="#4bceb8"
         id="rect126" />
      <rect
         x="1403.5"
         y="1165.5"
         width="40.999901"
         height="107"
         stroke="#243240"
         stroke-width="2.66667"
         stroke-miterlimit="8"
         fill="#4bceb8"
         id="rect128" />
      <rect
         x="1451.5"
         y="1143.5"
         width="42"
         height="129"
         stroke="#243240"
         stroke-width="2.66667"
         stroke-miterlimit="8"
         fill="#4bceb8"
         id="rect130" />
      <path
         d="m 1335.19,1228.09 c -67.79,1.18 -123.7,-52.82 -124.87,-120.61 -1.18,-67.79 52.82,-123.694 120.6,-124.871 67.79,-1.178 123.7,52.821 124.88,120.611 0.05,3.07 -0.01,6.15 -0.19,9.23"
         stroke="#243240"
         stroke-width="8"
         stroke-linecap="round"
         stroke-miterlimit="8"
         fill="none"
         fill-rule="evenodd"
         id="path132" />
      <path
         d="M 0,0 24.5062,27.0828"
         stroke="#243240"
         stroke-width="8"
         stroke-linecap="round"
         stroke-miterlimit="8"
         fill="none"
         fill-rule="evenodd"
         transform="matrix(1,0,0,-1,1454,1119.08)"
         id="path134" />
      <path
         d="M 0,0 24.5062,27.0828"
         stroke="#243240"
         stroke-width="8"
         stroke-linecap="round"
         stroke-miterlimit="8"
         fill="none"
         fill-rule="evenodd"
         transform="matrix(0,-1,-1,0,1453.08,1118.51)"
         id="path136" />
      <path
         d="m 1281.11,1133.53 c -5.51,-9.64 -5.56,-31.04 0.34,-43.84 5.9,-12.79 16.86,-30.79 47.36,-31.24 10.6,-0.15 26.13,-2.62 36.1,-5.03 9.97,-2.41 19.31,-9.57 23.72,-9.42 4.42,0.16 3.47,4.27 2.76,10.35 -0.71,6.07 -3.95,18.34 -7.04,26.11 -3.09,7.78 -11.58,30.39 -18,40.71 -6.42,10.33 -11.86,16.85 -20.5,21.24 -8.64,4.4 -20.55,6.61 -31.34,5.13 -10.79,-1.48 -27.89,-4.37 -33.4,-14.01 z"
         stroke="#243240"
         stroke-width="8"
         stroke-linecap="round"
         stroke-miterlimit="8"
         fill="none"
         fill-rule="evenodd"
         id="path138" />
      <path
         d="m 1269,1164 c 5.28,-22.57 10.56,-45.15 57,-60"
         stroke="#243240"
         stroke-width="8"
         stroke-linecap="round"
         stroke-miterlimit="8"
         fill="none"
         fill-rule="evenodd"
         id="path140" />
      <rect
         x="1138.5"
         y="964.5"
         width="57.000099"
         height="26"
         stroke="#243240"
         stroke-width="2.66667"
         stroke-miterlimit="8"
         fill="#ffffff"
         id="rect142" />
      <path
         d="m 1195.5,977.5 h 45.21"
         stroke="#243240"
         stroke-width="2.66667"
         stroke-miterlimit="8"
         fill="none"
         fill-rule="evenodd"
         id="path144" />
      <path
         d="m 1240.5,977.5 19.1,77.67"
         stroke="#243240"
         stroke-width="2.66667"
         stroke-miterlimit="8"
         fill="none"
         fill-rule="evenodd"
         id="path146" />
      <rect
         x="1180.5"
         y="1225.5"
         width="56"
         height="24.999901"
         stroke="#243240"
         stroke-width="2.66667"
         stroke-miterlimit="8"
         fill="#ffffff"
         id="rect148" />
      <path
         d="m 1236.5,1237.5 h 40.67"
         stroke="#243240"
         stroke-width="2.66667"
         stroke-miterlimit="8"
         fill="none"
         fill-rule="evenodd"
         id="path150" />
      <path
         d="M 0,0 19.1011,77.6674"
         stroke="#243240"
         stroke-width="2.66667"
         stroke-miterlimit="8"
         fill="none"
         fill-rule="evenodd"
         transform="matrix(1,0,0,-1,1277.5,1238.17)"
         id="path152" />
      <rect
         x="1484.5"
         y="1014.5"
         width="57.000099"
         height="25.000099"
         stroke="#243240"
         stroke-width="2.66667"
         stroke-miterlimit="8"
         fill="#ffffff"
         id="rect154" />
      <path
         d="m 1453.5,1027.5 h 29.7"
         stroke="#243240"
         stroke-width="2.66667"
         stroke-miterlimit="8"
         fill="none"
         fill-rule="evenodd"
         id="path156" />
      <path
         d="M 0,0 83.7401,44.5972"
         stroke="#243240"
         stroke-width="2.66667"
         stroke-miterlimit="8"
         fill="none"
         fill-rule="evenodd"
         transform="matrix(1,0,0,-1,1370.5,1072.1)"
         id="path158" />
      <path
         d="m 1475.7,876.326 c 5.63,0.014 11.32,1.59 16.35,4.835 6.78,4.738 10.97,11.632 12.28,19.037 1.32,7.404 -0.25,15.319 -4.99,22.099 l -42.3,60.536 c -5.76,8.233 -14.78,12.378 -24.12,12.337 l -6.29,9 -3.03,-2.75 c -4.04,-3.337 -8.24,-6.481 -12.59,-9.421 l -11.4,-6.923 6.19,-8.858 c -3.25,-8.758 -2.46,-18.657 3.29,-26.89 l 42.31,-60.536 c 5.71,-8.172 14.92,-12.49 24.3,-12.466 z"
         stroke="#243240"
         stroke-width="8"
         stroke-linecap="round"
         stroke-miterlimit="8"
         fill="#243240"
         fill-rule="evenodd"
         id="path160" />
      <g
         clip-path="url(#clip4)"
         id="g168">
        <g
           clip-path="url(#clip5)"
           id="g166">
          <g
             clip-path="url(#clip6)"
             id="g164">
            <path
               d="m 202.853,252.871 c -6.833,-1.89 -13.452,-4.481 -19.752,-7.732 l -0.047,-0.033 c -0.017,0 -0.037,0 -0.057,-0.027 -8.452,-4.815 -15.088,-12.272 -18.891,-21.225 v -27.132 c -0.006,-3.781 -0.212,-7.558 -0.617,-11.317 2.927,-2.791 6.376,-4.976 10.15,-6.43 9.555,14.976 29.176,19.828 44.61,11.032 v 0 c 25.606,-14.111 28.785,-40.25 28.785,-69.559 0,0 -25.944,7.178 -43.54,7.178 -0.6,0 -1.191,0 -1.771,-0.023 -18.436,0.009 -33.375,14.961 -33.367,33.397 0,0.06 0,0.768 0,1.741 0.014,3.54 0.763,7.038 2.2,10.274 -2.839,1.25 -5.561,2.751 -8.134,4.484 -0.718,-4.36 -1.586,-8.627 -2.485,-12.987 -3.321,-16.1 -6.756,-32.723 -2.576,-59.184 0.815,-4.996 1.976,-9.9301 3.475,-14.7655 4.244,-2.6853 9.111,-4.2259 14.127,-4.4711 -0.033,0.4427 -0.12,0.8788 -0.12,1.3249 v 1.3417 c 0.742,7.6921 6.691,13.856 14.352,14.869 v 0 c 1.333,0.199 2.678,0.301 4.025,0.305 12.193,0 20.461,-8.7206 28.487,-19.2561 -7.126,-2.8373 -13.899,-6.4896 -20.185,-10.8842 -2.871,-2.1963 -6.385,-3.3867 -9.999,-3.3877 -4.698,0.0016 -9.179,1.9769 -12.35,5.4438 -0.915,1.0854 -1.695,2.2781 -2.321,3.552 -4.404,-0.1137 -8.788,0.6269 -12.91,2.1802 4.756,-12.1004 10.82,-23.6448 18.085,-34.4271 1.04,0.4531 2.112,0.8288 3.207,1.1236 1.312,0.366 2.663,0.5686 4.025,0.6038 0.435,0.002 0.869,-0.0305 1.298,-0.0973 7.984,-1.3641 13.957,-8.0785 14.383,-16.1671 0.312,-7.6652 1.512,-15.2684 3.575,-22.65738 -14.658,0 -27.722,1.58988 -34.779,14.39278 v 0 c -1.439,2.5165 -2.194,5.3658 -2.19,8.2646 -0.287,4.2601 1.366,8.4213 4.497,11.3237 -4.245,6.3585 -8.104,12.9669 -11.555,19.7896 -1.771,-2.0159 -3.694,-3.8929 -5.752,-5.6149 0.537,-1.2598 0.915,-2.5814 1.127,-3.9344 0.086,-0.5552 0.134,-1.1156 0.144,-1.6771 0,-9.2196 -7.474,-16.6937 -16.694,-16.6937 -0.291,0 -0.586,0 -0.888,0 -7.364,-0.4203 -14.661,-1.6244 -21.769,-3.5923 0,14.6577 1.59,27.7255 14.393,34.7793 v 0 c 2.515,1.4386 5.363,2.1937 8.261,2.1903 4.514,0.0205 8.802,-1.9699 11.699,-5.4304 2.335,1.9743 4.437,4.2078 6.266,6.658 -2.524,5.5636 -4.705,11.2764 -6.531,17.1063 0,0.057 -0.04,0.1073 -0.05,0.1643 -1.722,5.4348 -3.048,10.9869 -3.968,16.6134 -2.323,13.697 -2.639,27.659 -0.936,41.447 -4.393,-1.021 -8.722,-2.297 -12.967,-3.823 0.05,-0.135 0.118,-0.259 0.168,-0.393 l 1.06,-2.871 c 1.059,-2.761 1.627,-5.687 1.677,-8.644 0.015,-18.439 -14.921,-33.3992 -33.361,-33.414 -0.006,0 -0.013,0 -0.02,0 -0.58,0.0201 -1.174,0.0268 -1.774,0.0268 -17.5961,0 -43.5372,-7.1779 -43.5372,-7.1779 0,29.3121 3.1797,55.4441 28.7854,69.5591 v 0 c 8.7742,5.003 19.3428,5.762 28.7418,2.062 6.362,-2.601 11.711,-7.19 15.251,-13.081 5.538,2.05 11.229,3.659 17.02,4.81 0.761,4.498 1.646,8.798 2.525,13.058 2.438,10.113 3.788,20.458 4.025,30.858 v 13.752 c -6.493,25.016 -16.911,29.235 -31.304,35.041 -6.375,2.399 -12.53,5.347 -18.394,8.812 h -0.051 c -0.03,0 -0.043,0.043 -0.074,0.06 -9.5351,5.974 -17.8592,13.693 -24.5353,22.751 -1.1243,1.473 -0.8422,3.579 0.6306,4.703 1.4728,1.124 3.5782,0.842 4.7025,-0.631 5.4143,-7.318 11.9662,-13.72 19.4072,-18.964 2.038,6.53 1.998,13.531 -0.114,20.038 -0.511,1.78 0.519,3.638 2.3,4.148 0,0 0.001,10e-4 0.001,10e-4 0.301,0.086 0.612,0.13 0.926,0.131 1.496,-0.001 2.811,-0.993 3.223,-2.432 2.683,-8.324 2.496,-17.307 -0.53,-25.512 4.847,-2.63 9.864,-4.935 15.017,-6.9 1.08,-0.436 2.149,-0.872 3.206,-1.308 -0.643,4.632 0.154,9.35 2.281,13.514 0.797,1.673 2.798,2.383 4.471,1.587 1.673,-0.797 2.383,-2.799 1.587,-4.471 -4.066,-8.527 -0.252,-13.846 -0.041,-14.128 0.088,-0.147 0.164,-0.301 0.229,-0.46 7.303,-3.801 13.26,-9.757 17.062,-17.059 v 40.921 c -10.089,5.249 -21.765,18.515 -22.292,19.119 -1.312,1.307 -1.317,3.43 -0.01,4.743 1.307,1.313 3.431,1.317 4.744,0.011 0.106,-0.107 0.206,-0.22 0.298,-0.34 5.154,-5.844 10.937,-11.101 17.243,-15.678 v 28.601 c 0,1.853 1.502,3.355 3.355,3.355 1.852,0 3.354,-1.502 3.354,-3.355 v -22.432 c 5.599,3.172 10.879,6.879 15.764,11.068 1.436,1.172 3.548,0.958 4.72,-0.478 1.143,-1.401 0.97,-3.457 -0.393,-4.647 -2.307,-1.948 -12.823,-10.619 -20.078,-13.239 v -39.951 c 4.01,5.464 9.114,10.033 14.987,13.417 v 0 c 0.067,0.047 6.611,4.977 4.025,17.592 -0.327,1.824 0.886,3.567 2.709,3.893 1.762,0.316 3.461,-0.807 3.861,-2.551 1.066,-4.633 0.997,-9.454 -0.201,-14.054 3.753,1.439 7.564,2.65 11.344,3.844 3.354,1.056 6.651,2.1 9.885,3.28 -1.882,3.753 -4.287,12.84 5.638,26.639 0.631,0.877 1.646,1.397 2.727,1.395 1.852,-0.003 3.351,-1.507 3.348,-3.36 -0.001,-0.701 -0.222,-1.384 -0.631,-1.953 -9.026,-12.551 -5.581,-19.061 -4.844,-20.188 7.766,3.378 14.595,8.59 19.904,15.187 1.217,1.397 3.336,1.541 4.732,0.324 1.311,-1.143 1.531,-3.098 0.507,-4.503 -11.702,-14.49 -25.696,-18.907 -39.227,-23.177 z M 175.064,161 c 0.016,-14.691 11.894,-26.611 26.585,-26.679 0.611,0.017 1.234,0.023 1.865,0.023 12.384,-0.488 24.685,-2.25 36.708,-5.259 -0.785,25.78 -5.679,43.302 -23.335,54.002 l -1.945,1.11 c -11.945,6.827 -27.126,3.395 -34.974,-7.905 l 2.512,-1.007 c 8.382,-2.948 16.338,-6.991 23.66,-12.024 1.466,-1.134 1.736,-3.242 0.602,-4.708 -1.133,-1.466 -3.241,-1.736 -4.707,-0.602 -6.847,4.641 -14.265,8.377 -22.071,11.116 -1.11,0.449 -2.193,0.889 -3.263,1.341 -1.069,-2.399 -1.627,-4.994 -1.64,-7.62 z m 6.487,-73.5837 c 0,-0.2851 0.054,-0.5669 0.077,-0.852 1.842,0.3032 3.665,0.7165 5.457,1.2377 1.762,0.5726 3.654,-0.3914 4.227,-2.1533 0.573,-1.7617 -0.392,-3.6541 -2.153,-4.2266 -0.06,-0.0195 -0.121,-0.0373 -0.182,-0.0534 -1.6,-0.4729 -3.156,-0.8553 -4.696,-1.1605 1.893,-1.9729 4.508,-3.0905 7.242,-3.0959 2.122,-0.0037 4.187,0.6866 5.88,1.9655 4.232,3.1711 8.781,5.896 13.574,8.1305 -5.665,6.3126 -11.069,10.0122 -17.757,10.0122 -0.702,-0.0023 -1.404,-0.0402 -2.103,-0.114 l -1.046,-0.1375 c -4.47,-0.5897 -7.976,-4.126 -8.527,-8.6001 z m -2.013,-59.7377 0.504,-0.8453 c 4.025,-6.6211 10.548,-9.0931 19.937,-9.8545 -1.128,5.1702 -1.721,10.4428 -1.768,15.7344 -0.5,4.7331 -4.044,8.5779 -8.721,9.4621 -0.078,0.0067 -0.156,0.0067 -0.234,0 -0.796,-0.0349 -1.584,-0.1657 -2.348,-0.3891 -0.299,-0.0771 -0.614,-0.2046 -0.919,-0.3052 1.542,-2.1064 2.495,-3.2905 2.542,-3.3542 1.171,-1.4356 0.956,-3.5487 -0.48,-4.7193 -1.435,-1.1707 -3.548,-0.956 -4.719,0.4796 -0.221,0.2717 -1.503,1.875 -3.398,4.4745 -1.21,-1.662 -1.803,-3.6936 -1.677,-5.7457 -0.011,-1.7306 0.435,-3.4335 1.292,-4.9373 z m -26.326,25.5386 c -0.037,0.265 -0.114,0.5233 -0.175,0.7849 -1.387,-0.8734 -2.845,-1.6275 -4.36,-2.254 -1.728,-0.6695 -3.67,0.1882 -4.34,1.9155 -0.663,1.711 0.172,3.6376 1.874,4.3232 1.165,0.4834 2.287,1.0636 3.355,1.7341 -1.392,1.4323 -3.21,2.3738 -5.183,2.6834 -0.356,0.0406 -0.714,0.0607 -1.073,0.0603 -1.732,0.0068 -3.436,-0.4447 -4.937,-1.3081 l -0.852,-0.4863 c -6.615,-4.025 -9.087,-10.5455 -9.848,-19.9305 4.854,1.0455 9.795,1.6409 14.758,1.7777 0.336,0 0.654,0 0.97,0 5.467,0.0624 9.87,4.5043 9.884,9.972 -0.007,0.2435 -0.028,0.4866 -0.063,0.7278 z m -21.467,83.0998 -1.06,2.871 c -0.037,0.104 -0.091,0.198 -0.127,0.298 -8.438,-3.493 -16.486,-7.861 -24.013,-13.034 -1.525,-1.051 -3.614,-0.667 -4.666,0.859 -1.051,1.525 -0.666,3.614 0.859,4.665 7.753,5.332 16.029,9.859 24.7,13.511 -2.757,4.181 -6.707,7.436 -11.337,9.345 -7.506,2.951 -15.946,2.344 -22.9524,-1.651 L 91.287,152.122 C 73.5636,141.442 68.6531,123.91 67.8682,98.0859 c 12.022,3.0071 24.3217,4.7691 36.7048,5.2561 0.63,0 1.254,0 1.868,-0.027 14.686,0.068 26.561,11.98 26.585,26.666 -0.048,2.169 -0.476,4.314 -1.264,6.336 z"
               fill="#4bceb8"
               transform="matrix(1,0,0,1.01231,341,156)"
               id="path162" />
          </g>
        </g>
      </g>
      <g
         clip-path="url(#clip7)"
         id="g176">
        <g
           clip-path="url(#clip8)"
           id="g174">
          <g
             clip-path="url(#clip9)"
             id="g172">
            <path
               d="m 202.853,252.871 c -6.833,-1.89 -13.452,-4.481 -19.752,-7.732 l -0.047,-0.033 c -0.017,0 -0.037,0 -0.057,-0.027 -8.452,-4.815 -15.088,-12.272 -18.891,-21.225 v -27.132 c -0.006,-3.781 -0.212,-7.558 -0.617,-11.317 2.927,-2.791 6.376,-4.976 10.15,-6.43 9.555,14.976 29.176,19.828 44.61,11.032 v 0 c 25.606,-14.111 28.785,-40.25 28.785,-69.559 0,0 -25.944,7.178 -43.54,7.178 -0.6,0 -1.191,0 -1.771,-0.023 -18.436,0.009 -33.375,14.961 -33.367,33.397 0,0.06 0,0.768 0,1.741 0.014,3.54 0.763,7.038 2.2,10.274 -2.839,1.25 -5.561,2.751 -8.134,4.484 -0.718,-4.36 -1.586,-8.627 -2.485,-12.987 -3.321,-16.1 -6.756,-32.723 -2.576,-59.184 0.815,-4.996 1.976,-9.9301 3.475,-14.7655 4.244,-2.6853 9.111,-4.2259 14.127,-4.4711 -0.033,0.4427 -0.12,0.8788 -0.12,1.3249 v 1.3417 c 0.742,7.6921 6.691,13.856 14.352,14.869 v 0 c 1.333,0.199 2.678,0.301 4.025,0.305 12.193,0 20.461,-8.7206 28.487,-19.2561 -7.126,-2.8373 -13.899,-6.4896 -20.185,-10.8842 -2.871,-2.1963 -6.385,-3.3867 -9.999,-3.3877 -4.698,0.0016 -9.179,1.9769 -12.35,5.4438 -0.915,1.0854 -1.695,2.2781 -2.321,3.552 -4.404,-0.1137 -8.788,0.6269 -12.91,2.1802 4.756,-12.1004 10.82,-23.6448 18.085,-34.4271 1.04,0.4531 2.112,0.8288 3.207,1.1236 1.312,0.366 2.663,0.5686 4.025,0.6038 0.435,0.002 0.869,-0.0305 1.298,-0.0973 7.984,-1.3641 13.957,-8.0785 14.383,-16.1671 0.312,-7.6652 1.512,-15.2684 3.575,-22.65738 -14.658,0 -27.722,1.58988 -34.779,14.39278 v 0 c -1.439,2.5165 -2.194,5.3658 -2.19,8.2646 -0.287,4.2601 1.366,8.4213 4.497,11.3237 -4.245,6.3585 -8.104,12.9669 -11.555,19.7896 -1.771,-2.0159 -3.694,-3.8929 -5.752,-5.6149 0.537,-1.2598 0.915,-2.5814 1.127,-3.9344 0.086,-0.5552 0.134,-1.1156 0.144,-1.6771 0,-9.2196 -7.474,-16.6937 -16.694,-16.6937 -0.291,0 -0.586,0 -0.888,0 -7.364,-0.4203 -14.661,-1.6244 -21.769,-3.5923 0,14.6577 1.59,27.7255 14.393,34.7793 v 0 c 2.515,1.4386 5.363,2.1937 8.261,2.1903 4.514,0.0205 8.802,-1.9699 11.699,-5.4304 2.335,1.9743 4.437,4.2078 6.266,6.658 -2.524,5.5636 -4.705,11.2764 -6.531,17.1063 0,0.057 -0.04,0.1073 -0.05,0.1643 -1.722,5.4348 -3.048,10.9869 -3.968,16.6134 -2.323,13.697 -2.639,27.659 -0.936,41.447 -4.393,-1.021 -8.722,-2.297 -12.967,-3.823 0.05,-0.135 0.118,-0.259 0.168,-0.393 l 1.06,-2.871 c 1.059,-2.761 1.627,-5.687 1.677,-8.644 0.015,-18.439 -14.921,-33.3992 -33.361,-33.414 -0.006,0 -0.013,0 -0.02,0 -0.58,0.0201 -1.174,0.0268 -1.774,0.0268 -17.5961,0 -43.5372,-7.1779 -43.5372,-7.1779 0,29.3121 3.1797,55.4441 28.7854,69.5591 v 0 c 8.7742,5.003 19.3428,5.762 28.7418,2.062 6.362,-2.601 11.711,-7.19 15.251,-13.081 5.538,2.05 11.229,3.659 17.02,4.81 0.761,4.498 1.646,8.798 2.525,13.058 2.438,10.113 3.788,20.458 4.025,30.858 v 13.752 c -6.493,25.016 -16.911,29.235 -31.304,35.041 -6.375,2.399 -12.53,5.347 -18.394,8.812 h -0.051 c -0.03,0 -0.043,0.043 -0.074,0.06 -9.5351,5.974 -17.8592,13.693 -24.5353,22.751 -1.1243,1.473 -0.8422,3.579 0.6306,4.703 1.4728,1.124 3.5782,0.842 4.7025,-0.631 5.4143,-7.318 11.9662,-13.72 19.4072,-18.964 2.038,6.53 1.998,13.531 -0.114,20.038 -0.511,1.78 0.519,3.638 2.3,4.148 0,0 0.001,10e-4 0.001,10e-4 0.301,0.086 0.612,0.13 0.926,0.131 1.496,-0.001 2.811,-0.993 3.223,-2.432 2.683,-8.324 2.496,-17.307 -0.53,-25.512 4.847,-2.63 9.864,-4.935 15.017,-6.9 1.08,-0.436 2.149,-0.872 3.206,-1.308 -0.643,4.632 0.154,9.35 2.281,13.514 0.797,1.673 2.798,2.383 4.471,1.587 1.673,-0.797 2.383,-2.799 1.587,-4.471 -4.066,-8.527 -0.252,-13.846 -0.041,-14.128 0.088,-0.147 0.164,-0.301 0.229,-0.46 7.303,-3.801 13.26,-9.757 17.062,-17.059 v 40.921 c -10.089,5.249 -21.765,18.515 -22.292,19.119 -1.312,1.307 -1.317,3.43 -0.01,4.743 1.307,1.313 3.431,1.317 4.744,0.011 0.106,-0.107 0.206,-0.22 0.298,-0.34 5.154,-5.844 10.937,-11.101 17.243,-15.678 v 28.601 c 0,1.853 1.502,3.355 3.355,3.355 1.852,0 3.354,-1.502 3.354,-3.355 v -22.432 c 5.599,3.172 10.879,6.879 15.764,11.068 1.436,1.172 3.548,0.958 4.72,-0.478 1.143,-1.401 0.97,-3.457 -0.393,-4.647 -2.307,-1.948 -12.823,-10.619 -20.078,-13.239 v -39.951 c 4.01,5.464 9.114,10.033 14.987,13.417 v 0 c 0.067,0.047 6.611,4.977 4.025,17.592 -0.327,1.824 0.886,3.567 2.709,3.893 1.762,0.316 3.461,-0.807 3.861,-2.551 1.066,-4.633 0.997,-9.454 -0.201,-14.054 3.753,1.439 7.564,2.65 11.344,3.844 3.354,1.056 6.651,2.1 9.885,3.28 -1.882,3.753 -4.287,12.84 5.638,26.639 0.631,0.877 1.646,1.397 2.727,1.395 1.852,-0.003 3.351,-1.507 3.348,-3.36 -0.001,-0.701 -0.222,-1.384 -0.631,-1.953 -9.026,-12.551 -5.581,-19.061 -4.844,-20.188 7.766,3.378 14.595,8.59 19.904,15.187 1.217,1.397 3.336,1.541 4.732,0.324 1.311,-1.143 1.531,-3.098 0.507,-4.503 -11.702,-14.49 -25.696,-18.907 -39.227,-23.177 z M 175.064,161 c 0.016,-14.691 11.894,-26.611 26.585,-26.679 0.611,0.017 1.234,0.023 1.865,0.023 12.384,-0.488 24.685,-2.25 36.708,-5.259 -0.785,25.78 -5.679,43.302 -23.335,54.002 l -1.945,1.11 c -11.945,6.827 -27.126,3.395 -34.974,-7.905 l 2.512,-1.007 c 8.382,-2.948 16.338,-6.991 23.66,-12.024 1.466,-1.134 1.736,-3.242 0.602,-4.708 -1.133,-1.466 -3.241,-1.736 -4.707,-0.602 -6.847,4.641 -14.265,8.377 -22.071,11.116 -1.11,0.449 -2.193,0.889 -3.263,1.341 -1.069,-2.399 -1.627,-4.994 -1.64,-7.62 z m 6.487,-73.5837 c 0,-0.2851 0.054,-0.5669 0.077,-0.852 1.842,0.3032 3.665,0.7165 5.457,1.2377 1.762,0.5726 3.654,-0.3914 4.227,-2.1533 0.573,-1.7617 -0.392,-3.6541 -2.153,-4.2266 -0.06,-0.0195 -0.121,-0.0373 -0.182,-0.0534 -1.6,-0.4729 -3.156,-0.8553 -4.696,-1.1605 1.893,-1.9729 4.508,-3.0905 7.242,-3.0959 2.122,-0.0037 4.187,0.6866 5.88,1.9655 4.232,3.1711 8.781,5.896 13.574,8.1305 -5.665,6.3126 -11.069,10.0122 -17.757,10.0122 -0.702,-0.0023 -1.404,-0.0402 -2.103,-0.114 l -1.046,-0.1375 c -4.47,-0.5897 -7.976,-4.126 -8.527,-8.6001 z m -2.013,-59.7377 0.504,-0.8453 c 4.025,-6.6211 10.548,-9.0931 19.937,-9.8545 -1.128,5.1702 -1.721,10.4428 -1.768,15.7344 -0.5,4.7331 -4.044,8.5779 -8.721,9.4621 -0.078,0.0067 -0.156,0.0067 -0.234,0 -0.796,-0.0349 -1.584,-0.1657 -2.348,-0.3891 -0.299,-0.0771 -0.614,-0.2046 -0.919,-0.3052 1.542,-2.1064 2.495,-3.2905 2.542,-3.3542 1.171,-1.4356 0.956,-3.5487 -0.48,-4.7193 -1.435,-1.1707 -3.548,-0.956 -4.719,0.4796 -0.221,0.2717 -1.503,1.875 -3.398,4.4745 -1.21,-1.662 -1.803,-3.6936 -1.677,-5.7457 -0.011,-1.7306 0.435,-3.4335 1.292,-4.9373 z m -26.326,25.5386 c -0.037,0.265 -0.114,0.5233 -0.175,0.7849 -1.387,-0.8734 -2.845,-1.6275 -4.36,-2.254 -1.728,-0.6695 -3.67,0.1882 -4.34,1.9155 -0.663,1.711 0.172,3.6376 1.874,4.3232 1.165,0.4834 2.287,1.0636 3.355,1.7341 -1.392,1.4323 -3.21,2.3738 -5.183,2.6834 -0.356,0.0406 -0.714,0.0607 -1.073,0.0603 -1.732,0.0068 -3.436,-0.4447 -4.937,-1.3081 l -0.852,-0.4863 c -6.615,-4.025 -9.087,-10.5455 -9.848,-19.9305 4.854,1.0455 9.795,1.6409 14.758,1.7777 0.336,0 0.654,0 0.97,0 5.467,0.0624 9.87,4.5043 9.884,9.972 -0.007,0.2435 -0.028,0.4866 -0.063,0.7278 z m -21.467,83.0998 -1.06,2.871 c -0.037,0.104 -0.091,0.198 -0.127,0.298 -8.438,-3.493 -16.486,-7.861 -24.013,-13.034 -1.525,-1.051 -3.614,-0.667 -4.666,0.859 -1.051,1.525 -0.666,3.614 0.859,4.665 7.753,5.332 16.029,9.859 24.7,13.511 -2.757,4.181 -6.707,7.436 -11.337,9.345 -7.506,2.951 -15.946,2.344 -22.9524,-1.651 L 91.287,152.122 C 73.5636,141.442 68.6531,123.91 67.8682,98.0859 c 12.022,3.0071 24.3217,4.7691 36.7048,5.2561 0.63,0 1.254,0 1.868,-0.027 14.686,0.068 26.561,11.98 26.585,26.666 -0.048,2.169 -0.476,4.314 -1.264,6.336 z"
               fill="#243240"
               transform="matrix(1,0,0,1.00949,341,158.945)"
               id="path170" />
          </g>
        </g>
      </g>
      <g
         clip-path="url(#clip10)"
         id="g184">
        <g
           clip-path="url(#clip11)"
           id="g182">
          <g
             clip-path="url(#clip12)"
             id="g180">
            <path
               d="m 202.853,252.871 c -6.833,-1.89 -13.452,-4.481 -19.752,-7.732 l -0.047,-0.033 c -0.017,0 -0.037,0 -0.057,-0.027 -8.452,-4.815 -15.088,-12.272 -18.891,-21.225 v -27.132 c -0.006,-3.781 -0.212,-7.558 -0.617,-11.317 2.927,-2.791 6.376,-4.976 10.15,-6.43 9.555,14.976 29.176,19.828 44.61,11.032 v 0 c 25.606,-14.111 28.785,-40.25 28.785,-69.559 0,0 -25.944,7.178 -43.54,7.178 -0.6,0 -1.191,0 -1.771,-0.023 -18.436,0.009 -33.375,14.961 -33.367,33.397 0,0.06 0,0.768 0,1.741 0.014,3.54 0.763,7.038 2.2,10.274 -2.839,1.25 -5.561,2.751 -8.134,4.484 -0.718,-4.36 -1.586,-8.627 -2.485,-12.987 -3.321,-16.1 -6.756,-32.723 -2.576,-59.184 0.815,-4.996 1.976,-9.9301 3.475,-14.7655 4.244,-2.6853 9.111,-4.2259 14.127,-4.4711 -0.033,0.4427 -0.12,0.8788 -0.12,1.3249 v 1.3417 c 0.742,7.6921 6.691,13.856 14.352,14.869 v 0 c 1.333,0.199 2.678,0.301 4.025,0.305 12.193,0 20.461,-8.7206 28.487,-19.2561 -7.126,-2.8373 -13.899,-6.4896 -20.185,-10.8842 -2.871,-2.1963 -6.385,-3.3867 -9.999,-3.3877 -4.698,0.0016 -9.179,1.9769 -12.35,5.4438 -0.915,1.0854 -1.695,2.2781 -2.321,3.552 -4.404,-0.1137 -8.788,0.6269 -12.91,2.1802 4.756,-12.1004 10.82,-23.6448 18.085,-34.4271 1.04,0.4531 2.112,0.8288 3.207,1.1236 1.312,0.366 2.663,0.5686 4.025,0.6038 0.435,0.002 0.869,-0.0305 1.298,-0.0973 7.984,-1.3641 13.957,-8.0785 14.383,-16.1671 0.312,-7.6652 1.512,-15.2684 3.575,-22.65738 -14.658,0 -27.722,1.58988 -34.779,14.39278 v 0 c -1.439,2.5165 -2.194,5.3658 -2.19,8.2646 -0.287,4.2601 1.366,8.4213 4.497,11.3237 -4.245,6.3585 -8.104,12.9669 -11.555,19.7896 -1.771,-2.0159 -3.694,-3.8929 -5.752,-5.6149 0.537,-1.2598 0.915,-2.5814 1.127,-3.9344 0.086,-0.5552 0.134,-1.1156 0.144,-1.6771 0,-9.2196 -7.474,-16.6937 -16.694,-16.6937 -0.291,0 -0.586,0 -0.888,0 -7.364,-0.4203 -14.661,-1.6244 -21.769,-3.5923 0,14.6577 1.59,27.7255 14.393,34.7793 v 0 c 2.515,1.4386 5.363,2.1937 8.261,2.1903 4.514,0.0205 8.802,-1.9699 11.699,-5.4304 2.335,1.9743 4.437,4.2078 6.266,6.658 -2.524,5.5636 -4.705,11.2764 -6.531,17.1063 0,0.057 -0.04,0.1073 -0.05,0.1643 -1.722,5.4348 -3.048,10.9869 -3.968,16.6134 -2.323,13.697 -2.639,27.659 -0.936,41.447 -4.393,-1.021 -8.722,-2.297 -12.967,-3.823 0.05,-0.135 0.118,-0.259 0.168,-0.393 l 1.06,-2.871 c 1.059,-2.761 1.627,-5.687 1.677,-8.644 0.015,-18.439 -14.921,-33.3992 -33.361,-33.414 -0.006,0 -0.013,0 -0.02,0 -0.58,0.0201 -1.174,0.0268 -1.774,0.0268 -17.5961,0 -43.5372,-7.1779 -43.5372,-7.1779 0,29.3121 3.1797,55.4441 28.7854,69.5591 v 0 c 8.7742,5.003 19.3428,5.762 28.7418,2.062 6.362,-2.601 11.711,-7.19 15.251,-13.081 5.538,2.05 11.229,3.659 17.02,4.81 0.761,4.498 1.646,8.798 2.525,13.058 2.438,10.113 3.788,20.458 4.025,30.858 v 13.752 c -6.493,25.016 -16.911,29.235 -31.304,35.041 -6.375,2.399 -12.53,5.347 -18.394,8.812 h -0.051 c -0.03,0 -0.043,0.043 -0.074,0.06 -9.5351,5.974 -17.8592,13.693 -24.5353,22.751 -1.1243,1.473 -0.8422,3.579 0.6306,4.703 1.4728,1.124 3.5782,0.842 4.7025,-0.631 5.4143,-7.318 11.9662,-13.72 19.4072,-18.964 2.038,6.53 1.998,13.531 -0.114,20.038 -0.511,1.78 0.519,3.638 2.3,4.148 0,0 0.001,10e-4 0.001,10e-4 0.301,0.086 0.612,0.13 0.926,0.131 1.496,-0.001 2.811,-0.993 3.223,-2.432 2.683,-8.324 2.496,-17.307 -0.53,-25.512 4.847,-2.63 9.864,-4.935 15.017,-6.9 1.08,-0.436 2.149,-0.872 3.206,-1.308 -0.643,4.632 0.154,9.35 2.281,13.514 0.797,1.673 2.798,2.383 4.471,1.587 1.673,-0.797 2.383,-2.799 1.587,-4.471 -4.066,-8.527 -0.252,-13.846 -0.041,-14.128 0.088,-0.147 0.164,-0.301 0.229,-0.46 7.303,-3.801 13.26,-9.757 17.062,-17.059 v 40.921 c -10.089,5.249 -21.765,18.515 -22.292,19.119 -1.312,1.307 -1.317,3.43 -0.01,4.743 1.307,1.313 3.431,1.317 4.744,0.011 0.106,-0.107 0.206,-0.22 0.298,-0.34 5.154,-5.844 10.937,-11.101 17.243,-15.678 v 28.601 c 0,1.853 1.502,3.355 3.355,3.355 1.852,0 3.354,-1.502 3.354,-3.355 v -22.432 c 5.599,3.172 10.879,6.879 15.764,11.068 1.436,1.172 3.548,0.958 4.72,-0.478 1.143,-1.401 0.97,-3.457 -0.393,-4.647 -2.307,-1.948 -12.823,-10.619 -20.078,-13.239 v -39.951 c 4.01,5.464 9.114,10.033 14.987,13.417 v 0 c 0.067,0.047 6.611,4.977 4.025,17.592 -0.327,1.824 0.886,3.567 2.709,3.893 1.762,0.316 3.461,-0.807 3.861,-2.551 1.066,-4.633 0.997,-9.454 -0.201,-14.054 3.753,1.439 7.564,2.65 11.344,3.844 3.354,1.056 6.651,2.1 9.885,3.28 -1.882,3.753 -4.287,12.84 5.638,26.639 0.631,0.877 1.646,1.397 2.727,1.395 1.852,-0.003 3.351,-1.507 3.348,-3.36 -0.001,-0.701 -0.222,-1.384 -0.631,-1.953 -9.026,-12.551 -5.581,-19.061 -4.844,-20.188 7.766,3.378 14.595,8.59 19.904,15.187 1.217,1.397 3.336,1.541 4.732,0.324 1.311,-1.143 1.531,-3.098 0.507,-4.503 -11.702,-14.49 -25.696,-18.907 -39.227,-23.177 z M 175.064,161 c 0.016,-14.691 11.894,-26.611 26.585,-26.679 0.611,0.017 1.234,0.023 1.865,0.023 12.384,-0.488 24.685,-2.25 36.708,-5.259 -0.785,25.78 -5.679,43.302 -23.335,54.002 l -1.945,1.11 c -11.945,6.827 -27.126,3.395 -34.974,-7.905 l 2.512,-1.007 c 8.382,-2.948 16.338,-6.991 23.66,-12.024 1.466,-1.134 1.736,-3.242 0.602,-4.708 -1.133,-1.466 -3.241,-1.736 -4.707,-0.602 -6.847,4.641 -14.265,8.377 -22.071,11.116 -1.11,0.449 -2.193,0.889 -3.263,1.341 -1.069,-2.399 -1.627,-4.994 -1.64,-7.62 z m 6.487,-73.5837 c 0,-0.2851 0.054,-0.5669 0.077,-0.852 1.842,0.3032 3.665,0.7165 5.457,1.2377 1.762,0.5726 3.654,-0.3914 4.227,-2.1533 0.573,-1.7617 -0.392,-3.6541 -2.153,-4.2266 -0.06,-0.0195 -0.121,-0.0373 -0.182,-0.0534 -1.6,-0.4729 -3.156,-0.8553 -4.696,-1.1605 1.893,-1.9729 4.508,-3.0905 7.242,-3.0959 2.122,-0.0037 4.187,0.6866 5.88,1.9655 4.232,3.1711 8.781,5.896 13.574,8.1305 -5.665,6.3126 -11.069,10.0122 -17.757,10.0122 -0.702,-0.0023 -1.404,-0.0402 -2.103,-0.114 l -1.046,-0.1375 c -4.47,-0.5897 -7.976,-4.126 -8.527,-8.6001 z m -2.013,-59.7377 0.504,-0.8453 c 4.025,-6.6211 10.548,-9.0931 19.937,-9.8545 -1.128,5.1702 -1.721,10.4428 -1.768,15.7344 -0.5,4.7331 -4.044,8.5779 -8.721,9.4621 -0.078,0.0067 -0.156,0.0067 -0.234,0 -0.796,-0.0349 -1.584,-0.1657 -2.348,-0.3891 -0.299,-0.0771 -0.614,-0.2046 -0.919,-0.3052 1.542,-2.1064 2.495,-3.2905 2.542,-3.3542 1.171,-1.4356 0.956,-3.5487 -0.48,-4.7193 -1.435,-1.1707 -3.548,-0.956 -4.719,0.4796 -0.221,0.2717 -1.503,1.875 -3.398,4.4745 -1.21,-1.662 -1.803,-3.6936 -1.677,-5.7457 -0.011,-1.7306 0.435,-3.4335 1.292,-4.9373 z m -26.326,25.5386 c -0.037,0.265 -0.114,0.5233 -0.175,0.7849 -1.387,-0.8734 -2.845,-1.6275 -4.36,-2.254 -1.728,-0.6695 -3.67,0.1882 -4.34,1.9155 -0.663,1.711 0.172,3.6376 1.874,4.3232 1.165,0.4834 2.287,1.0636 3.355,1.7341 -1.392,1.4323 -3.21,2.3738 -5.183,2.6834 -0.356,0.0406 -0.714,0.0607 -1.073,0.0603 -1.732,0.0068 -3.436,-0.4447 -4.937,-1.3081 l -0.852,-0.4863 c -6.615,-4.025 -9.087,-10.5455 -9.848,-19.9305 4.854,1.0455 9.795,1.6409 14.758,1.7777 0.336,0 0.654,0 0.97,0 5.467,0.0624 9.87,4.5043 9.884,9.972 -0.007,0.2435 -0.028,0.4866 -0.063,0.7278 z m -21.467,83.0998 -1.06,2.871 c -0.037,0.104 -0.091,0.198 -0.127,0.298 -8.438,-3.493 -16.486,-7.861 -24.013,-13.034 -1.525,-1.051 -3.614,-0.667 -4.666,0.859 -1.051,1.525 -0.666,3.614 0.859,4.665 7.753,5.332 16.029,9.859 24.7,13.511 -2.757,4.181 -6.707,7.436 -11.337,9.345 -7.506,2.951 -15.946,2.344 -22.9524,-1.651 L 91.287,152.122 C 73.5636,141.442 68.6531,123.91 67.8682,98.0859 c 12.022,3.0071 24.3217,4.7691 36.7048,5.2561 0.63,0 1.254,0 1.868,-0.027 14.686,0.068 26.561,11.98 26.585,26.666 -0.048,2.169 -0.476,4.314 -1.264,6.336 z"
               fill="#243240"
               transform="matrix(1,0,0,1.00764,554,281)"
               id="path178" />
          </g>
        </g>
      </g>
      <g
         clip-path="url(#clip13)"
         id="g192">
        <g
           clip-path="url(#clip14)"
           id="g190">
          <g
             clip-path="url(#clip15)"
             id="g188">
            <path
               d="m 202.853,252.871 c -6.833,-1.89 -13.452,-4.481 -19.752,-7.732 l -0.047,-0.033 c -0.017,0 -0.037,0 -0.057,-0.027 -8.452,-4.815 -15.088,-12.272 -18.891,-21.225 v -27.132 c -0.006,-3.781 -0.212,-7.558 -0.617,-11.317 2.927,-2.791 6.376,-4.976 10.15,-6.43 9.555,14.976 29.176,19.828 44.61,11.032 v 0 c 25.606,-14.111 28.785,-40.25 28.785,-69.559 0,0 -25.944,7.178 -43.54,7.178 -0.6,0 -1.191,0 -1.771,-0.023 -18.436,0.009 -33.375,14.961 -33.367,33.397 0,0.06 0,0.768 0,1.741 0.014,3.54 0.763,7.038 2.2,10.274 -2.839,1.25 -5.561,2.751 -8.134,4.484 -0.718,-4.36 -1.586,-8.627 -2.485,-12.987 -3.321,-16.1 -6.756,-32.723 -2.576,-59.184 0.815,-4.996 1.976,-9.9301 3.475,-14.7655 4.244,-2.6853 9.111,-4.2259 14.127,-4.4711 -0.033,0.4427 -0.12,0.8788 -0.12,1.3249 v 1.3417 c 0.742,7.6921 6.691,13.856 14.352,14.869 v 0 c 1.333,0.199 2.678,0.301 4.025,0.305 12.193,0 20.461,-8.7206 28.487,-19.2561 -7.126,-2.8373 -13.899,-6.4896 -20.185,-10.8842 -2.871,-2.1963 -6.385,-3.3867 -9.999,-3.3877 -4.698,0.0016 -9.179,1.9769 -12.35,5.4438 -0.915,1.0854 -1.695,2.2781 -2.321,3.552 -4.404,-0.1137 -8.788,0.6269 -12.91,2.1802 4.756,-12.1004 10.82,-23.6448 18.085,-34.4271 1.04,0.4531 2.112,0.8288 3.207,1.1236 1.312,0.366 2.663,0.5686 4.025,0.6038 0.435,0.002 0.869,-0.0305 1.298,-0.0973 7.984,-1.3641 13.957,-8.0785 14.383,-16.1671 0.312,-7.6652 1.512,-15.2684 3.575,-22.65738 -14.658,0 -27.722,1.58988 -34.779,14.39278 v 0 c -1.439,2.5165 -2.194,5.3658 -2.19,8.2646 -0.287,4.2601 1.366,8.4213 4.497,11.3237 -4.245,6.3585 -8.104,12.9669 -11.555,19.7896 -1.771,-2.0159 -3.694,-3.8929 -5.752,-5.6149 0.537,-1.2598 0.915,-2.5814 1.127,-3.9344 0.086,-0.5552 0.134,-1.1156 0.144,-1.6771 0,-9.2196 -7.474,-16.6937 -16.694,-16.6937 -0.291,0 -0.586,0 -0.888,0 -7.364,-0.4203 -14.661,-1.6244 -21.769,-3.5923 0,14.6577 1.59,27.7255 14.393,34.7793 v 0 c 2.515,1.4386 5.363,2.1937 8.261,2.1903 4.514,0.0205 8.802,-1.9699 11.699,-5.4304 2.335,1.9743 4.437,4.2078 6.266,6.658 -2.524,5.5636 -4.705,11.2764 -6.531,17.1063 0,0.057 -0.04,0.1073 -0.05,0.1643 -1.722,5.4348 -3.048,10.9869 -3.968,16.6134 -2.323,13.697 -2.639,27.659 -0.936,41.447 -4.393,-1.021 -8.722,-2.297 -12.967,-3.823 0.05,-0.135 0.118,-0.259 0.168,-0.393 l 1.06,-2.871 c 1.059,-2.761 1.627,-5.687 1.677,-8.644 0.015,-18.439 -14.921,-33.3992 -33.361,-33.414 -0.006,0 -0.013,0 -0.02,0 -0.58,0.0201 -1.174,0.0268 -1.774,0.0268 -17.5961,0 -43.5372,-7.1779 -43.5372,-7.1779 0,29.3121 3.1797,55.4441 28.7854,69.5591 v 0 c 8.7742,5.003 19.3428,5.762 28.7418,2.062 6.362,-2.601 11.711,-7.19 15.251,-13.081 5.538,2.05 11.229,3.659 17.02,4.81 0.761,4.498 1.646,8.798 2.525,13.058 2.438,10.113 3.788,20.458 4.025,30.858 v 13.752 c -6.493,25.016 -16.911,29.235 -31.304,35.041 -6.375,2.399 -12.53,5.347 -18.394,8.812 h -0.051 c -0.03,0 -0.043,0.043 -0.074,0.06 -9.5351,5.974 -17.8592,13.693 -24.5353,22.751 -1.1243,1.473 -0.8422,3.579 0.6306,4.703 1.4728,1.124 3.5782,0.842 4.7025,-0.631 5.4143,-7.318 11.9662,-13.72 19.4072,-18.964 2.038,6.53 1.998,13.531 -0.114,20.038 -0.511,1.78 0.519,3.638 2.3,4.148 0,0 0.001,10e-4 0.001,10e-4 0.301,0.086 0.612,0.13 0.926,0.131 1.496,-0.001 2.811,-0.993 3.223,-2.432 2.683,-8.324 2.496,-17.307 -0.53,-25.512 4.847,-2.63 9.864,-4.935 15.017,-6.9 1.08,-0.436 2.149,-0.872 3.206,-1.308 -0.643,4.632 0.154,9.35 2.281,13.514 0.797,1.673 2.798,2.383 4.471,1.587 1.673,-0.797 2.383,-2.799 1.587,-4.471 -4.066,-8.527 -0.252,-13.846 -0.041,-14.128 0.088,-0.147 0.164,-0.301 0.229,-0.46 7.303,-3.801 13.26,-9.757 17.062,-17.059 v 40.921 c -10.089,5.249 -21.765,18.515 -22.292,19.119 -1.312,1.307 -1.317,3.43 -0.01,4.743 1.307,1.313 3.431,1.317 4.744,0.011 0.106,-0.107 0.206,-0.22 0.298,-0.34 5.154,-5.844 10.937,-11.101 17.243,-15.678 v 28.601 c 0,1.853 1.502,3.355 3.355,3.355 1.852,0 3.354,-1.502 3.354,-3.355 v -22.432 c 5.599,3.172 10.879,6.879 15.764,11.068 1.436,1.172 3.548,0.958 4.72,-0.478 1.143,-1.401 0.97,-3.457 -0.393,-4.647 -2.307,-1.948 -12.823,-10.619 -20.078,-13.239 v -39.951 c 4.01,5.464 9.114,10.033 14.987,13.417 v 0 c 0.067,0.047 6.611,4.977 4.025,17.592 -0.327,1.824 0.886,3.567 2.709,3.893 1.762,0.316 3.461,-0.807 3.861,-2.551 1.066,-4.633 0.997,-9.454 -0.201,-14.054 3.753,1.439 7.564,2.65 11.344,3.844 3.354,1.056 6.651,2.1 9.885,3.28 -1.882,3.753 -4.287,12.84 5.638,26.639 0.631,0.877 1.646,1.397 2.727,1.395 1.852,-0.003 3.351,-1.507 3.348,-3.36 -0.001,-0.701 -0.222,-1.384 -0.631,-1.953 -9.026,-12.551 -5.581,-19.061 -4.844,-20.188 7.766,3.378 14.595,8.59 19.904,15.187 1.217,1.397 3.336,1.541 4.732,0.324 1.311,-1.143 1.531,-3.098 0.507,-4.503 -11.702,-14.49 -25.696,-18.907 -39.227,-23.177 z M 175.064,161 c 0.016,-14.691 11.894,-26.611 26.585,-26.679 0.611,0.017 1.234,0.023 1.865,0.023 12.384,-0.488 24.685,-2.25 36.708,-5.259 -0.785,25.78 -5.679,43.302 -23.335,54.002 l -1.945,1.11 c -11.945,6.827 -27.126,3.395 -34.974,-7.905 l 2.512,-1.007 c 8.382,-2.948 16.338,-6.991 23.66,-12.024 1.466,-1.134 1.736,-3.242 0.602,-4.708 -1.133,-1.466 -3.241,-1.736 -4.707,-0.602 -6.847,4.641 -14.265,8.377 -22.071,11.116 -1.11,0.449 -2.193,0.889 -3.263,1.341 -1.069,-2.399 -1.627,-4.994 -1.64,-7.62 z m 6.487,-73.5837 c 0,-0.2851 0.054,-0.5669 0.077,-0.852 1.842,0.3032 3.665,0.7165 5.457,1.2377 1.762,0.5726 3.654,-0.3914 4.227,-2.1533 0.573,-1.7617 -0.392,-3.6541 -2.153,-4.2266 -0.06,-0.0195 -0.121,-0.0373 -0.182,-0.0534 -1.6,-0.4729 -3.156,-0.8553 -4.696,-1.1605 1.893,-1.9729 4.508,-3.0905 7.242,-3.0959 2.122,-0.0037 4.187,0.6866 5.88,1.9655 4.232,3.1711 8.781,5.896 13.574,8.1305 -5.665,6.3126 -11.069,10.0122 -17.757,10.0122 -0.702,-0.0023 -1.404,-0.0402 -2.103,-0.114 l -1.046,-0.1375 c -4.47,-0.5897 -7.976,-4.126 -8.527,-8.6001 z m -2.013,-59.7377 0.504,-0.8453 c 4.025,-6.6211 10.548,-9.0931 19.937,-9.8545 -1.128,5.1702 -1.721,10.4428 -1.768,15.7344 -0.5,4.7331 -4.044,8.5779 -8.721,9.4621 -0.078,0.0067 -0.156,0.0067 -0.234,0 -0.796,-0.0349 -1.584,-0.1657 -2.348,-0.3891 -0.299,-0.0771 -0.614,-0.2046 -0.919,-0.3052 1.542,-2.1064 2.495,-3.2905 2.542,-3.3542 1.171,-1.4356 0.956,-3.5487 -0.48,-4.7193 -1.435,-1.1707 -3.548,-0.956 -4.719,0.4796 -0.221,0.2717 -1.503,1.875 -3.398,4.4745 -1.21,-1.662 -1.803,-3.6936 -1.677,-5.7457 -0.011,-1.7306 0.435,-3.4335 1.292,-4.9373 z m -26.326,25.5386 c -0.037,0.265 -0.114,0.5233 -0.175,0.7849 -1.387,-0.8734 -2.845,-1.6275 -4.36,-2.254 -1.728,-0.6695 -3.67,0.1882 -4.34,1.9155 -0.663,1.711 0.172,3.6376 1.874,4.3232 1.165,0.4834 2.287,1.0636 3.355,1.7341 -1.392,1.4323 -3.21,2.3738 -5.183,2.6834 -0.356,0.0406 -0.714,0.0607 -1.073,0.0603 -1.732,0.0068 -3.436,-0.4447 -4.937,-1.3081 l -0.852,-0.4863 c -6.615,-4.025 -9.087,-10.5455 -9.848,-19.9305 4.854,1.0455 9.795,1.6409 14.758,1.7777 0.336,0 0.654,0 0.97,0 5.467,0.0624 9.87,4.5043 9.884,9.972 -0.007,0.2435 -0.028,0.4866 -0.063,0.7278 z m -21.467,83.0998 -1.06,2.871 c -0.037,0.104 -0.091,0.198 -0.127,0.298 -8.438,-3.493 -16.486,-7.861 -24.013,-13.034 -1.525,-1.051 -3.614,-0.667 -4.666,0.859 -1.051,1.525 -0.666,3.614 0.859,4.665 7.753,5.332 16.029,9.859 24.7,13.511 -2.757,4.181 -6.707,7.436 -11.337,9.345 -7.506,2.951 -15.946,2.344 -22.9524,-1.651 L 91.287,152.122 C 73.5636,141.442 68.6531,123.91 67.8682,98.0859 c 12.022,3.0071 24.3217,4.7691 36.7048,5.2561 0.63,0 1.254,0 1.868,-0.027 14.686,0.068 26.561,11.98 26.585,26.666 -0.048,2.169 -0.476,4.314 -1.264,6.336 z"
               fill="#243240"
               transform="matrix(1,0,0,1.00949,554,282.945)"
               id="path186" />
          </g>
        </g>
      </g>
      <g
         clip-path="url(#clip16)"
         id="g200">
        <g
           clip-path="url(#clip17)"
           id="g198">
          <g
             clip-path="url(#clip18)"
             id="g196">
            <path
               d="M 209.25,196.333 H 38.75 c -5.6833,0 -10.3333,-4.65 -10.3333,-10.333 V 62 c 0,-5.6833 4.65,-10.3333 10.3333,-10.3333 h 48.5667 c 2.0666,0 4.1333,0.5166 5.6833,1.8083 l 28.417,18.8583 h 87.833 c 5.683,0 10.333,4.65 10.333,10.3334 V 186 c 0,5.683 -4.65,10.333 -10.333,10.333 z"
               stroke="#243240"
               stroke-width="5.16664"
               fill="#4bceb8"
               transform="matrix(1.11694,0,0,1,1798,289)"
               id="path194" />
          </g>
        </g>
      </g>
      <g
         clip-path="url(#clip19)"
         id="g208">
        <g
           clip-path="url(#clip20)"
           id="g206">
          <g
             clip-path="url(#clip21)"
             id="g204">
            <path
               d="M 231.188,216.917 H 42.8125 c -6.2792,0 -11.4167,-5.138 -11.4167,-11.417 v -137 c 0,-6.2792 5.1375,-11.4167 11.4167,-11.4167 h 53.6583 c 2.2834,0 4.5672,0.5709 6.2792,1.998 l 31.396,20.8354 h 97.042 c 6.279,0 11.416,5.1375 11.416,11.4166 V 205.5 c 0,6.279 -5.137,11.417 -11.416,11.417 z"
               stroke="#243240"
               stroke-width="5.7083"
               fill="#243240"
               transform="matrix(1.01095,0,0,1,1843,227)"
               id="path202" />
          </g>
        </g>
      </g>
      <rect
         x="1467.5"
         y="584.5"
         width="104"
         height="23.000099"
         stroke="#243240"
         stroke-width="2.66667"
         stroke-miterlimit="8"
         fill="#ffffff"
         id="rect210" />
      <path
         d="M 1467.55,596.5 H 1385.5"
         stroke="#243240"
         stroke-width="2.66667"
         stroke-miterlimit="8"
         fill="none"
         fill-rule="evenodd"
         id="path212" />
      <path
         d="M 1386.17,596.523 1351.5,524.5"
         stroke="#243240"
         stroke-width="2.66667"
         stroke-miterlimit="8"
         fill="none"
         fill-rule="evenodd"
         id="path214" />
      <rect
         x="1067.5"
         y="183.5"
         width="103"
         height="24"
         stroke="#243240"
         stroke-width="2.66667"
         stroke-miterlimit="8"
         fill="#ffffff"
         id="rect216" />
      <path
         d="m 1170.5,195.5 h 82.05"
         stroke="#243240"
         stroke-width="2.66667"
         stroke-miterlimit="8"
         fill="none"
         fill-rule="evenodd"
         id="path218" />
      <path
         d="m 1252.5,195.5 27.27,50.348"
         stroke="#243240"
         stroke-width="2.66667"
         stroke-miterlimit="8"
         fill="none"
         fill-rule="evenodd"
         id="path220" />
      <text
         fill="#243240"
         font-family="Calibri, Calibri_MSFontService, sans-serif"
         font-weight="700"
         font-size="43px"
         transform="translate(461.993,658)"
         id="text222">Data Generation</text>
      <path
         d="m 901.5,370.5 h 91 v -15 l 30,30 -30,30 v -15 h -91 z"
         stroke="#1e2b38"
         stroke-width="2.66667"
         stroke-miterlimit="8"
         fill="#2d3e50"
         fill-rule="evenodd"
         id="path224" />
      <text
         fill="#243240"
         font-family="Calibri, Calibri_MSFontService, sans-serif"
         font-weight="700"
         font-size="43px"
         transform="translate(1146.6,658)"
         id="text226">Metadata Annotation</text>
      <path
         d="m 1617.5,370.5 h 91 v -15 l 30,30 -30,30 v -15 h -91 z"
         stroke="#1e2b38"
         stroke-width="2.66667"
         stroke-miterlimit="8"
         fill="#2d3e50"
         fill-rule="evenodd"
         id="path228" />
      <text
         fill="#243240"
         font-family="Calibri, Calibri_MSFontService, sans-serif"
         font-weight="700"
         font-size="43px"
         transform="translate(1730.36,658)"
         id="text230">Research Data Management</text>
      <path
         d="M 653,829 H 2013.63"
         stroke="#243240"
         stroke-width="16"
         stroke-miterlimit="8"
         fill="none"
         fill-rule="evenodd"
         id="path232" />
      <path
         d="M 659,685 V 836.181"
         stroke="#243240"
         stroke-width="16"
         stroke-miterlimit="8"
         fill="none"
         fill-rule="evenodd"
         id="path234" />
      <path
         d="M 2006,685 V 836.181"
         stroke="#243240"
         stroke-width="16"
         stroke-miterlimit="8"
         fill="none"
         fill-rule="evenodd"
         id="path236" />
      <path
         d="M 1333,685 V 949.567"
         stroke="#243240"
         stroke-width="16"
         stroke-miterlimit="8"
         fill="none"
         fill-rule="evenodd"
         id="path238" />
      <g
         clip-path="url(#clip22)"
         filter="url(#fx0)"
         transform="translate(1145,220)"
         id="g262">
        <g
           clip-path="url(#clip23)"
           id="g260">
          <rect
             x="12.3433"
             y="12.3431"
             width="288"
             height="25.000099"
             fill="#243240"
             id="rect240" />
          <rect
             x="12.3433"
             y="42.343102"
             width="92.999901"
             height="51.000099"
             fill="#1fc2a7"
             id="rect242" />
          <rect
             x="109.343"
             y="42.343102"
             width="93.000099"
             height="51.000099"
             fill="#1fc2a7"
             id="rect244" />
          <rect
             x="207.343"
             y="42.343102"
             width="93.000099"
             height="51.000099"
             fill="#1fc2a7"
             id="rect246" />
          <rect
             x="12.3433"
             y="98.343102"
             width="92.999901"
             height="52"
             fill="#1fc2a7"
             id="rect248" />
          <rect
             x="109.343"
             y="98.343102"
             width="93.000099"
             height="52"
             fill="#1fc2a7"
             id="rect250" />
          <rect
             x="207.343"
             y="98.343102"
             width="93.000099"
             height="52"
             fill="#1fc2a7"
             id="rect252" />
          <rect
             x="12.3433"
             y="155.343"
             width="92.999901"
             height="50.999901"
             fill="#1fc2a7"
             id="rect254" />
          <rect
             x="109.343"
             y="155.343"
             width="93.000099"
             height="50.999901"
             fill="#1fc2a7"
             id="rect256" />
          <rect
             x="207.343"
             y="155.343"
             width="93.000099"
             height="50.999901"
             fill="#1fc2a7"
             id="rect258" />
        </g>
      </g>
      <rect
         x="1163"
         y="238"
         width="288"
         height="25.000099"
         fill="#243240"
         id="rect264" />
      <rect
         x="1163"
         y="268"
         width="92.999901"
         height="51.000099"
         fill="#1fc2a7"
         id="rect266" />
      <rect
         x="1260"
         y="268"
         width="93.000099"
         height="51.000099"
         fill="#1fc2a7"
         id="rect268" />
      <rect
         x="1358"
         y="268"
         width="93.000099"
         height="51.000099"
         fill="#1fc2a7"
         id="rect270" />
      <rect
         x="1163"
         y="324"
         width="92.999901"
         height="52"
         fill="#1fc2a7"
         id="rect272" />
      <rect
         x="1260"
         y="324"
         width="93.000099"
         height="52"
         fill="#1fc2a7"
         id="rect274" />
      <rect
         x="1358"
         y="324"
         width="93.000099"
         height="52"
         fill="#1fc2a7"
         id="rect276" />
      <rect
         x="1163"
         y="381"
         width="92.999901"
         height="50.999901"
         fill="#1fc2a7"
         id="rect278" />
      <rect
         x="1260"
         y="381"
         width="93.000099"
         height="50.999901"
         fill="#1fc2a7"
         id="rect280" />
      <rect
         x="1358"
         y="381"
         width="93.000099"
         height="50.999901"
         fill="#1fc2a7"
         id="rect282" />
      <g
         clip-path="url(#clip24)"
         filter="url(#fx1)"
         transform="translate(1213,292)"
         id="g306">
        <g
           clip-path="url(#clip25)"
           id="g304">
          <rect
             x="12.3433"
             y="12.3431"
             width="289"
             height="25.000099"
             fill="#243240"
             id="rect284" />
          <rect
             x="12.3433"
             y="42.343102"
             width="94"
             height="51.000099"
             fill="#1fc2a7"
             id="rect286" />
          <rect
             x="110.343"
             y="42.343102"
             width="92.999901"
             height="51.000099"
             fill="#1fc2a7"
             id="rect288" />
          <rect
             x="208.343"
             y="42.343102"
             width="92.999901"
             height="51.000099"
             fill="#1fc2a7"
             id="rect290" />
          <rect
             x="12.3433"
             y="98.343102"
             width="94"
             height="52"
             fill="#1fc2a7"
             id="rect292" />
          <rect
             x="110.343"
             y="98.343102"
             width="92.999901"
             height="52"
             fill="#1fc2a7"
             id="rect294" />
          <rect
             x="208.343"
             y="98.343102"
             width="92.999901"
             height="52"
             fill="#1fc2a7"
             id="rect296" />
          <rect
             x="12.3433"
             y="155.343"
             width="94"
             height="50.999901"
             fill="#1fc2a7"
             id="rect298" />
          <rect
             x="110.343"
             y="155.343"
             width="92.999901"
             height="50.999901"
             fill="#1fc2a7"
             id="rect300" />
          <rect
             x="208.343"
             y="155.343"
             width="92.999901"
             height="50.999901"
             fill="#1fc2a7"
             id="rect302" />
        </g>
      </g>
      <rect
         x="1231"
         y="310"
         width="289"
         height="25.000099"
         fill="#243240"
         id="rect308" />
      <rect
         x="1231"
         y="340"
         width="94"
         height="51.000099"
         fill="#1fc2a7"
         id="rect310" />
      <rect
         x="1329"
         y="340"
         width="92.999901"
         height="51.000099"
         fill="#1fc2a7"
         id="rect312" />
      <rect
         x="1427"
         y="340"
         width="92.999901"
         height="51.000099"
         fill="#1fc2a7"
         id="rect314" />
      <rect
         x="1231"
         y="396"
         width="94"
         height="52"
         fill="#1fc2a7"
         id="rect316" />
      <rect
         x="1329"
         y="396"
         width="92.999901"
         height="52"
         fill="#1fc2a7"
         id="rect318" />
      <rect
         x="1427"
         y="396"
         width="92.999901"
         height="52"
         fill="#1fc2a7"
         id="rect320" />
      <rect
         x="1231"
         y="453"
         width="94"
         height="50.999901"
         fill="#1fc2a7"
         id="rect322" />
      <rect
         x="1329"
         y="453"
         width="92.999901"
         height="50.999901"
         fill="#1fc2a7"
         id="rect324" />
      <rect
         x="1427"
         y="453"
         width="92.999901"
         height="50.999901"
         fill="#1fc2a7"
         id="rect326" />
      <g
         clip-path="url(#clip26)"
         filter="url(#fx2)"
         transform="translate(1104,343)"
         id="g350">
        <g
           clip-path="url(#clip27)"
           id="g348">
          <rect
             x="12.3431"
             y="12.3433"
             width="289"
             height="24.999901"
             fill="#243240"
             id="rect328" />
          <rect
             x="12.3431"
             y="42.3433"
             width="94"
             height="50.999901"
             fill="#1fc2a7"
             id="rect330" />
          <rect
             x="110.343"
             y="42.3433"
             width="93.000099"
             height="50.999901"
             fill="#1fc2a7"
             id="rect332" />
          <rect
             x="208.343"
             y="42.3433"
             width="93.000099"
             height="50.999901"
             fill="#1fc2a7"
             id="rect334" />
          <rect
             x="12.3431"
             y="98.3433"
             width="94"
             height="52"
             fill="#1fc2a7"
             id="rect336" />
          <rect
             x="110.343"
             y="98.3433"
             width="93.000099"
             height="52"
             fill="#1fc2a7"
             id="rect338" />
          <rect
             x="208.343"
             y="98.3433"
             width="93.000099"
             height="52"
             fill="#1fc2a7"
             id="rect340" />
          <rect
             x="12.3431"
             y="155.343"
             width="94"
             height="51.000099"
             fill="#1fc2a7"
             id="rect342" />
          <rect
             x="110.343"
             y="155.343"
             width="93.000099"
             height="51.000099"
             fill="#1fc2a7"
             id="rect344" />
          <rect
             x="208.343"
             y="155.343"
             width="93.000099"
             height="51.000099"
             fill="#1fc2a7"
             id="rect346" />
        </g>
      </g>
      <rect
         x="1122"
         y="361"
         width="289"
         height="24.999901"
         fill="#243240"
         id="rect352" />
      <rect
         x="1122"
         y="391"
         width="94"
         height="50.999901"
         fill="#1fc2a7"
         id="rect354" />
      <rect
         x="1220"
         y="391"
         width="93.000099"
         height="50.999901"
         fill="#1fc2a7"
         id="rect356" />
      <rect
         x="1318"
         y="391"
         width="93.000099"
         height="50.999901"
         fill="#1fc2a7"
         id="rect358" />
      <rect
         x="1122"
         y="447"
         width="94"
         height="52"
         fill="#1fc2a7"
         id="rect360" />
      <rect
         x="1220"
         y="447"
         width="93.000099"
         height="52"
         fill="#1fc2a7"
         id="rect362" />
      <rect
         x="1318"
         y="447"
         width="93.000099"
         height="52"
         fill="#1fc2a7"
         id="rect364" />
      <rect
         x="1122"
         y="504"
         width="94"
         height="51.000099"
         fill="#1fc2a7"
         id="rect366" />
      <rect
         x="1220"
         y="504"
         width="93.000099"
         height="51.000099"
         fill="#1fc2a7"
         id="rect368" />
      <rect
         x="1318"
         y="504"
         width="93.000099"
         height="51.000099"
         fill="#1fc2a7"
         id="rect370" />
    </g>
  </g>
</svg>
