<svg width="2416" height="2262" xmlns="http://www.w3.org/2000/svg" xmlns:xlink="http://www.w3.org/1999/xlink" overflow="hidden"><defs><clipPath id="clip0"><rect x="-452" y="86" width="2416" height="2262"/></clipPath><clipPath id="clip1"><rect x="599" y="548" width="331" height="288"/></clipPath><clipPath id="clip2"><rect x="599" y="548" width="331" height="288"/></clipPath><clipPath id="clip3"><rect x="599" y="548" width="331" height="288"/></clipPath><clipPath id="clip4"><rect x="601" y="1590" width="331" height="288"/></clipPath><clipPath id="clip5"><rect x="601" y="1590" width="331" height="288"/></clipPath><clipPath id="clip6"><rect x="601" y="1590" width="331" height="288"/></clipPath><clipPath id="clip7"><rect x="676" y="1674" width="167" height="145"/></clipPath><clipPath id="clip8"><rect x="676" y="1674" width="167" height="145"/></clipPath><clipPath id="clip9"><rect x="676" y="1674" width="167" height="145"/></clipPath><clipPath id="clip10"><rect x="599" y="1054" width="331" height="288"/></clipPath><clipPath id="clip11"><rect x="599" y="1054" width="331" height="288"/></clipPath><clipPath id="clip12"><rect x="599" y="1054" width="331" height="288"/></clipPath><clipPath id="clip13"><rect x="694" y="1137" width="145" height="145"/></clipPath><clipPath id="clip14"><rect x="694" y="1137" width="145" height="145"/></clipPath><clipPath id="clip15"><rect x="694" y="1137" width="145" height="145"/></clipPath><clipPath id="clip16"><rect x="610" y="85" width="331" height="287"/></clipPath><clipPath id="clip17"><rect x="610" y="85" width="331" height="287"/></clipPath><clipPath id="clip18"><rect x="610" y="85" width="331" height="287"/></clipPath></defs><g clip-path="url(#clip0)" transform="translate(452 -86)"><path d="M762 2090.89 762.001 1941" stroke="#FFFFFF" stroke-width="13.75" stroke-linecap="round" stroke-miterlimit="8" fill="none" fill-rule="evenodd"/><text fill="#FFFFFF" font-family="Arial,Arial_MSFontService,sans-serif" font-weight="400" font-size="55" transform="matrix(1 0 0 1 660.276 1879)">externals</text><path d="M762 1563.89 762.001 1414" stroke="#FFFFFF" stroke-width="13.75" stroke-linecap="round" stroke-miterlimit="8" fill="none" fill-rule="evenodd"/><text fill="#FFFFFF" font-family="Arial,Arial_MSFontService,sans-serif" font-weight="400" font-size="55" transform="matrix(1 0 0 1 711.603 1341)">runs</text><g clip-path="url(#clip1)"><g clip-path="url(#clip2)"><g clip-path="url(#clip3)"><path d="M242.156 227.208 44.8438 227.208C38.2667 227.208 32.8854 221.827 32.8854 215.25L32.8854 71.75C32.8854 65.1729 38.2667 59.7917 44.8438 59.7917L101.048 59.7917C103.44 59.7917 105.831 60.3896 107.625 61.8844L140.51 83.7083 242.156 83.7083C248.733 83.7083 254.115 89.0896 254.115 95.6667L254.115 215.25C254.115 221.827 248.733 227.208 242.156 227.208Z" stroke="#FFFFFF" stroke-width="5.97917" fill="none" transform="matrix(1.14983 0 0 1 600 549)"/></g></g></g><rect x="699.5" y="686.5" width="37.9998" height="67.0001" stroke="#FFFFFF" stroke-width="4.58333" stroke-miterlimit="8" fill="#FFFFFF"/><rect x="748.5" y="669.5" width="38.0002" height="83.9999" stroke="#FFFFFF" stroke-width="4.58333" stroke-miterlimit="8" fill="#FFFFFF"/><rect x="796.5" y="651.5" width="37.0001" height="102" stroke="#FFFFFF" stroke-width="4.58333" stroke-miterlimit="8" fill="#FFFFFF"/><text fill="#FFFFFF" font-family="Arial,Arial_MSFontService,sans-serif" font-weight="400" font-size="55" transform="matrix(1 0 0 1 644.771 845)">workflows</text><path d="M762 1051.89 762.001 902" stroke="#FFFFFF" stroke-width="13.75" stroke-linecap="round" stroke-miterlimit="8" fill="none" fill-rule="evenodd"/><rect x="621.5" y="2107.5" width="49.9998" height="19" stroke="#FFFFFF" stroke-width="4.58333" stroke-miterlimit="8" fill="none"/><path d="M671 2117 711.107 2117" stroke="#FFFFFF" stroke-width="2.29167" stroke-miterlimit="8" fill="none" fill-rule="evenodd"/><path d="M712 2117 728.945 2176.89" stroke="#FFFFFF" stroke-width="2.29167" stroke-miterlimit="8" fill="none" fill-rule="evenodd"/><rect x="658.5" y="2308.5" width="50.9999" height="19" stroke="#FFFFFF" stroke-width="4.58333" stroke-miterlimit="8" fill="none"/><path d="M709 2317 745.076 2317" stroke="#FFFFFF" stroke-width="2.29167" stroke-miterlimit="8" fill="none" fill-rule="evenodd"/><path d="M0 0 16.9453 59.8937" stroke="#FFFFFF" stroke-width="2.29167" stroke-miterlimit="8" fill="none" fill-rule="evenodd" transform="matrix(1 0 0 -1 745 2317.89)"/><rect x="928.5" y="2145.5" width="50.9999" height="20.0002" stroke="#FFFFFF" stroke-width="4.58333" stroke-miterlimit="8" fill="none"/><path d="M901 2155 927.35 2155" stroke="#FFFFFF" stroke-width="2.29167" stroke-miterlimit="8" fill="none" fill-rule="evenodd"/><path d="M0 0 74.2883 34.3912" stroke="#FFFFFF" stroke-width="2.29167" stroke-miterlimit="8" fill="none" fill-rule="evenodd" transform="matrix(1 0 0 -1 827 2189.39)"/><path d="M767.721 560.377 767 440" stroke="#FFFFFF" stroke-width="13.75" stroke-linecap="round" stroke-miterlimit="8" fill="none" fill-rule="evenodd"/><path d="M433 1789 605.432 1789" stroke="#FFFFFF" stroke-width="13.75" stroke-linecap="round" stroke-miterlimit="8" fill="none" fill-rule="evenodd"/><text fill="#FFFFFF" font-family="Arial,Arial_MSFontService,sans-serif" font-weight="400" font-size="55" transform="matrix(1 0 0 1 686.69 362)">assays</text><g clip-path="url(#clip4)"><g clip-path="url(#clip5)"><g clip-path="url(#clip6)"><path d="M242.156 227.208 44.8438 227.208C38.2667 227.208 32.8854 221.827 32.8854 215.25L32.8854 71.75C32.8854 65.1729 38.2667 59.7917 44.8438 59.7917L101.048 59.7917C103.44 59.7917 105.831 60.3896 107.625 61.8844L140.51 83.7083 242.156 83.7083C248.733 83.7083 254.115 89.0896 254.115 95.6667L254.115 215.25C254.115 221.827 248.733 227.208 242.156 227.208Z" stroke="#FFFFFF" stroke-width="5.97917" fill="none" transform="matrix(1.14983 0 0 1 602 1591)"/></g></g></g><g clip-path="url(#clip7)"><g clip-path="url(#clip8)"><g clip-path="url(#clip9)"><path d="M105 99C99.5313 99.0041 94.7571 102.705 93.39 108L75 108 75 83.61C81.4121 81.9341 85.2515 75.3776 83.5755 68.9655 82.4781 64.7666 79.199 61.4874 75 60.39L75 30 50.61 30C48.9531 23.583 42.408 19.7243 35.991 21.381 29.5742 23.0379 25.7153 29.583 27.3722 36 29.0289 42.417 35.5742 46.2758 41.991 44.619 46.2179 43.5276 49.5186 40.2269 50.61 36L69 36 69 60.39C62.588 62.066 58.7486 68.6225 60.4245 75.0345 61.5219 79.2335 64.8011 82.5126 69 83.61L69 114 93.39 114C95.0469 120.417 101.592 124.276 108.009 122.619 114.426 120.962 118.285 114.417 116.628 108 115.259 102.699 110.475 98.996 105 99Z" stroke="#FFFFFF" stroke-width="1.50015" fill="#FFFFFF" transform="matrix(1.15278 0 0 1 677 1674)"/></g></g></g><g clip-path="url(#clip10)"><g clip-path="url(#clip11)"><g clip-path="url(#clip12)"><path d="M242.156 227.208 44.8438 227.208C38.2667 227.208 32.8854 221.827 32.8854 215.25L32.8854 71.75C32.8854 65.1729 38.2667 59.7917 44.8438 59.7917L101.048 59.7917C103.44 59.7917 105.831 60.3896 107.625 61.8844L140.51 83.7083 242.156 83.7083C248.733 83.7083 254.115 89.0896 254.115 95.6667L254.115 215.25C254.115 221.827 248.733 227.208 242.156 227.208Z" stroke="#FFFFFF" stroke-width="5.97917" fill="none" transform="matrix(1.14983 0 0 1 600 1055)"/></g></g></g><g clip-path="url(#clip13)"><g clip-path="url(#clip14)"><g clip-path="url(#clip15)"><path d="M111.75 57.6165C112.814 55.7667 113.669 53.8047 114.3 51.7665L120.9 48.4665 120.9 40.9665 114.3 37.6665C113.748 35.6237 112.942 33.6582 111.9 31.8165L114.3 24.7665 108.9 19.3665 101.85 21.7665C100.009 20.7186 98.0438 19.9068 96 19.35L92.7 12.75 85.2 12.75 81.9 19.35C79.857 19.9013 77.8916 20.7075 76.05 21.75L69 19.35 63.6 24.75 66 31.8C64.958 33.6417 64.1517 35.6072 63.6 37.65L57 40.95 57 48.45 63.6 51.75C64.1519 53.7929 64.9583 55.7582 66 57.6L63.6 64.65 68.85 69.9 75.9 67.5C77.7417 68.5421 79.7072 69.3483 81.75 69.9L85.05 76.5 92.55 76.5 95.85 69.9C97.8929 69.3485 99.8583 68.5422 101.7 67.5L108.75 69.9 114.15 64.65ZM108.909 58.5825 110.7 63.84 107.978 66.4875 102.668 64.6785 101.372 64.2375 100.188 64.9275C98.5637 65.8455 96.8292 66.5537 95.0265 67.035L93.7575 67.398 93.1665 68.5785 90.696 73.5285 86.9085 73.5285 84.438 68.5785 83.847 67.398 82.578 67.035C80.7749 66.5537 79.04 65.8455 77.415 64.9275L76.233 64.2375 74.937 64.6785 69.654 66.4785 67.044 63.8685 68.844 58.584 69.285 57.288 68.595 56.106C67.6791 54.4805 66.9734 52.745 66.495 50.9415L66.132 49.6725 64.953 49.083 60 46.6095 60 42.816 64.95 40.35 66.129 39.759 66.492 38.49C66.9707 36.687 67.6763 34.9523 68.592 33.327L69.282 32.1435 68.841 30.849 67.041 25.563 69.801 22.803 75.084 24.603 76.38 25.053 77.562 24.3615C79.1873 23.4461 80.9222 22.7405 82.725 22.2615L84 21.8775 84.591 20.697 87.0615 15.747 90.8535 15.747 93.324 20.697 93.915 21.8775 95.1825 22.2405C96.9855 22.7192 98.7203 23.4248 100.346 24.3405L101.529 25.032 102.825 24.582 108.107 22.782 110.867 25.542 109.067 30.828 108.626 32.1225 109.316 33.306C110.233 34.9311 110.941 36.666 111.423 38.469L111.785 39.738 112.965 40.329 117.915 42.801 117.915 46.5945 112.965 49.0665 111.818 49.641 111.44 50.868C110.876 52.6904 110.112 54.4449 109.164 56.1L108.474 57.282Z" stroke="#FFFFFF" stroke-width="1.5" fill="#FFFFFF" transform="matrix(1 0 0 1.00694 694 1137)"/><path d="M23.1 95.427 23.1 102.927 29.7 106.227C30.2517 108.27 31.058 110.235 32.1 112.077L29.85 119.127 35.1 124.377 42.15 122.127C43.9916 123.169 45.957 123.976 48 124.527L51.3 131.127 58.8 131.127 62.1 124.527C64.1429 123.975 66.1083 123.169 67.95 122.127L75 124.527 80.25 119.127 78 112.227C79.0421 110.385 79.8483 108.42 80.4 106.377L87 103.077 87 95.577 80.4 92.277C79.8483 90.2342 79.0421 88.2687 78 86.427L80.4 79.377 75 73.977 67.95 76.377C66.096 75.3606 64.1337 74.5556 62.1 73.977L58.8 67.377 51.3 67.377 48 73.977C45.957 74.5284 43.9916 75.3347 42.15 76.377L35.1 73.977 29.85 79.227 32.1 86.277C31.0838 88.1312 30.2787 90.0933 29.7 92.127ZM32.19 94.227 32.568 93C33.0842 91.1876 33.7964 89.4366 34.692 87.7785L35.364 86.625 34.9575 85.3545 33.264 80.043 35.901 77.4045 41.184 79.2045 42.48 79.647 43.662 78.957C45.2867 78.0384 47.0216 77.3301 48.825 76.8495L50.1 76.5 50.691 75.3195 53.1615 70.3695 56.9535 70.3695 59.424 75.3195 59.9985 76.4685 61.2255 76.845C63.0374 77.3624 64.7876 78.0752 66.4455 78.9705L67.629 79.6605 68.925 79.218 74.2065 77.418 76.9665 80.1795 75.1665 85.464 74.7255 86.7585 75.4155 87.942C76.3335 89.5676 77.0417 91.3028 77.523 93.1065L77.8845 94.374 79.065 94.965 84 97.431 84 101.225 79.05 103.697 77.8695 104.288 77.508 105.555C77.0267 107.359 76.3185 109.094 75.4005 110.72L74.7225 111.882 75.1395 113.162 76.8285 118.341 74.175 121.083 68.925 119.294 67.629 118.853 66.4455 119.543C64.8197 120.462 63.0831 121.17 61.278 121.65L60.009 122.013 59.4195 123.194 56.949 128.144 53.157 128.144 50.6865 123.194 50.0955 122.013 48.8265 121.65C47.0231 121.169 45.2882 120.461 43.6635 119.543L42.5115 118.871 41.2395 119.276 35.931 120.971 33.2655 118.305 34.959 112.994 35.3655 111.723 34.6935 110.57C33.7751 108.945 33.0669 107.21 32.586 105.407L32.223 104.138 31.044 103.547 26.094 101.075 26.094 97.281 31.044 94.809Z" stroke="#FFFFFF" stroke-width="1.5" fill="#FFFFFF" transform="matrix(1 0 0 1.00694 694 1137)"/><path d="M88.95 33.459C82.7369 33.459 77.7 38.4959 77.7 44.709 77.7 50.9222 82.7369 55.959 88.95 55.959 95.1632 55.959 100.2 50.9222 100.2 44.709 100.154 38.5152 95.1438 33.5055 88.95 33.459ZM88.95 52.959C84.3965 52.9524 80.7066 49.2626 80.7 44.709 80.7606 40.178 84.419 36.5196 88.95 36.459 93.5036 36.4656 97.1934 40.1555 97.2 44.709 97.1435 49.2428 93.4836 52.9052 88.95 52.965Z" stroke="#FFFFFF" stroke-width="1.5" fill="#FFFFFF" transform="matrix(1 0 0 1.00694 694 1137)"/><path d="M55.05 110.582C61.2632 110.582 66.3 105.545 66.3 99.3315 66.3 93.1184 61.2632 88.0815 55.05 88.0815 48.8369 88.0815 43.8 93.1184 43.8 99.3315 43.7925 105.537 48.8172 110.574 55.023 110.582 55.032 110.582 55.041 110.582 55.05 110.582ZM55.05 91.074C59.6064 91.074 63.3 94.7676 63.3 99.324 63.3 103.88 59.6064 107.574 55.05 107.574 50.4936 107.574 46.8 103.88 46.8 99.324 46.8066 94.7705 50.4965 91.0806 55.05 91.074Z" stroke="#FFFFFF" stroke-width="1.5" fill="#FFFFFF" transform="matrix(1 0 0 1.00694 694 1137)"/></g></g></g><path d="M694.5 2159.5C694.5 2152.87 699.873 2147.5 706.5 2147.5L771.5 2147.5C778.127 2147.5 783.5 2152.87 783.5 2159.5L783.5 2207.5C783.5 2214.13 778.127 2219.5 771.5 2219.5L706.5 2219.5C699.873 2219.5 694.5 2214.13 694.5 2207.5Z" stroke="#FFFFFF" stroke-width="4.58333" stroke-miterlimit="8" fill="none" fill-rule="evenodd"/><path d="M747.5 2186.67C747.5 2179.95 752.948 2174.5 759.667 2174.5L824.333 2174.5C831.053 2174.5 836.5 2179.95 836.5 2186.67L836.5 2235.33C836.5 2242.05 831.053 2247.5 824.333 2247.5L759.667 2247.5C752.948 2247.5 747.5 2242.05 747.5 2235.33Z" stroke="#FFFFFF" stroke-width="4.58333" stroke-miterlimit="8" fill="none" fill-rule="evenodd"/><path d="M711.5 2217.67C711.5 2210.95 716.947 2205.5 723.667 2205.5L788.333 2205.5C795.053 2205.5 800.5 2210.95 800.5 2217.67L800.5 2266.33C800.5 2273.05 795.053 2278.5 788.333 2278.5L723.667 2278.5C716.947 2278.5 711.5 2273.05 711.5 2266.33Z" stroke="#FFFFFF" stroke-width="4.58333" stroke-miterlimit="8" fill="none" fill-rule="evenodd"/><text fill="#FFFFFF" font-family="Arial,Arial_MSFontService,sans-serif" font-weight="400" font-size="50" transform="matrix(1 0 0 1 852.736 2228)">isa</text><g clip-path="url(#clip16)"><g clip-path="url(#clip17)"><g clip-path="url(#clip18)"><path d="M241.312 226.417 44.6875 226.417C38.1333 226.417 32.7708 221.054 32.7708 214.5L32.7708 71.5C32.7708 64.9458 38.1333 59.5833 44.6875 59.5833L100.696 59.5833C103.079 59.5833 105.463 60.1792 107.25 61.6688L140.021 83.4167 241.312 83.4167C247.867 83.4167 253.229 88.7792 253.229 95.3333L253.229 214.5C253.229 221.054 247.867 226.417 241.312 226.417Z" stroke="#FFFFFF" stroke-width="5.95833" fill="none" transform="matrix(1.15385 0 0 1 611 85.9999)"/></g></g></g><path d="M725.822 263.312C720.695 255.525 720.652 238.243 726.142 227.906 731.632 217.569 741.831 203.031 770.207 202.673 780.064 202.549 794.517 200.556 803.794 198.611 813.071 196.666 821.761 190.878 825.868 191.002 829.974 191.126 829.098 194.448 828.434 199.356 827.77 204.264 824.762 214.174 821.885 220.452 819.008 226.729 811.108 244.994 805.137 253.333 799.165 261.672 794.095 266.936 786.056 270.485 778.017 274.035 766.943 275.826 756.904 274.631 746.865 273.435 730.949 271.1 725.822 263.312Z" stroke="#FFFFFF" stroke-width="10.3125" stroke-linecap="round" stroke-miterlimit="8" fill="none" fill-rule="evenodd"/><path d="M713 287C717.815 269.318 722.63 251.636 765 240" stroke="#FFFFFF" stroke-width="10.3125" stroke-linecap="round" stroke-miterlimit="8" fill="none" fill-rule="evenodd"/></g></svg>