<svg width="2415" height="2230" xmlns="http://www.w3.org/2000/svg" xmlns:xlink="http://www.w3.org/1999/xlink" overflow="hidden"><defs><clipPath id="clip0"><rect x="2305" y="109" width="2415" height="2230"/></clipPath><clipPath id="clip1"><rect x="3331" y="687" width="404" height="352"/></clipPath><clipPath id="clip2"><rect x="3331" y="687" width="404" height="352"/></clipPath><clipPath id="clip3"><rect x="3331" y="687" width="404" height="352"/></clipPath><clipPath id="clip4"><rect x="3334" y="1956" width="402" height="350"/></clipPath><clipPath id="clip5"><rect x="3334" y="1956" width="402" height="350"/></clipPath><clipPath id="clip6"><rect x="3334" y="1956" width="402" height="350"/></clipPath><clipPath id="clip7"><rect x="3426" y="2057" width="201" height="176"/></clipPath><clipPath id="clip8"><rect x="3426" y="2057" width="201" height="176"/></clipPath><clipPath id="clip9"><rect x="3426" y="2057" width="201" height="176"/></clipPath><clipPath id="clip10"><rect x="3331" y="1303" width="404" height="351"/></clipPath><clipPath id="clip11"><rect x="3331" y="1303" width="404" height="351"/></clipPath><clipPath id="clip12"><rect x="3331" y="1303" width="404" height="351"/></clipPath><clipPath id="clip13"><rect x="3446" y="1404" width="177" height="176"/></clipPath><clipPath id="clip14"><rect x="3446" y="1404" width="177" height="176"/></clipPath><clipPath id="clip15"><rect x="3446" y="1404" width="177" height="176"/></clipPath><clipPath id="clip16"><rect x="3346" y="124" width="402" height="349"/></clipPath><clipPath id="clip17"><rect x="3346" y="124" width="402" height="349"/></clipPath><clipPath id="clip18"><rect x="3346" y="124" width="402" height="349"/></clipPath></defs><g clip-path="url(#clip0)" transform="translate(-2305 -109)"><text fill="#1FC2A7" font-family="Arial,Arial_MSFontService,sans-serif" font-weight="400" font-size="55" transform="matrix(1 0 0 1 3429.63 2293)">externals</text><path d="M3530 1924.53 3530 1742" stroke="#1FC2A7" stroke-width="13.75" stroke-linecap="round" stroke-miterlimit="8" fill="none" fill-rule="evenodd"/><text fill="#1FC2A7" font-family="Arial,Arial_MSFontService,sans-serif" font-weight="400" font-size="55" transform="matrix(1 0 0 1 3479.53 1637)">runs</text><g clip-path="url(#clip1)"><g clip-path="url(#clip2)"><g clip-path="url(#clip3)"><path d="M295.313 277.084 54.6875 277.084C46.6667 277.084 40.1042 270.521 40.1042 262.5L40.1042 87.5001C40.1042 79.4792 46.6667 72.9167 54.6875 72.9167L123.229 72.9167C126.146 72.9167 129.063 73.6459 131.25 75.4688L171.354 102.083 295.313 102.083C303.334 102.083 309.896 108.646 309.896 116.667L309.896 262.5C309.896 270.521 303.334 277.084 295.313 277.084Z" stroke="#1FC2A7" stroke-width="7.29175" fill="none" transform="matrix(1.14857 0 0 1 3332 688)"/></g></g></g><rect x="3453.5" y="855.5" width="44.9998" height="81.9998" stroke="#1FC2A7" stroke-width="4.58333" stroke-miterlimit="8" fill="#1FC2A7"/><rect x="3513.5" y="834.5" width="45" height="103" stroke="#1FC2A7" stroke-width="4.58333" stroke-miterlimit="8" fill="#1FC2A7"/><rect x="3570.5" y="813.5" width="46" height="124" stroke="#1FC2A7" stroke-width="4.58333" stroke-miterlimit="8" fill="#1FC2A7"/><text fill="#1FC2A7" font-family="Arial,Arial_MSFontService,sans-serif" font-weight="400" font-size="55" transform="matrix(1 0 0 1 3412.74 1033)">workflows</text><path d="M3530 1300.53 3530 1118" stroke="#1FC2A7" stroke-width="13.75" stroke-linecap="round" stroke-miterlimit="8" fill="none" fill-rule="evenodd"/><path d="M3535.88 701.589 3535 555" stroke="#1FC2A7" stroke-width="13.75" stroke-linecap="round" stroke-miterlimit="8" fill="none" fill-rule="evenodd"/><path d="M3128 2198 3337.98 2198" stroke="#1FC2A7" stroke-width="13.75" stroke-linecap="round" stroke-miterlimit="8" fill="none" fill-rule="evenodd"/><text fill="#1FC2A7" font-family="Arial,Arial_MSFontService,sans-serif" font-weight="400" font-size="55" transform="matrix(1 0 0 1 3456.18 445)">assays</text><g clip-path="url(#clip4)"><g clip-path="url(#clip5)"><g clip-path="url(#clip6)"><path d="M294.469 276.292 54.5312 276.292C46.5333 276.292 39.9896 269.748 39.9896 261.75L39.9896 87.25C39.9896 79.2521 46.5333 72.7083 54.5312 72.7083L122.877 72.7083C125.785 72.7083 128.694 73.4354 130.875 75.2531L170.865 101.792 294.469 101.792C302.467 101.792 309.01 108.335 309.01 116.333L309.01 261.75C309.01 269.748 302.467 276.292 294.469 276.292Z" stroke="#1FC2A7" stroke-width="7.2709" fill="none" transform="matrix(1.15186 0 0 1 3334 1957)"/></g></g></g><g clip-path="url(#clip7)"><g clip-path="url(#clip8)"><g clip-path="url(#clip9)"><path d="M128.333 121C121.649 121.005 115.814 125.528 114.143 132L91.6667 132 91.6667 102.19C99.5036 100.142 104.196 92.1281 102.148 84.2912 100.807 79.1591 96.7987 75.1513 91.6667 73.81L91.6667 36.6667 61.8567 36.6667C59.8316 28.8237 51.832 24.1074 43.989 26.1323 36.1462 28.1574 31.4298 36.157 33.4549 44 35.4798 51.843 43.4795 56.5592 51.3223 54.5343 56.4885 53.2004 60.5227 49.1661 61.8567 44L84.3333 44 84.3333 73.81C76.4964 75.8584 71.8038 83.8719 73.8522 91.7088 75.1934 96.8409 79.2013 100.849 84.3333 102.19L84.3333 139.333 114.143 139.333C116.168 147.176 124.168 151.893 132.011 149.868 139.854 147.843 144.57 139.843 142.545 132 140.872 125.52 135.025 120.995 128.333 121Z" stroke="#1FC2A7" stroke-width="1.83342" fill="#1FC2A7" transform="matrix(1.14204 0 0 1 3426 2057)"/></g></g></g><g clip-path="url(#clip10)"><g clip-path="url(#clip11)"><g clip-path="url(#clip12)"><path d="M294.469 276.292 54.5313 276.292C46.5334 276.292 39.9896 269.748 39.9896 261.75L39.9896 87.2501C39.9896 79.2521 46.5334 72.7084 54.5313 72.7084L122.877 72.7084C125.786 72.7084 128.694 73.4355 130.875 75.2532L170.865 101.792 294.469 101.792C302.467 101.792 309.011 108.335 309.011 116.333L309.011 261.75C309.011 269.748 302.467 276.292 294.469 276.292Z" stroke="#1FC2A7" stroke-width="7.27091" fill="none" transform="matrix(1.15186 0 0 1 3332 1304)"/></g></g></g><g clip-path="url(#clip13)"><g clip-path="url(#clip14)"><g clip-path="url(#clip15)"><path d="M135.807 70.02C137.1 67.772 138.139 65.3876 138.906 62.9107L146.927 58.9002 146.927 49.7857 138.906 45.7752C138.236 43.2926 137.256 40.9041 135.99 38.6659L138.906 30.0982 132.344 23.5357 123.776 26.4523C121.539 25.1788 119.15 24.1923 116.667 23.5156L112.656 15.4948 103.542 15.4948 99.5312 23.5156C97.0484 24.1855 94.6599 25.1654 92.4219 26.4323L83.8541 23.5156 77.2916 30.0781 80.2083 38.6458C78.9419 40.884 77.9621 43.2726 77.2916 45.7552L69.2708 49.7656 69.2708 58.8802 77.2916 62.8906C77.9623 65.3732 78.9423 67.7616 80.2083 70L77.2916 78.5677 83.6719 84.9479 92.2396 82.0312C94.4777 83.2976 96.8663 84.2774 99.3489 84.9479L103.359 92.9687 112.474 92.9687 116.484 84.9479C118.967 84.2776 121.356 83.2978 123.594 82.0312L132.161 84.9479 138.724 78.5677ZM132.355 71.194 134.531 77.5833 131.223 80.8008 124.77 78.6023 123.195 78.0664 121.756 78.9049C119.782 80.0206 117.674 80.8811 115.484 81.4661L113.941 81.9073 113.223 83.3419 110.221 89.3575 105.618 89.3575 102.616 83.3419 101.897 81.9073 100.355 81.4661C98.1639 80.8811 96.0555 80.0206 94.0807 78.9049L92.6442 78.0664 91.0693 78.6023 84.6489 80.7898 81.4771 77.618 83.6646 71.1958 84.2005 69.6208 83.362 68.1844C82.2489 66.2089 81.3912 64.0998 80.8099 61.9081L80.3687 60.3659 78.9359 59.6495 72.9166 56.6435 72.9166 52.0333 78.9323 49.0364 80.3651 48.3182 80.8062 46.776C81.3879 44.5849 82.2454 42.4767 83.3583 40.5016L84.1969 39.0633 83.6609 37.4901 81.4734 31.0661 84.8276 27.712 91.2479 29.8995 92.8229 30.4463 94.2594 29.606C96.2345 28.4935 98.3429 27.636 100.534 27.0539L102.083 26.5872 102.802 25.1526 105.804 19.137 110.412 19.137 113.415 25.1526 114.133 26.5872 115.673 27.0284C117.864 27.6101 119.972 28.4676 121.948 29.5805L123.386 30.4208 124.961 29.874 131.379 27.6865 134.734 31.0406 132.546 37.4646 132.01 39.0378 132.849 40.476C133.964 42.451 134.825 44.5594 135.41 46.7505L135.849 48.2927 137.284 49.0109 143.299 52.0151 143.299 56.6252 137.284 59.6294 135.889 60.3276 135.43 61.8187C134.745 64.0334 133.817 66.1657 132.665 68.1771L131.826 69.6135Z" stroke="#1FC2A7" stroke-width="1.82286" fill="#FFFFFF" transform="matrix(1.00571 0 0 1 3446 1405)"/><path d="M28.0729 115.97 28.0729 125.085 36.0937 129.095C36.7642 131.578 37.744 133.966 39.0104 136.205L36.276 144.772 42.6562 151.153 51.2239 148.418C53.4619 149.685 55.8505 150.665 58.3333 151.335L62.3437 159.356 71.4583 159.356 75.4687 151.335C77.9514 150.665 80.3399 149.685 82.5781 148.418L91.1458 151.335 97.526 144.772 94.7916 136.387C96.058 134.149 97.0378 131.76 97.7083 129.278L105.729 125.267 105.729 116.153 97.7083 112.142C97.0378 109.66 96.058 107.271 94.7916 105.033L97.7083 96.4651 91.1458 89.9026 82.5781 92.8193C80.325 91.584 77.9402 90.6057 75.4687 89.9026L71.4583 81.8818 62.3437 81.8818 58.3333 89.9026C55.8505 90.5727 53.4619 91.5525 51.2239 92.8193L42.6562 89.9026 36.276 96.2828 39.0104 104.851C37.7754 107.104 36.797 109.488 36.0937 111.96ZM39.1198 114.512 39.5792 113.021C40.2064 110.818 41.0719 108.69 42.1604 106.675L42.9771 105.273 42.4831 103.729 40.425 97.2745 43.6297 94.0679 50.05 96.2554 51.625 96.7932 53.0614 95.9547C55.0358 94.8383 57.1442 93.9775 59.3359 93.3935L60.8854 92.9687 61.6036 91.5341 64.606 85.5185 69.2143 85.5185 72.2167 91.5341 72.9148 92.9305 74.406 93.388C76.6079 94.0167 78.7349 94.883 80.7497 95.9711L82.188 96.8096 83.763 96.2719 90.1815 94.0844 93.5357 97.4403 91.3482 103.862 90.8122 105.436 91.6508 106.874C92.7664 108.849 93.627 110.958 94.212 113.15L94.6513 114.691 96.0859 115.409 102.083 118.406 102.083 123.016 96.0677 126.02 94.633 126.738 94.1937 128.279C93.6088 130.471 92.7482 132.579 91.6325 134.555L90.8086 135.968 91.3153 137.523 93.368 143.817 90.1432 147.149 83.763 144.975 82.188 144.439 80.7497 145.277C78.7739 146.394 76.6635 147.255 74.4698 147.839L72.9276 148.28 72.2112 149.714 69.2088 155.73 64.6005 155.73 61.5982 149.714 60.8799 148.28 59.3377 147.839C57.1461 147.254 55.0377 146.394 53.0633 145.277L51.6633 144.461 50.1174 144.953 43.6661 147.013 40.4268 143.773 42.4849 137.318 42.9789 135.774 42.1622 134.373C41.0461 132.398 40.1855 130.29 39.601 128.098L39.1599 126.556 37.7271 125.838 31.7115 122.834 31.7115 118.223 37.7271 115.219Z" stroke="#1FC2A7" stroke-width="1.82286" fill="#FFFFFF" transform="matrix(1.00571 0 0 1 3446 1405)"/><path d="M108.099 40.662C100.548 40.662 94.4271 46.7831 94.4271 54.3338 94.4271 61.8845 100.548 68.0057 108.099 68.0057 115.65 68.0057 121.771 61.8845 121.771 54.3338 121.714 46.8067 115.626 40.7185 108.099 40.662ZM108.099 64.3599C102.565 64.3519 98.0809 59.8677 98.0729 54.3338 98.1465 48.8274 102.592 44.3814 108.099 44.3078 113.633 44.3158 118.117 48.8 118.125 54.3338 118.056 59.8436 113.609 64.2944 108.099 64.3672Z" stroke="#1FC2A7" stroke-width="1.82286" fill="#FFFFFF" transform="matrix(1.00571 0 0 1 3446 1405)"/><path d="M66.901 134.387C74.4517 134.387 80.5729 128.266 80.5729 120.715 80.5729 113.165 74.4517 107.043 66.901 107.043 59.3503 107.043 53.2292 113.165 53.2292 120.715 53.22 128.257 59.3264 134.378 66.8682 134.387 66.8792 134.387 66.8901 134.387 66.901 134.387ZM66.901 110.68C72.4383 110.68 76.9271 115.169 76.9271 120.706 76.9271 126.244 72.4383 130.732 66.901 130.732 61.3637 130.732 56.875 126.244 56.875 120.706 56.883 115.172 61.3672 110.688 66.901 110.68Z" stroke="#1FC2A7" stroke-width="1.82286" fill="#FFFFFF" transform="matrix(1.00571 0 0 1 3446 1405)"/></g></g></g><g clip-path="url(#clip16)"><g clip-path="url(#clip17)"><g clip-path="url(#clip18)"><path d="M294.469 276.292 54.5312 276.292C46.5333 276.292 39.9896 269.748 39.9896 261.75L39.9896 87.25C39.9896 79.2521 46.5333 72.7083 54.5312 72.7083L122.877 72.7083C125.785 72.7083 128.694 73.4354 130.875 75.2531L170.865 101.792 294.469 101.792C302.467 101.792 309.01 108.335 309.01 116.333L309.01 261.75C309.01 269.748 302.467 276.292 294.469 276.292Z" stroke="#1FC2A7" stroke-width="7.2709" fill="none" transform="matrix(1.15186 0 0 1 3346 124)"/></g></g></g><path d="M3485.64 339.808C3479.41 330.351 3479.36 309.366 3486.03 296.815 3492.7 284.263 3505.09 266.609 3539.57 266.175 3551.55 266.024 3569.11 263.604 3580.38 261.242 3591.65 258.88 3602.21 251.852 3607.19 252.002 3612.18 252.153 3611.12 256.187 3610.31 262.147 3609.51 268.107 3605.85 280.14 3602.36 287.763 3598.86 295.385 3589.26 317.564 3582.01 327.69 3574.75 337.816 3568.59 344.208 3558.83 348.518 3549.06 352.828 3535.6 355.003 3523.41 353.552 3511.21 352.1 3491.87 349.264 3485.64 339.808Z" stroke="#1FC2A7" stroke-width="10.3125" stroke-linecap="round" stroke-miterlimit="8" fill="none" fill-rule="evenodd"/><path d="M3469 370C3474.83 347.803 3480.67 325.607 3532 311" stroke="#1FC2A7" stroke-width="10.3125" stroke-linecap="round" stroke-miterlimit="8" fill="none" fill-rule="evenodd"/></g></svg>