<svg width="2993" height="1571" xmlns="http://www.w3.org/2000/svg" xmlns:xlink="http://www.w3.org/1999/xlink" overflow="hidden"><defs><clipPath id="clip0"><rect x="609" y="495" width="2993" height="1571"/></clipPath><clipPath id="clip1"><rect x="2855" y="1302" width="274" height="273"/></clipPath><clipPath id="clip2"><rect x="2855" y="1302" width="274" height="273"/></clipPath><clipPath id="clip3"><rect x="2855" y="1302" width="274" height="273"/></clipPath><clipPath id="clip4"><rect x="2806" y="1459" width="271" height="274"/></clipPath><clipPath id="clip5"><rect x="2806" y="1459" width="271" height="274"/></clipPath><clipPath id="clip6"><rect x="2806" y="1459" width="271" height="274"/></clipPath><clipPath id="clip7"><rect x="2905" y="1488" width="272" height="272"/></clipPath><clipPath id="clip8"><rect x="2905" y="1488" width="272" height="272"/></clipPath><clipPath id="clip9"><rect x="2905" y="1488" width="272" height="272"/></clipPath><clipPath id="clip10"><rect x="609" y="821" width="299" height="299"/></clipPath><clipPath id="clip11"><rect x="609" y="821" width="299" height="299"/></clipPath><clipPath id="clip12"><rect x="609" y="821" width="299" height="299"/></clipPath><clipPath id="clip13"><rect x="874" y="822" width="298" height="299"/></clipPath><clipPath id="clip14"><rect x="874" y="822" width="298" height="299"/></clipPath><clipPath id="clip15"><rect x="874" y="822" width="298" height="299"/></clipPath><clipPath id="clip16"><rect x="708" y="875" width="328" height="328"/></clipPath><clipPath id="clip17"><rect x="708" y="875" width="328" height="328"/></clipPath><clipPath id="clip18"><rect x="708" y="875" width="328" height="328"/></clipPath><clipPath id="clip19"><rect x="2039" y="1563" width="364" height="364"/></clipPath><clipPath id="clip20"><rect x="2039" y="1563" width="364" height="364"/></clipPath><clipPath id="clip21"><rect x="2039" y="1563" width="364" height="364"/></clipPath><clipPath id="clip22"><rect x="1523" y="495" width="340" height="339"/></clipPath><clipPath id="clip23"><rect x="1523" y="495" width="340" height="339"/></clipPath><clipPath id="clip24"><rect x="1523" y="495" width="340" height="339"/></clipPath><clipPath id="clip25"><rect x="3205" y="812" width="364" height="364"/></clipPath><clipPath id="clip26"><rect x="3205" y="812" width="364" height="364"/></clipPath><clipPath id="clip27"><rect x="3205" y="812" width="364" height="364"/></clipPath><clipPath id="clip28"><rect x="1215" y="1392" width="416" height="415"/></clipPath><clipPath id="clip29"><rect x="1215" y="1392" width="416" height="415"/></clipPath><clipPath id="clip30"><rect x="1215" y="1392" width="416" height="415"/></clipPath></defs><g clip-path="url(#clip0)" transform="translate(-609 -495)"><rect x="1794.5" y="945.5" width="120" height="47.9998" stroke="#1FC2A7" stroke-width="6.875" stroke-miterlimit="8" fill="none"/><path d="M1914.5 969.5 2009.44 969.5" stroke="#1FC2A7" stroke-width="4.58333" stroke-miterlimit="8" fill="none" fill-rule="evenodd"/><path d="M2009.5 969.5 2049.61 1115.93" stroke="#1FC2A7" stroke-width="4.58333" stroke-miterlimit="8" fill="none" fill-rule="evenodd"/><rect x="1901.5" y="1453.5" width="119" height="49.0001" stroke="#1FC2A7" stroke-width="6.875" stroke-miterlimit="8" fill="none"/><path d="M2020.5 1478.5 2105.9 1478.5" stroke="#1FC2A7" stroke-width="4.58333" stroke-miterlimit="8" fill="none" fill-rule="evenodd"/><path d="M0 0 40.1121 146.43" stroke="#1FC2A7" stroke-width="4.58333" stroke-miterlimit="8" fill="none" fill-rule="evenodd" transform="matrix(1 0 0 -1 2106.5 1477.93)"/><rect x="2528.5" y="1039.5" width="120" height="49.0001" stroke="#1FC2A7" stroke-width="6.875" stroke-miterlimit="8" fill="none"/><path d="M2464 1064 2526.37 1064" stroke="#1FC2A7" stroke-width="2.29167" stroke-miterlimit="8" fill="none" fill-rule="evenodd"/><path d="M0 0 175.851 84.0814" stroke="#1FC2A7" stroke-width="4.58333" stroke-miterlimit="8" fill="none" fill-rule="evenodd" transform="matrix(1 0 0 -1 2288.5 1148.58)"/><path d="M1983.5 1067C1983.5 1050.71 1996.71 1037.5 2013 1037.5L2165 1037.5C2181.29 1037.5 2194.5 1050.71 2194.5 1067L2194.5 1185C2194.5 1201.29 2181.29 1214.5 2165 1214.5L2013 1214.5C1996.71 1214.5 1983.5 1201.29 1983.5 1185Z" stroke="#1FC2A7" stroke-width="6.875" stroke-miterlimit="8" fill="none" fill-rule="evenodd"/><path d="M2106.5 1135.17C2106.5 1118.78 2119.78 1105.5 2136.17 1105.5L2287.83 1105.5C2304.22 1105.5 2317.5 1118.78 2317.5 1135.17L2317.5 1253.83C2317.5 1270.22 2304.22 1283.5 2287.83 1283.5L2136.17 1283.5C2119.78 1283.5 2106.5 1270.22 2106.5 1253.83Z" stroke="#1FC2A7" stroke-width="6.875" stroke-miterlimit="8" fill="none" fill-rule="evenodd"/><path d="M2008.5 1217C2008.5 1200.71 2021.71 1187.5 2038 1187.5L2190 1187.5C2206.29 1187.5 2219.5 1200.71 2219.5 1217L2219.5 1335C2219.5 1351.29 2206.29 1364.5 2190 1364.5L2038 1364.5C2021.71 1364.5 2008.5 1351.29 2008.5 1335Z" stroke="#1FC2A7" stroke-width="6.875" stroke-miterlimit="8" fill="none" fill-rule="evenodd"/><text fill="#1FC2A7" font-family="Arial,Arial_MSFontService,sans-serif" font-weight="400" font-size="147" transform="matrix(1 0 0 1 2347.42 1244)">isa</text><path d="M2570.11 734.141C2557.22 714.58 2557.11 671.169 2570.91 645.204 2584.71 619.24 2610.36 582.72 2681.69 581.822 2706.47 581.51 2742.81 576.504 2766.13 571.618 2789.45 566.732 2811.3 552.193 2821.62 552.505 2831.95 552.817 2829.75 561.161 2828.08 573.49 2826.41 585.819 2818.84 610.711 2811.61 626.479 2804.38 642.248 2784.52 688.128 2769.51 709.075 2754.49 730.021 2741.75 743.243 2721.54 752.159 2701.33 761.076 2673.49 765.575 2648.25 762.572 2623.01 759.569 2583 753.702 2570.11 734.141Z" stroke="#1FC2A7" stroke-width="12.6042" stroke-linecap="round" stroke-miterlimit="8" fill="none" fill-rule="evenodd"/><path d="M2530.5 787.5C2542.63 744.612 2554.76 701.723 2661.5 673.5" stroke="#1FC2A7" stroke-width="12.6042" stroke-linecap="round" stroke-miterlimit="8" fill="none" fill-rule="evenodd"/><text fill="#1FC2A7" font-family="Arial,Arial_MSFontService,sans-serif" font-weight="400" font-size="83" transform="matrix(1 0 0 1 2550.86 879)">assays</text><g clip-path="url(#clip1)"><g clip-path="url(#clip2)"><g clip-path="url(#clip3)"><path d="M130.333 62.3333C130.333 71.7222 122.722 79.3333 113.333 79.3333 103.944 79.3333 96.3333 71.7222 96.3333 62.3333 96.3333 52.9445 103.944 45.3333 113.333 45.3333 122.722 45.3333 130.333 52.9445 130.333 62.3333Z" fill="#1FC2A7" transform="matrix(1 0 0 1 2856 1302)"/><path d="M113.333 19.8333C113.333 24.5277 109.528 28.3333 104.833 28.3333 100.139 28.3333 96.3333 24.5277 96.3333 19.8333 96.3333 15.1389 100.139 11.3333 104.833 11.3333 109.528 11.3333 113.333 15.1389 113.333 19.8333Z" fill="#1FC2A7" transform="matrix(1 0 0 1 2856 1302)"/><path d="M161.5 70.8333C161.5 75.5277 157.694 79.3333 153 79.3333 148.306 79.3333 144.5 75.5277 144.5 70.8333 144.5 66.1389 148.306 62.3333 153 62.3333 157.694 62.3333 161.5 66.1389 161.5 70.8333Z" fill="#1FC2A7" transform="matrix(1 0 0 1 2856 1302)"/><path d="M170 34C170 40.2592 164.926 45.3333 158.667 45.3333 152.407 45.3333 147.333 40.2592 147.333 34 147.333 27.7408 152.407 22.6667 158.667 22.6667 164.926 22.6667 170 27.7408 170 34Z" fill="#1FC2A7" transform="matrix(1 0 0 1 2856 1302)"/><path d="M215.05 92.0833C214.483 89.5333 212.217 87.8333 209.667 87.8333L62.3333 87.8333C59.7833 87.8333 57.5166 89.5333 56.95 92.0833 56.3833 94.6333 57.5166 97.1833 59.7833 98.3166 59.7833 98.3166 68.2833 103.133 68.2833 113.333L68.2833 243.667C68.2833 253.017 75.9333 260.667 85.2833 260.667L187.283 260.667C196.633 260.667 204.283 253.017 204.283 243.667L204.283 113.333C204.283 103.133 212.217 98.6 212.5 98.6 214.483 97.1833 215.9 94.6333 215.05 92.0833ZM175.667 238 141.667 238 141.667 226.667 175.667 226.667 175.667 238ZM175.667 215.333 141.667 215.333 141.667 204 175.667 204 175.667 215.333ZM175.667 192.667 141.667 192.667 141.667 181.333 175.667 181.333 175.667 192.667ZM175.667 170 141.667 170 141.667 158.667 175.667 158.667 175.667 170ZM175.667 147.333 141.667 147.333 141.667 136 175.667 136 175.667 147.333ZM192.667 113.333 192.667 118.717C183.883 115.317 169.717 110.5 155.833 110.5 140.533 110.5 131.183 113.05 121.55 115.6 111.067 118.433 100.017 121.267 79.3333 121.833L79.3333 113.333C79.3333 107.667 77.6333 102.85 75.65 99.1666L196.35 99.1666C194.367 102.85 192.667 107.667 192.667 113.333Z" fill="#1FC2A7" transform="matrix(1 0 0 1 2856 1302)"/></g></g></g><g clip-path="url(#clip4)"><g clip-path="url(#clip5)"><g clip-path="url(#clip6)"><path d="M81.8645 132.677C108.773 132.677 129.854 120.276 129.854 104.448 129.854 88.6198 108.773 76.2187 81.8645 76.2187 54.9565 76.2187 33.875 88.6198 33.875 104.448 33.875 120.276 54.9565 132.677 81.8645 132.677ZM81.8645 87.5104C103.491 87.5104 118.562 96.4364 118.562 104.448 118.562 112.459 103.491 121.385 81.8645 121.385 60.2382 121.385 45.1666 112.459 45.1666 104.448 45.1666 96.4364 60.2382 87.5104 81.8645 87.5104Z" fill="#2D3E50" transform="matrix(1 0 0 1.00369 2806 1460)"/><path d="M107.271 104.448C107.271 110.684 95.896 115.74 81.8645 115.74 67.8331 115.74 56.4583 110.684 56.4583 104.448 56.4583 98.2116 67.8331 93.1562 81.8645 93.1562 95.896 93.1562 107.271 98.2116 107.271 104.448Z" fill="#2D3E50" transform="matrix(1 0 0 1.00369 2806 1460)"/><path d="M253.108 112.318C221.935 98.2798 189.683 98.4859 157.098 112.759 157.748 110.036 158.079 107.247 158.083 104.448 158.083 75.9562 124.606 53.6354 81.8645 53.6354 39.1228 53.6354 5.64583 75.9562 5.64583 104.448L5.64583 162.865C5.64583 193.426 40.5625 217.364 85.1363 217.364 111.954 217.364 139.794 202.654 154.747 194.75 185.96 178.253 216.715 176.607 246.153 189.864L265.354 198.516 265.354 117.834ZM172.198 124.954C175.9 123.646 179.669 122.536 183.49 121.628L183.49 158.083 172.198 158.083ZM31.0521 143.969 33.4459 143.969C36.327 145.525 39.2984 146.909 42.3437 148.113L42.3437 163.729 31.0521 163.729ZM87.5104 155.114C91.3685 154.925 95.1322 154.567 98.802 154.038L98.802 172.198 87.5104 172.198ZM115.74 150.137C119.603 148.892 123.376 147.383 127.031 145.62L127.031 180.667 115.74 180.667ZM143.969 137.84C148.02 136.048 151.67 134.272 154.747 132.646 154.919 132.556 155.088 132.479 155.26 132.389L155.26 152.437 143.969 152.437ZM70.5729 186.312 59.2812 186.312 59.2812 153.073C63.0145 153.814 66.7834 154.365 70.5729 154.724ZM200.427 138.323 200.427 119.104C204.187 118.876 207.958 118.876 211.719 119.104L211.719 138.323ZM81.8645 70.5729C113.998 70.5729 141.146 86.0989 141.146 104.448 141.146 122.797 113.998 138.323 81.8645 138.323 49.7313 138.323 22.5833 122.811 22.5833 104.448 22.5833 86.0848 49.7313 70.5729 81.8645 70.5729ZM248.417 172.418C242.694 170.11 236.799 168.251 230.787 166.86 227.7 160.064 226.015 152.715 225.833 145.253 225.944 137.276 228.291 129.489 232.608 122.78 237.234 124.125 241.762 125.789 246.158 127.759L248.417 128.779Z" fill="#2D3E50" transform="matrix(1 0 0 1.00369 2806 1460)"/></g></g></g><g clip-path="url(#clip7)"><g clip-path="url(#clip8)"><g clip-path="url(#clip9)"><path d="M3110.13 1496.78 2913.78 1693.13 2971.87 1751.22 3167.93 1555.15 3110.13 1496.78ZM3114.1 1584.9 3092 1607 3074.43 1589.43 3066.5 1597.37 3084.07 1614.93 3061.97 1637.03 3044.4 1619.47 3036.47 1627.4 3054.03 1644.97 3031.93 1667.07 3014.37 1649.5 3006.43 1657.43 3024 1675 3001.9 1697.1 2984.33 1679.53 2976.4 1687.47 2993.97 1705.03 2972.15 1726.85 2938.15 1692.85 3110.13 1520.87 3144.13 1554.87 3122.32 1576.68 3104.75 1559.12 3096.53 1567.33 3114.1 1584.9Z" fill="#6B8BAC"/></g></g></g><text fill="#1FC2A7" font-family="Arial,Arial_MSFontService,sans-serif" font-weight="400" font-size="83" transform="matrix(1 0 0 1 2887.54 1847)">factors</text><g clip-path="url(#clip10)"><g clip-path="url(#clip11)"><g clip-path="url(#clip12)"><path d="M198.667 93.125C198.667 120.555 176.43 142.792 149 142.792 121.57 142.792 99.3333 120.555 99.3333 93.125 99.3333 65.6949 121.57 43.4583 149 43.4583 176.43 43.4583 198.667 65.6949 198.667 93.125Z" fill="#1FC2A7" transform="matrix(-1 0 0 1 907 822)"/><path d="M248.333 254.542 248.333 204.875C248.333 197.425 244.608 189.975 238.4 185.008 224.742 173.833 207.358 166.383 189.975 161.417 177.558 157.692 163.9 155.208 149 155.208 135.342 155.208 121.683 157.692 108.025 161.417 90.6417 166.383 73.2583 175.075 59.6 185.008 53.3917 189.975 49.6667 197.425 49.6667 204.875L49.6667 254.542 248.333 254.542Z" fill="#1FC2A7" transform="matrix(-1 0 0 1 907 822)"/></g></g></g><g clip-path="url(#clip13)"><g clip-path="url(#clip14)"><g clip-path="url(#clip15)"><path d="M198.666 93.1249C198.666 120.555 176.43 142.792 149 142.792 121.57 142.792 99.3332 120.555 99.3332 93.1249 99.3332 65.6948 121.57 43.4583 149 43.4583 176.43 43.4583 198.666 65.6948 198.666 93.1249Z" fill="#1FC2A7" transform="matrix(-1 0 0 1 1172 823)"/><path d="M94.9874 253.3 74.4999 207.048 74.4999 175.696C74.4999 171.971 76.6728 168.246 79.777 166.383 81.6395 165.452 82.2603 163.279 81.3291 161.727 80.7082 160.485 79.4666 159.554 77.9145 159.864L42.527 159.864C40.6645 159.864 38.802 161.106 38.802 163.279 38.802 164.831 39.4229 166.073 40.6645 166.694 44.0791 168.556 45.9416 172.281 45.9416 176.006L45.9416 207.358 25.7646 253.3C23.2812 258.577 25.7646 265.096 31.352 267.268 32.5937 267.889 34.1458 268.2 35.6979 268.2L85.3645 268.2C91.2624 268.2 95.9186 263.543 95.9186 257.646 95.9186 256.093 95.6082 254.541 94.9874 253.3L94.9874 253.3ZM53.3916 182.835 53.3916 175.696C53.3916 172.591 52.7708 169.487 50.9083 166.694L69.8437 166.694C68.2916 169.487 67.3603 172.591 67.3603 175.696L67.3603 182.835 53.3916 182.835Z" fill="#1FC2A7" transform="matrix(-1 0 0 1 1172 823)"/><path d="M69.2228 117.027C69.2228 119.941 66.8602 122.304 63.9458 122.304 61.0313 122.304 58.6687 119.941 58.6687 117.027 58.6687 114.113 61.0313 111.75 63.9458 111.75 66.8602 111.75 69.2228 114.113 69.2228 117.027Z" fill="#1FC2A7" transform="matrix(-1 0 0 1 1172 823)"/><path d="M78.2249 133.169C78.2249 136.083 75.8623 138.446 72.9478 138.446 70.0334 138.446 67.6708 136.083 67.6708 133.169 67.6708 130.254 70.0334 127.892 72.9478 127.892 75.8623 127.892 78.2249 130.254 78.2249 133.169Z" fill="#1FC2A7" transform="matrix(-1 0 0 1 1172 823)"/><path d="M58.6687 129.444C58.6687 132.358 56.3061 134.721 53.3916 134.721 50.4771 134.721 48.1145 132.358 48.1145 129.444 48.1145 126.529 50.4771 124.167 53.3916 124.167 56.3061 124.167 58.6687 126.529 58.6687 129.444Z" fill="#1FC2A7" transform="matrix(-1 0 0 1 1172 823)"/><path d="M63.9458 149C63.9458 152.943 60.7493 156.139 56.8062 156.139 52.8631 156.139 49.6666 152.943 49.6666 149 49.6666 145.057 52.8631 141.86 56.8062 141.86 60.7493 141.86 63.9458 145.057 63.9458 149Z" fill="#1FC2A7" transform="matrix(-1 0 0 1 1172 823)"/><path d="M133.479 226.294 111.129 202.702 123.546 187.181 123.546 186.871 104.61 188.733 105.231 162.348C97.7811 164.831 90.3311 167.625 83.1916 171.039 81.9499 172.281 81.0187 174.144 80.7082 176.006L80.7082 205.806 100.575 250.816C101.196 252.058 101.506 253.3 101.817 254.541L133.479 254.541 133.479 226.294Z" fill="#1FC2A7" transform="matrix(-1 0 0 1 1172 823)"/><path d="M139.687 223.5 139.687 254.541 158.312 254.541 158.312 223.5 180.662 158.933C170.108 156.45 159.554 155.208 149 155.208 138.446 155.208 127.892 156.45 117.648 158.933L139.687 223.5Z" fill="#1FC2A7" transform="matrix(-1 0 0 1 1172 823)"/><path d="M238.4 185.008C224.741 174.454 209.221 167.004 192.769 162.348L193.389 188.733 174.454 186.871 174.454 187.181 186.871 202.702 164.521 226.294 164.521 254.541 248.333 254.541 248.333 204.875C248.023 197.114 244.608 189.664 238.4 185.008Z" fill="#1FC2A7" transform="matrix(-1 0 0 1 1172 823)"/></g></g></g><g clip-path="url(#clip16)"><g clip-path="url(#clip17)"><g clip-path="url(#clip18)"><path d="M217.333 101.875C217.333 131.883 193.008 156.208 163 156.208 132.993 156.208 108.667 131.883 108.667 101.875 108.667 71.8676 132.993 47.5417 163 47.5417 193.008 47.5417 217.333 71.8676 217.333 101.875Z" fill="#1FC2A7" transform="matrix(-1.00307 0 0 1 1035 876)"/><path d="M271.667 278.459 271.667 224.125C271.667 215.975 267.592 207.825 260.8 202.392 245.859 190.167 226.842 182.017 207.825 176.583 194.242 172.508 179.3 169.792 163 169.792 148.058 169.792 133.117 172.508 118.175 176.583 99.1584 182.017 80.1417 191.525 65.2001 202.392 58.4084 207.825 54.3334 215.975 54.3334 224.125L54.3334 278.459 271.667 278.459Z" fill="#1FC2A7" transform="matrix(-1.00307 0 0 1 1035 876)"/></g></g></g><text fill="#1FC2A7" font-family="Arial,Arial_MSFontService,sans-serif" font-weight="400" font-size="83" transform="matrix(1 0 0 1 741.547 1247)">persons</text><g clip-path="url(#clip19)"><g clip-path="url(#clip20)"><g clip-path="url(#clip21)"><path d="M2125.97 1873.06 2125.97 1615.94 2220.5 1615.94 2220.5 1695.34 2315.03 1695.34 2315.03 1873.06 2125.97 1873.06ZM2243.19 1625.39 2290.45 1672.66 2243.19 1672.66 2243.19 1625.39ZM2243.19 1593.25 2103.28 1593.25 2103.28 1895.75 2337.72 1895.75 2337.72 1676.44 2243.19 1593.25Z" fill="#1FC2A7"/><path d="M2148.66 1733.16 2292.34 1733.16 2292.34 1748.28 2148.66 1748.28Z" fill="#1FC2A7"/><path d="M2148.66 1702.91 2197.81 1702.91 2197.81 1718.03 2148.66 1718.03Z" fill="#1FC2A7"/><path d="M2148.66 1763.41 2292.34 1763.41 2292.34 1778.53 2148.66 1778.53Z" fill="#1FC2A7"/><path d="M2148.66 1793.66 2292.34 1793.66 2292.34 1808.78 2148.66 1808.78Z" fill="#1FC2A7"/><path d="M2148.66 1823.91 2292.34 1823.91 2292.34 1839.03 2148.66 1839.03Z" fill="#1FC2A7"/></g></g></g><text fill="#1FC2A7" font-family="Arial,Arial_MSFontService,sans-serif" font-weight="400" font-size="83" transform="matrix(1 0 0 1 2001.78 1997)">publications</text><g clip-path="url(#clip22)"><g clip-path="url(#clip23)"><g clip-path="url(#clip24)"><path d="M1809.03 759.844 1809.03 558.562 1734.88 558.562 1734.88 608 1678.38 608 1678.38 565.625 1618.34 565.625 1618.34 544.438 1575.97 544.438 1575.97 759.844 1572.44 759.844 1572.44 784.562 1812.56 784.562 1812.56 759.844ZM1741.94 565.625 1801.97 565.625 1801.97 590.344 1741.94 590.344ZM1741.94 608 1741.94 597.406 1801.97 597.406 1801.97 717.469 1741.94 717.469ZM1801.97 724.531 1801.97 759.844 1741.94 759.844 1741.94 724.531ZM1734.88 615.062 1734.88 759.844 1678.38 759.844 1678.38 615.062ZM1671.31 572.688 1671.31 759.844 1618.34 759.844 1618.34 572.688ZM1583.03 551.5 1611.28 551.5 1611.28 759.844 1583.03 759.844ZM1805.5 777.5 1579.5 777.5 1579.5 766.906 1805.5 766.906Z" stroke="#1FC2A7" stroke-width="3.53136" fill="#1FC2A7"/><path d="M1657.19 586.812 1632.47 586.812 1632.47 611.531 1657.19 611.531ZM1650.13 604.469 1639.53 604.469 1639.53 593.875 1650.13 593.875Z" stroke="#1FC2A7" stroke-width="3.53136" fill="#1FC2A7"/><path d="M1713.69 643.312C1713.69 647.213 1710.53 650.375 1706.63 650.375 1702.72 650.375 1699.56 647.213 1699.56 643.312 1699.56 639.412 1702.72 636.25 1706.63 636.25 1710.53 636.25 1713.69 639.412 1713.69 643.312Z" stroke="#1FC2A7" stroke-width="3.53136" fill="#1FC2A7"/><path d="M1713.69 724.531C1713.69 728.432 1710.53 731.594 1706.63 731.594 1702.72 731.594 1699.56 728.432 1699.56 724.531 1699.56 720.631 1702.72 717.469 1706.63 717.469 1710.53 717.469 1713.69 720.631 1713.69 724.531Z" stroke="#1FC2A7" stroke-width="3.53136" fill="#1FC2A7"/></g></g></g><text fill="#1FC2A7" font-family="Arial,Arial_MSFontService,sans-serif" font-weight="400" font-size="83" transform="matrix(1 0 0 1 1587.49 880)">studie<tspan font-size="83" x="89.375" y="99">s</tspan></text><g clip-path="url(#clip25)"><g clip-path="url(#clip26)"><g clip-path="url(#clip27)"><path d="M3291.97 865.937 3481.03 865.937 3481.03 1123.06 3291.97 1123.06 3291.97 865.937ZM3269.28 1145.75 3503.72 1145.75 3503.72 843.25 3269.28 843.25 3269.28 1145.75Z" fill="#1FC2A7"/><path d="M3394.06 899.969 3458.34 899.969 3458.34 915.094 3394.06 915.094Z" fill="#1FC2A7"/><path d="M3394.06 960.469 3458.34 960.469 3458.34 975.594 3394.06 975.594Z" fill="#1FC2A7"/><path d="M3394.06 1081.47 3458.34 1081.47 3458.34 1096.59 3394.06 1096.59Z" fill="#1FC2A7"/><path d="M3394.06 1020.97 3458.34 1020.97 3458.34 1036.09 3394.06 1036.09Z" fill="#1FC2A7"/><path d="M3370.62 891.65 3360.03 881.062 3335.08 906.019 3325.24 896.187 3314.66 906.775 3335.08 927.194Z" fill="#1FC2A7"/><path d="M3370.62 952.15 3360.03 941.562 3335.08 966.519 3325.24 956.687 3314.66 967.275 3335.08 987.694Z" fill="#1FC2A7"/><path d="M3370.62 1012.65 3360.03 1002.06 3335.08 1027.02 3325.24 1017.19 3314.66 1027.77 3335.08 1048.19Z" fill="#1FC2A7"/><path d="M3370.62 1072.39 3360.03 1061.81 3335.08 1086.76 3325.24 1076.93 3314.66 1087.52 3335.08 1107.94Z" fill="#1FC2A7"/></g></g></g><text fill="#1FC2A7" font-family="Arial,Arial_MSFontService,sans-serif" font-weight="400" font-size="83" transform="matrix(1 0 0 1 3217.2 1243)">protocols</text><g clip-path="url(#clip28)"><g clip-path="url(#clip29)"><g clip-path="url(#clip30)"><path d="M139.955 144.146 148.56 144.146 148.56 138.901C188.264 150.947 206.991 179.573 205.541 225.834L195.883 225.834 195.883 258.125 228.178 258.125 228.178 225.834 218.434 225.834C219.664 183.673 205.433 153.843 175.964 136.703L239.11 148.319C240.101 154.566 245.484 159.169 251.81 159.177 251.904 159.177 251.99 159.151 252.081 159.151L251.81 217.255C251.81 218.443 252.773 219.406 253.961 219.406 254.638 219.406 255.275 219.088 255.682 218.546L275.514 193.628 307.41 193.022C308.598 193.022 309.561 192.058 309.561 190.871 309.561 190.193 309.242 189.556 308.7 189.15L262.13 153.95C266.41 148.28 265.282 140.214 259.612 135.934 253.941 131.655 245.875 132.782 241.595 138.453 241.259 138.899 240.952 139.366 240.676 139.852L148.56 122.919 148.56 111.854 116.268 111.854 116.268 144.146 139.955 144.146ZM219.574 249.521 204.487 249.521 204.487 234.438 219.574 234.438ZM124.872 120.458 139.955 120.458 139.955 135.542 124.872 135.542Z" fill="#1FC2A7" transform="matrix(1.00242 0 0 1 1216 1393)"/><path d="M361.375 64.5313 51.625 64.5313C42.1329 64.5597 34.445 72.2475 34.4167 81.7396L34.4167 288.24C34.445 297.732 42.1329 305.42 51.625 305.448L172.083 305.448 172.083 331.261 129.063 331.261 129.063 357.073 283.938 357.073 283.938 331.261 240.917 331.261 240.917 305.448 361.375 305.448C370.867 305.42 378.555 297.732 378.584 288.24L378.584 81.7396C378.555 72.2475 370.867 64.5597 361.375 64.5313ZM352.771 279.636 60.2292 279.636 60.2292 90.3438 352.771 90.3438Z" fill="#1FC2A7" transform="matrix(1.00242 0 0 1 1216 1393)"/></g></g></g><text fill="#1FC2A7" font-family="Arial,Arial_MSFontService,sans-serif" font-weight="400" font-size="83" transform="matrix(1 0 0 1 1303.12 1847)">design<tspan font-size="83" x="100.833" y="99">s</tspan></text></g></svg>