<?xml version="1.0" encoding="UTF-8" standalone="no"?>
<svg
   xmlns:dc="http://purl.org/dc/elements/1.1/"
   xmlns:cc="http://creativecommons.org/ns#"
   xmlns:rdf="http://www.w3.org/1999/02/22-rdf-syntax-ns#"
   xmlns:svg="http://www.w3.org/2000/svg"
   xmlns="http://www.w3.org/2000/svg"
   xmlns:sodipodi="http://sodipodi.sourceforge.net/DTD/sodipodi-0.dtd"
   xmlns:inkscape="http://www.inkscape.org/namespaces/inkscape"
   width="629.81366mm"
   height="227.10217mm"
   viewBox="0 0 629.81366 227.10217"
   version="1.1"
   id="svg8"
   inkscape:version="1.0.1 (3bc2e813f5, 2020-09-07)"
   sodipodi:docname="FDOs.svg">
  <defs
     id="defs2">
    <clipPath
       id="clip0">
      <rect
         x="68"
         y="443"
         width="2436"
         height="932"
         id="rect10" />
    </clipPath>
    <clipPath
       id="clip1">
      <rect
         x="769"
         y="478"
         width="153"
         height="152"
         id="rect13" />
    </clipPath>
    <clipPath
       id="clip2">
      <rect
         x="769"
         y="478"
         width="153"
         height="152"
         id="rect16" />
    </clipPath>
    <clipPath
       id="clip3">
      <rect
         x="769"
         y="478"
         width="153"
         height="152"
         id="rect19" />
    </clipPath>
    <clipPath
       id="clip4">
      <rect
         x="769"
         y="729"
         width="151"
         height="151"
         id="rect22" />
    </clipPath>
    <clipPath
       id="clip5">
      <rect
         x="769"
         y="729"
         width="151"
         height="151"
         id="rect25" />
    </clipPath>
    <clipPath
       id="clip6">
      <rect
         x="769"
         y="729"
         width="151"
         height="151"
         id="rect28" />
    </clipPath>
    <clipPath
       id="clip7">
      <rect
         x="769"
         y="975"
         width="151"
         height="151"
         id="rect31" />
    </clipPath>
    <clipPath
       id="clip8">
      <rect
         x="769"
         y="975"
         width="151"
         height="151"
         id="rect34" />
    </clipPath>
    <clipPath
       id="clip9">
      <rect
         x="769"
         y="975"
         width="151"
         height="151"
         id="rect37" />
    </clipPath>
    <clipPath
       id="clip10">
      <rect
         x="773"
         y="1198"
         width="151"
         height="152"
         id="rect40" />
    </clipPath>
    <clipPath
       id="clip11">
      <rect
         x="773"
         y="1198"
         width="151"
         height="152"
         id="rect43" />
    </clipPath>
    <clipPath
       id="clip12">
      <rect
         x="773"
         y="1198"
         width="151"
         height="152"
         id="rect46" />
    </clipPath>
  </defs>
  <sodipodi:namedview
     id="base"
     pagecolor="#ffffff"
     bordercolor="#666666"
     borderopacity="1.0"
     inkscape:pageopacity="0.0"
     inkscape:pageshadow="2"
     inkscape:zoom="0.35"
     inkscape:cx="1013.0562"
     inkscape:cy="272.0266"
     inkscape:document-units="mm"
     inkscape:current-layer="layer1"
     inkscape:document-rotation="0"
     showgrid="false"
     inkscape:window-width="1254"
     inkscape:window-height="960"
     inkscape:window-x="220"
     inkscape:window-y="0"
     inkscape:window-maximized="0" />
  <metadata
     id="metadata5">
    <rdf:RDF>
      <cc:Work
         rdf:about="">
        <dc:format>image/svg+xml</dc:format>
        <dc:type
           rdf:resource="http://purl.org/dc/dcmitype/StillImage" />
        <dc:title></dc:title>
      </cc:Work>
    </rdf:RDF>
  </metadata>
  <g
     inkscape:label="Ebene 1"
     inkscape:groupmode="layer"
     id="layer1"
     transform="translate(162.20445,-76.192963)">
    <g
       clip-path="url(#clip0)"
       transform="matrix(0.26458333,0,0,0.26458333,-180.24024,-50.828467)"
       id="g201">
      <path
         d="m 1008.18,482.081 h 27.28 c 0.22,0 0.43,0.063 0.63,0.188 0.21,0.125 0.39,0.328 0.54,0.609 0.16,0.281 0.27,0.648 0.33,1.102 0.06,0.453 0.09,0.976 0.09,1.57 0,0.594 -0.03,1.109 -0.09,1.547 -0.06,0.437 -0.17,0.789 -0.33,1.054 -0.15,0.266 -0.33,0.461 -0.54,0.586 -0.2,0.125 -0.41,0.188 -0.63,0.188 h -22.22 v 20.625 h 21 c 0.22,0 0.43,0.055 0.63,0.164 0.21,0.109 0.39,0.289 0.54,0.539 0.16,0.25 0.27,0.586 0.33,1.008 0.06,0.422 0.09,0.961 0.09,1.617 0,0.594 -0.03,1.102 -0.09,1.523 -0.06,0.422 -0.17,0.766 -0.33,1.032 -0.15,0.265 -0.33,0.468 -0.54,0.609 -0.2,0.141 -0.41,0.211 -0.63,0.211 h -21 v 25.266 c 0,0.218 -0.06,0.429 -0.19,0.632 -0.12,0.204 -0.34,0.36 -0.65,0.469 -0.32,0.11 -0.72,0.203 -1.22,0.281 -0.5,0.079 -1.16,0.118 -1.97,0.118 -0.75,0 -1.39,-0.039 -1.92,-0.118 -0.53,-0.078 -0.96,-0.171 -1.27,-0.281 -0.31,-0.109 -0.53,-0.265 -0.65,-0.469 -0.13,-0.203 -0.19,-0.414 -0.19,-0.632 v -56.157 c 0,-1.218 0.32,-2.07 0.96,-2.554 0.64,-0.485 1.32,-0.727 2.04,-0.727 z"
         stroke="#2d3e50"
         stroke-width="4"
         stroke-linejoin="round"
         stroke-miterlimit="10"
         fill="#ffffff"
         fill-rule="evenodd"
         id="path51" />
      <text
         fill="#000000"
         fill-opacity="0"
         font-family="Arial, Arial_MSFontService, sans-serif"
         font-size="60.9375px"
         x="1005.18"
         y="535.401"
         id="text53">F</text>
      <text
         fill="#ffffff"
         font-family="Calibri, Calibri_MSFontService, sans-serif"
         font-weight="400"
         font-size="51px"
         transform="translate(1041.12,543)"
         id="text65">INDABLE<tspan
   font-size="64px"
   x="181.25301"
   y="0"
   id="tspan55">:</tspan><tspan
   font-size="53px"
   x="212.58701"
   y="0"
   id="tspan57">ARCs receive a DOI conferring uniqueness. Additionally,</tspan><tspan
   font-size="53px"
   x="-43.999901"
   y="75"
   id="tspan59">ARCs are completely machine</tspan><tspan
   font-size="53px"
   x="597.20001"
   y="75"
   id="tspan61">-</tspan><tspan
   font-size="53px"
   x="613.53302"
   y="75"
   id="tspan63">readable.</tspan></text>
      <path
         d="m 1024.44,701.144 -10.45,30.234 h 21.09 l -10.59,-30.234 z m 0.29,-8.344 c 1,0 1.82,0.023 2.48,0.07 0.66,0.047 1.19,0.133 1.59,0.258 0.41,0.125 0.72,0.305 0.94,0.539 0.22,0.234 0.39,0.524 0.52,0.867 l 20.34,56.344 c 0.25,0.688 0.38,1.242 0.4,1.664 0.01,0.422 -0.1,0.742 -0.35,0.961 -0.25,0.219 -0.67,0.359 -1.24,0.422 -0.58,0.062 -1.36,0.094 -2.33,0.094 -0.96,0 -1.74,-0.024 -2.32,-0.071 -0.57,-0.047 -1.01,-0.125 -1.31,-0.234 -0.29,-0.109 -0.51,-0.258 -0.65,-0.445 -0.14,-0.188 -0.28,-0.422 -0.4,-0.703 l -5.21,-14.766 h -25.21 l -4.97,14.578 c -0.1,0.281 -0.22,0.523 -0.38,0.727 -0.15,0.203 -0.38,0.375 -0.68,0.515 -0.29,0.141 -0.72,0.242 -1.26,0.305 -0.55,0.062 -1.26,0.094 -2.14,0.094 -0.9,0 -1.64,-0.039 -2.22,-0.118 -0.581,-0.078 -0.987,-0.226 -1.222,-0.445 -0.234,-0.219 -0.344,-0.539 -0.328,-0.961 0.016,-0.422 0.149,-0.976 0.399,-1.664 l 20.341,-56.344 c 0.13,-0.343 0.29,-0.625 0.49,-0.843 0.21,-0.219 0.5,-0.391 0.9,-0.516 0.39,-0.125 0.89,-0.211 1.5,-0.258 0.6,-0.047 1.38,-0.07 2.32,-0.07 z"
         stroke="#2d3e50"
         stroke-width="4"
         stroke-linejoin="round"
         stroke-miterlimit="10"
         fill="#ffffff"
         fill-rule="evenodd"
         id="path67" />
      <text
         fill="#000000"
         fill-opacity="0"
         font-family="Arial, Arial_MSFontService, sans-serif"
         font-size="61.2188px"
         x="998.77899"
         y="746.36603"
         id="text69">A</text>
      <text
         fill="#ffffff"
         font-family="Calibri, Calibri_MSFontService, sans-serif"
         font-weight="400"
         font-size="51px"
         transform="translate(1052.78,754)"
         id="text85">CCESSIBLE<tspan
   font-size="64px"
   x="214.16"
   y="0"
   id="tspan71">:</tspan><tspan
   font-size="53px"
   x="245.493"
   y="0"
   id="tspan73">ARCs are retrievable by their identifier using</tspan><tspan
   font-size="53px"
   x="-55.666698"
   y="85"
   id="tspan75">standardized protocols.</tspan><tspan
   font-size="53px"
   x="464.66699"
   y="85"
   id="tspan77">ARC</tspan><tspan
   font-size="43px"
   x="552.53302"
   y="85"
   id="tspan79">S</tspan><tspan
   font-size="53px"
   x="584.20001"
   y="85"
   id="tspan81">and datasets will be stored on Gitlab</tspan><tspan
   font-size="53px"
   x="-55.666698"
   y="152"
   id="tspan83">using Git LFS.</tspan></text>
      <path
         d="m 1009.21,980.8 c 0.78,0 1.43,0.039 1.95,0.117 0.51,0.078 0.92,0.172 1.24,0.281 0.31,0.11 0.53,0.258 0.65,0.446 0.13,0.187 0.19,0.406 0.19,0.656 v 58.22 c 0,0.25 -0.06,0.47 -0.19,0.65 -0.12,0.19 -0.34,0.34 -0.65,0.45 -0.32,0.11 -0.73,0.2 -1.24,0.28 -0.52,0.08 -1.17,0.12 -1.95,0.12 -0.75,0 -1.39,-0.04 -1.92,-0.12 -0.53,-0.08 -0.96,-0.17 -1.27,-0.28 -0.31,-0.11 -0.53,-0.26 -0.65,-0.45 -0.13,-0.18 -0.19,-0.4 -0.19,-0.65 V 982.3 c 0,-0.25 0.07,-0.469 0.21,-0.656 0.14,-0.188 0.37,-0.336 0.7,-0.446 0.33,-0.109 0.75,-0.203 1.27,-0.281 0.51,-0.078 1.13,-0.117 1.85,-0.117 z"
         stroke="#2d3e50"
         stroke-width="4"
         stroke-linejoin="round"
         stroke-miterlimit="10"
         fill="#ffffff"
         fill-rule="evenodd"
         id="path87" />
      <text
         fill="#000000"
         fill-opacity="0"
         font-family="Arial, Arial_MSFontService, sans-serif"
         font-size="61.2188px"
         x="1005.18"
         y="1034.37"
         id="text89">I</text>
      <text
         fill="#ffffff"
         font-family="Calibri, Calibri_MSFontService, sans-serif"
         font-weight="400"
         font-size="51px"
         transform="translate(1021.45,1042)"
         id="text107">NTEROPERABLE<tspan
   font-size="64px"
   x="327.49301"
   y="0"
   id="tspan91">:</tspan><tspan
   font-size="53px"
   x="358.827"
   y="0"
   id="tspan93">ARCs rely on well</tspan><tspan
   font-size="53px"
   x="729.52002"
   y="0"
   id="tspan95">-</tspan><tspan
   font-size="53px"
   x="745.85303"
   y="0"
   id="tspan97">established standards like the</tspan><tspan
   font-size="53px"
   x="-24.3333"
   y="75"
   id="tspan99">ISA Model</tspan><tspan
   font-size="53px"
   x="208.94701"
   y="75"
   id="tspan101">and</tspan><tspan
   font-size="53px"
   x="302.61301"
   y="75"
   id="tspan103">CWL</tspan><tspan
   font-size="53px"
   x="400.61301"
   y="75"
   id="tspan105">.</tspan></text>
      <path
         d="m 997.116,1122.74 h 221.004 v 3 H 997.116 Z"
         fill="#ffffff"
         fill-rule="evenodd"
         id="path109" />
      <path
         d="m 1324.12,1122.74 h 98 v 3 h -98 z"
         fill="#ffffff"
         fill-rule="evenodd"
         id="path111" />
      <path
         d="m 1013.24,1198.74 v 20.43 h 7.88 c 2.12,0 3.96,-0.25 5.5,-0.77 1.55,-0.51 2.84,-1.23 3.87,-2.15 1.03,-0.93 1.79,-2.01 2.27,-3.26 0.49,-1.25 0.73,-2.61 0.73,-4.08 0,-2.38 -0.53,-4.38 -1.59,-6.02 -1.07,-1.64 -2.85,-2.82 -5.35,-3.54 -0.78,-0.22 -1.66,-0.38 -2.64,-0.47 -0.99,-0.1 -2.28,-0.14 -3.87,-0.14 z m -5.06,-6.66 h 12.89 c 1.53,0 2.8,0.04 3.82,0.12 1.02,0.08 1.93,0.16 2.74,0.26 2.35,0.4 4.42,1.04 6.21,1.92 1.8,0.87 3.31,1.98 4.53,3.33 1.21,1.34 2.13,2.88 2.74,4.61 0.61,1.74 0.91,3.65 0.91,5.75 0,2.03 -0.27,3.85 -0.82,5.46 -0.54,1.61 -1.33,3.03 -2.37,4.26 -1.03,1.24 -2.26,2.31 -3.7,3.21 -1.44,0.91 -3.05,1.67 -4.83,2.3 1,0.44 1.91,0.99 2.72,1.66 0.81,0.68 1.57,1.48 2.28,2.42 0.7,0.94 1.36,2.01 1.99,3.23 0.62,1.22 1.25,2.6 1.87,4.13 l 5.44,13.36 c 0.44,1.12 0.72,1.91 0.84,2.36 0.13,0.46 0.19,0.81 0.19,1.06 0,0.25 -0.05,0.47 -0.14,0.65 -0.09,0.19 -0.3,0.35 -0.61,0.47 -0.31,0.13 -0.75,0.22 -1.31,0.28 -0.56,0.07 -1.31,0.1 -2.25,0.1 -0.81,0 -1.48,-0.03 -1.99,-0.1 -0.52,-0.06 -0.93,-0.16 -1.25,-0.3 -0.31,-0.14 -0.55,-0.34 -0.72,-0.59 -0.17,-0.25 -0.32,-0.56 -0.45,-0.93 l -5.58,-14.3 c -0.65,-1.63 -1.33,-3.12 -2.03,-4.48 -0.71,-1.36 -1.54,-2.53 -2.51,-3.51 -0.97,-0.99 -2.11,-1.75 -3.42,-2.3 -1.32,-0.55 -2.89,-0.82 -4.74,-0.82 h -5.39 v 25.83 c 0,0.25 -0.07,0.47 -0.21,0.65 -0.14,0.19 -0.36,0.34 -0.66,0.45 -0.29,0.11 -0.7,0.2 -1.21,0.28 -0.52,0.08 -1.17,0.12 -1.95,0.12 -0.78,0 -1.43,-0.04 -1.95,-0.12 -0.51,-0.08 -0.93,-0.17 -1.24,-0.28 -0.31,-0.11 -0.53,-0.26 -0.65,-0.45 -0.13,-0.18 -0.19,-0.4 -0.19,-0.65 v -56.16 c 0,-1.22 0.32,-2.07 0.96,-2.55 0.64,-0.49 1.32,-0.73 2.04,-0.73 z"
         stroke="#2d3e50"
         stroke-width="4"
         stroke-linejoin="round"
         stroke-miterlimit="10"
         fill="#ffffff"
         fill-rule="evenodd"
         id="path113" />
      <text
         fill="#000000"
         fill-opacity="0"
         font-family="Arial, Arial_MSFontService, sans-serif"
         font-size="60.9375px"
         x="1005.18"
         y="1245.4"
         id="text115">R</text>
      <text
         fill="#ffffff"
         font-family="Calibri, Calibri_MSFontService, sans-serif"
         font-weight="400"
         font-size="51px"
         transform="translate(1049.12,1253)"
         id="text123">EUSABLE<tspan
   font-size="64px"
   x="185.627"
   y="0"
   id="tspan117">:</tspan><tspan
   font-size="53px"
   x="216.96001"
   y="0"
   id="tspan119">ARCs comprise complete metadata, including workflow</tspan><tspan
   font-size="53px"
   x="-51.999901"
   y="76"
   id="tspan121">and run descriptions for accurate reusability.</tspan></text>
      <rect
         x="409.5"
         y="1073.5"
         width="64.999901"
         height="132"
         stroke="#ffffff"
         stroke-width="2.66667"
         stroke-miterlimit="8"
         fill="none"
         id="rect125" />
      <rect
         x="487.5"
         y="1038.5"
         width="64.999901"
         height="167"
         stroke="#ffffff"
         stroke-width="2.66667"
         stroke-miterlimit="8"
         fill="none"
         id="rect127" />
      <rect
         x="565.5"
         y="1004.5"
         width="64.999901"
         height="201"
         stroke="#ffffff"
         stroke-width="2.66667"
         stroke-miterlimit="8"
         fill="none"
         id="rect129" />
      <path
         d="m 380.92,1136.91 c -106.874,2.76 -195,-80.63 -196.835,-186.267 -1.836,-105.632 83.314,-193.502 190.188,-196.262 106.874,-2.76 195,80.634 196.836,186.266 0.093,5.395 -0.044,10.793 -0.412,16.18"
         stroke="#ffffff"
         stroke-width="16"
         stroke-linecap="round"
         stroke-miterlimit="8"
         fill="none"
         fill-rule="evenodd"
         id="path131" />
      <path
         d="M 0,0 38.6946,42.1447"
         stroke="#ffffff"
         stroke-width="16"
         stroke-linecap="round"
         stroke-miterlimit="8"
         fill="none"
         fill-rule="evenodd"
         transform="matrix(1,0,0,-1,568,966.145)"
         id="path133" />
      <path
         d="M 0,0 38.135,42.763"
         stroke="#ffffff"
         stroke-width="16"
         stroke-linecap="round"
         stroke-miterlimit="8"
         fill="none"
         fill-rule="evenodd"
         transform="matrix(0,-1,-1,0,567.763,966.135)"
         id="path135" />
      <path
         d="m 295.501,989.459 c -8.721,-15.019 -8.793,-48.348 0.545,-68.283 9.337,-19.935 26.685,-47.974 74.951,-48.663 16.766,-0.24 41.35,-4.083 57.129,-7.834 15.779,-3.752 30.561,-14.915 37.546,-14.675 6.985,0.239 5.494,6.645 4.365,16.111 -1.129,9.466 -6.246,28.578 -11.139,40.684 -4.894,12.107 -18.331,47.333 -28.488,63.415 -10.157,16.082 -18.781,26.233 -32.454,33.076 -13.674,6.85 -32.511,10.3 -49.587,8 -17.075,-2.31 -44.148,-6.81 -52.868,-21.831 z"
         stroke="#ffffff"
         stroke-width="16"
         stroke-linecap="round"
         stroke-miterlimit="8"
         fill="none"
         fill-rule="evenodd"
         id="path137" />
      <path
         d="m 277,1037 c 8.241,-34.99 16.482,-69.976 89,-93"
         stroke="#ffffff"
         stroke-width="16"
         stroke-linecap="round"
         stroke-miterlimit="8"
         fill="none"
         fill-rule="evenodd"
         id="path139" />
      <rect
         x="69.500099"
         y="726.5"
         width="90"
         height="40"
         stroke="#ffffff"
         stroke-width="2.66667"
         stroke-miterlimit="8"
         fill="none"
         id="rect141" />
      <path
         d="m 159.5,746.5 h 71.384"
         stroke="#ffffff"
         stroke-width="1.33333"
         stroke-miterlimit="8"
         fill="none"
         fill-rule="evenodd"
         id="path143" />
      <path
         d="m 230.5,746.5 30.16,120.861"
         stroke="#ffffff"
         stroke-width="1.33333"
         stroke-miterlimit="8"
         fill="none"
         fill-rule="evenodd"
         id="path145" />
      <rect
         x="135.5"
         y="1131.5"
         width="90"
         height="40"
         stroke="#ffffff"
         stroke-width="2.66667"
         stroke-miterlimit="8"
         fill="none"
         id="rect147" />
      <path
         d="m 225.5,1151.5 h 64.21"
         stroke="#ffffff"
         stroke-width="1.33333"
         stroke-miterlimit="8"
         fill="none"
         fill-rule="evenodd"
         id="path149" />
      <path
         d="M 0,0 30.16,120.861"
         stroke="#ffffff"
         stroke-width="1.33333"
         stroke-miterlimit="8"
         fill="none"
         fill-rule="evenodd"
         transform="matrix(1,0,0,-1,289.5,1151.36)"
         id="path151" />
      <rect
         x="616.5"
         y="803.5"
         width="90"
         height="40"
         stroke="#ffffff"
         stroke-width="2.66667"
         stroke-miterlimit="8"
         fill="none"
         id="rect153" />
      <path
         d="m 568.5,823.5 h 46.9"
         stroke="#ffffff"
         stroke-width="1.33333"
         stroke-miterlimit="8"
         fill="none"
         fill-rule="evenodd"
         id="path155" />
      <path
         d="M 0,0 132.223,69.3995"
         stroke="#ffffff"
         stroke-width="1.33333"
         stroke-miterlimit="8"
         fill="none"
         fill-rule="evenodd"
         transform="matrix(1,0,0,-1,435.5,892.9)"
         id="path157" />
      <path
         d="m 603.06,589.112 c 8.883,0 17.856,2.433 25.783,7.465 10.682,7.35 17.271,18.066 19.314,29.588 2.042,11.523 -0.461,23.851 -7.966,34.425 L 573.187,755 c -9.112,12.84 -23.371,19.329 -38.114,19.302 l -9.963,14.037 -4.77,-4.275 c -6.363,-5.175 -12.984,-10.053 -19.842,-14.613 l -17.958,-10.734 9.804,-13.814 c -5.095,-13.622 -3.808,-29.037 5.305,-41.876 l 67.004,-94.41 c 9.046,-12.746 23.602,-19.504 38.407,-19.505 z"
         stroke="#ffffff"
         stroke-width="16"
         stroke-linecap="round"
         stroke-miterlimit="8"
         fill="none"
         fill-rule="evenodd"
         id="path159" />
      <g
         clip-path="url(#clip1)"
         id="g167">
        <g
           clip-path="url(#clip2)"
           id="g165">
          <g
             clip-path="url(#clip3)"
             id="g163">
            <path
               d="M 135.375,119.7 115.583,99.9083 C 112.892,97.2167 109.25,96.2667 105.767,96.9 L 98.8,89.9333 c 6.175,-7.9166 9.817,-18.05 9.817,-28.8166 0,-26.125 -21.3753,-47.5 -47.5003,-47.5 -26.125,0 -47.5,21.375 -47.5,47.5 0,26.125 21.375,47.5003 47.5,47.5003 10.7666,0 20.7416,-3.642 28.8166,-9.817 l 6.9667,6.967 c -0.6333,3.483 0.3167,7.125 3.0083,9.816 L 119.7,135.375 c 2.217,2.217 5.067,3.325 7.917,3.325 2.85,0 5.7,-1.108 7.916,-3.325 4.117,-4.433 4.117,-11.4 -0.158,-15.675 z M 60.9583,98.9583 c -20.9,0 -38,-17.1 -38,-38 0,-20.9 17.1,-38 38,-38 20.9,0 38,17.1 38,38 0,20.9 -17.1,38 -38,38 z"
               fill="#ffffff"
               transform="matrix(-1,0,0,1,921,478)"
               id="path161" />
          </g>
        </g>
      </g>
      <g
         clip-path="url(#clip4)"
         id="g177">
        <g
           clip-path="url(#clip5)"
           id="g175">
          <g
             clip-path="url(#clip6)"
             id="g173">
            <path
               d="m 819.333,779.156 v -19.448 c 0,-6.536 5.299,-11.834 11.835,-11.834 6.536,0 11.835,5.298 11.835,11.834 v 19.399 c 10.754,-6.558 14.155,-20.593 7.597,-31.347 -6.558,-10.754 -20.593,-14.155 -31.347,-7.597 -10.754,6.558 -14.155,20.593 -7.597,31.347 1.908,3.128 4.541,5.751 7.677,7.646 z"
               fill="#ffffff"
               id="path169" />
            <path
               d="m 824.052,759.71 v 67.149 h -0.017 l -5.839,-26.291 c -0.9,-3.826 -4.73,-6.198 -8.556,-5.298 -3.758,0.884 -6.126,4.604 -5.336,8.384 l 8.54,38.425 c 0.363,1.626 1.286,3.074 2.607,4.089 l 15.73,12.096 v 10.726 h 41.263 v -7.116 c 0,-10.081 11.385,-10.853 11.385,-29.886 v -25.616 c 0.005,-4.71 -3.809,-8.532 -8.519,-8.537 -2.128,-0.002 -4.179,0.791 -5.752,2.223 0.024,-0.264 0.04,-0.53 0.04,-0.8 0.003,-4.713 -3.816,-8.536 -8.528,-8.539 -2.207,-0.001 -4.329,0.852 -5.92,2.382 -1.037,-4.598 -5.605,-7.484 -10.203,-6.447 -3.896,0.879 -6.661,4.341 -6.657,8.335 V 759.71 c 0,-3.93 -3.186,-7.116 -7.116,-7.116 -3.93,0 -7.116,3.186 -7.116,7.116 z"
               fill="#ffffff"
               id="path171" />
          </g>
        </g>
      </g>
      <g
         clip-path="url(#clip7)"
         id="g187">
        <g
           clip-path="url(#clip8)"
           id="g185">
          <g
             clip-path="url(#clip9)"
             id="g183">
            <path
               d="m 862.274,1033.67 c -6.606,0 -11.797,-5.35 -11.797,-11.8 0,-6.45 5.348,-11.79 11.797,-11.79 6.606,0 11.797,5.34 11.797,11.79 0,6.45 -5.348,11.8 -11.797,11.8 z m 26.582,-19.19 c -0.629,-2.2 -1.415,-4.25 -2.516,-6.13 l 2.516,-7.4 -5.662,-5.659 -7.393,2.516 c -1.887,-1.101 -3.932,-1.887 -6.134,-2.516 l -3.461,-6.921 h -7.864 l -3.461,6.921 c -2.202,0.629 -4.247,1.415 -6.134,2.516 l -7.393,-2.516 -5.662,5.659 2.516,7.4 c -1.101,1.88 -1.887,3.93 -2.516,6.13 l -6.921,3.46 v 7.87 l 6.921,3.46 c 0.629,2.2 1.415,4.24 2.516,6.13 l -2.516,7.39 5.505,5.51 7.393,-2.52 c 1.887,1.1 3.932,1.89 6.134,2.52 l 3.46,6.92 h 7.865 l 3.46,-6.92 c 2.202,-0.63 4.247,-1.42 6.135,-2.52 l 7.392,2.52 5.663,-5.51 -2.517,-7.39 c 1.101,-1.89 2.045,-4.09 2.674,-6.13 l 6.921,-3.46 v -7.87 z"
               fill="#ffffff"
               id="path179" />
            <path
               d="m 826.726,1090.92 c -6.606,0 -11.797,-5.34 -11.797,-11.79 0,-6.61 5.348,-11.8 11.797,-11.8 6.606,0 11.797,5.35 11.797,11.8 0,6.45 -5.191,11.79 -11.797,11.79 z m 24.066,-25.32 2.516,-7.39 -5.662,-5.67 -7.393,2.52 c -1.887,-1.1 -4.089,-1.89 -6.134,-2.52 l -3.461,-6.92 h -7.864 l -3.461,6.92 c -2.202,0.63 -4.246,1.42 -6.134,2.52 l -7.393,-2.52 -5.505,5.51 2.36,7.39 c -1.102,1.89 -1.888,4.09 -2.517,6.14 l -6.921,3.46 v 7.86 l 6.921,3.46 c 0.629,2.2 1.415,4.25 2.517,6.14 l -2.36,7.39 5.505,5.5 7.393,-2.35 c 1.888,1.1 3.932,1.88 6.134,2.51 l 3.461,6.92 h 7.864 l 3.461,-6.92 c 2.202,-0.63 4.247,-1.41 6.134,-2.51 l 7.393,2.51 5.505,-5.66 -2.359,-7.24 c 1.101,-1.88 1.887,-3.93 2.516,-6.13 l 6.921,-3.46 v -7.87 l -6.921,-3.46 c -0.629,-2.2 -1.415,-4.24 -2.516,-6.13 z"
               fill="#ffffff"
               id="path181" />
          </g>
        </g>
      </g>
      <g
         clip-path="url(#clip10)"
         id="g199">
        <g
           clip-path="url(#clip11)"
           id="g197">
          <g
             clip-path="url(#clip12)"
             id="g195">
            <path
               d="m 23.8611,110.78 c 1.1868,2.288 3.4579,3.812 6.0243,4.043 h 28.3125 v 12.583 H 29.8854 C 22.7132,127.276 16.1521,123.339 12.662,117.072 9.31849,111.023 9.60933,103.619 13.417,97.8511 L 29.7753,69.5386 18.9851,63.2469 45.3157,56.2003 52.3624,82.5309 40.8958,75.9404 24.4746,104.41 c -1.4015,1.833 -1.6393,4.304 -0.6135,6.37 z"
               fill="#ffffff"
               transform="translate(773,1198)"
               id="path189" />
            <path
               d="M 46.1179,45.8348 59.2832,21.2501 c 3.4535,-6.2132 10.0206,-10.0486 17.129,-10.0038 6.9113,0.1418 13.1743,4.1031 16.264,10.2869 l 16.3588,28.3125 10.79,-6.2917 -7.047,26.4093 -26.2676,-7.0467 11.4508,-6.622 -16.4999,-28.4855 c -0.8961,-2.1273 -2.9184,-3.565 -5.2221,-3.712 -2.4259,0.1201 -4.6217,1.4733 -5.8198,3.5862 L 57.2384,52.268 Z"
               fill="#ffffff"
               transform="translate(773,1198)"
               id="path191" />
            <path
               d="m 137.772,118.33 c -3.439,5.771 -9.722,9.24 -16.437,9.076 H 88.0833 v 12.583 L 68.7521,120.328 88.0833,101.201 v 13.622 H 120.91 c 2.359,0.157 4.607,-1.022 5.82,-3.052 1.174,-2.148 1.102,-4.762 -0.189,-6.842 l -14.392,-24.5373 11.12,-6.4647 14.408,24.5218 c 0.813,1.429 1.451,2.9492 1.904,4.5302 l 0.267,1.038 c 1.189,4.86 0.445,9.992 -2.076,14.313 z"
               fill="#ffffff"
               transform="translate(773,1198)"
               id="path193" />
          </g>
        </g>
      </g>
    </g>
  </g>
</svg>
